<?xml version="1.0" standalone="no"?>
<!DOCTYPE svg PUBLIC "-//W3C//DTD SVG 20010904//EN"
 "http://www.w3.org/TR/2001/REC-SVG-20010904/DTD/svg10.dtd">
<svg version="1.0" xmlns="http://www.w3.org/2000/svg"
 width="512.000000pt" height="512.000000pt" viewBox="0 0 512.000000 512.000000"
 preserveAspectRatio="xMidYMid meet">

<g transform="translate(0.000000,512.000000) scale(0.100000,-0.100000)"
fill="#000000" stroke="none">
<path d="M2370 5113 c-379 -36 -661 -116 -980 -278 -399 -203 -764 -541 -1010
-935 -179 -286 -309 -655 -362 -1025 -17 -118 -17 -512 0 -630 42 -295 120
-553 242 -800 137 -280 272 -468 494 -691 221 -220 412 -357 681 -489 188 -92
309 -137 500 -185 500 -126 1002 -102 1490 71 150 53 408 183 540 271 560 374
952 942 1095 1588 33 150 50 291 57 465 15 426 -73 832 -263 1214 -124 250
-263 447 -458 648 -214 222 -430 379 -711 518 -296 146 -572 225 -900 255
-102 9 -333 11 -415 3z m545 -342 c634 -107 1171 -457 1523 -995 170 -258 286
-563 339 -891 24 -153 24 -497 0 -650 -108 -668 -474 -1222 -1042 -1580 -243
-153 -537 -261 -850 -312 -154 -24 -497 -24 -650 1 -657 107 -1198 456 -1557
1006 -168 257 -281 557 -335 885 -24 153 -24 497 0 650 81 497 291 912 636
1255 382 381 862 605 1401 654 108 10 418 -4 535 -23z"/>
<path d="M2495 4171 c-34 -15 -75 -62 -86 -100 -7 -24 -9 -289 -7 -803 3 -760
3 -767 24 -795 33 -44 973 -741 1017 -753 98 -28 197 50 197 156 0 75 -18 93
-284 291 -138 103 -338 252 -443 331 l-193 143 0 705 c0 770 2 741 -59 798
-26 25 -41 30 -88 33 -32 1 -67 -1 -78 -6z"/>
</g>
</svg>
