<?xml version="1.0" standalone="no"?>
<!DOCTYPE svg PUBLIC "-//W3C//DTD SVG 20010904//EN"
 "http://www.w3.org/TR/2001/REC-SVG-20010904/DTD/svg10.dtd">
<svg version="1.0" xmlns="http://www.w3.org/2000/svg"
 width="512.000000pt" height="512.000000pt" viewBox="0 0 512.000000 512.000000"
 preserveAspectRatio="xMidYMid meet">

<g transform="translate(0.000000,512.000000) scale(0.100000,-0.100000)"
fill="current" stroke="none">
<path d="M1746 4869 c-62 -15 -153 -68 -197 -116 -22 -24 -55 -74 -72 -111
l-32 -67 -3 -850 -3 -850 29 45 c65 103 207 191 335 209 73 10 165 1 235 -23
185 -66 322 -259 322 -456 0 -30 -45 -284 -100 -565 l-100 -509 0 -348 0 -349
808 3 807 3 67 32 c93 44 151 100 196 191 l37 76 3 368 3 368 -760 0 -761 0 0
1000 0 1000 761 0 760 0 -3 328 -3 328 -37 76 c-45 91 -103 147 -196 191 l-67
32 -207 3 -208 4 0 -257 0 -256 -25 -24 -24 -25 -591 0 -591 0 -24 25 -25 24
0 256 0 255 -147 -1 c-82 -1 -165 -5 -187 -10z m1208 -3201 c86 -26 166 -136
166 -228 0 -124 -116 -240 -240 -240 -124 0 -240 116 -240 240 0 63 23 114 75
165 70 71 145 90 239 63z"/>
<path d="M2240 4680 l0 -200 480 0 480 0 0 200 0 200 -480 0 -480 0 0 -200z"/>
<path d="M2720 2920 l0 -840 840 0 840 0 0 840 0 840 -840 0 -840 0 0 -840z
m775 575 l25 -24 0 -231 0 -231 -25 -24 -24 -25 -231 0 -231 0 -24 25 -25 24
0 231 0 231 25 24 24 25 231 0 231 0 24 -25z m345 -95 l0 -120 -80 0 -80 0 0
120 0 120 80 0 80 0 0 -120z m320 0 l0 -120 -80 0 -80 0 0 120 0 120 80 0 80
0 0 -120z m0 -360 l0 -80 -240 0 -240 0 0 80 0 80 240 0 240 0 0 -80z m55
-185 l25 -24 0 -231 0 -231 -25 -24 -24 -25 -231 0 -231 0 -24 25 -25 24 0
231 0 231 25 24 24 25 231 0 231 0 24 -25z m-1095 -335 l0 -200 -80 0 -80 0 0
200 0 200 80 0 80 0 0 -200z m400 120 l0 -80 -120 0 -120 0 0 80 0 80 120 0
120 0 0 -80z m0 -240 l0 -80 -120 0 -120 0 0 80 0 80 120 0 120 0 0 -80z"/>
<path d="M1774 2960 c-46 -14 -123 -69 -155 -110 -15 -19 -169 -304 -343 -633
l-316 -598 0 -665 0 -665 25 -24 24 -25 1034 0 c662 0 1054 4 1088 10 194 37
361 218 377 405 l5 65 -686 0 -685 0 -30 -53 c-33 -58 -111 -134 -164 -160
-18 -9 -34 -15 -35 -13 -2 2 11 34 28 71 55 122 59 159 59 615 l0 416 101 499
c86 432 100 510 96 575 -6 118 -63 208 -169 265 -45 25 -66 29 -138 32 -47 1
-99 -2 -116 -7z"/>
</g>
</svg>
