<?xml version="1.0" standalone="no"?>
<!DOCTYPE svg PUBLIC "-//W3C//DTD SVG 20010904//EN"
 "http://www.w3.org/TR/2001/REC-SVG-20010904/DTD/svg10.dtd">
<svg version="1.0" xmlns="http://www.w3.org/2000/svg"
 width="512.000000pt" height="512.000000pt" viewBox="0 0 512.000000 512.000000"
 preserveAspectRatio="xMidYMid meet">

<g transform="translate(0.000000,512.000000) scale(0.100000,-0.100000)"
fill="current" stroke="none">
<path d="M2305 4844 l-249 -244 503 0 504 0 -248 243 c-136 133 -250 243 -254
244 -3 1 -118 -108 -256 -243z"/>
<path d="M1170 3383 l1 -1128 690 -635 c380 -349 694 -635 699 -635 5 0 304
272 665 605 361 333 671 619 690 635 l35 30 0 1128 0 1127 -1390 0 -1390 0 0
-1127z m1700 577 c47 -11 127 -41 179 -66 79 -39 108 -60 180 -132 97 -98 149
-180 188 -297 24 -72 27 -95 27 -225 0 -133 -2 -152 -27 -225 -98 -281 -366
-493 -582 -461 -73 11 -112 54 -121 134 l-7 62 -72 -68 c-95 -90 -166 -126
-254 -126 -87 0 -155 30 -216 95 -86 92 -121 203 -112 359 12 224 143 437 321
525 169 84 317 46 427 -109 29 -41 50 -63 53 -55 3 8 10 41 16 74 15 77 33
105 67 105 31 0 63 -26 63 -51 0 -10 -34 -176 -75 -369 -41 -193 -75 -362 -75
-376 0 -36 16 -61 52 -80 39 -20 86 -12 154 27 217 123 341 405 290 659 -52
253 -218 423 -493 506 -75 23 -108 27 -223 28 -260 2 -448 -71 -616 -238 -176
-177 -263 -412 -251 -686 6 -146 24 -225 78 -335 90 -188 235 -303 462 -369
128 -37 242 -49 402 -43 266 11 445 81 609 241 31 31 61 56 67 56 26 0 49 -22
49 -48 0 -63 -214 -223 -377 -282 -139 -50 -241 -63 -448 -57 -198 6 -279 19
-417 71 -125 47 -191 90 -289 186 -72 71 -93 101 -132 180 -76 154 -91 224
-91 430 0 158 3 185 26 272 102 377 373 642 713 697 39 6 81 13 95 15 60 11
279 -4 360 -24z"/>
<path d="M2473 3476 c-53 -17 -111 -59 -158 -116 -109 -130 -165 -376 -120
-527 47 -160 195 -228 340 -157 249 122 362 555 192 732 -66 69 -168 96 -254
68z"/>
<path d="M735 3319 c-187 -181 -340 -334 -340 -338 0 -11 675 -634 681 -628 2
2 3 295 2 650 l-3 647 -340 -331z"/>
<path d="M4040 2996 l0 -657 323 297 c177 163 333 307 347 320 l24 24 -260
252 c-142 139 -299 291 -347 337 l-87 85 0 -658z"/>
<path d="M370 1475 c0 -1081 3 -1404 12 -1399 13 8 1630 1197 1665 1224 23 18
118 -71 -1549 1463 l-128 118 0 -1406z"/>
<path d="M3903 2101 c-463 -427 -844 -778 -846 -781 -3 -3 376 -285 841 -628
l847 -622 3 699 c1 385 1 1016 0 1403 l-3 704 -842 -775z"/>
<path d="M1297 646 c-450 -332 -823 -608 -830 -615 -8 -8 525 -11 2093 -11
2050 0 2104 0 2085 19 -38 35 -1644 1211 -1654 1211 -6 0 -101 -83 -211 -185
-116 -107 -208 -185 -220 -185 -11 0 -103 78 -219 185 -110 102 -205 185 -213
184 -7 0 -381 -272 -831 -603z"/>
</g>
</svg>
