<?xml version="1.0" standalone="no"?>
<!DOCTYPE svg PUBLIC "-//W3C//DTD SVG 20010904//EN"
 "http://www.w3.org/TR/2001/REC-SVG-20010904/DTD/svg10.dtd">
<svg version="1.0" xmlns="http://www.w3.org/2000/svg"
 width="512.000000pt" height="512.000000pt" viewBox="0 0 512.000000 512.000000"
 preserveAspectRatio="xMidYMid meet">

<g transform="translate(0.000000,512.000000) scale(0.100000,-0.100000)"
fill="current" stroke="none">
<path d="M1897 5105 c-221 -42 -421 -169 -565 -359 -22 -28 -27 -30 -107 -33
-416 -16 -757 -303 -853 -718 -14 -61 -17 -159 -17 -755 l0 -685 26 -55 c31
-66 85 -121 148 -152 38 -19 63 -23 138 -23 l92 0 3 -955 c3 -890 5 -959 22
-1010 57 -174 196 -304 367 -345 55 -13 212 -15 1110 -15 655 0 1066 4 1100
10 130 24 271 126 338 243 52 92 62 145 68 355 l6 192 267 0 c147 0 292 4 321
10 130 24 271 125 338 243 69 122 66 71 66 1102 0 1033 3 980 -67 1104 -66
115 -208 217 -337 241 -29 6 -175 10 -322 10 l-269 0 0 152 0 151 55 58 c35
36 69 87 93 136 37 77 37 79 37 203 0 108 -4 133 -24 183 -90 226 -351 362
-580 303 l-63 -16 -21 27 c-92 122 -253 203 -403 203 -24 0 -77 -7 -117 -16
l-74 -16 -64 51 c-80 65 -220 135 -324 162 -106 27 -283 34 -388 14z m301
-201 c116 -23 246 -91 337 -175 91 -86 118 -93 195 -54 153 77 329 14 411
-146 27 -55 66 -89 100 -89 7 0 42 14 78 31 130 62 247 48 344 -41 77 -70 101
-129 95 -235 -3 -65 -10 -91 -31 -127 -32 -56 -86 -104 -146 -132 -64 -29
-186 -28 -254 2 -27 12 -61 22 -76 22 -39 0 -78 -34 -91 -78 -6 -23 -10 -205
-10 -474 l0 -436 -31 -26 c-40 -34 -88 -34 -127 -1 l-29 24 -6 293 c-6 321
-12 361 -69 450 -80 127 -224 191 -433 192 -125 1 -141 -5 -227 -81 -29 -25
-77 -58 -107 -72 -49 -23 -69 -26 -161 -26 -92 0 -112 3 -160 26 -30 14 -77
45 -105 68 -99 84 -193 110 -278 77 -51 -19 -81 -49 -130 -132 -82 -138 -251
-244 -389 -244 -51 0 -103 -23 -120 -52 -10 -18 -14 -122 -18 -461 l-5 -439
-28 -24 c-41 -35 -99 -33 -138 5 l-29 29 0 670 c0 753 -1 745 77 895 56 109
193 242 304 295 116 57 199 75 338 74 63 -1 122 3 132 8 10 6 38 41 64 79 159
241 445 361 723 305z m1362 -2746 l0 -1558 -160 0 c-174 0 -203 -7 -226 -51
-26 -52 -12 -104 36 -132 23 -14 57 -17 184 -17 l157 0 -16 -31 c-27 -50 -86
-109 -139 -137 l-51 -27 -1060 -3 c-1199 -3 -1123 -7 -1216 76 -28 25 -59 62
-70 83 l-19 39 749 0 c560 0 757 3 776 12 29 13 55 55 55 88 0 33 -26 75 -55
88 -19 9 -217 12 -780 12 l-755 0 0 1364 0 1364 43 6 c54 8 179 63 241 105 71
49 157 141 197 210 19 33 39 61 45 61 6 0 29 -14 50 -30 147 -113 239 -151
389 -158 160 -7 285 35 412 138 69 55 88 59 199 39 78 -14 149 -54 177 -98 21
-35 22 -48 27 -341 l5 -306 33 -66 c32 -66 78 -113 135 -139 l26 -12 3 -834 3
-835 33 -29 c44 -39 90 -39 134 0 l33 29 3 835 3 835 29 12 c47 19 109 87 138
148 l27 57 3 380 4 380 99 0 99 0 0 -1557z m800 1135 c67 -22 146 -92 176
-158 l24 -50 0 -930 c0 -913 -1 -931 -21 -975 -26 -58 -81 -115 -144 -148
l-50 -27 -287 -3 -288 -3 0 100 0 100 269 3 c301 3 300 3 321 77 14 49 14
1703 0 1752 -21 74 -20 74 -321 77 l-269 3 0 99 0 100 269 0 c224 0 277 -3
321 -17z m-200 -1138 l0 -755 -195 0 -195 0 0 755 0 755 195 0 195 0 0 -755z"/>
<path d="M1413 3105 c-61 -26 -58 30 -58 -1048 l0 -989 33 -29 c44 -39 90 -39
134 0 l33 29 0 989 c0 804 -2 992 -13 1011 -12 21 -67 53 -89 52 -4 -1 -22 -7
-40 -15z"/>
<path d="M2213 3105 c-61 -26 -58 30 -58 -1048 l0 -989 33 -29 c44 -39 90 -39
134 0 l33 29 0 989 c0 804 -2 992 -13 1011 -12 21 -67 53 -89 52 -4 -1 -22 -7
-40 -15z"/>
<path d="M2824 601 c-30 -13 -64 -59 -64 -88 0 -32 26 -80 49 -93 25 -13 77
-13 102 0 24 13 49 61 49 94 0 56 -83 109 -136 87z"/>
</g>
</svg>
