<?xml version="1.0" standalone="no"?>
<!DOCTYPE svg PUBLIC "-//W3C//DTD SVG 20010904//EN"
 "http://www.w3.org/TR/2001/REC-SVG-20010904/DTD/svg10.dtd">
<svg version="1.0" xmlns="http://www.w3.org/2000/svg"
 width="512.000000pt" height="512.000000pt" viewBox="0 0 512.000000 512.000000"
 preserveAspectRatio="xMidYMid meet">

<g transform="translate(0.000000,512.000000) scale(0.100000,-0.100000)"
fill="current" stroke="none">
<path d="M1041 5104 c-123 -33 -228 -104 -310 -211 -54 -70 -112 -180 -129
-248 -6 -22 -15 -58 -21 -81 l-11 -41 -68 -6 c-218 -21 -402 -166 -474 -375
l-23 -67 0 -1815 0 -1815 23 -66 c57 -166 185 -294 350 -351 l67 -23 2115 0
2115 0 67 23 c165 57 293 185 350 351 l23 66 0 1815 0 1815 -23 67 c-72 209
-256 354 -474 375 l-68 6 -10 41 c-75 295 -234 481 -465 541 -194 50 -406 -32
-544 -212 -54 -70 -112 -180 -129 -248 -6 -22 -16 -59 -22 -82 l-11 -43 -109
0 -109 0 -11 43 c-75 297 -234 482 -465 542 -194 50 -406 -32 -544 -212 -55
-71 -112 -180 -130 -250 -6 -24 -16 -61 -21 -83 l-11 -40 -109 0 -109 0 -11
43 c-37 144 -79 237 -151 330 -138 179 -355 263 -548 211z m183 -296 c78 -23
185 -155 211 -261 l7 -27 -282 0 -282 0 7 28 c16 64 70 155 120 201 74 67 135
84 219 59z m1400 0 c78 -23 185 -155 211 -261 l7 -27 -282 0 -282 0 7 28 c16
64 70 155 120 201 74 67 135 84 219 59z m1400 0 c78 -23 185 -155 211 -261 l7
-27 -282 0 -282 0 7 28 c16 64 70 155 120 201 74 67 135 84 219 59z m-3444
-630 c37 -145 79 -238 151 -331 168 -219 481 -301 559 -147 11 21 20 53 20 70
0 74 -74 150 -146 150 -15 0 -45 5 -68 12 -78 23 -185 155 -211 261 l-7 27
546 0 545 0 11 -42 c37 -145 79 -238 151 -331 168 -219 481 -301 559 -147 25
50 25 90 0 140 -22 43 -80 80 -126 80 -15 0 -45 5 -68 12 -78 23 -185 155
-211 261 l-7 27 546 0 545 0 11 -42 c37 -145 79 -238 151 -331 168 -219 481
-301 559 -147 11 21 20 53 20 70 0 74 -74 150 -146 150 -15 0 -45 5 -68 12
-78 23 -185 155 -211 261 l-7 27 464 0 c527 0 529 0 603 -75 72 -72 75 -90 75
-482 l0 -343 -2260 0 -2260 0 0 343 c0 293 2 351 17 392 30 89 128 162 220
164 30 1 33 -2 43 -41z m4240 -2411 c0 -1409 5 -1312 -75 -1392 -81 -82 112
-75 -2185 -75 -2297 0 -2104 -7 -2185 75 -80 80 -75 -17 -75 1392 l0 1253
2260 0 2260 0 0 -1253z"/>
<path d="M2412 2690 c-109 -29 -187 -74 -272 -160 -151 -150 -208 -340 -165
-545 18 -83 70 -194 119 -251 l35 -42 -52 -34 c-68 -46 -168 -145 -216 -217
-56 -82 -87 -149 -117 -248 -23 -77 -27 -110 -31 -274 -5 -175 -4 -188 16
-227 14 -28 35 -49 61 -62 38 -20 57 -20 770 -20 713 0 732 0 770 20 26 13 47
34 61 62 20 39 21 52 16 227 -4 164 -8 197 -31 274 -29 99 -61 166 -117 248
-50 74 -145 169 -213 215 l-55 36 35 42 c78 91 133 249 134 382 0 79 -31 199
-72 277 -42 81 -164 203 -245 245 -132 69 -291 88 -431 52z m282 -314 c105
-51 161 -144 161 -266 0 -85 -21 -142 -74 -203 -82 -92 -237 -121 -353 -64
-160 79 -215 278 -118 430 80 126 246 170 384 103z m40 -895 c215 -75 357
-261 373 -488 l6 -83 -553 0 -553 0 6 83 c18 253 193 453 442 507 64 14 213 4
279 -19z"/>
</g>
</svg>
