<?xml version="1.0" standalone="no"?>
<!DOCTYPE svg PUBLIC "-//W3C//DTD SVG 20010904//EN"
 "http://www.w3.org/TR/2001/REC-SVG-20010904/DTD/svg10.dtd">
<svg version="1.0" xmlns="http://www.w3.org/2000/svg"
 width="512.000000pt" height="512.000000pt" viewBox="0 0 512.000000 512.000000"
 preserveAspectRatio="xMidYMid meet">

<g transform="translate(0.000000,512.000000) scale(0.100000,-0.100000)"
fill="current" stroke="none">
<path d="M1041 5104 c-123 -33 -228 -104 -310 -211 -54 -70 -112 -180 -129
-248 -6 -22 -15 -58 -21 -81 l-11 -41 -68 -6 c-215 -20 -390 -156 -471 -365
l-26 -67 -3 -382 -3 -383 2561 0 2561 0 -3 383 c-4 365 -5 385 -26 441 -79
212 -257 352 -472 372 l-70 7 -10 41 c-75 295 -234 481 -465 541 -194 50 -406
-32 -544 -212 -54 -70 -112 -180 -129 -248 -6 -22 -16 -59 -22 -82 l-11 -43
-109 0 -109 0 -11 43 c-75 297 -234 482 -465 542 -194 50 -406 -32 -544 -212
-55 -71 -112 -180 -130 -250 -6 -24 -16 -61 -21 -83 l-11 -40 -109 0 -109 0
-11 43 c-37 144 -79 237 -151 330 -138 179 -355 263 -548 211z m183 -296 c78
-23 185 -155 211 -261 l7 -27 -280 0 c-183 0 -283 -4 -287 -10 -16 -25 -17
-197 -2 -267 40 -185 164 -323 291 -323 72 0 146 -76 146 -150 0 -51 -35 -107
-82 -131 -74 -38 -207 -14 -330 58 -223 131 -366 455 -334 757 l8 66 153 0
153 0 7 28 c16 64 70 155 120 201 74 67 135 84 219 59z m1400 0 c78 -23 185
-155 211 -261 l7 -27 -280 0 c-183 0 -283 -4 -287 -10 -16 -25 -17 -197 -2
-267 40 -185 164 -323 291 -323 72 0 146 -76 146 -150 0 -51 -35 -107 -82
-131 -74 -38 -207 -14 -330 58 -223 131 -366 455 -334 757 l8 66 153 0 153 0
7 28 c16 64 70 155 120 201 74 67 135 84 219 59z m1400 0 c78 -23 185 -155
211 -261 l7 -27 -280 0 c-183 0 -283 -4 -287 -10 -16 -25 -17 -197 -2 -267 40
-185 164 -323 291 -323 72 0 146 -76 146 -150 0 -51 -35 -107 -82 -131 -74
-38 -207 -14 -330 58 -223 131 -366 455 -334 757 l8 66 153 0 153 0 7 28 c16
64 70 155 120 201 74 67 135 84 219 59z"/>
<path d="M2 1728 l3 -1293 23 -59 c64 -170 187 -291 350 -348 l67 -23 2115 0
2115 0 67 23 c163 57 286 178 350 348 l23 59 3 1293 2 1292 -2560 0 -2560 0 2
-1292z m2702 812 c113 -29 190 -73 276 -160 151 -150 208 -340 165 -545 -18
-83 -70 -194 -119 -251 l-35 -42 55 -36 c68 -46 163 -141 213 -215 56 -82 88
-149 117 -248 23 -77 27 -110 31 -274 5 -175 4 -188 -16 -227 -14 -28 -35 -49
-61 -62 -38 -20 -57 -20 -770 -20 -713 0 -732 0 -770 20 -26 13 -47 34 -61 62
-20 39 -21 52 -16 227 4 164 8 197 31 274 30 99 61 166 117 248 48 72 148 171
216 217 l52 34 -35 42 c-78 91 -133 249 -134 382 0 79 31 199 72 277 42 80
163 201 245 245 132 70 286 88 427 52z"/>
<path d="M2463 2242 c-251 -90 -272 -432 -35 -549 81 -40 183 -40 264 0 107
53 163 144 163 267 0 85 -21 142 -74 203 -72 81 -213 117 -318 79z"/>
<path d="M2470 1354 c-256 -50 -438 -253 -457 -511 l-6 -83 553 0 553 0 -6 83
c-16 227 -158 413 -373 488 -58 20 -210 33 -264 23z"/>
</g>
</svg>
