<svg id="svg" version="1.1" xmlns="http://www.w3.org/2000/svg" xmlns:xlink="http://www.w3.org/1999/xlink" width="400" height="400" viewBox="0, 0, 400,400"><g id="svgg"><path id="path0" d="M174.000 153.600 L 174.000 179.600 200.000 179.600 L 226.000 179.600 226.000 153.600 L 226.000 127.600 200.000 127.600 L 174.000 127.600 174.000 153.600 M261.470 127.864 C 261.321 128.012,261.200 139.713,261.200 153.867 L 261.200 179.600 287.403 179.600 L 313.606 179.600 313.503 153.700 L 313.400 127.800 287.570 127.697 C 273.363 127.641,261.618 127.716,261.470 127.864 M86.670 207.064 C 86.149 207.584,86.355 258.195,86.880 258.720 C 87.631 259.471,137.730 259.408,138.354 258.655 C 138.682 258.260,138.778 251.099,138.703 232.555 L 138.600 207.000 112.770 206.897 C 98.563 206.841,86.818 206.916,86.670 207.064 M174.185 207.297 C 174.079 207.574,174.039 219.320,174.096 233.400 L 174.200 259.000 200.000 259.000 L 225.800 259.000 225.800 233.000 L 225.800 207.000 200.089 206.897 C 179.732 206.816,174.337 206.899,174.185 207.297 M261.470 207.064 C 260.949 207.584,261.155 258.195,261.680 258.720 C 262.431 259.471,312.530 259.408,313.154 258.655 C 313.482 258.260,313.578 251.099,313.503 232.555 L 313.400 207.000 287.570 206.897 C 273.363 206.841,261.618 206.916,261.470 207.064 M86.584 286.500 C 86.479 286.775,86.439 298.520,86.496 312.600 L 86.600 338.200 111.800 338.310 C 125.660 338.371,137.405 338.323,137.900 338.203 L 138.800 337.985 138.800 311.992 L 138.800 286.000 112.787 286.000 C 92.346 286.000,86.734 286.107,86.584 286.500 M174.097 312.100 L 174.200 338.200 200.000 338.200 L 225.800 338.200 225.903 312.100 L 226.006 286.000 200.000 286.000 L 173.994 286.000 174.097 312.100 M261.470 286.264 C 261.321 286.412,261.200 298.110,261.200 312.259 L 261.200 337.985 262.100 338.203 C 262.595 338.323,274.340 338.371,288.200 338.310 L 313.400 338.200 313.400 312.200 L 313.400 286.200 287.570 286.097 C 273.363 286.041,261.618 286.116,261.470 286.264 " stroke="none" fill="#fcfbfa" fill-rule="evenodd"></path><path id="path1" d="M24.000 58.600 L 24.000 78.800 200.000 78.800 L 376.000 78.800 376.000 58.600 L 376.000 38.400 338.442 38.400 L 300.885 38.400 300.693 46.100 C 300.390 58.293,297.664 62.251,289.634 62.159 C 281.679 62.067,278.800 57.449,278.800 44.780 L 278.800 38.400 245.800 38.400 L 212.800 38.400 212.800 46.204 C 212.800 53.435,212.735 54.148,211.911 55.904 C 208.587 62.988,199.485 64.518,194.182 58.884 C 193.230 57.872,192.804 57.095,191.656 54.281 C 191.371 53.583,191.200 50.388,191.200 45.781 L 191.200 38.400 156.200 38.400 L 121.200 38.400 121.195 45.100 C 121.186 57.648,118.291 62.134,110.200 62.134 C 102.068 62.134,99.200 57.543,99.200 44.527 L 99.200 38.400 61.600 38.400 L 24.000 38.400 24.000 58.600 M376.586 58.600 C 376.586 69.600,376.637 74.042,376.700 68.472 C 376.763 62.902,376.762 53.902,376.700 48.472 C 376.637 43.042,376.585 47.600,376.586 58.600 M24.000 95.200 L 24.000 101.200 200.000 101.200 L 376.000 101.200 376.000 95.200 L 376.000 89.200 200.000 89.200 L 24.000 89.200 24.000 95.200 M376.558 95.000 C 376.558 98.080,376.621 99.287,376.697 97.682 C 376.773 96.078,376.773 93.558,376.696 92.082 C 376.619 90.607,376.557 91.920,376.558 95.000 " stroke="none" fill="#74c4b4" fill-rule="evenodd"></path><path id="path2" d="M108.000 10.853 C 108.000 11.044,107.447 11.200,106.771 11.200 C 106.096 11.200,105.271 11.472,104.939 11.804 C 104.607 12.136,104.142 12.288,103.906 12.142 C 103.651 11.985,103.593 12.064,103.762 12.338 C 103.919 12.592,103.848 12.800,103.605 12.800 C 103.032 12.800,101.200 14.632,101.200 15.205 C 101.200 15.448,101.020 15.536,100.800 15.400 C 100.580 15.264,100.400 15.513,100.400 15.953 C 100.400 16.393,100.220 16.864,100.000 17.000 C 99.780 17.136,99.600 17.787,99.600 18.447 C 99.600 19.145,99.433 19.544,99.200 19.400 C 98.477 18.953,98.675 36.998,99.400 37.600 C 99.896 38.011,100.000 39.446,100.000 45.838 C 100.000 57.658,102.551 61.600,110.200 61.600 C 117.861 61.600,120.390 57.718,120.396 45.949 C 120.399 39.462,120.504 38.011,121.000 37.600 C 121.722 37.001,121.911 19.839,121.200 19.400 C 120.980 19.264,120.800 18.623,120.800 17.976 C 120.800 17.329,120.620 16.800,120.400 16.800 C 120.180 16.800,120.000 16.429,120.000 15.976 C 120.000 15.523,119.820 15.264,119.600 15.400 C 119.380 15.536,119.200 15.494,119.200 15.307 C 119.200 14.803,116.619 12.221,115.964 12.070 C 115.654 11.998,115.340 11.773,115.267 11.570 C 115.193 11.366,114.619 11.200,113.990 11.200 C 113.362 11.200,112.737 11.021,112.601 10.802 C 112.302 10.318,108.000 10.365,108.000 10.853 M200.000 10.779 C 200.000 11.011,199.385 11.200,198.633 11.200 C 197.882 11.200,197.207 11.367,197.133 11.570 C 197.060 11.774,196.751 11.999,196.446 12.070 C 195.559 12.278,192.800 15.107,192.800 15.808 C 192.800 16.189,192.614 16.332,192.338 16.162 C 192.082 16.004,191.984 16.050,192.118 16.267 C 192.250 16.482,192.077 17.184,191.733 17.829 C 190.422 20.283,191.497 53.367,192.980 56.227 C 195.997 62.042,204.028 63.512,208.987 59.158 C 210.288 58.015,210.711 57.321,211.909 54.357 C 212.535 52.808,213.061 17.600,212.458 17.600 C 212.206 17.600,212.000 17.240,212.000 16.800 C 212.000 16.360,211.820 16.000,211.600 16.000 C 211.380 16.000,211.200 15.680,211.200 15.288 C 211.200 14.897,210.818 14.312,210.351 13.988 C 209.884 13.665,209.299 13.218,209.051 12.995 C 208.011 12.060,206.375 11.200,205.638 11.200 C 205.203 11.200,204.755 11.051,204.643 10.869 C 204.333 10.367,200.000 10.283,200.000 10.779 M287.376 10.769 C 287.169 10.968,286.550 11.191,286.000 11.265 C 285.450 11.339,284.908 11.521,284.796 11.668 C 284.684 11.815,284.334 11.995,284.018 12.068 C 283.266 12.241,280.800 14.649,280.800 15.210 C 280.800 15.451,280.620 15.536,280.400 15.400 C 280.180 15.264,280.000 15.523,280.000 15.976 C 280.000 16.429,279.820 16.800,279.600 16.800 C 279.380 16.800,279.200 17.340,279.200 18.000 C 279.200 18.660,279.033 19.200,278.828 19.200 C 278.124 19.200,278.279 37.001,278.988 37.590 C 279.498 38.013,279.600 39.355,279.600 45.634 C 279.600 57.652,282.135 61.600,289.853 61.600 C 297.474 61.600,300.000 57.631,300.000 45.655 C 300.000 39.426,300.105 38.010,300.600 37.600 C 301.322 37.001,301.511 19.839,300.800 19.400 C 300.580 19.264,300.400 18.623,300.400 17.976 C 300.400 17.329,300.220 16.800,300.000 16.800 C 299.780 16.800,299.600 16.535,299.600 16.211 C 299.600 15.540,296.405 12.267,295.558 12.070 C 295.251 11.998,294.940 11.773,294.867 11.570 C 294.793 11.366,294.219 11.200,293.590 11.200 C 292.962 11.200,292.351 11.044,292.233 10.853 C 291.943 10.385,287.850 10.314,287.376 10.769 M200.100 79.100 L 24.000 79.201 24.000 84.000 L 24.000 88.800 199.767 88.800 C 296.439 88.800,375.819 88.909,376.167 89.043 C 376.724 89.257,376.800 88.659,376.800 84.043 C 376.800 81.159,376.665 78.845,376.500 78.900 C 376.335 78.954,296.955 79.045,200.100 79.100 M200.300 101.500 L 24.000 101.601 24.000 242.800 L 24.000 384.000 200.000 384.000 C 351.576 384.000,376.000 383.921,376.000 383.433 C 376.000 383.122,376.180 382.807,376.401 382.733 C 376.667 382.644,376.768 335.599,376.701 242.000 L 376.600 101.400 200.300 101.500 M138.800 153.603 L 138.800 179.606 112.700 179.503 L 86.600 179.400 86.496 154.000 C 86.439 140.030,86.479 128.375,86.584 128.100 C 86.734 127.707,92.346 127.600,112.787 127.600 L 138.800 127.600 138.800 153.603 M226.000 153.600 L 226.000 179.600 200.000 179.600 L 174.000 179.600 174.000 153.600 L 174.000 127.600 200.000 127.600 L 226.000 127.600 226.000 153.600 M313.503 153.700 L 313.606 179.600 287.403 179.600 L 261.200 179.600 261.200 153.867 C 261.200 139.713,261.321 128.012,261.470 127.864 C 261.618 127.716,273.363 127.641,287.570 127.697 L 313.400 127.800 313.503 153.700 M138.703 232.555 C 138.778 251.099,138.682 258.260,138.354 258.655 C 137.730 259.408,87.631 259.471,86.880 258.720 C 86.355 258.195,86.149 207.584,86.670 207.064 C 86.818 206.916,98.563 206.841,112.770 206.897 L 138.600 207.000 138.703 232.555 M225.800 233.000 L 225.800 259.000 200.000 259.000 L 174.200 259.000 174.096 233.400 C 174.039 219.320,174.079 207.574,174.185 207.297 C 174.337 206.899,179.732 206.816,200.089 206.897 L 225.800 207.000 225.800 233.000 M313.503 232.555 C 313.578 251.099,313.482 258.260,313.154 258.655 C 312.530 259.408,262.431 259.471,261.680 258.720 C 261.155 258.195,260.949 207.584,261.470 207.064 C 261.618 206.916,273.363 206.841,287.570 206.897 L 313.400 207.000 313.503 232.555 M138.800 311.992 L 138.800 337.985 137.900 338.203 C 137.405 338.323,125.660 338.371,111.800 338.310 L 86.600 338.200 86.496 312.600 C 86.439 298.520,86.479 286.775,86.584 286.500 C 86.734 286.107,92.346 286.000,112.787 286.000 L 138.800 286.000 138.800 311.992 M225.903 312.100 L 225.800 338.200 200.000 338.200 L 174.200 338.200 174.097 312.100 L 173.994 286.000 200.000 286.000 L 226.006 286.000 225.903 312.100 M313.400 312.200 L 313.400 338.200 288.200 338.310 C 274.340 338.371,262.595 338.323,262.100 338.203 L 261.200 337.985 261.200 312.259 C 261.200 298.110,261.321 286.412,261.470 286.264 C 261.618 286.116,273.363 286.041,287.570 286.097 L 313.400 286.200 313.400 312.200 " stroke="none" fill="#fbe364" fill-rule="evenodd"></path><path id="path3" d="M86.584 128.100 C 86.479 128.375,86.439 140.030,86.496 154.000 L 86.600 179.400 112.700 179.503 L 138.800 179.606 138.800 153.603 L 138.800 127.600 112.787 127.600 C 92.346 127.600,86.734 127.707,86.584 128.100 " stroke="none" fill="#f47c5c" fill-rule="evenodd"></path><path id="path4" d="M24.000 37.800 C 24.000 38.329,28.444 38.400,61.600 38.400 L 99.200 38.400 99.200 44.527 C 99.200 57.543,102.068 62.134,110.200 62.134 C 118.291 62.134,121.186 57.648,121.195 45.100 L 121.200 38.400 156.200 38.400 L 191.200 38.400 191.200 45.781 C 191.200 50.388,191.371 53.583,191.656 54.281 C 192.804 57.095,193.230 57.872,194.182 58.884 C 199.485 64.518,208.587 62.988,211.911 55.904 C 212.735 54.148,212.800 53.435,212.800 46.204 L 212.800 38.400 245.800 38.400 L 278.800 38.400 278.800 44.780 C 278.800 57.449,281.679 62.067,289.634 62.159 C 297.664 62.251,300.390 58.293,300.693 46.100 L 300.885 38.400 338.442 38.400 L 376.000 38.400 376.000 58.600 L 376.000 78.800 199.900 78.900 L 23.800 78.999 199.400 79.109 C 295.980 79.169,375.360 79.132,375.800 79.027 C 376.601 78.835,376.945 39.887,376.165 37.852 C 375.838 37.001,301.328 36.832,300.480 37.680 C 300.141 38.019,300.000 40.366,300.000 45.686 C 300.000 57.628,297.468 61.600,289.853 61.600 C 282.135 61.600,279.600 57.652,279.600 45.634 C 279.600 39.769,279.479 37.998,279.056 37.647 C 278.660 37.318,269.572 37.223,245.556 37.298 L 212.600 37.400 212.398 45.600 C 212.287 50.110,212.042 54.160,211.855 54.600 C 210.663 57.398,210.259 58.041,208.987 59.158 C 206.955 60.942,205.078 61.600,202.026 61.600 C 197.169 61.600,194.097 59.290,192.185 54.200 C 192.020 53.760,191.776 49.800,191.642 45.400 L 191.400 37.400 156.444 37.298 C 130.949 37.223,121.340 37.318,120.944 37.647 C 120.519 37.999,120.399 39.824,120.396 45.949 C 120.390 57.718,117.861 61.600,110.200 61.600 C 102.558 61.600,100.000 57.655,100.000 45.869 C 100.000 40.406,99.860 38.020,99.520 37.680 C 98.717 36.877,24.000 36.995,24.000 37.800 M199.900 89.100 L 376.000 89.201 376.000 95.200 L 376.000 101.199 199.900 101.300 L 23.800 101.401 200.100 101.500 C 297.065 101.555,376.405 101.465,376.411 101.300 C 376.673 94.298,376.530 89.182,376.067 89.004 C 375.774 88.892,296.394 88.845,199.667 88.900 L 23.800 88.999 199.900 89.100 " stroke="none" fill="#a0cb9c" fill-rule="evenodd"></path></g></svg>
