<svg id="svg" version="1.1" xmlns="http://www.w3.org/2000/svg" xmlns:xlink="http://www.w3.org/1999/xlink" width="400" height="400" viewBox="0, 0, 400,400"><g id="svgg"><path id="path0" d="M40.000 166.600 L 40.000 193.200 66.600 193.200 L 93.200 193.200 93.200 166.600 L 93.200 140.000 66.600 140.000 L 40.000 140.000 40.000 166.600 M126.800 166.600 L 126.800 193.206 153.300 193.103 L 179.800 193.000 179.800 166.600 L 179.800 140.200 153.300 140.097 L 126.800 139.994 126.800 166.600 M220.184 140.500 C 220.079 140.775,220.039 152.700,220.096 167.000 L 220.200 193.000 246.800 193.000 L 273.400 193.000 273.510 167.400 C 273.571 153.320,273.523 141.395,273.403 140.900 L 273.185 140.000 246.780 140.000 C 226.024 140.000,220.334 140.107,220.184 140.500 M306.800 166.600 L 306.800 193.200 333.400 193.200 L 360.000 193.200 360.000 166.600 L 360.000 140.000 333.400 140.000 L 306.800 140.000 306.800 166.600 M40.270 220.264 C 40.121 220.412,40.000 232.380,40.000 246.859 L 40.000 273.185 40.900 273.403 C 41.395 273.523,53.320 273.571,67.400 273.510 L 93.000 273.400 93.000 246.800 L 93.000 220.200 66.770 220.097 C 52.343 220.041,40.418 220.116,40.270 220.264 M220.267 220.267 C 219.613 220.921,219.973 273.104,220.633 273.357 C 222.264 273.983,272.329 273.614,272.971 272.971 C 273.614 272.329,273.983 222.264,273.357 220.633 C 273.104 219.973,220.921 219.613,220.267 220.267 M307.070 220.264 C 306.414 220.920,306.771 273.103,307.433 273.357 C 308.386 273.723,358.923 273.637,359.503 273.268 C 359.900 273.016,359.984 267.410,359.903 246.575 L 359.800 220.200 333.570 220.097 C 319.143 220.041,307.218 220.116,307.070 220.264 M40.000 326.600 L 40.000 353.200 66.600 353.200 L 93.200 353.200 93.200 326.600 L 93.200 300.000 66.600 300.000 L 40.000 300.000 40.000 326.600 M126.800 326.600 L 126.800 353.206 153.300 353.103 L 179.800 353.000 179.800 326.600 L 179.800 300.200 153.300 300.097 L 126.800 299.994 126.800 326.600 M220.185 300.497 C 220.079 300.774,220.039 312.700,220.096 327.000 L 220.200 353.000 246.800 353.000 L 273.400 353.000 273.400 326.600 L 273.400 300.200 246.889 300.097 C 225.892 300.016,220.337 300.099,220.185 300.497 M306.800 326.600 L 306.800 353.200 333.400 353.200 L 360.000 353.200 360.000 326.600 L 360.000 300.000 333.400 300.000 L 306.800 300.000 306.800 326.600 " stroke="none" fill="#fcfbfb" fill-rule="evenodd"></path><path id="path1" d="M3.600 53.197 C 3.600 53.419,3.322 53.600,2.982 53.600 C 2.642 53.600,1.877 54.087,1.282 54.682 L 0.200 55.763 0.091 87.882 L -0.018 120.000 200.000 120.000 L 400.018 120.000 399.909 87.882 L 399.800 55.763 398.718 54.682 C 398.123 54.087,397.358 53.600,397.018 53.600 C 396.678 53.600,396.400 53.420,396.400 53.200 C 396.400 52.938,387.936 52.800,371.808 52.800 L 347.215 52.800 347.007 53.700 C 346.893 54.195,346.754 62.340,346.700 71.800 L 346.600 89.000 345.684 90.284 C 345.180 90.990,344.190 91.980,343.484 92.484 L 342.200 93.400 320.000 93.400 L 297.800 93.400 296.516 92.484 C 295.810 91.980,294.820 90.990,294.316 90.284 L 293.400 89.000 293.298 71.800 C 293.243 62.340,293.104 54.194,292.990 53.698 L 292.784 52.795 259.892 52.898 L 227.000 53.000 226.800 71.018 C 226.577 91.069,226.733 89.990,223.739 92.273 L 222.262 93.400 200.231 93.400 C 175.604 93.400,176.812 93.535,174.521 90.532 L 173.400 89.063 173.200 71.032 L 173.000 53.000 140.100 52.898 C 122.005 52.841,107.165 52.841,107.122 52.898 C 107.079 52.954,106.944 61.100,106.822 71.000 C 106.573 91.181,106.730 90.169,103.484 92.484 L 102.200 93.400 79.969 93.400 L 57.738 93.400 56.268 92.279 C 53.337 90.043,53.423 90.647,53.200 70.800 L 53.000 53.000 28.300 52.897 C 11.907 52.829,3.600 52.929,3.600 53.197 M177.000 214.114 C 175.381 215.026,172.757 218.882,169.815 224.669 C 169.164 225.951,168.337 227.450,167.977 228.000 C 167.617 228.550,166.640 230.260,165.804 231.800 C 164.969 233.340,162.088 238.560,159.402 243.400 C 156.716 248.240,153.836 253.460,153.001 255.000 C 152.167 256.540,151.355 257.980,151.198 258.200 C 151.041 258.420,150.139 260.040,149.195 261.800 C 146.795 266.272,146.603 266.527,146.094 265.909 C 145.715 265.449,136.256 249.787,134.310 246.400 C 130.271 239.365,123.882 238.028,120.994 243.612 C 119.249 246.987,119.589 247.867,128.104 262.000 C 131.617 267.830,134.852 273.230,135.292 274.000 C 135.733 274.770,136.407 275.850,136.790 276.400 C 137.173 276.950,137.557 277.580,137.643 277.800 C 138.170 279.144,141.383 284.020,142.303 284.873 C 146.367 288.643,150.444 287.010,154.279 280.078 C 155.240 278.342,159.755 270.202,162.089 266.000 C 162.639 265.010,163.586 263.300,164.194 262.200 C 164.802 261.100,165.615 259.660,166.001 259.000 C 166.386 258.340,167.242 256.810,167.903 255.600 C 168.563 254.390,172.307 247.640,176.222 240.600 C 187.518 220.291,187.449 220.451,186.202 217.466 C 184.639 213.727,180.418 212.189,177.000 214.114 " stroke="none" fill="#db1d4c" fill-rule="evenodd"></path><path id="path2" d="M56.206 0.294 C 55.299 0.523,53.601 2.352,53.600 3.100 C 53.600 3.375,53.420 3.600,53.200 3.600 C 52.938 3.600,52.800 12.059,52.800 28.176 C 52.800 44.129,52.940 52.840,53.200 53.000 C 53.456 53.158,53.602 59.176,53.604 69.724 C 53.610 89.005,53.580 88.715,55.779 91.042 L 57.439 92.800 79.972 92.800 L 102.505 92.800 104.353 90.953 L 106.200 89.106 106.323 71.132 C 106.427 55.794,106.531 53.125,107.031 52.933 C 107.733 52.663,107.882 5.021,107.182 4.589 C 106.972 4.459,106.800 4.003,106.800 3.576 C 106.800 3.149,106.620 2.800,106.400 2.800 C 106.180 2.800,106.000 2.545,106.000 2.233 C 106.000 0.068,105.151 -0.004,80.153 0.046 C 67.419 0.072,56.643 0.183,56.206 0.294 M174.833 1.569 C 173.519 2.831,173.200 3.417,173.200 4.569 C 173.200 5.356,173.020 6.000,172.800 6.000 C 172.538 6.000,172.400 14.067,172.400 29.400 C 172.400 49.933,172.474 52.800,173.000 52.800 C 173.524 52.800,173.600 54.995,173.600 70.151 C 173.600 88.457,173.652 89.034,175.469 91.000 C 177.153 92.821,176.864 92.800,200.000 92.800 C 222.377 92.800,222.692 92.781,224.264 91.350 C 226.385 89.417,226.400 89.268,226.400 70.388 C 226.400 55.021,226.476 52.800,227.000 52.800 C 227.526 52.800,227.600 49.933,227.600 29.400 C 227.600 14.067,227.462 6.000,227.200 6.000 C 226.980 6.000,226.800 5.356,226.800 4.569 C 226.800 3.417,226.481 2.831,225.167 1.569 L 223.535 0.000 200.000 0.000 L 176.465 0.000 174.833 1.569 M296.007 0.296 C 295.104 0.650,294.523 1.341,293.518 3.254 L 292.600 5.000 292.491 28.749 C 292.396 49.325,292.460 52.558,292.973 52.949 C 293.476 53.333,293.582 56.069,293.682 71.286 L 293.800 89.173 295.720 90.986 L 297.640 92.800 320.049 92.800 C 337.428 92.800,342.575 92.688,342.984 92.300 C 343.274 92.025,343.846 91.498,344.255 91.128 C 346.286 89.296,346.192 90.201,346.322 71.210 C 346.394 60.745,346.600 53.243,346.822 53.020 C 347.051 52.790,347.200 43.137,347.200 28.558 C 347.200 1.478,347.265 2.081,344.173 0.614 C 342.862 -0.008,297.544 -0.307,296.007 0.296 " stroke="none" fill="#7c8b9b" fill-rule="evenodd"></path><path id="path3" d="M0.096 248.267 C 0.179 350.451,0.302 376.567,0.700 376.700 C 0.975 376.792,1.200 377.392,1.200 378.033 C 1.200 378.675,1.380 379.200,1.600 379.200 C 1.820 379.200,2.000 379.658,2.000 380.217 C 2.000 380.776,2.360 381.620,2.800 382.092 C 3.240 382.564,3.600 383.187,3.600 383.475 C 3.600 383.764,3.780 384.000,4.000 384.000 C 4.220 384.000,4.400 384.360,4.400 384.800 C 4.400 385.240,4.550 385.600,4.732 385.600 C 4.915 385.600,5.320 386.090,5.632 386.690 C 6.310 387.991,11.426 393.200,12.026 393.200 C 12.258 393.200,12.336 393.380,12.200 393.600 C 12.064 393.820,12.199 394.000,12.501 394.000 C 12.802 394.000,13.436 394.360,13.908 394.800 C 14.380 395.240,15.044 395.600,15.383 395.600 C 15.722 395.600,16.000 395.746,16.000 395.925 C 16.000 396.104,16.622 396.495,17.382 396.793 C 18.142 397.091,18.695 397.447,18.611 397.583 C 18.527 397.719,18.940 397.870,19.529 397.919 C 20.118 397.967,20.660 398.185,20.733 398.403 C 20.807 398.622,21.377 398.800,22.000 398.800 C 22.623 398.800,23.208 399.025,23.300 399.300 C 23.433 399.699,59.129 399.800,200.000 399.800 C 340.871 399.800,376.567 399.699,376.700 399.300 C 376.792 399.025,377.377 398.800,378.000 398.800 C 378.623 398.800,379.193 398.637,379.267 398.438 C 379.340 398.239,379.850 398.014,380.400 397.938 C 380.950 397.862,381.749 397.485,382.175 397.100 C 382.602 396.715,383.187 396.400,383.475 396.400 C 383.764 396.400,384.000 396.220,384.000 396.000 C 384.000 395.780,384.360 395.600,384.800 395.600 C 385.240 395.600,385.600 395.450,385.600 395.268 C 385.600 395.085,386.095 394.680,386.700 394.368 C 388.125 393.632,393.632 388.125,394.368 386.700 C 394.680 386.095,395.085 385.600,395.268 385.600 C 395.450 385.600,395.600 385.240,395.600 384.800 C 395.600 384.360,395.780 384.000,396.000 384.000 C 396.220 384.000,396.400 383.764,396.400 383.475 C 396.400 383.187,396.715 382.602,397.100 382.175 C 397.485 381.749,397.862 380.950,397.938 380.400 C 398.014 379.850,398.239 379.340,398.438 379.267 C 398.637 379.193,398.800 378.623,398.800 378.000 C 398.800 377.377,399.025 376.792,399.300 376.700 C 399.698 376.567,399.821 350.451,399.904 248.267 L 400.007 120.000 200.000 120.000 L -0.007 120.000 0.096 248.267 M93.200 166.600 L 93.200 193.200 66.600 193.200 L 40.000 193.200 40.000 166.600 L 40.000 140.000 66.600 140.000 L 93.200 140.000 93.200 166.600 M179.800 166.600 L 179.800 193.000 153.300 193.103 L 126.800 193.206 126.800 166.600 L 126.800 139.994 153.300 140.097 L 179.800 140.200 179.800 166.600 M273.403 140.900 C 273.523 141.395,273.571 153.320,273.510 167.400 L 273.400 193.000 246.800 193.000 L 220.200 193.000 220.096 167.000 C 220.039 152.700,220.079 140.775,220.184 140.500 C 220.334 140.107,226.024 140.000,246.780 140.000 L 273.185 140.000 273.403 140.900 M360.000 166.600 L 360.000 193.200 333.400 193.200 L 306.800 193.200 306.800 166.600 L 306.800 140.000 333.400 140.000 L 360.000 140.000 360.000 166.600 M182.451 213.769 C 184.257 214.530,185.478 215.734,186.202 217.466 C 187.449 220.451,187.518 220.291,176.222 240.600 C 172.307 247.640,168.563 254.390,167.903 255.600 C 167.242 256.810,166.386 258.340,166.001 259.000 C 165.615 259.660,164.802 261.100,164.194 262.200 C 163.586 263.300,162.639 265.010,162.089 266.000 C 159.755 270.202,155.240 278.342,154.279 280.078 C 150.444 287.010,146.367 288.643,142.303 284.873 C 141.383 284.020,138.170 279.144,137.643 277.800 C 137.557 277.580,137.173 276.950,136.790 276.400 C 136.407 275.850,135.733 274.770,135.292 274.000 C 134.852 273.230,131.617 267.830,128.104 262.000 C 119.589 247.867,119.249 246.987,120.994 243.612 C 123.882 238.028,130.271 239.365,134.310 246.400 C 136.256 249.787,145.715 265.449,146.094 265.909 C 146.603 266.527,146.795 266.272,149.195 261.800 C 150.139 260.040,151.041 258.420,151.198 258.200 C 151.355 257.980,152.167 256.540,153.001 255.000 C 153.836 253.460,156.716 248.240,159.402 243.400 C 162.088 238.560,164.969 233.340,165.804 231.800 C 166.640 230.260,167.617 228.550,167.977 228.000 C 168.337 227.450,169.164 225.951,169.815 224.669 C 175.040 214.390,177.957 211.874,182.451 213.769 M93.000 246.800 L 93.000 273.400 67.400 273.510 C 53.320 273.571,41.395 273.523,40.900 273.403 L 40.000 273.185 40.000 246.859 C 40.000 232.380,40.121 220.412,40.270 220.264 C 40.418 220.116,52.343 220.041,66.770 220.097 L 93.000 220.200 93.000 246.800 M273.357 220.633 C 273.983 222.264,273.614 272.329,272.971 272.971 C 272.329 273.614,222.264 273.983,220.633 273.357 C 219.973 273.104,219.613 220.921,220.267 220.267 C 220.921 219.613,273.104 219.973,273.357 220.633 M359.903 246.575 C 359.984 267.410,359.900 273.016,359.503 273.268 C 358.923 273.637,308.386 273.723,307.433 273.357 C 306.771 273.103,306.414 220.920,307.070 220.264 C 307.218 220.116,319.143 220.041,333.570 220.097 L 359.800 220.200 359.903 246.575 M93.200 326.600 L 93.200 353.200 66.600 353.200 L 40.000 353.200 40.000 326.600 L 40.000 300.000 66.600 300.000 L 93.200 300.000 93.200 326.600 M179.800 326.600 L 179.800 353.000 153.300 353.103 L 126.800 353.206 126.800 326.600 L 126.800 299.994 153.300 300.097 L 179.800 300.200 179.800 326.600 M273.400 326.600 L 273.400 353.000 246.800 353.000 L 220.200 353.000 220.096 327.000 C 220.039 312.700,220.079 300.774,220.185 300.497 C 220.337 300.099,225.892 300.016,246.889 300.097 L 273.400 300.200 273.400 326.600 M360.000 326.600 L 360.000 353.200 333.400 353.200 L 306.800 353.200 306.800 326.600 L 306.800 300.000 333.400 300.000 L 360.000 300.000 360.000 326.600 " stroke="none" fill="#fcd484" fill-rule="evenodd"></path><path id="path4" d="M53.200 70.738 C 53.423 90.654,53.336 90.042,56.268 92.279 L 57.737 93.400 78.168 93.525 C 102.660 93.676,102.318 93.703,104.611 91.411 C 106.088 89.933,106.365 89.386,106.574 87.545 C 106.919 84.484,107.056 52.782,106.722 53.120 C 106.569 53.274,106.389 61.434,106.322 71.253 L 106.200 89.106 104.353 90.953 L 102.505 92.800 79.972 92.800 L 57.439 92.800 55.779 91.042 C 53.580 88.715,53.610 89.005,53.604 69.724 C 53.602 60.662,53.465 53.164,53.300 53.061 C 53.135 52.959,53.090 60.914,53.200 70.738 M173.200 70.932 L 173.400 89.064 174.521 90.532 C 176.812 93.535,175.604 93.400,200.231 93.400 L 222.262 93.400 223.739 92.273 C 226.734 89.989,226.577 91.082,226.800 70.918 C 226.910 60.953,226.865 52.800,226.700 52.800 C 226.535 52.800,226.400 60.715,226.400 70.388 C 226.400 90.457,226.427 90.288,222.890 92.300 C 221.616 93.025,178.389 93.025,177.099 92.300 C 173.660 90.369,173.600 89.987,173.600 70.151 C 173.600 60.608,173.465 52.800,173.300 52.800 C 173.135 52.800,173.090 60.959,173.200 70.932 M293.090 69.120 C 293.202 89.444,293.177 89.198,295.359 91.380 C 296.556 92.577,297.510 93.147,298.625 93.331 C 300.679 93.670,339.321 93.670,341.375 93.331 C 343.670 92.952,346.258 90.272,346.578 87.941 C 346.920 85.449,347.056 52.783,346.722 53.120 C 346.569 53.274,346.389 61.423,346.322 71.229 C 346.218 86.399,346.111 89.156,345.600 89.715 C 345.270 90.077,344.797 90.603,344.549 90.886 C 342.780 92.902,344.089 92.800,320.016 92.800 L 297.640 92.800 295.720 90.986 L 293.800 89.173 293.676 71.286 C 293.607 61.449,293.427 53.274,293.276 53.120 C 293.124 52.965,293.041 60.165,293.090 69.120 " stroke="none" fill="#946c84" fill-rule="evenodd"></path></g></svg>