<?xml version="1.0" standalone="no"?>
<!DOCTYPE svg PUBLIC "-//W3C//DTD SVG 20010904//EN"
 "http://www.w3.org/TR/2001/REC-SVG-20010904/DTD/svg10.dtd">
<svg version="1.0" xmlns="http://www.w3.org/2000/svg"
 width="512.000000pt" height="512.000000pt" viewBox="0 0 512.000000 512.000000"
 preserveAspectRatio="xMidYMid meet">

<g transform="translate(0.000000,512.000000) scale(0.100000,-0.100000)"
fill="#eee" stroke="none">
<path d="M1691 4275 l-235 -295 -728 0 -728 0 0 -1715 0 -1715 2560 0 2560 0
0 1715 0 1715 -728 0 -728 0 -235 295 -234 294 -635 0 -635 0 -234 -294z
m2965 -649 c64 -30 120 -95 140 -164 62 -211 -168 -403 -364 -303 -51 26 -115
99 -130 149 -7 22 -12 64 -12 93 1 183 197 304 366 225z m-1915 -251 c410 -71
738 -373 849 -780 31 -113 39 -349 15 -466 -44 -217 -130 -381 -285 -542 -163
-170 -362 -274 -594 -312 -170 -28 -340 -13 -506 43 -152 52 -267 122 -386
234 -105 100 -166 183 -229 313 -84 171 -100 244 -100 460 0 157 3 191 23 265
83 305 283 552 557 688 204 101 437 136 656 97z"/>
<path d="M2410 3105 c-148 -30 -278 -97 -388 -199 -166 -156 -252 -354 -252
-584 0 -364 246 -675 605 -768 94 -24 275 -24 370 0 225 57 423 216 524 421
55 111 72 181 78 320 4 100 2 134 -16 207 -39 163 -113 291 -234 405 -183 171
-445 247 -687 198z"/>
</g>
</svg>
