<?xml version="1.0" standalone="no"?>
<!DOCTYPE svg PUBLIC "-//W3C//DTD SVG 20010904//EN"
 "http://www.w3.org/TR/2001/REC-SVG-20010904/DTD/svg10.dtd">
<svg version="1.0" xmlns="http://www.w3.org/2000/svg"
 width="512.000000pt" height="512.000000pt" viewBox="0 0 512.000000 512.000000"
 preserveAspectRatio="xMidYMid meet">

<g transform="translate(0.000000,512.000000) scale(0.100000,-0.100000)"
fill="current" stroke="none">
<path d="M332 4863 c-66 -32 -101 -105 -88 -180 7 -34 120 -151 1069 -1100
l1062 -1063 -1062 -1062 c-1153 -1154 -1086 -1081 -1069 -1174 9 -47 73 -111
120 -120 93 -17 20 -84 1174 1069 l1062 1062 1063 -1062 c1153 -1153 1080
-1086 1173 -1069 47 9 111 73 120 120 17 93 84 20 -1069 1174 l-1062 1062
1062 1063 c1153 1153 1086 1080 1069 1173 -9 47 -73 111 -120 120 -93 17 -20
84 -1174 -1069 l-1062 -1062 -1058 1057 c-596 596 -1069 1062 -1085 1068 -40
14 -87 12 -125 -7z"/>
</g>
</svg>
