<svg id="svg" version="1.1" xmlns="http://www.w3.org/2000/svg" xmlns:xlink="http://www.w3.org/1999/xlink" width="400" height="400" viewBox="0, 0, 400,400"><g id="svgg"><path id="path0" d="M119.200 103.835 C 112.323 105.059,106.564 110.099,104.385 116.800 C 103.691 118.935,103.618 126.685,104.278 128.077 C 104.519 128.585,105.209 130.080,105.812 131.400 C 106.800 133.564,110.159 137.056,139.946 166.900 L 172.984 200.000 139.946 233.100 C 110.159 262.944,106.800 266.436,105.812 268.600 C 105.209 269.920,104.515 271.423,104.269 271.940 C 103.620 273.304,103.677 281.485,104.347 283.200 C 106.290 288.174,108.221 290.791,111.600 293.031 C 116.198 296.079,120.526 297.082,125.275 296.198 C 129.170 295.473,130.007 295.213,131.262 294.339 C 131.846 293.933,132.559 293.600,132.847 293.600 C 133.134 293.600,148.183 278.795,166.287 260.700 C 184.392 242.605,199.497 227.737,199.853 227.661 C 200.275 227.570,212.059 239.069,233.570 260.561 C 251.758 278.732,266.873 293.600,267.158 293.600 C 267.443 293.600,268.154 293.933,268.738 294.339 C 271.791 296.465,279.433 297.126,283.400 295.608 C 289.794 293.160,293.160 289.794,295.608 283.400 C 297.126 279.433,296.465 271.791,294.339 268.738 C 293.933 268.154,293.600 267.443,293.600 267.158 C 293.600 266.873,278.732 251.758,260.561 233.570 C 239.069 212.059,227.570 200.275,227.661 199.853 C 227.737 199.497,242.605 184.392,260.700 166.287 C 278.795 148.183,293.600 133.134,293.600 132.847 C 293.600 132.559,293.933 131.846,294.339 131.262 C 296.496 128.163,297.131 120.470,295.557 116.500 C 293.790 112.044,292.250 109.899,289.084 107.484 C 287.234 106.073,286.182 105.512,283.200 104.347 C 281.485 103.677,273.304 103.620,271.940 104.269 C 271.423 104.515,269.920 105.209,268.600 105.812 C 266.436 106.800,262.944 110.159,233.100 139.946 L 200.000 172.984 166.900 139.946 C 136.977 110.079,133.570 106.804,131.400 105.819 C 130.080 105.220,128.694 104.570,128.321 104.375 C 127.547 103.970,120.714 103.565,119.200 103.835 " stroke="none" fill="#fbfafa" fill-rule="evenodd"></path><path id="path1" d="M180.002 0.299 C 178.133 0.374,176.432 0.608,176.222 0.818 C 176.012 1.028,174.537 1.200,172.944 1.200 C 171.351 1.200,169.936 1.380,169.800 1.600 C 169.664 1.820,168.674 2.000,167.600 2.000 C 166.526 2.000,165.536 2.180,165.400 2.400 C 165.264 2.620,164.274 2.800,163.200 2.800 C 162.126 2.800,161.148 2.961,161.026 3.158 C 160.819 3.493,160.186 3.627,155.900 4.245 C 154.965 4.380,154.013 4.640,153.785 4.824 C 153.556 5.007,152.622 5.202,151.708 5.256 C 150.795 5.309,150.138 5.499,150.247 5.677 C 150.357 5.855,149.807 6.000,149.024 6.000 C 148.241 6.000,147.600 6.180,147.600 6.400 C 147.600 6.620,147.071 6.800,146.424 6.800 C 145.777 6.800,145.136 6.980,145.000 7.200 C 144.864 7.420,144.133 7.600,143.376 7.600 C 142.619 7.600,142.000 7.780,142.000 8.000 C 142.000 8.220,141.460 8.400,140.800 8.400 C 140.140 8.400,139.600 8.599,139.600 8.843 C 139.600 9.086,139.375 9.200,139.100 9.095 C 138.825 8.991,138.150 9.090,137.600 9.317 C 137.050 9.544,136.313 9.745,135.961 9.764 C 135.610 9.784,135.039 10.036,134.691 10.324 C 134.344 10.613,133.821 10.807,133.530 10.755 C 133.238 10.704,132.550 10.864,132.000 11.111 C 128.389 12.734,125.020 13.936,124.678 13.725 C 124.451 13.584,124.400 13.677,124.562 13.938 C 124.742 14.231,124.543 14.400,124.018 14.400 C 123.562 14.400,122.877 14.557,122.495 14.750 C 119.389 16.314,118.221 16.800,117.562 16.800 C 117.143 16.800,116.800 16.954,116.800 17.143 C 116.800 17.332,115.810 17.913,114.600 18.436 C 113.390 18.958,112.400 19.524,112.400 19.693 C 112.400 19.862,112.040 20.000,111.600 20.000 C 111.160 20.000,110.800 20.180,110.800 20.400 C 110.800 20.620,110.440 20.800,110.000 20.800 C 109.560 20.800,109.200 20.980,109.200 21.200 C 109.200 21.420,108.840 21.600,108.400 21.600 C 107.960 21.600,107.600 21.780,107.600 22.000 C 107.600 22.220,107.240 22.400,106.800 22.400 C 106.360 22.400,106.000 22.580,106.000 22.800 C 106.000 23.020,105.655 23.200,105.233 23.200 C 104.812 23.200,104.407 23.335,104.333 23.500 C 104.165 23.879,102.398 24.923,99.700 26.236 C 98.545 26.798,97.600 27.425,97.600 27.629 C 97.600 27.833,97.240 28.000,96.800 28.000 C 96.360 28.000,96.000 28.136,96.000 28.302 C 96.000 28.469,95.482 28.834,94.848 29.115 C 94.214 29.395,93.179 30.069,92.548 30.612 C 91.917 31.155,91.246 31.599,91.058 31.600 C 90.869 31.600,90.033 32.140,89.200 32.800 C 88.367 33.460,87.531 34.000,87.342 34.000 C 87.154 34.001,86.482 34.447,85.848 34.992 C 85.214 35.537,84.511 35.869,84.286 35.730 C 84.061 35.590,83.983 35.649,84.113 35.859 C 84.243 36.070,83.641 36.680,82.775 37.216 C 81.909 37.751,81.200 38.326,81.200 38.494 C 81.200 38.662,80.975 38.805,80.700 38.811 C 80.425 38.818,79.397 39.538,78.414 40.411 C 77.432 41.285,76.481 42.000,76.301 42.000 C 76.121 42.000,75.369 42.585,74.630 43.300 C 73.891 44.015,72.695 45.050,71.973 45.600 C 71.250 46.150,70.421 46.838,70.130 47.129 C 69.838 47.419,69.600 47.575,69.600 47.475 C 69.600 47.376,68.700 48.203,67.600 49.315 C 66.500 50.427,65.600 51.221,65.600 51.081 C 65.600 50.941,62.301 54.105,58.269 58.113 C 54.237 62.121,50.983 65.495,51.038 65.612 C 51.093 65.728,50.270 66.673,49.209 67.712 C 48.148 68.750,47.365 69.600,47.469 69.600 C 47.572 69.600,47.419 69.838,47.129 70.130 C 46.838 70.421,46.150 71.250,45.600 71.973 C 45.050 72.695,44.015 73.891,43.300 74.630 C 42.585 75.369,42.000 76.121,42.000 76.301 C 42.000 76.481,41.285 77.432,40.411 78.414 C 39.538 79.397,38.818 80.425,38.811 80.700 C 38.805 80.975,38.662 81.200,38.494 81.200 C 38.326 81.200,37.751 81.909,37.216 82.775 C 36.680 83.641,36.070 84.243,35.859 84.113 C 35.649 83.983,35.590 84.061,35.730 84.286 C 35.869 84.511,35.537 85.214,34.992 85.848 C 34.447 86.482,34.001 87.154,34.000 87.342 C 34.000 87.531,33.460 88.367,32.800 89.200 C 32.140 90.033,31.600 90.869,31.600 91.058 C 31.599 91.246,31.155 91.917,30.612 92.548 C 30.069 93.179,29.395 94.214,29.115 94.848 C 28.834 95.482,28.469 96.000,28.302 96.000 C 28.136 96.000,28.000 96.360,28.000 96.800 C 28.000 97.240,27.833 97.600,27.629 97.600 C 27.425 97.600,26.798 98.545,26.236 99.700 C 24.923 102.398,23.879 104.165,23.500 104.333 C 23.335 104.407,23.200 104.812,23.200 105.233 C 23.200 105.655,23.020 106.000,22.800 106.000 C 22.580 106.000,22.400 106.360,22.400 106.800 C 22.400 107.240,22.220 107.600,22.000 107.600 C 21.780 107.600,21.600 107.960,21.600 108.400 C 21.600 108.840,21.420 109.200,21.200 109.200 C 20.980 109.200,20.800 109.560,20.800 110.000 C 20.800 110.440,20.620 110.800,20.400 110.800 C 20.180 110.800,20.000 111.160,20.000 111.600 C 20.000 112.040,19.862 112.400,19.693 112.400 C 19.524 112.400,18.958 113.390,18.436 114.600 C 17.913 115.810,17.332 116.800,17.143 116.800 C 16.954 116.800,16.800 117.143,16.800 117.562 C 16.800 118.221,16.314 119.389,14.750 122.495 C 14.557 122.877,14.400 123.562,14.400 124.018 C 14.400 124.543,14.231 124.742,13.938 124.562 C 13.677 124.400,13.584 124.451,13.725 124.678 C 13.936 125.020,12.734 128.389,11.111 132.000 C 10.864 132.550,10.704 133.238,10.755 133.530 C 10.807 133.821,10.613 134.344,10.324 134.691 C 10.036 135.039,9.784 135.610,9.764 135.961 C 9.745 136.313,9.544 137.050,9.317 137.600 C 9.090 138.150,8.991 138.825,9.095 139.100 C 9.200 139.375,9.086 139.600,8.843 139.600 C 8.599 139.600,8.400 140.140,8.400 140.800 C 8.400 141.460,8.220 142.000,8.000 142.000 C 7.780 142.000,7.600 142.619,7.600 143.376 C 7.600 144.133,7.420 144.864,7.200 145.000 C 6.980 145.136,6.800 145.777,6.800 146.424 C 6.800 147.071,6.620 147.600,6.400 147.600 C 6.180 147.600,6.000 148.241,6.000 149.024 C 6.000 149.807,5.855 150.357,5.677 150.247 C 5.499 150.138,5.309 150.795,5.256 151.708 C 5.202 152.622,5.007 153.556,4.824 153.785 C 4.640 154.013,4.380 154.965,4.245 155.900 C 3.627 160.186,3.493 160.819,3.158 161.026 C 2.961 161.148,2.800 162.126,2.800 163.200 C 2.800 164.274,2.620 165.264,2.400 165.400 C 2.180 165.536,2.000 166.526,2.000 167.600 C 2.000 168.674,1.820 169.664,1.600 169.800 C 1.380 169.936,1.200 171.351,1.200 172.944 C 1.200 174.662,1.005 176.035,0.720 176.320 C 0.030 177.010,-0.236 212.400,0.397 219.200 C 0.654 221.950,0.954 225.370,1.064 226.800 C 1.174 228.230,1.430 229.571,1.632 229.780 C 1.835 229.989,2.000 231.078,2.000 232.200 C 2.000 233.322,2.170 234.411,2.377 234.620 C 2.584 234.829,2.795 236.027,2.845 237.282 C 2.895 238.537,3.085 239.471,3.268 239.358 C 3.553 239.182,3.770 240.629,3.707 242.300 C 3.697 242.575,3.849 242.800,4.044 242.800 C 4.240 242.800,4.400 243.509,4.400 244.376 C 4.400 245.243,4.580 246.064,4.800 246.200 C 5.020 246.336,5.200 247.056,5.200 247.800 C 5.200 248.544,5.380 249.264,5.600 249.400 C 5.820 249.536,6.000 250.256,6.000 251.000 C 6.000 251.744,6.180 252.464,6.400 252.600 C 6.620 252.736,6.800 253.362,6.800 253.990 C 6.800 254.619,6.974 255.193,7.187 255.267 C 7.400 255.340,7.619 255.985,7.672 256.700 C 7.726 257.415,7.912 258.000,8.085 258.000 C 8.258 258.000,8.400 258.540,8.400 259.200 C 8.400 259.860,8.595 260.400,8.833 260.400 C 9.072 260.400,9.189 260.625,9.093 260.900 C 8.998 261.175,9.155 262.075,9.442 262.900 C 9.729 263.725,9.855 264.400,9.720 264.400 C 9.586 264.400,9.803 264.761,10.202 265.202 C 10.602 265.644,10.811 266.122,10.668 266.266 C 10.524 266.409,10.561 266.723,10.750 266.963 C 11.147 267.469,12.981 272.923,12.832 273.155 C 12.777 273.241,12.891 273.421,13.085 273.555 C 13.521 273.858,15.200 277.904,15.200 278.653 C 15.200 278.954,15.380 279.200,15.600 279.200 C 15.820 279.200,16.000 279.472,16.000 279.805 C 16.000 280.138,16.171 280.723,16.380 281.105 C 17.503 283.158,20.000 288.699,20.000 289.138 C 20.000 289.418,20.180 289.536,20.400 289.400 C 20.620 289.264,20.800 289.523,20.800 289.976 C 20.800 290.429,20.935 290.801,21.100 290.803 C 21.459 290.807,22.400 292.744,22.400 293.480 C 22.400 293.766,22.580 294.000,22.800 294.000 C 23.020 294.000,23.200 294.360,23.200 294.800 C 23.200 295.240,23.380 295.600,23.600 295.600 C 23.820 295.600,24.000 295.960,24.000 296.400 C 24.000 296.840,24.180 297.200,24.400 297.200 C 24.620 297.200,24.800 297.470,24.800 297.800 C 24.800 298.130,24.935 298.402,25.100 298.405 C 25.265 298.407,25.750 299.172,26.179 300.105 C 26.607 301.037,27.179 302.070,27.450 302.400 C 27.721 302.730,27.950 303.139,27.960 303.309 C 27.977 303.632,28.250 304.040,30.778 307.516 C 31.624 308.680,32.537 310.165,32.807 310.816 C 33.076 311.467,33.426 312.000,33.584 312.000 C 33.742 312.000,34.071 312.438,34.315 312.973 C 34.559 313.508,35.173 314.422,35.679 315.005 C 36.186 315.587,36.540 316.165,36.466 316.287 C 36.392 316.410,36.494 316.621,36.692 316.755 C 36.891 316.890,37.664 317.900,38.412 319.000 C 39.159 320.100,40.137 321.382,40.585 321.850 C 42.044 323.371,42.714 324.299,42.996 325.186 C 43.174 325.747,43.486 325.976,43.872 325.828 C 44.547 325.569,44.933 325.817,52.200 331.192 C 67.943 342.836,88.888 353.358,108.000 359.225 C 110.970 360.137,114.210 361.147,115.200 361.471 C 116.190 361.794,117.900 362.244,119.000 362.470 C 120.100 362.696,121.630 363.023,122.400 363.197 C 130.488 365.027,136.582 366.120,142.400 366.786 C 144.710 367.051,147.464 367.432,148.520 367.634 C 149.576 367.835,151.736 367.999,153.320 367.999 C 154.904 367.998,159.080 368.205,162.600 368.459 C 169.069 368.926,182.554 368.490,189.400 367.593 C 190.940 367.391,193.730 367.034,195.600 366.800 C 197.470 366.565,199.900 366.208,201.000 366.005 C 202.100 365.803,204.170 365.436,205.600 365.192 C 208.246 364.739,210.684 364.228,213.200 363.600 C 213.970 363.408,215.500 363.037,216.600 362.775 C 225.455 360.671,239.348 356.044,246.800 352.718 C 268.071 343.224,282.133 334.365,300.200 319.076 C 303.307 316.446,316.446 303.307,319.076 300.200 C 334.365 282.133,343.224 268.071,352.718 246.800 C 356.044 239.348,360.671 225.455,362.775 216.600 C 363.037 215.500,363.408 213.970,363.600 213.200 C 364.228 210.684,364.739 208.246,365.192 205.600 C 365.436 204.170,365.803 202.100,366.005 201.000 C 366.351 199.126,366.588 197.358,367.565 189.400 C 368.524 181.590,368.932 169.497,368.463 162.792 C 368.208 159.158,368.000 154.892,368.000 153.312 C 368.000 151.732,367.835 149.576,367.634 148.520 C 367.432 147.464,367.051 144.710,366.786 142.400 C 366.120 136.582,365.027 130.488,363.197 122.400 C 363.023 121.630,362.696 120.100,362.470 119.000 C 362.244 117.900,361.794 116.190,361.471 115.200 C 361.147 114.210,360.137 110.970,359.225 108.000 C 353.477 89.275,342.610 67.645,331.191 52.200 C 325.815 44.930,325.569 44.547,325.828 43.872 C 325.976 43.486,325.747 43.174,325.186 42.996 C 324.299 42.714,323.371 42.044,321.850 40.585 C 321.382 40.137,320.100 39.159,319.000 38.412 C 317.900 37.664,316.890 36.891,316.755 36.692 C 316.621 36.494,316.351 36.340,316.155 36.351 C 315.960 36.362,315.383 36.008,314.873 35.564 C 314.363 35.121,313.508 34.559,312.973 34.315 C 312.438 34.071,312.000 33.742,312.000 33.584 C 312.000 33.426,311.467 33.076,310.816 32.807 C 310.165 32.537,308.680 31.624,307.516 30.778 C 303.987 28.212,303.624 27.972,303.451 28.088 C 303.359 28.150,302.950 27.920,302.542 27.579 C 302.134 27.237,301.037 26.607,300.105 26.179 C 299.172 25.750,298.407 25.265,298.405 25.100 C 298.402 24.935,298.130 24.800,297.800 24.800 C 297.470 24.800,297.200 24.620,297.200 24.400 C 297.200 24.180,296.840 24.000,296.400 24.000 C 295.960 24.000,295.600 23.820,295.600 23.600 C 295.600 23.380,295.240 23.200,294.800 23.200 C 294.360 23.200,294.000 23.020,294.000 22.800 C 294.000 22.580,293.766 22.400,293.480 22.400 C 292.744 22.400,290.807 21.459,290.803 21.100 C 290.801 20.935,290.429 20.800,289.976 20.800 C 289.523 20.800,289.264 20.620,289.400 20.400 C 289.536 20.180,289.418 20.000,289.138 20.000 C 288.699 20.000,283.158 17.503,281.105 16.380 C 280.723 16.171,280.138 16.000,279.805 16.000 C 279.472 16.000,279.200 15.820,279.200 15.600 C 279.200 15.380,278.954 15.200,278.653 15.200 C 277.904 15.200,273.858 13.521,273.555 13.085 C 273.421 12.891,273.151 12.747,272.955 12.765 C 272.427 12.815,267.469 11.148,266.963 10.750 C 266.723 10.561,266.409 10.524,266.266 10.668 C 266.122 10.811,265.644 10.602,265.202 10.202 C 264.761 9.803,264.400 9.586,264.400 9.720 C 264.400 9.855,263.725 9.729,262.900 9.442 C 262.075 9.155,261.175 8.998,260.900 9.093 C 260.625 9.189,260.400 9.072,260.400 8.833 C 260.400 8.595,259.860 8.400,259.200 8.400 C 258.540 8.400,258.000 8.258,258.000 8.085 C 258.000 7.912,257.415 7.726,256.700 7.672 C 255.985 7.619,255.340 7.400,255.267 7.187 C 255.193 6.974,254.619 6.800,253.990 6.800 C 253.362 6.800,252.736 6.620,252.600 6.400 C 252.464 6.180,251.744 6.000,251.000 6.000 C 250.256 6.000,249.536 5.820,249.400 5.600 C 249.264 5.380,248.544 5.200,247.800 5.200 C 247.056 5.200,246.336 5.020,246.200 4.800 C 246.064 4.580,245.243 4.400,244.376 4.400 C 243.509 4.400,242.800 4.240,242.800 4.044 C 242.800 3.849,242.575 3.697,242.300 3.707 C 240.629 3.770,239.182 3.553,239.358 3.268 C 239.471 3.085,238.537 2.895,237.282 2.845 C 236.027 2.795,234.829 2.584,234.620 2.377 C 234.411 2.170,233.322 2.000,232.200 2.000 C 231.078 2.000,229.989 1.835,229.780 1.632 C 229.571 1.430,228.230 1.174,226.800 1.062 C 225.370 0.951,222.310 0.677,220.000 0.453 C 216.169 0.081,188.125 -0.027,180.002 0.299 M126.567 103.400 C 132.852 104.732,130.794 102.903,168.392 140.560 C 185.437 157.632,199.654 171.600,199.984 171.600 C 200.314 171.600,215.258 156.957,233.192 139.060 C 256.277 116.024,266.373 106.209,267.763 105.453 C 284.538 96.331,303.173 113.543,295.267 130.856 C 293.789 134.094,292.383 135.571,260.076 167.824 C 242.654 185.217,228.400 199.710,228.400 200.030 C 228.400 200.351,242.455 214.651,259.634 231.807 C 296.946 269.070,294.788 266.681,296.404 272.511 C 300.390 286.894,286.893 300.389,272.508 296.403 C 266.646 294.779,269.422 297.284,232.206 260.028 C 214.830 242.633,200.350 228.400,200.030 228.400 C 199.709 228.400,185.217 242.654,167.824 260.076 C 135.571 292.383,134.094 293.789,130.856 295.267 C 113.543 303.173,96.331 284.538,105.453 267.763 C 106.209 266.373,116.024 256.277,139.060 233.192 C 156.957 215.258,171.600 200.314,171.600 199.984 C 171.600 199.654,157.632 185.437,140.560 168.392 C 123.488 151.346,108.749 136.500,107.808 135.400 C 95.570 121.102,108.225 99.514,126.567 103.400 M361.200 318.576 C 361.200 318.919,361.041 319.200,360.847 319.200 C 360.652 319.200,360.403 319.547,360.292 319.970 C 360.148 320.519,360.254 320.677,360.663 320.521 C 360.977 320.400,361.136 320.203,361.016 320.083 C 360.896 319.963,361.080 319.553,361.425 319.172 C 361.841 318.713,361.909 318.391,361.626 318.216 C 361.392 318.071,361.200 318.233,361.200 318.576 M358.000 322.800 C 357.456 323.680,356.863 324.400,356.682 324.400 C 356.501 324.400,356.480 324.606,356.635 324.857 C 356.816 325.149,357.118 324.933,357.472 324.257 C 357.776 323.676,358.210 323.200,358.436 323.200 C 358.662 323.200,358.735 323.019,358.598 322.797 C 358.461 322.576,358.631 322.286,358.975 322.154 C 359.319 322.022,359.600 321.754,359.600 321.557 C 359.600 320.769,358.937 321.284,358.000 322.800 M353.156 329.205 C 352.582 329.850,352.204 330.471,352.317 330.584 C 352.489 330.756,354.400 328.497,354.400 328.122 C 354.400 327.865,354.167 328.068,353.156 329.205 M350.400 332.017 C 350.400 332.246,350.040 332.820,349.600 333.292 C 349.160 333.764,348.801 334.342,348.802 334.575 C 348.805 335.166,350.768 332.716,350.786 332.100 C 350.794 331.825,350.710 331.600,350.600 331.600 C 350.490 331.600,350.400 331.788,350.400 332.017 M346.505 336.565 C 346.056 337.081,345.444 337.591,345.145 337.697 C 344.845 337.803,344.745 338.045,344.922 338.234 C 345.099 338.423,345.368 338.397,345.522 338.175 C 345.675 337.953,346.301 337.388,346.913 336.918 C 347.526 336.448,347.868 335.966,347.674 335.846 C 347.479 335.725,346.953 336.049,346.505 336.565 M341.308 341.437 C 340.597 342.166,340.147 342.835,340.308 342.925 C 340.468 343.014,341.182 342.491,341.892 341.763 C 342.603 341.034,343.053 340.365,342.892 340.275 C 342.732 340.186,342.018 340.709,341.308 341.437 M337.600 345.184 C 337.600 345.395,337.131 346.003,336.558 346.534 C 335.984 347.066,335.677 347.600,335.874 347.722 C 336.071 347.844,336.585 347.416,337.016 346.773 C 337.447 346.129,337.935 345.602,338.100 345.601 C 338.265 345.601,338.400 345.420,338.400 345.200 C 338.400 344.980,338.220 344.800,338.000 344.800 C 337.780 344.800,337.600 344.973,337.600 345.184 M333.357 349.539 C 332.921 349.946,332.302 350.382,331.982 350.508 C 331.484 350.704,331.487 350.739,332.000 350.754 C 332.330 350.763,333.140 350.329,333.800 349.788 C 334.460 349.247,334.809 348.803,334.575 348.802 C 334.342 348.801,333.794 349.133,333.357 349.539 M329.050 353.284 C 327.637 354.654,327.822 354.712,329.547 353.439 C 330.264 352.910,330.704 352.408,330.525 352.323 C 330.346 352.238,329.682 352.671,329.050 353.284 M324.400 356.682 C 324.400 356.863,323.680 357.456,322.800 358.000 C 321.284 358.937,320.769 359.600,321.557 359.600 C 321.754 359.600,322.022 359.319,322.154 358.975 C 322.286 358.631,322.576 358.461,322.797 358.598 C 323.019 358.735,323.200 358.662,323.200 358.436 C 323.200 358.210,323.676 357.776,324.257 357.472 C 324.933 357.118,325.149 356.816,324.857 356.635 C 324.606 356.480,324.400 356.501,324.400 356.682 M319.900 360.276 C 319.515 360.376,319.200 360.625,319.200 360.829 C 319.200 361.033,318.919 361.200,318.576 361.200 C 318.233 361.200,318.071 361.392,318.216 361.626 C 318.391 361.909,318.713 361.841,319.172 361.425 C 319.553 361.080,319.963 360.896,320.083 361.016 C 320.203 361.136,320.408 360.957,320.538 360.617 C 320.668 360.278,320.736 360.021,320.687 360.046 C 320.639 360.072,320.285 360.175,319.900 360.276 " stroke="none" fill="#e6b93c" fill-rule="evenodd"></path><path id="path2" d="M174.800 0.800 C 174.800 1.319,175.879 1.319,176.200 0.800 C 176.336 0.580,176.077 0.400,175.624 0.400 C 175.171 0.400,174.800 0.580,174.800 0.800 M223.800 0.800 C 224.893 1.269,225.200 1.269,225.200 0.800 C 225.200 0.580,224.705 0.413,224.100 0.428 C 223.125 0.453,223.091 0.495,223.800 0.800 M229.800 1.600 C 229.936 1.820,230.317 2.000,230.647 2.000 C 230.977 2.000,231.136 1.820,231.000 1.600 C 230.864 1.380,230.483 1.200,230.153 1.200 C 229.823 1.200,229.664 1.380,229.800 1.600 M134.000 10.200 C 133.312 10.593,133.203 10.776,133.651 10.786 C 134.009 10.794,134.526 10.530,134.800 10.200 C 135.409 9.466,135.284 9.466,134.000 10.200 M131.800 10.794 C 131.360 10.980,130.659 11.242,130.243 11.376 C 129.826 11.510,129.582 11.715,129.700 11.833 C 129.943 12.076,132.800 10.959,132.800 10.620 C 132.800 10.362,132.828 10.357,131.800 10.794 M266.800 10.567 C 266.800 10.816,267.676 11.205,269.550 11.789 C 270.144 11.975,270.409 11.938,270.256 11.691 C 270.122 11.473,269.604 11.207,269.106 11.099 C 268.608 10.991,267.885 10.770,267.500 10.609 C 267.115 10.447,266.800 10.428,266.800 10.567 M125.441 13.400 C 125.024 13.716,124.529 13.880,124.341 13.764 C 124.153 13.648,124.000 13.743,124.000 13.976 C 124.000 14.560,124.375 14.490,126.000 13.600 C 126.770 13.178,127.130 12.832,126.800 12.829 C 126.470 12.827,125.858 13.084,125.441 13.400 M100.100 25.498 C 99.385 25.854,98.800 26.290,98.800 26.466 C 98.800 26.643,99.520 26.412,100.400 25.953 C 102.781 24.712,102.509 24.299,100.100 25.498 M298.410 25.106 C 298.423 25.509,301.200 26.862,301.200 26.466 C 301.200 26.291,300.570 25.848,299.800 25.481 C 299.030 25.113,298.404 24.945,298.410 25.106 M97.200 27.102 C 97.200 27.269,96.705 27.630,96.100 27.906 C 95.495 28.182,94.550 28.781,94.000 29.237 L 93.000 30.067 94.400 29.333 C 95.170 28.930,95.860 28.465,95.933 28.300 C 96.007 28.135,96.412 28.000,96.833 28.000 C 97.255 28.000,97.600 27.730,97.600 27.400 C 97.600 27.070,97.510 26.800,97.400 26.800 C 97.290 26.800,97.200 26.936,97.200 27.102 M303.749 27.917 C 303.898 28.159,304.781 28.876,305.710 29.510 C 306.640 30.144,308.100 31.144,308.956 31.732 C 310.648 32.894,311.618 33.161,310.657 32.200 C 310.327 31.870,309.814 31.600,309.517 31.600 C 309.220 31.600,308.717 31.240,308.400 30.800 C 308.083 30.360,307.671 30.000,307.484 30.000 C 307.297 30.000,306.319 29.432,305.310 28.738 C 304.302 28.044,303.599 27.675,303.749 27.917 M91.700 30.598 C 90.957 31.442,91.094 31.673,92.000 31.107 C 92.440 30.832,92.800 30.471,92.800 30.304 C 92.800 29.827,92.249 29.975,91.700 30.598 M312.000 33.557 C 312.000 33.754,312.285 34.024,312.633 34.157 C 313.611 34.533,313.708 34.451,313.057 33.800 C 312.377 33.120,312.000 33.033,312.000 33.557 M84.487 35.609 C 84.019 36.359,84.041 36.381,84.791 35.913 C 85.236 35.635,85.600 35.271,85.600 35.104 C 85.600 34.526,84.991 34.803,84.487 35.609 M314.413 35.100 C 314.425 35.403,316.400 36.972,316.400 36.680 C 316.400 36.593,316.064 36.135,315.653 35.661 C 314.894 34.786,314.390 34.558,314.413 35.100 M78.860 39.442 C 78.562 39.778,78.399 40.132,78.495 40.229 C 78.592 40.326,78.998 40.044,79.398 39.602 C 79.797 39.161,79.961 38.807,79.762 38.815 C 79.563 38.824,79.157 39.105,78.860 39.442 M325.798 44.003 C 325.515 44.461,325.888 45.028,331.191 52.200 C 342.610 67.645,353.477 89.275,359.225 108.000 C 360.137 110.970,361.147 114.210,361.471 115.200 C 361.794 116.190,362.244 117.900,362.470 119.000 C 362.696 120.100,363.023 121.630,363.197 122.400 C 365.027 130.488,366.120 136.582,366.786 142.400 C 367.051 144.710,367.432 147.464,367.634 148.520 C 367.835 149.576,368.000 151.732,368.000 153.312 C 368.000 154.892,368.208 159.158,368.463 162.792 C 368.932 169.497,368.524 181.590,367.565 189.400 C 366.588 197.358,366.351 199.126,366.005 201.000 C 365.803 202.100,365.436 204.170,365.192 205.600 C 364.739 208.246,364.228 210.684,363.600 213.200 C 363.408 213.970,363.037 215.500,362.775 216.600 C 360.671 225.455,356.044 239.348,352.718 246.800 C 343.224 268.071,334.365 282.133,319.076 300.200 C 316.446 303.307,303.307 316.446,300.200 319.076 C 282.133 334.365,268.071 343.224,246.800 352.718 C 239.348 356.044,225.455 360.671,216.600 362.775 C 215.500 363.037,213.970 363.408,213.200 363.600 C 210.684 364.228,208.246 364.739,205.600 365.192 C 204.170 365.436,202.100 365.803,201.000 366.005 C 199.900 366.208,197.470 366.565,195.600 366.800 C 193.730 367.034,190.940 367.391,189.400 367.593 C 182.554 368.490,169.069 368.926,162.600 368.459 C 159.080 368.205,154.904 367.998,153.320 367.999 C 151.736 367.999,149.576 367.835,148.520 367.634 C 147.464 367.432,144.710 367.051,142.400 366.786 C 136.582 366.120,130.488 365.027,122.400 363.197 C 121.630 363.023,120.100 362.696,119.000 362.470 C 117.900 362.244,116.190 361.794,115.200 361.471 C 114.210 361.147,110.970 360.137,108.000 359.225 C 88.888 353.358,67.943 342.836,52.200 331.192 C 45.032 325.890,44.461 325.515,44.003 325.798 C 43.302 326.232,43.553 326.732,45.400 328.579 C 46.390 329.569,47.200 330.541,47.200 330.738 C 47.200 331.337,64.707 349.600,65.281 349.600 C 65.454 349.600,66.692 350.680,68.032 352.000 C 69.373 353.320,70.654 354.400,70.879 354.400 C 71.104 354.400,72.087 355.210,73.063 356.200 C 74.039 357.190,74.964 358.000,75.119 358.001 C 75.273 358.001,76.030 358.541,76.800 359.200 C 77.570 359.859,78.353 360.399,78.540 360.399 C 78.726 360.400,79.383 360.940,80.000 361.600 C 80.617 362.260,81.292 362.800,81.501 362.800 C 81.710 362.800,82.446 363.340,83.137 364.000 C 83.828 364.660,84.625 365.200,84.908 365.200 C 85.191 365.200,85.683 365.560,86.000 366.000 C 86.317 366.440,86.857 366.800,87.200 366.800 C 87.543 366.800,88.083 367.160,88.400 367.600 C 88.717 368.040,89.257 368.400,89.600 368.400 C 89.943 368.400,90.483 368.760,90.800 369.200 C 91.117 369.640,91.529 370.000,91.716 370.000 C 91.903 370.000,92.841 370.540,93.800 371.200 C 94.759 371.860,95.827 372.400,96.172 372.400 C 96.517 372.400,96.800 372.580,96.800 372.800 C 96.800 373.020,97.070 373.200,97.400 373.200 C 97.730 373.200,98.000 373.347,98.000 373.526 C 98.000 373.924,100.601 375.200,101.414 375.200 C 101.736 375.200,102.000 375.380,102.000 375.600 C 102.000 375.820,102.278 376.000,102.617 376.000 C 102.956 376.000,103.620 376.360,104.092 376.800 C 104.564 377.240,105.187 377.600,105.475 377.600 C 105.764 377.600,106.000 377.780,106.000 378.000 C 106.000 378.220,106.360 378.400,106.800 378.400 C 107.240 378.400,107.600 378.580,107.600 378.800 C 107.600 379.020,107.945 379.200,108.367 379.200 C 108.788 379.200,109.193 379.335,109.267 379.500 C 109.340 379.665,110.300 380.225,111.400 380.744 C 112.500 381.263,113.713 381.848,114.095 382.044 C 114.477 382.240,115.062 382.400,115.395 382.400 C 115.728 382.400,116.000 382.580,116.000 382.800 C 116.000 383.020,116.360 383.200,116.800 383.200 C 117.240 383.200,117.600 383.380,117.600 383.600 C 117.600 383.820,117.960 384.000,118.400 384.000 C 118.840 384.000,119.200 384.180,119.200 384.400 C 119.200 384.620,119.560 384.800,120.000 384.800 C 120.440 384.800,120.800 384.980,120.800 385.200 C 120.800 385.420,121.340 385.600,122.000 385.600 C 122.660 385.600,123.200 385.780,123.200 386.000 C 123.200 386.220,123.479 386.400,123.819 386.400 C 124.160 386.400,125.184 386.760,126.094 387.200 C 127.005 387.640,128.076 388.000,128.475 388.000 C 128.874 388.000,129.200 388.180,129.200 388.400 C 129.200 388.620,129.530 388.800,129.933 388.800 C 130.337 388.800,130.792 388.925,130.945 389.078 C 131.098 389.231,131.443 389.390,131.712 389.431 C 131.980 389.473,133.599 389.977,135.308 390.553 C 137.018 391.129,138.852 391.600,139.385 391.600 C 139.917 391.600,140.464 391.780,140.600 392.000 C 140.736 392.220,141.377 392.400,142.024 392.400 C 142.671 392.400,143.200 392.580,143.200 392.800 C 143.200 393.020,143.920 393.200,144.800 393.200 C 145.680 393.200,146.400 393.380,146.400 393.600 C 146.400 393.820,147.019 394.000,147.776 394.000 C 148.533 394.000,149.264 394.180,149.400 394.400 C 149.536 394.620,150.166 394.800,150.800 394.800 C 151.434 394.800,152.064 394.980,152.200 395.200 C 152.336 395.420,153.247 395.600,154.224 395.600 C 155.201 395.600,156.000 395.780,156.000 396.000 C 156.000 396.220,156.799 396.400,157.776 396.400 C 158.753 396.400,159.664 396.580,159.800 396.800 C 159.936 397.020,160.847 397.200,161.824 397.200 C 162.801 397.200,163.600 397.380,163.600 397.600 C 163.600 397.822,164.659 398.000,165.976 398.000 C 167.283 398.000,168.464 398.180,168.600 398.400 C 168.736 398.620,170.061 398.800,171.544 398.800 C 173.167 398.800,174.439 398.999,174.740 399.300 C 175.129 399.689,180.743 399.800,200.087 399.800 C 219.608 399.800,224.969 399.693,225.100 399.300 C 225.211 398.966,226.160 398.800,227.953 398.800 C 229.431 398.800,230.830 398.610,231.062 398.378 C 231.295 398.145,232.411 397.948,233.542 397.939 C 234.674 397.930,235.600 397.760,235.600 397.562 C 235.600 397.363,236.590 397.200,237.800 397.200 C 239.010 397.200,240.000 397.020,240.000 396.800 C 240.000 396.580,240.731 396.400,241.624 396.400 C 242.604 396.400,243.149 396.242,243.000 396.000 C 242.854 395.764,243.303 395.600,244.096 395.600 C 244.835 395.600,245.682 395.375,245.979 395.100 C 246.410 394.700,246.461 394.700,246.235 395.100 C 245.902 395.690,246.638 395.786,247.000 395.200 C 247.136 394.980,247.942 394.800,248.790 394.800 C 249.639 394.800,250.397 394.609,250.475 394.376 C 250.552 394.143,251.197 393.935,251.908 393.915 C 252.619 393.895,253.200 393.726,253.200 393.539 C 253.200 393.353,253.875 393.197,254.700 393.194 C 255.816 393.189,256.046 393.088,255.600 392.800 C 255.075 392.461,257.154 392.140,258.500 392.353 C 258.665 392.379,258.800 392.241,258.800 392.047 C 258.800 391.622,260.328 391.090,261.286 391.181 C 261.875 391.236,267.775 389.417,270.200 388.432 C 270.640 388.253,271.450 387.929,272.000 387.710 C 272.550 387.492,273.782 386.928,274.738 386.457 C 275.694 385.986,276.808 385.600,277.214 385.600 C 277.620 385.600,278.064 385.420,278.200 385.200 C 278.336 384.980,278.723 384.800,279.059 384.800 C 279.396 384.800,280.029 384.395,280.466 383.900 C 280.903 383.405,281.147 383.225,281.007 383.500 C 280.867 383.775,280.943 384.000,281.176 384.000 C 281.409 384.000,281.600 383.820,281.600 383.600 C 281.600 383.380,281.920 383.200,282.312 383.200 C 282.703 383.200,283.280 382.844,283.594 382.409 C 284.020 381.817,284.251 381.741,284.512 382.109 C 284.787 382.496,284.904 382.494,285.064 382.100 C 285.175 381.825,285.505 381.600,285.796 381.600 C 286.437 381.600,289.747 379.920,289.933 379.500 C 290.007 379.335,290.412 379.200,290.833 379.200 C 291.357 379.200,291.600 378.921,291.600 378.320 C 291.600 377.636,291.707 377.547,292.080 377.920 C 292.803 378.643,293.200 378.501,293.200 377.520 C 293.200 376.836,293.307 376.747,293.680 377.120 C 294.385 377.825,294.800 377.707,294.800 376.800 C 294.800 376.360,294.980 376.000,295.200 376.000 C 295.420 376.000,295.600 376.182,295.600 376.403 C 295.600 376.645,295.914 376.611,296.384 376.317 C 296.950 375.964,297.033 375.742,296.684 375.520 C 296.372 375.322,296.508 375.210,297.067 375.206 C 297.543 375.203,298.024 374.975,298.135 374.700 C 298.262 374.385,298.349 374.367,298.368 374.651 C 298.404 375.167,301.200 374.047,301.200 373.517 C 301.200 373.342,301.560 373.200,302.000 373.200 C 302.440 373.200,302.800 373.020,302.800 372.800 C 302.800 372.580,303.044 372.400,303.342 372.400 C 303.639 372.400,304.320 371.995,304.854 371.500 C 306.037 370.404,305.990 370.432,307.100 370.142 C 307.631 370.003,308.000 369.598,308.000 369.153 C 308.000 368.583,308.291 368.400,309.200 368.400 C 310.053 368.400,310.400 368.207,310.400 367.733 C 310.400 367.367,310.517 367.183,310.659 367.326 C 310.802 367.469,311.235 367.221,311.621 366.776 C 312.132 366.187,312.379 366.107,312.530 366.484 C 312.644 366.768,312.751 366.595,312.768 366.100 C 312.794 365.371,313.031 365.200,314.018 365.200 C 314.955 365.200,315.208 365.039,315.118 364.500 C 315.039 364.033,315.299 363.758,315.896 363.673 C 316.390 363.603,317.045 363.185,317.354 362.745 C 317.774 362.144,317.976 362.076,318.162 362.472 C 318.298 362.762,318.334 362.595,318.242 362.100 C 318.137 361.536,318.272 361.200,318.604 361.200 C 318.895 361.200,319.201 360.997,319.283 360.750 C 319.366 360.502,319.926 360.300,320.528 360.300 C 321.361 360.300,321.572 360.143,321.414 359.643 C 321.270 359.190,321.702 358.679,322.803 357.998 C 323.681 357.455,324.400 356.879,324.400 356.718 C 324.400 356.557,324.665 356.527,324.990 356.651 C 325.649 356.904,326.797 355.942,326.806 355.129 C 326.811 354.734,326.889 354.721,327.117 355.079 C 327.300 355.367,327.637 355.425,327.962 355.224 C 328.259 355.040,328.384 354.698,328.240 354.465 C 327.934 353.969,329.357 353.091,329.781 353.514 C 329.938 353.671,330.030 353.620,329.986 353.400 C 329.821 352.584,330.011 351.960,330.358 352.174 C 330.555 352.296,330.819 352.126,330.946 351.798 C 331.072 351.469,331.496 351.194,331.887 351.187 C 332.661 351.173,334.000 350.299,334.000 349.807 C 334.000 349.639,333.730 349.726,333.400 350.000 C 333.070 350.274,332.800 350.361,332.800 350.193 C 332.800 349.705,334.136 348.827,334.900 348.813 C 335.285 348.806,335.623 348.620,335.650 348.400 C 335.678 348.180,335.723 347.830,335.750 347.623 C 335.778 347.415,336.187 346.886,336.659 346.445 C 337.132 346.005,337.613 345.410,337.729 345.122 C 337.894 344.711,338.029 344.728,338.363 345.200 C 338.718 345.701,338.789 345.660,338.794 344.949 C 338.797 344.481,339.115 343.860,339.500 343.568 C 340.096 343.118,340.125 343.122,339.700 343.599 C 338.967 344.422,339.089 344.968,339.839 344.218 C 340.190 343.867,340.376 343.314,340.251 342.990 C 340.023 342.395,340.589 342.143,340.901 342.700 C 340.993 342.865,341.009 342.762,340.936 342.470 C 340.763 341.785,341.785 340.763,342.470 340.936 C 342.762 341.009,342.865 340.993,342.700 340.901 C 342.143 340.589,342.395 340.023,342.990 340.251 C 343.314 340.376,343.867 340.190,344.218 339.839 C 344.968 339.089,344.422 338.967,343.599 339.700 C 343.122 340.125,343.118 340.096,343.568 339.500 C 343.860 339.115,344.481 338.797,344.949 338.794 C 345.660 338.789,345.701 338.718,345.200 338.363 C 344.728 338.029,344.711 337.894,345.122 337.729 C 345.410 337.613,346.005 337.132,346.445 336.659 C 346.886 336.187,347.415 335.778,347.623 335.750 C 347.830 335.723,348.180 335.678,348.400 335.650 C 348.620 335.623,348.806 335.285,348.813 334.900 C 348.827 334.136,349.705 332.800,350.193 332.800 C 350.361 332.800,350.274 333.070,350.000 333.400 C 349.726 333.730,349.639 334.000,349.807 334.000 C 350.299 334.000,351.173 332.661,351.187 331.887 C 351.194 331.496,351.469 331.072,351.798 330.946 C 352.126 330.819,352.296 330.555,352.174 330.358 C 351.960 330.011,352.584 329.821,353.400 329.986 C 353.620 330.030,353.671 329.938,353.514 329.781 C 353.091 329.357,353.969 327.934,354.465 328.240 C 354.698 328.384,355.040 328.259,355.224 327.962 C 355.425 327.637,355.367 327.300,355.079 327.117 C 354.721 326.889,354.734 326.811,355.129 326.806 C 355.942 326.797,356.904 325.649,356.651 324.990 C 356.527 324.665,356.557 324.400,356.718 324.400 C 356.879 324.400,357.455 323.681,357.998 322.803 C 358.679 321.702,359.190 321.270,359.643 321.414 C 360.143 321.572,360.300 321.361,360.300 320.528 C 360.300 319.926,360.503 319.366,360.750 319.283 C 360.998 319.201,361.200 318.895,361.200 318.604 C 361.200 318.272,361.536 318.137,362.100 318.242 C 362.595 318.334,362.762 318.298,362.472 318.162 C 362.076 317.976,362.144 317.774,362.745 317.354 C 363.185 317.045,363.603 316.390,363.673 315.896 C 363.758 315.299,364.033 315.039,364.500 315.118 C 365.039 315.208,365.200 314.955,365.200 314.018 C 365.200 313.031,365.371 312.794,366.100 312.768 C 366.595 312.751,366.768 312.644,366.484 312.530 C 366.107 312.379,366.187 312.132,366.776 311.621 C 367.221 311.235,367.469 310.802,367.326 310.659 C 367.183 310.517,367.367 310.400,367.733 310.400 C 368.207 310.400,368.400 310.053,368.400 309.200 C 368.400 308.291,368.583 308.000,369.153 308.000 C 369.598 308.000,370.003 307.631,370.142 307.100 C 370.432 305.990,370.404 306.037,371.500 304.854 C 371.995 304.320,372.400 303.639,372.400 303.342 C 372.400 303.044,372.580 302.800,372.800 302.800 C 373.020 302.800,373.200 302.440,373.200 302.000 C 373.200 301.560,373.342 301.200,373.517 301.200 C 373.691 301.200,374.119 300.570,374.468 299.800 C 374.817 299.030,374.943 298.400,374.748 298.400 C 374.553 298.400,374.948 297.819,375.626 297.110 C 376.304 296.400,376.666 295.755,376.429 295.676 C 375.693 295.431,375.960 294.800,376.800 294.800 C 377.707 294.800,377.825 294.385,377.120 293.680 C 376.747 293.307,376.836 293.200,377.520 293.200 C 378.510 293.200,378.641 292.805,377.900 292.051 C 377.625 291.772,377.580 291.577,377.800 291.619 C 378.753 291.800,379.200 291.549,379.200 290.833 C 379.200 290.412,379.335 290.007,379.500 289.933 C 379.920 289.747,381.600 286.437,381.600 285.796 C 381.600 285.505,381.825 285.175,382.100 285.064 C 382.494 284.904,382.496 284.787,382.109 284.512 C 381.741 284.251,381.817 284.020,382.409 283.594 C 382.844 283.280,383.200 282.703,383.200 282.312 C 383.200 281.920,383.380 281.600,383.600 281.600 C 383.820 281.600,384.000 281.409,384.000 281.176 C 384.000 280.943,383.775 280.867,383.500 281.007 C 383.225 281.147,383.405 280.903,383.900 280.466 C 384.395 280.029,384.800 279.396,384.800 279.059 C 384.800 278.723,384.980 278.336,385.200 278.200 C 385.420 278.064,385.600 277.620,385.600 277.214 C 385.600 276.808,385.986 275.694,386.457 274.738 C 386.928 273.782,387.468 272.595,387.657 272.100 C 387.846 271.605,388.170 270.795,388.379 270.300 C 389.336 268.024,391.239 261.902,391.181 261.286 C 391.090 260.328,391.622 258.800,392.047 258.800 C 392.241 258.800,392.379 258.665,392.353 258.500 C 392.140 257.154,392.461 255.075,392.800 255.600 C 393.088 256.046,393.189 255.816,393.194 254.700 C 393.197 253.875,393.353 253.200,393.539 253.200 C 393.726 253.200,393.895 252.619,393.915 251.908 C 393.935 251.197,394.143 250.552,394.376 250.475 C 394.609 250.397,394.800 249.639,394.800 248.790 C 394.800 247.942,394.980 247.136,395.200 247.000 C 395.786 246.638,395.690 245.902,395.100 246.235 C 394.700 246.461,394.700 246.410,395.100 245.979 C 395.375 245.682,395.600 244.835,395.600 244.096 C 395.600 243.303,395.764 242.854,396.000 243.000 C 396.242 243.149,396.400 242.604,396.400 241.624 C 396.400 240.731,396.580 240.000,396.800 240.000 C 397.020 240.000,397.200 239.010,397.200 237.800 C 397.200 236.590,397.363 235.600,397.562 235.600 C 397.760 235.600,397.930 234.686,397.939 233.568 C 397.948 232.451,398.121 231.326,398.325 231.068 C 398.529 230.811,398.726 229.437,398.763 228.015 C 398.802 226.487,399.028 225.306,399.315 225.129 C 400.031 224.686,400.017 175.457,399.300 174.740 C 398.999 174.439,398.800 173.167,398.800 171.544 C 398.800 170.061,398.620 168.736,398.400 168.600 C 398.180 168.464,398.000 167.283,398.000 165.976 C 398.000 164.659,397.822 163.600,397.600 163.600 C 397.380 163.600,397.200 162.801,397.200 161.824 C 397.200 160.847,397.020 159.936,396.800 159.800 C 396.580 159.664,396.400 158.753,396.400 157.776 C 396.400 156.799,396.220 156.000,396.000 156.000 C 395.780 156.000,395.600 155.201,395.600 154.224 C 395.600 153.247,395.420 152.336,395.200 152.200 C 394.980 152.064,394.800 151.434,394.800 150.800 C 394.800 150.166,394.620 149.536,394.400 149.400 C 394.180 149.264,394.000 148.533,394.000 147.776 C 394.000 147.019,393.820 146.400,393.600 146.400 C 393.380 146.400,393.200 145.680,393.200 144.800 C 393.200 143.920,393.020 143.200,392.800 143.200 C 392.580 143.200,392.400 142.761,392.400 142.224 C 392.400 141.687,392.220 141.136,392.000 141.000 C 391.780 140.864,391.600 140.232,391.600 139.596 C 391.600 138.290,388.793 129.472,388.312 129.267 C 388.140 129.193,388.000 128.822,388.000 128.442 C 388.000 128.061,387.640 127.005,387.200 126.094 C 386.760 125.184,386.400 124.160,386.400 123.819 C 386.400 123.479,386.220 123.200,386.000 123.200 C 385.780 123.200,385.600 122.660,385.600 122.000 C 385.600 121.340,385.420 120.800,385.200 120.800 C 384.980 120.800,384.800 120.440,384.800 120.000 C 384.800 119.560,384.620 119.200,384.400 119.200 C 384.180 119.200,384.000 118.840,384.000 118.400 C 384.000 117.960,383.820 117.600,383.600 117.600 C 383.380 117.600,383.200 117.240,383.200 116.800 C 383.200 116.360,383.020 116.000,382.800 116.000 C 382.580 116.000,382.400 115.728,382.400 115.395 C 382.400 115.062,382.240 114.477,382.044 114.095 C 381.848 113.713,381.263 112.500,380.744 111.400 C 380.225 110.300,379.665 109.340,379.500 109.267 C 379.335 109.193,379.200 108.788,379.200 108.367 C 379.200 107.945,379.020 107.600,378.800 107.600 C 378.580 107.600,378.400 107.240,378.400 106.800 C 378.400 106.360,378.220 106.000,378.000 106.000 C 377.780 106.000,377.600 105.764,377.600 105.475 C 377.600 105.187,377.240 104.564,376.800 104.092 C 376.360 103.620,376.000 102.956,376.000 102.617 C 376.000 102.278,375.820 102.000,375.600 102.000 C 375.380 102.000,375.200 101.721,375.200 101.380 C 375.200 100.753,374.099 98.368,373.639 98.000 C 373.502 97.890,372.958 96.945,372.432 95.900 C 371.905 94.855,371.366 94.000,371.235 94.000 C 371.103 94.000,370.740 93.415,370.428 92.700 C 370.116 91.985,369.532 91.109,369.130 90.753 C 368.729 90.397,368.400 89.852,368.400 89.541 C 368.400 89.231,368.040 88.717,367.600 88.400 C 367.160 88.083,366.800 87.543,366.800 87.200 C 366.800 86.857,366.440 86.317,366.000 86.000 C 365.560 85.683,365.200 85.238,365.199 85.012 C 365.199 84.785,364.659 83.970,364.000 83.200 C 363.341 82.430,362.801 81.647,362.801 81.460 C 362.800 81.274,362.260 80.617,361.600 80.000 C 360.940 79.383,360.400 78.726,360.399 78.540 C 360.399 78.353,359.859 77.570,359.200 76.800 C 358.541 76.030,358.001 75.273,358.001 75.119 C 358.000 74.964,357.190 74.039,356.200 73.063 C 355.210 72.087,354.400 71.104,354.400 70.879 C 354.400 70.654,353.320 69.373,352.000 68.032 C 350.680 66.692,349.600 65.454,349.600 65.281 C 349.600 64.707,331.337 47.200,330.738 47.200 C 330.541 47.200,329.569 46.390,328.579 45.400 C 326.732 43.553,326.232 43.302,325.798 44.003 M72.696 44.434 C 71.793 44.960,69.947 46.800,70.322 46.800 C 70.480 46.800,71.057 46.384,71.606 45.875 C 72.155 45.366,72.963 44.741,73.402 44.487 C 73.841 44.233,74.020 44.024,73.800 44.024 C 73.580 44.024,73.083 44.209,72.696 44.434 M66.280 49.764 C 65.664 50.294,65.304 50.812,65.480 50.914 C 65.656 51.016,66.340 50.583,67.000 49.950 C 68.451 48.561,67.858 48.407,66.280 49.764 M63.660 52.251 C 63.143 52.802,62.796 53.329,62.889 53.422 C 62.982 53.515,63.574 53.054,64.204 52.396 C 64.834 51.738,65.181 51.211,64.975 51.224 C 64.769 51.238,64.177 51.700,63.660 52.251 M52.060 63.851 C 51.543 64.402,51.196 64.929,51.289 65.022 C 51.382 65.115,51.974 64.654,52.604 63.996 C 53.234 63.338,53.581 62.811,53.375 62.824 C 53.169 62.838,52.577 63.300,52.060 63.851 M50.200 65.747 C 49.095 67.027,48.704 67.637,48.877 67.810 C 48.981 67.915,49.542 67.468,50.122 66.817 C 50.702 66.166,51.047 65.554,50.888 65.458 C 50.730 65.362,50.420 65.492,50.200 65.747 M45.714 71.043 C 44.593 72.254,43.866 73.599,44.168 73.901 C 44.295 74.029,44.400 73.948,44.400 73.721 C 44.400 73.494,44.937 72.699,45.594 71.954 C 47.244 70.082,47.351 69.273,45.714 71.043 M39.260 79.042 C 38.962 79.378,38.799 79.732,38.895 79.829 C 38.992 79.926,39.398 79.644,39.798 79.202 C 40.197 78.761,40.361 78.407,40.162 78.415 C 39.963 78.424,39.557 78.705,39.260 79.042 M35.500 84.557 C 34.769 85.112,34.584 85.600,35.104 85.600 C 35.271 85.600,35.632 85.240,35.907 84.800 C 36.489 83.868,36.444 83.840,35.500 84.557 M30.500 91.798 C 29.931 92.445,29.861 92.800,30.304 92.800 C 30.471 92.800,30.832 92.440,31.107 92.000 C 31.678 91.087,31.251 90.945,30.500 91.798 M28.653 94.791 C 28.074 95.667,27.600 96.552,27.600 96.758 C 27.600 96.964,27.375 97.224,27.100 97.335 C 26.801 97.456,26.882 97.550,27.300 97.568 C 27.734 97.588,28.000 97.309,28.000 96.833 C 28.000 96.412,28.135 96.007,28.300 95.933 C 28.645 95.780,30.132 93.200,29.876 93.200 C 29.783 93.200,29.232 93.916,28.653 94.791 M25.457 100.250 C 24.498 102.260,24.910 102.401,25.944 100.417 C 26.408 99.528,26.643 98.800,26.468 98.800 C 26.292 98.800,25.837 99.452,25.457 100.250 M13.764 124.341 C 13.880 124.529,13.716 125.024,13.400 125.441 C 13.084 125.858,12.827 126.470,12.829 126.800 C 12.832 127.130,13.178 126.770,13.600 126.000 C 14.490 124.375,14.560 124.000,13.976 124.000 C 13.743 124.000,13.648 124.153,13.764 124.341 M11.377 130.243 C 11.244 130.659,10.973 131.405,10.776 131.900 C 10.579 132.395,10.512 132.800,10.629 132.800 C 10.961 132.800,12.072 129.939,11.833 129.700 C 11.715 129.582,11.510 129.826,11.377 130.243 M10.056 134.255 C 9.576 135.327,9.586 135.358,10.218 134.739 C 10.589 134.376,10.820 133.860,10.731 133.594 C 10.642 133.327,10.339 133.625,10.056 134.255 M0.400 175.624 C 0.400 176.077,0.580 176.336,0.800 176.200 C 1.319 175.879,1.319 174.800,0.800 174.800 C 0.580 174.800,0.400 175.171,0.400 175.624 M0.428 224.100 C 0.413 224.705,0.580 225.200,0.800 225.200 C 1.269 225.200,1.269 224.893,0.800 223.800 C 0.495 223.091,0.453 223.125,0.428 224.100 M1.200 230.153 C 1.200 230.483,1.380 230.864,1.600 231.000 C 1.820 231.136,2.000 230.977,2.000 230.647 C 2.000 230.317,1.820 229.936,1.600 229.800 C 1.380 229.664,1.200 229.823,1.200 230.153 M10.609 267.500 C 10.770 267.885,10.991 268.608,11.099 269.106 C 11.207 269.604,11.473 270.122,11.691 270.256 C 11.938 270.409,11.975 270.144,11.789 269.550 C 11.205 267.676,10.816 266.800,10.567 266.800 C 10.428 266.800,10.447 267.115,10.609 267.500 M25.481 299.800 C 25.848 300.570,26.291 301.200,26.466 301.200 C 26.862 301.200,25.509 298.423,25.106 298.410 C 24.945 298.404,25.113 299.030,25.481 299.800 M28.738 305.310 C 29.432 306.319,30.000 307.297,30.000 307.484 C 30.000 307.671,30.360 308.083,30.800 308.400 C 31.240 308.717,31.600 309.220,31.600 309.517 C 31.600 309.814,31.870 310.327,32.200 310.657 C 33.161 311.618,32.894 310.648,31.732 308.956 C 31.144 308.100,30.144 306.640,29.510 305.710 C 28.876 304.781,28.159 303.898,27.917 303.749 C 27.675 303.599,28.044 304.302,28.738 305.310 M33.200 312.229 C 33.200 312.354,33.470 312.727,33.800 313.057 C 34.451 313.708,34.533 313.611,34.157 312.633 C 33.929 312.038,33.200 311.730,33.200 312.229 M34.800 314.653 C 34.800 314.914,36.399 316.400,36.680 316.400 C 36.766 316.400,36.514 315.956,36.119 315.413 C 35.435 314.473,34.800 314.107,34.800 314.653 M357.632 323.939 C 356.979 325.160,357.114 325.500,357.841 324.463 C 358.193 323.960,358.388 323.454,358.273 323.340 C 358.159 323.225,357.870 323.495,357.632 323.939 M323.776 357.787 C 323.349 358.110,323.180 358.375,323.400 358.375 C 323.620 358.375,324.149 358.110,324.576 357.787 C 325.004 357.464,325.173 357.200,324.953 357.200 C 324.733 357.200,324.204 357.464,323.776 357.787 " stroke="none" fill="#d4863e" fill-rule="evenodd"></path><path id="path3" d="M119.279 103.540 C 118.772 103.683,120.278 103.802,122.624 103.805 C 124.971 103.808,126.465 103.691,125.945 103.545 C 124.733 103.205,120.477 103.201,119.279 103.540 M274.055 103.545 C 273.535 103.691,275.029 103.808,277.376 103.805 C 279.722 103.802,281.228 103.683,280.721 103.540 C 279.523 103.201,275.267 103.205,274.055 103.545 M167.500 140.400 L 200.000 172.999 232.500 140.400 L 265.000 107.801 232.799 139.900 C 215.089 157.555,200.329 172.000,200.000 172.000 C 199.671 172.000,184.911 157.555,167.201 139.900 L 135.000 107.801 167.500 140.400 M296.087 118.600 C 296.091 119.040,296.232 119.940,296.400 120.600 C 296.674 121.678,296.706 121.698,296.713 120.800 C 296.717 120.250,296.576 119.350,296.400 118.800 C 296.149 118.016,296.081 117.973,296.087 118.600 M103.450 119.650 C 103.139 121.205,103.191 124.685,103.545 125.945 C 103.691 126.465,103.808 124.980,103.805 122.646 C 103.799 117.910,103.799 117.905,103.450 119.650 M296.254 124.754 C 296.100 125.718,296.058 126.591,296.161 126.694 C 296.430 126.963,296.915 124.145,296.707 123.522 C 296.612 123.236,296.408 123.790,296.254 124.754 M259.900 167.003 C 242.135 184.824,227.600 199.675,227.600 200.004 C 227.600 200.333,242.135 215.091,259.900 232.801 L 292.200 265.000 260.100 232.799 C 242.445 215.089,228.000 200.329,228.000 200.000 C 228.000 199.671,242.527 184.874,260.283 167.117 C 278.038 149.361,292.483 134.780,292.383 134.716 C 292.282 134.652,277.665 149.181,259.900 167.003 M139.900 167.201 C 157.555 184.911,172.000 199.671,172.000 200.000 C 172.000 200.329,157.555 215.089,139.900 232.799 L 107.801 265.000 140.400 232.500 L 172.999 200.000 140.400 167.500 L 107.801 135.000 139.900 167.201 M166.995 260.001 C 149.172 277.820,134.682 292.400,134.796 292.400 C 134.909 292.400,149.491 277.910,167.200 260.200 C 184.909 242.490,199.668 228.000,199.998 228.000 C 200.328 228.000,215.089 242.445,232.799 260.100 L 265.000 292.200 232.801 259.900 C 215.091 242.135,200.331 227.600,200.001 227.601 C 199.670 227.601,184.818 242.181,166.995 260.001 M103.450 274.450 C 103.141 275.996,103.191 279.485,103.540 280.721 C 103.683 281.228,103.802 279.743,103.805 277.421 C 103.810 272.735,103.804 272.681,103.450 274.450 M296.075 273.800 C 296.086 274.240,296.232 275.140,296.400 275.800 L 296.705 277.000 296.725 275.800 C 296.735 275.140,296.589 274.240,296.400 273.800 L 296.056 273.000 296.075 273.800 M296.240 280.040 C 296.093 280.957,296.052 281.785,296.147 281.880 C 296.242 281.976,296.446 281.310,296.600 280.400 C 296.754 279.490,296.796 278.662,296.693 278.560 C 296.590 278.457,296.387 279.123,296.240 280.040 M118.800 296.400 C 119.350 296.576,120.250 296.717,120.800 296.713 C 121.698 296.706,121.678 296.674,120.600 296.400 C 118.908 295.969,117.456 295.969,118.800 296.400 M124.200 296.400 L 123.000 296.705 124.200 296.725 C 124.860 296.735,125.760 296.589,126.200 296.400 L 127.000 296.056 126.200 296.075 C 125.760 296.086,124.860 296.232,124.200 296.400 M273.800 296.400 C 274.240 296.589,275.140 296.735,275.800 296.725 L 277.000 296.705 275.800 296.400 C 275.140 296.232,274.240 296.086,273.800 296.075 L 273.000 296.056 273.800 296.400 M279.400 296.400 C 278.322 296.674,278.302 296.706,279.200 296.713 C 279.750 296.717,280.650 296.576,281.200 296.400 C 282.544 295.969,281.092 295.969,279.400 296.400 " stroke="none" fill="#f4bcbc" fill-rule="evenodd"></path><path id="path4" d="M121.705 103.087 C 122.314 103.179,123.214 103.177,123.705 103.082 C 124.197 102.987,123.700 102.911,122.600 102.914 C 121.500 102.917,121.097 102.995,121.705 103.087 M276.700 103.082 C 277.195 103.178,278.005 103.178,278.500 103.082 C 278.995 102.987,278.590 102.909,277.600 102.909 C 276.610 102.909,276.205 102.987,276.700 103.082 M117.400 103.600 L 116.600 103.944 117.400 103.932 C 117.840 103.926,118.650 103.776,119.200 103.600 L 120.200 103.280 119.200 103.268 C 118.650 103.262,117.840 103.411,117.400 103.600 M126.000 103.600 C 126.550 103.776,127.360 103.920,127.800 103.920 C 128.433 103.920,128.392 103.854,127.600 103.600 C 127.050 103.424,126.240 103.280,125.800 103.280 C 125.167 103.280,125.208 103.346,126.000 103.600 M272.400 103.600 C 271.608 103.854,271.567 103.920,272.200 103.920 C 272.640 103.920,273.450 103.776,274.000 103.600 C 274.792 103.346,274.833 103.280,274.200 103.280 C 273.760 103.280,272.950 103.424,272.400 103.600 M280.800 103.600 C 281.350 103.776,282.160 103.926,282.600 103.932 L 283.400 103.944 282.600 103.600 C 282.160 103.411,281.350 103.262,280.800 103.268 L 279.800 103.280 280.800 103.600 M113.277 105.300 C 109.375 107.335,102.882 115.015,104.063 116.197 C 104.151 116.284,104.746 115.241,105.385 113.878 C 106.921 110.607,110.582 106.960,114.000 105.296 C 115.430 104.599,116.413 104.023,116.184 104.015 C 115.956 104.007,114.647 104.585,113.277 105.300 M131.200 105.300 C 133.554 106.453,136.901 109.666,166.610 139.287 C 184.656 157.279,199.681 172.000,200.000 172.000 C 200.319 172.000,215.344 157.276,233.390 139.281 C 262.916 109.837,266.448 106.444,268.676 105.390 C 270.037 104.745,271.083 104.150,271.000 104.066 C 269.796 102.863,266.029 106.350,233.390 138.890 C 215.344 156.881,200.311 171.600,199.982 171.600 C 199.653 171.600,185.437 157.632,168.392 140.560 C 133.356 105.469,131.694 103.927,129.003 104.013 C 128.781 104.020,129.770 104.599,131.200 105.300 M285.400 104.933 C 286.500 105.453,288.257 106.536,289.303 107.339 C 291.566 109.075,292.170 109.269,290.314 107.663 C 288.725 106.288,285.769 104.575,284.400 104.235 C 283.850 104.099,284.300 104.413,285.400 104.933 M292.282 110.100 C 292.734 110.595,293.664 111.990,294.348 113.200 C 295.032 114.410,295.594 115.220,295.595 115.000 C 295.599 114.181,292.370 109.207,291.830 109.203 C 291.627 109.201,291.830 109.605,292.282 110.100 M295.600 115.636 C 295.600 115.729,295.796 116.434,296.035 117.203 C 296.274 117.971,296.608 120.130,296.776 122.000 L 297.082 125.400 297.136 122.800 C 297.185 120.470,296.412 116.278,295.825 115.692 C 295.701 115.568,295.600 115.543,295.600 115.636 M103.378 118.178 C 103.227 118.981,103.194 119.727,103.304 119.837 C 103.414 119.947,103.627 119.381,103.778 118.578 C 103.928 117.775,103.962 117.028,103.852 116.918 C 103.742 116.808,103.528 117.375,103.378 118.178 M102.914 122.600 C 102.917 123.700,102.995 124.103,103.087 123.495 C 103.179 122.886,103.177 121.986,103.082 121.495 C 102.987 121.003,102.911 121.500,102.914 122.600 M103.280 125.800 C 103.280 126.240,103.424 127.050,103.600 127.600 C 103.854 128.392,103.920 128.433,103.920 127.800 C 103.920 127.360,103.776 126.550,103.600 126.000 C 103.346 125.208,103.280 125.167,103.280 125.800 M296.167 127.100 C 295.274 132.082,296.002 131.269,260.739 166.608 C 242.732 184.652,228.000 199.678,228.000 199.998 C 228.000 200.318,242.724 215.344,260.719 233.390 C 290.163 262.916,293.556 266.448,294.610 268.676 C 295.255 270.037,295.843 271.090,295.919 271.015 C 297.271 269.662,293.833 265.945,259.641 231.807 C 242.459 214.651,228.400 200.351,228.400 200.030 C 228.400 199.710,242.654 185.217,260.076 167.824 C 292.756 135.199,293.775 134.125,295.348 130.662 C 296.260 128.653,297.037 125.600,296.636 125.600 C 296.526 125.600,296.315 126.275,296.167 127.100 M104.013 129.003 C 103.927 131.694,105.469 133.356,140.560 168.392 C 157.632 185.437,171.600 199.653,171.600 199.982 C 171.600 200.311,156.881 215.344,138.890 233.390 C 106.350 266.029,102.863 269.796,104.066 271.000 C 104.150 271.083,104.745 270.037,105.390 268.676 C 106.444 266.448,109.837 262.916,139.281 233.390 C 157.276 215.344,172.000 200.319,172.000 200.000 C 172.000 199.681,157.279 184.656,139.287 166.610 C 109.666 136.901,106.453 133.554,105.300 131.200 C 104.599 129.770,104.020 128.781,104.013 129.003 M166.600 260.741 C 132.022 295.252,131.321 295.889,127.725 296.028 C 127.326 296.044,126.640 296.219,126.200 296.419 C 125.645 296.670,125.890 296.705,127.000 296.533 C 132.324 295.707,131.664 296.297,167.824 260.076 C 185.217 242.654,199.709 228.400,200.030 228.400 C 200.351 228.400,214.740 242.543,232.007 259.828 C 249.273 277.113,264.120 291.873,265.000 292.627 C 266.549 293.955,270.695 296.239,271.001 295.933 C 271.084 295.850,270.037 295.255,268.676 294.610 C 266.448 293.556,262.916 290.163,233.390 260.719 C 215.344 242.724,200.314 228.001,199.990 228.002 C 199.665 228.003,184.640 242.736,166.600 260.741 M103.422 273.022 C 103.272 273.825,103.228 274.562,103.326 274.660 C 103.424 274.757,103.627 274.181,103.778 273.378 C 103.928 272.575,103.972 271.838,103.874 271.740 C 103.776 271.643,103.573 272.219,103.422 273.022 M296.068 272.200 C 296.062 272.640,296.211 273.360,296.400 273.800 C 296.838 274.819,296.838 273.768,296.400 272.400 C 296.143 271.596,296.077 271.557,296.068 272.200 M296.877 277.142 C 296.788 280.065,295.888 283.868,294.761 286.076 C 294.334 286.914,294.074 287.600,294.184 287.600 C 295.283 287.600,297.284 280.365,297.095 277.071 L 296.954 274.600 296.877 277.142 M102.909 277.600 C 102.909 278.590,102.987 278.995,103.082 278.500 C 103.178 278.005,103.178 277.195,103.082 276.700 C 102.987 276.205,102.909 276.610,102.909 277.600 M103.268 280.800 C 103.262 281.350,103.411 282.160,103.600 282.600 L 103.944 283.400 103.932 282.600 C 103.926 282.160,103.776 281.350,103.600 280.800 L 103.280 279.800 103.268 280.800 M104.235 284.400 C 104.575 285.769,106.288 288.725,107.663 290.314 C 109.269 292.170,109.075 291.566,107.339 289.303 C 106.536 288.257,105.453 286.500,104.933 285.400 C 104.413 284.300,104.099 283.850,104.235 284.400 M292.683 289.400 C 292.069 290.170,291.689 290.800,291.839 290.800 C 292.136 290.800,292.974 289.812,293.621 288.700 C 294.257 287.607,293.903 287.871,292.683 289.400 M109.203 291.830 C 109.207 292.370,114.181 295.599,115.000 295.595 C 115.220 295.594,114.410 295.032,113.200 294.348 C 111.990 293.664,110.595 292.734,110.100 292.282 C 109.605 291.830,109.201 291.627,109.203 291.830 M289.200 292.883 C 288.430 293.546,288.160 293.891,288.600 293.651 C 289.809 292.990,290.963 292.029,290.771 291.843 C 290.677 291.752,289.970 292.220,289.200 292.883 M286.400 294.607 C 284.575 295.663,281.441 296.474,278.000 296.780 C 274.607 297.082,274.605 297.082,277.142 297.141 C 280.578 297.221,287.600 295.240,287.600 294.192 C 287.600 293.928,287.536 293.950,286.400 294.607 M115.692 295.825 C 116.278 296.412,120.470 297.185,122.800 297.136 L 125.400 297.082 122.000 296.776 C 120.130 296.608,117.971 296.274,117.203 296.035 C 115.614 295.541,115.374 295.507,115.692 295.825 M272.400 296.400 C 273.768 296.838,274.819 296.838,273.800 296.400 C 273.360 296.211,272.640 296.062,272.200 296.068 C 271.557 296.077,271.596 296.143,272.400 296.400 " stroke="none" fill="#f4a4a4" fill-rule="evenodd"></path></g></svg>