<svg id="svg" version="1.1" xmlns="http://www.w3.org/2000/svg" xmlns:xlink="http://www.w3.org/1999/xlink" width="400" height="400" viewBox="0, 0, 400,400"><g id="svgg"><path id="path0" d="M81.600 34.648 C 78.850 35.406,75.880 36.225,75.000 36.467 C 74.120 36.710,72.860 37.048,72.200 37.218 C 71.540 37.388,70.370 37.705,69.600 37.921 C 68.830 38.138,67.332 38.557,66.272 38.853 C 64.666 39.301,64.373 39.526,64.522 40.196 C 64.620 40.638,65.172 42.775,65.750 44.944 C 67.232 50.509,67.203 55.196,65.653 60.831 C 63.634 68.169,63.399 69.846,63.416 76.800 C 63.452 91.745,68.546 104.180,78.818 114.400 C 84.385 119.939,86.484 123.063,87.956 128.000 C 88.251 128.990,88.686 130.325,88.922 130.966 C 89.475 132.466,89.482 141.907,88.932 143.434 C 88.126 145.670,87.058 149.641,86.432 152.731 C 85.780 155.944,85.887 166.871,86.602 170.200 C 88.228 177.766,88.901 179.764,91.849 185.781 C 94.294 190.771,96.785 194.089,102.548 200.031 C 107.342 204.974,109.623 208.571,110.773 213.000 C 111.423 215.505,112.006 217.500,112.476 218.831 L 112.840 219.861 116.920 218.785 C 121.191 217.659,127.460 215.968,131.200 214.933 C 132.410 214.598,133.940 214.194,134.600 214.036 C 136.177 213.657,136.122 212.574,134.198 206.200 C 131.484 197.204,127.786 191.023,120.872 183.928 C 115.165 178.071,113.057 174.705,111.146 168.400 C 110.467 166.160,110.401 155.928,111.054 154.200 C 111.487 153.053,111.959 151.378,112.772 148.100 C 114.108 142.715,114.320 133.860,113.241 128.600 C 113.015 127.500,112.721 125.970,112.588 125.200 C 112.455 124.430,112.201 123.440,112.025 123.000 C 111.849 122.560,111.309 120.940,110.825 119.400 C 108.490 111.969,104.629 106.008,96.841 97.810 C 94.178 95.008,92.000 92.537,92.000 92.319 C 92.000 92.101,91.641 91.419,91.201 90.802 C 88.165 86.538,86.709 74.750,88.533 69.200 C 90.746 62.467,91.312 58.510,91.078 51.400 C 90.862 44.846,90.536 42.773,88.639 35.880 C 88.287 34.605,88.000 33.480,88.000 33.380 C 88.000 33.004,86.442 33.312,81.600 34.648 M333.800 63.271 C 324.810 66.681,322.371 77.575,329.173 83.934 C 339.128 93.238,354.899 81.132,348.320 69.235 C 345.598 64.313,338.614 61.444,333.800 63.271 M153.400 69.262 C 143.743 72.469,140.830 83.412,147.867 90.045 C 158.084 99.676,173.890 87.459,166.940 75.303 C 164.190 70.493,158.003 67.733,153.400 69.262 M262.167 220.317 C 257.497 224.814,253.768 226.914,247.800 228.408 C 229.631 232.956,215.387 245.946,209.647 263.200 C 208.147 267.711,208.000 268.237,208.000 269.105 C 208.000 269.571,207.820 270.064,207.600 270.200 C 207.380 270.336,207.200 270.709,207.200 271.028 C 207.200 272.723,203.413 279.023,200.646 281.930 C 196.768 286.005,192.508 288.341,185.200 290.400 C 164.862 296.130,150.668 310.902,145.996 331.200 C 144.921 335.873,141.995 340.641,137.412 345.190 C 135.756 346.834,134.400 348.312,134.400 348.473 C 134.400 348.836,151.216 365.600,151.580 365.600 C 152.400 365.600,163.200 353.615,163.200 352.704 C 163.200 352.582,163.888 351.338,164.728 349.941 C 166.539 346.929,168.434 342.229,169.623 337.800 C 173.016 325.160,180.188 317.172,190.604 314.433 C 195.840 313.056,197.717 312.426,201.296 310.840 C 202.338 310.378,203.286 310.000,203.402 310.000 C 203.519 310.000,205.006 309.162,206.707 308.137 C 219.210 300.608,227.792 289.437,231.548 275.800 C 235.306 262.156,242.071 255.171,254.600 251.998 C 259.093 250.860,261.191 250.105,265.600 248.042 C 270.540 245.731,275.164 242.284,280.394 237.014 L 283.788 233.595 275.197 224.997 C 270.473 220.269,266.515 216.408,266.403 216.417 C 266.292 216.426,264.385 218.181,262.167 220.317 M324.885 289.183 L 312.800 297.167 312.800 320.603 C 312.800 340.781,312.879 343.995,313.371 343.720 C 313.684 343.544,319.168 339.890,325.556 335.600 L 337.171 327.800 337.185 304.500 C 337.193 291.685,337.148 281.200,337.085 281.200 C 337.021 281.200,331.531 284.793,324.885 289.183 M65.709 338.211 C 56.268 341.184,53.474 352.146,60.449 358.847 C 70.436 368.442,86.136 356.179,79.327 344.103 C 76.529 339.141,70.728 336.631,65.709 338.211 " stroke="none" fill="#ed6c3c" fill-rule="evenodd"></path><path id="path1" d="M224.696 67.903 C 215.485 77.122,215.828 76.590,217.900 78.452 C 223.242 83.253,226.201 87.789,227.812 93.647 C 229.573 100.051,230.405 102.486,231.974 105.839 C 238.295 119.338,252.038 130.865,266.000 134.378 C 274.130 136.424,277.423 138.175,282.200 142.994 C 286.700 147.533,288.652 151.155,290.396 158.200 C 294.929 176.513,309.729 191.379,328.400 196.374 C 336.430 198.523,339.131 199.960,344.038 204.696 C 346.148 206.733,348.130 208.400,348.441 208.400 C 349.102 208.400,365.600 192.007,365.600 191.350 C 365.600 190.616,357.601 183.137,354.414 180.891 C 349.750 177.606,343.771 174.873,337.700 173.254 C 333.566 172.150,332.493 171.807,330.800 171.047 C 322.936 167.515,316.674 160.241,314.403 152.000 C 314.130 151.010,313.769 149.750,313.600 149.200 C 313.431 148.650,313.061 147.390,312.777 146.400 C 308.185 130.358,292.939 115.967,275.683 111.385 C 262.238 107.815,255.211 100.937,251.995 88.200 C 250.115 80.752,247.856 75.831,243.637 69.993 C 241.016 66.367,234.496 59.600,233.623 59.600 C 233.276 59.600,229.259 63.337,224.696 67.903 M35.662 131.710 C 30.805 133.263,30.027 139.829,34.359 142.699 C 39.469 146.085,46.089 139.463,42.697 134.359 C 41.096 131.951,38.255 130.880,35.662 131.710 M186.400 152.200 C 193.988 159.790,200.286 166.000,200.396 166.000 C 200.506 166.000,194.388 159.790,186.800 152.200 C 179.212 144.610,172.914 138.400,172.804 138.400 C 172.694 138.400,178.812 144.610,186.400 152.200 M169.029 152.229 C 168.881 152.815,168.838 153.372,168.932 153.466 C 169.027 153.560,169.224 153.158,169.371 152.571 C 169.519 151.985,169.562 151.428,169.468 151.334 C 169.373 151.240,169.176 151.642,169.029 152.229 M167.429 160.229 C 167.281 160.815,167.238 161.372,167.332 161.466 C 167.427 161.560,167.624 161.158,167.771 160.571 C 167.919 159.985,167.962 159.428,167.868 159.334 C 167.773 159.240,167.576 159.642,167.429 160.229 M202.783 168.500 C 203.764 169.545,204.619 170.400,204.683 170.400 C 204.984 170.400,204.666 170.041,202.900 168.383 L 201.000 166.600 202.783 168.500 M169.400 170.400 C 171.150 172.160,172.671 173.600,172.781 173.600 C 172.891 173.600,171.550 172.160,169.800 170.400 C 168.050 168.640,166.529 167.200,166.419 167.200 C 166.309 167.200,167.650 168.640,169.400 170.400 M183.800 184.800 C 187.976 188.980,191.482 192.400,191.592 192.400 C 191.702 192.400,188.376 188.980,184.200 184.800 C 180.024 180.620,176.518 177.200,176.408 177.200 C 176.298 177.200,179.624 180.620,183.800 184.800 M203.450 180.850 C 203.117 182.517,203.440 182.840,203.800 181.200 C 203.952 180.509,203.993 179.859,203.891 179.758 C 203.789 179.656,203.591 180.147,203.450 180.850 M201.029 193.029 C 200.881 193.615,200.838 194.172,200.932 194.266 C 201.027 194.360,201.224 193.958,201.371 193.371 C 201.519 192.785,201.562 192.228,201.468 192.134 C 201.373 192.040,201.176 192.442,201.029 193.029 M195.800 196.800 C 197.550 198.560,199.071 200.000,199.181 200.000 C 199.291 200.000,197.950 198.560,196.200 196.800 C 194.450 195.040,192.929 193.600,192.819 193.600 C 192.709 193.600,194.050 195.040,195.800 196.800 M55.383 237.227 C 55.185 237.547,55.241 237.622,55.538 237.438 C 55.885 237.224,56.024 243.018,56.097 260.676 L 56.193 284.200 56.300 260.823 C 56.399 239.120,56.270 235.793,55.383 237.227 M31.388 276.800 C 31.388 289.890,31.438 295.245,31.500 288.700 C 31.561 282.155,31.561 271.445,31.500 264.900 C 31.438 258.355,31.388 263.710,31.388 276.800 M110.336 269.338 C 105.499 271.487,105.077 277.810,109.602 280.353 C 112.834 282.170,116.322 280.932,118.152 277.320 C 120.454 272.774,115.042 267.247,110.336 269.338 M47.000 290.000 C 46.340 290.437,45.980 290.792,46.200 290.788 C 46.601 290.782,48.776 289.223,48.400 289.212 C 48.290 289.208,47.660 289.563,47.000 290.000 M245.570 351.900 L 244.600 353.000 245.800 352.000 C 246.460 351.450,247.075 350.955,247.167 350.900 C 247.258 350.845,247.155 350.800,246.936 350.800 C 246.718 350.800,246.103 351.295,245.570 351.900 M252.833 350.900 C 252.925 350.955,253.540 351.450,254.200 352.000 L 255.400 353.000 254.430 351.900 C 253.897 351.295,253.282 350.800,253.064 350.800 C 252.845 350.800,252.742 350.845,252.833 350.900 M256.101 356.200 C 256.105 357.080,256.187 357.393,256.283 356.895 C 256.379 356.398,256.375 355.678,256.275 355.295 C 256.175 354.913,256.096 355.320,256.101 356.200 M243.693 356.400 C 243.693 357.170,243.775 357.485,243.876 357.100 C 243.976 356.715,243.976 356.085,243.876 355.700 C 243.775 355.315,243.693 355.630,243.693 356.400 " stroke="none" fill="#53b33b" fill-rule="evenodd"></path><path id="path2" d="M171.654 140.900 C 171.373 142.275,170.967 144.300,170.751 145.400 C 170.536 146.500,170.203 148.120,170.012 149.000 C 169.821 149.880,169.470 151.590,169.231 152.800 C 168.993 154.010,168.506 156.440,168.149 158.200 C 167.792 159.960,167.359 162.210,167.186 163.200 C 167.014 164.190,166.759 165.450,166.619 166.000 C 166.374 166.965,198.359 199.790,199.428 199.671 C 199.613 199.650,199.987 198.501,200.260 197.117 C 200.532 195.733,200.950 193.700,201.187 192.600 C 202.199 187.901,205.200 172.231,205.200 171.641 C 205.200 171.076,172.938 138.400,172.381 138.400 C 172.262 138.400,171.935 139.525,171.654 140.900 M52.996 239.065 C 51.458 240.090,50.110 241.054,50.000 241.205 C 49.890 241.356,49.600 241.552,49.356 241.640 C 49.111 241.728,45.023 244.410,40.271 247.600 L 31.631 253.400 31.615 276.924 C 31.603 295.641,31.702 300.385,32.100 300.144 C 32.375 299.978,33.816 298.977,35.301 297.921 C 36.787 296.864,38.154 296.000,38.339 296.000 C 38.525 296.000,39.002 295.640,39.400 295.200 C 39.798 294.760,40.366 294.400,40.662 294.400 C 40.958 294.400,41.200 294.242,41.200 294.049 C 41.200 293.855,41.740 293.473,42.400 293.200 C 43.060 292.927,43.600 292.557,43.600 292.378 C 43.600 292.200,43.959 291.940,44.398 291.801 C 44.836 291.662,45.421 291.327,45.698 291.058 C 45.974 290.789,48.403 289.135,51.096 287.384 L 55.993 284.200 55.996 260.700 C 55.998 247.775,55.953 237.200,55.896 237.200 C 55.838 237.200,54.533 238.039,52.996 239.065 M247.588 350.900 C 242.981 353.227,242.812 359.163,247.283 361.550 C 252.529 364.350,258.367 358.080,255.097 353.159 C 254.215 351.832,251.259 350.000,250.000 350.000 C 249.653 350.000,248.568 350.405,247.588 350.900 " stroke="none" fill="#eaeaf2" fill-rule="evenodd"></path><path id="path3" d="M88.000 18.800 C 88.000 19.020,87.460 19.200,86.800 19.200 C 86.140 19.200,85.600 19.380,85.600 19.600 C 85.600 19.820,84.880 20.000,84.000 20.000 C 83.120 20.000,82.400 20.180,82.400 20.400 C 82.400 20.620,81.680 20.800,80.800 20.800 C 79.920 20.800,79.200 20.980,79.200 21.200 C 79.200 21.420,78.570 21.600,77.800 21.600 C 77.030 21.600,76.400 21.780,76.400 22.000 C 76.400 22.220,75.860 22.400,75.200 22.400 C 74.540 22.400,74.000 22.580,74.000 22.800 C 74.000 23.020,73.280 23.200,72.400 23.200 C 71.520 23.200,70.800 23.380,70.800 23.600 C 70.800 23.820,70.080 24.000,69.200 24.000 C 68.320 24.000,67.600 24.180,67.600 24.400 C 67.600 24.620,67.105 24.804,66.500 24.809 C 65.895 24.815,64.050 25.193,62.400 25.650 C 58.609 26.699,56.547 27.200,54.900 27.473 C 54.185 27.591,53.600 27.848,53.600 28.044 C 53.600 28.240,53.309 28.400,52.954 28.400 C 50.990 28.400,49.600 31.167,49.600 35.078 C 49.600 37.293,49.762 38.800,50.000 38.800 C 50.220 38.800,50.400 39.430,50.400 40.200 C 50.400 40.970,50.580 41.600,50.800 41.600 C 51.020 41.600,51.200 42.320,51.200 43.200 C 51.200 44.080,51.380 44.800,51.600 44.800 C 51.820 44.800,52.000 45.419,52.000 46.176 C 52.000 46.933,52.180 47.664,52.400 47.800 C 52.620 47.936,52.800 48.757,52.800 49.624 C 52.800 50.491,52.980 51.200,53.200 51.200 C 53.420 51.200,53.600 51.920,53.600 52.800 C 53.600 53.680,53.420 54.400,53.200 54.400 C 52.980 54.400,52.800 55.120,52.800 56.000 C 52.800 56.880,52.620 57.600,52.400 57.600 C 52.180 57.600,52.000 58.230,52.000 59.000 C 52.000 59.770,51.820 60.400,51.600 60.400 C 51.380 60.400,51.200 61.120,51.200 62.000 C 51.200 62.880,51.020 63.600,50.800 63.600 C 50.578 63.600,50.400 64.659,50.400 65.976 C 50.400 67.283,50.220 68.464,50.000 68.600 C 49.755 68.751,49.600 71.937,49.600 76.824 C 49.600 81.875,49.747 84.800,50.000 84.800 C 50.222 84.800,50.400 85.867,50.400 87.200 C 50.400 88.533,50.578 89.600,50.800 89.600 C 51.020 89.600,51.200 90.309,51.200 91.176 C 51.200 92.043,51.380 92.864,51.600 93.000 C 51.820 93.136,52.000 93.777,52.000 94.424 C 52.000 95.071,52.180 95.600,52.400 95.600 C 52.620 95.600,52.800 96.320,52.800 97.200 C 52.800 98.080,52.980 98.800,53.200 98.800 C 53.420 98.800,53.600 99.239,53.600 99.776 C 53.600 100.313,53.780 100.864,54.000 101.000 C 54.220 101.136,54.400 101.597,54.400 102.024 C 54.400 102.451,54.580 102.800,54.800 102.800 C 55.020 102.800,55.200 103.149,55.200 103.576 C 55.200 104.003,55.380 104.464,55.600 104.600 C 55.820 104.736,56.000 105.197,56.000 105.624 C 56.000 106.051,56.180 106.400,56.400 106.400 C 56.620 106.400,56.800 106.760,56.800 107.200 C 56.800 107.640,56.980 108.000,57.200 108.000 C 57.420 108.000,57.600 108.360,57.600 108.800 C 57.600 109.240,57.735 109.600,57.900 109.601 C 58.065 109.601,58.726 110.681,59.370 112.001 C 60.013 113.320,60.676 114.400,60.843 114.400 C 61.010 114.400,61.262 114.766,61.404 115.213 C 61.546 115.660,62.057 116.425,62.540 116.913 C 63.022 117.401,63.859 118.430,64.399 119.200 C 65.285 120.463,67.013 122.221,71.491 126.413 C 72.321 127.190,73.197 128.180,73.438 128.613 C 73.678 129.046,74.072 129.760,74.312 130.200 C 75.628 132.609,76.155 137.161,75.461 140.128 C 75.092 141.708,74.792 143.405,74.795 143.900 C 74.798 144.395,74.620 144.800,74.400 144.800 C 74.180 144.800,74.000 145.520,74.000 146.400 C 74.000 147.280,73.820 148.000,73.600 148.000 C 73.378 148.000,73.200 149.067,73.200 150.400 C 73.200 151.733,73.022 152.800,72.800 152.800 C 72.546 152.800,72.400 155.792,72.400 160.976 C 72.400 165.996,72.554 169.248,72.800 169.400 C 73.020 169.536,73.200 170.717,73.200 172.024 C 73.200 173.341,73.378 174.400,73.600 174.400 C 73.820 174.400,74.000 175.120,74.000 176.000 C 74.000 176.880,74.155 177.600,74.344 177.600 C 74.534 177.600,74.794 178.455,74.923 179.500 C 75.203 181.771,76.522 186.005,77.613 188.138 C 78.046 188.984,78.400 189.929,78.400 190.238 C 78.400 190.547,78.580 190.800,78.800 190.800 C 79.020 190.800,79.200 191.160,79.200 191.600 C 79.200 192.040,79.380 192.400,79.600 192.400 C 79.820 192.400,80.000 192.760,80.000 193.200 C 80.000 193.640,80.180 194.000,80.400 194.000 C 80.620 194.000,80.800 194.236,80.800 194.525 C 80.800 194.813,81.160 195.436,81.600 195.908 C 82.040 196.380,82.400 197.004,82.400 197.295 C 82.400 197.586,82.760 198.083,83.200 198.400 C 83.640 198.717,84.000 199.209,84.000 199.492 C 84.000 199.775,84.540 200.572,85.200 201.263 C 85.860 201.954,86.400 202.677,86.400 202.870 C 86.400 203.063,88.470 205.278,91.000 207.792 C 93.530 210.305,95.600 212.640,95.600 212.981 C 95.600 213.321,95.735 213.601,95.900 213.603 C 96.259 213.607,97.200 215.544,97.200 216.280 C 97.200 216.566,97.380 216.800,97.600 216.800 C 97.820 216.800,98.000 217.419,98.000 218.176 C 98.000 218.933,98.180 219.664,98.400 219.800 C 98.620 219.936,98.800 220.566,98.800 221.200 C 98.800 221.834,98.980 222.464,99.200 222.600 C 99.420 222.736,99.600 223.377,99.600 224.024 C 99.600 224.671,99.780 225.200,100.000 225.200 C 100.220 225.200,100.400 225.920,100.400 226.800 C 100.400 227.680,100.580 228.400,100.800 228.400 C 101.020 228.400,101.200 228.940,101.200 229.600 C 101.200 230.260,101.380 230.800,101.600 230.800 C 101.820 230.800,102.000 231.078,102.000 231.418 C 102.000 232.218,103.782 234.000,104.582 234.000 C 104.922 234.000,105.200 234.180,105.200 234.400 C 105.200 234.631,106.467 234.800,108.200 234.800 C 109.933 234.800,111.200 234.631,111.200 234.400 C 111.200 234.180,111.920 234.000,112.800 234.000 C 113.680 234.000,114.400 233.820,114.400 233.600 C 114.400 233.380,115.019 233.200,115.776 233.200 C 116.533 233.200,117.264 233.020,117.400 232.800 C 117.536 232.580,118.177 232.400,118.824 232.400 C 119.471 232.400,120.000 232.220,120.000 232.000 C 120.000 231.780,120.619 231.600,121.376 231.600 C 122.133 231.600,122.864 231.420,123.000 231.200 C 123.136 230.980,123.867 230.800,124.624 230.800 C 125.381 230.800,126.000 230.620,126.000 230.400 C 126.000 230.180,126.619 230.000,127.376 230.000 C 128.133 230.000,128.864 229.820,129.000 229.600 C 129.136 229.380,129.777 229.200,130.424 229.200 C 131.071 229.200,131.600 229.020,131.600 228.800 C 131.600 228.580,132.320 228.400,133.200 228.400 C 134.080 228.400,134.800 228.220,134.800 228.000 C 134.800 227.780,135.520 227.600,136.400 227.600 C 137.280 227.600,138.000 227.420,138.000 227.200 C 138.000 226.980,138.529 226.800,139.176 226.800 C 139.823 226.800,140.464 226.620,140.600 226.400 C 140.736 226.180,141.377 226.000,142.024 226.000 C 142.671 226.000,143.200 225.845,143.200 225.656 C 143.200 225.467,144.196 225.209,145.412 225.084 C 147.603 224.857,150.400 222.926,150.400 221.640 C 150.400 221.398,150.580 221.200,150.800 221.200 C 151.031 221.200,151.200 219.933,151.200 218.200 C 151.200 216.467,151.031 215.200,150.800 215.200 C 150.580 215.200,150.400 214.480,150.400 213.600 C 150.400 212.720,150.220 212.000,150.000 212.000 C 149.780 212.000,149.600 211.370,149.600 210.600 C 149.600 209.830,149.420 209.200,149.200 209.200 C 148.980 209.200,148.800 208.581,148.800 207.824 C 148.800 207.067,148.620 206.336,148.400 206.200 C 148.180 206.064,148.000 205.423,148.000 204.776 C 148.000 204.129,147.820 203.600,147.600 203.600 C 147.380 203.600,147.200 202.880,147.200 202.000 C 147.200 201.120,147.020 200.400,146.800 200.400 C 146.580 200.400,146.400 199.860,146.400 199.200 C 146.400 198.540,146.220 198.000,146.000 198.000 C 145.780 198.000,145.600 197.728,145.600 197.395 C 145.600 197.062,145.440 196.477,145.244 196.095 C 145.048 195.713,144.463 194.500,143.944 193.400 C 143.425 192.300,142.865 191.340,142.700 191.267 C 142.535 191.193,142.400 190.788,142.400 190.367 C 142.400 189.945,142.220 189.600,142.000 189.600 C 141.780 189.600,141.600 189.336,141.600 189.014 C 141.600 188.201,140.324 185.600,139.926 185.600 C 139.747 185.600,139.600 185.375,139.600 185.100 C 139.599 184.825,139.149 184.077,138.600 183.438 C 138.050 182.799,137.600 182.130,137.600 181.951 C 137.600 181.773,136.970 180.997,136.200 180.227 C 135.430 179.457,134.800 178.710,134.800 178.568 C 134.800 178.426,132.820 176.347,130.400 173.947 C 127.980 171.547,126.000 169.318,126.000 168.992 C 126.000 168.666,125.857 168.400,125.681 168.400 C 124.697 168.400,123.467 158.377,124.382 157.811 C 124.591 157.682,124.885 156.497,125.034 155.179 C 125.183 153.861,125.462 152.686,125.653 152.567 C 125.844 152.449,126.000 151.553,126.000 150.576 C 126.000 149.599,126.180 148.800,126.400 148.800 C 126.633 148.800,126.800 147.467,126.800 145.600 C 126.800 143.733,126.967 142.400,127.200 142.400 C 127.446 142.400,127.600 140.408,127.600 137.224 C 127.600 134.204,127.433 131.944,127.200 131.800 C 126.980 131.664,126.800 130.213,126.800 128.576 C 126.800 126.859,126.631 125.600,126.400 125.600 C 126.180 125.600,126.000 124.801,126.000 123.824 C 126.000 122.847,125.844 121.951,125.653 121.833 C 125.462 121.715,125.183 120.669,125.034 119.509 C 124.792 117.627,123.747 114.009,122.807 111.800 C 122.620 111.360,122.228 110.415,121.936 109.700 C 121.644 108.985,121.269 108.400,121.102 108.400 C 120.936 108.400,120.800 108.040,120.800 107.600 C 120.800 107.160,120.620 106.800,120.400 106.800 C 120.180 106.800,120.000 106.440,120.000 106.000 C 120.000 105.560,119.820 105.200,119.600 105.200 C 119.380 105.200,119.200 104.840,119.200 104.400 C 119.200 103.960,119.020 103.600,118.800 103.600 C 118.580 103.600,118.400 103.280,118.400 102.888 C 118.400 102.497,118.040 101.917,117.600 101.600 C 117.160 101.283,116.800 100.703,116.800 100.312 C 116.800 99.920,116.650 99.600,116.468 99.600 C 116.285 99.600,115.880 99.105,115.568 98.500 C 115.255 97.895,114.505 96.923,113.900 96.340 C 113.295 95.756,112.802 95.126,112.803 94.940 C 112.805 94.753,111.908 93.700,110.809 92.600 C 105.613 87.397,103.600 85.166,103.600 84.607 C 103.600 84.273,103.420 84.000,103.200 84.000 C 102.980 84.000,102.800 83.640,102.800 83.200 C 102.800 82.760,102.620 82.400,102.400 82.400 C 102.180 82.400,102.000 81.781,102.000 81.024 C 102.000 80.267,101.820 79.536,101.600 79.400 C 101.380 79.264,101.200 77.903,101.200 76.376 C 101.200 74.792,101.372 73.600,101.600 73.600 C 101.820 73.600,102.000 72.970,102.000 72.200 C 102.000 71.430,102.180 70.800,102.400 70.800 C 102.620 70.800,102.800 70.181,102.800 69.424 C 102.800 68.667,102.980 67.936,103.200 67.800 C 103.420 67.664,103.600 66.854,103.600 66.000 C 103.600 65.146,103.780 64.336,104.000 64.200 C 104.220 64.064,104.400 62.613,104.400 60.976 C 104.400 59.259,104.569 58.000,104.800 58.000 C 105.046 58.000,105.200 56.008,105.200 52.824 C 105.200 49.804,105.033 47.544,104.800 47.400 C 104.580 47.264,104.400 45.813,104.400 44.176 C 104.400 42.459,104.231 41.200,104.000 41.200 C 103.780 41.200,103.600 40.401,103.600 39.424 C 103.600 38.447,103.420 37.536,103.200 37.400 C 102.980 37.264,102.800 36.544,102.800 35.800 C 102.800 35.056,102.620 34.336,102.400 34.200 C 102.180 34.064,102.000 33.423,102.000 32.776 C 102.000 32.129,101.820 31.600,101.600 31.600 C 101.380 31.600,101.200 30.880,101.200 30.000 C 101.200 29.120,101.020 28.400,100.800 28.400 C 100.580 28.400,100.400 27.770,100.400 27.000 C 100.400 26.230,100.220 25.600,100.000 25.600 C 99.780 25.600,99.600 24.981,99.600 24.224 C 99.600 23.467,99.420 22.736,99.200 22.600 C 98.980 22.464,98.800 22.085,98.800 21.758 C 98.800 21.081,97.350 19.522,96.096 18.851 C 95.043 18.288,88.000 18.243,88.000 18.800 M88.790 34.500 C 89.600 37.158,90.262 39.740,91.205 43.918 C 91.804 46.572,91.823 59.770,91.229 61.326 C 90.993 61.945,90.800 62.970,90.800 63.602 C 90.800 64.235,90.640 64.852,90.444 64.973 C 90.249 65.094,89.995 65.779,89.881 66.496 C 89.768 67.213,89.447 68.520,89.169 69.400 C 88.523 71.445,88.222 80.563,88.740 82.400 C 88.956 83.170,89.360 84.610,89.637 85.600 C 89.913 86.590,90.288 87.571,90.470 87.780 C 90.651 87.989,90.800 88.484,90.800 88.880 C 90.800 89.276,90.959 89.600,91.153 89.600 C 91.348 89.600,91.607 89.915,91.729 90.300 C 92.224 91.860,93.594 93.599,97.480 97.600 C 101.577 101.817,106.395 107.795,106.398 108.667 C 106.399 108.923,106.549 109.193,106.731 109.267 C 107.454 109.557,111.175 117.878,112.069 121.200 C 112.276 121.970,112.616 123.230,112.826 124.000 C 115.228 132.831,115.028 142.234,112.219 152.600 C 109.146 163.943,111.704 173.490,120.187 182.333 C 122.227 184.460,124.412 186.830,125.042 187.600 C 125.672 188.370,126.294 189.090,126.424 189.200 C 129.474 191.780,134.242 202.887,136.675 213.077 C 136.861 213.854,136.619 214.028,134.542 214.612 C 133.254 214.974,131.030 215.606,129.600 216.016 C 128.170 216.427,126.280 216.931,125.400 217.137 C 124.520 217.343,121.640 218.090,119.000 218.797 C 111.994 220.672,112.475 220.621,112.053 219.544 C 111.850 219.025,111.499 217.880,111.275 217.000 C 109.153 208.695,107.135 205.198,101.000 199.200 C 97.875 196.145,93.600 190.857,93.600 190.047 C 93.600 189.801,93.465 189.599,93.300 189.597 C 93.135 189.595,92.813 189.190,92.583 188.697 C 92.354 188.204,91.787 187.080,91.323 186.200 C 87.029 178.056,84.883 168.157,85.341 158.600 C 85.578 153.649,85.852 152.158,87.967 144.307 C 90.756 133.954,87.747 124.263,78.998 115.429 C 64.262 100.548,59.227 81.461,64.801 61.600 C 66.275 56.347,66.400 55.651,66.389 52.754 C 66.383 50.906,65.992 48.302,65.345 45.800 C 64.776 43.600,64.223 41.145,64.117 40.344 C 63.892 38.640,62.933 39.051,73.800 36.197 C 77.760 35.157,82.080 33.984,83.400 33.590 C 87.456 32.381,88.182 32.504,88.790 34.500 M229.377 44.120 C 227.205 45.683,201.200 71.959,201.200 72.590 C 201.200 72.925,201.020 73.200,200.800 73.200 C 200.565 73.200,200.400 74.600,200.400 76.600 C 200.400 78.470,200.538 80.000,200.707 80.000 C 200.876 80.000,201.281 80.437,201.607 80.972 C 201.933 81.506,204.765 84.553,207.900 87.743 C 211.035 90.932,213.600 93.825,213.600 94.171 C 213.600 94.517,213.780 94.800,214.000 94.800 C 214.220 94.800,214.400 95.340,214.400 96.000 C 214.400 96.660,214.580 97.200,214.800 97.200 C 215.020 97.200,215.200 97.920,215.200 98.800 C 215.200 99.680,215.380 100.400,215.600 100.400 C 215.820 100.400,216.000 101.019,216.000 101.776 C 216.000 102.533,216.180 103.264,216.400 103.400 C 216.620 103.536,216.800 104.087,216.800 104.624 C 216.800 105.161,216.980 105.600,217.200 105.600 C 217.420 105.600,217.600 106.039,217.600 106.576 C 217.600 107.113,217.780 107.664,218.000 107.800 C 218.220 107.936,218.400 108.397,218.400 108.824 C 218.400 109.251,218.580 109.600,218.800 109.600 C 219.020 109.600,219.200 109.960,219.200 110.400 C 219.200 110.840,219.380 111.200,219.600 111.200 C 219.820 111.200,220.000 111.560,220.000 112.000 C 220.000 112.440,220.180 112.800,220.400 112.800 C 220.620 112.800,220.800 113.160,220.800 113.600 C 220.800 114.040,220.980 114.400,221.200 114.400 C 221.420 114.400,221.600 114.760,221.600 115.200 C 221.600 115.640,221.780 116.000,222.000 116.000 C 222.220 116.000,222.400 116.320,222.400 116.712 C 222.400 117.103,222.760 117.683,223.200 118.000 C 223.640 118.317,224.000 118.897,224.000 119.288 C 224.000 119.680,224.150 120.000,224.332 120.000 C 224.515 120.000,224.918 120.495,225.228 121.100 C 226.461 123.509,237.808 135.600,238.836 135.600 C 239.056 135.600,239.673 136.037,240.207 136.571 C 240.741 137.105,241.723 137.864,242.389 138.257 C 243.055 138.651,243.600 139.114,243.600 139.286 C 243.600 139.459,243.790 139.600,244.021 139.600 C 244.253 139.600,245.105 140.050,245.914 140.600 C 246.723 141.150,247.704 141.600,248.093 141.600 C 248.482 141.600,248.800 141.780,248.800 142.000 C 248.800 142.220,249.160 142.400,249.600 142.400 C 250.040 142.400,250.400 142.580,250.400 142.800 C 250.400 143.020,250.760 143.200,251.200 143.200 C 251.640 143.200,252.000 143.380,252.000 143.600 C 252.000 143.820,252.349 144.000,252.776 144.000 C 253.203 144.000,253.664 144.180,253.800 144.400 C 253.936 144.620,254.487 144.800,255.024 144.800 C 255.561 144.800,256.000 144.980,256.000 145.200 C 256.000 145.420,256.540 145.600,257.200 145.600 C 257.860 145.600,258.400 145.780,258.400 146.000 C 258.400 146.220,258.839 146.400,259.376 146.400 C 259.913 146.400,260.464 146.580,260.600 146.800 C 260.736 147.020,261.467 147.200,262.224 147.200 C 262.981 147.200,263.600 147.380,263.600 147.600 C 263.600 147.820,264.219 148.000,264.976 148.000 C 265.733 148.000,266.464 148.180,266.600 148.400 C 266.736 148.620,267.197 148.800,267.624 148.800 C 268.051 148.800,268.400 148.980,268.400 149.200 C 268.400 149.420,268.653 149.600,268.962 149.600 C 270.974 149.600,276.800 157.460,276.800 160.175 C 276.800 160.739,276.980 161.200,277.200 161.200 C 277.420 161.200,277.600 161.819,277.600 162.576 C 277.600 163.333,277.780 164.064,278.000 164.200 C 278.220 164.336,278.400 164.977,278.400 165.624 C 278.400 166.271,278.580 166.800,278.800 166.800 C 279.020 166.800,279.200 167.239,279.200 167.776 C 279.200 168.313,279.380 168.864,279.600 169.000 C 279.820 169.136,280.000 169.597,280.000 170.024 C 280.000 170.451,280.180 170.800,280.400 170.800 C 280.620 170.800,280.800 171.149,280.800 171.576 C 280.800 172.003,280.980 172.464,281.200 172.600 C 281.420 172.736,281.600 173.182,281.600 173.590 C 281.600 173.999,281.735 174.393,281.900 174.467 C 282.065 174.540,282.633 175.455,283.163 176.500 C 283.692 177.545,284.277 178.400,284.463 178.400 C 284.648 178.400,284.800 178.760,284.800 179.200 C 284.800 179.640,284.980 180.000,285.200 180.000 C 285.420 180.000,285.600 180.243,285.600 180.541 C 285.600 180.838,286.140 181.646,286.800 182.337 C 287.460 183.028,288.000 183.792,288.000 184.036 C 288.000 184.280,288.540 184.983,289.200 185.600 C 289.860 186.217,290.400 186.926,290.400 187.177 C 290.400 187.712,298.992 196.400,299.522 196.400 C 299.720 196.400,300.446 196.940,301.137 197.600 C 301.828 198.260,302.529 198.800,302.696 198.801 C 302.863 198.801,303.630 199.341,304.400 200.000 C 305.170 200.659,306.025 201.199,306.300 201.199 C 306.575 201.200,306.800 201.380,306.800 201.600 C 306.800 201.820,307.160 202.000,307.600 202.000 C 308.040 202.000,308.400 202.150,308.400 202.332 C 308.400 202.515,308.895 202.920,309.500 203.232 C 310.105 203.544,310.690 203.899,310.800 204.022 C 311.179 204.444,314.793 206.000,315.396 206.000 C 315.728 206.000,316.000 206.180,316.000 206.400 C 316.000 206.620,316.349 206.800,316.776 206.800 C 317.203 206.800,317.664 206.980,317.800 207.200 C 317.936 207.420,318.476 207.600,319.000 207.600 C 319.524 207.600,320.056 207.767,320.183 207.972 C 320.309 208.177,321.400 208.467,322.606 208.618 C 323.813 208.769,324.800 209.051,324.800 209.246 C 324.800 209.441,325.520 209.600,326.400 209.600 C 327.280 209.600,328.000 209.780,328.000 210.000 C 328.000 210.220,328.450 210.400,329.000 210.400 C 329.550 210.400,330.000 210.580,330.000 210.800 C 330.000 211.020,330.284 211.200,330.631 211.200 C 330.978 211.200,333.925 213.818,337.179 217.019 C 345.082 224.792,345.095 224.800,348.540 224.800 C 350.948 224.800,351.519 224.653,352.762 223.715 C 355.247 221.839,380.800 196.037,380.800 195.403 C 380.800 195.071,380.980 194.800,381.200 194.800 C 381.435 194.800,381.600 193.400,381.600 191.400 C 381.600 189.400,381.435 188.000,381.200 188.000 C 380.980 188.000,380.800 187.729,380.800 187.398 C 380.800 186.722,371.071 176.826,368.600 174.989 C 367.720 174.335,366.339 173.125,365.531 172.300 C 364.724 171.475,363.818 170.800,363.520 170.800 C 363.221 170.800,362.717 170.440,362.400 170.000 C 362.083 169.560,361.569 169.200,361.259 169.200 C 360.948 169.200,360.402 168.885,360.046 168.500 C 359.296 167.690,357.636 166.665,355.500 165.694 C 354.675 165.318,354.000 164.874,354.000 164.706 C 354.000 164.538,353.651 164.400,353.224 164.400 C 352.797 164.400,352.336 164.220,352.200 164.000 C 352.064 163.780,351.603 163.600,351.176 163.600 C 350.749 163.600,350.400 163.420,350.400 163.200 C 350.400 162.980,350.051 162.800,349.624 162.800 C 349.197 162.800,348.736 162.620,348.600 162.400 C 348.464 162.180,347.913 162.000,347.376 162.000 C 346.839 162.000,346.400 161.820,346.400 161.600 C 346.400 161.380,345.871 161.200,345.224 161.200 C 344.577 161.200,343.936 161.020,343.800 160.800 C 343.664 160.580,343.034 160.400,342.400 160.400 C 341.766 160.400,341.136 160.220,341.000 160.000 C 340.864 159.780,340.383 159.600,339.930 159.600 C 338.903 159.600,335.047 158.305,334.867 157.900 C 334.793 157.735,334.507 157.600,334.230 157.600 C 333.544 157.600,330.331 154.456,329.632 153.100 C 329.320 152.495,328.915 152.000,328.732 152.000 C 328.550 152.000,328.400 151.640,328.400 151.200 C 328.400 150.760,328.220 150.400,328.000 150.400 C 327.780 150.400,327.600 149.860,327.600 149.200 C 327.600 148.540,327.420 148.000,327.200 148.000 C 326.980 148.000,326.800 147.370,326.800 146.600 C 326.800 145.830,326.620 145.200,326.400 145.200 C 326.180 145.200,326.000 144.671,326.000 144.024 C 326.000 143.377,325.844 142.751,325.653 142.632 C 325.461 142.514,325.186 141.674,325.041 140.765 C 324.896 139.857,324.422 138.379,323.988 137.481 C 323.555 136.584,323.200 135.614,323.200 135.325 C 323.200 135.036,323.020 134.800,322.800 134.800 C 322.580 134.800,322.400 134.440,322.400 134.000 C 322.400 133.560,322.220 133.200,322.000 133.200 C 321.780 133.200,321.600 132.840,321.600 132.400 C 321.600 131.960,321.420 131.600,321.200 131.600 C 320.980 131.600,320.800 131.240,320.800 130.800 C 320.800 130.360,320.620 130.000,320.400 130.000 C 320.180 130.000,320.000 129.807,320.000 129.572 C 320.000 129.337,319.460 128.359,318.800 127.400 C 318.140 126.441,317.600 125.536,317.600 125.388 C 317.600 125.241,317.060 124.617,316.400 124.000 C 315.740 123.383,315.200 122.667,315.200 122.408 C 315.200 122.149,314.519 121.276,313.687 120.469 C 312.855 119.661,311.737 118.370,311.203 117.600 C 310.668 116.830,309.755 115.750,309.172 115.200 C 307.068 113.212,303.599 110.324,302.115 109.324 C 301.282 108.762,300.540 108.145,300.467 107.951 C 300.393 107.758,300.071 107.600,299.750 107.600 C 299.429 107.600,298.780 107.240,298.308 106.800 C 297.836 106.360,297.213 106.000,296.925 106.000 C 296.636 106.000,296.400 105.820,296.400 105.600 C 296.400 105.380,296.040 105.200,295.600 105.200 C 295.160 105.200,294.800 105.020,294.800 104.800 C 294.800 104.580,294.440 104.400,294.000 104.400 C 293.560 104.400,293.200 104.254,293.200 104.075 C 293.200 103.896,292.570 103.502,291.800 103.200 C 291.030 102.898,290.400 102.504,290.400 102.325 C 290.400 102.146,290.040 102.000,289.600 102.000 C 289.160 102.000,288.800 101.820,288.800 101.600 C 288.800 101.380,288.440 101.200,288.000 101.200 C 287.560 101.200,287.200 101.020,287.200 100.800 C 287.200 100.580,286.660 100.400,286.000 100.400 C 285.340 100.400,284.800 100.220,284.800 100.000 C 284.800 99.780,284.260 99.600,283.600 99.600 C 282.940 99.600,282.400 99.420,282.400 99.200 C 282.400 98.980,281.860 98.800,281.200 98.800 C 280.540 98.800,280.000 98.620,280.000 98.400 C 280.000 98.180,279.280 98.000,278.400 98.000 C 277.520 98.000,276.800 97.820,276.800 97.600 C 276.800 97.380,276.260 97.200,275.600 97.200 C 274.940 97.200,274.400 97.064,274.400 96.898 C 274.400 96.731,273.829 96.342,273.130 96.033 C 272.432 95.724,271.037 94.691,270.030 93.738 C 269.024 92.785,268.065 92.003,267.900 92.002 C 267.735 92.001,267.600 91.717,267.600 91.371 C 267.600 91.026,267.321 90.464,266.980 90.123 C 266.640 89.782,266.257 88.985,266.130 88.352 C 266.004 87.718,265.743 87.200,265.550 87.200 C 265.358 87.200,265.200 86.480,265.200 85.600 C 265.200 84.720,265.020 84.000,264.800 84.000 C 264.580 84.000,264.400 83.280,264.400 82.400 C 264.400 81.520,264.220 80.800,264.000 80.800 C 263.780 80.800,263.600 80.260,263.600 79.600 C 263.600 78.940,263.420 78.400,263.200 78.400 C 262.980 78.400,262.800 77.950,262.800 77.400 C 262.800 76.850,262.620 76.400,262.400 76.400 C 262.180 76.400,262.000 76.040,262.000 75.600 C 262.000 75.160,261.820 74.800,261.600 74.800 C 261.380 74.800,261.200 74.361,261.200 73.824 C 261.200 73.287,261.020 72.736,260.800 72.600 C 260.580 72.464,260.400 72.003,260.400 71.576 C 260.400 71.149,260.220 70.800,260.000 70.800 C 259.780 70.800,259.600 70.440,259.600 70.000 C 259.600 69.560,259.465 69.200,259.300 69.199 C 259.135 69.199,258.474 68.119,257.830 66.799 C 257.187 65.480,256.512 64.400,256.330 64.400 C 256.149 64.400,255.997 64.175,255.993 63.900 C 255.984 63.335,254.438 61.287,252.496 59.267 C 251.778 58.522,250.789 57.346,250.298 56.656 C 249.136 55.022,239.374 45.261,237.738 44.098 C 235.939 42.818,231.168 42.830,229.377 44.120 M330.800 50.000 C 330.800 50.220,330.260 50.400,329.600 50.400 C 328.940 50.400,328.400 50.580,328.400 50.800 C 328.400 51.020,327.950 51.200,327.400 51.200 C 326.850 51.200,326.400 51.380,326.400 51.600 C 326.400 51.820,326.040 52.000,325.600 52.000 C 325.160 52.000,324.800 52.180,324.800 52.400 C 324.800 52.620,324.557 52.800,324.259 52.800 C 323.962 52.800,323.154 53.340,322.463 54.000 C 321.772 54.660,321.071 55.200,320.904 55.200 C 319.494 55.203,313.600 63.282,313.600 65.212 C 313.600 65.645,313.420 66.000,313.200 66.000 C 312.980 66.000,312.800 66.540,312.800 67.200 C 312.800 67.860,312.620 68.400,312.400 68.400 C 312.149 68.400,312.000 70.867,312.000 75.000 C 312.000 79.133,312.149 81.600,312.400 81.600 C 312.620 81.600,312.800 82.140,312.800 82.800 C 312.800 83.460,312.980 84.000,313.200 84.000 C 313.420 84.000,313.600 84.343,313.600 84.762 C 313.600 85.669,315.208 88.800,315.674 88.800 C 315.853 88.800,316.000 89.055,316.000 89.366 C 316.000 89.677,316.540 90.442,317.200 91.065 C 317.860 91.688,318.400 92.346,318.400 92.527 C 318.400 92.974,319.454 94.000,319.912 94.000 C 320.115 94.000,320.806 94.495,321.448 95.100 C 322.089 95.705,323.106 96.455,323.707 96.768 C 324.308 97.080,324.800 97.485,324.800 97.668 C 324.800 97.850,325.160 98.000,325.600 98.000 C 326.040 98.000,326.400 98.180,326.400 98.400 C 326.400 98.620,326.850 98.800,327.400 98.800 C 327.950 98.800,328.400 98.980,328.400 99.200 C 328.400 99.420,328.940 99.600,329.600 99.600 C 330.260 99.600,330.800 99.780,330.800 100.000 C 330.800 100.251,333.267 100.400,337.400 100.400 C 341.533 100.400,344.000 100.251,344.000 100.000 C 344.000 99.780,344.540 99.600,345.200 99.600 C 345.860 99.600,346.400 99.420,346.400 99.200 C 346.400 98.980,346.940 98.800,347.600 98.800 C 348.260 98.800,348.800 98.620,348.800 98.400 C 348.800 98.180,349.160 98.000,349.600 98.000 C 350.040 98.000,350.400 97.850,350.400 97.668 C 350.400 97.485,350.889 97.080,351.488 96.768 C 353.672 95.628,358.117 91.244,359.060 89.300 C 359.407 88.585,359.851 88.000,360.046 88.000 C 360.241 88.000,360.400 87.640,360.400 87.200 C 360.400 86.760,360.580 86.400,360.800 86.400 C 361.020 86.400,361.200 85.860,361.200 85.200 C 361.200 84.540,361.380 84.000,361.600 84.000 C 361.820 84.000,362.000 83.460,362.000 82.800 C 362.000 82.140,362.180 81.600,362.400 81.600 C 362.651 81.600,362.800 79.133,362.800 75.000 C 362.800 70.867,362.651 68.400,362.400 68.400 C 362.180 68.400,362.000 67.860,362.000 67.200 C 362.000 66.540,361.820 66.000,361.600 66.000 C 361.380 66.000,361.200 65.460,361.200 64.800 C 361.200 64.140,361.020 63.600,360.800 63.600 C 360.580 63.600,360.400 63.240,360.400 62.800 C 360.400 62.360,360.241 62.000,360.046 62.000 C 359.851 62.000,359.411 61.415,359.069 60.700 C 358.400 59.303,354.716 55.200,354.131 55.200 C 353.936 55.200,353.517 54.840,353.200 54.400 C 352.883 53.960,352.393 53.600,352.112 53.600 C 351.830 53.600,351.600 53.420,351.600 53.200 C 351.600 52.980,351.330 52.800,351.000 52.800 C 350.670 52.800,350.400 52.620,350.400 52.400 C 350.400 52.180,350.040 52.000,349.600 52.000 C 349.160 52.000,348.800 51.820,348.800 51.600 C 348.800 51.380,348.361 51.200,347.824 51.200 C 347.287 51.200,346.736 51.020,346.600 50.800 C 346.464 50.580,345.823 50.400,345.176 50.400 C 344.529 50.400,344.000 50.220,344.000 50.000 C 344.000 49.749,341.533 49.600,337.400 49.600 C 333.267 49.600,330.800 49.749,330.800 50.000 M149.600 56.400 C 149.600 56.620,149.060 56.800,148.400 56.800 C 147.740 56.800,147.200 56.980,147.200 57.200 C 147.200 57.420,146.675 57.600,146.033 57.600 C 145.392 57.600,144.807 57.735,144.733 57.900 C 144.660 58.065,143.880 58.560,143.000 59.000 C 142.120 59.440,141.040 60.103,140.600 60.472 C 138.559 62.188,136.400 64.305,136.400 64.591 C 136.400 64.764,136.084 65.197,135.697 65.553 C 135.311 65.909,134.740 66.695,134.430 67.300 C 134.119 67.905,133.715 68.400,133.532 68.400 C 133.350 68.400,133.200 68.760,133.200 69.200 C 133.200 69.640,133.020 70.000,132.800 70.000 C 132.580 70.000,132.400 70.439,132.400 70.976 C 132.400 71.513,132.220 72.064,132.000 72.200 C 131.780 72.336,131.600 72.977,131.600 73.624 C 131.600 74.271,131.420 74.800,131.200 74.800 C 130.950 74.800,130.800 77.192,130.800 81.176 C 130.800 84.996,130.960 87.652,131.200 87.800 C 131.420 87.936,131.600 88.476,131.600 89.000 C 131.600 89.524,131.780 90.064,132.000 90.200 C 132.220 90.336,132.400 90.887,132.400 91.424 C 132.400 91.961,132.580 92.400,132.800 92.400 C 133.020 92.400,133.200 92.760,133.200 93.200 C 133.200 93.640,133.350 94.000,133.532 94.000 C 133.715 94.000,134.120 94.489,134.432 95.088 C 135.548 97.225,140.969 102.800,141.931 102.800 C 142.106 102.800,142.607 103.115,143.045 103.500 C 144.250 104.560,145.502 105.200,146.371 105.200 C 146.801 105.200,147.264 105.380,147.400 105.600 C 147.536 105.820,148.076 106.000,148.600 106.000 C 149.124 106.000,149.664 106.180,149.800 106.400 C 149.947 106.639,152.530 106.800,156.200 106.800 C 159.870 106.800,162.453 106.639,162.600 106.400 C 162.736 106.180,163.377 106.000,164.024 106.000 C 164.671 106.000,165.200 105.820,165.200 105.600 C 165.200 105.380,165.543 105.200,165.962 105.200 C 166.869 105.200,170.000 103.592,170.000 103.126 C 170.000 102.947,170.267 102.800,170.593 102.800 C 171.462 102.800,176.000 98.677,176.000 97.888 C 176.000 97.671,176.316 97.203,176.703 96.847 C 177.089 96.491,177.660 95.705,177.970 95.100 C 178.281 94.495,178.685 94.000,178.868 94.000 C 179.050 94.000,179.200 93.640,179.200 93.200 C 179.200 92.760,179.380 92.400,179.600 92.400 C 179.820 92.400,180.000 91.950,180.000 91.400 C 180.000 90.850,180.180 90.400,180.400 90.400 C 180.620 90.400,180.800 89.860,180.800 89.200 C 180.800 88.540,180.980 88.000,181.200 88.000 C 181.451 88.000,181.600 85.533,181.600 81.400 C 181.600 77.267,181.451 74.800,181.200 74.800 C 180.980 74.800,180.800 74.260,180.800 73.600 C 180.800 72.940,180.620 72.400,180.400 72.400 C 180.180 72.400,180.000 71.860,180.000 71.200 C 180.000 70.540,179.820 70.000,179.600 70.000 C 179.380 70.000,179.200 69.640,179.200 69.200 C 179.200 68.760,179.020 68.400,178.800 68.400 C 178.580 68.400,178.400 68.130,178.400 67.800 C 178.400 67.470,178.220 67.200,178.000 67.200 C 177.780 67.200,177.600 66.970,177.600 66.688 C 177.600 66.407,177.240 65.917,176.800 65.600 C 176.360 65.283,176.000 64.846,176.000 64.628 C 176.000 63.546,169.562 58.400,168.208 58.400 C 167.874 58.400,167.600 58.220,167.600 58.000 C 167.600 57.780,167.161 57.600,166.624 57.600 C 166.087 57.600,165.536 57.420,165.400 57.200 C 165.264 56.980,164.623 56.800,163.976 56.800 C 163.329 56.800,162.800 56.620,162.800 56.400 C 162.800 56.149,160.333 56.000,156.200 56.000 C 152.067 56.000,149.600 56.149,149.600 56.400 M237.705 62.900 C 245.954 71.407,249.688 78.033,252.418 89.000 C 253.944 95.132,256.062 98.820,260.678 103.383 C 264.738 107.395,268.110 109.108,276.200 111.266 C 294.640 116.186,310.052 132.299,314.395 151.200 C 316.918 162.184,324.723 169.398,338.200 173.201 C 345.364 175.223,350.222 177.549,355.493 181.482 C 358.586 183.790,366.000 190.742,366.000 191.334 C 366.000 192.017,348.977 208.927,348.470 208.749 C 348.236 208.667,346.639 207.237,344.922 205.571 C 339.579 200.387,336.743 198.824,328.669 196.611 C 312.872 192.282,301.080 182.698,293.964 168.405 C 292.358 165.180,289.200 155.867,289.200 154.357 C 289.200 151.040,282.792 142.719,277.441 139.086 C 275.978 138.094,275.236 137.708,272.200 136.364 C 271.495 136.052,270.369 135.729,265.400 134.413 C 250.763 130.536,236.628 118.053,230.849 103.900 C 230.602 103.295,230.227 102.395,230.015 101.900 C 229.803 101.405,229.243 99.560,228.770 97.800 C 226.242 88.387,224.937 85.866,219.785 80.453 C 217.923 78.496,216.400 76.668,216.400 76.391 C 216.400 75.720,232.841 59.284,233.559 59.237 C 233.866 59.217,235.732 60.865,237.705 62.900 M341.505 62.753 C 341.887 62.948,342.719 63.351,343.352 63.649 C 351.071 67.281,352.618 78.667,346.164 84.348 C 339.734 90.008,329.462 88.093,326.053 80.600 C 325.752 79.940,325.348 79.087,325.153 78.705 C 324.695 77.804,324.695 72.196,325.153 71.295 C 325.348 70.913,325.753 70.072,326.053 69.426 C 328.436 64.309,337.159 60.542,341.505 62.753 M161.470 69.593 C 171.034 73.806,171.366 88.407,161.994 92.650 C 159.464 93.796,158.598 94.000,156.281 93.994 C 151.272 93.982,144.460 89.351,144.410 85.924 C 144.404 85.552,144.220 85.136,144.000 85.000 C 143.780 84.864,143.600 83.329,143.600 81.588 C 143.600 72.077,152.915 65.824,161.470 69.593 M31.600 118.800 C 31.600 119.020,31.060 119.200,30.400 119.200 C 29.740 119.200,29.200 119.336,29.200 119.502 C 29.200 119.669,28.628 120.058,27.928 120.368 C 26.584 120.963,20.800 126.501,20.800 127.194 C 20.800 127.417,20.620 127.600,20.400 127.600 C 20.180 127.600,20.000 127.949,20.000 128.376 C 20.000 128.803,19.820 129.264,19.600 129.400 C 19.380 129.536,19.200 130.087,19.200 130.624 C 19.200 131.161,19.020 131.600,18.800 131.600 C 18.552 131.600,18.400 133.800,18.400 137.400 C 18.400 141.000,18.552 143.200,18.800 143.200 C 19.020 143.200,19.200 143.740,19.200 144.400 C 19.200 145.060,19.380 145.600,19.600 145.600 C 19.820 145.600,20.000 145.960,20.000 146.400 C 20.000 146.840,20.180 147.200,20.400 147.200 C 20.620 147.200,20.800 147.461,20.800 147.781 C 20.800 149.430,28.804 156.000,30.814 156.000 C 31.220 156.000,31.664 156.180,31.800 156.400 C 31.945 156.634,34.263 156.800,37.400 156.800 C 40.537 156.800,42.855 156.634,43.000 156.400 C 43.136 156.180,43.676 156.000,44.200 156.000 C 44.724 156.000,45.264 155.820,45.400 155.600 C 45.536 155.380,45.997 155.200,46.424 155.200 C 46.851 155.200,47.200 155.020,47.200 154.800 C 47.200 154.580,47.449 154.400,47.754 154.400 C 48.396 154.400,53.144 149.816,53.938 148.430 C 55.686 145.375,56.000 144.702,56.000 144.011 C 56.000 143.591,56.180 143.136,56.400 143.000 C 57.218 142.495,56.880 133.279,55.946 130.627 C 54.792 127.347,50.248 121.600,48.809 121.600 C 48.584 121.600,48.400 121.420,48.400 121.200 C 48.400 120.980,48.130 120.800,47.800 120.800 C 47.470 120.800,47.200 120.620,47.200 120.400 C 47.200 120.180,46.840 120.000,46.400 120.000 C 45.960 120.000,45.600 119.820,45.600 119.600 C 45.600 119.380,45.060 119.200,44.400 119.200 C 43.740 119.200,43.200 119.020,43.200 118.800 C 43.200 118.552,41.000 118.400,37.400 118.400 C 33.800 118.400,31.600 118.552,31.600 118.800 M163.300 119.816 C 162.585 120.565,162.000 121.452,162.000 121.789 C 162.000 122.125,161.820 122.400,161.600 122.400 C 161.380 122.400,161.200 123.019,161.200 123.776 C 161.200 124.533,161.020 125.264,160.800 125.400 C 160.580 125.536,160.400 126.436,160.400 127.400 C 160.400 128.364,160.220 129.264,160.000 129.400 C 159.780 129.536,159.600 130.436,159.600 131.400 C 159.600 132.364,159.439 133.252,159.243 133.374 C 159.046 133.495,158.757 135.217,158.600 137.200 C 158.443 139.183,158.154 140.905,157.957 141.026 C 157.761 141.148,157.600 141.946,157.600 142.800 C 157.600 143.654,157.420 144.464,157.200 144.600 C 156.980 144.736,156.800 145.636,156.800 146.600 C 156.800 147.564,156.620 148.464,156.400 148.600 C 156.180 148.736,156.000 149.636,156.000 150.600 C 156.000 151.564,155.820 152.464,155.600 152.600 C 155.380 152.736,155.200 153.636,155.200 154.600 C 155.200 155.564,155.020 156.464,154.800 156.600 C 154.580 156.736,154.400 157.647,154.400 158.624 C 154.400 159.601,154.220 160.400,154.000 160.400 C 153.780 160.400,153.600 161.199,153.600 162.176 C 153.600 163.153,153.420 164.064,153.200 164.200 C 152.975 164.339,152.800 166.271,152.800 168.624 C 152.800 171.141,152.959 172.800,153.200 172.800 C 153.420 172.800,153.600 173.030,153.600 173.312 C 153.600 173.593,153.987 174.088,154.460 174.412 C 154.934 174.735,156.059 175.767,156.960 176.705 C 158.353 178.153,168.101 187.933,173.254 193.052 C 174.111 193.903,177.955 197.750,181.797 201.600 C 185.638 205.450,189.506 209.320,190.392 210.200 C 191.278 211.080,193.795 213.645,195.987 215.900 C 198.925 218.923,200.232 220.000,200.962 220.000 C 201.507 220.000,202.064 220.180,202.200 220.400 C 202.336 220.620,202.966 220.800,203.600 220.800 C 204.234 220.800,204.864 220.620,205.000 220.400 C 205.136 220.180,205.653 220.000,206.148 220.000 C 207.351 220.000,209.600 217.796,209.600 216.617 C 209.600 216.278,209.780 216.000,210.000 216.000 C 210.220 216.000,210.400 215.280,210.400 214.400 C 210.400 213.520,210.580 212.800,210.800 212.800 C 211.020 212.800,211.200 211.900,211.200 210.800 C 211.200 209.700,211.380 208.800,211.600 208.800 C 211.820 208.800,212.000 207.990,212.000 207.000 C 212.000 206.010,212.180 205.200,212.400 205.200 C 212.620 205.200,212.800 204.300,212.800 203.200 C 212.800 202.100,212.980 201.200,213.200 201.200 C 213.420 201.200,213.600 200.300,213.600 199.200 C 213.600 198.100,213.780 197.200,214.000 197.200 C 214.220 197.200,214.400 196.300,214.400 195.200 C 214.400 194.100,214.580 193.200,214.800 193.200 C 215.020 193.200,215.200 192.401,215.200 191.424 C 215.200 190.447,215.380 189.536,215.600 189.400 C 215.820 189.264,216.000 188.353,216.000 187.376 C 216.000 186.399,216.180 185.600,216.400 185.600 C 216.620 185.600,216.800 184.700,216.800 183.600 C 216.800 182.500,216.980 181.600,217.200 181.600 C 217.420 181.600,217.600 180.700,217.600 179.600 C 217.600 178.500,217.780 177.600,218.000 177.600 C 218.220 177.600,218.400 176.700,218.400 175.600 C 218.400 174.500,218.580 173.600,218.800 173.600 C 219.039 173.600,219.200 172.067,219.200 169.800 C 219.200 167.533,219.039 166.000,218.800 166.000 C 218.580 166.000,218.391 165.685,218.380 165.300 C 218.369 164.915,216.916 163.250,215.151 161.600 C 213.386 159.950,211.190 157.833,210.271 156.895 C 208.697 155.289,197.832 144.412,193.543 140.148 C 192.465 139.077,188.815 135.410,185.432 132.000 C 182.049 128.590,178.317 124.880,177.140 123.755 C 175.963 122.630,174.730 121.359,174.400 120.932 C 172.060 117.901,165.736 117.265,163.300 119.816 M40.432 132.016 C 44.047 133.861,44.805 138.982,41.893 141.893 C 38.982 144.805,33.861 144.047,32.016 140.432 C 29.178 134.868,34.868 129.178,40.432 132.016 M189.264 154.300 L 205.914 171.000 205.570 173.000 C 205.381 174.100,205.046 175.900,204.826 177.000 C 204.606 178.100,204.262 179.900,204.062 181.000 C 202.809 187.891,200.269 199.964,199.972 200.437 C 199.705 200.862,195.491 196.881,182.786 184.200 L 165.952 167.400 166.189 165.800 C 166.320 164.920,167.344 159.610,168.465 154.000 C 169.586 148.390,170.635 142.990,170.795 142.000 C 170.955 141.010,171.202 139.885,171.343 139.500 C 171.484 139.115,171.684 138.530,171.787 138.200 C 172.122 137.131,172.406 137.393,189.264 154.300 M262.600 200.813 C 262.380 201.018,259.925 203.394,257.145 206.093 C 250.534 212.509,249.291 213.600,248.587 213.600 C 248.264 213.600,248.000 213.780,248.000 214.000 C 248.000 214.220,247.561 214.400,247.024 214.400 C 246.487 214.400,245.936 214.580,245.800 214.800 C 245.664 215.020,244.933 215.200,244.176 215.200 C 243.419 215.200,242.800 215.380,242.800 215.600 C 242.800 215.820,242.260 216.000,241.600 216.000 C 240.940 216.000,240.400 216.180,240.400 216.400 C 240.400 216.620,239.871 216.800,239.224 216.800 C 238.577 216.800,237.936 216.980,237.800 217.200 C 237.664 217.420,237.113 217.600,236.576 217.600 C 236.039 217.600,235.600 217.780,235.600 218.000 C 235.600 218.220,235.161 218.400,234.624 218.400 C 234.087 218.400,233.536 218.580,233.400 218.800 C 233.264 219.020,232.803 219.200,232.376 219.200 C 231.949 219.200,231.600 219.380,231.600 219.600 C 231.600 219.820,231.240 220.000,230.800 220.000 C 230.360 220.000,230.000 220.180,230.000 220.400 C 230.000 220.620,229.640 220.800,229.200 220.800 C 228.760 220.800,228.400 220.980,228.400 221.200 C 228.400 221.420,228.164 221.600,227.875 221.600 C 227.587 221.600,226.964 221.960,226.492 222.400 C 226.020 222.840,225.446 223.200,225.217 223.200 C 224.988 223.200,224.800 223.380,224.800 223.600 C 224.800 223.820,224.440 224.000,224.000 224.000 C 223.560 224.000,223.200 224.159,223.200 224.354 C 223.200 224.549,222.605 224.991,221.879 225.336 C 221.152 225.681,219.984 226.511,219.282 227.181 C 218.581 227.852,217.836 228.400,217.626 228.400 C 216.952 228.400,208.400 237.228,208.400 237.924 C 208.400 238.120,207.860 238.846,207.200 239.537 C 206.540 240.228,205.999 240.929,205.998 241.096 C 205.997 241.263,205.457 241.975,204.798 242.678 C 204.139 243.381,203.600 244.146,203.600 244.378 C 203.600 244.610,203.420 244.800,203.200 244.800 C 202.980 244.800,202.800 245.160,202.800 245.600 C 202.800 246.040,202.620 246.400,202.400 246.400 C 202.180 246.400,202.000 246.670,202.000 247.000 C 202.000 247.330,201.854 247.600,201.675 247.600 C 201.496 247.600,201.102 248.230,200.800 249.000 C 200.498 249.770,200.137 250.400,199.998 250.400 C 199.858 250.400,199.500 251.300,199.200 252.400 C 198.900 253.500,198.508 254.400,198.328 254.400 C 198.147 254.400,198.000 254.760,198.000 255.200 C 198.000 255.640,197.820 256.000,197.600 256.000 C 197.380 256.000,197.200 256.540,197.200 257.200 C 197.200 257.860,197.020 258.400,196.800 258.400 C 196.580 258.400,196.400 258.839,196.400 259.376 C 196.400 259.913,196.220 260.464,196.000 260.600 C 195.780 260.736,195.600 261.467,195.600 262.224 C 195.600 262.981,195.420 263.600,195.200 263.600 C 194.980 263.600,194.800 263.992,194.800 264.472 C 194.800 265.344,193.983 268.023,193.602 268.400 C 193.491 268.510,193.053 269.221,192.630 269.981 C 191.682 271.679,188.613 274.800,187.891 274.800 C 187.599 274.800,187.150 275.010,186.893 275.267 C 186.294 275.866,183.661 276.786,182.524 276.794 C 182.042 276.797,181.536 276.980,181.400 277.200 C 181.264 277.420,180.634 277.600,180.000 277.600 C 179.366 277.600,178.736 277.780,178.600 278.000 C 178.464 278.220,177.924 278.400,177.400 278.400 C 176.876 278.400,176.336 278.580,176.200 278.800 C 176.064 279.020,175.513 279.200,174.976 279.200 C 174.439 279.200,174.000 279.380,174.000 279.600 C 174.000 279.820,173.640 280.000,173.200 280.000 C 172.760 280.000,172.400 280.180,172.400 280.400 C 172.400 280.620,171.961 280.800,171.424 280.800 C 170.887 280.800,170.336 280.980,170.200 281.200 C 170.064 281.420,169.618 281.600,169.210 281.600 C 168.801 281.600,168.407 281.735,168.333 281.900 C 168.260 282.065,167.345 282.633,166.300 283.163 C 165.255 283.692,164.400 284.277,164.400 284.463 C 164.400 284.648,164.040 284.800,163.600 284.800 C 163.160 284.800,162.800 284.980,162.800 285.200 C 162.800 285.420,162.530 285.600,162.200 285.600 C 161.870 285.600,161.600 285.780,161.600 286.000 C 161.600 286.220,161.422 286.400,161.205 286.400 C 160.788 286.400,160.054 286.964,157.685 289.100 C 156.892 289.815,156.105 290.400,155.935 290.400 C 155.245 290.400,147.849 297.536,146.400 299.600 C 145.860 300.370,145.008 301.413,144.509 301.918 C 144.009 302.423,143.600 302.981,143.600 303.157 C 143.600 303.333,143.240 303.893,142.800 304.400 C 142.360 304.907,142.000 305.655,142.000 306.061 C 142.000 306.468,141.820 306.800,141.600 306.800 C 141.380 306.800,141.200 307.036,141.200 307.325 C 141.200 307.613,140.875 308.198,140.478 308.625 C 140.080 309.051,139.497 309.985,139.180 310.700 C 138.864 311.415,138.469 312.000,138.302 312.000 C 138.136 312.000,138.000 312.360,138.000 312.800 C 138.000 313.240,137.820 313.600,137.600 313.600 C 137.380 313.600,137.200 313.949,137.200 314.376 C 137.200 314.803,137.020 315.264,136.800 315.400 C 136.580 315.536,136.400 316.087,136.400 316.624 C 136.400 317.161,136.220 317.600,136.000 317.600 C 135.780 317.600,135.600 318.020,135.600 318.533 C 135.600 319.047,135.477 319.590,135.326 319.741 C 134.882 320.185,134.013 322.924,134.006 323.900 C 134.003 324.395,133.820 324.800,133.600 324.800 C 133.380 324.800,133.200 325.419,133.200 326.176 C 133.200 326.933,133.020 327.664,132.800 327.800 C 132.580 327.936,132.400 328.487,132.400 329.024 C 132.400 329.561,132.220 330.000,132.000 330.000 C 131.780 330.000,131.600 330.262,131.600 330.581 C 131.600 331.231,129.372 333.719,123.300 339.850 C 121.045 342.128,119.200 344.173,119.200 344.395 C 119.200 344.618,119.020 344.800,118.800 344.800 C 118.563 344.800,118.400 346.267,118.400 348.400 C 118.400 350.533,118.563 352.000,118.800 352.000 C 119.020 352.000,119.200 352.262,119.200 352.582 C 119.200 352.902,120.308 354.207,121.662 355.482 C 123.017 356.757,124.862 358.593,125.762 359.563 C 127.800 361.757,137.940 371.893,140.844 374.639 C 142.030 375.760,143.862 377.605,144.916 378.739 C 145.970 379.872,147.095 380.800,147.416 380.800 C 147.737 380.800,148.000 380.980,148.000 381.200 C 148.000 381.437,149.467 381.600,151.600 381.600 C 153.733 381.600,155.200 381.437,155.200 381.200 C 155.200 380.980,155.379 380.800,155.597 380.800 C 156.250 380.800,171.599 365.160,171.600 364.494 C 171.601 364.332,172.051 363.677,172.600 363.038 C 173.150 362.399,173.600 361.751,173.600 361.599 C 173.600 361.447,173.960 360.907,174.400 360.400 C 174.840 359.893,175.200 359.235,175.200 358.939 C 175.200 358.642,175.380 358.400,175.600 358.400 C 175.820 358.400,176.000 358.040,176.000 357.600 C 176.000 357.160,176.180 356.800,176.400 356.800 C 176.620 356.800,176.800 356.440,176.800 356.000 C 176.800 355.560,176.980 355.200,177.200 355.200 C 177.420 355.200,177.600 354.930,177.600 354.600 C 177.600 354.270,177.780 354.000,178.000 354.000 C 178.220 354.000,178.400 353.651,178.400 353.224 C 178.400 352.797,178.580 352.336,178.800 352.200 C 179.020 352.064,179.200 351.603,179.200 351.176 C 179.200 350.749,179.380 350.400,179.600 350.400 C 179.820 350.400,180.000 350.040,180.000 349.600 C 180.000 349.160,180.180 348.800,180.400 348.800 C 180.620 348.800,180.800 348.260,180.800 347.600 C 180.800 346.940,180.980 346.400,181.200 346.400 C 181.420 346.400,181.600 345.860,181.600 345.200 C 181.600 344.540,181.780 344.000,182.000 344.000 C 182.220 344.000,182.400 343.381,182.400 342.624 C 182.400 341.867,182.580 341.136,182.800 341.000 C 183.020 340.864,183.200 340.133,183.200 339.376 C 183.200 338.619,183.380 338.000,183.600 338.000 C 183.820 338.000,184.000 337.766,184.000 337.480 C 184.000 336.744,184.941 334.807,185.300 334.803 C 185.465 334.801,185.600 334.514,185.600 334.165 C 185.600 333.403,189.878 329.200,190.654 329.200 C 190.954 329.200,191.200 329.020,191.200 328.800 C 191.200 328.580,191.470 328.400,191.800 328.400 C 192.130 328.400,192.400 328.220,192.400 328.000 C 192.400 327.780,192.940 327.600,193.600 327.600 C 194.260 327.600,194.800 327.420,194.800 327.200 C 194.800 326.980,195.419 326.800,196.176 326.800 C 196.933 326.800,197.664 326.620,197.800 326.400 C 197.936 326.180,198.577 326.000,199.224 326.000 C 199.871 326.000,200.400 325.844,200.400 325.654 C 200.400 325.464,201.206 325.198,202.191 325.063 C 203.176 324.928,204.301 324.653,204.691 324.453 C 205.081 324.252,206.300 323.663,207.400 323.144 C 208.500 322.625,209.460 322.065,209.533 321.900 C 209.607 321.735,210.012 321.600,210.433 321.600 C 210.855 321.600,211.200 321.420,211.200 321.200 C 211.200 320.980,211.560 320.800,212.000 320.800 C 212.440 320.800,212.800 320.620,212.800 320.400 C 212.800 320.180,213.120 320.000,213.512 320.000 C 213.903 320.000,214.483 319.640,214.800 319.200 C 215.117 318.760,215.697 318.400,216.088 318.400 C 216.480 318.400,216.800 318.250,216.800 318.068 C 216.800 317.885,217.295 317.481,217.900 317.170 C 218.505 316.860,219.291 316.289,219.647 315.903 C 220.003 315.516,220.490 315.200,220.730 315.200 C 220.970 315.200,222.233 314.120,223.536 312.800 C 224.840 311.480,226.063 310.396,226.253 310.391 C 226.444 310.387,227.140 309.740,227.800 308.953 C 228.460 308.167,229.945 306.527,231.100 305.308 C 232.255 304.090,233.200 302.935,233.200 302.743 C 233.200 302.550,233.740 301.828,234.400 301.137 C 235.060 300.446,235.600 299.638,235.600 299.341 C 235.600 299.043,235.780 298.800,236.000 298.800 C 236.220 298.800,236.400 298.564,236.400 298.275 C 236.400 297.987,236.760 297.364,237.200 296.892 C 237.640 296.420,238.000 295.756,238.000 295.417 C 238.000 295.078,238.180 294.800,238.400 294.800 C 238.620 294.800,238.800 294.440,238.800 294.000 C 238.800 293.560,238.980 293.200,239.200 293.200 C 239.420 293.200,239.600 292.840,239.600 292.400 C 239.600 291.960,239.738 291.600,239.906 291.600 C 240.277 291.600,241.600 288.631,241.600 287.797 C 241.600 287.469,241.780 287.200,242.000 287.200 C 242.220 287.200,242.400 286.660,242.400 286.000 C 242.400 285.340,242.580 284.800,242.800 284.800 C 243.020 284.800,243.200 284.260,243.200 283.600 C 243.200 282.940,243.380 282.400,243.600 282.400 C 243.820 282.400,244.000 281.860,244.000 281.200 C 244.000 280.540,244.180 280.000,244.400 280.000 C 244.620 280.000,244.800 279.280,244.800 278.400 C 244.800 277.520,244.980 276.800,245.200 276.800 C 245.420 276.800,245.600 276.476,245.600 276.080 C 245.600 275.186,246.494 273.207,246.900 273.203 C 247.065 273.201,247.200 272.954,247.200 272.654 C 247.200 271.878,251.403 267.600,252.165 267.600 C 252.514 267.600,252.801 267.465,252.803 267.300 C 252.807 266.941,254.744 266.000,255.480 266.000 C 255.766 266.000,256.000 265.820,256.000 265.600 C 256.000 265.380,256.630 265.200,257.400 265.200 C 258.170 265.200,258.800 265.020,258.800 264.800 C 258.800 264.580,259.520 264.400,260.400 264.400 C 261.280 264.400,262.000 264.220,262.000 264.000 C 262.000 263.780,262.540 263.600,263.200 263.600 C 263.860 263.600,264.400 263.420,264.400 263.200 C 264.400 262.980,264.940 262.800,265.600 262.800 C 266.260 262.800,266.800 262.620,266.800 262.400 C 266.800 262.180,267.160 262.000,267.600 262.000 C 268.040 262.000,268.400 261.820,268.400 261.600 C 268.400 261.380,268.749 261.200,269.176 261.200 C 269.603 261.200,270.064 261.020,270.200 260.800 C 270.336 260.580,270.797 260.400,271.224 260.400 C 271.651 260.400,272.000 260.262,272.000 260.094 C 272.000 259.773,274.920 258.400,275.603 258.400 C 275.821 258.400,276.000 258.242,276.000 258.049 C 276.000 257.855,276.540 257.473,277.200 257.200 C 277.860 256.927,278.400 256.545,278.400 256.351 C 278.400 256.158,278.625 256.000,278.900 255.999 C 279.175 255.999,280.030 255.459,280.800 254.800 C 281.570 254.141,282.326 253.601,282.480 253.601 C 282.997 253.599,296.984 240.015,298.900 237.654 C 299.690 236.680,299.952 230.000,299.200 230.000 C 298.980 230.000,298.800 229.798,298.800 229.552 C 298.800 229.305,292.522 222.825,284.848 215.152 C 277.175 207.478,270.695 201.200,270.448 201.200 C 270.202 201.200,270.000 201.020,270.000 200.800 C 270.000 200.290,263.148 200.302,262.600 200.813 M275.500 224.517 C 280.175 229.200,284.000 233.309,284.000 233.648 C 284.000 234.736,272.160 245.600,270.973 245.600 C 270.836 245.600,270.191 245.979,269.540 246.443 C 266.658 248.495,259.807 251.273,254.400 252.583 C 243.600 255.199,235.751 262.761,232.792 273.400 C 230.931 280.094,230.217 282.015,227.888 286.600 C 226.712 288.916,223.744 293.589,223.190 294.000 C 223.041 294.110,222.848 294.403,222.760 294.652 C 222.411 295.637,217.261 301.025,214.610 303.177 C 207.538 308.920,201.225 312.139,192.600 314.400 C 186.098 316.105,175.200 323.218,175.200 325.758 C 175.200 325.922,174.692 326.808,174.071 327.728 C 173.449 328.648,172.553 330.390,172.079 331.600 C 171.318 333.542,170.923 334.852,169.613 339.800 C 168.450 344.189,166.174 348.972,162.920 353.866 C 160.450 357.581,152.634 366.000,151.655 366.000 C 150.840 366.000,134.000 349.221,134.000 348.409 C 134.000 348.080,135.225 346.638,136.723 345.205 C 141.434 340.697,144.132 336.327,145.554 330.900 C 145.799 329.965,146.201 328.435,146.446 327.500 C 146.691 326.565,147.033 325.440,147.207 325.000 C 147.380 324.560,147.936 323.120,148.442 321.800 C 152.956 310.022,162.862 299.475,174.861 293.673 C 176.764 292.753,178.522 292.000,178.766 292.000 C 179.011 292.000,179.523 291.841,179.905 291.647 C 181.151 291.013,182.567 290.500,184.400 290.018 C 196.599 286.808,204.293 279.912,207.179 269.600 C 207.457 268.610,207.845 267.387,208.042 266.881 C 208.239 266.376,208.400 265.608,208.400 265.176 C 208.400 264.743,208.580 264.032,208.800 263.595 C 209.020 263.158,209.380 262.442,209.600 262.005 C 209.820 261.568,210.000 261.011,210.000 260.766 C 210.000 257.063,220.126 243.179,226.400 238.279 C 230.813 234.833,240.219 229.600,242.001 229.600 C 242.226 229.600,242.723 229.438,243.105 229.239 C 243.487 229.040,244.520 228.695,245.400 228.472 C 250.850 227.089,251.037 227.026,254.551 225.387 C 257.297 224.107,260.465 221.618,263.525 218.335 C 266.456 215.191,265.909 214.908,275.500 224.517 M59.200 218.800 C 59.200 219.020,58.880 219.200,58.488 219.200 C 58.097 219.200,57.517 219.560,57.200 220.000 C 56.883 220.440,56.343 220.800,56.000 220.800 C 55.657 220.800,55.117 221.160,54.800 221.600 C 54.483 222.040,53.943 222.400,53.600 222.400 C 53.257 222.400,52.717 222.760,52.400 223.200 C 52.083 223.640,51.586 224.000,51.295 224.000 C 51.004 224.000,50.549 224.182,50.283 224.405 C 49.217 225.297,44.314 228.400,43.969 228.400 C 43.766 228.400,43.600 228.550,43.600 228.732 C 43.600 228.915,43.105 229.319,42.500 229.630 C 41.895 229.940,41.109 230.511,40.753 230.897 C 40.397 231.284,39.852 231.600,39.541 231.600 C 39.231 231.600,38.717 231.960,38.400 232.400 C 38.083 232.840,37.543 233.200,37.200 233.200 C 36.857 233.200,36.317 233.560,36.000 234.000 C 35.683 234.440,35.143 234.800,34.800 234.800 C 34.457 234.800,33.917 235.160,33.600 235.600 C 33.283 236.040,32.743 236.400,32.400 236.400 C 32.057 236.400,31.517 236.760,31.200 237.200 C 30.883 237.640,30.369 238.000,30.059 238.000 C 29.748 238.000,29.203 238.316,28.847 238.703 C 28.491 239.089,27.705 239.660,27.100 239.970 C 26.495 240.281,26.000 240.685,26.000 240.868 C 26.000 241.050,25.730 241.200,25.400 241.200 C 25.070 241.200,24.800 241.358,24.800 241.551 C 24.800 241.745,24.245 242.133,23.566 242.414 C 22.887 242.695,22.122 243.124,21.866 243.368 C 21.610 243.611,20.905 244.127,20.300 244.514 C 19.695 244.902,19.200 245.484,19.200 245.809 C 19.200 246.134,19.020 246.400,18.800 246.400 C 18.536 246.400,18.400 258.267,18.400 281.200 C 18.400 300.340,18.537 316.000,18.705 316.000 C 18.873 316.000,19.188 316.405,19.405 316.900 C 19.622 317.395,20.205 317.978,20.700 318.195 C 21.195 318.412,21.600 318.727,21.600 318.895 C 21.600 319.063,23.130 319.200,25.000 319.200 C 27.000 319.200,28.400 319.035,28.400 318.800 C 28.400 318.580,28.720 318.400,29.112 318.400 C 29.503 318.400,30.083 318.040,30.400 317.600 C 30.717 317.160,31.257 316.800,31.600 316.800 C 31.943 316.800,32.483 316.440,32.800 316.000 C 33.117 315.560,33.657 315.200,34.000 315.200 C 34.343 315.200,34.883 314.840,35.200 314.400 C 35.517 313.960,36.031 313.600,36.341 313.600 C 36.652 313.600,37.197 313.284,37.553 312.897 C 37.909 312.511,38.695 311.940,39.300 311.630 C 39.905 311.319,40.400 310.915,40.400 310.732 C 40.400 310.550,40.630 310.400,40.912 310.400 C 41.193 310.400,41.683 310.040,42.000 309.600 C 42.317 309.160,42.884 308.800,43.260 308.800 C 43.635 308.800,44.181 308.575,44.471 308.300 C 44.762 308.025,45.495 307.545,46.100 307.232 C 46.705 306.920,47.200 306.515,47.200 306.332 C 47.200 306.150,47.436 306.000,47.725 306.000 C 48.013 306.000,48.598 305.685,49.025 305.300 C 49.451 304.915,50.295 304.345,50.900 304.032 C 51.505 303.720,52.000 303.315,52.000 303.132 C 52.000 302.950,52.236 302.800,52.525 302.800 C 52.813 302.800,53.398 302.485,53.825 302.100 C 54.251 301.715,55.095 301.145,55.700 300.832 C 56.305 300.520,56.800 300.115,56.800 299.932 C 56.800 299.750,57.030 299.600,57.312 299.600 C 57.593 299.600,58.083 299.240,58.400 298.800 C 58.717 298.360,59.257 298.000,59.600 298.000 C 59.943 298.000,60.483 297.640,60.800 297.200 C 61.117 296.760,61.657 296.400,62.000 296.400 C 62.343 296.400,62.883 296.040,63.200 295.600 C 63.517 295.160,64.031 294.800,64.341 294.800 C 64.652 294.800,65.197 294.484,65.553 294.097 C 65.909 293.711,66.650 293.164,67.200 292.882 C 69.244 291.834,69.200 292.647,69.200 255.920 C 69.200 237.044,69.063 221.600,68.895 221.600 C 68.727 221.600,68.412 221.195,68.195 220.700 C 67.978 220.205,67.395 219.622,66.900 219.405 C 66.405 219.188,66.000 218.873,66.000 218.705 C 66.000 218.537,64.470 218.400,62.600 218.400 C 60.600 218.400,59.200 218.565,59.200 218.800 M56.393 260.724 L 56.386 284.600 54.293 285.995 C 53.142 286.762,51.705 287.640,51.100 287.945 C 50.495 288.250,50.000 288.657,50.000 288.850 C 50.000 289.042,49.758 289.200,49.462 289.200 C 49.166 289.200,48.598 289.560,48.200 290.000 C 47.802 290.440,47.234 290.800,46.938 290.800 C 46.642 290.800,46.400 290.980,46.400 291.200 C 46.400 291.420,46.175 291.600,45.900 291.600 C 45.625 291.601,44.877 292.051,44.238 292.600 C 43.599 293.150,42.936 293.600,42.766 293.600 C 42.596 293.600,42.195 293.862,41.875 294.182 C 41.555 294.502,40.748 295.087,40.083 295.482 C 39.418 295.877,37.329 297.235,35.441 298.500 C 33.552 299.765,31.826 300.800,31.604 300.800 C 31.336 300.800,31.205 292.722,31.214 276.900 L 31.227 253.000 36.982 249.100 C 40.147 246.955,42.930 245.200,43.168 245.200 C 43.406 245.200,43.600 245.050,43.600 244.868 C 43.600 244.685,44.092 244.280,44.694 243.968 C 45.296 243.655,46.061 243.175,46.394 242.900 C 48.108 241.484,55.841 236.523,56.100 236.673 C 56.265 236.769,56.397 247.592,56.393 260.724 M106.800 256.400 C 106.800 256.620,106.260 256.800,105.600 256.800 C 104.940 256.800,104.400 256.980,104.400 257.200 C 104.400 257.420,104.040 257.600,103.600 257.600 C 103.160 257.600,102.800 257.760,102.800 257.957 C 102.800 258.153,102.378 258.419,101.862 258.549 C 100.835 258.806,96.921 262.464,96.062 263.968 C 94.300 267.055,94.000 267.698,94.000 268.389 C 94.000 268.809,93.820 269.264,93.600 269.400 C 93.366 269.545,93.200 271.863,93.200 275.000 C 93.200 278.137,93.366 280.455,93.600 280.600 C 93.820 280.736,94.000 281.191,94.000 281.611 C 94.000 283.952,100.191 291.600,102.085 291.600 C 102.478 291.600,102.800 291.780,102.800 292.000 C 102.800 292.220,103.160 292.400,103.600 292.400 C 104.040 292.400,104.400 292.580,104.400 292.800 C 104.400 293.020,104.940 293.200,105.600 293.200 C 106.260 293.200,106.800 293.380,106.800 293.600 C 106.800 293.848,109.000 294.000,112.600 294.000 C 116.200 294.000,118.400 293.848,118.400 293.600 C 118.400 293.380,118.940 293.200,119.600 293.200 C 120.260 293.200,120.800 293.020,120.800 292.800 C 120.800 292.580,121.160 292.400,121.600 292.400 C 122.040 292.400,122.400 292.220,122.400 292.000 C 122.400 291.780,122.688 291.600,123.041 291.600 C 123.817 291.600,129.200 286.144,129.200 285.358 C 129.200 285.051,129.380 284.800,129.600 284.800 C 129.820 284.800,130.000 284.440,130.000 284.000 C 130.000 283.560,130.180 283.200,130.400 283.200 C 130.620 283.200,130.800 282.660,130.800 282.000 C 130.800 281.340,130.980 280.800,131.200 280.800 C 131.448 280.800,131.600 278.600,131.600 275.000 C 131.600 271.400,131.448 269.200,131.200 269.200 C 130.980 269.200,130.800 268.660,130.800 268.000 C 130.800 267.340,130.620 266.800,130.400 266.800 C 130.180 266.800,130.000 266.440,130.000 266.000 C 130.000 265.560,129.820 265.200,129.600 265.200 C 129.380 265.200,129.200 264.936,129.200 264.614 C 129.200 263.869,123.706 258.400,122.958 258.400 C 122.651 258.400,122.400 258.220,122.400 258.000 C 122.400 257.780,122.040 257.600,121.600 257.600 C 121.160 257.600,120.800 257.420,120.800 257.200 C 120.800 256.980,120.260 256.800,119.600 256.800 C 118.940 256.800,118.400 256.620,118.400 256.400 C 118.400 256.152,116.200 256.000,112.600 256.000 C 109.000 256.000,106.800 256.152,106.800 256.400 M340.400 262.400 C 340.400 262.620,340.080 262.800,339.688 262.800 C 339.297 262.800,338.717 263.160,338.400 263.600 C 338.083 264.040,337.543 264.400,337.200 264.400 C 336.857 264.400,336.317 264.760,336.000 265.200 C 335.683 265.640,335.143 266.000,334.800 266.000 C 334.457 266.000,333.917 266.360,333.600 266.800 C 333.283 267.240,332.743 267.600,332.400 267.600 C 332.057 267.600,331.517 267.960,331.200 268.400 C 330.883 268.840,330.369 269.200,330.059 269.200 C 329.748 269.200,329.203 269.516,328.847 269.903 C 328.491 270.289,327.705 270.860,327.100 271.170 C 326.495 271.481,326.000 271.885,326.000 272.068 C 326.000 272.250,325.770 272.400,325.488 272.400 C 325.207 272.400,324.717 272.760,324.400 273.200 C 324.083 273.640,323.503 274.000,323.112 274.000 C 322.720 274.000,322.400 274.153,322.400 274.339 C 322.400 274.526,321.680 275.003,320.800 275.400 C 319.920 275.797,319.200 276.274,319.200 276.461 C 319.200 276.647,318.964 276.800,318.675 276.800 C 318.387 276.800,317.802 277.115,317.375 277.500 C 316.949 277.885,316.105 278.455,315.500 278.768 C 314.895 279.080,314.400 279.485,314.400 279.668 C 314.400 279.850,314.164 280.000,313.875 280.000 C 313.587 280.000,312.964 280.360,312.492 280.800 C 312.020 281.240,311.474 281.600,311.279 281.600 C 311.084 281.600,310.598 281.960,310.200 282.400 C 309.802 282.840,309.274 283.200,309.026 283.200 C 308.779 283.200,308.317 283.560,308.000 284.000 C 307.683 284.440,307.143 284.800,306.800 284.800 C 306.457 284.800,305.917 285.160,305.600 285.600 C 305.283 286.040,304.769 286.400,304.459 286.400 C 304.148 286.400,303.603 286.716,303.247 287.103 C 302.891 287.489,302.105 288.060,301.500 288.370 C 300.895 288.681,300.400 289.265,300.400 289.668 C 300.400 290.070,300.220 290.400,300.000 290.400 C 299.736 290.400,299.600 302.200,299.600 325.000 C 299.600 344.030,299.736 359.600,299.902 359.600 C 300.069 359.600,300.444 360.140,300.736 360.800 C 301.059 361.531,301.567 362.000,302.034 362.000 C 302.455 362.000,302.800 362.180,302.800 362.400 C 302.800 362.635,304.200 362.800,306.200 362.800 C 308.200 362.800,309.600 362.635,309.600 362.400 C 309.600 362.180,309.920 362.000,310.312 362.000 C 310.703 362.000,311.283 361.640,311.600 361.200 C 311.917 360.760,312.457 360.400,312.800 360.400 C 313.143 360.400,313.683 360.040,314.000 359.600 C 314.317 359.160,314.869 358.800,315.227 358.800 C 315.585 358.800,316.287 358.445,316.786 358.012 C 317.286 357.578,318.034 357.116,318.448 356.985 C 318.861 356.854,319.200 356.578,319.200 356.373 C 319.200 356.168,319.436 356.000,319.725 356.000 C 320.013 356.000,320.636 355.640,321.108 355.200 C 321.580 354.760,322.126 354.400,322.321 354.400 C 322.516 354.400,323.002 354.040,323.400 353.600 C 323.798 353.160,324.326 352.800,324.574 352.800 C 324.821 352.800,325.283 352.440,325.600 352.000 C 325.917 351.560,326.457 351.200,326.800 351.200 C 327.143 351.200,327.683 350.840,328.000 350.400 C 328.317 349.960,328.857 349.600,329.200 349.600 C 329.543 349.600,330.083 349.240,330.400 348.800 C 330.717 348.360,331.257 348.000,331.600 348.000 C 331.943 348.000,332.483 347.640,332.800 347.200 C 333.117 346.760,333.657 346.400,334.000 346.400 C 334.343 346.400,334.883 346.040,335.200 345.600 C 335.517 345.160,336.057 344.800,336.400 344.800 C 336.743 344.800,337.283 344.440,337.600 344.000 C 337.917 343.560,338.431 343.200,338.741 343.200 C 339.052 343.200,339.597 342.866,339.953 342.457 C 340.309 342.049,341.005 341.587,341.500 341.430 C 341.995 341.274,342.400 340.978,342.400 340.773 C 342.400 340.568,342.636 340.400,342.925 340.400 C 343.213 340.400,343.836 340.040,344.308 339.600 C 344.780 339.160,345.378 338.800,345.636 338.800 C 345.895 338.800,346.397 338.480,346.753 338.090 C 347.109 337.699,347.895 337.065,348.500 336.680 C 349.105 336.296,349.600 335.716,349.600 335.391 C 349.600 335.066,349.780 334.800,350.000 334.800 C 350.264 334.800,350.400 322.933,350.400 300.000 C 350.400 277.067,350.264 265.200,350.000 265.200 C 349.780 265.200,349.600 265.022,349.600 264.805 C 349.600 264.196,348.285 262.800,347.711 262.800 C 347.430 262.800,347.200 262.620,347.200 262.400 C 347.200 262.165,345.800 262.000,343.800 262.000 C 341.800 262.000,340.400 262.165,340.400 262.400 M115.598 269.647 C 121.201 272.796,118.812 281.204,112.316 281.199 C 108.898 281.196,106.403 278.580,106.403 275.000 C 106.403 270.073,111.292 267.227,115.598 269.647 M337.600 304.301 L 337.600 328.202 325.249 336.483 C 318.456 341.038,312.786 344.653,312.649 344.516 C 312.512 344.379,312.400 333.580,312.400 320.518 L 312.400 296.768 324.700 288.613 C 331.465 284.127,337.135 280.444,337.300 280.428 C 337.465 280.413,337.600 291.155,337.600 304.301 M60.103 325.564 C 56.942 326.731,54.586 327.984,52.890 329.400 C 50.301 331.562,47.706 334.438,46.832 336.112 C 46.520 336.711,46.115 337.200,45.932 337.200 C 45.750 337.200,45.600 337.560,45.600 338.000 C 45.600 338.440,45.420 338.800,45.200 338.800 C 44.980 338.800,44.800 339.340,44.800 340.000 C 44.800 340.660,44.620 341.200,44.400 341.200 C 44.180 341.200,44.000 341.639,44.000 342.176 C 44.000 342.713,43.820 343.264,43.600 343.400 C 43.361 343.548,43.200 346.196,43.200 350.000 C 43.200 353.804,43.361 356.452,43.600 356.600 C 43.820 356.736,44.000 357.276,44.000 357.800 C 44.000 358.324,44.180 358.864,44.400 359.000 C 44.620 359.136,44.800 359.687,44.800 360.224 C 44.800 360.761,44.980 361.200,45.200 361.200 C 45.420 361.200,45.600 361.560,45.600 362.000 C 45.600 362.440,45.751 362.800,45.936 362.800 C 46.120 362.800,46.470 363.236,46.713 363.768 C 47.977 366.544,53.092 371.240,56.800 373.030 C 61.022 375.068,60.595 375.000,69.115 375.000 C 74.293 375.000,77.333 374.849,77.515 374.583 C 77.672 374.354,78.560 373.922,79.490 373.623 C 80.419 373.324,81.536 372.746,81.973 372.339 C 82.409 371.933,82.951 371.600,83.176 371.600 C 84.175 371.600,90.379 365.301,90.395 364.271 C 90.398 364.091,90.670 363.673,91.000 363.343 C 91.330 363.013,91.600 362.396,91.600 361.971 C 91.600 361.547,91.780 361.200,92.000 361.200 C 92.220 361.200,92.400 360.660,92.400 360.000 C 92.400 359.340,92.580 358.800,92.800 358.800 C 93.020 358.800,93.200 358.361,93.200 357.824 C 93.200 357.287,93.380 356.736,93.600 356.600 C 93.839 356.452,94.000 353.804,94.000 350.000 C 94.000 346.196,93.839 343.548,93.600 343.400 C 93.380 343.264,93.200 342.713,93.200 342.176 C 93.200 341.639,93.020 341.200,92.800 341.200 C 92.580 341.200,92.400 340.660,92.400 340.000 C 92.400 339.340,92.220 338.800,92.000 338.800 C 91.780 338.800,91.600 338.453,91.600 338.029 C 91.600 337.604,91.330 336.987,91.000 336.657 C 90.670 336.327,90.400 335.870,90.400 335.642 C 90.400 335.066,83.801 328.400,83.231 328.400 C 82.975 328.400,82.409 328.067,81.973 327.661 C 81.536 327.254,80.419 326.682,79.490 326.389 C 78.560 326.096,77.548 325.663,77.239 325.428 C 76.120 324.574,62.492 324.682,60.103 325.564 M74.181 338.573 C 83.363 343.066,83.990 355.546,75.303 360.915 C 66.985 366.057,56.000 359.845,56.000 350.000 C 56.000 340.784,65.936 334.539,74.181 338.573 M244.200 337.600 C 244.064 337.820,243.513 338.000,242.976 338.000 C 242.439 338.000,242.000 338.180,242.000 338.400 C 242.000 338.620,241.640 338.800,241.200 338.800 C 240.760 338.800,240.400 338.980,240.400 339.200 C 240.400 339.420,240.124 339.600,239.787 339.600 C 239.449 339.600,238.562 340.185,237.814 340.900 C 237.067 341.615,235.908 342.650,235.240 343.200 C 234.571 343.750,234.019 344.391,234.012 344.625 C 234.005 344.858,233.640 345.436,233.200 345.908 C 232.760 346.380,232.400 347.044,232.400 347.383 C 232.400 347.722,232.220 348.000,232.000 348.000 C 231.780 348.000,231.600 348.540,231.600 349.200 C 231.600 349.860,231.420 350.400,231.200 350.400 C 230.952 350.400,230.800 352.600,230.800 356.200 C 230.800 359.800,230.952 362.000,231.200 362.000 C 231.420 362.000,231.600 362.540,231.600 363.200 C 231.600 363.860,231.780 364.400,232.000 364.400 C 232.220 364.400,232.400 364.760,232.400 365.200 C 232.400 365.640,232.550 366.000,232.732 366.000 C 232.915 366.000,233.320 366.492,233.632 367.094 C 234.291 368.363,237.808 371.935,239.228 372.776 C 242.955 374.984,243.034 375.000,250.200 375.000 C 256.450 375.000,257.117 374.930,258.445 374.138 C 259.240 373.663,260.313 373.033,260.830 372.738 C 262.216 371.944,266.800 367.196,266.800 366.554 C 266.800 366.249,266.980 366.000,267.200 366.000 C 267.420 366.000,267.600 365.640,267.600 365.200 C 267.600 364.760,267.780 364.400,268.000 364.400 C 268.220 364.400,268.400 363.860,268.400 363.200 C 268.400 362.540,268.580 362.000,268.800 362.000 C 269.048 362.000,269.200 359.800,269.200 356.200 C 269.200 352.600,269.048 350.400,268.800 350.400 C 268.580 350.400,268.400 349.860,268.400 349.200 C 268.400 348.540,268.220 348.000,268.000 348.000 C 267.780 348.000,267.600 347.640,267.600 347.200 C 267.600 346.760,267.420 346.400,267.200 346.400 C 266.980 346.400,266.800 346.130,266.800 345.800 C 266.800 345.470,266.620 345.200,266.400 345.200 C 266.180 345.200,265.995 344.975,265.988 344.700 C 265.981 344.425,265.429 343.750,264.760 343.200 C 264.092 342.650,262.933 341.615,262.186 340.900 C 261.438 340.185,260.551 339.600,260.213 339.600 C 259.876 339.600,259.600 339.420,259.600 339.200 C 259.600 338.980,259.240 338.800,258.800 338.800 C 258.360 338.800,258.000 338.620,258.000 338.400 C 258.000 338.180,257.550 338.000,257.000 338.000 C 256.450 338.000,256.000 337.820,256.000 337.600 C 256.000 337.352,253.808 337.200,250.224 337.200 C 246.804 337.200,244.346 337.363,244.200 337.600 M254.219 351.212 C 258.684 355.384,255.984 362.800,250.000 362.800 C 243.615 362.800,241.098 354.161,246.496 350.775 C 248.414 349.572,252.724 349.816,254.219 351.212 " stroke="none" fill="#040404" fill-rule="evenodd"></path><path id="path4" d="M83.400 33.590 C 82.080 33.984,77.760 35.157,73.800 36.197 C 62.933 39.051,63.892 38.640,64.117 40.344 C 64.223 41.145,64.776 43.600,65.345 45.800 C 65.992 48.302,66.383 50.906,66.389 52.754 C 66.400 55.651,66.275 56.347,64.801 61.600 C 59.227 81.461,64.262 100.548,78.998 115.429 C 87.747 124.263,90.756 133.954,87.967 144.307 C 85.852 152.158,85.578 153.649,85.341 158.600 C 84.883 168.157,87.029 178.056,91.323 186.200 C 91.787 187.080,92.354 188.204,92.583 188.697 C 92.813 189.190,93.135 189.595,93.300 189.597 C 93.465 189.599,93.600 189.801,93.600 190.047 C 93.600 190.857,97.875 196.145,101.000 199.200 C 107.135 205.198,109.153 208.695,111.275 217.000 C 111.499 217.880,111.850 219.025,112.053 219.544 C 112.475 220.621,111.994 220.672,119.000 218.797 C 121.640 218.090,124.520 217.343,125.400 217.137 C 126.280 216.931,128.170 216.427,129.600 216.016 C 131.030 215.606,133.254 214.974,134.542 214.612 C 136.619 214.028,136.861 213.854,136.675 213.077 C 134.242 202.887,129.474 191.780,126.424 189.200 C 126.294 189.090,125.672 188.370,125.042 187.600 C 124.412 186.830,122.227 184.460,120.187 182.333 C 111.704 173.490,109.146 163.943,112.219 152.600 C 115.028 142.234,115.228 132.831,112.826 124.000 C 112.616 123.230,112.276 121.970,112.069 121.200 C 111.355 118.545,110.908 117.427,108.787 113.000 C 107.839 111.020,106.914 109.340,106.731 109.267 C 106.549 109.193,106.399 108.923,106.398 108.667 C 106.395 107.795,101.577 101.817,97.480 97.600 C 93.594 93.599,92.224 91.860,91.729 90.300 C 91.607 89.915,91.348 89.600,91.153 89.600 C 90.959 89.600,90.800 89.276,90.800 88.880 C 90.800 88.484,90.651 87.989,90.470 87.780 C 90.288 87.571,89.913 86.590,89.637 85.600 C 89.360 84.610,88.956 83.170,88.740 82.400 C 88.222 80.563,88.523 71.445,89.169 69.400 C 89.447 68.520,89.768 67.213,89.881 66.496 C 89.995 65.779,90.249 65.094,90.444 64.973 C 90.640 64.852,90.800 64.235,90.800 63.602 C 90.800 62.970,90.993 61.945,91.229 61.326 C 91.823 59.770,91.804 46.572,91.205 43.918 C 90.262 39.740,89.600 37.158,88.790 34.500 C 88.182 32.504,87.456 32.381,83.400 33.590 M88.000 33.380 C 88.000 33.480,88.287 34.605,88.639 35.880 C 90.536 42.773,90.862 44.846,91.078 51.400 C 91.312 58.510,90.746 62.467,88.533 69.200 C 86.709 74.750,88.165 86.538,91.201 90.802 C 91.641 91.419,92.000 92.101,92.000 92.319 C 92.000 92.537,94.178 95.008,96.841 97.810 C 104.629 106.008,108.490 111.969,110.825 119.400 C 111.309 120.940,111.849 122.560,112.025 123.000 C 112.201 123.440,112.455 124.430,112.588 125.200 C 112.721 125.970,113.015 127.500,113.241 128.600 C 114.320 133.860,114.108 142.715,112.772 148.100 C 111.959 151.378,111.487 153.053,111.054 154.200 C 110.401 155.928,110.467 166.160,111.146 168.400 C 113.057 174.705,115.165 178.071,120.872 183.928 C 127.786 191.023,131.484 197.204,134.198 206.200 C 136.122 212.574,136.177 213.657,134.600 214.036 C 133.940 214.194,132.410 214.598,131.200 214.933 C 127.460 215.968,121.191 217.659,116.920 218.785 L 112.840 219.861 112.476 218.831 C 112.006 217.500,111.423 215.505,110.773 213.000 C 109.623 208.571,107.342 204.974,102.548 200.031 C 96.785 194.089,94.294 190.771,91.849 185.781 C 89.149 180.270,89.096 180.128,87.602 174.500 C 85.956 168.298,85.395 157.847,86.432 152.731 C 87.058 149.641,88.126 145.670,88.932 143.434 C 89.482 141.907,89.475 132.466,88.922 130.966 C 88.686 130.325,88.251 128.990,87.956 128.000 C 86.484 123.063,84.385 119.939,78.818 114.400 C 68.546 104.180,63.452 91.745,63.416 76.800 C 63.399 69.846,63.634 68.169,65.653 60.831 C 67.203 55.196,67.232 50.509,65.750 44.944 C 65.172 42.775,64.620 40.638,64.522 40.196 C 64.373 39.526,64.666 39.301,66.272 38.853 C 67.332 38.557,68.830 38.138,69.600 37.921 C 70.370 37.705,71.540 37.388,72.200 37.218 C 72.860 37.048,74.120 36.710,75.000 36.467 C 75.880 36.225,78.850 35.406,81.600 34.648 C 86.442 33.312,88.000 33.004,88.000 33.380 M332.200 63.420 C 330.040 64.499,326.934 67.534,326.053 69.426 C 325.753 70.072,325.348 70.913,325.153 71.295 C 324.959 71.677,324.800 73.344,324.800 75.000 C 324.800 76.656,324.959 78.323,325.153 78.705 C 325.348 79.087,325.752 79.940,326.053 80.600 C 329.462 88.093,339.734 90.008,346.164 84.348 C 352.618 78.667,351.071 67.281,343.352 63.649 C 342.719 63.351,341.887 62.948,341.505 62.753 C 339.948 61.961,334.311 62.365,332.200 63.420 M343.000 64.099 C 354.984 70.269,349.921 88.077,336.457 87.111 C 327.448 86.464,322.315 76.415,327.066 68.726 C 330.421 63.297,337.467 61.250,343.000 64.099 M155.505 68.683 C 156.002 68.779,156.722 68.775,157.105 68.675 C 157.487 68.575,157.080 68.496,156.200 68.501 C 155.320 68.505,155.007 68.587,155.505 68.683 M150.597 69.854 C 146.068 72.245,143.600 76.385,143.600 81.588 C 143.600 83.329,143.780 84.864,144.000 85.000 C 144.220 85.136,144.404 85.552,144.410 85.924 C 144.426 87.002,147.080 90.332,149.005 91.689 C 154.377 95.475,160.767 94.753,165.711 89.800 C 167.222 88.287,168.802 84.971,168.760 83.400 C 168.732 82.351,168.666 82.427,168.229 84.000 C 164.786 96.406,148.361 96.822,144.516 84.600 C 142.510 78.228,146.347 71.604,153.400 69.262 C 154.542 68.883,154.551 68.862,153.597 68.832 C 153.045 68.814,151.695 69.274,150.597 69.854 M159.825 69.547 C 164.150 71.023,167.032 74.040,168.212 78.324 C 168.624 79.819,168.736 79.972,168.764 79.075 C 168.890 75.130,162.692 68.762,158.800 68.837 C 158.100 68.850,158.408 69.064,159.825 69.547 M171.867 137.867 C 171.720 138.013,171.613 138.418,171.628 138.767 C 171.649 139.230,171.746 139.186,171.993 138.600 C 172.286 137.904,174.508 139.979,189.165 154.638 C 198.424 163.899,206.000 171.374,206.000 171.249 C 206.000 170.944,172.678 137.600,172.373 137.600 C 172.241 137.600,172.013 137.720,171.867 137.867 M171.049 140.215 C 170.912 140.573,170.820 141.436,170.844 142.133 C 170.882 143.237,170.933 143.171,171.236 141.625 C 171.593 139.805,171.494 139.057,171.049 140.215 M170.400 143.704 C 170.400 143.834,170.037 145.782,169.594 148.031 C 169.150 150.281,168.880 152.214,168.994 152.327 C 169.107 152.441,169.200 152.427,169.200 152.296 C 169.200 152.166,169.563 150.218,170.006 147.969 C 170.450 145.719,170.720 143.786,170.606 143.673 C 170.493 143.559,170.400 143.573,170.400 143.704 M168.240 154.840 C 168.093 155.757,168.052 156.585,168.147 156.680 C 168.242 156.776,168.446 156.110,168.600 155.200 C 168.754 154.290,168.796 153.462,168.693 153.360 C 168.590 153.257,168.387 153.923,168.240 154.840 M167.649 157.800 C 167.616 158.240,167.496 159.050,167.383 159.600 L 167.177 160.600 167.606 159.619 C 167.842 159.079,167.961 158.269,167.872 157.819 C 167.713 157.021,167.707 157.021,167.649 157.800 M166.640 162.840 C 166.493 163.757,166.452 164.585,166.547 164.680 C 166.642 164.776,166.846 164.110,167.000 163.200 C 167.154 162.290,167.196 161.462,167.093 161.360 C 166.990 161.257,166.787 161.923,166.640 162.840 M321.800 164.800 C 323.106 166.120,324.265 167.200,324.375 167.200 C 324.485 167.200,323.506 166.120,322.200 164.800 C 320.894 163.480,319.735 162.400,319.625 162.400 C 319.515 162.400,320.494 163.480,321.800 164.800 M166.060 166.402 C 166.007 167.285,198.707 200.800,199.622 200.800 C 199.742 200.800,192.325 193.299,183.140 184.131 C 171.453 172.466,166.392 167.152,166.280 166.431 L 166.120 165.400 166.060 166.402 M205.249 173.200 C 205.216 173.530,205.089 174.250,204.967 174.800 C 204.775 175.664,204.807 175.703,205.199 175.088 C 205.448 174.697,205.575 173.977,205.481 173.488 C 205.386 173.000,205.282 172.870,205.249 173.200 M204.449 177.200 C 204.416 177.530,204.289 178.250,204.167 178.800 C 203.975 179.664,204.007 179.703,204.399 179.088 C 204.648 178.697,204.775 177.977,204.681 177.488 C 204.586 177.000,204.482 176.870,204.449 177.200 M203.400 182.400 C 203.248 183.091,203.214 183.747,203.324 183.857 C 203.434 183.967,203.648 183.491,203.800 182.800 C 203.952 182.109,203.986 181.453,203.876 181.343 C 203.766 181.233,203.552 181.709,203.400 182.400 M202.622 186.222 C 202.472 187.025,202.428 187.762,202.526 187.860 C 202.624 187.957,202.827 187.381,202.978 186.578 C 203.128 185.775,203.172 185.038,203.074 184.940 C 202.976 184.843,202.773 185.419,202.622 186.222 M363.100 188.411 C 364.475 189.847,365.600 191.198,365.600 191.414 C 365.600 191.922,349.192 208.244,348.400 208.524 C 347.869 208.712,347.870 208.740,348.403 208.768 C 349.054 208.802,366.000 192.062,366.000 191.385 C 366.000 191.161,364.785 189.812,363.300 188.388 L 360.600 185.800 363.100 188.411 M201.800 190.400 C 201.646 191.310,201.604 192.138,201.707 192.240 C 201.810 192.343,202.013 191.677,202.160 190.760 C 202.307 189.843,202.348 189.015,202.253 188.920 C 202.158 188.824,201.954 189.490,201.800 190.400 M201.056 194.084 C 200.921 194.588,200.827 195.360,200.846 195.800 C 200.865 196.240,201.045 195.898,201.246 195.040 C 201.636 193.378,201.470 192.540,201.056 194.084 M200.178 198.178 C 200.027 198.981,199.994 199.727,200.104 199.837 C 200.214 199.947,200.427 199.381,200.578 198.578 C 200.728 197.775,200.762 197.028,200.652 196.918 C 200.542 196.808,200.328 197.375,200.178 198.178 M263.525 218.335 C 260.465 221.618,257.297 224.107,254.551 225.387 C 251.037 227.026,250.850 227.089,245.400 228.472 C 244.520 228.695,243.487 229.040,243.105 229.239 C 242.723 229.438,242.226 229.600,242.001 229.600 C 240.219 229.600,230.813 234.833,226.400 238.279 C 220.126 243.179,210.000 257.063,210.000 260.766 C 210.000 261.011,209.820 261.568,209.600 262.005 C 209.380 262.442,209.020 263.158,208.800 263.595 C 208.580 264.032,208.400 264.743,208.400 265.176 C 208.400 265.608,208.239 266.376,208.042 266.881 C 207.845 267.387,207.457 268.610,207.179 269.600 C 204.293 279.912,196.599 286.808,184.400 290.018 C 182.567 290.500,181.151 291.013,179.905 291.647 C 179.523 291.841,179.011 292.000,178.766 292.000 C 178.522 292.000,176.764 292.753,174.861 293.673 C 162.862 299.475,152.956 310.022,148.442 321.800 C 147.936 323.120,147.380 324.560,147.207 325.000 C 147.033 325.440,146.691 326.565,146.446 327.500 C 146.201 328.435,145.799 329.965,145.554 330.900 C 144.132 336.327,141.434 340.697,136.723 345.205 C 135.225 346.638,134.000 348.080,134.000 348.409 C 134.000 349.221,150.840 366.000,151.655 366.000 C 152.634 366.000,160.450 357.581,162.920 353.866 C 166.174 348.972,168.450 344.189,169.613 339.800 C 170.923 334.852,171.318 333.542,172.079 331.600 C 172.553 330.390,173.449 328.648,174.071 327.728 C 174.692 326.808,175.200 325.922,175.200 325.758 C 175.200 323.218,186.098 316.105,192.600 314.400 C 201.225 312.139,207.538 308.920,214.610 303.177 C 217.261 301.025,222.411 295.637,222.760 294.652 C 222.848 294.403,223.041 294.110,223.190 294.000 C 223.744 293.589,226.712 288.916,227.888 286.600 C 230.217 282.015,230.931 280.094,232.792 273.400 C 235.751 262.761,243.600 255.199,254.400 252.583 C 259.807 251.273,266.658 248.495,269.540 246.443 C 270.191 245.979,270.836 245.600,270.973 245.600 C 272.160 245.600,284.000 234.736,284.000 233.648 C 284.000 232.823,267.177 216.002,266.351 216.001 C 265.994 216.000,264.722 217.051,263.525 218.335 M275.197 224.997 L 283.788 233.595 280.394 237.014 C 275.164 242.284,270.540 245.731,265.600 248.042 C 261.191 250.105,259.093 250.860,254.600 251.998 C 242.071 255.171,235.306 262.156,231.548 275.800 C 227.792 289.437,219.210 300.608,206.707 308.137 C 205.006 309.162,203.519 310.000,203.402 310.000 C 203.286 310.000,202.338 310.378,201.296 310.840 C 197.717 312.426,195.840 313.056,190.604 314.433 C 180.188 317.172,173.016 325.160,169.623 337.800 C 168.434 342.229,166.539 346.929,164.728 349.941 C 163.888 351.338,163.200 352.582,163.200 352.704 C 163.200 353.615,152.400 365.600,151.580 365.600 C 151.216 365.600,134.400 348.836,134.400 348.473 C 134.400 348.312,135.756 346.834,137.412 345.190 C 141.995 340.641,144.921 335.873,145.996 331.200 C 150.668 310.902,164.862 296.130,185.200 290.400 C 192.508 288.341,196.768 286.005,200.646 281.930 C 203.413 279.023,207.200 272.723,207.200 271.028 C 207.200 270.709,207.380 270.336,207.600 270.200 C 207.820 270.064,208.000 269.571,208.000 269.105 C 208.000 268.237,208.147 267.711,209.647 263.200 C 215.387 245.946,229.631 232.956,247.800 228.408 C 253.768 226.914,257.497 224.814,262.167 220.317 C 264.385 218.181,266.292 216.426,266.403 216.417 C 266.515 216.408,270.473 220.269,275.197 224.997 M50.800 239.871 C 48.050 241.753,46.083 243.199,46.430 243.086 C 46.776 242.972,49.051 241.521,51.485 239.861 C 53.918 238.201,56.049 236.968,56.219 237.122 C 56.389 237.275,56.399 237.175,56.241 236.900 C 55.887 236.286,56.647 235.871,50.800 239.871 M44.224 244.213 C 43.796 244.536,43.627 244.800,43.847 244.800 C 44.067 244.800,44.596 244.536,45.024 244.213 C 45.451 243.890,45.620 243.625,45.400 243.625 C 45.180 243.625,44.651 243.890,44.224 244.213 M36.819 249.217 C 33.639 251.408,31.169 253.200,31.329 253.200 C 31.619 253.200,42.251 246.218,42.980 245.549 C 44.413 244.234,41.756 245.816,36.819 249.217 M324.700 288.613 L 312.400 296.768 312.400 320.518 C 312.400 333.580,312.512 344.379,312.649 344.516 C 312.786 344.653,318.456 341.038,325.249 336.483 L 337.600 328.202 337.600 304.301 C 337.600 291.155,337.465 280.413,337.300 280.428 C 337.135 280.444,331.465 284.127,324.700 288.613 M337.185 304.500 L 337.171 327.800 325.556 335.600 C 319.168 339.890,313.684 343.544,313.371 343.720 C 312.879 343.995,312.800 340.781,312.800 320.603 L 312.800 297.167 324.885 289.183 C 331.531 284.793,337.021 281.200,337.085 281.200 C 337.148 281.200,337.193 291.685,337.185 304.500 M53.904 285.739 C 52.642 286.621,51.679 287.413,51.765 287.499 C 51.885 287.619,54.261 286.083,56.367 284.523 C 56.458 284.456,56.458 284.341,56.367 284.268 C 56.275 284.195,55.167 284.857,53.904 285.739 M47.600 290.000 C 47.050 290.430,46.797 290.786,47.038 290.791 C 47.279 290.796,47.802 290.440,48.200 290.000 C 49.112 288.992,48.888 288.992,47.600 290.000 M42.800 293.220 L 41.800 294.022 42.900 293.547 C 43.505 293.285,44.000 292.920,44.000 292.736 C 44.000 292.279,43.945 292.302,42.800 293.220 M40.394 294.818 C 39.847 295.239,39.580 295.580,39.800 295.578 C 40.329 295.573,41.791 294.458,41.565 294.231 C 41.468 294.134,40.941 294.398,40.394 294.818 M35.800 297.853 C 34.040 299.066,32.240 300.214,31.800 300.404 C 31.360 300.594,31.227 300.761,31.504 300.775 C 32.041 300.802,38.643 296.577,39.022 295.964 C 39.365 295.410,39.236 295.486,35.800 297.853 M65.400 337.735 C 55.764 340.928,52.846 352.025,59.811 358.989 C 67.868 367.047,81.387 361.417,81.397 350.000 C 81.405 341.723,72.943 335.236,65.400 337.735 M71.743 338.198 C 79.740 340.624,83.307 348.874,79.368 355.835 C 73.641 365.955,59.499 363.724,56.807 352.276 C 54.855 343.974,63.602 335.728,71.743 338.198 M252.203 350.405 C 252.337 350.622,252.675 350.800,252.954 350.800 C 253.586 350.800,254.902 352.219,255.735 353.800 C 256.083 354.460,256.375 354.856,256.384 354.680 C 256.415 354.058,255.264 352.189,254.338 351.360 C 253.305 350.434,251.807 349.764,252.203 350.405 M245.320 351.700 C 244.330 352.786,243.594 354.157,243.616 354.874 C 243.624 355.163,243.904 354.771,244.237 354.003 C 244.570 353.234,245.225 352.199,245.691 351.703 C 246.158 351.206,246.449 350.800,246.339 350.800 C 246.229 350.800,245.771 351.205,245.320 351.700 M244.827 360.270 C 245.632 361.596,248.093 362.800,250.000 362.800 C 251.907 362.800,254.368 361.596,255.173 360.270 C 255.622 359.528,255.531 359.555,254.550 360.451 C 252.898 361.961,251.873 362.400,250.000 362.400 C 248.127 362.400,247.102 361.961,245.450 360.451 C 244.469 359.555,244.378 359.528,244.827 360.270 " stroke="none" fill="#64351e" fill-rule="evenodd"></path></g></svg>