<?xml version="1.0" standalone="no"?>
<!DOCTYPE svg PUBLIC "-//W3C//DTD SVG 20010904//EN"
 "http://www.w3.org/TR/2001/REC-SVG-20010904/DTD/svg10.dtd">
<svg version="1.0" xmlns="http://www.w3.org/2000/svg"
 width="512.000000pt" height="512.000000pt" viewBox="0 0 512.000000 512.000000"
 preserveAspectRatio="xMidYMid meet">

<g transform="translate(0.000000,512.000000) scale(0.100000,-0.100000)"
fill="current" stroke="none">
<path d="M1746 4869 c-62 -15 -153 -68 -197 -116 -22 -24 -55 -74 -72 -111
l-32 -67 -5 -1030 -5 -1030 -237 -444 -238 -443 0 -654 0 -654 80 0 80 0 0
630 0 630 306 578 c168 317 315 588 327 600 34 36 71 52 125 52 87 0 162 -73
162 -156 0 -24 -44 -256 -97 -516 l-97 -473 -6 -475 c-7 -538 -4 -522 -90
-635 l-47 -62 19 -23 c11 -13 33 -40 50 -59 l31 -35 51 55 c90 97 146 241 146
382 l0 67 676 0 676 0 -4 -127 c-3 -115 -6 -133 -30 -178 -48 -92 -135 -155
-236 -171 l-42 -7 0 -78 0 -79 28 0 c15 0 54 7 85 15 141 37 244 121 310 253
l42 85 3 143 4 142 131 4 c123 3 137 6 199 35 93 43 151 100 196 191 l37 76 3
408 3 408 95 0 c87 0 97 2 119 25 l25 24 0 871 0 871 -25 24 c-22 23 -32 25
-119 25 l-95 0 -3 368 -3 368 -37 76 c-45 91 -103 147 -196 191 l-67 32 -995
2 c-580 1 -1011 -3 -1034 -8z m414 -324 c0 -173 0 -176 25 -200 l24 -25 591 0
591 0 24 25 c25 24 25 27 25 200 l0 175 136 0 c78 0 154 -5 178 -12 55 -16
138 -99 154 -154 8 -29 12 -143 12 -378 l0 -336 -695 0 -696 0 -24 -25 -25
-24 0 -871 0 -871 25 -24 24 -25 696 0 695 0 0 -376 c0 -267 -4 -389 -12 -418
-16 -55 -99 -138 -154 -154 -31 -9 -255 -12 -898 -12 l-856 0 0 278 0 278 101
499 c111 557 115 595 69 690 -31 63 -91 124 -155 155 -42 21 -65 25 -140 25
-106 0 -158 -21 -230 -91 l-45 -43 0 841 c0 631 3 851 12 882 15 51 99 137
148 153 20 6 115 11 218 12 l182 1 0 -175z m1120 55 l0 -120 -480 0 -480 0 0
120 0 120 480 0 480 0 0 -120z m880 -1680 l0 -760 -760 0 -760 0 0 760 0 760
760 0 760 0 0 -760z"/>
<path d="M2645 1751 c-92 -24 -173 -90 -215 -176 -35 -73 -35 -199 0 -270 31
-64 91 -124 155 -155 71 -35 197 -35 270 0 64 31 124 91 155 155 35 73 35 199
0 270 -32 64 -92 124 -155 154 -54 25 -156 36 -210 22z m138 -165 c104 -43
128 -175 47 -256 -66 -66 -156 -67 -221 -1 -124 123 13 325 174 257z"/>
<path d="M2825 3495 l-25 -24 0 -231 0 -231 25 -24 24 -25 231 0 231 0 24 25
25 24 0 231 0 231 -25 24 -24 25 -231 0 -231 0 -24 -25z m375 -255 l0 -120
-120 0 -120 0 0 120 0 120 120 0 120 0 0 -120z"/>
<path d="M3520 3400 l0 -120 80 0 80 0 0 120 0 120 -80 0 -80 0 0 -120z"/>
<path d="M3840 3400 l0 -120 80 0 80 0 0 120 0 120 -80 0 -80 0 0 -120z"/>
<path d="M3520 3040 l0 -80 240 0 240 0 0 80 0 80 -240 0 -240 0 0 -80z"/>
<path d="M3545 2855 l-25 -24 0 -231 0 -231 25 -24 24 -25 231 0 231 0 24 25
25 24 0 231 0 231 -25 24 -24 25 -231 0 -231 0 -24 -25z m375 -255 l0 -120
-120 0 -120 0 0 120 0 120 120 0 120 0 0 -120z"/>
<path d="M2800 2520 l0 -200 80 0 80 0 0 200 0 200 -80 0 -80 0 0 -200z"/>
<path d="M3120 2640 l0 -80 120 0 120 0 0 80 0 80 -120 0 -120 0 0 -80z"/>
<path d="M3120 2400 l0 -80 120 0 120 0 0 80 0 80 -120 0 -120 0 0 -80z"/>
</g>
</svg>
