<?xml version="1.0" standalone="no"?>
<!DOCTYPE svg PUBLIC "-//W3C//DTD SVG 20010904//EN"
 "http://www.w3.org/TR/2001/REC-SVG-20010904/DTD/svg10.dtd">
<svg version="1.0" xmlns="http://www.w3.org/2000/svg"
 width="512.000000pt" height="512.000000pt" viewBox="0 0 512.000000 512.000000"
 preserveAspectRatio="xMidYMid meet">

<g transform="translate(0.000000,512.000000) scale(0.100000,-0.100000)"
fill="current" stroke="none">
<path d="M2244 4800 l-295 -290 -393 0 c-368 0 -394 -1 -409 -18 -15 -17 -17
-59 -17 -394 l0 -375 -380 -373 -380 -372 0 -1453 0 -1454 26 -20 27 -21 2137
0 2137 0 27 21 26 20 0 1453 0 1453 -212 209 c-117 115 -288 283 -380 374
l-168 164 0 377 c0 351 -1 377 -18 392 -17 15 -60 17 -412 17 l-394 0 -291
290 c-212 211 -297 290 -314 290 -17 0 -104 -80 -317 -290z m523 -82 c106
-106 193 -196 193 -200 0 -5 -180 -8 -400 -8 -220 0 -400 4 -400 8 0 14 386
392 400 392 8 0 101 -87 207 -192z m1083 -1390 l-1 -1053 -641 -590 c-352
-324 -644 -590 -648 -590 -4 0 -295 266 -648 590 l-641 590 -1 1053 0 1052
1290 0 1290 0 0 -1052z m-2722 -637 l-3 -280 -293 271 -294 271 24 22 c12 13
145 141 293 285 l270 262 3 -275 c1 -152 1 -402 0 -556z m3210 498 l243 -237
-258 -238 c-142 -131 -275 -253 -295 -273 l-38 -35 0 558 0 559 53 -49 c28
-26 161 -155 295 -285z m-3058 -1110 c418 -385 760 -703 760 -707 -1 -7 -1504
-1114 -1521 -1120 -5 -2 -9 551 -9 1262 0 696 2 1266 5 1266 3 0 347 -315 765
-701z m3326 -1826 c-4 -4 -1478 1077 -1509 1106 -20 20 -120 -75 1173 1116
l335 309 3 -1264 c1 -695 0 -1265 -2 -1267z m-2264 847 c164 -152 187 -169
218 -169 31 0 54 17 219 170 102 93 190 168 196 167 6 -2 345 -248 752 -548
l741 -545 -954 -3 c-525 -1 -1383 -1 -1907 0 l-953 3 744 548 c409 301 748
547 752 547 5 0 91 -76 192 -170z"/>
<path d="M2440 3915 c-175 -28 -321 -99 -443 -214 -88 -83 -145 -164 -202
-282 -115 -244 -134 -513 -53 -756 74 -225 250 -397 490 -479 209 -71 508 -83
723 -28 80 21 237 95 301 144 29 22 76 62 103 90 56 56 64 87 31 120 -36 36
-66 26 -144 -47 -160 -151 -338 -213 -606 -213 -357 0 -622 133 -739 371 -62
128 -75 190 -75 359 0 109 4 162 18 214 79 296 260 491 536 578 66 20 95 23
240 23 160 0 168 -1 253 -31 111 -40 185 -85 257 -155 224 -219 224 -595 0
-819 -67 -68 -154 -120 -200 -120 -43 0 -70 26 -70 68 0 20 32 189 72 374 l72
338 -21 27 c-14 20 -31 29 -56 31 -48 4 -72 -21 -87 -93 l-12 -56 -27 38 c-34
47 -80 87 -135 116 -33 17 -58 22 -126 22 -75 0 -93 -4 -150 -31 -83 -40 -139
-85 -191 -154 -147 -195 -185 -433 -99 -617 59 -128 151 -195 277 -201 64 -4
80 -1 138 26 36 17 89 54 119 82 l53 50 6 -40 c11 -86 60 -121 166 -121 84 0
138 13 216 54 72 38 196 161 244 240 156 263 141 567 -42 814 -92 123 -241
219 -412 264 -104 27 -306 34 -425 14z m209 -535 c108 -55 147 -204 102 -382
-27 -105 -64 -172 -130 -238 -119 -118 -241 -132 -326 -38 -57 63 -69 99 -69
213 1 85 5 113 30 185 82 235 239 339 393 260z"/>
</g>
</svg>
