<svg id="svg" version="1.1" xmlns="http://www.w3.org/2000/svg" xmlns:xlink="http://www.w3.org/1999/xlink" width="400" height="400" viewBox="0, 0, 400,400"><g id="svgg"><path id="path0" d="M197.855 75.078 C 197.702 75.231,197.357 75.389,197.088 75.430 C 195.147 75.720,191.200 78.534,191.200 79.627 C 191.200 79.858,191.020 79.936,190.800 79.800 C 190.580 79.664,190.400 79.833,190.400 80.176 C 190.400 80.519,190.220 80.800,190.000 80.800 C 189.780 80.800,189.600 81.070,189.600 81.400 C 189.600 81.730,189.465 82.001,189.300 82.003 C 188.941 82.007,188.000 83.944,188.000 84.680 C 188.000 84.966,187.851 85.200,187.670 85.200 C 187.361 85.200,187.528 193.216,187.837 193.556 C 187.915 193.642,193.473 188.210,200.189 181.486 L 212.400 169.259 212.400 127.448 C 212.400 97.376,212.274 85.324,211.949 84.519 C 209.900 79.431,207.079 76.716,202.905 75.817 C 202.192 75.664,201.506 75.372,201.381 75.169 C 201.116 74.740,198.267 74.667,197.855 75.078 M166.800 93.493 C 166.800 93.669,165.900 94.132,164.800 94.522 C 163.701 94.913,162.441 95.619,162.000 96.092 C 161.560 96.564,161.199 96.782,161.199 96.575 C 161.198 96.369,160.840 96.785,160.404 97.500 C 159.968 98.215,159.418 98.800,159.182 98.800 C 158.946 98.800,158.844 98.947,158.955 99.127 C 159.066 99.307,158.807 99.707,158.379 100.015 C 157.950 100.324,157.600 100.801,157.600 101.076 C 157.600 101.351,157.264 102.174,156.853 102.906 C 156.131 104.191,156.112 105.860,156.311 150.719 L 156.517 197.200 153.259 197.200 L 150.000 197.200 150.000 160.460 C 150.000 122.337,150.020 122.818,148.281 119.257 C 146.995 116.623,142.298 113.239,139.887 113.209 C 139.496 113.204,139.071 112.930,138.945 112.600 C 138.683 111.919,136.195 111.761,135.800 112.400 C 135.664 112.620,135.158 112.806,134.676 112.813 C 134.194 112.820,133.458 113.084,133.041 113.400 C 132.624 113.716,132.101 113.862,131.879 113.725 C 131.651 113.584,131.600 113.676,131.762 113.938 C 131.919 114.192,131.880 114.400,131.676 114.400 C 130.165 114.400,124.735 121.725,125.422 122.836 C 125.546 123.036,125.457 123.200,125.224 123.200 C 124.927 123.200,124.800 143.192,124.800 189.800 C 124.800 226.430,124.904 256.400,125.030 256.400 C 125.457 256.400,183.600 198.053,183.600 197.625 C 183.600 197.391,183.060 197.200,182.400 197.200 L 181.200 197.200 181.200 151.146 C 181.200 116.930,181.079 104.670,180.728 103.446 C 179.566 99.398,175.884 95.686,172.081 94.728 C 171.107 94.483,170.429 94.099,170.525 93.847 C 170.632 93.564,169.979 93.359,168.747 93.287 C 167.676 93.225,166.800 93.318,166.800 93.493 M229.400 93.586 C 227.631 94.329,226.193 94.853,226.070 94.802 C 225.998 94.772,225.617 95.119,225.223 95.574 C 224.829 96.028,224.378 96.400,224.222 96.400 C 223.772 96.400,221.600 98.693,221.600 99.169 C 221.600 99.406,221.453 99.600,221.274 99.600 C 221.095 99.600,220.510 100.365,219.974 101.300 L 219.000 103.000 218.881 132.700 C 218.816 149.035,218.881 162.400,219.026 162.400 C 219.171 162.400,226.290 155.385,234.845 146.811 L 250.400 131.222 250.400 118.006 C 250.400 110.737,250.240 104.477,250.044 104.095 C 249.848 103.713,249.280 102.545,248.781 101.500 C 248.282 100.455,247.723 99.600,247.537 99.600 C 247.352 99.600,247.200 99.373,247.200 99.096 C 247.200 98.818,246.630 98.143,245.932 97.596 C 245.235 97.048,244.237 96.195,243.714 95.700 C 243.191 95.205,242.502 94.800,242.182 94.800 C 241.862 94.800,241.600 94.620,241.600 94.400 C 241.600 94.180,241.465 94.033,241.300 94.073 C 241.135 94.113,240.280 93.934,239.400 93.675 C 237.583 93.141,230.610 93.079,229.400 93.586 M190.099 228.501 C 150.507 268.093,130.401 288.470,130.402 289.001 C 130.404 289.874,132.785 294.787,133.601 295.600 C 133.711 295.710,134.056 296.295,134.368 296.900 C 134.680 297.505,135.085 298.000,135.268 298.000 C 135.450 298.000,135.600 298.225,135.600 298.500 C 135.601 298.775,136.006 299.480,136.500 300.066 C 138.524 302.466,138.800 302.817,138.800 302.999 C 138.800 303.327,146.178 310.549,147.587 311.600 C 148.324 312.150,149.123 312.789,149.363 313.019 C 150.229 313.849,153.554 316.000,153.972 316.000 C 154.207 316.000,154.400 316.159,154.400 316.353 C 154.400 316.548,154.715 316.807,155.100 316.929 C 155.826 317.159,158.050 318.434,158.400 318.821 C 158.723 319.178,163.280 321.192,165.400 321.916 C 166.060 322.141,166.960 322.461,167.400 322.628 C 167.840 322.795,168.290 322.951,168.400 322.975 C 169.228 323.158,172.895 324.138,174.200 324.525 C 176.913 325.330,210.673 325.181,211.801 324.359 C 212.021 324.199,212.741 323.991,213.401 323.897 C 214.560 323.732,215.166 323.548,217.119 322.767 C 217.624 322.565,218.479 322.400,219.019 322.400 C 219.558 322.400,220.000 322.220,220.000 322.000 C 220.000 321.780,220.331 321.600,220.735 321.600 C 221.558 321.600,228.125 318.420,228.333 317.920 C 228.407 317.744,228.812 317.600,229.233 317.600 C 229.655 317.600,230.000 317.420,230.000 317.200 C 230.000 316.980,230.294 316.800,230.653 316.800 C 231.012 316.800,231.609 316.451,231.978 316.025 C 232.348 315.599,232.901 315.194,233.207 315.125 C 233.513 315.056,234.185 314.595,234.700 314.100 C 235.215 313.605,235.771 313.200,235.935 313.200 C 236.099 313.200,236.901 312.570,237.718 311.800 C 238.534 311.030,239.294 310.400,239.407 310.400 C 239.519 310.400,241.090 308.960,242.898 307.200 C 244.706 305.440,246.066 304.000,245.921 304.000 C 245.775 304.000,247.778 301.845,250.373 299.211 C 252.967 296.578,254.994 294.328,254.878 294.211 C 254.762 294.095,254.997 294.000,255.400 294.000 C 255.803 294.000,256.022 293.888,255.885 293.752 C 255.629 293.496,256.539 292.487,263.500 285.308 C 265.755 282.982,267.600 280.916,267.600 280.716 C 267.600 280.516,267.780 280.464,268.000 280.600 C 268.220 280.736,268.400 280.556,268.400 280.200 C 268.400 279.813,268.585 279.667,268.862 279.838 C 269.133 280.005,269.216 279.949,269.063 279.701 C 268.919 279.469,271.276 276.740,274.301 273.637 C 277.325 270.533,279.714 267.996,279.608 267.997 C 279.503 267.999,279.818 267.595,280.309 267.100 C 285.059 262.306,294.800 251.976,294.800 251.733 C 294.800 251.665,296.756 249.633,299.147 247.218 C 301.538 244.803,303.398 242.731,303.280 242.614 C 303.163 242.496,303.367 242.400,303.733 242.400 C 304.100 242.400,304.400 242.208,304.400 241.973 C 304.400 241.738,304.985 240.953,305.700 240.227 C 308.561 237.324,310.400 235.207,310.400 234.814 C 310.400 234.586,310.580 234.400,310.800 234.400 C 311.020 234.400,311.200 234.212,311.200 233.983 C 311.200 233.754,311.560 233.180,312.000 232.708 C 312.440 232.236,312.800 231.433,312.800 230.925 C 312.800 230.416,312.980 230.000,313.200 230.000 C 313.420 230.000,313.600 229.471,313.600 228.824 C 313.600 228.177,313.780 227.536,314.000 227.400 C 314.220 227.264,314.400 225.824,314.400 224.200 C 314.400 222.576,314.220 221.136,314.000 221.000 C 313.780 220.864,313.600 220.043,313.600 219.176 C 313.600 218.309,313.420 217.600,313.200 217.600 C 312.980 217.600,312.800 217.347,312.800 217.038 C 312.800 215.567,308.757 210.000,307.689 210.000 C 307.467 210.000,307.190 209.750,307.072 209.444 C 306.815 208.773,304.566 207.600,303.539 207.600 C 303.132 207.600,302.800 207.439,302.800 207.242 C 302.800 206.494,294.158 205.682,293.475 206.365 C 293.236 206.604,292.446 206.800,291.720 206.800 C 290.994 206.800,290.400 206.980,290.400 207.200 C 290.400 207.420,290.040 207.600,289.600 207.600 C 289.160 207.600,288.800 207.780,288.800 208.000 C 288.800 208.220,288.453 208.400,288.029 208.400 C 287.604 208.400,286.942 208.715,286.557 209.100 C 286.172 209.485,285.726 209.800,285.567 209.800 C 285.407 209.800,284.736 210.282,284.075 210.870 C 283.414 211.459,282.767 211.834,282.637 211.704 C 282.507 211.573,282.400 211.707,282.400 212.000 C 282.400 212.293,282.283 212.417,282.140 212.274 C 281.998 212.131,281.458 212.506,280.941 213.107 C 280.424 213.708,280.001 214.086,280.000 213.946 C 280.000 213.806,279.338 214.299,278.528 215.041 C 277.718 215.782,276.974 216.308,276.875 216.209 C 276.776 216.109,276.196 216.562,275.587 217.214 C 274.978 217.866,274.181 218.400,273.816 218.400 C 273.451 218.400,273.264 218.580,273.400 218.800 C 273.536 219.020,273.448 219.200,273.205 219.200 C 272.962 219.200,272.310 219.653,271.756 220.208 C 271.202 220.762,270.552 221.094,270.312 220.946 C 270.051 220.785,269.991 220.862,270.162 221.138 C 270.323 221.399,270.215 221.600,269.912 221.600 C 269.617 221.600,269.117 221.960,268.800 222.400 C 268.483 222.840,268.008 223.200,267.745 223.200 C 267.482 223.200,267.207 223.335,267.133 223.500 C 266.955 223.902,263.876 226.197,263.513 226.199 C 263.355 226.199,262.815 226.560,262.313 227.000 C 261.811 227.440,260.680 228.324,259.800 228.965 C 258.920 229.606,258.140 230.281,258.067 230.465 C 257.993 230.649,257.760 230.800,257.548 230.800 C 257.337 230.800,256.727 231.237,256.193 231.771 C 255.659 232.305,254.677 233.064,254.011 233.457 C 253.345 233.851,252.800 234.314,252.800 234.486 C 252.800 234.659,252.440 234.800,252.000 234.800 C 251.560 234.800,251.200 234.980,251.200 235.200 C 251.200 235.420,251.020 235.600,250.800 235.600 C 250.537 235.600,250.400 224.200,250.400 202.200 C 250.400 183.830,250.265 168.800,250.099 168.800 C 249.934 168.800,222.934 195.665,190.099 228.501 " stroke="none" fill="#fbc383" fill-rule="evenodd"></path><path id="path1" d="M183.200 12.401 C 182.870 12.614,181.397 12.791,179.926 12.794 C 178.455 12.797,176.806 12.970,176.260 13.177 C 175.714 13.385,174.098 13.606,172.668 13.670 C 171.238 13.734,170.153 13.924,170.257 14.093 C 170.362 14.262,169.582 14.421,168.524 14.446 C 166.371 14.498,166.056 14.540,165.200 14.893 C 164.533 15.168,162.760 15.491,159.907 15.857 C 158.866 15.991,158.112 16.258,158.231 16.450 C 158.350 16.643,157.627 16.800,156.624 16.800 C 155.621 16.800,154.800 16.980,154.800 17.200 C 154.800 17.420,153.990 17.600,153.000 17.600 C 152.010 17.600,151.200 17.780,151.200 18.000 C 151.200 18.220,150.750 18.400,150.200 18.400 C 149.650 18.400,149.200 18.580,149.200 18.800 C 149.200 19.020,148.568 19.200,147.795 19.200 C 147.022 19.200,146.032 19.380,145.595 19.600 C 145.158 19.820,144.442 20.180,144.005 20.400 C 143.568 20.620,142.758 20.800,142.205 20.800 C 141.652 20.800,141.200 20.980,141.200 21.200 C 141.200 21.420,140.660 21.600,140.000 21.600 C 139.340 21.600,138.800 21.780,138.800 22.000 C 138.800 22.220,138.438 22.400,137.995 22.400 C 137.552 22.400,136.832 22.580,136.395 22.800 C 135.958 23.020,135.242 23.380,134.805 23.600 C 134.368 23.820,133.648 24.000,133.205 24.000 C 132.762 24.000,132.400 24.180,132.400 24.400 C 132.400 24.620,131.860 24.800,131.200 24.800 C 130.540 24.800,130.000 24.980,130.000 25.200 C 130.000 25.420,129.651 25.600,129.224 25.600 C 128.797 25.600,128.328 25.792,128.183 26.027 C 128.038 26.262,127.672 26.360,127.370 26.244 C 127.068 26.128,126.642 26.341,126.423 26.717 C 126.204 27.092,126.019 27.260,126.012 27.090 C 126.005 26.919,125.483 27.047,124.851 27.374 C 124.219 27.701,123.589 27.855,123.451 27.717 C 123.313 27.579,123.200 27.656,123.200 27.887 C 123.200 28.237,122.658 28.525,121.200 28.951 C 120.054 29.286,118.400 30.170,118.400 30.449 C 118.400 30.642,118.051 30.800,117.624 30.800 C 117.197 30.800,116.736 30.980,116.600 31.200 C 116.464 31.420,115.991 31.600,115.548 31.600 C 115.105 31.600,114.471 31.872,114.139 32.204 C 113.807 32.536,113.370 32.705,113.168 32.580 C 112.965 32.455,112.800 32.505,112.800 32.690 C 112.800 33.211,110.553 34.416,110.192 34.089 C 110.016 33.930,110.001 34.025,110.159 34.300 C 110.337 34.609,110.209 34.800,109.824 34.800 C 109.481 34.800,109.200 34.980,109.200 35.200 C 109.200 35.420,108.840 35.600,108.400 35.600 C 107.960 35.600,107.600 35.780,107.600 36.000 C 107.600 36.220,107.255 36.400,106.833 36.400 C 106.412 36.400,106.007 36.566,105.933 36.770 C 105.860 36.973,105.530 37.198,105.200 37.270 C 104.870 37.341,104.309 37.715,103.953 38.100 C 103.597 38.485,103.012 38.800,102.653 38.800 C 102.294 38.800,102.000 38.980,102.000 39.200 C 102.000 39.420,101.680 39.600,101.288 39.600 C 100.897 39.600,100.317 39.960,100.000 40.400 C 99.683 40.840,99.186 41.200,98.895 41.200 C 98.604 41.200,98.006 41.536,97.566 41.946 C 97.125 42.357,95.950 43.111,94.955 43.623 C 93.960 44.135,92.969 44.884,92.753 45.288 C 92.537 45.692,92.223 45.938,92.055 45.834 C 91.887 45.730,91.238 46.085,90.613 46.623 C 89.987 47.160,89.343 47.600,89.180 47.600 C 89.018 47.600,88.307 48.140,87.600 48.800 C 86.893 49.460,86.160 50.000,85.971 50.000 C 85.782 50.000,84.997 50.630,84.227 51.400 C 83.457 52.170,82.662 52.800,82.462 52.800 C 82.261 52.800,81.355 53.520,80.448 54.400 C 79.541 55.280,78.668 56.000,78.508 56.000 C 78.348 56.000,77.539 56.743,76.709 57.651 C 75.879 58.558,75.200 59.203,75.200 59.084 C 75.200 58.964,74.570 59.479,73.800 60.226 C 73.030 60.974,72.400 61.780,72.400 62.017 C 72.400 62.253,72.247 62.353,72.061 62.237 C 71.874 62.122,71.341 62.381,70.877 62.814 C 70.413 63.246,69.816 63.600,69.550 63.600 C 69.284 63.600,69.168 63.701,69.291 63.825 C 69.629 64.162,67.573 66.220,67.052 66.067 C 66.803 65.993,66.720 66.054,66.867 66.200 C 67.216 66.549,65.956 68.020,65.533 67.759 C 65.355 67.649,65.328 67.869,65.474 68.249 C 65.676 68.776,65.582 68.879,65.074 68.684 C 64.663 68.526,64.446 68.614,64.505 68.914 C 64.557 69.181,64.375 69.355,64.100 69.300 C 63.825 69.245,63.600 69.476,63.600 69.813 C 63.600 70.149,63.330 70.529,63.000 70.655 C 62.670 70.782,62.400 71.045,62.400 71.240 C 62.400 71.436,61.600 72.406,60.623 73.398 C 59.646 74.389,58.934 75.200,59.040 75.200 C 59.147 75.200,58.506 75.892,57.617 76.738 C 56.728 77.584,56.000 78.394,56.000 78.537 C 56.000 78.681,55.280 79.563,54.400 80.497 C 53.520 81.431,52.800 82.339,52.800 82.513 C 52.800 82.688,52.080 83.558,51.200 84.447 C 50.320 85.336,49.600 86.253,49.600 86.485 C 49.600 86.717,49.251 87.209,48.825 87.578 C 48.399 87.948,47.994 88.497,47.925 88.798 C 47.856 89.098,47.305 89.879,46.700 90.532 C 46.095 91.184,45.600 91.897,45.600 92.115 C 45.600 92.333,45.349 92.712,45.041 92.956 C 44.734 93.200,44.014 94.299,43.441 95.397 C 42.869 96.495,42.396 97.215,42.391 96.997 C 42.386 96.779,42.075 97.230,41.701 98.000 C 41.326 98.770,40.700 99.749,40.310 100.175 C 39.919 100.602,39.600 101.187,39.600 101.475 C 39.600 101.764,39.420 102.000,39.200 102.000 C 38.980 102.000,38.800 102.360,38.800 102.800 C 38.800 103.240,38.642 103.600,38.449 103.600 C 38.255 103.600,37.873 104.140,37.600 104.800 C 37.327 105.460,36.945 106.000,36.751 106.000 C 36.558 106.000,36.400 106.345,36.400 106.767 C 36.400 107.188,36.233 107.593,36.030 107.667 C 35.826 107.740,35.601 108.070,35.530 108.400 C 35.458 108.730,35.310 109.090,35.200 109.200 C 34.857 109.543,34.032 110.931,33.118 112.700 C 32.636 113.635,32.096 114.400,31.920 114.400 C 31.744 114.400,31.600 114.760,31.600 115.200 C 31.600 115.640,31.420 116.000,31.200 116.000 C 30.980 116.000,30.821 116.135,30.847 116.300 C 30.990 117.204,30.748 118.015,30.400 117.800 C 30.180 117.664,30.000 117.888,30.000 118.297 C 30.000 119.209,29.111 121.193,28.700 121.197 C 28.535 121.199,28.400 121.740,28.400 122.400 C 28.400 123.060,28.240 123.600,28.043 123.600 C 27.739 123.600,27.545 124.057,26.983 126.100 C 26.937 126.265,26.877 126.591,26.850 126.824 C 26.823 127.057,26.622 127.137,26.405 127.003 C 26.176 126.861,26.112 127.026,26.253 127.394 C 26.387 127.744,26.205 128.353,25.848 128.747 C 25.490 129.142,25.319 129.585,25.466 129.732 C 25.613 129.880,25.563 130.000,25.354 130.000 C 25.145 130.000,24.934 130.495,24.884 131.100 C 24.834 131.705,24.615 132.260,24.397 132.333 C 24.178 132.407,24.000 132.801,24.000 133.210 C 24.000 133.618,23.820 134.064,23.600 134.200 C 23.380 134.336,23.200 134.876,23.200 135.400 C 23.200 135.924,23.020 136.464,22.800 136.600 C 22.580 136.736,22.400 137.287,22.400 137.824 C 22.400 138.361,22.220 138.800,22.000 138.800 C 21.780 138.800,21.600 139.340,21.600 140.000 C 21.600 140.660,21.420 141.200,21.200 141.200 C 20.980 141.200,20.800 141.639,20.800 142.176 C 20.800 142.713,20.620 143.264,20.400 143.400 C 20.180 143.536,20.000 144.076,20.000 144.600 C 20.000 145.124,19.848 145.647,19.661 145.762 C 19.475 145.877,19.306 146.543,19.286 147.241 C 19.267 147.939,19.059 148.701,18.825 148.935 C 18.591 149.169,18.400 149.763,18.400 150.256 C 18.400 150.749,18.220 151.264,18.000 151.400 C 17.780 151.536,17.600 152.267,17.600 153.024 C 17.600 153.781,17.454 154.400,17.275 154.400 C 17.096 154.400,16.906 155.255,16.853 156.300 C 16.800 157.345,16.587 158.260,16.379 158.333 C 16.170 158.407,16.000 159.071,16.000 159.810 C 16.000 160.548,15.820 161.264,15.600 161.400 C 15.380 161.536,15.200 162.537,15.200 163.624 C 15.200 164.711,15.051 165.600,14.868 165.600 C 14.686 165.600,14.496 166.621,14.445 167.870 C 14.395 169.118,14.194 170.437,14.000 170.800 C 13.806 171.163,13.607 172.571,13.558 173.930 C 13.509 175.288,13.318 176.400,13.134 176.400 C 12.950 176.400,12.800 177.840,12.800 179.600 C 12.800 181.360,12.630 182.800,12.423 182.800 C 11.947 182.800,11.911 216.809,12.386 217.388 C 12.573 217.614,12.779 219.240,12.845 221.000 C 12.910 222.760,13.096 224.294,13.258 224.409 C 13.420 224.524,13.591 225.829,13.639 227.309 C 13.687 228.789,13.878 230.000,14.063 230.000 C 14.248 230.000,14.400 230.900,14.400 232.000 C 14.400 233.100,14.580 234.000,14.800 234.000 C 15.020 234.000,15.200 234.979,15.200 236.176 C 15.200 237.373,15.380 238.464,15.600 238.600 C 15.820 238.736,16.000 239.467,16.000 240.224 C 16.000 240.981,16.180 241.600,16.400 241.600 C 16.620 241.600,16.800 242.410,16.800 243.400 C 16.800 244.390,16.980 245.200,17.200 245.200 C 17.420 245.200,17.600 245.909,17.600 246.776 C 17.600 247.643,17.780 248.464,18.000 248.600 C 18.220 248.736,18.400 249.362,18.400 249.990 C 18.400 250.619,18.574 251.193,18.787 251.267 C 19.000 251.340,19.220 251.999,19.275 252.730 C 19.330 253.462,19.515 254.148,19.687 254.254 C 19.859 254.360,20.000 254.876,20.000 255.400 C 20.000 255.924,20.180 256.464,20.400 256.600 C 20.620 256.736,20.800 257.287,20.800 257.824 C 20.800 258.361,20.980 258.800,21.200 258.800 C 21.420 258.800,21.600 259.340,21.600 260.000 C 21.600 260.660,21.780 261.200,22.000 261.200 C 22.220 261.200,22.400 261.740,22.400 262.400 C 22.400 263.060,22.580 263.600,22.800 263.600 C 23.020 263.600,23.200 264.140,23.200 264.800 C 23.200 265.460,23.380 266.000,23.600 266.000 C 23.820 266.000,24.000 266.360,24.000 266.800 C 24.000 267.240,24.180 267.600,24.400 267.600 C 24.620 267.600,24.800 268.140,24.800 268.800 C 24.800 269.460,24.991 270.000,25.224 270.000 C 25.457 270.000,25.549 270.160,25.428 270.355 C 25.307 270.550,25.483 270.937,25.819 271.216 C 26.155 271.495,26.390 272.010,26.341 272.361 C 26.293 272.713,26.695 273.900,27.236 275.000 C 27.776 276.100,28.468 277.765,28.773 278.700 C 29.078 279.635,29.479 280.400,29.664 280.400 C 29.849 280.400,30.000 280.850,30.000 281.400 C 30.000 281.950,30.135 282.401,30.300 282.403 C 30.665 282.407,31.600 284.349,31.600 285.103 C 31.600 285.402,31.780 285.536,32.000 285.400 C 32.220 285.264,32.400 285.416,32.400 285.739 C 32.400 286.422,34.060 289.738,34.500 289.933 C 34.665 290.007,34.800 290.332,34.800 290.657 C 34.800 290.982,34.980 291.136,35.200 291.000 C 35.420 290.864,35.600 291.123,35.600 291.576 C 35.600 292.029,35.780 292.400,36.000 292.400 C 36.220 292.400,36.400 292.760,36.400 293.200 C 36.400 293.640,36.580 294.000,36.800 294.000 C 37.020 294.000,37.200 294.320,37.200 294.712 C 37.200 295.103,37.560 295.683,38.000 296.000 C 38.440 296.317,38.800 296.897,38.800 297.288 C 38.800 297.680,38.980 298.000,39.200 298.000 C 39.420 298.000,39.600 298.270,39.600 298.600 C 39.600 298.930,39.780 299.200,40.000 299.200 C 40.220 299.200,40.400 299.470,40.400 299.800 C 40.400 300.130,40.580 300.400,40.800 300.400 C 41.020 300.400,41.200 300.771,41.200 301.224 C 41.200 301.677,41.364 301.946,41.565 301.821 C 41.766 301.697,42.170 302.136,42.463 302.798 C 42.756 303.459,43.131 304.000,43.298 304.000 C 43.464 304.000,43.600 304.360,43.600 304.800 C 43.600 305.240,43.791 305.600,44.024 305.600 C 44.257 305.600,44.340 305.774,44.208 305.987 C 44.077 306.200,44.336 306.603,44.784 306.883 C 45.233 307.163,45.607 307.574,45.616 307.796 C 45.625 308.018,46.165 308.823,46.816 309.585 C 47.467 310.347,48.000 311.113,48.000 311.289 C 48.000 311.464,48.540 312.172,49.200 312.863 C 49.860 313.554,50.400 314.319,50.400 314.563 C 50.400 314.808,50.760 315.232,51.200 315.507 C 51.640 315.782,52.000 316.238,52.000 316.520 C 52.000 317.169,54.654 320.013,54.967 319.699 C 55.095 319.571,55.200 319.675,55.200 319.929 C 55.200 320.413,55.987 321.494,57.500 323.088 C 57.995 323.610,58.400 324.196,58.400 324.391 C 58.400 324.586,58.760 324.860,59.200 325.000 C 59.640 325.140,60.000 325.394,60.000 325.566 C 60.000 326.034,61.316 327.443,62.000 327.706 C 62.482 327.891,62.488 327.943,62.035 327.968 C 61.714 327.986,62.197 328.692,63.152 329.600 C 64.077 330.480,64.729 331.200,64.601 331.200 C 64.473 331.200,64.601 331.451,64.884 331.758 C 65.168 332.065,65.534 332.235,65.698 332.135 C 65.862 332.036,66.206 332.415,66.463 332.977 C 66.719 333.540,67.180 334.000,67.488 334.000 C 67.795 334.000,67.948 334.161,67.826 334.357 C 67.705 334.554,68.054 334.827,68.603 334.965 C 69.151 335.103,69.600 335.451,69.600 335.740 C 69.600 336.029,70.050 336.506,70.600 336.800 C 71.150 337.094,71.600 337.605,71.600 337.934 C 71.600 338.264,71.708 338.426,71.839 338.294 C 71.971 338.163,72.646 338.588,73.339 339.240 C 77.133 342.804,78.588 344.000,79.130 344.000 C 79.462 344.000,79.630 344.103,79.503 344.230 C 79.207 344.526,82.770 348.000,83.370 348.000 C 83.619 348.000,84.083 348.360,84.400 348.800 C 84.717 349.240,85.207 349.600,85.488 349.600 C 85.770 349.600,86.000 349.780,86.000 350.000 C 86.000 350.220,86.178 350.400,86.395 350.400 C 86.771 350.400,87.824 351.167,89.045 352.329 C 89.350 352.619,89.600 352.720,89.600 352.553 C 89.600 352.386,89.967 352.643,90.416 353.125 C 90.864 353.606,91.376 354.000,91.553 354.000 C 91.731 354.000,92.399 354.450,93.038 355.000 C 93.677 355.549,94.415 355.999,94.677 356.000 C 94.940 356.000,95.406 356.359,95.713 356.797 C 96.020 357.236,96.395 357.472,96.545 357.322 C 96.695 357.171,97.094 357.442,97.432 357.924 C 97.769 358.406,98.355 358.800,98.734 358.800 C 99.113 358.800,99.683 359.160,100.000 359.600 C 100.317 360.040,100.897 360.400,101.288 360.400 C 101.680 360.400,102.000 360.580,102.000 360.800 C 102.000 361.020,102.320 361.200,102.712 361.200 C 103.103 361.200,103.683 361.560,104.000 362.000 C 104.317 362.440,104.897 362.800,105.288 362.800 C 105.680 362.800,106.000 362.980,106.000 363.200 C 106.000 363.420,106.360 363.600,106.800 363.600 C 107.240 363.600,107.600 363.780,107.600 364.000 C 107.600 364.220,107.960 364.400,108.400 364.400 C 108.840 364.400,109.200 364.580,109.200 364.800 C 109.200 365.020,109.481 365.200,109.824 365.200 C 110.167 365.200,110.336 365.380,110.200 365.600 C 109.992 365.937,110.978 366.203,111.309 365.900 C 111.370 365.845,111.853 366.205,112.385 366.700 C 112.916 367.195,113.587 367.600,113.875 367.600 C 114.164 367.600,114.400 367.780,114.400 368.000 C 114.400 368.220,114.861 368.400,115.424 368.400 C 116.004 368.400,116.340 368.573,116.200 368.800 C 116.064 369.020,116.323 369.200,116.776 369.200 C 117.229 369.200,117.600 369.380,117.600 369.600 C 117.600 369.820,117.924 370.000,118.320 370.000 C 118.716 370.000,119.211 370.149,119.420 370.330 C 119.629 370.512,120.565 370.901,121.500 371.194 C 122.435 371.488,123.200 371.879,123.200 372.064 C 123.200 372.249,123.560 372.400,124.000 372.400 C 124.440 372.400,124.800 372.580,124.800 372.800 C 124.800 373.020,125.149 373.200,125.576 373.200 C 126.003 373.200,126.470 373.390,126.613 373.621 C 126.756 373.853,127.082 373.966,127.337 373.873 C 127.591 373.780,128.101 373.966,128.469 374.286 C 128.837 374.606,129.872 374.966,130.769 375.087 C 131.666 375.207,132.400 375.462,132.400 375.653 C 132.400 375.844,132.839 376.000,133.376 376.000 C 133.913 376.000,134.464 376.180,134.600 376.400 C 134.736 376.620,135.197 376.800,135.624 376.800 C 136.051 376.800,136.400 376.980,136.400 377.200 C 136.400 377.420,136.940 377.600,137.600 377.600 C 138.260 377.600,138.800 377.780,138.800 378.000 C 138.800 378.220,139.340 378.400,140.000 378.400 C 140.660 378.400,141.200 378.580,141.200 378.800 C 141.200 379.020,141.639 379.200,142.176 379.200 C 142.713 379.200,143.264 379.380,143.400 379.600 C 143.536 379.820,144.177 380.000,144.824 380.000 C 145.471 380.000,146.000 380.180,146.000 380.400 C 146.000 380.620,146.619 380.800,147.376 380.800 C 148.133 380.800,148.864 380.980,149.000 381.200 C 149.136 381.420,149.676 381.600,150.200 381.600 C 150.724 381.600,151.264 381.780,151.400 382.000 C 151.536 382.220,152.256 382.400,153.000 382.400 C 153.744 382.400,154.464 382.580,154.600 382.800 C 154.736 383.020,155.636 383.200,156.600 383.200 C 157.564 383.200,158.464 383.380,158.600 383.600 C 158.736 383.820,159.366 384.000,160.000 384.000 C 160.634 384.000,161.264 384.180,161.400 384.400 C 161.536 384.620,162.627 384.800,163.824 384.800 C 165.021 384.800,166.000 384.980,166.000 385.200 C 166.000 385.420,166.990 385.600,168.200 385.600 C 169.410 385.600,170.400 385.765,170.400 385.968 C 170.400 386.170,171.509 386.341,172.864 386.347 C 174.219 386.354,175.435 386.534,175.567 386.747 C 176.102 387.613,216.800 388.438,216.800 387.583 C 216.800 387.369,218.292 387.200,220.176 387.200 C 222.033 387.200,223.664 387.020,223.800 386.800 C 223.936 386.580,225.196 386.400,226.600 386.400 C 228.004 386.400,229.264 386.220,229.400 386.000 C 229.536 385.780,230.627 385.600,231.824 385.600 C 233.021 385.600,234.000 385.420,234.000 385.200 C 234.000 384.980,234.990 384.800,236.200 384.800 C 237.410 384.800,238.400 384.620,238.400 384.400 C 238.400 384.180,239.120 384.000,240.000 384.000 C 240.880 384.000,241.600 383.820,241.600 383.600 C 241.600 383.380,242.545 383.197,243.700 383.194 C 245.203 383.189,245.630 383.078,245.200 382.800 C 244.641 382.438,246.292 382.168,247.870 382.363 C 248.128 382.395,248.454 382.236,248.593 382.011 C 248.733 381.785,249.377 381.600,250.024 381.600 C 250.671 381.600,251.200 381.420,251.200 381.200 C 251.200 380.980,251.592 380.800,252.072 380.800 C 252.992 380.800,255.328 380.140,256.495 379.551 C 256.877 379.358,257.552 379.200,257.995 379.200 C 258.438 379.200,258.800 379.020,258.800 378.800 C 258.800 378.580,259.340 378.400,260.000 378.400 C 260.660 378.400,261.200 378.220,261.200 378.000 C 261.200 377.780,261.740 377.600,262.400 377.600 C 263.060 377.600,263.600 377.420,263.600 377.200 C 263.600 376.980,264.151 376.800,264.824 376.800 C 265.537 376.800,265.944 376.633,265.800 376.400 C 265.660 376.173,265.996 376.000,266.576 376.000 C 267.139 376.000,267.600 375.820,267.600 375.600 C 267.600 375.380,268.042 375.200,268.581 375.200 C 269.857 375.200,271.637 374.384,271.355 373.928 C 271.235 373.733,271.604 373.658,272.176 373.761 C 272.766 373.868,273.116 373.788,272.985 373.575 C 272.857 373.369,273.303 373.200,273.976 373.200 C 274.649 373.200,275.200 373.020,275.200 372.800 C 275.200 372.580,275.560 372.400,276.000 372.400 C 276.440 372.400,276.800 372.220,276.800 372.000 C 276.800 371.780,277.250 371.600,277.800 371.600 C 278.350 371.600,278.800 371.440,278.800 371.244 C 278.800 371.048,279.598 370.653,280.574 370.364 C 281.550 370.076,282.260 369.696,282.151 369.520 C 282.042 369.344,282.313 369.200,282.753 369.200 C 283.193 369.200,283.664 369.020,283.800 368.800 C 283.936 368.580,284.397 368.400,284.824 368.400 C 285.251 368.400,285.600 368.246,285.600 368.057 C 285.600 367.868,286.590 367.287,287.800 366.764 C 289.010 366.242,290.000 365.676,290.000 365.507 C 290.000 365.338,290.236 365.200,290.525 365.200 C 290.813 365.200,291.436 364.840,291.908 364.400 C 292.380 363.960,293.029 363.600,293.350 363.600 C 293.671 363.600,293.993 363.434,294.067 363.230 C 294.140 363.027,294.462 362.802,294.782 362.730 C 295.102 362.659,295.788 362.192,296.308 361.692 C 296.827 361.193,297.420 360.889,297.626 361.016 C 297.832 361.143,298.000 361.057,298.000 360.824 C 298.000 360.591,298.405 360.397,298.900 360.394 C 299.628 360.389,299.685 360.314,299.200 360.000 C 298.715 359.686,298.772 359.611,299.500 359.606 C 299.995 359.603,300.400 359.420,300.400 359.200 C 300.400 358.980,300.753 358.800,301.184 358.800 C 301.616 358.800,302.336 358.406,302.784 357.925 C 303.233 357.443,303.600 357.201,303.600 357.386 C 303.600 357.571,303.917 357.380,304.304 356.961 C 304.692 356.543,305.412 355.975,305.904 355.700 C 306.397 355.425,307.203 354.975,307.696 354.700 C 308.188 354.425,308.884 353.885,309.243 353.500 C 309.601 353.115,310.063 352.800,310.269 352.800 C 310.475 352.800,311.331 352.170,312.172 351.400 C 313.013 350.630,313.852 350.000,314.037 350.000 C 314.222 350.000,315.003 349.370,315.773 348.600 C 316.543 347.830,317.494 347.197,317.887 347.194 C 318.494 347.189,318.510 347.130,318.000 346.800 C 317.476 346.461,317.481 346.411,318.041 346.406 C 318.393 346.403,319.246 345.860,319.937 345.200 C 320.628 344.540,321.385 344.000,321.620 344.000 C 321.855 344.000,321.936 343.820,321.800 343.600 C 321.664 343.380,321.737 343.200,321.963 343.200 C 322.379 343.200,323.881 341.940,327.047 338.936 C 328.011 338.020,328.800 337.387,328.800 337.529 C 328.800 337.671,329.700 336.803,330.800 335.600 C 331.900 334.397,332.803 333.590,332.806 333.807 C 332.809 334.023,333.037 333.750,333.313 333.200 C 333.589 332.650,334.221 332.020,334.718 331.801 C 335.214 331.581,335.834 330.919,336.095 330.329 C 336.356 329.740,336.712 329.345,336.885 329.452 C 337.058 329.560,337.200 329.449,337.200 329.206 C 337.200 328.964,338.190 327.783,339.400 326.583 C 340.610 325.382,341.600 324.313,341.600 324.207 C 341.600 323.991,343.132 322.228,345.100 320.180 C 345.815 319.436,346.403 318.506,346.406 318.113 C 346.411 317.506,346.470 317.490,346.800 318.000 C 347.131 318.513,347.189 318.499,347.194 317.901 C 347.197 317.516,347.920 316.437,348.800 315.503 C 349.680 314.569,350.400 313.618,350.400 313.390 C 350.400 313.163,350.760 312.717,351.200 312.400 C 351.640 312.083,352.000 311.638,352.001 311.412 C 352.001 311.185,352.541 310.370,353.200 309.600 C 353.859 308.830,354.399 307.990,354.399 307.733 C 354.400 307.477,354.535 307.207,354.700 307.133 C 355.153 306.932,357.409 303.837,357.314 303.548 C 357.269 303.409,357.585 302.976,358.016 302.586 C 358.447 302.195,358.800 301.584,358.800 301.226 C 358.800 300.869,359.160 300.317,359.600 300.000 C 360.040 299.683,360.400 299.103,360.400 298.712 C 360.400 298.320,360.580 298.000,360.800 298.000 C 361.020 298.000,361.200 297.722,361.200 297.383 C 361.200 297.044,361.560 296.380,362.000 295.908 C 362.440 295.436,362.800 294.813,362.800 294.525 C 362.800 294.236,362.980 294.000,363.200 294.000 C 363.420 294.000,363.600 293.640,363.600 293.200 C 363.600 292.760,363.780 292.400,364.000 292.400 C 364.220 292.400,364.400 292.040,364.400 291.600 C 364.400 291.160,364.580 290.800,364.800 290.800 C 365.020 290.800,365.200 290.500,365.200 290.133 C 365.200 289.767,365.319 289.585,365.464 289.730 C 365.608 289.875,366.174 289.005,366.721 287.797 C 367.268 286.589,367.869 285.600,368.057 285.600 C 368.246 285.600,368.400 285.139,368.400 284.576 C 368.400 283.996,368.573 283.660,368.800 283.800 C 369.020 283.936,369.200 283.764,369.200 283.418 C 369.200 283.072,369.380 282.432,369.600 281.995 C 369.820 281.558,370.180 280.842,370.400 280.405 C 370.620 279.968,370.800 279.338,370.800 279.005 C 370.800 278.672,370.980 278.400,371.200 278.400 C 371.420 278.400,371.600 278.040,371.600 277.600 C 371.600 277.160,371.780 276.800,372.000 276.800 C 372.220 276.800,372.400 276.440,372.400 276.000 C 372.400 275.560,372.580 275.200,372.800 275.200 C 373.020 275.200,373.200 274.870,373.200 274.467 C 373.200 274.063,373.316 273.617,373.459 273.475 C 373.898 273.035,375.173 269.053,375.187 268.076 C 375.194 267.565,375.378 267.263,375.600 267.400 C 375.834 267.545,376.000 267.130,376.000 266.400 C 376.000 265.670,376.166 265.255,376.400 265.400 C 376.626 265.540,376.800 265.212,376.800 264.647 C 376.800 264.097,376.980 263.536,377.200 263.400 C 377.420 263.264,377.600 262.713,377.600 262.176 C 377.600 261.639,377.780 261.200,378.000 261.200 C 378.220 261.200,378.400 260.748,378.400 260.195 C 378.400 259.642,378.580 258.832,378.800 258.395 C 379.020 257.958,379.380 257.242,379.600 256.805 C 379.820 256.368,380.000 255.659,380.000 255.229 C 380.000 254.799,380.180 254.336,380.400 254.200 C 380.620 254.064,380.800 253.333,380.800 252.576 C 380.800 251.819,380.980 251.200,381.200 251.200 C 381.420 251.200,381.600 250.671,381.600 250.024 C 381.600 249.377,381.780 248.736,382.000 248.600 C 382.220 248.464,382.400 247.543,382.400 246.553 C 382.400 245.455,382.556 244.849,382.800 245.000 C 383.037 245.146,383.200 244.693,383.200 243.890 C 383.200 243.144,383.325 242.408,383.478 242.255 C 383.797 241.936,383.931 241.218,384.063 239.100 C 384.114 238.275,384.301 237.600,384.478 237.600 C 384.655 237.600,384.800 237.006,384.800 236.280 C 384.800 235.554,385.025 234.718,385.300 234.421 C 385.706 233.984,385.688 233.942,385.200 234.200 C 384.712 234.458,384.694 234.416,385.100 233.979 C 385.375 233.682,385.600 232.677,385.600 231.744 C 385.600 230.811,385.780 229.936,386.000 229.800 C 386.220 229.664,386.400 228.429,386.400 227.056 C 386.400 225.683,386.565 224.389,386.766 224.180 C 387.616 223.297,388.441 183.320,387.619 182.812 C 387.419 182.688,387.218 181.060,387.171 179.194 C 387.125 177.327,386.943 175.706,386.768 175.591 C 386.592 175.477,386.408 174.254,386.358 172.874 C 386.308 171.494,386.117 170.272,385.934 170.159 C 385.750 170.046,385.600 168.973,385.600 167.776 C 385.600 166.579,385.420 165.600,385.200 165.600 C 384.980 165.600,384.800 164.715,384.800 163.633 C 384.800 162.552,384.630 161.607,384.421 161.533 C 384.213 161.460,384.000 160.555,383.948 159.522 C 383.896 158.489,383.706 157.735,383.526 157.845 C 383.256 158.013,382.987 155.749,383.153 154.700 C 383.179 154.535,383.020 154.400,382.800 154.400 C 382.580 154.400,382.400 153.669,382.400 152.776 C 382.400 151.796,382.242 151.251,382.000 151.400 C 381.767 151.544,381.600 151.145,381.600 150.447 C 381.600 149.787,381.420 149.136,381.200 149.000 C 380.980 148.864,380.800 148.133,380.800 147.376 C 380.800 146.619,380.620 146.000,380.400 146.000 C 380.180 146.000,380.000 145.359,380.000 144.576 C 380.000 143.729,379.838 143.253,379.600 143.400 C 379.367 143.544,379.200 143.137,379.200 142.424 C 379.200 141.751,379.020 141.200,378.800 141.200 C 378.580 141.200,378.400 140.660,378.400 140.000 C 378.400 139.340,378.220 138.800,378.000 138.800 C 377.780 138.800,377.600 138.260,377.600 137.600 C 377.600 136.940,377.420 136.400,377.200 136.400 C 376.980 136.400,376.800 135.860,376.800 135.200 C 376.800 134.540,376.620 134.000,376.400 134.000 C 376.180 134.000,376.000 133.640,376.000 133.200 C 376.000 132.760,375.820 132.400,375.600 132.400 C 375.380 132.400,375.200 131.943,375.200 131.384 C 375.200 130.825,374.836 129.655,374.392 128.784 C 373.947 127.913,373.713 127.200,373.872 127.200 C 374.030 127.200,373.944 126.984,373.680 126.720 C 373.416 126.456,373.200 125.916,373.200 125.520 C 373.200 125.124,373.020 124.800,372.800 124.800 C 372.580 124.800,372.400 124.451,372.400 124.024 C 372.400 123.597,372.220 123.136,372.000 123.000 C 371.780 122.864,371.600 122.403,371.600 121.976 C 371.600 121.549,371.420 121.200,371.200 121.200 C 370.980 121.200,370.800 120.851,370.800 120.424 C 370.800 119.997,370.620 119.536,370.400 119.400 C 370.180 119.264,370.000 118.803,370.000 118.376 C 370.000 117.949,369.820 117.600,369.600 117.600 C 369.380 117.600,369.200 117.364,369.200 117.075 C 369.200 116.787,368.875 116.202,368.478 115.775 C 367.661 114.899,367.600 114.743,367.600 113.533 C 367.600 113.057,367.482 112.785,367.337 112.930 C 367.192 113.074,366.629 112.294,366.086 111.196 C 365.543 110.098,364.930 109.200,364.725 109.200 C 364.520 109.200,364.455 109.035,364.580 108.832 C 364.705 108.630,364.536 108.193,364.204 107.861 C 363.872 107.529,363.600 106.964,363.600 106.605 C 363.600 106.246,363.420 106.064,363.200 106.200 C 362.973 106.340,362.800 106.004,362.800 105.424 C 362.800 104.861,362.620 104.400,362.400 104.400 C 362.180 104.400,362.000 104.124,362.000 103.787 C 362.000 103.451,361.731 103.072,361.402 102.946 C 361.074 102.819,360.904 102.555,361.026 102.358 C 361.148 102.161,361.057 102.000,360.824 102.000 C 360.591 102.000,360.400 101.764,360.400 101.475 C 360.400 101.187,360.040 100.564,359.600 100.092 C 359.160 99.620,358.800 99.070,358.800 98.871 C 358.800 98.671,358.462 98.079,358.050 97.554 C 357.637 97.029,357.289 96.455,357.277 96.278 C 357.256 95.972,356.217 94.536,354.708 92.726 C 354.328 92.270,354.093 91.773,354.187 91.621 C 354.281 91.470,354.007 91.093,353.579 90.785 C 353.150 90.476,352.800 90.020,352.800 89.771 C 352.800 89.522,352.260 88.754,351.600 88.063 C 350.940 87.372,350.400 86.626,350.400 86.404 C 350.400 86.182,350.220 86.000,350.000 86.000 C 349.780 86.000,349.600 85.802,349.600 85.560 C 349.600 85.319,349.015 84.573,348.300 83.904 C 347.585 83.234,347.057 82.424,347.127 82.103 C 347.199 81.772,347.069 81.634,346.827 81.783 C 346.592 81.929,346.400 81.883,346.400 81.683 C 346.400 81.483,345.860 80.754,345.200 80.063 C 344.540 79.372,344.000 78.615,344.000 78.380 C 344.000 78.145,343.820 78.064,343.600 78.200 C 343.380 78.336,343.197 78.212,343.194 77.924 C 343.191 77.636,341.863 76.005,340.243 74.300 C 338.623 72.595,337.372 71.200,337.462 71.200 C 337.552 71.200,336.724 70.326,335.621 69.258 C 334.519 68.190,333.717 67.217,333.839 67.095 C 333.961 66.973,333.687 66.754,333.230 66.610 C 332.774 66.465,332.400 66.078,332.400 65.749 C 332.400 65.421,332.245 65.249,332.056 65.365 C 331.867 65.482,331.057 64.848,330.256 63.956 C 329.455 63.065,328.800 62.424,328.800 62.534 C 328.800 62.644,328.167 62.118,327.393 61.367 C 326.619 60.615,325.821 60.000,325.620 60.000 C 325.419 60.000,325.151 59.676,325.025 59.279 C 324.899 58.883,324.096 58.118,323.239 57.579 C 322.383 57.041,321.764 56.465,321.865 56.300 C 321.965 56.135,321.857 56.000,321.624 56.000 C 321.391 56.000,320.455 55.276,319.543 54.391 C 318.631 53.506,317.804 52.862,317.706 52.961 C 317.608 53.059,316.929 52.523,316.197 51.770 C 315.465 51.016,314.710 50.400,314.519 50.400 C 314.328 50.400,313.368 49.685,312.386 48.811 C 311.403 47.938,310.385 47.218,310.123 47.211 C 309.860 47.205,309.410 46.885,309.123 46.500 C 308.835 46.115,308.105 45.545,307.500 45.232 C 306.895 44.920,306.400 44.505,306.400 44.309 C 306.400 44.113,306.220 44.064,306.000 44.200 C 305.780 44.336,305.600 44.301,305.600 44.123 C 305.600 43.945,304.790 43.369,303.800 42.844 C 302.810 42.319,302.000 41.734,302.000 41.544 C 302.000 41.355,301.640 41.200,301.200 41.200 C 300.760 41.200,300.400 41.020,300.400 40.800 C 300.400 40.580,300.130 40.400,299.800 40.400 C 299.470 40.400,299.200 40.220,299.200 40.000 C 299.200 39.780,299.012 39.600,298.783 39.600 C 298.554 39.600,297.980 39.240,297.508 38.800 C 297.036 38.360,296.413 38.000,296.125 38.000 C 295.836 38.000,295.600 37.820,295.600 37.600 C 295.600 37.380,295.240 37.200,294.800 37.200 C 294.360 37.200,294.000 37.020,294.000 36.800 C 294.000 36.580,293.722 36.400,293.383 36.400 C 293.044 36.400,292.380 36.040,291.908 35.600 C 291.436 35.160,290.813 34.800,290.525 34.800 C 290.236 34.800,290.000 34.654,290.000 34.475 C 290.000 34.296,289.370 33.902,288.600 33.600 C 287.830 33.298,287.200 32.894,287.200 32.702 C 287.200 32.510,287.035 32.455,286.832 32.580 C 286.630 32.705,286.193 32.536,285.861 32.204 C 285.529 31.872,285.100 31.600,284.908 31.600 C 284.283 31.600,282.406 30.608,282.403 30.276 C 282.401 30.098,282.235 30.055,282.032 30.180 C 281.830 30.305,281.425 30.181,281.132 29.904 C 280.840 29.627,280.240 29.337,279.800 29.260 C 279.360 29.183,278.902 28.963,278.783 28.770 C 278.663 28.578,278.213 28.359,277.783 28.285 C 277.352 28.210,276.190 27.773,275.200 27.313 C 274.210 26.853,273.040 26.414,272.600 26.338 C 272.160 26.262,271.613 25.962,271.385 25.672 C 271.156 25.381,270.796 25.190,270.585 25.246 C 270.373 25.302,269.503 25.045,268.651 24.674 C 267.799 24.303,266.854 24.000,266.551 24.000 C 266.248 24.000,266.000 23.820,266.000 23.600 C 266.000 23.380,265.460 23.200,264.800 23.200 C 264.140 23.200,263.600 23.020,263.600 22.800 C 263.600 22.580,263.060 22.400,262.400 22.400 C 261.740 22.400,261.200 22.220,261.200 22.000 C 261.200 21.780,260.660 21.600,260.000 21.600 C 259.340 21.600,258.800 21.420,258.800 21.200 C 258.800 20.980,258.249 20.800,257.576 20.800 C 256.811 20.800,256.452 20.640,256.617 20.373 C 256.762 20.139,256.637 19.980,256.340 20.021 C 255.196 20.178,253.962 19.986,254.151 19.680 C 254.259 19.504,253.685 19.316,252.874 19.263 C 252.063 19.209,251.340 18.993,251.267 18.782 C 251.193 18.572,250.608 18.400,249.967 18.400 C 249.325 18.400,248.800 18.257,248.800 18.082 C 248.800 17.907,248.125 17.718,247.301 17.663 C 246.476 17.607,245.630 17.390,245.421 17.181 C 245.211 16.971,244.457 16.800,243.744 16.800 C 243.031 16.800,242.336 16.620,242.200 16.400 C 242.064 16.180,241.189 16.000,240.256 16.000 C 239.323 16.000,238.389 15.838,238.180 15.641 C 237.971 15.444,237.080 15.179,236.200 15.053 C 235.320 14.926,233.430 14.632,232.000 14.398 C 226.899 13.563,223.757 13.155,220.800 12.944 C 219.150 12.827,217.593 12.559,217.339 12.349 C 217.035 12.097,216.807 12.143,216.670 12.483 C 216.529 12.836,216.453 12.849,216.432 12.525 C 216.391 11.920,184.133 11.800,183.200 12.401 M214.400 39.829 C 214.950 39.957,216.624 40.122,218.121 40.196 C 219.617 40.270,221.147 40.466,221.521 40.631 C 222.469 41.050,222.180 41.009,226.696 41.352 C 228.949 41.524,230.894 41.829,231.020 42.032 C 231.145 42.234,232.057 42.400,233.047 42.400 C 234.145 42.400,234.751 42.556,234.600 42.800 C 234.449 43.044,235.063 43.200,236.176 43.200 C 237.179 43.200,238.000 43.380,238.000 43.600 C 238.000 43.820,238.720 44.000,239.600 44.000 C 240.480 44.000,241.200 44.180,241.200 44.400 C 241.200 44.620,241.729 44.800,242.376 44.800 C 243.023 44.800,243.664 44.980,243.800 45.200 C 243.936 45.420,244.566 45.600,245.200 45.600 C 245.834 45.600,246.464 45.780,246.600 46.000 C 246.736 46.220,247.377 46.400,248.024 46.400 C 248.671 46.400,249.200 46.580,249.200 46.800 C 249.200 47.020,249.650 47.200,250.200 47.200 C 250.750 47.200,251.200 47.380,251.200 47.600 C 251.200 47.820,251.740 48.000,252.400 48.000 C 253.060 48.000,253.600 48.147,253.600 48.328 C 253.600 48.508,254.500 48.900,255.600 49.200 C 256.700 49.500,257.600 49.892,257.600 50.072 C 257.600 50.253,258.140 50.400,258.800 50.400 C 259.460 50.400,260.000 50.580,260.000 50.800 C 260.000 51.020,260.360 51.200,260.800 51.200 C 261.240 51.200,261.600 51.380,261.600 51.600 C 261.600 51.820,261.949 52.000,262.376 52.000 C 262.803 52.000,263.264 52.180,263.400 52.400 C 263.536 52.620,263.997 52.800,264.424 52.800 C 264.851 52.800,265.200 52.980,265.200 53.200 C 265.200 53.420,265.472 53.600,265.805 53.600 C 266.526 53.600,267.671 54.130,271.058 56.032 C 271.799 56.449,272.450 56.791,272.503 56.792 C 272.989 56.803,275.200 57.839,275.200 58.056 C 275.200 58.210,275.740 58.455,276.400 58.600 C 277.060 58.745,277.600 59.029,277.600 59.232 C 277.600 59.434,277.887 59.600,278.238 59.600 C 278.892 59.600,281.294 61.120,281.533 61.686 C 281.607 61.858,282.012 62.000,282.433 62.000 C 282.855 62.000,283.200 62.180,283.200 62.400 C 283.200 62.620,283.481 62.800,283.824 62.800 C 284.167 62.800,284.336 62.980,284.200 63.200 C 284.064 63.420,284.323 63.600,284.776 63.600 C 285.229 63.600,285.600 63.780,285.600 64.000 C 285.600 64.220,285.971 64.400,286.424 64.400 C 286.877 64.400,287.136 64.580,287.000 64.800 C 286.864 65.020,287.033 65.200,287.376 65.200 C 287.719 65.200,288.000 65.358,288.000 65.551 C 288.000 65.745,288.540 66.127,289.200 66.400 C 289.860 66.673,290.400 67.055,290.400 67.249 C 290.400 67.442,290.625 67.601,290.900 67.602 C 291.175 67.603,291.975 68.143,292.678 68.802 C 293.381 69.461,294.103 70.000,294.282 70.000 C 294.462 70.000,295.093 70.450,295.687 71.000 C 296.280 71.550,296.861 72.000,296.979 72.000 C 297.231 72.000,300.466 74.396,302.237 75.893 L 303.474 76.940 302.288 78.170 C 301.636 78.846,300.945 79.355,300.751 79.300 C 300.558 79.245,300.445 79.425,300.500 79.700 C 300.555 79.975,300.375 80.155,300.100 80.100 C 299.825 80.045,299.645 80.225,299.700 80.500 C 299.755 80.775,299.575 80.955,299.300 80.900 C 299.025 80.845,298.845 80.935,298.900 81.100 C 298.955 81.265,298.842 81.434,298.649 81.475 C 298.457 81.516,298.082 81.966,297.817 82.475 C 297.552 82.984,297.124 83.355,296.867 83.300 C 296.610 83.245,296.445 83.425,296.500 83.700 C 296.555 83.975,296.375 84.155,296.100 84.100 C 295.825 84.045,295.644 84.135,295.699 84.300 C 295.828 84.692,284.692 95.828,284.300 95.699 C 284.135 95.644,284.045 95.825,284.100 96.100 C 284.155 96.375,283.975 96.555,283.700 96.500 C 283.425 96.445,283.245 96.610,283.300 96.867 C 283.355 97.124,282.984 97.552,282.475 97.817 C 281.966 98.082,281.516 98.457,281.475 98.649 C 281.434 98.842,281.265 98.955,281.100 98.900 C 280.935 98.845,280.845 99.025,280.900 99.300 C 280.955 99.575,280.775 99.755,280.500 99.700 C 280.225 99.645,280.045 99.825,280.100 100.100 C 280.155 100.375,279.975 100.555,279.700 100.500 C 279.425 100.445,279.244 100.535,279.299 100.700 C 279.428 101.092,267.492 113.028,267.100 112.899 C 266.935 112.844,266.845 113.010,266.900 113.267 C 266.955 113.524,266.584 113.952,266.075 114.217 C 265.566 114.482,265.161 114.812,265.175 114.949 C 265.189 115.087,265.087 115.189,264.949 115.175 C 264.812 115.161,264.482 115.566,264.217 116.075 C 263.952 116.584,263.524 116.955,263.267 116.900 C 263.010 116.845,262.844 116.935,262.899 117.100 C 263.028 117.492,251.092 129.428,250.700 129.299 C 250.535 129.244,250.421 129.335,250.447 129.500 C 250.762 131.493,250.249 132.084,234.953 147.367 C 226.457 155.855,219.379 162.800,219.224 162.800 C 219.069 162.800,217.448 164.375,215.621 166.300 C 213.795 168.225,206.810 175.290,200.098 182.000 C 185.355 196.741,190.511 191.571,155.061 227.152 C 125.779 256.543,125.023 257.269,124.700 256.300 C 124.605 256.016,123.000 257.355,120.985 259.400 C 119.034 261.380,117.294 262.955,117.119 262.900 C 116.943 262.845,116.845 263.010,116.900 263.267 C 116.955 263.524,116.584 263.952,116.075 264.217 C 115.566 264.482,115.161 264.812,115.175 264.949 C 115.189 265.087,115.087 265.189,114.949 265.175 C 114.812 265.161,114.482 265.566,114.217 266.075 C 113.952 266.584,113.524 266.955,113.267 266.900 C 113.010 266.845,112.844 266.935,112.899 267.100 C 113.028 267.492,101.092 279.428,100.700 279.299 C 100.535 279.244,100.445 279.425,100.500 279.700 C 100.555 279.975,100.375 280.155,100.100 280.100 C 99.825 280.045,99.645 280.225,99.700 280.500 C 99.755 280.775,99.575 280.955,99.300 280.900 C 99.025 280.845,98.845 280.935,98.900 281.100 C 98.955 281.265,98.842 281.434,98.649 281.475 C 98.457 281.516,98.082 281.966,97.817 282.475 C 97.552 282.984,97.124 283.355,96.867 283.300 C 96.610 283.245,96.445 283.425,96.500 283.700 C 96.555 283.975,96.375 284.155,96.100 284.100 C 95.825 284.045,95.644 284.135,95.699 284.300 C 95.828 284.692,84.692 295.828,84.300 295.699 C 84.135 295.644,84.045 295.825,84.100 296.100 C 84.155 296.375,83.975 296.555,83.700 296.500 C 83.425 296.445,83.245 296.610,83.300 296.867 C 83.355 297.124,82.984 297.552,82.475 297.817 C 81.966 298.082,81.516 298.457,81.475 298.649 C 81.434 298.842,81.265 298.955,81.100 298.900 C 80.935 298.845,80.845 299.025,80.900 299.300 C 80.955 299.575,80.775 299.755,80.500 299.700 C 80.225 299.645,80.045 299.825,80.100 300.100 C 80.155 300.375,79.975 300.555,79.700 300.500 C 79.425 300.445,79.245 300.558,79.300 300.751 C 79.355 300.945,78.849 301.634,78.174 302.284 L 76.949 303.465 76.029 302.432 C 75.523 301.865,75.100 301.220,75.089 301.000 C 75.079 300.780,74.381 299.880,73.539 299.000 C 72.697 298.120,72.007 297.257,72.004 297.083 C 72.002 296.908,71.541 296.278,70.981 295.683 C 70.420 295.087,69.577 293.925,69.107 293.100 C 68.637 292.275,68.106 291.600,67.926 291.600 C 67.747 291.600,67.600 291.396,67.600 291.147 C 67.600 290.898,67.284 290.403,66.897 290.047 C 66.511 289.691,65.940 288.905,65.630 288.300 C 65.319 287.695,64.915 287.200,64.732 287.200 C 64.550 287.200,64.400 286.855,64.400 286.433 C 64.400 286.012,64.233 285.607,64.030 285.533 C 63.826 285.460,63.601 285.130,63.530 284.800 C 63.458 284.470,63.129 283.930,62.797 283.600 C 62.466 283.270,61.940 282.505,61.630 281.900 C 61.319 281.295,60.915 280.800,60.732 280.800 C 60.550 280.800,60.400 280.440,60.400 280.000 C 60.400 279.560,60.220 279.200,60.000 279.200 C 59.780 279.200,59.600 278.855,59.600 278.433 C 59.600 278.012,59.465 277.607,59.300 277.533 C 58.925 277.367,54.400 268.183,54.400 267.588 C 54.400 267.349,54.258 267.240,54.085 267.348 C 53.912 267.455,53.730 267.060,53.681 266.471 C 53.633 265.882,53.415 265.340,53.197 265.267 C 52.978 265.193,52.800 264.803,52.800 264.400 C 52.800 263.997,52.636 263.607,52.437 263.533 C 52.237 263.460,52.012 263.040,51.937 262.600 C 51.861 262.160,51.573 261.560,51.296 261.268 C 51.019 260.975,50.895 260.570,51.020 260.368 C 51.145 260.165,51.057 260.000,50.824 260.000 C 50.591 260.000,50.400 259.561,50.400 259.024 C 50.400 258.487,50.220 257.936,50.000 257.800 C 49.780 257.664,49.600 257.203,49.600 256.776 C 49.600 256.349,49.420 256.000,49.200 256.000 C 48.980 256.000,48.800 255.561,48.800 255.024 C 48.800 254.487,48.620 253.936,48.400 253.800 C 48.180 253.664,48.000 253.124,48.000 252.600 C 48.000 252.076,47.820 251.536,47.600 251.400 C 47.380 251.264,47.200 250.724,47.200 250.200 C 47.200 249.676,47.020 249.136,46.800 249.000 C 46.580 248.864,46.400 248.324,46.400 247.800 C 46.400 247.276,46.220 246.736,46.000 246.600 C 45.780 246.464,45.600 245.924,45.600 245.400 C 45.600 244.876,45.420 244.336,45.200 244.200 C 44.980 244.064,44.800 243.333,44.800 242.576 C 44.800 241.819,44.620 241.200,44.400 241.200 C 44.180 241.200,44.000 240.480,44.000 239.600 C 44.000 238.720,43.820 238.000,43.600 238.000 C 43.380 238.000,43.200 237.280,43.200 236.400 C 43.200 235.520,43.020 234.800,42.800 234.800 C 42.580 234.800,42.400 233.915,42.400 232.833 C 42.400 231.752,42.240 230.807,42.045 230.733 C 41.725 230.613,41.482 228.988,41.070 224.200 C 40.994 223.320,40.814 222.150,40.669 221.600 C 40.525 221.050,40.351 219.516,40.283 218.191 C 40.215 216.866,40.025 215.564,39.860 215.297 C 39.480 214.682,39.418 186.217,39.796 185.607 C 39.950 185.357,40.149 184.039,40.238 182.677 C 40.327 181.314,40.519 179.390,40.666 178.400 C 40.948 176.486,41.044 175.658,41.444 171.700 C 41.583 170.325,41.855 169.200,42.048 169.200 C 42.242 169.200,42.400 168.311,42.400 167.224 C 42.400 166.137,42.580 165.136,42.800 165.000 C 43.020 164.864,43.200 164.144,43.200 163.400 C 43.200 162.656,43.380 161.936,43.600 161.800 C 43.820 161.664,44.000 160.933,44.000 160.176 C 44.000 159.419,44.180 158.800,44.400 158.800 C 44.620 158.800,44.800 158.181,44.800 157.424 C 44.800 156.667,44.980 155.936,45.200 155.800 C 45.420 155.664,45.600 155.013,45.600 154.353 C 45.600 153.655,45.767 153.256,46.000 153.400 C 46.234 153.544,46.400 153.136,46.400 152.418 C 46.400 151.742,46.580 150.832,46.800 150.395 C 47.020 149.958,47.380 149.242,47.600 148.805 C 47.820 148.368,48.000 147.659,48.000 147.229 C 48.000 146.799,48.180 146.336,48.400 146.200 C 48.620 146.064,48.800 145.631,48.800 145.238 C 48.800 144.845,49.050 144.000,49.356 143.361 C 49.980 142.060,51.123 139.416,51.587 138.200 C 52.073 136.929,52.980 135.018,53.201 134.800 C 53.313 134.690,53.654 133.880,53.959 133.000 C 54.263 132.120,54.622 131.310,54.756 131.200 C 55.035 130.971,58.140 124.738,58.176 124.333 C 58.189 124.187,58.335 123.932,58.500 123.767 C 58.665 123.602,58.800 123.137,58.800 122.733 C 58.800 122.330,58.980 122.000,59.200 122.000 C 59.420 122.000,59.600 121.730,59.600 121.400 C 59.600 121.070,59.780 120.800,60.000 120.800 C 60.220 120.800,60.400 120.440,60.400 120.000 C 60.400 119.560,60.580 119.200,60.800 119.200 C 61.020 119.200,61.200 118.919,61.200 118.576 C 61.200 118.233,61.380 118.064,61.600 118.200 C 61.820 118.336,62.000 118.149,62.000 117.785 C 62.000 117.114,63.510 114.711,64.086 114.467 C 64.258 114.393,64.400 114.028,64.400 113.655 C 64.400 113.282,64.750 112.724,65.179 112.415 C 65.607 112.107,65.873 111.719,65.771 111.553 C 65.669 111.387,66.038 110.798,66.592 110.244 C 67.147 109.690,67.600 109.048,67.600 108.818 C 67.600 108.588,67.750 108.400,67.932 108.400 C 68.115 108.400,68.514 107.905,68.819 107.300 C 69.124 106.695,69.778 105.750,70.272 105.200 C 71.633 103.685,74.000 100.434,74.000 100.080 C 74.000 99.908,74.630 99.099,75.400 98.282 C 76.170 97.466,76.800 96.608,76.800 96.375 C 76.800 96.143,76.953 96.047,77.140 96.163 C 77.327 96.278,77.732 95.888,78.040 95.296 C 78.705 94.018,95.038 77.600,95.644 77.600 C 95.874 77.600,96.770 76.864,97.634 75.964 C 98.499 75.064,99.474 74.289,99.802 74.241 C 100.130 74.193,100.749 73.804,101.180 73.377 C 102.463 72.102,103.142 71.600,103.583 71.600 C 103.812 71.600,104.000 71.420,104.000 71.200 C 104.000 70.980,104.230 70.800,104.512 70.800 C 104.793 70.800,105.283 70.440,105.600 70.000 C 105.917 69.560,106.362 69.200,106.588 69.200 C 106.815 69.199,107.480 68.794,108.066 68.300 C 108.653 67.805,109.510 67.085,109.971 66.700 C 110.432 66.315,111.037 66.000,111.316 66.000 C 111.595 66.000,112.083 65.640,112.400 65.200 C 112.717 64.760,113.297 64.400,113.688 64.400 C 114.080 64.400,114.400 64.220,114.400 64.000 C 114.400 63.780,114.636 63.600,114.925 63.600 C 115.213 63.600,115.836 63.240,116.308 62.800 C 116.780 62.360,117.455 62.000,117.807 62.000 C 118.159 62.000,118.336 61.820,118.200 61.600 C 118.064 61.380,118.233 61.200,118.576 61.200 C 118.919 61.200,119.200 61.020,119.200 60.800 C 119.200 60.580,119.560 60.400,120.000 60.400 C 120.440 60.400,120.800 60.262,120.800 60.094 C 120.800 59.796,123.604 58.436,124.000 58.543 C 124.110 58.573,124.740 58.222,125.400 57.764 C 126.060 57.307,127.500 56.525,128.600 56.027 C 129.700 55.530,131.428 54.693,132.441 54.169 C 133.453 53.644,134.398 53.331,134.541 53.474 C 134.683 53.617,134.800 53.523,134.800 53.267 C 134.800 53.010,135.160 52.800,135.600 52.800 C 136.040 52.800,136.400 52.620,136.400 52.400 C 136.400 52.180,136.861 52.000,137.424 52.000 C 138.004 52.000,138.340 51.827,138.200 51.600 C 138.059 51.372,138.404 51.200,139.000 51.200 C 139.613 51.200,139.942 51.030,139.794 50.790 C 139.655 50.565,139.689 50.406,139.870 50.437 C 140.931 50.622,142.412 50.343,142.200 50.000 C 142.060 49.773,142.396 49.600,142.976 49.600 C 143.539 49.600,144.000 49.420,144.000 49.200 C 144.000 48.980,144.439 48.800,144.976 48.800 C 145.513 48.800,146.064 48.620,146.200 48.400 C 146.336 48.180,146.987 48.000,147.647 48.000 C 148.345 48.000,148.744 47.833,148.600 47.600 C 148.456 47.367,148.855 47.200,149.553 47.200 C 150.213 47.200,150.864 47.020,151.000 46.800 C 151.136 46.580,151.777 46.400,152.424 46.400 C 153.071 46.400,153.600 46.220,153.600 46.000 C 153.600 45.780,154.039 45.600,154.576 45.600 C 155.113 45.600,155.664 45.420,155.800 45.200 C 155.936 44.980,156.667 44.800,157.424 44.800 C 158.181 44.800,158.800 44.620,158.800 44.400 C 158.800 44.180,159.419 44.000,160.176 44.000 C 160.933 44.000,161.664 43.820,161.800 43.600 C 161.936 43.380,162.757 43.200,163.624 43.200 C 164.491 43.200,165.200 43.020,165.200 42.800 C 165.200 42.580,166.100 42.400,167.200 42.400 C 168.300 42.400,169.200 42.236,169.200 42.036 C 169.200 41.835,170.325 41.575,171.700 41.457 C 173.075 41.339,174.830 41.157,175.600 41.051 C 176.370 40.946,177.900 40.758,179.000 40.633 C 180.100 40.508,181.900 40.292,183.000 40.153 C 188.508 39.457,211.767 39.217,214.400 39.829 M324.134 97.631 C 324.525 98.088,325.047 98.903,325.292 99.443 C 325.617 100.156,325.827 100.284,326.063 99.911 C 326.287 99.558,326.390 99.669,326.394 100.267 C 326.397 100.743,326.535 101.193,326.700 101.267 C 327.186 101.482,329.200 104.308,329.200 104.773 C 329.200 105.008,329.380 105.200,329.600 105.200 C 329.820 105.200,330.000 105.404,330.000 105.653 C 330.000 105.902,330.322 106.397,330.715 106.753 C 331.108 107.109,332.004 108.300,332.705 109.400 C 333.405 110.500,334.164 111.617,334.389 111.883 C 334.615 112.149,334.800 112.584,334.800 112.850 C 334.800 113.116,334.917 113.216,335.061 113.073 C 335.343 112.791,336.400 114.595,336.400 115.357 C 336.400 115.614,336.760 116.083,337.200 116.400 C 337.640 116.717,338.000 117.297,338.000 117.688 C 338.000 118.080,338.136 118.400,338.302 118.400 C 338.469 118.400,338.844 118.941,339.137 119.602 C 339.430 120.264,339.834 120.703,340.035 120.579 C 340.355 120.381,340.585 121.229,340.447 122.100 C 340.421 122.265,340.580 122.400,340.800 122.400 C 341.020 122.400,341.200 122.670,341.200 123.000 C 341.200 123.330,341.380 123.600,341.600 123.600 C 341.820 123.600,342.000 123.865,342.000 124.188 C 342.000 124.511,342.357 125.411,342.793 126.188 C 343.229 126.965,343.502 127.600,343.400 127.600 C 343.298 127.600,343.571 128.235,344.007 129.012 C 344.443 129.789,344.800 130.689,344.800 131.012 C 344.800 131.335,344.980 131.600,345.200 131.600 C 345.420 131.600,345.600 131.960,345.600 132.400 C 345.600 132.840,345.780 133.200,346.000 133.200 C 346.220 133.200,346.400 133.560,346.400 134.000 C 346.400 134.440,346.544 134.800,346.720 134.800 C 346.895 134.800,347.272 135.475,347.557 136.300 C 348.427 138.822,348.981 140.000,349.298 140.000 C 349.464 140.000,349.600 140.540,349.600 141.200 C 349.600 141.860,349.780 142.400,350.000 142.400 C 350.220 142.400,350.400 142.850,350.400 143.400 C 350.400 143.950,350.580 144.400,350.800 144.400 C 351.020 144.400,351.200 144.850,351.200 145.400 C 351.200 145.950,351.380 146.400,351.600 146.400 C 351.820 146.400,352.000 146.940,352.000 147.600 C 352.000 148.260,352.180 148.800,352.400 148.800 C 352.620 148.800,352.800 149.340,352.800 150.000 C 352.800 150.660,352.980 151.200,353.200 151.200 C 353.420 151.200,353.600 151.740,353.600 152.400 C 353.600 153.060,353.780 153.600,354.000 153.600 C 354.220 153.600,354.400 154.039,354.400 154.576 C 354.400 155.113,354.580 155.664,354.800 155.800 C 355.020 155.936,355.200 156.746,355.200 157.600 C 355.200 158.454,355.380 159.264,355.600 159.400 C 355.820 159.536,356.000 160.177,356.000 160.824 C 356.000 161.471,356.180 162.000,356.400 162.000 C 356.620 162.000,356.803 162.945,356.806 164.100 C 356.811 165.603,356.922 166.030,357.200 165.600 C 357.475 165.174,357.590 165.667,357.594 167.300 C 357.597 168.565,357.780 169.600,358.000 169.600 C 358.220 169.600,358.400 170.320,358.400 171.200 C 358.400 172.196,358.589 172.812,358.900 172.832 C 359.275 172.855,359.280 172.912,358.920 173.058 C 358.576 173.198,358.550 173.542,358.829 174.277 C 359.043 174.840,359.177 175.919,359.126 176.675 C 359.075 177.431,359.206 178.173,359.417 178.325 C 359.627 178.476,359.800 179.995,359.800 181.700 C 359.800 183.405,359.911 184.800,360.047 184.800 C 360.348 184.800,360.486 189.573,360.492 200.200 C 360.497 210.426,360.355 215.200,360.046 215.200 C 359.911 215.200,359.800 216.655,359.800 218.434 C 359.800 220.213,359.611 221.825,359.379 222.017 C 359.148 222.209,359.000 223.271,359.051 224.377 C 359.102 225.483,358.976 226.491,358.772 226.618 C 358.567 226.744,358.400 227.726,358.400 228.800 C 358.400 229.874,358.220 230.864,358.000 231.000 C 357.780 231.136,357.600 232.047,357.600 233.024 C 357.600 234.001,357.420 234.800,357.200 234.800 C 356.980 234.800,356.800 235.520,356.800 236.400 C 356.800 237.280,356.620 238.000,356.400 238.000 C 356.180 238.000,356.000 238.720,356.000 239.600 C 356.000 240.480,355.820 241.200,355.600 241.200 C 355.380 241.200,355.200 241.740,355.200 242.400 C 355.200 243.060,355.020 243.600,354.800 243.600 C 354.580 243.600,354.400 244.230,354.400 245.000 C 354.400 245.770,354.220 246.400,354.000 246.400 C 353.780 246.400,353.600 246.940,353.600 247.600 C 353.600 248.260,353.420 248.800,353.200 248.800 C 352.980 248.800,352.800 249.340,352.800 250.000 C 352.800 250.660,352.620 251.200,352.400 251.200 C 352.180 251.200,352.000 251.740,352.000 252.400 C 352.000 253.060,351.820 253.600,351.600 253.600 C 351.380 253.600,351.200 254.140,351.200 254.800 C 351.200 255.460,351.020 256.000,350.800 256.000 C 350.580 256.000,350.400 256.450,350.400 257.000 C 350.400 257.550,350.220 258.000,350.000 258.000 C 349.780 258.000,349.600 258.450,349.600 259.000 C 349.600 259.550,349.420 260.000,349.200 260.000 C 348.980 260.000,348.800 260.272,348.800 260.605 C 348.800 260.938,348.636 261.523,348.436 261.905 C 347.761 263.194,345.600 268.034,345.600 268.256 C 345.600 268.377,345.205 269.032,344.721 269.710 C 344.238 270.389,344.052 270.815,344.309 270.657 C 344.565 270.498,344.285 271.321,343.687 272.484 C 343.089 273.648,342.465 274.660,342.300 274.733 C 342.135 274.807,342.000 275.212,342.000 275.633 C 342.000 276.055,341.854 276.400,341.675 276.400 C 341.496 276.400,341.102 277.030,340.800 277.800 C 340.498 278.570,340.104 279.200,339.925 279.200 C 339.746 279.200,339.600 279.560,339.600 280.000 C 339.600 280.440,339.420 280.800,339.200 280.800 C 338.980 280.800,338.800 281.070,338.800 281.400 C 338.800 281.730,338.620 282.000,338.400 282.000 C 338.180 282.000,338.000 282.193,338.000 282.429 C 338.000 282.664,337.728 283.129,337.396 283.461 C 337.064 283.793,336.912 284.258,337.058 284.494 C 337.215 284.749,337.136 284.807,336.862 284.638 C 336.588 284.469,336.400 284.607,336.400 284.976 C 336.400 285.319,336.220 285.600,336.000 285.600 C 335.780 285.600,335.600 285.920,335.600 286.312 C 335.600 286.703,335.240 287.283,334.800 287.600 C 334.360 287.917,334.000 288.497,334.000 288.888 C 334.000 289.280,333.850 289.600,333.668 289.600 C 333.485 289.600,333.080 290.095,332.768 290.700 C 332.455 291.305,331.885 292.035,331.500 292.323 C 331.115 292.610,330.800 293.065,330.800 293.334 C 330.800 293.603,330.440 294.083,330.000 294.400 C 329.560 294.717,329.200 295.167,329.200 295.399 C 329.200 295.632,328.670 296.402,328.023 297.111 C 327.375 297.820,326.970 298.404,327.123 298.409 C 327.275 298.414,327.006 298.729,326.524 299.109 C 326.043 299.489,325.593 300.062,325.524 300.383 C 325.456 300.703,324.545 301.837,323.500 302.902 C 322.455 303.967,321.600 305.000,321.600 305.198 C 321.600 305.908,305.166 322.026,304.722 321.752 C 304.452 321.585,304.389 321.658,304.562 321.938 C 304.719 322.192,304.678 322.400,304.472 322.400 C 304.265 322.400,303.385 323.075,302.516 323.900 C 301.647 324.725,300.680 325.453,300.368 325.517 C 300.056 325.581,299.485 326.006,299.100 326.461 C 298.715 326.916,298.400 327.172,298.400 327.029 C 298.400 326.885,298.149 327.001,297.842 327.284 C 297.535 327.568,297.383 327.963,297.504 328.162 C 297.625 328.361,297.536 328.408,297.307 328.266 C 297.078 328.125,296.668 328.277,296.396 328.604 C 296.124 328.932,295.643 329.200,295.327 329.200 C 295.011 329.200,294.864 329.380,295.000 329.600 C 295.136 329.820,294.967 330.000,294.624 330.000 C 294.281 330.000,294.000 330.180,294.000 330.400 C 294.000 330.620,293.732 330.800,293.403 330.800 C 293.075 330.800,292.582 331.160,292.307 331.600 C 292.032 332.040,291.531 332.400,291.192 332.400 C 290.854 332.400,290.317 332.760,290.000 333.200 C 289.683 333.640,289.227 334.000,288.987 334.000 C 288.747 334.000,288.202 334.315,287.775 334.701 C 287.349 335.086,286.145 335.834,285.100 336.363 C 284.055 336.893,283.200 337.477,283.200 337.663 C 283.200 337.848,282.829 338.000,282.376 338.000 C 281.923 338.000,281.644 338.147,281.755 338.327 C 281.866 338.507,281.337 338.879,280.579 339.153 C 279.820 339.427,279.200 339.787,279.200 339.951 C 279.200 340.116,278.578 340.495,277.818 340.793 C 277.058 341.091,276.529 341.485,276.642 341.668 C 276.755 341.850,276.387 342.000,275.824 342.000 C 275.261 342.000,274.800 342.180,274.800 342.400 C 274.800 342.620,274.528 342.800,274.195 342.800 C 273.536 342.800,272.244 343.454,271.031 344.400 C 270.608 344.730,270.390 344.782,270.546 344.515 C 270.701 344.248,270.067 344.463,269.137 344.991 C 268.207 345.519,267.300 345.862,267.123 345.752 C 266.945 345.643,266.800 345.711,266.800 345.905 C 266.800 346.264,264.200 347.509,261.500 348.442 C 260.675 348.727,260.000 349.105,260.000 349.280 C 260.000 349.456,259.460 349.600,258.800 349.600 C 258.140 349.600,257.600 349.780,257.600 350.000 C 257.600 350.220,257.240 350.400,256.800 350.400 C 256.360 350.400,256.000 350.580,256.000 350.800 C 256.000 351.020,255.460 351.200,254.800 351.200 C 254.140 351.200,253.600 351.380,253.600 351.600 C 253.600 351.820,253.060 352.000,252.400 352.000 C 251.740 352.000,251.200 352.180,251.200 352.400 C 251.200 352.620,250.675 352.800,250.033 352.800 C 249.392 352.800,248.799 353.002,248.717 353.250 C 248.634 353.497,248.079 353.700,247.483 353.700 C 246.888 353.700,246.400 353.858,246.400 354.050 C 246.400 354.243,245.770 354.400,245.000 354.400 C 244.230 354.400,243.600 354.580,243.600 354.800 C 243.600 355.020,243.060 355.200,242.400 355.200 C 241.740 355.200,241.200 355.380,241.200 355.600 C 241.200 355.820,240.480 356.000,239.600 356.000 C 238.720 356.000,238.000 356.180,238.000 356.400 C 238.000 356.620,237.190 356.800,236.200 356.800 C 235.210 356.800,234.400 356.980,234.400 357.200 C 234.400 357.420,233.691 357.600,232.824 357.600 C 231.957 357.600,231.149 357.758,231.030 357.951 C 230.808 358.310,227.132 358.830,224.132 358.927 C 223.215 358.957,222.549 359.118,222.653 359.286 C 222.757 359.454,222.562 359.484,222.221 359.353 C 221.879 359.222,221.600 359.269,221.600 359.457 C 221.600 359.646,220.205 359.797,218.500 359.794 C 216.795 359.790,215.125 359.910,214.790 360.060 C 213.719 360.538,200.496 360.685,191.600 360.319 C 179.501 359.821,179.029 359.789,178.446 359.428 C 178.159 359.251,176.859 359.106,175.557 359.106 C 174.254 359.106,173.091 358.947,172.971 358.753 C 172.851 358.559,171.964 358.400,171.000 358.400 C 170.036 358.400,169.136 358.220,169.000 358.000 C 168.864 357.780,167.953 357.600,166.976 357.600 C 165.999 357.600,165.200 357.420,165.200 357.200 C 165.200 356.980,164.480 356.800,163.600 356.800 C 162.720 356.800,162.000 356.620,162.000 356.400 C 162.000 356.180,161.179 356.000,160.176 356.000 C 159.063 356.000,158.449 355.844,158.600 355.600 C 158.747 355.361,158.263 355.200,157.400 355.200 C 156.537 355.200,156.053 355.039,156.200 354.800 C 156.347 354.562,155.871 354.400,155.024 354.400 C 154.241 354.400,153.600 354.220,153.600 354.000 C 153.600 353.780,152.959 353.600,152.176 353.600 C 151.329 353.600,150.853 353.438,151.000 353.200 C 151.147 352.962,150.679 352.800,149.847 352.800 C 149.077 352.800,148.336 352.620,148.200 352.400 C 148.064 352.180,147.603 352.000,147.176 352.000 C 146.749 352.000,146.400 351.820,146.400 351.600 C 146.400 351.380,145.860 351.200,145.200 351.200 C 144.540 351.200,144.000 351.020,144.000 350.800 C 144.000 350.580,143.721 350.400,143.381 350.400 C 143.040 350.400,142.016 350.040,141.106 349.600 C 140.195 349.160,139.214 348.800,138.925 348.800 C 138.636 348.800,138.400 348.620,138.400 348.400 C 138.400 348.180,137.860 348.000,137.200 348.000 C 136.540 348.000,136.000 347.820,136.000 347.600 C 136.000 347.380,135.730 347.200,135.400 347.200 C 135.070 347.200,134.800 347.020,134.800 346.800 C 134.800 346.580,134.361 346.400,133.824 346.400 C 133.287 346.400,132.728 346.208,132.583 345.973 C 132.438 345.738,132.069 345.641,131.764 345.758 C 131.459 345.875,131.252 345.777,131.305 345.540 C 131.357 345.303,130.957 345.035,130.415 344.944 C 129.873 344.853,129.018 344.392,128.515 343.920 C 128.012 343.447,127.600 343.218,127.600 343.410 C 127.600 343.603,127.384 343.544,127.120 343.280 C 126.856 343.016,126.316 342.800,125.920 342.800 C 125.524 342.800,125.199 342.665,125.197 342.500 C 125.193 342.135,123.251 341.200,122.497 341.200 C 122.198 341.200,122.064 341.020,122.200 340.800 C 122.336 340.580,122.077 340.400,121.624 340.400 C 121.171 340.400,120.800 340.220,120.800 340.000 C 120.800 339.780,120.440 339.600,120.000 339.600 C 119.560 339.600,119.200 339.420,119.200 339.200 C 119.200 338.980,118.919 338.800,118.576 338.800 C 118.233 338.800,118.064 338.620,118.200 338.400 C 118.336 338.180,118.077 338.000,117.624 338.000 C 117.171 338.000,116.800 337.820,116.800 337.600 C 116.800 337.380,116.564 337.200,116.275 337.200 C 115.987 337.200,115.364 336.840,114.892 336.400 C 114.420 335.960,113.822 335.600,113.564 335.600 C 113.305 335.600,112.803 335.268,112.447 334.863 C 112.091 334.457,111.350 333.888,110.800 333.598 C 109.649 332.990,106.741 330.792,106.306 330.200 C 106.144 329.980,106.009 329.960,106.006 330.155 C 106.003 330.350,105.525 330.035,104.945 329.455 C 104.365 328.875,103.745 328.400,103.566 328.400 C 103.387 328.400,102.737 327.953,102.121 327.406 C 100.403 325.883,100.221 325.746,99.175 325.191 C 98.380 324.770,96.800 323.312,96.800 323.000 C 96.800 322.957,97.160 322.507,97.600 322.000 C 98.040 321.493,98.400 321.208,98.400 321.367 C 98.400 321.527,98.670 321.387,99.000 321.057 C 99.330 320.727,99.600 320.274,99.600 320.051 C 99.600 319.828,100.140 319.326,100.800 318.936 C 101.460 318.546,102.000 317.991,102.000 317.701 C 102.000 317.412,102.315 317.056,102.700 316.910 C 103.645 316.552,104.419 315.752,104.114 315.448 C 103.978 315.311,104.167 315.200,104.533 315.200 C 104.900 315.200,105.200 315.052,105.200 314.872 C 105.200 314.691,107.360 312.356,110.000 309.682 C 112.640 307.008,114.800 304.914,114.800 305.029 C 114.800 305.428,116.641 303.392,116.907 302.699 C 117.054 302.315,117.412 302.000,117.701 302.000 C 117.991 302.000,118.546 301.460,118.936 300.800 C 119.326 300.140,119.828 299.600,120.051 299.600 C 120.274 299.600,120.727 299.330,121.057 299.000 C 121.387 298.670,121.565 298.400,121.452 298.400 C 121.339 298.400,123.217 296.449,125.624 294.065 C 128.777 290.941,130.000 289.461,130.000 288.768 C 130.000 287.399,249.046 168.282,250.139 168.559 C 251.141 168.812,252.000 168.436,252.000 167.745 C 252.000 167.431,252.315 167.056,252.700 166.910 C 253.645 166.552,254.419 165.752,254.114 165.448 C 253.978 165.311,254.167 165.200,254.533 165.200 C 254.900 165.200,255.200 165.040,255.200 164.844 C 255.200 164.648,257.360 162.325,260.000 159.682 C 262.640 157.038,264.800 154.959,264.800 155.061 C 264.800 155.216,267.453 152.487,269.042 150.698 C 269.285 150.424,269.999 149.795,270.629 149.300 C 271.258 148.805,271.665 148.400,271.531 148.400 C 271.199 148.400,281.277 138.345,282.344 137.612 C 282.815 137.288,283.200 136.787,283.200 136.499 C 283.200 136.211,283.515 135.858,283.900 135.715 C 284.683 135.425,286.000 134.060,286.000 133.539 C 286.000 133.352,286.225 133.195,286.500 133.188 C 286.775 133.181,287.450 132.628,288.000 131.959 C 289.351 130.315,297.738 121.947,298.773 121.212 C 299.228 120.888,299.600 120.397,299.600 120.121 C 299.600 119.845,300.068 119.312,300.640 118.937 C 302.178 117.929,304.375 115.708,304.103 115.436 C 303.973 115.306,304.197 115.200,304.600 115.200 C 305.003 115.200,305.238 115.104,305.121 114.987 C 304.837 114.704,314.515 104.925,314.900 105.106 C 315.065 105.184,315.200 104.937,315.200 104.557 C 315.200 104.177,315.306 103.973,315.436 104.103 C 315.698 104.365,318.137 101.973,319.087 100.524 C 319.420 100.016,319.902 99.600,320.158 99.600 C 320.414 99.600,320.888 99.218,321.212 98.751 C 322.704 96.597,323.114 96.440,324.134 97.631 " stroke="none" fill="#ff0000" fill-rule="evenodd"></path><path id="path2" d="M203.200 75.200 C 203.200 75.420,203.560 75.600,204.000 75.600 C 204.440 75.600,204.800 75.420,204.800 75.200 C 204.800 74.980,204.440 74.800,204.000 74.800 C 203.560 74.800,203.200 74.980,203.200 75.200 M205.600 75.997 C 205.600 76.144,206.095 76.520,206.700 76.832 C 208.088 77.547,211.200 80.751,211.200 81.464 C 211.200 81.759,211.336 82.000,211.503 82.000 C 212.700 82.000,212.800 85.479,212.800 127.090 L 212.800 168.993 215.608 166.185 L 218.416 163.377 218.586 134.389 C 218.679 118.445,218.866 101.846,219.002 97.502 C 219.213 90.723,219.159 89.477,218.624 88.713 C 217.930 87.722,217.777 85.600,218.400 85.600 C 218.620 85.600,218.800 85.437,218.800 85.237 C 218.800 85.038,218.440 84.969,218.000 85.084 C 217.442 85.230,217.200 85.096,217.200 84.641 C 217.200 82.648,210.987 76.400,209.005 76.400 C 208.672 76.400,208.400 76.225,208.400 76.012 C 208.400 75.799,207.770 75.648,207.000 75.677 C 206.230 75.706,205.600 75.850,205.600 75.997 M295.978 84.300 L 294.600 85.800 296.100 84.422 C 297.496 83.138,297.784 82.800,297.478 82.800 C 297.412 82.800,296.737 83.475,295.978 84.300 M171.855 93.800 C 171.982 94.130,172.407 94.400,172.800 94.400 C 173.193 94.400,173.618 94.130,173.745 93.800 C 173.917 93.351,173.680 93.200,172.800 93.200 C 171.920 93.200,171.683 93.351,171.855 93.800 M175.700 94.325 C 174.111 94.479,174.049 94.884,175.500 95.632 C 177.176 96.497,179.516 99.071,180.509 101.142 L 181.400 103.000 181.505 149.900 L 181.610 196.800 183.286 196.800 C 184.600 196.800,185.225 196.545,186.181 195.619 L 187.400 194.437 187.200 149.719 C 187.056 117.470,186.874 104.777,186.547 104.200 C 186.297 103.760,185.848 102.860,185.548 102.200 C 184.842 100.644,180.264 96.000,179.437 96.000 C 179.087 96.000,178.800 95.820,178.800 95.600 C 178.800 95.380,178.453 95.200,178.029 95.200 C 177.605 95.200,177.200 94.975,177.129 94.700 C 177.050 94.394,176.495 94.249,175.700 94.325 M283.978 96.300 L 282.600 97.800 284.100 96.422 C 285.496 95.138,285.784 94.800,285.478 94.800 C 285.412 94.800,284.737 95.475,283.978 96.300 M182.400 96.466 C 182.400 96.584,182.940 97.246,183.600 97.937 C 184.260 98.628,184.800 99.048,184.800 98.871 C 184.800 98.694,184.260 98.032,183.600 97.400 C 182.940 96.768,182.400 96.347,182.400 96.466 M140.939 112.585 C 141.345 112.893,141.930 113.048,142.239 112.930 C 143.257 112.539,142.823 112.000,141.500 112.013 C 140.300 112.024,140.257 112.068,140.939 112.585 M145.660 112.500 C 145.617 112.998,145.253 113.200,144.400 113.200 C 142.999 113.200,142.807 113.821,144.082 114.226 C 145.702 114.740,148.650 118.153,149.549 120.555 C 150.395 122.816,150.400 123.066,150.400 159.815 L 150.400 196.800 153.215 196.800 L 156.030 196.800 155.983 159.800 C 155.943 128.115,155.855 122.800,155.368 122.800 C 155.056 122.800,154.800 122.440,154.800 122.000 C 154.800 121.560,154.620 121.200,154.400 121.200 C 154.180 121.200,154.000 120.915,154.000 120.567 C 154.000 119.294,148.060 114.000,146.632 114.000 C 146.308 114.000,145.980 113.516,145.887 112.900 C 145.795 112.295,145.693 112.115,145.660 112.500 M95.978 284.300 L 94.600 285.800 96.100 284.422 C 97.496 283.138,97.784 282.800,97.478 282.800 C 97.412 282.800,96.737 283.475,95.978 284.300 M83.978 296.300 L 82.600 297.800 84.100 296.422 C 85.496 295.138,85.784 294.800,85.478 294.800 C 85.412 294.800,84.737 295.475,83.978 296.300 M198.900 360.687 C 199.505 360.778,200.495 360.778,201.100 360.687 C 201.705 360.595,201.210 360.520,200.000 360.520 C 198.790 360.520,198.295 360.595,198.900 360.687 " stroke="none" fill="#cc9c64" fill-rule="evenodd"></path><path id="path3" d="M26.636 126.342 C 26.194 127.058,25.566 128.982,25.899 128.600 C 26.340 128.094,27.239 126.000,27.015 126.000 C 26.923 126.000,26.752 126.154,26.636 126.342 M234.606 147.063 C 226.029 155.719,219.123 162.800,219.259 162.800 C 219.660 162.800,250.400 131.969,250.400 131.567 C 250.400 131.079,252.055 129.455,234.606 147.063 M189.800 228.000 C 157.021 260.780,130.333 287.600,130.494 287.600 C 130.655 287.600,157.484 260.897,190.114 228.260 C 222.743 195.623,249.701 168.817,250.020 168.692 C 250.514 168.497,250.511 168.458,249.999 168.432 C 249.669 168.414,222.579 195.220,189.800 228.000 M200.000 181.746 C 193.070 188.797,187.829 194.214,188.354 193.783 C 190.182 192.283,212.800 169.486,212.800 169.144 C 212.800 168.681,214.037 167.463,200.000 181.746 M154.796 226.866 C 138.404 243.330,125.112 256.800,125.258 256.800 C 125.668 256.800,184.800 197.574,184.800 197.163 C 184.800 196.683,188.176 193.341,154.796 226.866 " stroke="none" fill="#e48c84" fill-rule="evenodd"></path><path id="path4" d="M201.381 75.169 C 201.506 75.372,202.192 75.664,202.905 75.817 C 206.961 76.691,209.830 79.375,211.863 84.200 C 212.048 84.640,212.292 103.900,212.404 127.000 L 212.607 169.000 212.704 127.094 C 212.800 85.397,212.709 82.000,211.503 82.000 C 211.336 82.000,211.200 81.759,211.200 81.464 C 211.200 80.751,208.088 77.547,206.700 76.832 C 205.228 76.073,205.314 75.740,207.000 75.677 C 207.770 75.648,208.400 75.799,208.400 76.012 C 208.400 76.225,208.672 76.400,209.005 76.400 C 210.956 76.400,217.200 82.644,217.200 84.595 C 217.200 84.928,217.470 85.200,217.800 85.200 C 218.661 85.200,218.543 83.720,217.600 82.708 C 217.160 82.236,216.800 81.613,216.800 81.325 C 216.800 81.036,216.620 80.800,216.400 80.800 C 216.180 80.800,216.000 80.628,216.000 80.418 C 216.000 79.949,214.090 78.000,213.631 78.000 C 213.448 78.000,213.071 77.727,212.794 77.393 C 212.326 76.828,211.555 76.428,208.681 75.256 C 207.301 74.693,204.800 74.657,204.800 75.200 C 204.800 75.420,204.440 75.600,204.000 75.600 C 203.560 75.600,203.200 75.420,203.200 75.200 C 203.200 74.980,202.739 74.800,202.176 74.800 C 201.613 74.800,201.255 74.966,201.381 75.169 M218.000 86.724 C 218.000 87.341,218.264 88.196,218.587 88.624 C 219.131 89.342,219.176 89.258,219.187 87.500 C 219.197 86.072,219.051 85.600,218.600 85.600 C 218.209 85.600,218.000 85.992,218.000 86.724 M169.700 93.488 C 170.085 93.582,170.400 93.804,170.400 93.982 C 170.400 94.160,171.167 94.498,172.103 94.734 C 175.884 95.686,179.569 99.408,180.728 103.446 C 181.079 104.670,181.200 116.930,181.200 151.146 L 181.200 197.200 182.400 197.200 C 183.060 197.200,183.600 197.391,183.600 197.624 C 183.600 197.857,183.780 197.936,184.000 197.800 C 184.832 197.286,184.349 196.800,183.005 196.800 L 181.610 196.800 181.505 149.900 L 181.400 103.000 180.509 101.142 C 179.516 99.071,177.176 96.497,175.500 95.632 C 174.033 94.875,174.114 94.521,175.800 94.324 C 176.765 94.211,177.200 94.322,177.200 94.680 C 177.200 94.966,177.560 95.200,178.000 95.200 C 178.440 95.200,178.800 95.380,178.800 95.600 C 178.800 95.820,179.087 96.000,179.437 96.000 C 180.264 96.000,184.842 100.644,185.548 102.200 C 185.848 102.860,186.297 103.760,186.547 104.200 C 186.875 104.779,187.031 117.266,187.112 149.500 C 187.173 173.975,187.353 194.000,187.512 194.000 C 187.670 194.000,187.710 173.525,187.600 148.500 L 187.400 103.000 186.500 101.738 C 186.005 101.044,185.600 100.354,185.600 100.204 C 185.600 97.759,174.540 91.728,173.764 93.749 C 173.462 94.535,172.167 94.613,171.879 93.862 C 171.764 93.561,171.084 93.322,170.336 93.320 C 169.601 93.319,169.315 93.394,169.700 93.488 M218.493 134.076 C 218.442 149.628,218.535 162.436,218.700 162.538 C 218.972 162.707,218.969 142.536,218.692 116.000 C 218.634 110.390,218.544 118.524,218.493 134.076 M138.800 112.413 C 138.800 112.639,139.025 112.890,139.300 112.968 C 145.025 114.610,147.946 117.282,149.566 122.360 C 149.865 123.296,150.000 135.159,150.000 160.460 L 150.000 197.200 153.200 197.200 L 156.400 197.200 156.360 161.100 C 156.338 141.245,156.203 124.584,156.060 124.075 C 155.917 123.566,155.852 139.721,155.916 159.975 L 156.032 196.800 153.216 196.800 L 150.400 196.800 150.400 159.815 C 150.400 123.066,150.395 122.816,149.549 120.555 C 148.650 118.153,145.702 114.740,144.082 114.226 C 142.807 113.821,142.999 113.200,144.400 113.200 C 145.200 113.200,145.600 113.000,145.600 112.600 C 145.600 111.790,143.341 111.802,142.526 112.616 C 141.971 113.172,141.817 113.172,140.969 112.616 C 139.890 111.910,138.800 111.807,138.800 112.413 M146.000 113.404 C 146.000 113.732,146.272 114.000,146.605 114.000 C 148.057 114.000,154.000 119.278,154.000 120.567 C 154.000 120.915,154.180 121.200,154.400 121.200 C 154.620 121.200,154.800 121.560,154.800 122.000 C 154.800 122.444,155.067 122.800,155.400 122.800 C 156.162 122.800,156.168 122.017,155.414 120.942 C 155.092 120.481,154.907 120.026,155.003 119.930 C 155.100 119.834,154.643 119.169,153.989 118.453 C 153.335 117.737,152.800 116.998,152.800 116.812 C 152.800 116.626,151.990 115.962,151.001 115.337 C 150.011 114.712,149.201 114.065,149.201 113.900 C 149.200 113.735,148.930 113.600,148.600 113.600 C 148.270 113.600,148.000 113.459,148.000 113.287 C 148.000 113.115,147.550 112.937,147.000 112.892 C 146.344 112.837,146.000 113.014,146.000 113.404 M242.575 175.700 L 241.400 177.000 242.700 175.825 C 243.415 175.179,244.000 174.594,244.000 174.525 C 244.000 174.216,243.670 174.488,242.575 175.700 M224.585 193.700 L 222.600 195.800 224.700 193.815 C 226.651 191.971,226.983 191.600,226.685 191.600 C 226.622 191.600,225.677 192.545,224.585 193.700 M192.575 225.700 L 191.400 227.000 192.700 225.825 C 193.912 224.730,194.184 224.400,193.875 224.400 C 193.806 224.400,193.221 224.985,192.575 225.700 M175.375 242.900 L 174.200 244.200 175.500 243.025 C 176.712 241.930,176.984 241.600,176.675 241.600 C 176.606 241.600,176.021 242.185,175.375 242.900 M142.575 275.700 L 141.400 277.000 142.700 275.825 C 143.912 274.730,144.184 274.400,143.875 274.400 C 143.806 274.400,143.221 274.985,142.575 275.700 " stroke="none" fill="#dcac6e" fill-rule="evenodd"></path></g></svg>