<?xml version="1.0" standalone="no"?>
<!DOCTYPE svg PUBLIC "-//W3C//DTD SVG 20010904//EN"
 "http://www.w3.org/TR/2001/REC-SVG-20010904/DTD/svg10.dtd">
<svg version="1.0" xmlns="http://www.w3.org/2000/svg"
 width="512.000000pt" height="512.000000pt" viewBox="0 0 512.000000 512.000000"
 preserveAspectRatio="xMidYMid meet">

<g transform="translate(0.000000,512.000000) scale(0.100000,-0.100000)"
fill="#eee" stroke="none">
<path d="M1285 4400 c-144 -5 -212 -12 -243 -23 -152 -57 -311 -256 -486 -607
-264 -531 -466 -1205 -538 -1800 -19 -159 -16 -513 5 -630 22 -117 68 -258
109 -329 76 -132 213 -239 354 -275 78 -20 202 -21 277 -1 255 66 565 362 886
848 l84 127 827 0 827 0 70 -108 c320 -490 646 -802 906 -868 91 -24 240 -15
332 20 263 100 403 371 422 816 24 587 -218 1540 -567 2230 -153 301 -308 497
-444 561 l-68 32 -271 5 c-314 5 -383 -2 -487 -54 -78 -39 -173 -134 -204
-202 l-19 -42 -496 0 -496 0 -28 54 c-35 67 -125 155 -195 190 -108 55 -235
68 -557 56z m1624 -642 c-23 -43 -114 -124 -170 -151 -118 -58 -239 -59 -356
-1 -55 26 -150 110 -172 152 l-12 22 361 0 361 0 -12 -22z m-1440 -447 c54
-39 65 -72 69 -208 l4 -123 117 0 c141 0 182 -17 219 -90 28 -56 28 -84 0
-140 -37 -73 -78 -90 -219 -90 l-117 0 -4 -122 c-4 -137 -15 -170 -70 -210
-47 -33 -140 -33 -185 1 -53 40 -63 74 -63 210 l0 121 -117 0 c-98 0 -124 3
-159 21 -115 55 -118 214 -6 277 35 19 54 22 161 22 l121 0 0 121 c0 143 12
177 74 215 52 32 126 30 175 -5z m2348 13 c19 -9 45 -33 59 -53 34 -50 35
-162 1 -212 -32 -49 -105 -83 -159 -74 -114 20 -173 176 -108 283 41 67 131
91 207 56z m-310 -370 c52 -39 68 -71 68 -134 0 -63 -16 -95 -69 -134 -22 -17
-42 -21 -105 -21 -69 0 -81 3 -113 27 -93 71 -82 213 19 268 51 27 159 24 200
-6z m669 7 c119 -54 117 -224 -2 -281 -121 -59 -264 16 -264 137 0 67 40 128
100 152 41 16 122 12 166 -8z m-351 -330 c54 -31 75 -75 75 -155 0 -59 -4 -78
-24 -107 -64 -93 -208 -92 -266 3 -96 158 61 346 215 259z"/>
</g>
</svg>
