<svg id="svg" version="1.1" xmlns="http://www.w3.org/2000/svg" xmlns:xlink="http://www.w3.org/1999/xlink" width="400" height="400" viewBox="0, 0, 400,400"><g id="svgg"><path id="path0" d="M185.800 16.400 C 185.664 16.620,183.889 16.800,181.856 16.800 C 179.823 16.800,177.989 16.965,177.780 17.168 C 177.571 17.370,176.230 17.634,174.800 17.754 C 169.888 18.168,167.799 18.474,167.420 18.837 C 167.211 19.037,166.187 19.200,165.144 19.200 C 164.101 19.200,163.136 19.380,163.000 19.600 C 162.864 19.820,162.054 20.000,161.200 20.000 C 160.346 20.000,159.536 20.180,159.400 20.400 C 159.264 20.620,158.443 20.800,157.576 20.800 C 156.709 20.800,156.000 20.980,156.000 21.200 C 156.000 21.420,155.280 21.600,154.400 21.600 C 153.520 21.600,152.800 21.780,152.800 22.000 C 152.800 22.220,152.260 22.400,151.600 22.400 C 150.940 22.400,150.400 22.580,150.400 22.800 C 150.400 23.020,149.680 23.200,148.800 23.200 C 147.920 23.200,147.200 23.380,147.200 23.600 C 147.200 23.820,146.660 24.000,146.000 24.000 C 145.340 24.000,144.800 24.144,144.800 24.321 C 144.800 24.628,142.067 25.395,139.300 25.866 C 138.585 25.988,138.000 26.248,138.000 26.444 C 138.000 26.640,137.638 26.800,137.195 26.800 C 136.752 26.800,136.032 26.980,135.595 27.200 C 135.158 27.420,134.442 27.780,134.005 28.000 C 133.568 28.220,132.848 28.400,132.405 28.400 C 131.962 28.400,131.600 28.580,131.600 28.800 C 131.600 29.020,131.328 29.200,130.995 29.200 C 130.662 29.200,130.077 29.366,129.695 29.568 C 127.530 30.715,123.563 32.400,123.025 32.400 C 122.681 32.400,122.400 32.580,122.400 32.800 C 122.400 33.020,122.040 33.200,121.600 33.200 C 121.160 33.200,120.800 33.380,120.800 33.600 C 120.800 33.820,120.440 34.000,120.000 34.000 C 119.560 34.000,119.200 34.180,119.200 34.400 C 119.200 34.620,118.840 34.800,118.400 34.800 C 117.960 34.800,117.600 34.980,117.600 35.200 C 117.600 35.420,117.240 35.600,116.800 35.600 C 116.360 35.600,116.000 35.780,116.000 36.000 C 116.000 36.220,115.640 36.400,115.200 36.400 C 114.760 36.400,114.400 36.580,114.400 36.800 C 114.400 37.020,114.040 37.200,113.600 37.200 C 113.160 37.200,112.800 37.380,112.800 37.600 C 112.800 37.820,112.607 38.000,112.372 38.000 C 112.137 38.000,111.159 38.540,110.200 39.200 C 109.241 39.860,108.263 40.400,108.028 40.400 C 107.793 40.400,107.600 40.580,107.600 40.800 C 107.600 41.020,107.240 41.200,106.800 41.200 C 106.360 41.200,106.000 41.335,105.999 41.500 C 105.999 41.665,104.919 42.326,103.599 42.970 C 102.280 43.613,101.200 44.288,101.200 44.470 C 101.200 44.651,100.964 44.800,100.675 44.800 C 100.387 44.800,99.764 45.160,99.292 45.600 C 98.820 46.040,98.222 46.400,97.964 46.400 C 97.705 46.400,97.203 46.716,96.847 47.103 C 96.491 47.489,95.705 48.060,95.100 48.370 C 94.495 48.681,94.000 49.085,94.000 49.268 C 94.000 49.450,93.802 49.600,93.560 49.600 C 93.319 49.600,92.617 50.140,92.000 50.800 C 91.383 51.460,90.663 52.000,90.400 52.000 C 90.137 52.000,89.417 52.540,88.800 53.200 C 88.183 53.860,87.481 54.400,87.240 54.400 C 86.998 54.400,86.059 55.120,85.152 56.000 C 84.245 56.880,83.332 57.600,83.123 57.600 C 82.914 57.600,82.510 57.825,82.225 58.100 C 81.940 58.375,80.847 59.320,79.796 60.200 C 77.254 62.329,62.228 77.345,60.200 79.783 C 59.320 80.841,58.375 81.940,58.100 82.225 C 57.825 82.510,57.600 82.936,57.600 83.171 C 57.600 83.407,57.420 83.600,57.200 83.600 C 56.980 83.600,56.800 83.798,56.800 84.040 C 56.800 84.281,56.260 84.983,55.600 85.600 C 54.940 86.217,54.400 86.892,54.400 87.101 C 54.400 87.310,53.860 88.046,53.200 88.737 C 52.540 89.428,52.000 90.192,52.000 90.436 C 52.000 90.680,51.460 91.383,50.800 92.000 C 50.140 92.617,49.600 93.319,49.600 93.560 C 49.600 93.802,49.450 94.000,49.268 94.000 C 49.085 94.000,48.681 94.495,48.370 95.100 C 48.060 95.705,47.489 96.491,47.103 96.847 C 46.716 97.203,46.400 97.705,46.400 97.964 C 46.400 98.222,46.040 98.820,45.600 99.292 C 45.160 99.764,44.800 100.387,44.800 100.675 C 44.800 100.964,44.651 101.200,44.470 101.200 C 44.288 101.200,43.613 102.280,42.970 103.599 C 42.326 104.919,41.665 105.999,41.500 105.999 C 41.335 106.000,41.200 106.360,41.200 106.800 C 41.200 107.240,41.020 107.600,40.800 107.600 C 40.580 107.600,40.400 107.836,40.400 108.125 C 40.400 108.413,40.075 108.998,39.678 109.425 C 39.280 109.851,38.697 110.785,38.380 111.500 C 38.064 112.215,37.669 112.800,37.502 112.800 C 37.336 112.800,37.200 113.160,37.200 113.600 C 37.200 114.040,37.020 114.400,36.800 114.400 C 36.580 114.400,36.400 114.760,36.400 115.200 C 36.400 115.640,36.220 116.000,36.000 116.000 C 35.780 116.000,35.600 116.360,35.600 116.800 C 35.600 117.240,35.420 117.600,35.200 117.600 C 34.980 117.600,34.800 117.960,34.800 118.400 C 34.800 118.840,34.620 119.200,34.400 119.200 C 34.180 119.200,34.000 119.560,34.000 120.000 C 34.000 120.440,33.820 120.800,33.600 120.800 C 33.380 120.800,33.200 121.160,33.200 121.600 C 33.200 122.040,33.020 122.400,32.800 122.400 C 32.580 122.400,32.400 122.672,32.400 123.005 C 32.400 123.338,32.240 123.923,32.044 124.305 C 31.848 124.687,31.288 125.900,30.800 127.000 C 30.312 128.100,29.752 129.313,29.556 129.695 C 29.360 130.077,29.200 130.662,29.200 130.995 C 29.200 131.328,29.020 131.600,28.800 131.600 C 28.580 131.600,28.400 131.962,28.400 132.405 C 28.400 132.848,28.220 133.568,28.000 134.005 C 27.780 134.442,27.420 135.158,27.200 135.595 C 26.980 136.032,26.800 136.664,26.800 137.000 C 26.800 137.336,26.642 137.923,26.448 138.305 C 25.801 139.585,24.796 142.990,24.798 143.900 C 24.799 144.395,24.620 144.800,24.400 144.800 C 24.180 144.800,24.000 145.340,24.000 146.000 C 24.000 146.660,23.820 147.200,23.600 147.200 C 23.380 147.200,23.200 147.819,23.200 148.576 C 23.200 149.333,23.020 150.064,22.800 150.200 C 22.580 150.336,22.400 150.977,22.400 151.624 C 22.400 152.271,22.220 152.800,22.000 152.800 C 21.780 152.800,21.600 153.520,21.600 154.400 C 21.600 155.280,21.420 156.000,21.200 156.000 C 20.980 156.000,20.800 156.810,20.800 157.800 C 20.800 158.790,20.620 159.600,20.400 159.600 C 20.180 159.600,20.000 160.309,20.000 161.176 C 20.000 162.043,19.820 162.864,19.600 163.000 C 19.380 163.136,19.200 164.126,19.200 165.200 C 19.200 166.274,19.020 167.264,18.800 167.400 C 18.580 167.536,18.400 168.717,18.400 170.024 C 18.400 171.341,18.222 172.400,18.000 172.400 C 17.775 172.400,17.600 173.525,17.600 174.976 C 17.600 176.393,17.420 177.664,17.200 177.800 C 16.977 177.938,16.800 179.796,16.800 182.000 C 16.800 184.204,16.623 186.062,16.400 186.200 C 15.854 186.538,15.854 213.462,16.400 213.800 C 16.623 213.938,16.800 215.796,16.800 218.000 C 16.800 220.204,16.977 222.062,17.200 222.200 C 17.420 222.336,17.600 223.607,17.600 225.024 C 17.600 226.475,17.775 227.600,18.000 227.600 C 18.222 227.600,18.400 228.667,18.400 230.000 C 18.400 231.333,18.578 232.400,18.800 232.400 C 19.020 232.400,19.200 233.379,19.200 234.576 C 19.200 235.773,19.380 236.864,19.600 237.000 C 19.820 237.136,20.000 237.856,20.000 238.600 C 20.000 239.344,20.180 240.064,20.400 240.200 C 20.620 240.336,20.800 241.247,20.800 242.224 C 20.800 243.201,20.980 244.000,21.200 244.000 C 21.420 244.000,21.600 244.720,21.600 245.600 C 21.600 246.480,21.780 247.200,22.000 247.200 C 22.220 247.200,22.400 247.729,22.400 248.376 C 22.400 249.023,22.580 249.664,22.800 249.800 C 23.020 249.936,23.200 250.667,23.200 251.424 C 23.200 252.181,23.380 252.800,23.600 252.800 C 23.820 252.800,24.000 253.340,24.000 254.000 C 24.000 254.660,24.180 255.200,24.400 255.200 C 24.620 255.200,24.800 255.656,24.800 256.213 C 24.800 256.770,25.070 257.872,25.400 258.662 C 25.730 259.451,26.000 260.526,26.000 261.049 C 26.000 261.572,26.180 262.000,26.400 262.000 C 26.620 262.000,26.800 262.362,26.800 262.805 C 26.800 263.248,26.980 263.968,27.200 264.405 C 27.420 264.842,27.780 265.558,28.000 265.995 C 28.220 266.432,28.400 267.152,28.400 267.595 C 28.400 268.038,28.580 268.400,28.800 268.400 C 29.020 268.400,29.200 268.672,29.200 269.005 C 29.200 269.338,29.360 269.923,29.556 270.305 C 29.752 270.687,30.312 271.900,30.800 273.000 C 31.288 274.100,31.848 275.313,32.044 275.695 C 32.240 276.077,32.400 276.662,32.400 276.995 C 32.400 277.328,32.580 277.600,32.800 277.600 C 33.020 277.600,33.200 277.960,33.200 278.400 C 33.200 278.840,33.380 279.200,33.600 279.200 C 33.820 279.200,34.000 279.560,34.000 280.000 C 34.000 280.440,34.180 280.800,34.400 280.800 C 34.620 280.800,34.800 281.160,34.800 281.600 C 34.800 282.040,34.980 282.400,35.200 282.400 C 35.420 282.400,35.600 282.760,35.600 283.200 C 35.600 283.640,35.780 284.000,36.000 284.000 C 36.220 284.000,36.400 284.360,36.400 284.800 C 36.400 285.240,36.580 285.600,36.800 285.600 C 37.020 285.600,37.200 285.945,37.200 286.367 C 37.200 286.788,37.335 287.193,37.500 287.267 C 37.876 287.434,39.175 289.564,39.471 290.500 C 39.593 290.885,39.852 291.200,40.047 291.200 C 40.241 291.200,40.400 291.470,40.400 291.800 C 40.400 292.130,40.580 292.400,40.800 292.400 C 41.020 292.400,41.200 292.760,41.200 293.200 C 41.200 293.640,41.335 294.000,41.500 294.001 C 41.665 294.001,42.326 295.081,42.970 296.401 C 43.613 297.720,44.288 298.800,44.470 298.800 C 44.651 298.800,44.800 299.036,44.800 299.325 C 44.800 299.613,45.160 300.236,45.600 300.708 C 46.040 301.180,46.400 301.778,46.400 302.036 C 46.400 302.295,46.716 302.797,47.103 303.153 C 47.489 303.509,48.060 304.295,48.370 304.900 C 48.681 305.505,49.085 306.000,49.268 306.000 C 49.450 306.000,49.600 306.190,49.600 306.422 C 49.600 306.654,50.139 307.419,50.798 308.122 C 51.457 308.825,51.997 309.553,51.998 309.740 C 51.999 309.926,52.540 310.583,53.200 311.200 C 53.860 311.817,54.400 312.519,54.400 312.760 C 54.400 313.002,55.120 313.941,56.000 314.848 C 56.880 315.755,57.600 316.668,57.600 316.877 C 57.600 317.086,57.825 317.490,58.100 317.775 C 58.375 318.060,59.320 319.156,60.200 320.210 C 62.238 322.652,77.276 337.682,79.800 339.800 C 80.849 340.680,81.940 341.625,82.225 341.900 C 82.510 342.175,82.914 342.400,83.123 342.400 C 83.332 342.400,84.245 343.120,85.152 344.000 C 86.059 344.880,86.998 345.600,87.240 345.600 C 87.481 345.600,88.183 346.140,88.800 346.800 C 89.417 347.460,90.092 348.000,90.301 348.000 C 90.510 348.000,91.246 348.540,91.937 349.200 C 92.628 349.860,93.374 350.400,93.596 350.400 C 93.818 350.400,94.000 350.550,94.000 350.732 C 94.000 350.915,94.495 351.320,95.100 351.632 C 95.705 351.945,96.549 352.515,96.975 352.900 C 97.402 353.285,97.904 353.600,98.092 353.600 C 98.280 353.600,98.820 353.960,99.292 354.400 C 99.764 354.840,100.387 355.200,100.675 355.200 C 100.964 355.200,101.200 355.335,101.200 355.501 C 101.200 355.666,102.055 356.248,103.100 356.795 C 104.145 357.341,105.238 358.016,105.529 358.294 C 105.819 358.572,106.404 358.800,106.829 358.800 C 107.253 358.800,107.600 358.946,107.600 359.125 C 107.600 359.304,108.230 359.698,109.000 360.000 C 109.770 360.302,110.400 360.696,110.400 360.875 C 110.400 361.054,110.670 361.200,111.000 361.200 C 111.330 361.200,111.600 361.380,111.600 361.600 C 111.600 361.820,111.870 362.000,112.200 362.000 C 112.530 362.000,112.800 362.180,112.800 362.400 C 112.800 362.620,113.160 362.800,113.600 362.800 C 114.040 362.800,114.400 362.980,114.400 363.200 C 114.400 363.420,114.760 363.600,115.200 363.600 C 115.640 363.600,116.000 363.780,116.000 364.000 C 116.000 364.220,116.360 364.400,116.800 364.400 C 117.240 364.400,117.600 364.580,117.600 364.800 C 117.600 365.020,117.960 365.200,118.400 365.200 C 118.840 365.200,119.200 365.380,119.200 365.600 C 119.200 365.820,119.560 366.000,120.000 366.000 C 120.440 366.000,120.800 366.180,120.800 366.400 C 120.800 366.620,121.160 366.800,121.600 366.800 C 122.040 366.800,122.400 366.980,122.400 367.200 C 122.400 367.420,122.672 367.600,123.005 367.600 C 123.338 367.600,123.923 367.760,124.305 367.956 C 124.687 368.152,125.900 368.712,127.000 369.200 C 128.100 369.688,129.313 370.248,129.695 370.444 C 130.077 370.640,130.662 370.800,130.995 370.800 C 131.328 370.800,131.600 370.980,131.600 371.200 C 131.600 371.420,131.962 371.600,132.405 371.600 C 132.848 371.600,133.568 371.780,134.005 372.000 C 134.442 372.220,135.158 372.580,135.595 372.800 C 136.032 373.020,136.752 373.200,137.195 373.200 C 137.638 373.200,138.000 373.380,138.000 373.600 C 138.000 373.820,138.540 374.000,139.200 374.000 C 139.860 374.000,140.400 374.159,140.400 374.354 C 140.400 374.549,141.390 374.832,142.600 374.983 C 143.810 375.134,144.800 375.425,144.800 375.629 C 144.800 375.833,145.340 376.000,146.000 376.000 C 146.660 376.000,147.200 376.180,147.200 376.400 C 147.200 376.620,147.920 376.800,148.800 376.800 C 149.680 376.800,150.400 376.980,150.400 377.200 C 150.400 377.420,150.929 377.600,151.576 377.600 C 152.223 377.600,152.864 377.780,153.000 378.000 C 153.136 378.220,153.867 378.400,154.624 378.400 C 155.381 378.400,156.000 378.580,156.000 378.800 C 156.000 379.020,156.799 379.200,157.776 379.200 C 158.753 379.200,159.664 379.380,159.800 379.600 C 159.936 379.820,160.656 380.000,161.400 380.000 C 162.144 380.000,162.864 380.180,163.000 380.400 C 163.136 380.620,164.227 380.800,165.424 380.800 C 166.621 380.800,167.600 380.980,167.600 381.200 C 167.600 381.422,168.667 381.600,170.000 381.600 C 171.333 381.600,172.400 381.778,172.400 382.000 C 172.400 382.229,173.600 382.400,175.200 382.400 C 176.800 382.400,178.000 382.571,178.000 382.800 C 178.000 383.041,179.667 383.200,182.200 383.200 C 184.733 383.200,186.400 383.359,186.400 383.600 C 186.400 383.859,191.200 384.000,200.000 384.000 C 208.800 384.000,213.600 383.859,213.600 383.600 C 213.600 383.359,215.267 383.200,217.800 383.200 C 220.333 383.200,222.000 383.041,222.000 382.800 C 222.000 382.571,223.200 382.400,224.800 382.400 C 226.400 382.400,227.600 382.229,227.600 382.000 C 227.600 381.778,228.667 381.600,230.000 381.600 C 231.333 381.600,232.400 381.422,232.400 381.200 C 232.400 380.980,233.379 380.800,234.576 380.800 C 235.773 380.800,236.864 380.620,237.000 380.400 C 237.136 380.180,237.856 380.000,238.600 380.000 C 239.344 380.000,240.064 379.820,240.200 379.600 C 240.336 379.380,241.247 379.200,242.224 379.200 C 243.201 379.200,244.000 379.020,244.000 378.800 C 244.000 378.580,244.619 378.400,245.376 378.400 C 246.133 378.400,246.864 378.220,247.000 378.000 C 247.136 377.780,247.777 377.600,248.424 377.600 C 249.071 377.600,249.600 377.420,249.600 377.200 C 249.600 376.980,250.320 376.800,251.200 376.800 C 252.080 376.800,252.800 376.620,252.800 376.400 C 252.800 376.180,253.340 376.000,254.000 376.000 C 254.660 376.000,255.200 375.841,255.200 375.646 C 255.200 375.451,256.190 375.168,257.400 375.017 C 258.610 374.866,259.600 374.575,259.600 374.371 C 259.600 374.167,260.039 374.000,260.576 374.000 C 261.113 374.000,261.664 373.820,261.800 373.600 C 261.936 373.380,262.399 373.200,262.829 373.200 C 263.584 373.200,263.974 373.056,265.895 372.062 C 266.387 371.808,267.152 371.600,267.595 371.600 C 268.038 371.600,268.400 371.420,268.400 371.200 C 268.400 370.980,268.672 370.800,269.005 370.800 C 269.338 370.800,269.923 370.634,270.305 370.432 C 272.470 369.285,276.437 367.600,276.975 367.600 C 277.319 367.600,277.600 367.420,277.600 367.200 C 277.600 366.980,277.960 366.800,278.400 366.800 C 278.840 366.800,279.200 366.620,279.200 366.400 C 279.200 366.180,279.560 366.000,280.000 366.000 C 280.440 366.000,280.800 365.820,280.800 365.600 C 280.800 365.380,281.160 365.200,281.600 365.200 C 282.040 365.200,282.400 365.020,282.400 364.800 C 282.400 364.580,282.760 364.400,283.200 364.400 C 283.640 364.400,284.000 364.220,284.000 364.000 C 284.000 363.780,284.360 363.600,284.800 363.600 C 285.240 363.600,285.600 363.420,285.600 363.200 C 285.600 362.980,285.945 362.800,286.367 362.800 C 286.788 362.800,287.193 362.665,287.267 362.500 C 287.434 362.124,289.564 360.825,290.500 360.529 C 290.885 360.407,291.200 360.148,291.200 359.953 C 291.200 359.759,291.470 359.600,291.800 359.600 C 292.130 359.600,292.400 359.420,292.400 359.200 C 292.400 358.980,292.747 358.800,293.171 358.800 C 293.596 358.800,294.181 358.572,294.471 358.294 C 294.762 358.016,295.855 357.341,296.900 356.795 C 297.945 356.248,298.800 355.666,298.800 355.501 C 298.800 355.335,299.036 355.200,299.325 355.200 C 299.613 355.200,300.236 354.840,300.708 354.400 C 301.180 353.960,301.778 353.600,302.036 353.600 C 302.295 353.600,302.797 353.284,303.153 352.897 C 303.509 352.511,304.295 351.940,304.900 351.630 C 305.505 351.319,306.000 350.915,306.000 350.732 C 306.000 350.550,306.206 350.400,306.457 350.400 C 306.708 350.400,307.429 349.860,308.060 349.200 C 308.691 348.540,309.403 348.000,309.643 348.000 C 309.883 348.000,310.583 347.460,311.200 346.800 C 311.817 346.140,312.537 345.600,312.800 345.600 C 313.063 345.600,313.783 345.060,314.400 344.400 C 315.017 343.740,315.719 343.200,315.960 343.200 C 316.202 343.200,316.400 343.020,316.400 342.800 C 316.400 342.580,316.593 342.400,316.829 342.400 C 317.064 342.400,317.490 342.175,317.775 341.900 C 318.060 341.625,319.155 340.680,320.208 339.800 C 322.693 337.723,337.723 322.693,339.800 320.208 C 340.680 319.155,341.625 318.060,341.900 317.775 C 342.175 317.490,342.400 317.050,342.400 316.797 C 342.400 316.544,343.120 315.646,344.000 314.800 C 344.880 313.954,345.600 313.051,345.600 312.792 C 345.600 312.533,346.140 311.817,346.800 311.200 C 347.460 310.583,348.000 309.883,348.000 309.643 C 348.000 309.403,348.540 308.691,349.200 308.060 C 349.860 307.429,350.400 306.708,350.400 306.457 C 350.400 306.206,350.550 306.000,350.732 306.000 C 350.915 306.000,351.319 305.505,351.630 304.900 C 351.940 304.295,352.511 303.509,352.897 303.153 C 353.284 302.797,353.600 302.295,353.600 302.036 C 353.600 301.778,353.960 301.180,354.400 300.708 C 354.840 300.236,355.200 299.613,355.200 299.325 C 355.200 299.036,355.335 298.800,355.501 298.800 C 355.666 298.800,356.248 297.945,356.795 296.900 C 357.341 295.855,358.016 294.762,358.294 294.471 C 358.572 294.181,358.800 293.596,358.800 293.171 C 358.800 292.747,358.980 292.400,359.200 292.400 C 359.420 292.400,359.600 292.130,359.600 291.800 C 359.600 291.470,359.780 291.200,360.000 291.200 C 360.220 291.200,360.400 290.922,360.400 290.583 C 360.400 290.244,360.760 289.580,361.200 289.108 C 361.640 288.636,362.000 288.013,362.000 287.725 C 362.000 287.436,362.180 287.200,362.400 287.200 C 362.620 287.200,362.800 286.840,362.800 286.400 C 362.800 285.960,362.980 285.600,363.200 285.600 C 363.420 285.600,363.600 285.240,363.600 284.800 C 363.600 284.360,363.780 284.000,364.000 284.000 C 364.220 284.000,364.400 283.640,364.400 283.200 C 364.400 282.760,364.580 282.400,364.800 282.400 C 365.020 282.400,365.200 282.040,365.200 281.600 C 365.200 281.160,365.380 280.800,365.600 280.800 C 365.820 280.800,366.000 280.440,366.000 280.000 C 366.000 279.560,366.180 279.200,366.400 279.200 C 366.620 279.200,366.800 278.840,366.800 278.400 C 366.800 277.960,366.980 277.600,367.200 277.600 C 367.420 277.600,367.600 277.319,367.600 276.975 C 367.600 276.437,369.285 272.470,370.432 270.305 C 370.634 269.923,370.800 269.338,370.800 269.005 C 370.800 268.672,370.980 268.400,371.200 268.400 C 371.420 268.400,371.600 268.038,371.600 267.595 C 371.600 267.152,371.780 266.432,372.000 265.995 C 372.220 265.558,372.580 264.842,372.800 264.405 C 373.020 263.968,373.200 263.259,373.200 262.829 C 373.200 262.399,373.380 261.936,373.600 261.800 C 373.820 261.664,374.000 261.113,374.000 260.576 C 374.000 260.039,374.167 259.600,374.371 259.600 C 374.575 259.600,374.866 258.610,375.017 257.400 C 375.168 256.190,375.451 255.200,375.646 255.200 C 375.841 255.200,376.000 254.660,376.000 254.000 C 376.000 253.340,376.180 252.800,376.400 252.800 C 376.620 252.800,376.800 252.080,376.800 251.200 C 376.800 250.320,376.980 249.600,377.200 249.600 C 377.420 249.600,377.600 249.060,377.600 248.400 C 377.600 247.740,377.780 247.200,378.000 247.200 C 378.220 247.200,378.400 246.480,378.400 245.600 C 378.400 244.720,378.580 244.000,378.800 244.000 C 379.020 244.000,379.200 243.190,379.200 242.200 C 379.200 241.210,379.380 240.400,379.600 240.400 C 379.820 240.400,380.000 239.590,380.000 238.600 C 380.000 237.610,380.180 236.800,380.400 236.800 C 380.620 236.800,380.800 235.936,380.800 234.880 C 380.800 233.824,380.963 232.789,381.163 232.580 C 381.526 232.201,381.832 230.112,382.246 225.200 C 382.366 223.770,382.630 222.429,382.832 222.220 C 383.035 222.011,383.200 220.177,383.200 218.144 C 383.200 216.111,383.380 214.336,383.600 214.200 C 383.854 214.043,384.000 208.937,384.000 200.200 C 384.000 191.463,383.854 186.357,383.600 186.200 C 383.379 186.063,383.200 184.263,383.200 182.176 C 383.200 179.925,383.038 178.400,382.800 178.400 C 382.569 178.400,382.400 177.133,382.400 175.400 C 382.400 173.667,382.231 172.400,382.000 172.400 C 381.778 172.400,381.600 171.341,381.600 170.024 C 381.600 168.717,381.420 167.536,381.200 167.400 C 380.980 167.264,380.800 166.274,380.800 165.200 C 380.800 164.126,380.620 163.136,380.400 163.000 C 380.180 162.864,380.000 162.144,380.000 161.400 C 380.000 160.656,379.820 159.936,379.600 159.800 C 379.380 159.664,379.200 158.854,379.200 158.000 C 379.200 157.146,379.020 156.336,378.800 156.200 C 378.580 156.064,378.400 155.243,378.400 154.376 C 378.400 153.509,378.220 152.800,378.000 152.800 C 377.780 152.800,377.600 152.260,377.600 151.600 C 377.600 150.940,377.420 150.400,377.200 150.400 C 376.980 150.400,376.800 149.781,376.800 149.024 C 376.800 148.267,376.620 147.536,376.400 147.400 C 376.180 147.264,376.000 146.623,376.000 145.976 C 376.000 145.329,375.837 144.800,375.638 144.800 C 375.438 144.800,375.151 143.900,375.000 142.800 C 374.849 141.701,374.562 140.700,374.363 140.577 C 374.163 140.454,374.000 139.924,374.000 139.400 C 374.000 138.876,373.820 138.336,373.600 138.200 C 373.380 138.064,373.200 137.524,373.200 137.000 C 373.200 136.476,373.020 135.936,372.800 135.800 C 372.580 135.664,372.400 135.203,372.400 134.776 C 372.400 134.349,372.220 134.000,372.000 134.000 C 371.780 134.000,371.600 133.561,371.600 133.024 C 371.600 132.487,371.420 131.936,371.200 131.800 C 370.980 131.664,370.800 131.203,370.800 130.776 C 370.800 130.349,370.620 130.000,370.400 130.000 C 370.180 130.000,370.000 129.657,370.000 129.238 C 370.000 128.422,368.399 125.088,367.900 124.867 C 367.735 124.793,367.600 124.309,367.600 123.790 C 367.600 123.272,367.420 122.736,367.200 122.600 C 366.980 122.464,366.800 122.003,366.800 121.576 C 366.800 121.149,366.620 120.800,366.400 120.800 C 366.180 120.800,366.000 120.440,366.000 120.000 C 366.000 119.560,365.820 119.200,365.600 119.200 C 365.380 119.200,365.200 118.840,365.200 118.400 C 365.200 117.960,365.020 117.600,364.800 117.600 C 364.580 117.600,364.400 117.240,364.400 116.800 C 364.400 116.360,364.220 116.000,364.000 116.000 C 363.780 116.000,363.600 115.640,363.600 115.200 C 363.600 114.760,363.454 114.400,363.275 114.400 C 363.096 114.400,362.702 113.770,362.400 113.000 C 362.098 112.230,361.704 111.600,361.525 111.600 C 361.346 111.600,361.200 111.330,361.200 111.000 C 361.200 110.670,361.054 110.400,360.875 110.400 C 360.696 110.400,360.302 109.770,360.000 109.000 C 359.698 108.230,359.304 107.600,359.125 107.600 C 358.946 107.600,358.800 107.253,358.800 106.829 C 358.800 106.404,358.575 105.814,358.300 105.516 C 357.614 104.774,356.398 102.749,356.129 101.900 C 356.007 101.515,355.770 101.200,355.602 101.200 C 355.434 101.200,355.073 100.660,354.800 100.000 C 354.527 99.340,354.145 98.800,353.951 98.800 C 353.758 98.800,353.600 98.564,353.600 98.275 C 353.600 97.987,353.240 97.364,352.800 96.892 C 352.360 96.420,352.000 95.846,352.000 95.617 C 352.000 95.388,351.820 95.200,351.600 95.200 C 351.380 95.200,351.200 94.970,351.200 94.688 C 351.200 94.407,350.840 93.917,350.400 93.600 C 349.960 93.283,349.600 92.833,349.600 92.600 C 349.600 92.367,349.240 91.917,348.800 91.600 C 348.360 91.283,348.000 90.793,348.000 90.512 C 348.000 90.231,347.280 89.259,346.400 88.352 C 345.520 87.445,344.800 86.527,344.800 86.312 C 344.800 86.097,344.305 85.440,343.700 84.853 C 343.095 84.266,342.330 83.312,342.000 82.734 C 340.710 80.475,325.856 65.075,321.156 61.124 C 320.190 60.312,318.860 59.187,318.200 58.624 C 317.540 58.062,316.847 57.601,316.660 57.600 C 316.474 57.600,315.817 57.060,315.200 56.400 C 314.583 55.740,313.903 55.200,313.688 55.200 C 313.473 55.200,312.555 54.480,311.648 53.600 C 310.741 52.720,309.769 52.000,309.488 52.000 C 309.207 52.000,308.717 51.640,308.400 51.200 C 308.083 50.760,307.633 50.400,307.400 50.400 C 307.167 50.400,306.717 50.040,306.400 49.600 C 306.083 49.160,305.593 48.800,305.312 48.800 C 305.030 48.800,304.800 48.620,304.800 48.400 C 304.800 48.180,304.612 48.000,304.383 48.000 C 304.154 48.000,303.580 47.640,303.108 47.200 C 302.636 46.760,302.013 46.400,301.725 46.400 C 301.436 46.400,301.200 46.232,301.200 46.027 C 301.200 45.822,300.841 45.540,300.402 45.401 C 299.964 45.262,299.373 44.934,299.090 44.674 C 298.332 43.976,296.357 42.822,295.100 42.342 C 294.495 42.111,294.000 41.759,294.000 41.561 C 294.000 41.362,293.640 41.200,293.200 41.200 C 292.760 41.200,292.400 41.020,292.400 40.800 C 292.400 40.580,292.130 40.400,291.800 40.400 C 291.470 40.400,291.200 40.220,291.200 40.000 C 291.200 39.780,290.840 39.600,290.400 39.600 C 289.960 39.600,289.600 39.420,289.600 39.200 C 289.600 38.980,289.330 38.800,289.000 38.800 C 288.670 38.800,288.400 38.654,288.400 38.475 C 288.400 38.296,287.770 37.902,287.000 37.600 C 286.230 37.298,285.600 36.904,285.600 36.725 C 285.600 36.546,285.240 36.400,284.800 36.400 C 284.360 36.400,284.000 36.220,284.000 36.000 C 284.000 35.780,283.640 35.600,283.200 35.600 C 282.760 35.600,282.400 35.420,282.400 35.200 C 282.400 34.980,282.040 34.800,281.600 34.800 C 281.160 34.800,280.800 34.620,280.800 34.400 C 280.800 34.180,280.440 34.000,280.000 34.000 C 279.560 34.000,279.200 33.820,279.200 33.600 C 279.200 33.380,278.851 33.200,278.424 33.200 C 277.997 33.200,277.536 33.020,277.400 32.800 C 277.264 32.580,276.728 32.400,276.210 32.400 C 275.691 32.400,275.207 32.265,275.133 32.100 C 274.912 31.601,271.578 30.000,270.762 30.000 C 270.343 30.000,270.000 29.820,270.000 29.600 C 270.000 29.380,269.651 29.200,269.224 29.200 C 268.797 29.200,268.336 29.020,268.200 28.800 C 268.064 28.580,267.513 28.400,266.976 28.400 C 266.439 28.400,266.000 28.220,266.000 28.000 C 266.000 27.780,265.651 27.600,265.224 27.600 C 264.797 27.600,264.336 27.420,264.200 27.200 C 264.064 26.980,263.601 26.800,263.171 26.800 C 262.741 26.800,262.077 26.642,261.695 26.448 C 260.415 25.801,257.010 24.796,256.100 24.798 C 255.605 24.799,255.200 24.620,255.200 24.400 C 255.200 24.180,254.660 24.000,254.000 24.000 C 253.340 24.000,252.800 23.820,252.800 23.600 C 252.800 23.380,252.080 23.200,251.200 23.200 C 250.320 23.200,249.600 23.020,249.600 22.800 C 249.600 22.580,249.060 22.400,248.400 22.400 C 247.740 22.400,247.200 22.220,247.200 22.000 C 247.200 21.780,246.491 21.600,245.624 21.600 C 244.757 21.600,243.936 21.420,243.800 21.200 C 243.664 20.980,242.854 20.800,242.000 20.800 C 241.146 20.800,240.336 20.620,240.200 20.400 C 240.064 20.180,239.344 20.000,238.600 20.000 C 237.856 20.000,237.136 19.820,237.000 19.600 C 236.864 19.380,235.773 19.200,234.576 19.200 C 233.379 19.200,232.400 19.020,232.400 18.800 C 232.400 18.580,231.421 18.400,230.224 18.400 C 229.027 18.400,227.936 18.220,227.800 18.000 C 227.664 17.780,226.303 17.600,224.776 17.600 C 223.192 17.600,222.000 17.428,222.000 17.200 C 222.000 16.960,220.408 16.800,218.024 16.800 C 215.804 16.800,213.938 16.623,213.800 16.400 C 213.643 16.146,208.537 16.000,199.800 16.000 C 191.063 16.000,185.957 16.146,185.800 16.400 M202.800 50.800 C 202.800 51.049,205.059 51.200,208.776 51.200 C 212.329 51.200,214.853 51.362,215.000 51.600 C 215.136 51.820,216.486 52.000,218.000 52.000 C 219.514 52.000,220.864 52.180,221.000 52.400 C 221.136 52.620,222.306 52.800,223.600 52.800 C 224.894 52.800,226.064 52.980,226.200 53.200 C 226.336 53.420,227.236 53.600,228.200 53.600 C 229.164 53.600,230.064 53.780,230.200 54.000 C 230.336 54.220,231.056 54.400,231.800 54.400 C 232.544 54.400,233.252 54.561,233.374 54.758 C 233.495 54.955,234.271 55.218,235.097 55.342 C 238.607 55.872,239.620 56.108,239.827 56.444 C 239.948 56.640,240.566 56.800,241.200 56.800 C 241.834 56.800,242.464 56.980,242.600 57.200 C 242.736 57.420,243.276 57.600,243.800 57.600 C 244.324 57.600,244.856 57.767,244.983 57.972 C 245.109 58.177,246.200 58.467,247.406 58.618 C 248.613 58.769,249.600 59.051,249.600 59.246 C 249.600 59.441,249.949 59.600,250.376 59.600 C 250.803 59.600,251.264 59.780,251.400 60.000 C 251.536 60.220,252.087 60.400,252.624 60.400 C 253.161 60.400,253.600 60.580,253.600 60.800 C 253.600 61.020,254.140 61.200,254.800 61.200 C 255.460 61.200,256.000 61.380,256.000 61.600 C 256.000 61.820,256.360 62.000,256.800 62.000 C 257.240 62.000,257.600 62.180,257.600 62.400 C 257.600 62.620,257.960 62.800,258.400 62.800 C 258.840 62.800,259.200 62.980,259.200 63.200 C 259.200 63.420,259.650 63.600,260.200 63.600 C 260.750 63.600,261.200 63.780,261.200 64.000 C 261.200 64.220,261.560 64.400,262.000 64.400 C 262.440 64.400,262.800 64.580,262.800 64.800 C 262.800 65.020,263.160 65.200,263.600 65.200 C 264.040 65.200,264.400 65.380,264.400 65.600 C 264.400 65.820,264.760 66.000,265.200 66.000 C 265.640 66.000,266.000 66.180,266.000 66.400 C 266.000 66.620,266.360 66.800,266.800 66.800 C 267.240 66.800,267.600 66.980,267.600 67.200 C 267.600 67.420,267.960 67.600,268.400 67.600 C 268.840 67.600,269.200 67.780,269.200 68.000 C 269.200 68.220,269.560 68.400,270.000 68.400 C 270.440 68.400,270.800 68.580,270.800 68.800 C 270.800 69.020,271.078 69.200,271.417 69.200 C 271.756 69.200,272.420 69.560,272.892 70.000 C 273.364 70.440,273.987 70.800,274.275 70.800 C 274.564 70.800,274.800 70.946,274.800 71.125 C 274.800 71.304,275.434 71.699,276.209 72.003 C 276.983 72.307,277.911 72.881,278.271 73.278 C 278.630 73.675,279.144 74.000,279.413 74.000 C 279.682 74.000,280.126 74.270,280.400 74.600 C 280.674 74.930,281.196 75.200,281.561 75.200 C 281.925 75.200,282.483 75.560,282.800 76.000 C 283.117 76.440,283.657 76.800,284.000 76.800 C 284.343 76.800,284.883 77.160,285.200 77.600 C 285.517 78.040,286.025 78.400,286.328 78.400 C 286.631 78.400,287.383 78.940,288.000 79.600 C 288.617 80.260,289.325 80.800,289.574 80.800 C 289.823 80.800,290.630 81.385,291.367 82.100 C 293.027 83.711,296.548 86.748,297.647 87.518 C 300.144 89.267,310.733 99.856,312.482 102.353 C 313.252 103.452,316.289 106.973,317.900 108.633 C 318.615 109.370,319.200 110.161,319.200 110.390 C 319.200 110.620,319.740 111.372,320.400 112.063 C 321.060 112.754,321.600 113.522,321.600 113.771 C 321.600 114.020,321.960 114.483,322.400 114.800 C 322.840 115.117,323.200 115.657,323.200 116.000 C 323.200 116.343,323.560 116.883,324.000 117.200 C 324.440 117.517,324.800 118.075,324.800 118.439 C 324.800 118.804,325.070 119.326,325.400 119.600 C 325.730 119.874,326.000 120.247,326.000 120.429 C 326.000 120.611,326.540 121.560,327.200 122.538 C 327.860 123.516,328.400 124.515,328.400 124.758 C 328.400 125.001,328.580 125.200,328.800 125.200 C 329.020 125.200,329.200 125.436,329.200 125.725 C 329.200 126.013,329.560 126.636,330.000 127.108 C 330.440 127.580,330.800 128.244,330.800 128.583 C 330.800 128.922,330.980 129.200,331.200 129.200 C 331.420 129.200,331.600 129.560,331.600 130.000 C 331.600 130.440,331.780 130.800,332.000 130.800 C 332.220 130.800,332.400 131.160,332.400 131.600 C 332.400 132.040,332.580 132.400,332.800 132.400 C 333.020 132.400,333.200 132.760,333.200 133.200 C 333.200 133.640,333.380 134.000,333.600 134.000 C 333.820 134.000,334.000 134.360,334.000 134.800 C 334.000 135.240,334.180 135.600,334.400 135.600 C 334.620 135.600,334.800 135.960,334.800 136.400 C 334.800 136.840,334.980 137.200,335.200 137.200 C 335.420 137.200,335.600 137.560,335.600 138.000 C 335.600 138.440,335.780 138.800,336.000 138.800 C 336.220 138.800,336.400 139.250,336.400 139.800 C 336.400 140.350,336.580 140.800,336.800 140.800 C 337.020 140.800,337.200 141.160,337.200 141.600 C 337.200 142.040,337.380 142.400,337.600 142.400 C 337.820 142.400,338.000 142.760,338.000 143.200 C 338.000 143.640,338.180 144.000,338.400 144.000 C 338.620 144.000,338.800 144.540,338.800 145.200 C 338.800 145.860,338.980 146.400,339.200 146.400 C 339.420 146.400,339.600 146.839,339.600 147.376 C 339.600 147.913,339.780 148.464,340.000 148.600 C 340.220 148.736,340.400 149.197,340.400 149.624 C 340.400 150.051,340.580 150.400,340.800 150.400 C 341.020 150.400,341.200 150.929,341.200 151.576 C 341.200 152.223,341.363 152.854,341.563 152.977 C 341.762 153.100,342.049 154.100,342.200 155.200 C 342.351 156.300,342.638 157.300,342.837 157.423 C 343.037 157.546,343.200 158.166,343.200 158.800 C 343.200 159.434,343.360 160.052,343.556 160.173 C 343.892 160.380,344.128 161.393,344.658 164.903 C 344.782 165.729,345.045 166.505,345.242 166.626 C 345.439 166.748,345.600 167.557,345.600 168.424 C 345.600 169.291,345.763 170.000,345.961 170.000 C 346.303 170.000,346.517 171.264,347.044 176.400 C 347.169 177.610,347.435 178.771,347.635 178.980 C 347.836 179.189,348.000 180.638,348.000 182.200 C 348.000 183.762,348.183 185.223,348.406 185.446 C 348.960 186.000,348.960 214.400,348.405 214.955 C 348.182 215.178,348.000 216.573,348.000 218.056 C 348.000 219.539,347.820 220.864,347.600 221.000 C 347.380 221.136,347.200 222.227,347.200 223.424 C 347.200 224.621,347.020 225.600,346.800 225.600 C 346.580 225.600,346.400 226.590,346.400 227.800 C 346.400 229.010,346.220 230.000,346.000 230.000 C 345.780 230.000,345.600 230.709,345.600 231.576 C 345.600 232.443,345.439 233.252,345.242 233.374 C 345.045 233.495,344.782 234.271,344.658 235.097 C 344.127 238.612,343.895 239.600,343.600 239.600 C 343.428 239.600,343.193 240.185,343.077 240.900 C 342.684 243.326,341.969 246.197,341.584 246.895 C 341.373 247.277,341.200 247.941,341.200 248.371 C 341.200 248.801,341.020 249.264,340.800 249.400 C 340.580 249.536,340.400 249.997,340.400 250.424 C 340.400 250.851,340.220 251.200,340.000 251.200 C 339.780 251.200,339.600 251.740,339.600 252.400 C 339.600 253.060,339.420 253.600,339.200 253.600 C 338.980 253.600,338.800 253.949,338.800 254.376 C 338.800 254.803,338.620 255.264,338.400 255.400 C 338.180 255.536,338.000 256.087,338.000 256.624 C 338.000 257.161,337.820 257.600,337.600 257.600 C 337.380 257.600,337.200 257.960,337.200 258.400 C 337.200 258.840,337.020 259.200,336.800 259.200 C 336.580 259.200,336.400 259.560,336.400 260.000 C 336.400 260.440,336.220 260.800,336.000 260.800 C 335.780 260.800,335.600 261.250,335.600 261.800 C 335.600 262.350,335.420 262.800,335.200 262.800 C 334.980 262.800,334.800 263.160,334.800 263.600 C 334.800 264.040,334.620 264.400,334.400 264.400 C 334.180 264.400,334.000 264.760,334.000 265.200 C 334.000 265.640,333.820 266.000,333.600 266.000 C 333.380 266.000,333.200 266.360,333.200 266.800 C 333.200 267.240,333.020 267.600,332.800 267.600 C 332.580 267.600,332.400 267.960,332.400 268.400 C 332.400 268.840,332.220 269.200,332.000 269.200 C 331.780 269.200,331.600 269.478,331.600 269.817 C 331.600 270.156,331.240 270.820,330.800 271.292 C 330.360 271.764,330.000 272.387,330.000 272.675 C 330.000 272.964,329.820 273.200,329.600 273.200 C 329.380 273.200,329.200 273.560,329.200 274.000 C 329.200 274.440,329.020 274.800,328.800 274.800 C 328.580 274.800,328.400 274.974,328.400 275.188 C 328.400 275.401,327.590 276.827,326.600 278.358 C 325.610 279.888,324.800 281.384,324.800 281.682 C 324.800 281.980,324.440 282.483,324.000 282.800 C 323.560 283.117,323.200 283.580,323.200 283.829 C 323.200 284.078,322.660 284.846,322.000 285.537 C 321.340 286.228,320.800 286.976,320.800 287.200 C 320.800 287.424,320.260 288.172,319.600 288.863 C 318.940 289.554,318.400 290.290,318.400 290.499 C 318.400 290.708,317.860 291.383,317.200 292.000 C 316.540 292.617,316.000 293.233,316.000 293.371 C 316.000 293.509,315.193 294.428,314.207 295.414 C 313.220 296.401,312.095 297.697,311.707 298.294 C 309.860 301.133,301.133 309.860,298.294 311.707 C 297.697 312.095,296.401 313.220,295.414 314.207 C 294.428 315.193,293.509 316.000,293.371 316.000 C 293.233 316.000,292.617 316.540,292.000 317.200 C 291.383 317.860,290.708 318.400,290.499 318.400 C 290.290 318.400,289.554 318.940,288.863 319.600 C 288.172 320.260,287.424 320.800,287.200 320.800 C 286.976 320.800,286.228 321.340,285.537 322.000 C 284.846 322.660,284.078 323.200,283.829 323.200 C 283.580 323.200,283.117 323.560,282.800 324.000 C 282.483 324.440,281.980 324.800,281.682 324.800 C 281.384 324.800,279.888 325.610,278.358 326.600 C 276.827 327.590,275.401 328.400,275.188 328.400 C 274.974 328.400,274.800 328.580,274.800 328.800 C 274.800 329.020,274.440 329.200,274.000 329.200 C 273.560 329.200,273.200 329.380,273.200 329.600 C 273.200 329.820,272.964 330.000,272.675 330.000 C 272.387 330.000,271.764 330.360,271.292 330.800 C 270.820 331.240,270.156 331.600,269.817 331.600 C 269.478 331.600,269.200 331.780,269.200 332.000 C 269.200 332.220,268.840 332.400,268.400 332.400 C 267.960 332.400,267.600 332.580,267.600 332.800 C 267.600 333.020,267.240 333.200,266.800 333.200 C 266.360 333.200,266.000 333.380,266.000 333.600 C 266.000 333.820,265.640 334.000,265.200 334.000 C 264.760 334.000,264.400 334.180,264.400 334.400 C 264.400 334.620,264.040 334.800,263.600 334.800 C 263.160 334.800,262.800 334.980,262.800 335.200 C 262.800 335.420,262.451 335.600,262.024 335.600 C 261.597 335.600,261.136 335.780,261.000 336.000 C 260.864 336.220,260.403 336.400,259.976 336.400 C 259.549 336.400,259.200 336.580,259.200 336.800 C 259.200 337.020,258.840 337.200,258.400 337.200 C 257.960 337.200,257.600 337.380,257.600 337.600 C 257.600 337.820,257.161 338.000,256.624 338.000 C 256.087 338.000,255.536 338.180,255.400 338.400 C 255.264 338.620,254.803 338.800,254.376 338.800 C 253.949 338.800,253.600 338.980,253.600 339.200 C 253.600 339.420,253.238 339.600,252.795 339.600 C 252.352 339.600,251.587 339.808,251.095 340.062 C 249.174 341.056,248.784 341.200,248.029 341.200 C 247.599 341.200,247.151 341.356,247.032 341.547 C 246.914 341.739,246.049 342.016,245.109 342.163 C 243.458 342.422,241.462 342.972,239.800 343.625 C 238.821 344.010,237.094 344.395,235.097 344.674 C 234.271 344.790,233.495 345.045,233.374 345.242 C 233.252 345.439,232.443 345.600,231.576 345.600 C 230.709 345.600,230.000 345.780,230.000 346.000 C 230.000 346.220,229.010 346.400,227.800 346.400 C 226.590 346.400,225.600 346.580,225.600 346.800 C 225.600 347.020,224.621 347.200,223.424 347.200 C 222.227 347.200,221.136 347.380,221.000 347.600 C 220.864 347.820,219.514 348.000,218.000 348.000 C 216.486 348.000,215.136 348.180,215.000 348.400 C 214.850 348.643,211.940 348.800,207.610 348.800 C 202.260 348.800,200.421 348.926,200.283 349.300 C 200.137 349.700,199.994 349.700,199.570 349.300 C 199.189 348.941,197.151 348.800,192.344 348.800 C 188.311 348.800,185.549 348.641,185.400 348.400 C 185.264 348.180,183.849 348.000,182.256 348.000 C 180.663 348.000,179.189 347.836,178.980 347.635 C 178.771 347.435,177.610 347.169,176.400 347.044 C 171.264 346.517,170.000 346.303,170.000 345.961 C 170.000 345.763,169.291 345.600,168.424 345.600 C 167.557 345.600,166.748 345.439,166.626 345.242 C 166.505 345.045,165.729 344.782,164.903 344.658 C 161.322 344.117,160.400 343.891,160.400 343.556 C 160.400 343.360,159.781 343.200,159.024 343.200 C 158.267 343.200,157.546 343.037,157.423 342.837 C 157.300 342.638,156.300 342.351,155.200 342.200 C 154.100 342.049,153.100 341.762,152.977 341.563 C 152.854 341.363,152.223 341.200,151.576 341.200 C 150.929 341.200,150.400 341.020,150.400 340.800 C 150.400 340.580,150.040 340.400,149.600 340.400 C 149.160 340.400,148.800 340.220,148.800 340.000 C 148.800 339.780,148.260 339.600,147.600 339.600 C 146.940 339.600,146.400 339.420,146.400 339.200 C 146.400 338.980,145.860 338.800,145.200 338.800 C 144.540 338.800,144.000 338.620,144.000 338.400 C 144.000 338.180,143.640 338.000,143.200 338.000 C 142.760 338.000,142.400 337.820,142.400 337.600 C 142.400 337.380,142.040 337.200,141.600 337.200 C 141.160 337.200,140.800 337.020,140.800 336.800 C 140.800 336.580,140.350 336.400,139.800 336.400 C 139.250 336.400,138.800 336.220,138.800 336.000 C 138.800 335.780,138.440 335.600,138.000 335.600 C 137.560 335.600,137.200 335.420,137.200 335.200 C 137.200 334.980,136.840 334.800,136.400 334.800 C 135.960 334.800,135.600 334.620,135.600 334.400 C 135.600 334.180,135.240 334.000,134.800 334.000 C 134.360 334.000,134.000 333.820,134.000 333.600 C 134.000 333.380,133.640 333.200,133.200 333.200 C 132.760 333.200,132.400 333.020,132.400 332.800 C 132.400 332.580,132.040 332.400,131.600 332.400 C 131.160 332.400,130.800 332.220,130.800 332.000 C 130.800 331.780,130.440 331.600,130.000 331.600 C 129.560 331.600,129.200 331.441,129.200 331.247 C 129.200 331.052,128.885 330.793,128.500 330.671 C 127.564 330.375,125.434 329.076,125.267 328.700 C 125.193 328.535,124.956 328.400,124.739 328.400 C 124.522 328.400,123.559 327.860,122.600 327.200 C 121.641 326.540,120.685 326.000,120.477 326.000 C 120.268 326.000,119.874 325.730,119.600 325.400 C 119.326 325.070,118.804 324.800,118.439 324.800 C 118.075 324.800,117.517 324.440,117.200 324.000 C 116.883 323.560,116.343 323.200,116.000 323.200 C 115.657 323.200,115.117 322.840,114.800 322.400 C 114.483 321.960,114.020 321.600,113.771 321.600 C 113.522 321.600,112.754 321.060,112.063 320.400 C 111.372 319.740,110.612 319.200,110.372 319.200 C 110.133 319.200,109.246 318.480,108.400 317.600 C 107.554 316.720,106.750 316.000,106.613 316.000 C 106.476 316.000,105.926 315.562,105.391 315.027 C 104.856 314.492,103.748 313.547,102.928 312.927 C 99.354 310.224,89.445 300.398,87.518 297.647 C 86.748 296.548,83.711 293.027,82.100 291.367 C 81.385 290.630,80.800 289.839,80.800 289.610 C 80.800 289.380,80.260 288.628,79.600 287.937 C 78.940 287.246,78.400 286.478,78.400 286.229 C 78.400 285.980,78.040 285.517,77.600 285.200 C 77.160 284.883,76.800 284.343,76.800 284.000 C 76.800 283.657,76.440 283.117,76.000 282.800 C 75.560 282.483,75.200 281.925,75.200 281.561 C 75.200 281.196,74.930 280.674,74.600 280.400 C 74.270 280.126,74.000 279.753,74.000 279.571 C 74.000 279.389,73.460 278.440,72.800 277.462 C 72.140 276.484,71.600 275.485,71.600 275.242 C 71.600 274.999,71.420 274.800,71.200 274.800 C 70.980 274.800,70.800 274.564,70.800 274.275 C 70.800 273.987,70.440 273.364,70.000 272.892 C 69.560 272.420,69.200 271.756,69.200 271.417 C 69.200 271.078,69.020 270.800,68.800 270.800 C 68.580 270.800,68.400 270.440,68.400 270.000 C 68.400 269.560,68.220 269.200,68.000 269.200 C 67.780 269.200,67.600 268.840,67.600 268.400 C 67.600 267.960,67.420 267.600,67.200 267.600 C 66.980 267.600,66.800 267.240,66.800 266.800 C 66.800 266.360,66.620 266.000,66.400 266.000 C 66.180 266.000,66.000 265.640,66.000 265.200 C 66.000 264.760,65.820 264.400,65.600 264.400 C 65.380 264.400,65.200 264.040,65.200 263.600 C 65.200 263.160,65.020 262.800,64.800 262.800 C 64.580 262.800,64.400 262.440,64.400 262.000 C 64.400 261.560,64.220 261.200,64.000 261.200 C 63.780 261.200,63.600 260.750,63.600 260.200 C 63.600 259.650,63.420 259.200,63.200 259.200 C 62.980 259.200,62.800 258.840,62.800 258.400 C 62.800 257.960,62.620 257.600,62.400 257.600 C 62.180 257.600,62.000 257.251,62.000 256.824 C 62.000 256.397,61.820 255.936,61.600 255.800 C 61.380 255.664,61.200 255.113,61.200 254.576 C 61.200 254.039,61.020 253.600,60.800 253.600 C 60.580 253.600,60.400 253.161,60.400 252.624 C 60.400 252.087,60.220 251.536,60.000 251.400 C 59.780 251.264,59.600 250.803,59.600 250.376 C 59.600 249.949,59.441 249.600,59.246 249.600 C 59.051 249.600,58.769 248.613,58.618 247.406 C 58.467 246.200,58.177 245.109,57.972 244.983 C 57.767 244.856,57.600 244.324,57.600 243.800 C 57.600 243.276,57.420 242.736,57.200 242.600 C 56.980 242.464,56.800 241.834,56.800 241.200 C 56.800 240.566,56.640 239.948,56.444 239.827 C 56.108 239.620,55.872 238.607,55.342 235.097 C 55.218 234.271,54.955 233.495,54.758 233.374 C 54.561 233.252,54.400 232.544,54.400 231.800 C 54.400 231.056,54.220 230.336,54.000 230.200 C 53.780 230.064,53.600 229.164,53.600 228.200 C 53.600 227.236,53.420 226.336,53.200 226.200 C 52.980 226.064,52.800 224.894,52.800 223.600 C 52.800 222.306,52.620 221.136,52.400 221.000 C 52.180 220.864,52.000 219.539,52.000 218.056 C 52.000 216.573,51.814 215.174,51.587 214.947 C 51.013 214.373,51.007 185.633,51.581 185.059 C 51.811 184.829,52.000 183.452,52.000 182.000 C 52.000 180.548,52.164 179.189,52.365 178.980 C 52.565 178.771,52.831 177.610,52.956 176.400 C 53.475 171.346,53.694 170.000,53.998 170.000 C 54.175 170.000,54.411 169.235,54.524 168.300 C 54.636 167.365,54.938 165.790,55.193 164.800 C 55.449 163.810,55.755 162.413,55.873 161.696 C 55.992 160.979,56.249 160.294,56.444 160.173 C 56.640 160.052,56.800 159.434,56.800 158.800 C 56.800 158.166,56.980 157.536,57.200 157.400 C 57.420 157.264,57.600 156.724,57.600 156.200 C 57.600 155.676,57.767 155.144,57.972 155.017 C 58.177 154.891,58.467 153.800,58.618 152.594 C 58.769 151.387,59.051 150.400,59.246 150.400 C 59.441 150.400,59.600 150.051,59.600 149.624 C 59.600 149.197,59.780 148.736,60.000 148.600 C 60.220 148.464,60.400 147.913,60.400 147.376 C 60.400 146.839,60.580 146.400,60.800 146.400 C 61.020 146.400,61.200 145.860,61.200 145.200 C 61.200 144.540,61.380 144.000,61.600 144.000 C 61.820 144.000,62.000 143.640,62.000 143.200 C 62.000 142.760,62.180 142.400,62.400 142.400 C 62.620 142.400,62.800 142.051,62.800 141.624 C 62.800 141.197,62.980 140.736,63.200 140.600 C 63.420 140.464,63.600 140.003,63.600 139.576 C 63.600 139.149,63.780 138.800,64.000 138.800 C 64.220 138.800,64.400 138.440,64.400 138.000 C 64.400 137.560,64.580 137.200,64.800 137.200 C 65.020 137.200,65.200 136.840,65.200 136.400 C 65.200 135.960,65.380 135.600,65.600 135.600 C 65.820 135.600,66.000 135.240,66.000 134.800 C 66.000 134.360,66.180 134.000,66.400 134.000 C 66.620 134.000,66.800 133.640,66.800 133.200 C 66.800 132.760,66.980 132.400,67.200 132.400 C 67.420 132.400,67.600 132.040,67.600 131.600 C 67.600 131.160,67.780 130.800,68.000 130.800 C 68.220 130.800,68.400 130.440,68.400 130.000 C 68.400 129.560,68.559 129.200,68.753 129.200 C 68.948 129.200,69.207 128.885,69.329 128.500 C 69.625 127.564,70.924 125.434,71.300 125.267 C 71.465 125.193,71.600 124.990,71.600 124.815 C 71.600 124.434,74.243 119.997,74.805 119.435 C 75.022 119.218,75.200 118.756,75.200 118.408 C 75.200 118.061,75.560 117.517,76.000 117.200 C 76.440 116.883,76.800 116.343,76.800 116.000 C 76.800 115.657,77.160 115.117,77.600 114.800 C 78.040 114.483,78.400 114.020,78.400 113.771 C 78.400 113.522,78.940 112.754,79.600 112.063 C 80.260 111.372,80.800 110.620,80.800 110.390 C 80.800 110.161,81.385 109.364,82.100 108.620 C 83.699 106.956,85.055 105.409,86.512 103.589 C 90.351 98.793,99.689 89.398,102.800 87.202 C 103.570 86.658,104.774 85.670,105.476 85.007 C 108.833 81.834,110.045 80.800,110.410 80.800 C 110.629 80.800,111.372 80.260,112.063 79.600 C 112.754 78.940,113.522 78.400,113.771 78.400 C 114.020 78.400,114.483 78.040,114.800 77.600 C 115.117 77.160,115.657 76.800,116.000 76.800 C 116.343 76.800,116.883 76.440,117.200 76.000 C 117.517 75.560,118.061 75.200,118.408 75.200 C 118.756 75.200,119.218 75.022,119.435 74.805 C 120.024 74.216,124.443 71.600,124.848 71.600 C 125.042 71.600,125.200 71.441,125.200 71.247 C 125.200 71.052,125.515 70.793,125.900 70.671 C 126.836 70.375,128.966 69.076,129.133 68.700 C 129.207 68.535,129.612 68.400,130.033 68.400 C 130.455 68.400,130.800 68.220,130.800 68.000 C 130.800 67.780,131.160 67.600,131.600 67.600 C 132.040 67.600,132.400 67.420,132.400 67.200 C 132.400 66.980,132.760 66.800,133.200 66.800 C 133.640 66.800,134.000 66.620,134.000 66.400 C 134.000 66.180,134.360 66.000,134.800 66.000 C 135.240 66.000,135.600 65.820,135.600 65.600 C 135.600 65.380,135.960 65.200,136.400 65.200 C 136.840 65.200,137.200 65.020,137.200 64.800 C 137.200 64.580,137.560 64.400,138.000 64.400 C 138.440 64.400,138.800 64.220,138.800 64.000 C 138.800 63.780,139.149 63.600,139.576 63.600 C 140.003 63.600,140.464 63.420,140.600 63.200 C 140.736 62.980,141.197 62.800,141.624 62.800 C 142.051 62.800,142.400 62.620,142.400 62.400 C 142.400 62.180,142.760 62.000,143.200 62.000 C 143.640 62.000,144.000 61.820,144.000 61.600 C 144.000 61.380,144.540 61.200,145.200 61.200 C 145.860 61.200,146.400 61.020,146.400 60.800 C 146.400 60.580,146.839 60.400,147.376 60.400 C 147.913 60.400,148.464 60.220,148.600 60.000 C 148.736 59.780,149.197 59.600,149.624 59.600 C 150.051 59.600,150.400 59.441,150.400 59.246 C 150.400 59.051,151.387 58.769,152.594 58.618 C 153.800 58.467,154.891 58.177,155.017 57.972 C 155.144 57.767,155.676 57.600,156.200 57.600 C 156.724 57.600,157.264 57.420,157.400 57.200 C 157.536 56.980,158.166 56.800,158.800 56.800 C 159.434 56.800,160.052 56.640,160.173 56.444 C 160.294 56.249,160.979 55.992,161.696 55.873 C 162.413 55.755,163.810 55.449,164.800 55.193 C 165.790 54.938,167.365 54.636,168.300 54.524 C 169.235 54.411,170.000 54.175,170.000 53.998 C 170.000 53.694,171.346 53.475,176.400 52.956 C 177.610 52.831,178.771 52.565,178.980 52.365 C 179.189 52.164,180.663 52.000,182.256 52.000 C 183.849 52.000,185.264 51.820,185.400 51.600 C 185.547 51.362,188.063 51.200,191.600 51.200 C 195.137 51.200,197.653 51.038,197.800 50.800 C 197.936 50.580,199.117 50.400,200.424 50.400 C 201.741 50.400,202.800 50.578,202.800 50.800 M174.550 107.315 C 172.983 108.902,169.653 112.202,167.150 114.648 C 158.377 123.225,154.400 127.542,154.400 128.491 C 154.400 129.160,163.655 138.654,189.699 164.699 L 224.998 200.000 189.699 235.301 C 163.655 261.346,154.400 270.840,154.400 271.509 C 154.400 273.190,176.811 295.600,178.493 295.600 C 179.369 295.600,262.800 212.730,262.800 211.860 C 262.800 211.673,263.295 211.039,263.900 210.450 C 265.184 209.199,266.000 207.861,266.000 207.005 C 266.000 206.672,266.180 206.400,266.400 206.400 C 266.620 206.400,266.800 205.781,266.800 205.024 C 266.800 204.267,266.980 203.536,267.200 203.400 C 267.420 203.264,267.600 201.734,267.600 200.000 C 267.600 198.266,267.420 196.736,267.200 196.600 C 266.980 196.464,266.800 195.733,266.800 194.976 C 266.800 194.219,266.620 193.600,266.400 193.600 C 266.180 193.600,266.000 193.240,266.000 192.800 C 266.000 192.360,265.820 192.000,265.600 192.000 C 265.380 192.000,265.200 191.733,265.200 191.407 C 265.200 189.881,179.903 104.392,178.403 104.415 C 177.699 104.426,176.549 105.292,174.550 107.315 " stroke="none" fill="#ffffff" fill-rule="evenodd"></path><path id="path1" d="" stroke="none" fill="#ffffff" fill-rule="evenodd"></path><path id="path2" d="" stroke="none" fill="#ffffff" fill-rule="evenodd"></path><path id="path3" d="" stroke="none" fill="#ffffff" fill-rule="evenodd"></path><path id="path4" d="" stroke="none" fill="#ffffff" fill-rule="evenodd"></path></g></svg>