<svg id="svg" version="1.1" xmlns="http://www.w3.org/2000/svg" xmlns:xlink="http://www.w3.org/1999/xlink" width="400" height="400" viewBox="0, 0, 400,400"><g id="svgg"><path id="path0" d="M102.600 126.644 C 100.180 126.707,93.290 126.969,87.288 127.226 C 78.722 127.592,74.482 127.584,67.567 127.189 C 57.817 126.632,56.902 126.744,53.712 128.888 C 48.049 132.693,47.221 142.029,52.208 145.833 C 55.442 148.300,56.884 148.555,67.714 148.579 C 75.716 148.596,77.695 148.707,77.972 149.154 C 79.017 150.845,78.896 174.925,77.689 205.400 C 77.418 212.252,78.435 219.781,80.060 222.948 C 83.570 229.786,96.451 229.187,99.271 222.056 C 101.040 217.581,101.530 202.329,100.424 186.200 C 99.668 175.177,100.104 149.760,101.065 148.802 C 101.177 148.691,105.798 148.600,111.334 148.600 C 121.920 148.600,123.070 148.444,125.800 146.634 C 128.790 144.651,129.707 142.598,129.750 137.796 C 129.834 128.290,124.443 126.075,102.600 126.644 M154.800 127.258 C 147.681 128.732,144.296 132.588,140.806 143.200 C 139.902 145.950,139.009 148.560,138.821 149.000 C 138.634 149.440,138.293 150.340,138.064 151.000 C 136.413 155.759,131.228 169.307,129.722 172.800 C 129.390 173.570,128.975 174.560,128.799 175.000 C 128.623 175.440,128.102 176.653,127.640 177.696 C 127.178 178.738,126.800 179.685,126.800 179.800 C 126.800 179.915,126.422 180.862,125.960 181.904 C 125.498 182.947,124.976 184.160,124.800 184.600 C 124.624 185.040,124.102 186.253,123.640 187.296 C 123.178 188.338,122.800 189.285,122.800 189.400 C 122.800 189.515,122.460 190.372,122.044 191.304 C 121.629 192.237,120.984 193.810,120.611 194.800 C 120.239 195.790,119.692 197.140,119.396 197.800 C 113.683 210.538,112.218 221.700,115.844 224.859 C 118.281 226.983,126.841 228.919,128.124 227.636 C 128.364 227.396,128.870 227.200,129.248 227.200 C 131.470 227.200,134.768 221.945,137.408 214.200 C 138.232 211.780,139.159 209.303,139.466 208.696 L 140.025 207.592 157.678 207.696 L 175.331 207.800 175.997 209.000 C 176.363 209.660,176.766 210.560,176.894 211.000 C 181.557 227.115,186.914 230.916,197.894 225.900 C 202.879 223.622,203.166 218.362,198.991 205.770 C 198.018 202.836,196.358 198.429,195.309 196.000 C 194.358 193.795,193.549 191.878,193.159 190.900 C 192.962 190.405,192.638 189.595,192.441 189.100 C 192.243 188.605,191.813 187.570,191.485 186.800 C 191.157 186.030,189.678 182.430,188.199 178.800 C 186.720 175.170,184.885 170.670,184.121 168.800 C 183.357 166.930,182.585 165.040,182.406 164.600 C 182.227 164.160,181.861 163.170,181.593 162.400 C 181.325 161.630,180.767 160.237,180.353 159.304 C 179.939 158.372,179.600 157.373,179.600 157.084 C 179.600 156.796,179.451 156.389,179.270 156.180 C 179.088 155.971,178.695 154.990,178.398 154.000 C 178.100 153.010,177.741 152.020,177.600 151.800 C 177.459 151.580,177.100 150.590,176.802 149.600 C 176.505 148.610,176.112 147.629,175.930 147.420 C 175.749 147.211,175.600 146.637,175.600 146.144 C 175.600 145.651,175.420 145.136,175.200 145.000 C 174.980 144.864,174.800 144.401,174.800 143.971 C 174.800 143.541,174.629 142.877,174.419 142.495 C 174.209 142.113,173.650 140.630,173.176 139.200 C 170.276 130.450,162.812 125.600,154.800 127.258 M216.175 127.547 C 208.670 130.109,208.087 132.527,209.023 157.200 C 209.227 162.587,208.999 173.942,208.116 202.400 C 207.902 209.317,208.530 218.186,209.267 218.641 C 209.450 218.755,209.604 219.242,209.610 219.724 C 209.625 221.060,212.183 224.259,213.885 225.070 C 215.227 225.708,216.635 225.792,226.200 225.802 C 232.140 225.809,240.452 225.973,244.670 226.169 C 259.160 226.839,265.247 224.674,266.774 218.310 C 267.641 214.693,266.433 210.406,264.015 208.521 C 260.691 205.930,258.177 205.554,244.397 205.582 C 232.548 205.606,232.015 205.575,231.616 204.830 C 231.337 204.309,231.200 192.577,231.200 169.238 C 231.200 134.632,231.195 134.415,230.361 132.912 C 227.574 127.890,221.691 125.665,216.175 127.547 M279.769 127.348 C 273.907 129.501,272.136 132.929,272.404 141.600 C 272.739 152.408,272.579 178.930,272.089 193.800 C 271.393 214.910,271.990 220.603,275.307 224.455 C 279.650 229.499,290.257 227.896,293.147 221.759 C 293.448 221.122,293.852 220.287,294.047 219.905 C 294.241 219.523,294.400 213.030,294.400 205.476 L 294.400 191.742 296.334 189.671 C 298.920 186.902,298.858 186.874,303.201 192.660 C 305.291 195.443,307.186 197.918,307.413 198.160 C 307.640 198.402,308.262 199.230,308.794 200.000 C 309.326 200.770,309.864 201.490,309.988 201.600 C 310.113 201.710,311.826 203.960,313.794 206.600 C 315.762 209.240,317.474 211.490,317.597 211.600 C 317.720 211.710,319.701 214.320,321.999 217.400 C 328.577 226.215,329.863 227.200,334.788 227.200 C 343.276 227.200,349.319 218.251,345.439 211.428 C 344.829 210.356,330.593 191.358,329.981 190.800 C 329.860 190.690,329.329 189.970,328.800 189.200 C 328.271 188.430,327.731 187.710,327.600 187.600 C 327.469 187.490,326.929 186.770,326.400 186.000 C 325.871 185.230,325.339 184.510,325.218 184.400 C 325.097 184.290,324.189 183.120,323.200 181.800 C 322.211 180.480,321.309 179.310,321.196 179.200 C 320.373 178.401,316.000 172.233,316.000 171.873 C 316.000 171.624,322.109 165.360,329.576 157.954 C 338.781 148.824,343.354 144.007,343.776 142.995 C 346.497 136.483,340.740 128.400,333.381 128.400 C 329.821 128.400,328.935 129.134,311.839 146.252 C 302.969 155.133,295.411 162.400,295.044 162.400 C 294.433 162.400,294.386 161.334,294.484 149.700 C 294.601 135.655,294.409 134.190,292.017 130.887 C 289.446 127.337,284.045 125.777,279.769 127.348 M158.320 156.080 C 158.584 156.344,158.800 156.886,158.800 157.285 C 158.800 157.684,159.008 158.413,159.262 158.905 C 160.249 160.814,160.400 161.213,160.400 161.915 C 160.400 162.314,160.543 162.811,160.718 163.020 C 160.893 163.229,161.242 164.030,161.492 164.800 C 161.743 165.570,163.479 170.520,165.351 175.800 C 167.222 181.080,168.873 185.895,169.020 186.500 L 169.287 187.600 157.643 187.600 C 145.831 187.600,145.196 187.520,146.318 186.180 C 146.493 185.971,146.866 185.080,147.147 184.200 C 147.666 182.571,149.012 178.849,149.606 177.400 C 149.786 176.960,150.024 176.240,150.134 175.800 C 150.310 175.100,151.751 171.006,154.779 162.600 C 155.511 160.570,156.233 158.465,157.011 156.100 C 157.218 155.470,157.702 155.462,158.320 156.080 " stroke="none" fill="#f9e93b" fill-rule="evenodd"></path><path id="path1" d="M184.000 16.400 C 184.000 16.644,182.141 16.800,179.224 16.800 C 176.471 16.800,174.342 16.969,174.200 17.200 C 174.064 17.420,172.444 17.600,170.600 17.600 C 168.756 17.600,167.136 17.780,167.000 18.000 C 166.864 18.220,165.593 18.400,164.176 18.400 C 162.725 18.400,161.600 18.575,161.600 18.800 C 161.600 19.022,160.533 19.200,159.200 19.200 C 157.867 19.200,156.800 19.378,156.800 19.600 C 156.800 19.820,155.821 20.000,154.624 20.000 C 153.427 20.000,152.336 20.180,152.200 20.400 C 152.064 20.620,151.063 20.800,149.976 20.800 C 148.889 20.800,148.000 20.980,148.000 21.200 C 148.000 21.420,147.280 21.600,146.400 21.600 C 145.520 21.600,144.800 21.780,144.800 22.000 C 144.800 22.220,143.990 22.400,143.000 22.400 C 142.010 22.400,141.200 22.580,141.200 22.800 C 141.200 23.020,140.480 23.200,139.600 23.200 C 138.720 23.200,138.000 23.380,138.000 23.600 C 138.000 23.820,137.381 24.000,136.624 24.000 C 135.867 24.000,135.136 24.180,135.000 24.400 C 134.864 24.620,134.370 24.800,133.902 24.800 C 132.763 24.800,127.977 25.940,127.105 26.418 C 126.723 26.628,126.048 26.800,125.605 26.800 C 125.162 26.800,124.800 26.980,124.800 27.200 C 124.800 27.420,124.395 27.603,123.900 27.606 C 122.924 27.613,120.185 28.482,119.741 28.926 C 119.590 29.077,119.047 29.200,118.533 29.200 C 118.020 29.200,117.600 29.380,117.600 29.600 C 117.600 29.820,117.060 30.000,116.400 30.000 C 115.740 30.000,115.200 30.180,115.200 30.400 C 115.200 30.620,114.838 30.800,114.395 30.800 C 113.952 30.800,113.232 30.980,112.795 31.200 C 112.358 31.420,111.642 31.780,111.205 32.000 C 110.768 32.220,110.138 32.400,109.805 32.400 C 109.472 32.400,109.200 32.547,109.200 32.728 C 109.200 32.908,108.300 33.300,107.200 33.600 C 106.100 33.900,105.200 34.292,105.200 34.472 C 105.200 34.653,104.840 34.800,104.400 34.800 C 103.960 34.800,103.600 34.980,103.600 35.200 C 103.600 35.420,103.161 35.600,102.624 35.600 C 102.087 35.600,101.536 35.780,101.400 36.000 C 101.264 36.220,100.803 36.400,100.376 36.400 C 99.949 36.400,99.600 36.580,99.600 36.800 C 99.600 37.020,99.240 37.200,98.800 37.200 C 98.360 37.200,98.000 37.380,98.000 37.600 C 98.000 37.820,97.640 38.000,97.200 38.000 C 96.760 38.000,96.400 38.180,96.400 38.400 C 96.400 38.620,96.040 38.800,95.600 38.800 C 95.160 38.800,94.800 38.980,94.800 39.200 C 94.800 39.420,94.440 39.600,94.000 39.600 C 93.560 39.600,93.200 39.780,93.200 40.000 C 93.200 40.220,92.930 40.400,92.600 40.400 C 92.270 40.400,92.000 40.580,92.000 40.800 C 92.000 41.020,91.751 41.200,91.446 41.200 C 91.141 41.200,90.376 41.469,89.746 41.798 C 89.116 42.126,88.300 42.396,87.933 42.398 C 87.567 42.399,87.207 42.535,87.133 42.700 C 87.060 42.865,85.785 43.628,84.300 44.396 C 82.815 45.163,81.600 45.928,81.600 46.096 C 81.600 46.263,81.240 46.400,80.800 46.400 C 80.360 46.400,80.000 46.580,80.000 46.800 C 80.000 47.020,79.764 47.200,79.475 47.200 C 79.187 47.200,78.602 47.515,78.175 47.900 C 77.749 48.285,76.860 48.869,76.200 49.197 C 75.540 49.526,74.709 50.111,74.353 50.497 C 73.997 50.884,73.412 51.200,73.053 51.200 C 72.694 51.200,72.400 51.380,72.400 51.600 C 72.400 51.820,72.175 52.000,71.900 52.001 C 71.625 52.001,70.770 52.541,70.000 53.200 C 69.230 53.859,68.415 54.399,68.188 54.399 C 67.962 54.400,67.517 54.760,67.200 55.200 C 66.883 55.640,66.343 56.000,66.000 56.000 C 65.657 56.000,65.117 56.360,64.800 56.800 C 64.483 57.240,64.062 57.600,63.865 57.600 C 63.420 57.600,59.720 60.277,58.482 61.496 C 57.977 61.993,57.397 62.400,57.192 62.400 C 56.988 62.400,56.011 63.210,55.021 64.200 C 54.031 65.190,53.059 66.000,52.862 66.000 C 51.916 66.000,33.077 84.788,31.994 86.811 C 31.743 87.280,30.832 88.390,29.969 89.280 C 29.106 90.169,28.400 91.145,28.400 91.448 C 28.400 91.752,28.236 92.000,28.035 92.000 C 27.634 92.000,24.000 96.938,24.000 97.483 C 24.000 97.670,23.640 98.083,23.200 98.400 C 22.760 98.717,22.400 99.257,22.400 99.600 C 22.400 99.943,22.040 100.483,21.600 100.800 C 21.160 101.117,20.800 101.614,20.800 101.905 C 20.800 102.196,20.440 102.820,20.000 103.292 C 19.560 103.764,19.200 104.387,19.200 104.675 C 19.200 104.964,19.020 105.200,18.800 105.200 C 18.580 105.200,18.400 105.478,18.400 105.817 C 18.400 106.156,18.040 106.820,17.600 107.292 C 17.160 107.764,16.800 108.387,16.800 108.675 C 16.800 108.964,16.620 109.200,16.400 109.200 C 16.180 109.200,16.000 109.470,16.000 109.800 C 16.000 110.130,15.820 110.400,15.600 110.400 C 15.380 110.400,15.200 110.760,15.200 111.200 C 15.200 111.640,15.020 112.000,14.800 112.000 C 14.580 112.000,14.400 112.360,14.400 112.800 C 14.400 113.240,14.220 113.600,14.000 113.600 C 13.780 113.600,13.600 113.960,13.600 114.400 C 13.600 114.840,13.420 115.200,13.200 115.200 C 12.980 115.200,12.800 115.560,12.800 116.000 C 12.800 116.440,12.620 116.800,12.400 116.800 C 12.180 116.800,12.000 117.160,12.000 117.600 C 12.000 118.040,11.820 118.400,11.600 118.400 C 11.380 118.400,11.200 118.760,11.200 119.200 C 11.200 119.640,11.020 120.000,10.800 120.000 C 10.580 120.000,10.400 120.236,10.400 120.525 C 10.400 120.814,10.061 121.759,9.647 122.625 C 9.233 123.491,8.769 124.783,8.616 125.495 C 8.463 126.208,8.172 126.894,7.969 127.019 C 7.766 127.145,7.600 127.687,7.600 128.224 C 7.600 128.761,7.420 129.200,7.200 129.200 C 6.980 129.200,6.800 129.740,6.800 130.400 C 6.800 131.060,6.620 131.600,6.400 131.600 C 6.180 131.600,6.000 132.140,6.000 132.800 C 6.000 133.460,5.820 134.000,5.600 134.000 C 5.380 134.000,5.200 134.540,5.200 135.200 C 5.200 135.860,5.020 136.400,4.800 136.400 C 4.580 136.400,4.400 136.940,4.400 137.600 C 4.400 138.260,4.220 138.800,4.000 138.800 C 3.780 138.800,3.600 139.520,3.600 140.400 C 3.600 141.280,3.420 142.000,3.200 142.000 C 2.980 142.000,2.800 142.619,2.800 143.376 C 2.800 144.133,2.620 144.864,2.400 145.000 C 2.180 145.136,2.000 146.047,2.000 147.024 C 2.000 148.001,1.820 148.800,1.600 148.800 C 1.380 148.800,1.200 149.664,1.200 150.720 C 1.200 151.776,0.975 152.865,0.700 153.140 C -0.029 153.869,-0.029 192.857,0.700 193.100 C 1.025 193.208,1.200 194.096,1.200 195.633 C 1.200 196.944,1.378 198.000,1.600 198.000 C 1.820 198.000,2.000 198.709,2.000 199.576 C 2.000 200.443,2.180 201.264,2.400 201.400 C 2.620 201.536,2.800 202.346,2.800 203.200 C 2.800 204.054,2.980 204.864,3.200 205.000 C 3.420 205.136,3.600 205.676,3.600 206.200 C 3.600 206.724,3.780 207.264,4.000 207.400 C 4.220 207.536,4.400 208.267,4.400 209.024 C 4.400 209.781,4.580 210.400,4.800 210.400 C 5.020 210.400,5.200 210.940,5.200 211.600 C 5.200 212.260,5.380 212.800,5.600 212.800 C 5.820 212.800,6.000 213.340,6.000 214.000 C 6.000 214.660,6.180 215.200,6.400 215.200 C 6.620 215.200,6.800 215.740,6.800 216.400 C 6.800 217.060,6.980 217.600,7.200 217.600 C 7.420 217.600,7.600 217.949,7.600 218.376 C 7.600 218.803,7.780 219.264,8.000 219.400 C 8.220 219.536,8.400 220.008,8.400 220.449 C 8.400 220.890,8.850 222.235,9.400 223.437 C 9.950 224.640,10.400 225.888,10.400 226.212 C 10.400 226.535,10.580 226.800,10.800 226.800 C 11.020 226.800,11.200 227.160,11.200 227.600 C 11.200 228.040,11.380 228.400,11.600 228.400 C 11.820 228.400,12.000 228.760,12.000 229.200 C 12.000 229.640,12.180 230.000,12.400 230.000 C 12.620 230.000,12.800 230.360,12.800 230.800 C 12.800 231.240,12.980 231.600,13.200 231.600 C 13.420 231.600,13.600 231.960,13.600 232.400 C 13.600 232.840,13.780 233.200,14.000 233.200 C 14.220 233.200,14.400 233.560,14.400 234.000 C 14.400 234.440,14.546 234.800,14.725 234.800 C 14.904 234.800,15.298 235.430,15.600 236.200 C 15.902 236.970,16.296 237.600,16.475 237.600 C 16.654 237.600,16.800 237.870,16.800 238.200 C 16.800 238.530,16.936 238.800,17.102 238.800 C 17.269 238.800,17.660 239.385,17.972 240.100 C 18.284 240.815,18.868 241.691,19.270 242.047 C 19.671 242.403,20.000 242.948,20.000 243.259 C 20.000 243.569,20.360 244.083,20.800 244.400 C 21.240 244.717,21.600 245.257,21.600 245.600 C 21.600 245.943,21.960 246.483,22.400 246.800 C 22.840 247.117,23.200 247.657,23.200 248.000 C 23.200 248.343,23.560 248.883,24.000 249.200 C 24.440 249.517,24.800 250.020,24.800 250.317 C 24.800 250.614,25.025 251.108,25.300 251.415 C 26.194 252.412,26.647 252.998,27.027 253.651 C 27.691 254.791,29.758 257.289,31.500 259.055 C 32.435 260.003,33.200 260.959,33.200 261.179 C 33.200 261.756,50.596 279.200,51.171 279.200 C 51.436 279.200,52.529 280.100,53.600 281.200 C 54.671 282.300,55.758 283.200,56.014 283.200 C 56.270 283.200,56.956 283.695,57.540 284.300 C 58.123 284.905,59.679 286.210,60.998 287.200 C 62.318 288.190,63.578 289.136,63.798 289.301 C 65.409 290.510,68.454 292.400,68.790 292.400 C 69.016 292.400,69.200 292.580,69.200 292.800 C 69.200 293.020,69.436 293.200,69.725 293.200 C 70.013 293.200,70.598 293.515,71.025 293.900 C 71.451 294.285,72.295 294.855,72.900 295.168 C 73.505 295.480,74.000 295.885,74.000 296.068 C 74.000 296.250,74.236 296.400,74.525 296.400 C 74.813 296.400,75.436 296.760,75.908 297.200 C 76.380 297.640,76.954 298.000,77.183 298.000 C 77.412 298.000,77.600 298.180,77.600 298.400 C 77.600 298.620,77.960 298.800,78.400 298.800 C 78.840 298.800,79.200 298.980,79.200 299.200 C 79.200 299.420,79.470 299.600,79.800 299.600 C 80.130 299.600,80.400 299.780,80.400 300.000 C 80.400 300.220,80.670 300.400,81.000 300.400 C 81.330 300.400,81.600 300.580,81.600 300.800 C 81.600 301.020,81.960 301.200,82.400 301.200 C 82.840 301.200,83.200 301.380,83.200 301.600 C 83.200 301.820,83.560 302.000,84.000 302.000 C 84.440 302.000,84.800 302.180,84.800 302.400 C 84.800 302.620,85.160 302.800,85.600 302.800 C 86.040 302.800,86.400 302.947,86.400 303.126 C 86.400 303.305,87.750 304.119,89.400 304.935 C 92.713 306.573,92.850 306.853,91.788 309.800 C 91.471 310.680,91.209 311.805,91.206 312.300 C 91.203 312.795,91.020 313.200,90.800 313.200 C 90.580 313.200,90.400 313.830,90.400 314.600 C 90.400 315.370,90.220 316.000,90.000 316.000 C 89.780 316.000,89.600 316.540,89.600 317.200 C 89.600 317.860,89.420 318.400,89.200 318.400 C 88.980 318.400,88.800 318.929,88.800 319.576 C 88.800 320.223,88.620 320.864,88.400 321.000 C 88.180 321.136,88.000 321.867,88.000 322.624 C 88.000 323.381,87.820 324.000,87.600 324.000 C 87.380 324.000,87.200 324.439,87.200 324.976 C 87.200 325.513,87.020 326.064,86.800 326.200 C 86.580 326.336,86.400 326.887,86.400 327.424 C 86.400 327.961,86.220 328.400,86.000 328.400 C 85.780 328.400,85.600 328.929,85.600 329.576 C 85.600 330.223,85.420 330.864,85.200 331.000 C 84.980 331.136,84.800 331.766,84.800 332.400 C 84.800 333.034,84.620 333.664,84.400 333.800 C 84.180 333.936,84.000 334.577,84.000 335.224 C 84.000 335.871,83.820 336.400,83.600 336.400 C 83.380 336.400,83.200 336.940,83.200 337.600 C 83.200 338.260,83.020 338.800,82.800 338.800 C 82.580 338.800,82.400 339.340,82.400 340.000 C 82.400 340.660,82.220 341.200,82.000 341.200 C 81.780 341.200,81.600 341.740,81.600 342.400 C 81.600 343.060,81.420 343.600,81.200 343.600 C 80.980 343.600,80.800 344.129,80.800 344.776 C 80.800 345.423,80.620 346.064,80.400 346.200 C 80.180 346.336,80.000 346.977,80.000 347.624 C 80.000 348.271,79.820 348.800,79.600 348.800 C 79.380 348.800,79.200 349.340,79.200 350.000 C 79.200 350.660,79.020 351.200,78.800 351.200 C 78.580 351.200,78.400 351.652,78.400 352.205 C 78.400 352.758,78.242 353.523,78.049 353.905 C 77.460 355.072,76.800 357.408,76.800 358.328 C 76.800 358.808,76.659 359.200,76.486 359.200 C 76.111 359.200,74.783 364.928,74.793 366.500 C 74.797 367.105,74.620 367.600,74.400 367.600 C 74.180 367.600,74.000 368.320,74.000 369.200 C 74.000 370.080,73.820 370.800,73.600 370.800 C 73.367 370.800,73.200 372.135,73.200 374.005 C 73.200 375.851,72.988 377.570,72.700 378.058 C 72.300 378.735,72.300 378.941,72.700 379.086 C 72.975 379.185,73.200 379.890,73.200 380.652 C 73.200 383.027,74.590 384.000,77.982 384.000 C 79.594 384.000,80.800 383.829,80.800 383.600 C 80.800 383.380,81.340 383.200,82.000 383.200 C 82.660 383.200,83.200 383.020,83.200 382.800 C 83.200 382.580,83.560 382.400,84.000 382.400 C 84.440 382.400,84.800 382.220,84.800 382.000 C 84.800 381.780,85.160 381.600,85.600 381.600 C 86.040 381.600,86.400 381.420,86.400 381.200 C 86.400 380.980,86.760 380.800,87.200 380.800 C 87.640 380.800,88.000 380.620,88.000 380.400 C 88.000 380.180,88.360 380.000,88.800 380.000 C 89.240 380.000,89.600 379.864,89.600 379.698 C 89.600 379.531,90.185 379.140,90.900 378.828 C 91.615 378.516,92.491 377.932,92.847 377.530 C 93.203 377.129,93.788 376.800,94.147 376.800 C 94.506 376.800,94.800 376.620,94.800 376.400 C 94.800 376.180,95.160 376.000,95.600 376.000 C 96.040 376.000,96.400 375.838,96.400 375.639 C 96.400 375.441,96.906 375.102,97.524 374.886 C 98.143 374.671,98.914 374.248,99.240 373.947 C 99.565 373.646,100.184 373.203,100.615 372.962 C 102.942 371.665,103.418 371.380,103.600 371.177 C 103.710 371.055,105.240 369.975,107.000 368.777 C 108.760 367.580,110.549 366.285,110.975 365.900 C 111.402 365.515,111.947 365.200,112.187 365.200 C 112.427 365.200,112.883 364.840,113.200 364.400 C 113.517 363.960,114.057 363.600,114.400 363.600 C 114.743 363.600,115.283 363.240,115.600 362.800 C 115.917 362.360,116.431 362.000,116.741 362.000 C 117.052 362.000,117.597 361.684,117.953 361.297 C 118.309 360.911,119.095 360.340,119.700 360.030 C 120.305 359.719,120.800 359.315,120.800 359.132 C 120.800 358.950,121.045 358.800,121.345 358.800 C 121.816 358.800,122.761 358.153,125.606 355.883 C 125.939 355.617,126.704 355.145,127.306 354.832 C 127.908 354.520,128.400 354.115,128.400 353.932 C 128.400 353.750,128.643 353.600,128.941 353.600 C 129.238 353.600,130.046 353.060,130.737 352.400 C 131.428 351.740,132.225 351.200,132.508 351.200 C 132.791 351.200,133.283 350.840,133.600 350.400 C 133.917 349.960,134.457 349.600,134.800 349.600 C 135.143 349.600,135.683 349.240,136.000 348.800 C 136.317 348.360,136.807 348.000,137.088 348.000 C 137.370 348.000,137.600 347.820,137.600 347.600 C 137.600 347.380,137.830 347.200,138.112 347.200 C 138.393 347.200,138.883 346.840,139.200 346.400 C 139.517 345.960,140.005 345.600,140.285 345.600 C 140.564 345.600,141.018 345.240,141.293 344.800 C 141.568 344.360,142.069 344.000,142.408 344.000 C 142.746 344.000,143.283 343.640,143.600 343.200 C 143.917 342.760,144.420 342.400,144.717 342.400 C 145.014 342.400,145.508 342.175,145.815 341.900 C 146.812 341.006,147.381 340.610,148.500 340.032 C 149.105 339.720,149.600 339.337,149.600 339.181 C 149.600 339.025,150.140 338.673,150.800 338.400 C 151.460 338.127,152.000 337.787,152.000 337.646 C 152.000 337.505,152.720 336.944,153.600 336.400 C 154.480 335.856,155.200 335.274,155.200 335.106 C 155.200 334.938,155.442 334.800,155.738 334.800 C 156.034 334.800,156.602 334.440,157.000 334.000 C 157.398 333.560,157.926 333.200,158.174 333.200 C 158.421 333.200,158.883 332.840,159.200 332.400 C 159.517 331.960,159.980 331.600,160.229 331.600 C 160.478 331.600,161.246 331.060,161.937 330.400 C 162.628 329.740,163.464 329.200,163.796 329.200 C 164.128 329.200,164.400 329.020,164.400 328.800 C 164.400 328.578,165.467 328.400,166.800 328.400 C 168.133 328.400,169.200 328.578,169.200 328.800 C 169.200 329.038,170.725 329.200,172.976 329.200 C 175.063 329.200,176.863 329.379,177.000 329.600 C 177.146 329.837,179.604 330.000,183.024 330.000 C 186.608 330.000,188.800 330.152,188.800 330.400 C 188.800 330.657,192.800 330.800,200.000 330.800 C 207.200 330.800,211.200 330.657,211.200 330.400 C 211.200 330.152,213.392 330.000,216.976 330.000 C 220.396 330.000,222.854 329.837,223.000 329.600 C 223.137 329.379,224.937 329.200,227.024 329.200 C 229.275 329.200,230.800 329.038,230.800 328.800 C 230.800 328.572,231.992 328.400,233.576 328.400 C 235.103 328.400,236.464 328.220,236.600 328.000 C 236.736 327.780,237.917 327.600,239.224 327.600 C 240.541 327.600,241.600 327.422,241.600 327.200 C 241.600 326.978,242.667 326.800,244.000 326.800 C 245.333 326.800,246.400 326.622,246.400 326.400 C 246.400 326.180,247.300 326.000,248.400 326.000 C 249.500 326.000,250.400 325.846,250.400 325.658 C 250.400 325.469,251.875 325.192,253.678 325.042 C 255.481 324.891,257.146 324.617,257.378 324.432 C 257.610 324.246,258.475 323.983,259.300 323.847 C 263.062 323.227,263.600 323.090,263.600 322.756 C 263.600 322.560,264.320 322.400,265.200 322.400 C 266.080 322.400,266.800 322.220,266.800 322.000 C 266.800 321.780,267.419 321.600,268.176 321.600 C 268.933 321.600,269.664 321.420,269.800 321.200 C 269.936 320.980,270.476 320.800,271.000 320.800 C 271.524 320.800,272.064 320.620,272.200 320.400 C 272.336 320.180,272.876 320.000,273.400 320.000 C 273.924 320.000,274.464 319.820,274.600 319.600 C 274.736 319.380,275.366 319.200,276.000 319.200 C 276.634 319.200,277.242 319.056,277.351 318.879 C 277.460 318.703,278.472 318.307,279.600 318.000 C 280.728 317.693,281.740 317.297,281.849 317.121 C 281.958 316.944,282.487 316.800,283.024 316.800 C 283.561 316.800,284.000 316.620,284.000 316.400 C 284.000 316.180,284.540 316.000,285.200 316.000 C 285.860 316.000,286.400 315.820,286.400 315.600 C 286.400 315.380,286.850 315.200,287.400 315.200 C 287.950 315.200,288.400 315.020,288.400 314.800 C 288.400 314.580,288.850 314.400,289.400 314.400 C 289.950 314.400,290.400 314.220,290.400 314.000 C 290.400 313.780,290.850 313.600,291.400 313.600 C 291.950 313.600,292.400 313.420,292.400 313.200 C 292.400 312.980,292.760 312.800,293.200 312.800 C 293.640 312.800,294.000 312.620,294.000 312.400 C 294.000 312.180,294.540 312.000,295.200 312.000 C 295.860 312.000,296.400 311.820,296.400 311.600 C 296.400 311.380,296.760 311.200,297.200 311.200 C 297.640 311.200,298.000 311.020,298.000 310.800 C 298.000 310.580,298.360 310.400,298.800 310.400 C 299.240 310.400,299.600 310.220,299.600 310.000 C 299.600 309.780,299.960 309.600,300.400 309.600 C 300.840 309.600,301.200 309.420,301.200 309.200 C 301.200 308.980,301.595 308.800,302.079 308.800 C 303.081 308.800,313.600 303.618,313.600 303.124 C 313.600 302.946,313.960 302.800,314.400 302.800 C 314.840 302.800,315.200 302.620,315.200 302.400 C 315.200 302.180,315.560 302.000,316.000 302.000 C 316.440 302.000,316.800 301.820,316.800 301.600 C 316.800 301.380,317.160 301.200,317.600 301.200 C 318.040 301.200,318.400 301.020,318.400 300.800 C 318.400 300.580,318.636 300.400,318.925 300.400 C 319.213 300.400,319.836 300.040,320.308 299.600 C 320.780 299.160,321.444 298.800,321.783 298.800 C 322.122 298.800,322.400 298.620,322.400 298.400 C 322.400 298.180,322.670 298.000,323.000 298.000 C 323.330 298.000,323.600 297.820,323.600 297.600 C 323.600 297.380,323.870 297.200,324.200 297.200 C 324.530 297.200,324.800 297.020,324.800 296.800 C 324.800 296.580,324.988 296.400,325.217 296.400 C 325.446 296.400,326.020 296.040,326.492 295.600 C 326.964 295.160,327.587 294.800,327.875 294.800 C 328.164 294.800,328.400 294.620,328.400 294.400 C 328.400 294.180,328.643 294.000,328.941 294.000 C 329.238 294.000,330.018 293.487,330.674 292.860 C 331.330 292.233,332.347 291.600,332.934 291.452 C 333.520 291.305,334.000 291.008,334.000 290.792 C 334.000 290.577,334.236 290.400,334.525 290.400 C 334.813 290.400,335.398 290.080,335.825 289.689 C 336.251 289.298,337.230 288.536,338.000 287.995 C 339.917 286.648,340.686 286.015,342.240 284.500 C 342.973 283.785,343.741 283.200,343.946 283.200 C 344.151 283.200,345.238 282.300,346.361 281.200 C 347.485 280.100,348.559 279.200,348.747 279.200 C 349.057 279.200,357.104 271.741,358.161 270.474 C 358.402 270.184,360.445 268.071,362.700 265.778 C 364.955 263.485,366.800 261.422,366.800 261.194 C 366.800 260.966,367.565 260.003,368.500 259.055 C 370.244 257.287,372.310 254.791,372.975 253.648 C 373.181 253.294,373.766 252.555,374.275 252.006 C 374.784 251.457,375.200 250.731,375.200 250.392 C 375.200 250.054,375.560 249.517,376.000 249.200 C 376.440 248.883,376.800 248.343,376.800 248.000 C 376.800 247.657,377.160 247.117,377.600 246.800 C 378.040 246.483,378.400 245.943,378.400 245.600 C 378.400 245.257,378.760 244.717,379.200 244.400 C 379.640 244.083,380.000 243.569,380.000 243.259 C 380.000 242.948,380.329 242.403,380.730 242.047 C 381.132 241.691,381.716 240.815,382.028 240.100 C 382.340 239.385,382.731 238.800,382.898 238.800 C 383.064 238.800,383.200 238.522,383.200 238.183 C 383.200 237.844,383.560 237.180,384.000 236.708 C 384.440 236.236,384.800 235.613,384.800 235.325 C 384.800 235.036,384.980 234.800,385.200 234.800 C 385.420 234.800,385.600 234.440,385.600 234.000 C 385.600 233.560,385.780 233.200,386.000 233.200 C 386.220 233.200,386.400 232.840,386.400 232.400 C 386.400 231.960,386.580 231.600,386.800 231.600 C 387.020 231.600,387.200 231.240,387.200 230.800 C 387.200 230.360,387.380 230.000,387.600 230.000 C 387.820 230.000,388.000 229.640,388.000 229.200 C 388.000 228.760,388.180 228.400,388.400 228.400 C 388.620 228.400,388.800 228.040,388.800 227.600 C 388.800 227.160,388.980 226.800,389.200 226.800 C 389.420 226.800,389.600 226.535,389.600 226.212 C 389.600 225.888,390.050 224.640,390.600 223.437 C 391.150 222.235,391.600 220.890,391.600 220.449 C 391.600 220.008,391.780 219.536,392.000 219.400 C 392.220 219.264,392.400 218.803,392.400 218.376 C 392.400 217.949,392.580 217.600,392.800 217.600 C 393.020 217.600,393.200 217.060,393.200 216.400 C 393.200 215.740,393.380 215.200,393.600 215.200 C 393.820 215.200,394.000 214.660,394.000 214.000 C 394.000 213.340,394.180 212.800,394.400 212.800 C 394.620 212.800,394.800 212.260,394.800 211.600 C 394.800 210.940,394.980 210.400,395.200 210.400 C 395.420 210.400,395.600 209.781,395.600 209.024 C 395.600 208.267,395.780 207.536,396.000 207.400 C 396.220 207.264,396.400 206.623,396.400 205.976 C 396.400 205.329,396.580 204.800,396.800 204.800 C 397.020 204.800,397.200 204.091,397.200 203.224 C 397.200 202.357,397.380 201.536,397.600 201.400 C 397.820 201.264,398.000 200.443,398.000 199.576 C 398.000 198.709,398.180 198.000,398.400 198.000 C 398.622 198.000,398.800 196.944,398.800 195.633 C 398.800 194.096,398.975 193.208,399.300 193.100 C 399.691 192.970,399.800 188.688,399.800 173.487 C 399.800 158.463,399.686 153.926,399.300 153.540 C 399.025 153.265,398.800 152.086,398.800 150.920 C 398.800 149.754,398.620 148.800,398.400 148.800 C 398.180 148.800,398.000 148.001,398.000 147.024 C 398.000 146.047,397.820 145.136,397.600 145.000 C 397.380 144.864,397.200 144.133,397.200 143.376 C 397.200 142.619,397.020 142.000,396.800 142.000 C 396.580 142.000,396.400 141.280,396.400 140.400 C 396.400 139.520,396.220 138.800,396.000 138.800 C 395.780 138.800,395.600 138.260,395.600 137.600 C 395.600 136.940,395.420 136.400,395.200 136.400 C 394.980 136.400,394.800 135.860,394.800 135.200 C 394.800 134.540,394.620 134.000,394.400 134.000 C 394.180 134.000,394.000 133.460,394.000 132.800 C 394.000 132.140,393.820 131.600,393.600 131.600 C 393.380 131.600,393.200 131.060,393.200 130.400 C 393.200 129.740,393.020 129.200,392.800 129.200 C 392.580 129.200,392.400 128.761,392.400 128.224 C 392.400 127.687,392.234 127.145,392.031 127.019 C 391.828 126.894,391.537 126.208,391.384 125.495 C 391.231 124.783,390.767 123.491,390.353 122.625 C 389.939 121.759,389.600 120.814,389.600 120.525 C 389.600 120.236,389.420 120.000,389.200 120.000 C 388.980 120.000,388.800 119.640,388.800 119.200 C 388.800 118.760,388.620 118.400,388.400 118.400 C 388.180 118.400,388.000 118.040,388.000 117.600 C 388.000 117.160,387.820 116.800,387.600 116.800 C 387.380 116.800,387.200 116.440,387.200 116.000 C 387.200 115.560,387.020 115.200,386.800 115.200 C 386.580 115.200,386.400 114.840,386.400 114.400 C 386.400 113.960,386.220 113.600,386.000 113.600 C 385.780 113.600,385.600 113.240,385.600 112.800 C 385.600 112.360,385.420 112.000,385.200 112.000 C 384.980 112.000,384.800 111.640,384.800 111.200 C 384.800 110.760,384.620 110.400,384.400 110.400 C 384.180 110.400,384.000 110.130,384.000 109.800 C 384.000 109.470,383.820 109.200,383.600 109.200 C 383.380 109.200,383.200 108.964,383.200 108.675 C 383.200 108.387,382.840 107.764,382.400 107.292 C 381.960 106.820,381.600 106.156,381.600 105.817 C 381.600 105.478,381.420 105.200,381.200 105.200 C 380.980 105.200,380.800 104.880,380.800 104.488 C 380.800 104.097,380.440 103.517,380.000 103.200 C 379.560 102.883,379.200 102.343,379.200 102.000 C 379.200 101.657,378.840 101.117,378.400 100.800 C 377.960 100.483,377.600 99.943,377.600 99.600 C 377.600 99.257,377.240 98.717,376.800 98.400 C 376.360 98.083,376.000 97.670,376.000 97.483 C 376.000 96.938,372.366 92.000,371.965 92.000 C 371.764 92.000,371.600 91.752,371.600 91.448 C 371.600 91.145,370.894 90.169,370.031 89.280 C 369.168 88.390,368.257 87.280,368.006 86.811 C 366.939 84.818,348.112 66.000,347.185 66.000 C 346.962 66.000,345.985 65.206,345.014 64.235 C 344.043 63.264,342.877 62.351,342.424 62.208 C 341.971 62.064,341.600 61.794,341.600 61.608 C 341.600 61.225,336.640 57.600,336.117 57.600 C 335.930 57.600,335.517 57.240,335.200 56.800 C 334.883 56.360,334.343 56.000,334.000 56.000 C 333.657 56.000,333.117 55.640,332.800 55.200 C 332.483 54.760,332.038 54.400,331.812 54.399 C 331.585 54.399,330.770 53.859,330.000 53.200 C 329.230 52.541,328.375 52.001,328.100 52.001 C 327.825 52.000,327.600 51.820,327.600 51.600 C 327.600 51.380,327.280 51.200,326.888 51.200 C 326.497 51.200,325.917 50.840,325.600 50.400 C 325.283 49.960,324.871 49.600,324.684 49.600 C 324.497 49.600,323.559 49.060,322.600 48.400 C 321.641 47.740,320.663 47.200,320.428 47.200 C 320.193 47.200,320.000 47.020,320.000 46.800 C 320.000 46.580,319.640 46.400,319.200 46.400 C 318.760 46.400,318.400 46.263,318.400 46.096 C 318.400 45.928,317.185 45.163,315.700 44.396 C 314.215 43.628,312.940 42.865,312.867 42.700 C 312.793 42.535,312.480 42.400,312.169 42.400 C 311.361 42.400,308.400 41.069,308.400 40.706 C 308.400 40.538,308.040 40.400,307.600 40.400 C 307.160 40.400,306.800 40.220,306.800 40.000 C 306.800 39.780,306.440 39.600,306.000 39.600 C 305.560 39.600,305.200 39.420,305.200 39.200 C 305.200 38.980,304.840 38.800,304.400 38.800 C 303.960 38.800,303.600 38.620,303.600 38.400 C 303.600 38.180,303.240 38.000,302.800 38.000 C 302.360 38.000,302.000 37.820,302.000 37.600 C 302.000 37.380,301.640 37.200,301.200 37.200 C 300.760 37.200,300.400 37.020,300.400 36.800 C 300.400 36.580,300.040 36.400,299.600 36.400 C 299.160 36.400,298.800 36.220,298.800 36.000 C 298.800 35.780,298.260 35.600,297.600 35.600 C 296.940 35.600,296.400 35.420,296.400 35.200 C 296.400 34.980,296.040 34.800,295.600 34.800 C 295.160 34.800,294.800 34.620,294.800 34.400 C 294.800 34.180,294.528 34.000,294.195 34.000 C 293.862 34.000,293.277 33.841,292.895 33.647 C 292.513 33.452,291.660 33.071,291.000 32.800 C 290.340 32.529,289.487 32.148,289.105 31.953 C 288.723 31.759,288.138 31.600,287.805 31.600 C 287.472 31.600,287.200 31.420,287.200 31.200 C 287.200 30.980,286.660 30.800,286.000 30.800 C 285.340 30.800,284.800 30.620,284.800 30.400 C 284.800 30.180,284.260 30.000,283.600 30.000 C 282.940 30.000,282.400 29.820,282.400 29.600 C 282.400 29.380,281.986 29.200,281.480 29.200 C 280.974 29.200,280.389 29.051,280.180 28.870 C 279.971 28.688,278.990 28.310,278.000 28.031 C 277.010 27.751,275.887 27.360,275.505 27.161 C 275.123 26.962,274.536 26.800,274.200 26.800 C 273.864 26.800,273.277 26.628,272.895 26.418 C 272.014 25.935,267.232 24.800,266.074 24.800 C 265.593 24.800,265.200 24.620,265.200 24.400 C 265.200 24.180,264.480 24.000,263.600 24.000 C 262.720 24.000,262.000 23.820,262.000 23.600 C 262.000 23.380,261.280 23.200,260.400 23.200 C 259.520 23.200,258.800 23.020,258.800 22.800 C 258.800 22.580,257.990 22.400,257.000 22.400 C 256.010 22.400,255.200 22.220,255.200 22.000 C 255.200 21.780,254.480 21.600,253.600 21.600 C 252.720 21.600,252.000 21.420,252.000 21.200 C 252.000 20.980,251.100 20.800,250.000 20.800 C 248.900 20.800,248.000 20.620,248.000 20.400 C 248.000 20.178,246.933 20.000,245.600 20.000 C 244.267 20.000,243.200 19.822,243.200 19.600 C 243.200 19.380,242.221 19.200,241.024 19.200 C 239.827 19.200,238.736 19.020,238.600 18.800 C 238.464 18.580,237.204 18.400,235.800 18.400 C 234.396 18.400,233.136 18.220,233.000 18.000 C 232.864 17.780,231.244 17.600,229.400 17.600 C 227.556 17.600,225.936 17.420,225.800 17.200 C 225.658 16.969,223.529 16.800,220.776 16.800 C 217.859 16.800,216.000 16.644,216.000 16.400 C 216.000 16.140,210.400 16.000,200.000 16.000 C 189.600 16.000,184.000 16.140,184.000 16.400 M119.000 126.330 C 126.897 127.591,130.800 131.373,130.800 137.766 C 130.800 146.785,125.184 149.956,110.064 149.473 C 105.739 149.335,101.958 149.373,101.663 149.557 C 100.749 150.128,100.586 174.037,101.366 193.050 C 102.230 214.106,101.784 219.572,98.843 224.008 C 95.219 229.473,85.087 230.052,80.677 225.046 C 80.033 224.314,79.435 223.151,78.391 220.600 C 77.581 218.621,77.424 215.846,77.495 204.800 C 77.828 153.353,77.812 149.978,77.231 149.619 C 76.918 149.426,73.305 149.369,69.203 149.493 C 54.041 149.951,48.400 146.901,48.400 138.246 C 48.400 133.925,51.570 128.000,53.883 128.000 C 54.167 128.000,54.400 127.820,54.400 127.600 C 54.400 127.380,54.749 127.200,55.176 127.200 C 55.603 127.200,56.055 127.035,56.180 126.833 C 56.312 126.619,65.102 126.449,77.303 126.425 C 88.796 126.403,99.280 126.224,100.600 126.029 C 103.504 125.599,115.665 125.798,119.000 126.330 M161.400 126.800 C 161.536 127.020,162.070 127.200,162.586 127.200 C 165.491 127.200,172.800 133.792,172.800 136.413 C 172.800 136.804,173.014 137.308,173.938 139.095 C 174.192 139.587,174.400 140.341,174.400 140.771 C 174.400 141.201,174.580 141.664,174.800 141.800 C 175.020 141.936,175.200 142.476,175.200 143.000 C 175.200 143.524,175.380 144.064,175.600 144.200 C 175.820 144.336,176.000 144.851,176.000 145.344 C 176.000 145.837,176.143 146.411,176.318 146.620 C 176.493 146.829,176.865 147.720,177.145 148.600 C 177.676 150.274,178.250 151.722,178.847 152.895 C 179.041 153.277,179.200 153.864,179.200 154.200 C 179.200 154.536,179.359 155.123,179.553 155.505 C 180.071 156.523,180.390 157.321,184.228 167.200 C 186.150 172.150,188.074 177.010,188.502 178.000 C 188.930 178.990,189.419 180.160,189.589 180.600 C 189.759 181.040,190.304 182.300,190.800 183.400 C 191.296 184.500,191.859 185.805,192.051 186.300 C 192.243 186.795,192.604 187.695,192.854 188.300 C 193.103 188.905,193.445 189.760,193.613 190.200 C 193.781 190.640,194.193 191.630,194.528 192.400 C 194.863 193.170,195.526 194.790,196.000 196.000 C 196.474 197.210,197.097 198.740,197.384 199.400 C 197.671 200.060,198.125 201.230,198.393 202.000 C 198.661 202.770,199.034 203.760,199.220 204.200 C 201.151 208.746,202.526 215.494,202.343 219.525 C 202.151 223.740,200.875 225.485,196.800 227.103 C 196.250 227.322,195.279 227.711,194.642 227.968 C 190.963 229.454,185.466 228.239,182.730 225.336 C 181.522 224.054,178.800 219.104,178.800 218.189 C 178.800 217.859,178.620 217.232,178.400 216.795 C 178.180 216.358,177.820 215.642,177.600 215.205 C 177.380 214.768,177.200 214.059,177.200 213.629 C 177.200 213.199,177.020 212.736,176.800 212.600 C 176.580 212.464,176.400 211.913,176.400 211.376 C 176.400 210.839,176.220 210.400,176.000 210.400 C 175.780 210.400,175.600 210.059,175.600 209.643 C 175.600 208.429,175.167 208.400,157.214 208.400 C 141.256 208.400,140.079 208.448,139.881 209.100 C 136.612 219.865,133.501 225.591,129.826 227.606 C 128.119 228.542,122.427 228.840,120.935 228.072 C 120.531 227.864,119.705 227.492,119.100 227.247 C 114.107 225.219,113.200 223.815,113.200 218.116 C 113.200 215.994,113.363 213.704,113.562 213.028 C 115.864 205.224,119.319 195.735,122.674 188.000 C 123.414 186.295,124.006 184.865,124.413 183.800 C 124.581 183.360,125.028 182.280,125.407 181.400 C 126.476 178.913,127.252 177.074,127.600 176.200 C 127.775 175.760,128.192 174.770,128.526 174.000 C 129.716 171.262,132.506 164.120,134.466 158.800 C 135.559 155.830,136.610 153.040,136.801 152.600 C 136.991 152.160,137.377 151.080,137.657 150.200 C 137.937 149.320,138.277 148.420,138.411 148.200 C 138.546 147.980,138.889 146.990,139.174 146.000 C 139.458 145.010,139.839 143.840,140.019 143.400 C 140.200 142.960,140.732 141.430,141.201 140.000 C 143.546 132.854,147.025 129.120,153.400 126.902 C 154.960 126.360,161.080 126.282,161.400 126.800 M224.005 126.906 C 226.225 127.687,228.985 129.601,229.975 131.046 C 232.288 134.422,232.190 132.767,232.311 170.500 L 232.421 205.200 235.711 205.204 C 237.520 205.206,241.661 204.995,244.912 204.734 C 260.273 203.504,267.600 207.078,267.600 215.800 C 267.600 221.811,264.708 224.872,257.600 226.384 C 255.157 226.904,216.849 226.746,215.400 226.210 C 212.102 224.991,210.759 223.819,209.422 221.000 C 207.904 217.800,207.796 216.263,207.939 200.000 C 208.163 174.510,208.205 144.102,208.020 140.000 C 207.734 133.613,209.581 129.663,213.690 127.878 C 214.410 127.565,215.450 127.116,216.000 126.881 C 217.380 126.292,222.301 126.307,224.005 126.906 M288.804 127.296 C 291.741 128.864,292.708 130.054,294.410 134.200 C 295.348 136.483,295.657 145.106,295.198 156.160 C 295.054 159.630,295.129 160.964,295.476 161.085 C 295.737 161.176,303.027 154.162,311.676 145.499 C 329.210 127.934,329.128 128.000,333.427 128.000 C 340.171 128.000,345.024 132.880,344.968 139.604 C 344.934 143.686,345.461 143.026,329.888 158.490 C 320.613 167.701,316.777 171.763,316.944 172.200 C 317.151 172.738,326.614 185.463,327.207 186.000 C 327.328 186.110,329.041 188.344,331.014 190.964 C 337.439 199.498,340.391 203.389,340.906 204.000 C 341.184 204.330,341.850 205.230,342.386 206.000 C 342.923 206.770,343.472 207.490,343.607 207.600 C 344.260 208.132,346.400 211.617,346.400 212.148 C 346.400 212.481,346.580 212.864,346.800 213.000 C 349.220 214.496,344.372 226.000,341.321 226.000 C 341.034 226.000,340.800 226.180,340.800 226.400 C 340.800 226.620,340.476 226.800,340.080 226.800 C 339.684 226.800,339.135 227.025,338.860 227.300 C 338.533 227.627,337.154 227.793,334.880 227.781 C 329.091 227.749,328.927 227.608,318.186 213.400 C 315.358 209.660,312.936 206.510,312.803 206.400 C 312.670 206.290,312.129 205.570,311.600 204.800 C 311.071 204.030,310.531 203.310,310.400 203.200 C 310.269 203.090,309.729 202.370,309.200 201.600 C 308.671 200.830,308.137 200.110,308.012 200.000 C 307.887 199.890,306.443 198.000,304.802 195.800 C 298.643 187.543,298.975 187.799,296.987 189.787 L 295.600 191.173 295.586 203.687 C 295.568 219.374,295.212 221.211,291.474 224.886 C 286.783 229.500,279.399 229.503,274.953 224.893 C 271.885 221.711,270.549 214.460,270.920 203.000 C 271.042 199.260,271.346 189.900,271.597 182.200 C 271.873 173.714,271.948 161.733,271.786 151.781 L 271.519 135.363 272.434 133.381 C 273.460 131.160,275.986 128.460,277.800 127.646 C 278.460 127.350,279.270 126.959,279.600 126.777 C 280.982 126.017,287.047 126.359,288.804 127.296 M157.200 157.589 C 157.200 158.009,157.020 158.464,156.800 158.600 C 156.580 158.736,156.400 159.276,156.400 159.800 C 156.400 160.324,156.220 160.864,156.000 161.000 C 155.780 161.136,155.600 161.599,155.600 162.029 C 155.600 162.459,155.426 163.123,155.213 163.505 C 155.000 163.887,154.560 165.010,154.236 166.000 C 153.912 166.990,152.814 170.140,151.797 173.000 C 150.780 175.860,149.502 179.550,148.957 181.200 C 148.412 182.850,147.810 184.560,147.619 185.000 C 146.590 187.375,145.797 187.200,157.613 187.200 C 163.546 187.200,168.400 187.048,168.400 186.863 C 168.400 186.556,167.383 183.552,164.078 174.095 C 163.443 172.277,162.806 170.672,162.662 170.528 C 162.518 170.384,162.400 169.857,162.400 169.357 C 162.400 168.857,162.256 168.358,162.079 168.249 C 161.903 168.140,161.507 167.128,161.200 166.000 C 160.893 164.872,160.497 163.860,160.321 163.751 C 160.144 163.642,160.000 163.201,160.000 162.771 C 160.000 162.341,159.820 161.632,159.600 161.195 C 159.380 160.758,159.020 160.042,158.800 159.605 C 158.580 159.168,158.400 158.468,158.400 158.048 C 158.400 157.629,158.130 157.182,157.800 157.055 C 157.396 156.900,157.200 157.074,157.200 157.589 " stroke="none" fill="#3c2424" fill-rule="evenodd"></path><path id="path2" d="M101.000 125.968 C 99.900 126.102,103.100 126.209,108.111 126.206 C 113.123 126.203,116.813 126.083,116.311 125.940 C 115.180 125.617,103.719 125.638,101.000 125.968 M56.190 126.816 C 56.021 127.089,56.323 127.138,57.066 126.960 C 58.599 126.592,58.744 126.400,57.490 126.400 C 56.917 126.400,56.332 126.587,56.190 126.816 M69.696 126.913 C 73.665 127.104,80.364 127.100,84.896 126.905 C 92.634 126.571,92.314 126.555,77.800 126.564 C 64.073 126.572,63.288 126.606,69.696 126.913 M120.000 126.800 C 121.542 127.294,122.364 127.294,121.600 126.800 C 121.270 126.587,120.550 126.427,120.000 126.446 L 119.000 126.480 120.000 126.800 M154.021 126.779 C 153.646 127.016,154.070 127.065,155.221 126.918 C 156.199 126.792,157.075 126.625,157.167 126.545 C 157.542 126.219,154.555 126.440,154.021 126.779 M158.033 126.545 C 158.428 126.889,161.581 127.093,161.376 126.762 C 161.253 126.563,160.413 126.400,159.510 126.400 C 158.606 126.400,157.942 126.465,158.033 126.545 M216.400 126.806 C 215.978 127.082,216.215 127.123,217.200 126.942 C 218.925 126.625,219.251 126.398,217.967 126.406 C 217.435 126.409,216.730 126.589,216.400 126.806 M221.233 126.543 C 221.325 126.621,222.030 126.801,222.800 126.942 C 223.785 127.123,224.022 127.082,223.600 126.806 C 223.058 126.450,220.837 126.203,221.233 126.543 M285.633 126.544 C 286.105 126.950,288.043 127.193,287.810 126.816 C 287.668 126.587,287.083 126.400,286.510 126.400 C 285.936 126.400,285.542 126.465,285.633 126.544 M51.583 129.900 L 49.800 131.800 51.793 130.000 C 52.888 129.010,53.863 128.155,53.959 128.100 C 54.055 128.045,53.961 128.000,53.750 128.000 C 53.539 128.000,52.564 128.855,51.583 129.900 M164.800 128.162 C 164.800 128.251,165.595 128.790,166.566 129.359 C 167.538 129.929,169.000 131.161,169.815 132.097 C 170.631 133.034,171.111 133.440,170.882 133.000 C 170.013 131.330,164.800 127.183,164.800 128.162 M212.229 128.609 C 211.805 128.929,211.538 129.271,211.635 129.369 C 211.732 129.466,212.259 129.202,212.806 128.782 C 213.353 128.361,213.620 128.020,213.400 128.022 C 213.180 128.024,212.653 128.288,212.229 128.609 M127.600 130.200 C 128.346 130.970,129.047 131.600,129.157 131.600 C 129.267 131.600,128.746 130.970,128.000 130.200 C 127.254 129.430,126.553 128.800,126.443 128.800 C 126.333 128.800,126.854 129.430,127.600 130.200 M147.375 130.099 L 146.200 131.397 147.400 130.405 C 148.060 129.859,148.771 129.274,148.980 129.106 C 149.216 128.916,149.206 128.800,148.955 128.800 C 148.732 128.800,148.021 129.384,147.375 130.099 M328.100 129.288 C 327.605 129.527,327.200 129.879,327.200 130.070 C 327.200 130.262,327.650 130.124,328.200 129.763 C 329.667 128.802,329.616 128.557,328.100 129.288 M228.800 129.728 C 228.800 129.975,230.674 132.822,231.077 133.190 C 231.204 133.305,231.077 132.950,230.795 132.400 C 230.209 131.260,228.800 129.373,228.800 129.728 M292.245 130.612 C 292.610 131.169,292.986 131.547,293.082 131.451 C 293.319 131.214,292.284 129.600,291.895 129.600 C 291.722 129.600,291.880 130.056,292.245 130.612 M209.669 131.239 C 208.910 132.454,209.366 132.616,210.155 131.412 C 210.520 130.856,210.678 130.400,210.505 130.400 C 210.333 130.400,209.957 130.778,209.669 131.239 M321.800 135.200 C 319.608 137.400,317.992 139.176,318.208 139.146 C 318.604 139.092,326.314 131.200,325.970 131.200 C 325.868 131.200,323.992 133.000,321.800 135.200 M231.280 134.200 C 231.280 134.640,231.424 135.450,231.600 136.000 C 231.854 136.792,231.920 136.833,231.920 136.200 C 231.920 135.760,231.776 134.950,231.600 134.400 C 231.346 133.608,231.280 133.567,231.280 134.200 M271.849 134.615 C 271.712 134.973,271.621 135.746,271.646 136.333 C 271.680 137.132,271.770 136.998,272.004 135.800 C 272.335 134.100,272.262 133.540,271.849 134.615 M294.240 135.066 C 294.608 136.599,294.800 136.744,294.800 135.490 C 294.800 134.917,294.613 134.332,294.384 134.190 C 294.111 134.021,294.062 134.323,294.240 135.066 M130.200 137.800 C 130.200 139.628,130.332 140.916,130.494 140.662 C 130.656 140.408,130.788 139.120,130.788 137.800 C 130.788 136.480,130.656 135.192,130.494 134.938 C 130.332 134.684,130.200 135.972,130.200 137.800 M207.767 136.591 C 207.630 137.135,207.692 139.070,207.905 140.891 L 208.293 144.200 208.246 139.901 C 208.197 135.323,208.156 135.039,207.767 136.591 M232.191 171.200 C 232.191 190.010,232.240 197.705,232.300 188.300 C 232.360 178.895,232.360 163.505,232.300 154.100 C 232.240 144.695,232.191 152.390,232.191 171.200 M294.987 146.726 C 294.980 151.983,295.087 154.706,295.241 153.200 C 295.594 149.748,295.616 139.178,295.272 138.326 C 295.122 137.956,294.994 141.736,294.987 146.726 M344.901 139.400 C 344.905 140.280,344.987 140.593,345.083 140.095 C 345.179 139.598,345.175 138.878,345.075 138.495 C 344.975 138.113,344.896 138.520,344.901 139.400 M271.800 164.000 C 271.800 188.741,271.809 189.044,272.152 175.695 C 272.355 167.804,272.355 157.028,272.152 150.295 C 271.830 139.605,271.800 140.783,271.800 164.000 M48.434 140.600 C 48.422 141.040,48.587 141.670,48.800 142.000 C 49.314 142.795,49.314 141.796,48.800 140.600 L 48.456 139.800 48.434 140.600 M129.646 141.867 C 129.621 142.124,129.484 142.664,129.341 143.067 C 129.140 143.636,129.194 143.697,129.579 143.342 C 129.852 143.091,129.989 142.551,129.884 142.142 C 129.779 141.734,129.672 141.610,129.646 141.867 M343.902 143.304 L 343.205 145.000 343.994 144.000 C 344.635 143.186,345.107 141.588,344.700 141.604 C 344.645 141.606,344.286 142.371,343.902 143.304 M309.688 147.481 C 306.767 150.467,304.436 152.969,304.508 153.041 C 304.580 153.113,307.148 150.658,310.214 147.586 C 313.280 144.514,315.612 142.012,315.395 142.026 C 315.178 142.041,312.610 144.495,309.688 147.481 M139.867 143.467 C 139.720 143.613,139.611 144.108,139.625 144.567 C 139.649 145.333,139.682 145.323,140.034 144.442 C 140.426 143.463,140.344 142.989,139.867 143.467 M50.801 145.337 C 51.351 145.962,52.160 146.659,52.600 146.886 C 53.442 147.320,53.418 147.293,51.201 145.397 L 49.803 144.200 50.801 145.337 M53.600 147.405 C 53.600 147.775,56.327 148.715,58.041 148.936 L 59.800 149.163 57.800 148.629 C 56.700 148.335,55.305 147.898,54.700 147.657 C 54.095 147.417,53.600 147.303,53.600 147.405 M122.400 148.400 C 121.576 148.664,121.541 148.726,122.200 148.754 C 122.640 148.773,123.270 148.613,123.600 148.400 C 124.301 147.947,123.814 147.947,122.400 148.400 M338.800 149.348 C 338.250 149.856,336.991 151.155,336.003 152.235 C 334.965 153.370,335.430 153.021,337.103 151.411 C 338.696 149.877,340.000 148.572,340.000 148.511 C 340.000 148.290,339.782 148.442,338.800 149.348 M74.400 149.072 C 77.308 149.371,77.596 149.534,77.660 150.908 L 77.720 152.200 77.894 151.020 C 78.125 149.456,77.165 148.782,74.824 148.864 C 73.264 148.919,73.203 148.949,74.400 149.072 M101.460 149.307 C 100.872 149.737,100.787 150.360,100.901 153.407 L 101.035 157.000 101.118 153.308 C 101.210 149.165,101.041 149.359,104.800 149.075 C 106.493 148.948,106.468 148.936,104.376 148.870 C 103.103 148.830,101.857 149.017,101.460 149.307 M63.100 149.498 C 64.915 149.572,67.885 149.572,69.700 149.498 C 71.515 149.423,70.030 149.363,66.400 149.363 C 62.770 149.363,61.285 149.423,63.100 149.498 M110.319 149.498 C 112.144 149.572,115.024 149.572,116.719 149.497 C 118.414 149.422,116.920 149.361,113.400 149.362 C 109.880 149.362,108.494 149.424,110.319 149.498 M208.577 163.400 C 208.577 169.780,208.632 172.334,208.699 169.076 C 208.767 165.817,208.766 160.597,208.699 157.476 C 208.631 154.354,208.576 157.020,208.577 163.400 M136.548 153.100 C 136.424 153.485,136.062 154.497,135.744 155.350 C 135.426 156.202,135.243 156.977,135.337 157.070 C 135.431 157.164,135.724 156.647,135.989 155.920 C 136.787 153.736,137.155 152.400,136.960 152.400 C 136.858 152.400,136.673 152.715,136.548 153.100 M78.177 169.800 C 78.177 176.400,78.232 179.156,78.299 175.925 C 78.366 172.693,78.366 167.293,78.299 163.925 C 78.232 160.556,78.177 163.200,78.177 169.800 M180.951 159.800 C 181.869 162.436,183.351 165.982,183.480 165.853 C 183.651 165.683,181.259 159.512,180.902 159.200 C 180.776 159.090,180.798 159.360,180.951 159.800 M100.573 169.800 C 100.573 175.300,100.630 177.605,100.699 174.923 C 100.768 172.241,100.768 167.741,100.699 164.923 C 100.630 162.105,100.574 164.300,100.573 169.800 M296.385 160.618 C 296.103 160.958,295.631 161.144,295.336 161.031 C 295.034 160.915,294.800 161.088,294.800 161.427 C 294.800 161.886,294.973 161.935,295.533 161.636 C 296.279 161.237,297.462 160.000,297.098 160.000 C 296.988 160.000,296.667 160.278,296.385 160.618 M184.446 168.600 C 184.453 168.820,184.806 169.720,185.229 170.600 C 185.652 171.480,185.886 171.750,185.749 171.200 C 185.467 170.067,184.425 167.988,184.446 168.600 M316.816 170.981 C 316.167 171.762,316.531 172.690,318.233 174.600 L 319.659 176.200 318.230 174.242 C 316.685 172.127,316.541 171.619,317.280 170.880 C 317.544 170.616,317.656 170.400,317.529 170.400 C 317.402 170.400,317.081 170.661,316.816 170.981 M151.458 172.904 C 150.528 175.340,150.680 175.804,151.636 173.447 C 152.072 172.373,152.358 171.424,152.272 171.338 C 152.186 171.252,151.820 171.957,151.458 172.904 M320.391 177.588 C 320.857 178.241,321.442 178.902,321.691 179.056 C 321.941 179.211,321.641 178.676,321.025 177.868 C 319.688 176.115,319.184 175.892,320.391 177.588 M148.426 181.499 C 147.919 182.976,147.409 184.458,147.293 184.792 C 147.156 185.187,147.216 185.259,147.463 185.000 C 147.922 184.518,149.724 179.190,149.503 178.969 C 149.417 178.884,148.933 180.022,148.426 181.499 M322.740 180.716 C 323.233 181.409,323.844 182.104,324.097 182.260 C 324.350 182.417,324.154 181.977,323.660 181.284 C 323.167 180.591,322.556 179.896,322.303 179.740 C 322.050 179.583,322.246 180.023,322.740 180.716 M325.140 183.916 C 325.633 184.609,326.244 185.304,326.497 185.460 C 326.750 185.617,326.554 185.177,326.060 184.484 C 325.567 183.791,324.956 183.096,324.703 182.940 C 324.450 182.783,324.646 183.223,325.140 183.916 M100.847 187.833 C 100.873 190.455,101.029 194.400,101.194 196.600 C 101.383 199.114,101.420 197.406,101.294 192.000 C 101.183 187.270,101.027 183.325,100.947 183.233 C 100.866 183.142,100.821 185.212,100.847 187.833 M207.869 187.201 C 207.724 189.070,207.631 193.120,207.664 196.200 C 207.720 201.526,207.739 201.379,208.055 193.200 C 208.403 184.181,208.318 181.438,207.869 187.201 M168.231 186.100 L 168.487 187.200 157.681 187.200 L 146.875 187.200 147.046 186.300 C 147.203 185.471,147.188 185.463,146.858 186.200 C 146.249 187.562,146.550 187.600,157.824 187.600 C 169.604 187.600,169.720 187.578,168.382 185.600 C 168.080 185.155,168.042 185.284,168.231 186.100 M329.820 190.000 C 331.506 192.200,332.971 194.000,333.076 194.000 C 333.181 194.000,332.937 193.566,332.533 193.036 C 332.130 192.506,330.810 190.714,329.600 189.053 C 328.390 187.393,327.255 186.027,327.077 186.017 C 326.899 186.008,328.133 187.800,329.820 190.000 M122.438 188.500 C 122.249 188.995,121.804 190.097,121.448 190.949 C 120.744 192.631,120.609 193.367,121.185 192.385 C 121.791 191.349,123.201 187.600,122.984 187.600 C 122.872 187.600,122.626 188.005,122.438 188.500 M298.711 187.898 C 298.635 188.064,299.283 188.920,300.151 189.800 C 301.689 191.358,301.527 190.931,299.734 188.698 C 299.247 188.093,298.787 187.733,298.711 187.898 M77.497 192.200 C 77.337 193.740,77.231 196.530,77.261 198.400 C 77.312 201.567,77.340 201.443,77.661 196.600 C 78.048 190.759,77.942 187.913,77.497 192.200 M295.100 191.433 C 294.935 191.598,294.816 197.778,294.836 205.167 C 294.860 214.100,294.996 218.172,295.242 217.322 C 295.677 215.819,295.541 190.992,295.100 191.433 M194.607 193.479 C 195.207 194.914,195.600 195.562,195.600 195.116 C 195.600 194.684,194.385 192.000,194.189 192.000 C 194.079 192.000,194.267 192.666,194.607 193.479 M271.063 196.500 C 270.732 202.246,270.764 211.347,271.123 213.334 C 271.275 214.178,271.416 209.723,271.435 203.434 C 271.454 197.145,271.437 192.000,271.396 192.000 C 271.356 192.000,271.206 194.025,271.063 196.500 M302.791 193.188 C 303.257 193.841,303.842 194.502,304.091 194.656 C 304.341 194.811,304.041 194.276,303.425 193.468 C 302.088 191.715,301.584 191.492,302.791 193.188 M120.067 194.380 C 119.833 195.051,119.727 195.600,119.831 195.600 C 120.101 195.600,120.856 193.522,120.657 193.324 C 120.567 193.233,120.301 193.708,120.067 194.380 M334.341 195.900 C 335.071 196.835,335.754 197.600,335.861 197.600 C 336.173 197.600,334.503 195.381,333.726 194.764 C 333.335 194.454,333.612 194.965,334.341 195.900 M305.191 196.388 C 305.657 197.041,306.242 197.702,306.491 197.856 C 306.741 198.011,306.441 197.476,305.825 196.668 C 304.488 194.915,303.984 194.692,305.191 196.388 M195.628 195.692 C 195.582 196.165,196.886 199.248,197.058 199.075 C 197.145 198.988,196.866 198.125,196.437 197.158 C 196.008 196.191,195.644 195.531,195.628 195.692 M336.740 199.116 C 337.233 199.809,337.844 200.504,338.097 200.660 C 338.350 200.817,338.154 200.377,337.660 199.684 C 337.167 198.991,336.556 198.296,336.303 198.140 C 336.050 197.983,336.246 198.423,336.740 199.116 M197.401 200.374 C 197.856 201.850,198.767 203.853,198.778 203.400 C 198.793 202.789,197.791 200.055,197.424 199.707 C 197.246 199.538,197.236 199.838,197.401 200.374 M117.077 201.877 C 116.700 202.893,116.458 203.791,116.538 203.872 C 116.619 203.952,117.000 203.193,117.385 202.185 C 117.770 201.176,118.012 200.279,117.923 200.190 C 117.835 200.101,117.454 200.860,117.077 201.877 M339.375 202.532 C 339.991 203.339,340.576 204.000,340.675 204.000 C 340.953 204.000,339.221 201.660,338.709 201.344 C 338.459 201.189,338.759 201.724,339.375 202.532 M311.668 204.952 C 312.181 205.743,312.747 206.392,312.927 206.395 C 313.299 206.401,311.782 204.159,311.149 203.769 C 310.922 203.628,311.155 204.160,311.668 204.952 M101.744 207.600 C 101.744 209.690,101.812 210.545,101.894 209.500 C 101.976 208.455,101.976 206.745,101.894 205.700 C 101.812 204.655,101.744 205.510,101.744 207.600 M199.195 205.181 C 199.404 205.911,199.686 206.619,199.820 206.754 C 200.196 207.129,199.544 204.652,199.155 204.227 C 198.968 204.022,198.985 204.451,199.195 205.181 M244.000 204.777 C 242.522 204.913,244.571 205.013,248.746 205.008 C 252.787 205.004,255.397 204.875,254.546 204.723 C 252.766 204.404,247.779 204.430,244.000 204.777 M341.827 205.800 C 343.200 207.600,343.468 207.603,342.304 205.805 C 341.807 205.038,341.256 204.408,341.080 204.405 C 340.903 204.402,341.240 205.030,341.827 205.800 M234.700 205.493 C 235.635 205.577,237.165 205.577,238.100 205.493 C 239.035 205.409,238.270 205.340,236.400 205.340 C 234.530 205.340,233.765 205.409,234.700 205.493 M256.833 205.343 C 256.925 205.422,257.720 205.597,258.600 205.732 C 259.690 205.899,260.009 205.855,259.600 205.595 C 259.053 205.246,256.445 205.009,256.833 205.343 M263.256 207.566 C 263.775 207.987,264.277 208.255,264.371 208.161 C 264.576 207.957,263.144 206.831,262.656 206.813 C 262.466 206.806,262.736 207.145,263.256 207.566 M314.175 208.132 C 314.791 208.939,315.376 209.600,315.475 209.600 C 315.753 209.600,314.021 207.260,313.509 206.944 C 313.259 206.789,313.559 207.324,314.175 208.132 M344.153 208.903 C 344.699 209.619,345.427 210.744,345.771 211.403 C 346.114 212.061,346.396 212.373,346.398 212.095 C 346.401 211.453,343.907 207.617,343.480 207.607 C 343.303 207.603,343.606 208.186,344.153 208.903 M144.600 208.284 C 156.578 208.562,175.507 208.571,175.339 208.300 C 175.236 208.135,167.198 208.039,157.476 208.086 C 147.754 208.134,141.960 208.223,144.600 208.284 M114.229 210.229 C 114.081 210.815,114.051 211.384,114.161 211.494 C 114.271 211.604,114.481 211.215,114.629 210.629 C 114.776 210.042,114.806 209.473,114.696 209.363 C 114.586 209.253,114.376 209.642,114.229 210.229 M265.600 209.240 C 265.600 209.359,265.966 210.164,266.414 211.029 C 266.882 211.932,267.115 212.175,266.960 211.600 C 266.713 210.676,265.600 208.746,265.600 209.240 M200.868 210.200 C 200.862 210.640,201.011 211.360,201.200 211.800 C 201.638 212.819,201.638 211.768,201.200 210.400 C 200.943 209.596,200.877 209.557,200.868 210.200 M316.575 211.332 C 317.191 212.139,317.776 212.800,317.875 212.800 C 318.153 212.800,316.421 210.460,315.909 210.144 C 315.659 209.989,315.959 210.524,316.575 211.332 M207.628 212.833 C 207.644 214.245,207.805 215.760,207.988 216.200 C 208.179 216.663,208.229 215.651,208.105 213.800 C 207.842 209.876,207.590 209.365,207.628 212.833 M77.228 214.433 C 77.244 215.405,77.414 216.560,77.608 217.000 C 77.831 217.508,77.874 216.924,77.724 215.400 C 77.440 212.499,77.190 212.012,77.228 214.433 M113.473 213.353 C 113.323 213.745,113.211 214.366,113.225 214.733 C 113.242 215.175,113.381 215.074,113.637 214.434 C 113.849 213.903,113.961 213.282,113.885 213.054 C 113.809 212.827,113.624 212.961,113.473 213.353 M267.337 215.800 C 267.339 217.560,267.409 218.230,267.493 217.289 C 267.578 216.349,267.577 214.909,267.491 214.089 C 267.405 213.270,267.336 214.040,267.337 215.800 M346.600 216.200 C 346.600 218.028,346.732 219.316,346.894 219.062 C 347.281 218.453,347.286 213.301,346.900 213.062 C 346.735 212.960,346.600 214.372,346.600 216.200 M101.301 214.600 C 101.305 215.480,101.387 215.793,101.483 215.295 C 101.579 214.798,101.575 214.078,101.475 213.695 C 101.375 213.313,101.296 213.720,101.301 214.600 M319.200 214.800 C 319.897 215.680,320.557 216.400,320.667 216.400 C 320.777 216.400,320.297 215.680,319.600 214.800 C 318.903 213.920,318.243 213.200,318.133 213.200 C 318.023 213.200,318.503 213.920,319.200 214.800 M271.628 216.833 C 271.644 217.585,271.812 218.560,272.003 219.000 C 272.226 219.515,272.267 219.087,272.118 217.800 C 271.844 215.422,271.589 214.919,271.628 216.833 M100.893 217.600 C 100.893 218.370,100.975 218.685,101.076 218.300 C 101.176 217.915,101.176 217.285,101.076 216.900 C 100.975 216.515,100.893 216.830,100.893 217.600 M321.591 217.988 C 322.057 218.641,322.642 219.302,322.891 219.456 C 323.141 219.611,322.841 219.076,322.225 218.268 C 320.888 216.515,320.384 216.292,321.591 217.988 M100.396 219.633 C 100.388 220.755,98.493 224.228,97.161 225.563 C 96.371 226.354,96.187 226.667,96.723 226.309 C 98.535 225.099,101.380 220.047,100.658 219.324 C 100.516 219.183,100.398 219.322,100.396 219.633 M266.590 220.070 C 266.434 220.581,265.845 221.630,265.280 222.400 C 264.452 223.528,264.417 223.657,265.098 223.064 C 266.012 222.267,267.393 219.660,267.071 219.337 C 266.962 219.229,266.746 219.558,266.590 220.070 M293.930 220.818 C 293.561 221.688,293.331 222.400,293.419 222.400 C 293.713 222.400,294.850 219.951,294.724 219.591 C 294.656 219.396,294.298 219.949,293.930 220.818 M202.000 220.973 C 202.000 222.345,200.645 224.507,199.072 225.646 C 198.197 226.281,197.692 226.800,197.951 226.800 C 199.476 226.800,203.146 221.412,202.238 220.505 C 202.107 220.374,202.000 220.584,202.000 220.973 M133.946 223.100 C 132.698 225.106,132.516 225.621,133.486 224.400 C 134.382 223.273,135.318 221.600,135.054 221.600 C 134.958 221.600,134.459 222.275,133.946 223.100 M343.301 223.864 C 342.147 225.039,341.349 226.000,341.527 226.000 C 341.952 226.000,345.600 222.351,345.600 221.926 C 345.600 221.503,345.726 221.397,343.301 223.864 M273.225 222.600 C 273.225 222.820,273.490 223.349,273.813 223.776 C 274.136 224.204,274.400 224.373,274.400 224.153 C 274.400 223.933,274.136 223.404,273.813 222.976 C 273.490 222.549,273.225 222.380,273.225 222.600 M79.622 223.400 C 79.627 223.929,80.742 225.391,80.969 225.165 C 81.066 225.068,80.802 224.541,80.382 223.994 C 79.961 223.447,79.620 223.180,79.622 223.400 M114.013 223.433 C 114.030 223.920,114.813 224.863,115.800 225.585 C 116.240 225.906,116.060 225.547,115.400 224.787 C 114.740 224.026,114.155 223.328,114.100 223.235 C 114.045 223.143,114.006 223.232,114.013 223.433 M181.517 223.800 C 181.745 224.240,182.532 225.140,183.266 225.799 L 184.600 226.998 183.201 225.399 C 182.432 224.520,181.645 223.620,181.452 223.400 C 181.260 223.180,181.289 223.360,181.517 223.800 M211.688 224.213 C 212.286 224.843,212.847 225.277,212.935 225.179 C 213.023 225.080,212.533 224.565,211.847 224.034 L 210.600 223.069 211.688 224.213 M289.594 226.018 C 289.047 226.439,288.780 226.780,289.000 226.778 C 289.529 226.773,290.991 225.658,290.765 225.431 C 290.668 225.334,290.141 225.598,289.594 226.018 M215.851 226.383 C 215.951 226.483,222.190 226.581,229.716 226.601 C 240.008 226.628,242.161 226.559,238.400 226.323 C 233.304 226.004,215.523 226.051,215.851 226.383 M254.800 226.400 L 253.000 226.680 254.800 226.712 C 255.790 226.729,256.960 226.589,257.400 226.400 L 258.200 226.056 257.400 226.088 C 256.960 226.106,255.790 226.246,254.800 226.400 M184.800 227.019 C 184.800 227.313,187.249 228.450,187.609 228.324 C 187.804 228.256,187.251 227.898,186.382 227.530 C 185.512 227.161,184.800 226.931,184.800 227.019 M85.737 228.094 C 85.992 228.256,87.640 228.388,89.400 228.388 C 91.160 228.388,92.807 228.256,93.060 228.094 C 93.313 227.932,91.665 227.800,89.398 227.800 C 87.130 227.800,85.483 227.932,85.737 228.094 M120.990 227.984 C 121.132 228.213,121.717 228.400,122.290 228.400 C 123.544 228.400,123.399 228.208,121.866 227.840 C 121.123 227.662,120.821 227.711,120.990 227.984 M193.000 228.000 C 191.893 228.282,191.877 228.309,192.800 228.347 C 193.350 228.369,194.070 228.213,194.400 228.000 C 195.081 227.560,194.729 227.560,193.000 228.000 M280.715 228.072 C 281.647 228.442,284.892 228.457,285.460 228.094 C 285.713 227.932,284.594 227.800,282.974 227.800 C 281.355 227.800,280.338 227.922,280.715 228.072 M333.700 227.887 C 334.305 227.978,335.295 227.978,335.900 227.887 C 336.505 227.795,336.010 227.720,334.800 227.720 C 333.590 227.720,333.095 227.795,333.700 227.887 " stroke="none" fill="#826d2c" fill-rule="evenodd"></path><path id="path3" d="M104.900 126.276 C 105.285 126.376,105.915 126.376,106.300 126.276 C 106.685 126.175,106.370 126.093,105.600 126.093 C 104.830 126.093,104.515 126.175,104.900 126.276 M112.900 126.276 C 113.285 126.376,113.915 126.376,114.300 126.276 C 114.685 126.175,114.370 126.093,113.600 126.093 C 112.830 126.093,112.515 126.175,112.900 126.276 M60.900 126.676 C 61.285 126.776,61.915 126.776,62.300 126.676 C 62.685 126.575,62.370 126.493,61.600 126.493 C 60.830 126.493,60.515 126.575,60.900 126.676 M93.500 126.682 C 93.995 126.778,94.805 126.778,95.300 126.682 C 95.795 126.587,95.390 126.509,94.400 126.509 C 93.410 126.509,93.005 126.587,93.500 126.682 M219.300 126.676 C 219.685 126.776,220.315 126.776,220.700 126.676 C 221.085 126.575,220.770 126.493,220.000 126.493 C 219.230 126.493,218.915 126.575,219.300 126.676 M69.105 127.083 C 69.602 127.179,70.322 127.175,70.705 127.075 C 71.087 126.975,70.680 126.896,69.800 126.901 C 68.920 126.905,68.607 126.987,69.105 127.083 M208.101 138.200 C 208.105 139.080,208.187 139.393,208.283 138.895 C 208.379 138.398,208.375 137.678,208.275 137.295 C 208.175 136.913,208.096 137.320,208.101 138.200 M208.524 149.800 C 208.526 151.120,208.601 151.612,208.690 150.893 C 208.779 150.174,208.777 149.094,208.686 148.493 C 208.595 147.892,208.522 148.480,208.524 149.800 M272.093 149.200 C 272.093 149.970,272.175 150.285,272.276 149.900 C 272.376 149.515,272.376 148.885,272.276 148.500 C 272.175 148.115,272.093 148.430,272.093 149.200 M78.093 156.800 C 78.093 157.570,78.175 157.885,78.276 157.500 C 78.376 157.115,78.376 156.485,78.276 156.100 C 78.175 155.715,78.093 156.030,78.093 156.800 M100.501 158.600 C 100.505 159.480,100.587 159.793,100.683 159.295 C 100.779 158.798,100.775 158.078,100.675 157.695 C 100.575 157.313,100.496 157.720,100.501 158.600 M208.531 177.400 C 208.533 178.940,208.605 179.521,208.692 178.691 C 208.779 177.861,208.777 176.601,208.689 175.891 C 208.600 175.181,208.529 175.860,208.531 177.400 M272.101 177.000 C 272.105 177.880,272.187 178.193,272.283 177.695 C 272.379 177.198,272.375 176.478,272.275 176.095 C 272.175 175.713,272.096 176.120,272.101 177.000 M100.509 181.200 C 100.509 182.190,100.587 182.595,100.682 182.100 C 100.778 181.605,100.778 180.795,100.682 180.300 C 100.587 179.805,100.509 180.210,100.509 181.200 M78.109 183.200 C 78.109 184.190,78.187 184.595,78.282 184.100 C 78.378 183.605,78.378 182.795,78.282 182.300 C 78.187 181.805,78.109 182.210,78.109 183.200 M297.375 188.900 L 296.200 190.200 297.500 189.025 C 298.215 188.379,298.800 187.794,298.800 187.725 C 298.800 187.416,298.470 187.688,297.375 188.900 M271.701 190.600 C 271.705 191.480,271.787 191.793,271.883 191.295 C 271.979 190.798,271.975 190.078,271.875 189.695 C 271.775 189.313,271.696 189.720,271.701 190.600 M271.293 199.600 C 271.293 200.370,271.375 200.685,271.476 200.300 C 271.576 199.915,271.576 199.285,271.476 198.900 C 271.375 198.515,271.293 198.830,271.293 199.600 M101.293 201.600 C 101.293 202.370,101.375 202.685,101.476 202.300 C 101.576 201.915,101.576 201.285,101.476 200.900 C 101.375 200.515,101.293 200.830,101.293 201.600 M77.359 207.200 C 77.359 210.390,77.421 211.695,77.497 210.100 C 77.573 208.505,77.573 205.895,77.497 204.300 C 77.421 202.705,77.359 204.010,77.359 207.200 M207.751 206.000 C 207.751 208.530,207.816 209.565,207.896 208.300 C 207.975 207.035,207.975 204.965,207.896 203.700 C 207.816 202.435,207.751 203.470,207.751 206.000 M247.500 205.082 C 247.995 205.178,248.805 205.178,249.300 205.082 C 249.795 204.987,249.390 204.909,248.400 204.909 C 247.410 204.909,247.005 204.987,247.500 205.082 M240.100 205.476 C 240.485 205.576,241.115 205.576,241.500 205.476 C 241.885 205.375,241.570 205.293,240.800 205.293 C 240.030 205.293,239.715 205.375,240.100 205.476 M244.100 226.687 C 244.705 226.778,245.695 226.778,246.300 226.687 C 246.905 226.595,246.410 226.520,245.200 226.520 C 243.990 226.520,243.495 226.595,244.100 226.687 " stroke="none" fill="#9c842c" fill-rule="evenodd"></path><path id="path4" d="M101.400 126.400 L 95.800 126.635 100.800 126.678 C 103.550 126.701,107.330 126.586,109.200 126.422 L 112.600 126.124 109.800 126.145 C 108.260 126.156,104.480 126.271,101.400 126.400 M114.100 126.691 C 114.925 126.778,116.275 126.778,117.100 126.691 C 117.925 126.605,117.250 126.534,115.600 126.534 C 113.950 126.534,113.275 126.605,114.100 126.691 M282.900 126.676 C 283.285 126.776,283.915 126.776,284.300 126.676 C 284.685 126.575,284.370 126.493,283.600 126.493 C 282.830 126.493,282.515 126.575,282.900 126.676 M65.300 127.087 C 65.905 127.178,66.895 127.178,67.500 127.087 C 68.105 126.995,67.610 126.920,66.400 126.920 C 65.190 126.920,64.695 126.995,65.300 127.087 M86.711 127.093 C 87.651 127.178,89.091 127.177,89.911 127.091 C 90.730 127.005,89.960 126.936,88.200 126.937 C 86.440 126.939,85.770 127.009,86.711 127.093 M74.118 127.498 C 75.833 127.573,78.533 127.572,80.118 127.497 C 81.703 127.421,80.300 127.359,77.000 127.360 C 73.700 127.361,72.403 127.422,74.118 127.498 M53.360 128.733 C 52.502 129.357,51.530 130.212,51.200 130.633 C 50.870 131.055,51.234 130.860,52.009 130.200 C 52.785 129.540,53.865 128.694,54.409 128.321 C 54.954 127.948,55.292 127.633,55.160 127.621 C 55.028 127.609,54.218 128.110,53.360 128.733 M150.900 128.196 C 150.185 128.507,149.600 128.856,149.600 128.972 C 149.600 129.219,151.626 128.396,152.180 127.924 C 152.705 127.476,152.414 127.538,150.900 128.196 M125.000 128.663 C 125.660 129.010,126.830 129.857,127.599 130.547 L 128.998 131.800 127.799 130.464 C 126.668 129.205,124.829 127.981,124.120 128.016 C 123.944 128.025,124.340 128.316,125.000 128.663 M212.067 129.435 C 211.145 130.225,210.203 131.260,209.973 131.735 C 209.705 132.291,209.874 132.190,210.445 131.454 C 210.934 130.824,212.050 129.789,212.927 129.154 C 213.803 128.519,214.345 128.000,214.132 128.000 C 213.919 128.000,212.989 128.646,212.067 129.435 M332.505 128.287 C 333.114 128.379,334.014 128.377,334.505 128.282 C 334.997 128.187,334.500 128.111,333.400 128.114 C 332.300 128.117,331.897 128.195,332.505 128.287 M291.039 129.576 C 291.500 130.139,292.175 131.045,292.539 131.589 C 292.902 132.133,293.200 132.381,293.200 132.140 C 293.200 131.900,292.525 130.994,291.700 130.128 C 290.875 129.262,290.577 129.013,291.039 129.576 M329.463 128.998 C 328.167 129.674,325.784 131.600,326.244 131.600 C 326.411 131.600,326.930 131.241,327.397 130.803 C 327.864 130.364,328.955 129.652,329.823 129.219 C 330.690 128.786,331.220 128.426,331.000 128.418 C 330.780 128.411,330.088 128.672,329.463 128.998 M146.670 131.262 L 144.600 133.325 146.800 131.390 C 148.010 130.325,149.075 129.397,149.167 129.327 C 149.258 129.257,149.200 129.200,149.037 129.200 C 148.874 129.200,147.809 130.128,146.670 131.262 M167.813 130.653 C 168.701 131.504,169.934 132.830,170.554 133.600 C 171.174 134.370,171.539 134.730,171.366 134.400 C 170.700 133.131,168.713 130.888,167.484 130.017 C 166.411 129.256,166.465 129.360,167.813 130.653 M338.841 129.700 C 338.937 129.755,339.912 130.610,341.007 131.600 L 343.000 133.400 341.217 131.500 C 340.236 130.455,339.261 129.600,339.050 129.600 C 338.839 129.600,338.745 129.645,338.841 129.700 M323.978 133.500 L 322.600 135.000 324.196 133.600 C 325.073 132.830,325.868 132.155,325.962 132.100 C 326.056 132.045,325.959 132.000,325.745 132.000 C 325.532 132.000,324.737 132.675,323.978 133.500 M129.800 137.800 C 129.800 139.696,129.917 140.832,130.060 140.324 C 130.203 139.816,130.320 138.680,130.320 137.800 C 130.320 136.920,130.203 135.784,130.060 135.276 C 129.917 134.768,129.800 135.904,129.800 137.800 M208.493 136.000 C 208.493 136.770,208.575 137.085,208.676 136.700 C 208.776 136.315,208.776 135.685,208.676 135.300 C 208.575 134.915,208.493 135.230,208.493 136.000 M231.200 169.857 C 231.200 196.738,231.309 204.396,231.700 204.931 C 232.101 205.480,232.160 198.720,232.000 170.841 C 231.890 151.715,231.665 135.931,231.500 135.766 C 231.335 135.602,231.200 150.942,231.200 169.857 M48.440 138.033 C 48.462 138.785,48.630 139.850,48.813 140.400 C 49.029 141.046,49.066 140.620,48.919 139.200 C 48.659 136.683,48.381 136.007,48.440 138.033 M294.571 147.200 L 294.542 157.400 294.910 149.839 C 295.117 145.591,295.130 141.122,294.939 139.639 C 294.690 137.699,294.592 139.700,294.571 147.200 M319.242 138.340 C 318.935 138.703,314.616 143.140,309.643 148.200 L 300.602 157.400 310.384 147.716 C 315.764 142.390,320.083 137.953,319.983 137.856 C 319.882 137.760,319.549 137.978,319.242 138.340 M344.514 139.400 C 344.517 140.500,344.595 140.903,344.687 140.295 C 344.779 139.686,344.777 138.786,344.682 138.295 C 344.587 137.803,344.511 138.300,344.514 139.400 M208.551 143.200 C 208.551 145.730,208.616 146.765,208.696 145.500 C 208.775 144.235,208.775 142.165,208.696 140.900 C 208.616 139.635,208.551 140.670,208.551 143.200 M272.200 163.600 C 272.200 175.150,272.317 183.070,272.460 181.200 C 272.791 176.884,272.783 149.122,272.450 145.400 C 272.313 143.860,272.200 152.050,272.200 163.600 M59.698 148.904 C 61.098 149.230,78.057 149.133,77.729 148.800 C 77.621 148.690,73.226 148.600,67.964 148.600 C 62.701 148.600,58.982 148.737,59.698 148.904 M101.312 148.735 C 100.715 149.110,118.327 149.270,119.890 148.903 C 120.610 148.734,116.885 148.571,111.457 148.535 C 106.109 148.499,101.544 148.589,101.312 148.735 M78.137 152.600 C 78.139 154.360,78.209 155.030,78.293 154.089 C 78.378 153.149,78.377 151.709,78.291 150.889 C 78.205 150.070,78.136 150.840,78.137 152.600 M100.531 154.600 C 100.533 156.140,100.605 156.721,100.692 155.891 C 100.779 155.061,100.777 153.801,100.689 153.091 C 100.600 152.381,100.529 153.060,100.531 154.600 M156.938 156.217 C 156.808 156.557,156.813 156.947,156.951 157.084 C 157.088 157.221,157.200 157.039,157.200 156.679 C 157.200 155.810,158.389 156.258,158.432 157.143 C 158.453 157.578,158.533 157.627,158.669 157.287 C 158.892 156.733,158.132 155.600,157.538 155.600 C 157.339 155.600,157.068 155.878,156.938 156.217 M208.967 163.800 C 208.967 167.980,209.026 169.636,209.098 167.479 C 209.171 165.323,209.170 161.903,209.098 159.879 C 209.025 157.856,208.966 159.620,208.967 163.800 M100.178 170.000 C 100.178 176.930,100.233 179.765,100.299 176.300 C 100.366 172.835,100.366 167.165,100.299 163.700 C 100.233 160.235,100.178 163.070,100.178 170.000 M78.577 169.800 C 78.577 176.180,78.632 178.734,78.699 175.476 C 78.767 172.217,78.766 166.997,78.699 163.876 C 78.631 160.754,78.576 163.420,78.577 169.800 M294.470 160.500 C 294.388 162.736,294.959 162.969,296.430 161.300 L 297.400 160.200 296.374 161.100 C 294.987 162.317,294.870 162.261,294.693 160.300 L 294.540 158.600 294.470 160.500 M154.891 162.100 C 154.210 163.984,154.304 164.494,155.026 162.830 C 155.353 162.077,155.566 161.299,155.501 161.102 C 155.435 160.905,155.160 161.354,154.891 162.100 M320.045 167.355 C 317.541 169.868,315.989 171.726,316.120 172.055 C 316.291 172.486,316.343 172.476,316.368 172.007 C 316.386 171.681,318.242 169.566,320.493 167.307 C 322.744 165.048,324.496 163.200,324.386 163.200 C 324.276 163.200,322.322 165.070,320.045 167.355 M131.867 166.467 C 131.505 167.388,131.274 168.207,131.354 168.288 C 131.434 168.368,131.800 167.683,132.167 166.767 C 132.533 165.850,132.764 165.031,132.679 164.946 C 132.594 164.861,132.229 165.545,131.867 166.467 M130.800 168.919 C 130.800 169.057,130.427 170.122,129.971 171.285 C 129.516 172.448,129.309 173.220,129.511 173.000 C 130.070 172.393,131.264 169.130,131.017 168.883 C 130.898 168.764,130.800 168.780,130.800 168.919 M317.191 173.988 C 317.657 174.641,318.242 175.302,318.491 175.456 C 318.741 175.611,318.441 175.076,317.825 174.268 C 316.488 172.515,315.984 172.292,317.191 173.988 M319.855 177.400 C 320.467 178.280,321.020 179.075,321.084 179.167 C 321.148 179.258,321.200 179.162,321.200 178.952 C 321.200 178.742,320.647 177.947,319.971 177.185 L 318.742 175.800 319.855 177.400 M322.391 180.788 C 322.857 181.441,323.442 182.102,323.691 182.256 C 323.941 182.411,323.641 181.876,323.025 181.068 C 321.688 179.315,321.184 179.092,322.391 180.788 M208.557 185.200 C 208.557 188.170,208.620 189.385,208.697 187.900 C 208.774 186.415,208.774 183.985,208.697 182.500 C 208.620 181.015,208.557 182.230,208.557 185.200 M100.540 186.000 C 100.540 187.870,100.609 188.635,100.693 187.700 C 100.777 186.765,100.777 185.235,100.693 184.300 C 100.609 183.365,100.540 184.130,100.540 186.000 M190.400 184.084 C 190.400 184.516,191.615 187.200,191.811 187.200 C 191.921 187.200,191.733 186.534,191.393 185.721 C 190.793 184.286,190.400 183.638,190.400 184.084 M78.155 189.800 C 78.156 192.660,78.220 193.778,78.297 192.283 C 78.374 190.789,78.374 188.449,78.296 187.083 C 78.218 185.718,78.155 186.940,78.155 189.800 M300.791 189.988 C 301.257 190.641,301.842 191.302,302.091 191.456 C 302.341 191.611,302.041 191.076,301.425 190.268 C 300.088 188.515,299.584 188.292,300.791 189.988 M294.582 191.703 C 294.476 191.979,294.437 198.234,294.495 205.603 L 294.601 219.000 294.800 205.100 C 294.910 197.455,294.949 191.200,294.887 191.200 C 294.826 191.200,294.688 191.426,294.582 191.703 M208.134 194.400 C 208.134 196.050,208.205 196.725,208.291 195.900 C 208.378 195.075,208.378 193.725,208.291 192.900 C 208.205 192.075,208.134 192.750,208.134 194.400 M271.447 200.900 C 271.314 205.795,271.339 210.970,271.503 212.400 C 271.696 214.088,271.827 210.968,271.876 203.500 C 271.967 189.759,271.781 188.628,271.447 200.900 M333.775 195.732 C 334.391 196.539,334.976 197.200,335.075 197.200 C 335.353 197.200,333.621 194.860,333.109 194.544 C 332.859 194.389,333.159 194.924,333.775 195.732 M100.942 199.000 C 100.941 200.980,101.008 201.840,101.092 200.912 C 101.176 199.984,101.177 198.364,101.095 197.312 C 101.012 196.260,100.943 197.020,100.942 199.000 M77.731 198.600 C 77.733 200.140,77.805 200.721,77.892 199.891 C 77.979 199.061,77.977 197.801,77.889 197.091 C 77.800 196.381,77.729 197.060,77.731 198.600 M336.175 198.932 C 336.791 199.739,337.376 200.400,337.475 200.400 C 337.753 200.400,336.021 198.060,335.509 197.744 C 335.259 197.589,335.559 198.124,336.175 198.932 M338.800 202.400 C 339.270 203.060,339.744 203.600,339.854 203.600 C 339.964 203.600,339.670 203.060,339.200 202.400 C 338.730 201.740,338.256 201.200,338.146 201.200 C 338.036 201.200,338.330 201.740,338.800 202.400 M101.353 207.400 C 101.353 210.040,101.418 211.068,101.497 209.684 C 101.575 208.301,101.574 206.141,101.495 204.884 C 101.416 203.628,101.352 204.760,101.353 207.400 M312.175 204.932 C 312.791 205.739,313.376 206.400,313.475 206.400 C 313.753 206.400,312.021 204.060,311.509 203.744 C 311.259 203.589,311.559 204.124,312.175 204.932 M341.191 205.588 C 341.657 206.241,342.242 206.902,342.491 207.056 C 342.741 207.211,342.441 206.676,341.825 205.868 C 340.488 204.115,339.984 203.892,341.191 205.588 M246.000 205.218 C 242.510 205.400,243.018 205.443,249.000 205.474 C 252.960 205.494,256.020 205.456,255.800 205.388 C 254.864 205.102,249.895 205.016,246.000 205.218 M258.200 206.000 C 258.640 206.189,259.270 206.344,259.600 206.344 C 259.978 206.344,259.904 206.217,259.400 206.000 C 258.960 205.811,258.330 205.656,258.000 205.656 C 257.622 205.656,257.696 205.783,258.200 206.000 M138.978 209.811 C 138.440 211.028,138.009 212.243,138.019 212.511 C 138.030 212.780,138.499 211.875,139.062 210.500 L 140.085 208.000 157.622 208.000 C 173.903 208.000,175.189 208.050,175.568 208.700 C 175.792 209.085,175.981 209.211,175.988 208.980 C 176.026 207.667,175.132 207.600,157.498 207.600 L 139.956 207.600 138.978 209.811 M343.591 208.788 C 344.057 209.441,344.642 210.102,344.891 210.256 C 345.141 210.411,344.841 209.876,344.225 209.068 C 342.888 207.315,342.384 207.092,343.591 208.788 M115.049 208.615 C 114.912 208.973,114.815 209.566,114.834 209.933 C 114.853 210.300,115.027 210.069,115.221 209.420 C 115.598 208.158,115.465 207.533,115.049 208.615 M114.256 211.684 C 114.121 212.188,114.027 212.960,114.046 213.400 C 114.065 213.840,114.245 213.498,114.446 212.640 C 114.836 210.978,114.670 210.140,114.256 211.684 M100.901 213.800 C 100.905 214.680,100.987 214.993,101.083 214.495 C 101.179 213.998,101.175 213.278,101.075 212.895 C 100.975 212.513,100.896 212.920,100.901 213.800 M208.093 213.600 C 208.093 214.370,208.175 214.685,208.276 214.300 C 208.376 213.915,208.376 213.285,208.276 212.900 C 208.175 212.515,208.093 212.830,208.093 213.600 M77.693 214.000 C 77.693 214.770,77.775 215.085,77.876 214.700 C 77.976 214.315,77.976 213.685,77.876 213.300 C 77.775 212.915,77.693 213.230,77.693 214.000 M78.101 217.000 C 78.105 217.880,78.187 218.193,78.283 217.695 C 78.379 217.198,78.375 216.478,78.275 216.095 C 78.175 215.713,78.096 216.120,78.101 217.000 M113.328 218.400 C 113.328 219.830,113.401 220.415,113.489 219.700 C 113.578 218.985,113.578 217.815,113.489 217.100 C 113.401 216.385,113.328 216.970,113.328 218.400 M272.068 217.200 C 272.088 218.239,272.718 219.946,272.732 219.000 C 272.738 218.560,272.589 217.840,272.400 217.400 C 272.189 216.910,272.061 216.832,272.068 217.200 M100.250 218.450 C 99.917 220.117,100.240 220.440,100.600 218.800 C 100.752 218.109,100.793 217.459,100.691 217.358 C 100.589 217.256,100.391 217.747,100.250 218.450 M266.629 218.629 C 266.481 219.215,266.438 219.772,266.532 219.866 C 266.627 219.960,266.824 219.558,266.971 218.971 C 267.119 218.385,267.162 217.828,267.068 217.734 C 266.973 217.640,266.776 218.042,266.629 218.629 M179.600 219.353 C 179.600 219.782,180.790 222.000,181.021 222.000 C 181.131 222.000,180.923 221.415,180.559 220.700 C 179.817 219.240,179.600 218.936,179.600 219.353 M264.626 222.313 C 263.215 224.003,263.188 224.075,264.360 223.000 C 265.471 221.982,266.688 220.370,266.314 220.413 C 266.251 220.420,265.492 221.275,264.626 222.313 M210.238 221.924 C 210.657 222.652,211.430 223.642,211.956 224.124 C 212.519 224.640,212.295 224.178,211.412 223.000 C 209.523 220.483,209.279 220.259,210.238 221.924 M343.400 223.350 C 342.520 224.278,341.350 225.358,340.800 225.749 C 339.823 226.445,339.827 226.445,341.000 225.779 C 342.453 224.953,344.330 223.256,344.848 222.300 C 345.383 221.315,345.211 221.439,343.400 223.350 M114.012 222.694 C 114.005 222.965,114.495 223.694,115.100 224.313 C 115.705 224.932,115.910 225.070,115.555 224.619 C 115.200 224.169,114.710 223.440,114.467 223.000 C 114.223 222.560,114.019 222.422,114.012 222.694 M181.200 222.660 C 181.200 222.900,181.875 223.806,182.700 224.672 C 183.525 225.538,183.823 225.787,183.361 225.224 C 182.900 224.661,182.225 223.755,181.861 223.211 C 181.498 222.667,181.200 222.419,181.200 222.660 M273.836 222.800 C 274.414 223.976,275.690 225.643,275.872 225.461 C 275.974 225.359,275.778 224.944,275.436 224.538 C 275.095 224.132,274.528 223.440,274.178 223.000 C 273.827 222.560,273.674 222.470,273.836 222.800 M80.400 224.125 C 80.400 224.194,80.985 224.779,81.700 225.425 L 83.000 226.600 81.825 225.300 C 80.730 224.088,80.400 223.816,80.400 224.125 M96.975 225.300 L 95.800 226.600 97.100 225.425 C 98.312 224.330,98.584 224.000,98.275 224.000 C 98.206 224.000,97.621 224.585,96.975 225.300 M216.200 225.994 C 217.413 226.309,221.475 226.522,221.167 226.256 C 221.075 226.176,219.650 226.015,218.000 225.897 C 216.242 225.772,215.497 225.812,216.200 225.994 M225.300 225.898 C 227.445 225.970,230.955 225.970,233.100 225.898 C 235.245 225.826,233.490 225.767,229.200 225.767 C 224.910 225.767,223.155 225.826,225.300 225.898 M238.307 226.290 C 239.026 226.379,240.106 226.377,240.707 226.286 C 241.308 226.195,240.720 226.122,239.400 226.124 C 238.080 226.126,237.588 226.201,238.307 226.290 M248.100 226.687 C 248.705 226.778,249.695 226.778,250.300 226.687 C 250.905 226.595,250.410 226.520,249.200 226.520 C 247.990 226.520,247.495 226.595,248.100 226.687 M86.000 227.600 C 86.550 227.776,87.360 227.920,87.800 227.920 C 88.433 227.920,88.392 227.854,87.600 227.600 C 87.050 227.424,86.240 227.280,85.800 227.280 C 85.167 227.280,85.208 227.346,86.000 227.600 M91.200 227.600 L 90.200 227.920 91.200 227.932 C 91.750 227.938,92.560 227.789,93.000 227.600 L 93.800 227.256 93.000 227.268 C 92.560 227.274,91.750 227.424,91.200 227.600 M120.433 227.344 C 120.525 227.423,121.140 227.608,121.800 227.756 C 122.676 227.952,122.838 227.915,122.400 227.618 C 121.860 227.253,120.032 226.998,120.433 227.344 M281.454 227.695 C 282.584 227.888,284.075 227.900,284.767 227.720 C 285.719 227.474,285.218 227.388,282.713 227.369 C 279.554 227.345,279.496 227.360,281.454 227.695 M333.700 227.487 C 334.305 227.578,335.295 227.578,335.900 227.487 C 336.505 227.395,336.010 227.320,334.800 227.320 C 333.590 227.320,333.095 227.395,333.700 227.487 M124.500 228.276 C 124.885 228.376,125.515 228.376,125.900 228.276 C 126.285 228.175,125.970 228.093,125.200 228.093 C 124.430 228.093,124.115 228.175,124.500 228.276 " stroke="none" fill="#9c8c2c" fill-rule="evenodd"></path></g></svg>