<svg id="svg" version="1.1" xmlns="http://www.w3.org/2000/svg" xmlns:xlink="http://www.w3.org/1999/xlink" width="400" height="400" viewBox="0, 0, 400,400"><g id="svgg"><path id="path0" d="M6.257 0.266 C 5.636 0.441,3.877 1.842,2.711 3.091 C 2.552 3.261,1.922 3.932,1.311 4.582 L 0.200 5.764 0.200 58.619 L 0.200 111.474 2.900 114.174 C 4.385 115.659,5.600 116.763,5.600 116.627 C 5.600 116.491,6.131 116.654,6.780 116.990 C 7.805 117.520,11.642 117.600,35.942 117.600 L 63.924 117.600 65.662 116.704 C 75.579 111.590,74.399 95.975,63.900 93.374 C 63.735 93.333,54.960 93.278,44.400 93.250 L 25.200 93.200 25.200 50.584 C 25.200 8.897,25.183 7.936,24.409 6.484 C 23.491 4.761,22.622 3.600,22.252 3.600 C 22.110 3.600,21.428 3.060,20.737 2.400 C 20.046 1.740,19.253 1.200,18.974 1.200 C 18.695 1.200,18.392 0.975,18.300 0.700 C 18.129 0.186,7.853 -0.185,6.257 0.266 M101.430 0.284 C 100.504 0.526,96.400 4.488,96.400 5.139 C 96.400 5.393,96.256 5.600,96.080 5.600 C 94.870 5.600,94.800 8.513,94.800 58.600 C 94.800 108.687,94.870 111.600,96.080 111.600 C 96.256 111.600,96.400 111.804,96.400 112.053 C 96.400 112.786,99.656 115.733,101.538 116.704 L 103.276 117.600 130.814 117.600 C 148.742 117.600,158.439 117.460,158.600 117.200 C 158.736 116.980,159.207 116.800,159.647 116.800 C 160.087 116.800,160.336 116.620,160.200 116.400 C 160.064 116.180,160.156 116.000,160.405 116.000 C 160.654 116.000,161.092 115.775,161.380 115.500 C 161.667 115.225,162.284 114.735,162.751 114.412 C 163.218 114.088,163.600 113.659,163.600 113.459 C 163.600 113.258,163.917 112.803,164.304 112.447 C 166.037 110.854,166.766 102.341,165.354 100.186 C 164.999 99.644,164.852 99.200,165.027 99.200 C 165.922 99.200,159.854 94.083,158.466 93.667 C 157.373 93.340,151.270 93.200,138.054 93.200 L 119.200 93.200 119.200 82.000 L 119.200 70.800 126.762 70.800 C 133.827 70.800,134.438 70.741,136.050 69.900 C 138.230 68.763,141.600 65.434,141.600 64.418 C 141.600 63.994,141.780 63.536,142.000 63.400 C 142.498 63.092,142.539 54.133,142.044 53.827 C 141.849 53.706,141.573 53.147,141.432 52.585 C 141.152 51.470,137.992 48.000,137.256 48.000 C 137.005 48.000,136.800 47.864,136.800 47.697 C 136.800 46.851,133.191 46.400,126.406 46.400 L 119.200 46.400 119.200 35.200 L 119.200 24.000 138.376 24.000 C 148.923 24.000,157.650 23.843,157.768 23.652 C 157.886 23.460,158.488 23.202,159.106 23.079 C 160.637 22.773,164.132 19.393,165.159 17.225 C 166.078 15.284,166.414 7.503,165.600 7.000 C 165.380 6.864,165.200 6.470,165.200 6.123 C 165.200 5.777,164.885 5.200,164.500 4.841 C 164.115 4.482,163.608 3.843,163.373 3.421 C 163.139 2.999,162.601 2.461,162.179 2.227 C 161.757 1.992,161.079 1.440,160.672 1.000 C 159.959 0.228,104.219 -0.446,101.430 0.284 M194.800 0.705 C 193.388 1.398,191.200 3.254,191.200 3.760 C 191.200 3.910,190.840 4.420,190.400 4.892 C 189.960 5.364,189.600 5.987,189.600 6.275 C 189.600 6.564,189.420 6.800,189.200 6.800 C 188.956 6.800,188.800 8.659,188.800 11.576 C 188.800 14.329,188.969 16.458,189.200 16.600 C 189.420 16.736,189.600 17.207,189.600 17.647 C 189.600 18.087,189.780 18.336,190.000 18.200 C 190.220 18.064,190.400 18.233,190.400 18.576 C 190.400 18.919,190.580 19.200,190.800 19.200 C 191.020 19.200,191.200 19.470,191.200 19.800 C 191.200 20.130,191.372 20.400,191.582 20.400 C 191.792 20.400,192.398 20.834,192.928 21.364 C 195.422 23.858,196.061 24.000,204.800 24.000 L 212.000 24.000 212.000 66.472 C 212.000 108.613,212.085 111.600,213.280 111.600 C 213.456 111.600,213.600 111.807,213.600 112.061 C 213.600 112.314,214.590 113.495,215.800 114.686 C 217.010 115.877,218.000 116.729,218.000 116.580 C 218.000 116.430,218.444 116.599,218.986 116.954 C 220.344 117.844,227.520 117.869,229.220 116.990 C 229.869 116.654,230.400 116.489,230.400 116.624 C 230.400 116.758,231.550 115.728,232.955 114.334 C 234.360 112.940,235.447 111.732,235.371 111.649 C 235.294 111.566,235.495 110.990,235.816 110.369 C 236.317 109.400,236.400 103.204,236.400 66.620 L 236.400 24.000 243.804 24.000 C 250.564 24.000,251.374 23.924,253.104 23.129 C 255.427 22.061,258.800 18.627,258.800 17.329 C 258.800 16.818,258.980 16.400,259.200 16.400 C 259.444 16.400,259.600 14.533,259.600 11.600 C 259.600 8.667,259.444 6.800,259.200 6.800 C 258.980 6.800,258.800 6.437,258.800 5.993 C 258.800 4.794,254.389 0.578,252.804 0.261 C 249.438 -0.412,196.247 -0.005,194.800 0.705 M289.100 0.432 C 288.715 0.656,288.400 0.724,288.400 0.583 C 288.400 0.442,287.230 1.496,285.800 2.926 C 284.370 4.356,283.200 5.802,283.200 6.139 C 283.200 6.477,283.020 6.864,282.800 7.000 C 281.042 8.086,282.636 42.400,284.444 42.400 C 284.640 42.400,284.800 42.649,284.800 42.954 C 284.800 43.259,285.295 43.829,285.900 44.221 C 286.505 44.613,287.291 45.264,287.647 45.667 C 288.003 46.070,288.577 46.400,288.923 46.400 C 289.270 46.400,289.664 46.580,289.800 46.800 C 290.309 47.623,298.088 47.278,300.025 46.346 C 301.872 45.458,305.200 42.440,305.200 41.653 C 305.200 41.404,305.344 41.200,305.520 41.200 C 307.140 41.200,307.535 9.428,305.953 6.284 C 304.976 4.343,301.643 0.949,300.159 0.384 C 298.818 -0.125,289.992 -0.087,289.100 0.432 M355.866 0.272 C 355.022 0.371,353.711 0.801,352.953 1.226 C 352.196 1.652,351.121 2.000,350.564 2.000 C 349.992 2.000,349.660 2.174,349.800 2.400 C 349.941 2.628,349.596 2.800,349.000 2.800 C 348.424 2.800,348.045 2.950,348.158 3.132 C 348.271 3.315,347.742 3.709,346.982 4.007 C 346.222 4.305,345.600 4.696,345.600 4.875 C 345.600 5.054,345.283 5.200,344.896 5.200 C 344.509 5.200,343.968 5.560,343.693 6.000 C 343.418 6.440,342.914 6.800,342.573 6.800 C 342.232 6.800,342.064 6.980,342.200 7.200 C 342.336 7.420,342.231 7.600,341.967 7.600 C 341.703 7.600,340.986 8.124,340.374 8.764 C 339.762 9.404,339.158 9.824,339.031 9.697 C 338.904 9.571,338.800 9.777,338.800 10.157 C 338.800 10.537,338.620 10.736,338.400 10.600 C 338.180 10.464,338.000 10.644,338.000 11.000 C 338.000 11.356,337.820 11.536,337.600 11.400 C 337.380 11.264,337.200 11.433,337.200 11.776 C 337.200 12.119,337.020 12.400,336.800 12.400 C 336.580 12.400,336.400 12.670,336.400 13.000 C 336.400 13.330,336.250 13.600,336.068 13.600 C 335.885 13.600,335.481 14.095,335.170 14.700 C 334.860 15.305,334.289 16.091,333.903 16.447 C 333.516 16.803,333.200 17.488,333.200 17.971 C 333.200 18.453,333.020 18.736,332.800 18.600 C 332.580 18.464,332.400 18.723,332.400 19.176 C 332.400 19.629,332.220 20.000,332.000 20.000 C 331.780 20.000,331.600 20.540,331.600 21.200 C 331.600 21.860,331.464 22.400,331.297 22.400 C 330.900 22.400,330.000 25.309,330.000 26.594 C 330.000 27.147,329.835 27.600,329.632 27.600 C 329.424 27.600,329.244 30.800,329.218 35.000 C 329.192 39.070,329.318 42.400,329.498 42.400 C 329.678 42.400,329.862 42.895,329.908 43.500 C 330.026 45.084,330.920 48.000,331.287 48.000 C 331.459 48.000,331.600 48.551,331.600 49.224 C 331.600 49.937,331.767 50.344,332.000 50.200 C 332.228 50.059,332.400 50.404,332.400 51.000 C 332.400 51.576,332.547 51.956,332.727 51.845 C 332.907 51.734,333.279 52.263,333.553 53.021 C 333.827 53.780,334.220 54.400,334.426 54.400 C 334.632 54.400,334.800 54.771,334.800 55.224 C 334.800 55.677,334.980 55.936,335.200 55.800 C 335.420 55.664,335.600 55.790,335.600 56.080 C 335.600 56.370,335.960 56.832,336.400 57.107 C 336.840 57.382,337.200 57.789,337.200 58.012 C 337.200 58.542,341.461 62.800,341.991 62.800 C 342.216 62.800,342.400 62.980,342.400 63.200 C 342.400 63.420,342.681 63.600,343.024 63.600 C 343.367 63.600,343.536 63.780,343.400 64.000 C 343.264 64.220,343.444 64.400,343.800 64.400 C 344.156 64.400,344.336 64.580,344.200 64.800 C 344.064 65.020,344.212 65.200,344.528 65.200 C 344.844 65.200,346.160 65.840,347.452 66.623 C 348.743 67.406,350.295 68.148,350.900 68.273 C 351.505 68.398,352.000 68.658,352.000 68.850 C 352.000 69.043,352.540 69.200,353.200 69.200 C 353.860 69.200,354.400 69.380,354.400 69.600 C 354.400 69.820,355.120 70.000,356.000 70.000 C 356.880 70.000,357.600 70.168,357.600 70.373 C 357.600 70.579,359.355 70.824,361.500 70.919 C 367.886 71.200,374.000 73.814,374.000 76.264 C 374.000 76.559,374.180 76.800,374.400 76.800 C 374.620 76.800,374.800 77.149,374.800 77.576 C 374.800 78.003,374.956 78.449,375.146 78.566 C 375.829 78.989,375.394 84.944,374.573 86.397 C 373.724 87.900,371.423 90.400,370.889 90.400 C 370.703 90.400,370.133 90.789,369.622 91.265 C 368.439 92.367,361.722 92.602,359.764 91.610 C 358.293 90.864,356.387 89.346,356.625 89.109 C 356.724 89.009,355.949 88.520,354.902 88.020 C 353.856 87.521,352.687 86.952,352.305 86.756 C 351.323 86.252,343.886 86.293,344.200 86.800 C 344.338 87.024,344.029 87.200,343.499 87.200 C 342.978 87.200,342.164 87.560,341.692 88.000 C 341.220 88.440,340.633 88.800,340.388 88.800 C 339.857 88.800,338.800 89.796,338.800 90.296 C 338.800 90.490,338.485 91.007,338.100 91.445 C 336.921 92.786,336.400 93.934,336.400 95.195 C 336.400 95.858,336.220 96.400,336.000 96.400 C 335.780 96.400,335.600 97.390,335.600 98.600 C 335.600 99.810,335.780 100.800,336.000 100.800 C 336.220 100.800,336.400 101.329,336.400 101.976 C 336.400 102.623,336.580 103.264,336.800 103.400 C 337.020 103.536,337.200 103.997,337.200 104.424 C 337.200 104.851,337.380 105.200,337.600 105.200 C 337.820 105.200,338.001 105.425,338.002 105.700 C 338.004 106.296,339.852 108.280,341.447 109.400 C 342.074 109.840,343.003 110.605,343.511 111.100 C 344.020 111.595,344.616 112.000,344.835 112.000 C 345.054 112.000,345.620 112.360,346.092 112.800 C 346.564 113.240,347.187 113.600,347.475 113.600 C 347.764 113.600,348.000 113.780,348.000 114.000 C 348.000 114.220,348.461 114.400,349.024 114.400 C 349.604 114.400,349.940 114.573,349.800 114.800 C 349.656 115.033,350.063 115.200,350.776 115.200 C 351.449 115.200,352.000 115.380,352.000 115.600 C 352.000 115.820,352.439 116.000,352.976 116.000 C 353.513 116.000,354.064 116.180,354.200 116.400 C 354.336 116.620,355.157 116.800,356.024 116.800 C 356.891 116.800,357.600 116.980,357.600 117.200 C 357.600 117.452,360.259 117.600,364.776 117.600 C 369.129 117.600,372.050 117.443,372.200 117.200 C 372.336 116.980,372.889 116.800,373.430 116.800 C 374.696 116.800,377.600 115.896,377.600 115.503 C 377.600 115.336,378.125 115.200,378.767 115.200 C 379.408 115.200,379.993 115.065,380.067 114.900 C 380.140 114.735,381.055 114.167,382.100 113.637 C 383.145 113.108,384.000 112.523,384.000 112.337 C 384.000 112.152,384.320 112.000,384.712 112.000 C 385.103 112.000,385.683 111.640,386.000 111.200 C 386.317 110.760,386.817 110.400,387.112 110.400 C 387.406 110.400,387.536 110.220,387.400 110.000 C 387.264 109.780,387.433 109.600,387.776 109.600 C 388.119 109.600,388.400 109.420,388.400 109.200 C 388.400 108.980,388.636 108.800,388.925 108.800 C 389.571 108.800,391.600 106.735,391.600 106.078 C 391.600 105.815,391.780 105.600,392.000 105.600 C 392.220 105.600,392.400 105.418,392.400 105.196 C 392.400 104.974,392.940 104.228,393.600 103.537 C 394.260 102.846,394.800 102.104,394.800 101.888 C 394.800 101.671,395.188 101.158,395.661 100.747 C 396.135 100.336,396.384 100.000,396.215 100.000 C 396.046 100.000,396.199 99.556,396.554 99.014 C 396.909 98.472,397.200 97.741,397.200 97.390 C 397.200 97.040,397.342 96.840,397.515 96.948 C 397.688 97.055,397.869 96.670,397.917 96.094 C 397.965 95.517,398.146 94.945,398.319 94.822 C 400.370 93.374,400.453 71.063,398.415 69.200 C 398.294 69.090,397.947 68.280,397.644 67.400 C 397.340 66.520,396.756 65.322,396.346 64.738 C 395.936 64.154,395.600 63.479,395.600 63.238 C 395.600 62.997,395.420 62.800,395.200 62.800 C 394.980 62.800,394.800 62.483,394.800 62.096 C 394.800 61.709,394.440 61.168,394.000 60.893 C 393.560 60.618,393.200 60.210,393.200 59.986 C 393.200 59.762,392.435 58.784,391.500 57.813 C 390.565 56.841,389.597 55.811,389.349 55.523 C 388.581 54.633,387.210 53.600,386.795 53.600 C 386.578 53.600,386.400 53.450,386.400 53.268 C 386.400 53.085,385.905 52.681,385.300 52.370 C 384.695 52.060,383.899 51.477,383.530 51.076 C 383.162 50.676,382.802 50.394,382.730 50.452 C 382.534 50.608,380.000 49.437,380.000 49.190 C 380.000 49.071,379.505 48.934,378.900 48.884 C 378.295 48.834,377.740 48.615,377.667 48.397 C 377.593 48.178,377.098 48.000,376.567 48.000 C 376.035 48.000,375.600 47.820,375.600 47.600 C 375.600 47.380,374.880 47.200,374.000 47.200 C 373.120 47.200,372.400 47.020,372.400 46.800 C 372.400 46.562,370.875 46.400,368.624 46.400 C 366.537 46.400,364.737 46.221,364.600 46.000 C 364.464 45.780,363.643 45.600,362.776 45.600 C 361.909 45.600,361.200 45.420,361.200 45.200 C 361.200 44.980,360.840 44.800,360.400 44.800 C 359.960 44.800,359.600 44.620,359.600 44.400 C 359.600 44.180,359.364 44.000,359.076 44.000 C 358.374 44.000,356.000 41.648,356.000 40.953 C 356.000 40.649,355.865 40.399,355.700 40.397 C 355.535 40.395,355.175 39.909,354.900 39.317 C 354.302 38.029,354.218 31.600,354.800 31.600 C 355.020 31.600,355.200 31.322,355.200 30.982 C 355.200 30.642,355.650 29.914,356.200 29.364 C 356.750 28.814,357.200 28.192,357.200 27.982 C 357.200 27.772,357.427 27.600,357.704 27.600 C 357.981 27.600,358.432 27.240,358.707 26.800 C 358.990 26.348,359.640 26.000,360.203 26.000 C 360.752 26.000,361.200 25.831,361.200 25.625 C 361.200 25.235,364.396 24.582,365.800 24.684 C 367.802 24.830,370.000 25.337,370.000 25.653 C 370.000 25.844,370.284 26.000,370.631 26.000 C 370.979 26.000,371.954 26.720,372.800 27.600 C 373.646 28.480,374.621 29.200,374.969 29.200 C 375.316 29.200,375.600 29.380,375.600 29.600 C 375.600 29.820,375.960 30.000,376.400 30.000 C 376.840 30.000,377.200 30.180,377.200 30.400 C 377.200 30.912,384.559 30.935,385.505 30.426 C 385.887 30.221,386.785 29.817,387.500 29.529 C 388.215 29.240,388.800 28.869,388.800 28.702 C 388.800 28.536,389.025 28.399,389.300 28.397 C 389.575 28.396,390.248 27.721,390.796 26.897 C 391.344 26.074,391.884 25.310,391.996 25.200 C 392.656 24.552,393.200 23.028,393.200 21.829 C 393.200 21.069,393.380 20.336,393.600 20.200 C 393.820 20.064,394.000 19.153,394.000 18.176 C 394.000 17.199,393.820 16.400,393.600 16.400 C 393.380 16.400,393.200 15.871,393.200 15.224 C 393.200 14.577,393.020 13.936,392.800 13.800 C 392.580 13.664,392.400 13.203,392.400 12.776 C 392.400 12.349,392.220 12.000,392.000 12.000 C 391.780 12.000,391.600 11.662,391.600 11.248 C 391.600 10.834,390.746 9.804,389.700 8.955 C 388.655 8.107,387.740 7.276,387.667 7.107 C 387.593 6.938,387.361 6.800,387.150 6.800 C 386.939 6.800,386.380 6.440,385.908 6.000 C 385.436 5.560,384.544 4.976,383.925 4.703 C 383.306 4.429,382.800 4.069,382.800 3.902 C 382.800 3.736,382.530 3.600,382.200 3.600 C 381.870 3.600,381.600 3.420,381.600 3.200 C 381.600 2.980,381.328 2.800,380.995 2.800 C 380.662 2.800,380.077 2.641,379.695 2.447 C 378.265 1.719,376.975 1.228,376.200 1.116 C 375.760 1.052,375.272 0.821,375.116 0.603 C 374.828 0.199,358.828 -0.076,355.866 0.272 M111.800 213.178 C 92.602 216.332,78.046 229.920,73.213 249.200 C 70.904 258.411,72.130 294.856,74.847 297.780 C 75.041 297.989,75.200 298.563,75.200 299.056 C 75.200 299.549,75.380 300.064,75.600 300.200 C 75.820 300.336,76.000 300.797,76.000 301.224 C 76.000 301.651,76.180 302.000,76.400 302.000 C 76.620 302.000,76.800 302.360,76.800 302.800 C 76.800 303.240,76.980 303.600,77.200 303.600 C 77.420 303.600,77.600 303.960,77.600 304.400 C 77.600 304.840,77.759 305.200,77.953 305.200 C 78.148 305.200,78.407 305.515,78.529 305.900 C 78.867 306.967,80.076 308.814,81.300 310.133 C 81.905 310.785,82.400 311.460,82.400 311.632 C 82.400 312.065,88.221 317.829,89.971 319.130 C 90.757 319.713,91.691 320.508,92.047 320.896 C 92.403 321.283,92.905 321.600,93.164 321.600 C 93.422 321.600,94.020 321.960,94.492 322.400 C 94.964 322.840,95.587 323.200,95.875 323.200 C 96.164 323.200,96.400 323.380,96.400 323.600 C 96.400 323.820,96.760 324.000,97.200 324.000 C 97.640 324.000,98.000 324.180,98.000 324.400 C 98.000 324.620,98.360 324.800,98.800 324.800 C 99.240 324.800,99.600 324.980,99.600 325.200 C 99.600 325.420,99.949 325.600,100.376 325.600 C 100.803 325.600,101.264 325.780,101.400 326.000 C 101.536 326.220,102.087 326.400,102.624 326.400 C 103.161 326.400,103.600 326.560,103.600 326.756 C 103.600 326.952,104.185 327.205,104.900 327.319 C 105.615 327.433,106.920 327.739,107.800 327.999 C 113.059 329.555,124.541 329.555,129.800 327.999 C 130.680 327.739,131.985 327.433,132.700 327.319 C 133.415 327.205,134.000 326.952,134.000 326.756 C 134.000 326.560,134.439 326.400,134.976 326.400 C 135.513 326.400,136.064 326.220,136.200 326.000 C 136.336 325.780,136.797 325.600,137.224 325.600 C 137.651 325.600,138.000 325.420,138.000 325.200 C 138.000 324.980,138.360 324.800,138.800 324.800 C 139.240 324.800,139.600 324.620,139.600 324.400 C 139.600 324.180,139.960 324.000,140.400 324.000 C 140.840 324.000,141.200 323.820,141.200 323.600 C 141.200 323.380,141.436 323.200,141.725 323.200 C 142.013 323.200,142.636 322.840,143.108 322.400 C 143.580 321.960,144.120 321.600,144.308 321.600 C 144.496 321.600,144.998 321.279,145.425 320.886 C 145.851 320.493,146.612 319.887,147.115 319.538 C 148.631 318.487,153.417 313.784,154.854 311.934 C 155.594 310.981,156.515 309.909,156.900 309.553 C 157.285 309.197,157.600 308.612,157.600 308.253 C 157.600 307.894,157.780 307.600,158.000 307.600 C 158.220 307.600,158.400 307.330,158.400 307.000 C 158.400 306.670,158.580 306.400,158.800 306.400 C 159.020 306.400,159.200 306.130,159.200 305.800 C 159.200 305.470,159.380 305.200,159.600 305.200 C 159.820 305.200,160.000 304.935,160.000 304.612 C 160.000 304.289,160.354 303.394,160.787 302.624 C 162.147 300.201,163.583 295.578,164.459 290.800 C 165.175 286.892,165.487 269.638,164.874 267.800 C 163.623 264.049,161.028 261.434,157.253 260.118 C 155.181 259.396,129.188 259.398,127.200 260.121 C 120.913 262.405,117.450 268.629,119.588 273.800 C 119.770 274.240,120.145 275.198,120.420 275.929 C 121.066 277.644,123.966 280.539,125.671 281.173 C 126.402 281.444,127.313 281.832,127.695 282.033 C 128.077 282.235,131.542 282.400,135.395 282.400 L 142.400 282.400 142.400 284.776 C 142.400 286.083,142.220 287.264,142.000 287.400 C 141.780 287.536,141.600 288.172,141.600 288.814 C 141.600 290.184,139.795 294.283,138.075 296.816 C 131.637 306.300,117.044 309.384,106.800 303.425 C 101.603 300.403,97.553 295.216,95.916 289.485 C 95.247 287.146,94.980 258.235,95.599 255.200 C 99.370 236.703,121.095 229.636,135.067 242.361 C 142.053 248.724,152.145 246.305,154.657 237.664 C 158.500 224.445,132.754 209.736,111.800 213.178 M218.800 213.088 C 205.630 215.440,194.934 224.633,191.027 236.958 C 189.104 243.025,189.057 244.156,189.506 273.801 C 189.918 300.973,190.105 304.238,191.314 305.447 C 191.471 305.605,191.600 306.038,191.600 306.410 C 191.600 307.164,194.028 312.124,194.500 312.333 C 194.665 312.407,194.800 312.642,194.800 312.857 C 194.800 314.133,203.570 323.200,204.805 323.200 C 205.022 323.200,205.200 323.380,205.200 323.600 C 205.200 323.820,205.470 324.000,205.800 324.000 C 206.130 324.000,206.401 324.135,206.403 324.300 C 206.407 324.659,208.344 325.600,209.080 325.600 C 209.366 325.600,209.601 325.735,209.603 325.900 C 209.607 326.301,211.581 327.200,212.456 327.200 C 212.839 327.200,213.252 327.360,213.373 327.556 C 213.494 327.751,214.179 328.013,214.896 328.136 C 215.613 328.259,217.370 328.563,218.800 328.811 C 223.282 329.589,233.802 328.731,235.047 327.486 C 235.205 327.329,235.638 327.200,236.010 327.200 C 236.764 327.200,241.724 324.772,241.933 324.300 C 242.007 324.135,242.319 324.000,242.626 324.000 C 244.116 324.000,253.600 314.345,253.600 312.829 C 253.600 312.630,253.736 312.407,253.902 312.333 C 254.068 312.260,254.807 310.940,255.544 309.400 C 256.281 307.860,257.045 306.287,257.242 305.905 C 257.439 305.523,257.600 304.794,257.600 304.285 C 257.600 303.776,257.763 303.189,257.961 302.980 C 259.000 301.887,259.742 248.435,258.799 242.600 C 255.692 223.375,237.277 209.787,218.800 213.088 M229.520 237.223 C 232.303 238.614,233.737 240.122,235.012 243.000 C 236.140 245.544,236.991 294.834,235.959 297.843 C 232.462 308.040,219.091 309.642,213.721 300.508 L 212.600 298.600 212.488 272.000 C 212.421 256.202,212.526 245.075,212.747 244.600 C 212.951 244.160,213.396 243.166,213.735 242.391 C 216.181 236.799,223.727 234.328,229.520 237.223 " stroke="none" fill="#ffffff" fill-rule="evenodd"></path><path id="path1" d="M269.300 141.891 C 270.125 141.978,271.475 141.978,272.300 141.891 C 273.125 141.805,272.450 141.734,270.800 141.734 C 269.150 141.734,268.475 141.805,269.300 141.891 M284.175 149.300 C 286.389 151.555,288.281 153.349,288.380 153.287 C 288.591 153.154,280.725 145.200,280.383 145.200 C 280.255 145.200,281.962 147.045,284.175 149.300 M291.200 156.314 C 291.200 156.737,293.540 159.002,293.738 158.771 C 293.818 158.677,293.280 158.010,292.542 157.289 C 291.804 156.567,291.200 156.129,291.200 156.314 M300.989 166.104 C 303.415 168.581,305.481 170.555,305.580 170.491 C 305.784 170.358,297.132 161.600,296.796 161.600 C 296.676 161.600,298.563 163.627,300.989 166.104 M307.600 172.714 C 307.600 173.137,309.940 175.402,310.138 175.171 C 310.218 175.077,309.680 174.410,308.942 173.689 C 308.204 172.967,307.600 172.529,307.600 172.714 M317.377 182.500 C 319.810 184.975,321.881 186.949,321.980 186.887 C 322.190 186.755,313.525 178.000,313.184 178.000 C 313.058 178.000,314.945 180.025,317.377 182.500 M324.800 189.910 C 324.800 190.331,327.937 193.405,328.132 193.174 C 328.213 193.078,327.497 192.231,326.540 191.291 C 325.583 190.351,324.800 189.729,324.800 189.910 M333.302 198.500 C 335.996 201.195,338.284 203.346,338.387 203.279 C 338.625 203.126,329.104 193.619,328.702 193.608 C 328.538 193.604,330.608 195.805,333.302 198.500 M341.200 206.314 C 341.200 206.737,343.540 209.002,343.738 208.771 C 343.818 208.677,343.280 208.010,342.542 207.289 C 341.804 206.567,341.200 206.129,341.200 206.314 M350.989 216.104 C 353.415 218.581,355.481 220.555,355.580 220.491 C 355.784 220.358,347.132 211.600,346.796 211.600 C 346.676 211.600,348.563 213.627,350.989 216.104 M357.600 222.714 C 357.600 223.137,359.940 225.402,360.138 225.171 C 360.218 225.077,359.680 224.410,358.942 223.689 C 358.204 222.967,357.600 222.529,357.600 222.714 M367.377 232.500 C 369.810 234.975,371.881 236.949,371.980 236.887 C 372.190 236.755,363.525 228.000,363.184 228.000 C 363.058 228.000,364.945 230.025,367.377 232.500 M374.800 239.910 C 374.800 240.331,377.937 243.405,378.132 243.174 C 378.213 243.078,377.497 242.231,376.540 241.291 C 375.583 240.351,374.800 239.729,374.800 239.910 M383.302 248.500 C 385.996 251.195,388.284 253.346,388.387 253.279 C 388.625 253.126,379.104 243.619,378.702 243.608 C 378.538 243.604,380.608 245.805,383.302 248.500 M391.200 256.314 C 391.200 256.737,393.540 259.002,393.738 258.771 C 393.818 258.677,393.280 258.010,392.542 257.289 C 391.804 256.567,391.200 256.129,391.200 256.314 M-0.000 320.440 C -0.000 372.117,0.009 372.400,1.646 372.400 C 1.841 372.400,2.000 372.628,2.000 372.906 C 2.000 373.184,2.720 373.856,3.600 374.400 C 4.480 374.944,5.200 375.526,5.200 375.694 C 5.200 375.862,5.560 376.000,6.000 376.000 C 6.440 376.000,6.800 376.180,6.800 376.400 C 6.800 376.666,49.067 376.800,132.800 376.800 L 258.800 376.800 258.851 383.900 C 258.914 392.631,259.420 395.600,260.846 395.600 C 261.041 395.600,261.200 395.830,261.200 396.111 C 261.200 396.611,262.566 398.000,263.058 398.000 C 263.194 398.000,263.657 398.405,264.087 398.900 C 264.833 399.760,265.138 399.800,271.000 399.800 C 276.862 399.800,277.167 399.760,277.913 398.900 C 278.343 398.405,278.863 398.000,279.069 398.000 C 279.633 398.000,282.400 395.361,282.400 394.822 C 282.400 394.564,282.535 394.429,282.700 394.522 C 283.099 394.746,294.822 382.955,294.510 382.643 C 294.376 382.509,294.481 382.400,294.744 382.400 C 295.340 382.400,298.800 378.977,298.800 378.387 C 298.800 378.148,298.980 378.064,299.200 378.200 C 299.420 378.336,299.614 378.032,299.632 377.524 C 299.649 377.016,299.752 376.820,299.861 377.088 C 300.017 377.473,300.171 377.473,300.587 377.088 C 300.878 376.820,301.034 376.465,300.934 376.300 C 300.835 376.135,301.044 376.000,301.400 376.000 C 301.756 376.000,301.936 375.820,301.800 375.600 C 301.664 375.380,301.749 375.200,301.989 375.200 C 302.581 375.200,311.998 365.732,311.702 365.435 C 311.572 365.306,311.683 365.200,311.947 365.200 C 312.547 365.200,315.200 362.582,315.200 361.990 C 315.200 361.749,315.380 361.664,315.600 361.800 C 315.820 361.936,316.000 361.756,316.000 361.400 C 316.000 361.044,316.135 360.828,316.300 360.919 C 316.465 361.011,319.068 358.604,322.085 355.571 C 325.226 352.413,327.363 349.973,327.085 349.860 C 326.818 349.752,327.016 349.649,327.524 349.632 C 328.032 349.614,328.336 349.420,328.200 349.200 C 328.064 348.980,328.148 348.800,328.387 348.800 C 328.977 348.800,332.400 345.340,332.400 344.744 C 332.400 344.481,332.509 344.376,332.643 344.510 C 332.955 344.822,344.746 333.099,344.522 332.700 C 344.429 332.535,344.548 332.400,344.787 332.400 C 345.352 332.400,348.800 328.952,348.800 328.387 C 348.800 328.148,348.980 328.064,349.200 328.200 C 349.420 328.336,349.614 328.032,349.632 327.524 C 349.649 327.016,349.752 326.818,349.860 327.085 C 349.973 327.363,352.413 325.226,355.571 322.085 C 358.604 319.068,361.011 316.465,360.919 316.300 C 360.828 316.135,361.044 316.000,361.400 316.000 C 361.756 316.000,361.936 315.820,361.800 315.600 C 361.664 315.380,361.749 315.200,361.990 315.200 C 362.558 315.200,365.200 312.558,365.200 311.990 C 365.200 311.749,365.380 311.664,365.600 311.800 C 365.820 311.936,366.000 311.756,366.000 311.400 C 366.000 311.044,366.135 310.828,366.300 310.919 C 366.465 311.011,369.068 308.604,372.085 305.571 C 375.226 302.413,377.363 299.973,377.085 299.860 C 376.818 299.752,377.016 299.649,377.524 299.632 C 378.032 299.614,378.336 299.420,378.200 299.200 C 378.064 298.980,378.148 298.800,378.387 298.800 C 378.977 298.800,382.400 295.340,382.400 294.744 C 382.400 294.481,382.509 294.376,382.643 294.510 C 382.955 294.822,394.746 283.099,394.522 282.700 C 394.429 282.535,394.549 282.400,394.790 282.400 C 395.374 282.400,398.000 279.750,398.000 279.160 C 398.000 278.904,398.387 278.358,398.860 277.948 C 399.555 277.345,399.757 276.626,399.913 274.201 L 400.105 271.200 329.862 271.200 L 259.619 271.200 259.460 286.100 C 259.306 300.606,259.094 304.171,258.358 304.626 C 258.161 304.748,258.000 305.276,258.000 305.800 C 258.000 306.324,257.820 306.864,257.600 307.000 C 257.380 307.136,257.200 307.597,257.200 308.024 C 257.200 308.451,257.020 308.800,256.800 308.800 C 256.580 308.800,256.400 309.034,256.400 309.320 C 256.400 310.056,255.459 311.993,255.100 311.997 C 254.935 311.999,254.800 312.190,254.800 312.422 C 254.800 314.609,244.214 325.200,242.028 325.200 C 241.793 325.200,241.600 325.380,241.600 325.600 C 241.600 325.820,241.240 326.000,240.800 326.000 C 240.360 326.000,240.000 326.180,240.000 326.400 C 240.000 326.620,239.640 326.800,239.200 326.800 C 238.760 326.800,238.400 326.941,238.400 327.113 C 238.400 327.285,237.545 327.671,236.500 327.971 C 235.455 328.271,234.420 328.649,234.200 328.811 C 232.172 330.304,217.571 330.269,214.705 328.765 C 214.323 328.564,213.736 328.400,213.400 328.400 C 213.064 328.400,212.432 328.220,211.995 328.000 C 211.558 327.780,210.842 327.420,210.405 327.200 C 209.968 326.980,209.338 326.800,209.005 326.800 C 208.672 326.800,208.400 326.620,208.400 326.400 C 208.400 326.180,208.040 326.000,207.600 326.000 C 207.160 326.000,206.800 325.820,206.800 325.600 C 206.800 325.380,206.575 325.198,206.300 325.196 C 204.268 325.181,193.609 314.523,193.602 312.500 C 193.601 312.225,193.420 312.000,193.200 312.000 C 192.980 312.000,192.800 311.640,192.800 311.200 C 192.800 310.760,192.620 310.400,192.400 310.400 C 192.180 310.400,192.000 310.051,192.000 309.624 C 192.000 309.197,191.854 308.757,191.675 308.646 C 191.394 308.473,190.753 306.609,189.171 301.372 C 188.967 300.696,188.800 293.631,188.800 285.672 L 188.800 271.200 177.420 271.200 L 166.040 271.200 165.876 280.700 C 165.786 285.925,165.516 291.010,165.277 292.000 C 165.038 292.990,164.730 294.340,164.591 295.000 C 164.343 296.184,163.843 297.540,163.153 298.895 C 162.959 299.277,162.800 299.789,162.800 300.034 C 162.800 300.784,159.539 307.200,159.158 307.200 C 158.961 307.200,158.800 307.393,158.800 307.628 C 158.800 309.007,153.079 315.770,149.000 319.213 C 147.178 320.751,144.109 322.800,143.628 322.800 C 143.393 322.800,143.200 322.954,143.200 323.142 C 143.200 323.596,136.796 326.808,135.900 326.803 C 135.515 326.801,135.200 326.980,135.200 327.200 C 135.200 327.420,134.761 327.600,134.224 327.600 C 133.687 327.600,133.148 327.760,133.027 327.956 C 132.906 328.151,132.221 328.412,131.504 328.534 C 130.787 328.656,129.300 328.976,128.200 329.245 C 124.468 330.159,108.506 329.785,107.420 328.759 C 107.211 328.562,106.624 328.400,106.115 328.400 C 105.223 328.400,104.851 328.268,102.905 327.262 C 102.413 327.008,101.763 326.800,101.461 326.800 C 100.640 326.800,95.321 323.984,92.418 322.012 C 85.258 317.150,79.679 310.672,76.043 303.000 C 75.313 301.460,74.555 299.887,74.358 299.505 C 74.161 299.123,74.000 298.459,74.000 298.029 C 74.000 297.599,73.840 297.148,73.644 297.027 C 73.449 296.906,73.188 296.221,73.066 295.504 C 72.944 294.787,72.626 293.300,72.359 292.200 C 72.077 291.037,71.811 286.226,71.723 280.700 L 71.572 271.200 35.786 271.200 L 0.000 271.200 -0.000 320.440 M95.737 278.300 C 95.943 285.591,96.171 287.931,96.825 289.500 C 97.031 289.995,97.401 290.895,97.647 291.500 C 97.892 292.105,98.285 292.960,98.520 293.400 C 98.755 293.840,99.182 294.664,99.469 295.231 C 100.081 296.442,105.513 302.000,106.085 302.000 C 106.300 302.000,106.954 302.329,107.538 302.730 C 108.122 303.132,109.230 303.690,110.000 303.971 C 110.770 304.251,111.760 304.628,112.200 304.809 C 119.888 307.959,130.037 304.522,137.418 296.268 C 138.656 294.883,141.022 289.061,141.347 286.600 C 141.463 285.720,141.679 284.595,141.826 284.100 L 142.093 283.200 134.841 283.200 C 130.853 283.200,127.277 283.046,126.895 282.857 C 124.075 281.465,123.230 280.928,121.959 279.722 C 120.174 278.027,118.752 275.246,118.493 272.946 L 118.296 271.200 106.916 271.200 L 95.535 271.200 95.737 278.300 M212.800 283.272 C 212.800 291.300,212.955 295.822,213.261 296.772 C 214.909 301.870,216.930 303.891,222.028 305.539 C 224.742 306.415,228.750 305.336,231.559 302.973 C 235.160 299.943,235.590 297.846,235.596 283.300 L 235.600 271.200 224.200 271.200 L 212.800 271.200 212.800 283.272 " stroke="none" fill="#ffffff" fill-rule="evenodd"></path><path id="path2" d="M266.400 142.284 C 266.070 142.405,265.485 142.779,265.100 143.114 C 264.715 143.450,264.400 143.576,264.400 143.396 C 264.400 143.066,261.570 145.910,260.341 147.474 C 259.784 148.184,259.222 149.777,258.958 151.400 C 258.922 151.620,258.872 154.815,258.846 158.500 L 258.800 165.200 133.595 165.200 C 61.940 165.200,8.092 165.351,7.695 165.553 C 7.313 165.748,6.462 166.153,5.805 166.453 C 4.509 167.046,1.763 169.665,0.800 171.227 C 0.277 172.076,0.186 178.526,0.094 221.702 L -0.012 271.204 35.894 271.102 L 71.800 271.000 72.043 261.400 C 72.633 238.054,82.044 223.993,103.000 215.148 C 117.488 209.032,138.161 213.273,150.467 224.884 C 162.919 236.633,147.950 254.198,135.200 242.797 C 129.166 237.402,120.814 234.815,114.646 236.432 C 109.572 237.762,108.702 238.139,105.202 240.525 C 98.191 245.303,95.897 250.599,95.680 262.506 L 95.521 271.212 107.050 271.106 L 118.578 271.000 118.872 269.278 C 119.534 265.396,122.211 261.984,125.951 260.255 C 128.816 258.930,155.584 258.930,158.449 260.255 C 162.243 262.009,164.854 265.331,165.524 269.253 L 165.822 271.000 177.411 271.000 L 189.000 271.000 189.216 255.800 L 189.432 240.600 190.673 237.000 C 200.252 209.209,236.100 203.688,253.012 227.400 C 258.469 235.050,259.583 240.316,259.593 258.500 L 259.600 271.200 329.854 271.200 L 400.107 271.200 399.901 268.316 C 399.787 266.722,399.495 265.365,399.247 265.282 C 399.001 265.200,398.800 264.872,398.800 264.553 C 398.800 264.088,279.946 144.916,277.943 143.372 C 276.398 142.181,268.663 141.452,266.400 142.284 M221.200 236.481 C 220.650 236.716,219.652 237.145,218.982 237.434 C 217.095 238.248,214.794 240.723,213.644 243.173 L 212.600 245.400 212.600 258.200 L 212.600 271.000 224.200 271.000 L 235.800 271.000 235.923 259.400 C 236.075 245.160,235.891 243.972,232.943 240.185 C 231.802 238.720,230.232 237.720,227.081 236.451 C 225.697 235.893,222.538 235.910,221.200 236.481 " stroke="none" fill="#ffffff" fill-rule="evenodd"></path><path id="path3" d="M112.600 212.767 C 111.940 212.916,113.920 212.975,117.000 212.896 C 124.228 212.712,125.209 212.493,118.800 212.494 C 116.050 212.494,113.260 212.617,112.600 212.767 M222.115 212.696 C 223.388 212.776,225.368 212.775,226.515 212.694 C 227.662 212.614,226.620 212.549,224.200 212.550 C 221.780 212.551,220.842 212.616,222.115 212.696 M108.400 213.618 C 107.962 213.915,108.124 213.952,109.000 213.756 C 110.471 213.427,110.790 213.198,109.767 213.206 C 109.345 213.209,108.730 213.395,108.400 213.618 M126.833 213.343 C 126.925 213.421,127.630 213.601,128.400 213.742 C 129.385 213.923,129.622 213.882,129.200 213.606 C 128.658 213.250,126.437 213.003,126.833 213.343 M215.400 213.600 C 214.896 213.817,214.822 213.944,215.200 213.944 C 215.530 213.944,216.160 213.789,216.600 213.600 C 217.104 213.383,217.178 213.256,216.800 213.256 C 216.470 213.256,215.840 213.411,215.400 213.600 M231.233 213.344 C 231.325 213.423,231.940 213.608,232.600 213.756 C 233.476 213.952,233.638 213.915,233.200 213.618 C 232.660 213.253,230.832 212.998,231.233 213.344 M206.296 217.350 C 204.006 218.758,203.937 219.091,206.200 217.813 C 208.502 216.513,208.666 216.395,208.167 216.412 C 207.965 216.419,207.123 216.841,206.296 217.350 M244.400 218.925 C 244.400 219.024,245.061 219.609,245.868 220.225 C 246.676 220.841,247.211 221.141,247.056 220.891 C 246.740 220.379,244.400 218.647,244.400 218.925 M199.188 223.100 L 196.600 225.800 199.300 223.212 C 200.785 221.788,202.000 220.573,202.000 220.512 C 202.000 220.217,201.593 220.592,199.188 223.100 M89.985 222.429 L 88.600 223.658 90.100 222.581 C 91.426 221.630,91.857 221.200,91.485 221.200 C 91.422 221.200,90.747 221.753,89.985 222.429 M85.200 226.600 C 84.228 227.590,83.523 228.400,83.633 228.400 C 83.743 228.400,84.628 227.590,85.600 226.600 C 86.572 225.610,87.277 224.800,87.167 224.800 C 87.057 224.800,86.172 225.610,85.200 226.600 M254.030 229.400 C 254.524 230.280,255.100 231.180,255.310 231.400 C 255.909 232.028,254.539 229.494,253.796 228.600 C 253.430 228.160,253.535 228.520,254.030 229.400 M81.375 231.068 C 80.759 231.876,80.459 232.411,80.709 232.256 C 81.221 231.940,82.953 229.600,82.675 229.600 C 82.576 229.600,81.991 230.261,81.375 231.068 M155.301 234.600 C 155.305 235.480,155.387 235.793,155.483 235.295 C 155.579 234.798,155.575 234.078,155.475 233.695 C 155.375 233.313,155.296 233.720,155.301 234.600 M78.953 234.500 C 77.576 236.836,77.486 237.035,78.187 236.200 C 79.000 235.232,79.700 234.000,79.438 234.000 C 79.333 234.000,79.115 234.225,78.953 234.500 M113.600 236.400 C 112.796 236.657,112.757 236.723,113.400 236.732 C 113.840 236.738,114.560 236.589,115.000 236.400 C 116.019 235.962,114.968 235.962,113.600 236.400 M122.400 236.400 C 122.950 236.576,123.760 236.720,124.200 236.720 C 124.833 236.720,124.792 236.654,124.000 236.400 C 123.450 236.224,122.640 236.080,122.200 236.080 C 121.567 236.080,121.608 236.146,122.400 236.400 M105.695 239.811 C 104.543 240.586,103.600 241.308,103.600 241.415 C 103.600 241.521,104.590 240.951,105.800 240.147 C 107.722 238.871,108.287 238.400,107.895 238.400 C 107.837 238.400,106.847 239.035,105.695 239.811 M130.390 239.083 C 130.934 239.477,132.194 240.393,133.190 241.117 L 135.000 242.434 133.539 241.117 C 132.736 240.393,131.476 239.477,130.739 239.083 C 129.451 238.393,129.438 238.393,130.390 239.083 M232.783 239.900 C 233.526 240.835,234.206 241.600,234.294 241.600 C 234.577 241.600,232.863 239.349,232.135 238.764 C 231.748 238.454,232.040 238.965,232.783 239.900 M235.444 245.000 C 235.773 246.471,236.002 246.790,235.994 245.767 C 235.991 245.345,235.805 244.730,235.582 244.400 C 235.285 243.962,235.248 244.124,235.444 245.000 M147.800 245.200 C 146.920 245.607,146.341 245.954,146.513 245.970 C 146.987 246.015,149.600 244.872,149.600 244.620 C 149.600 244.349,149.723 244.310,147.800 245.200 M212.554 244.977 C 212.432 245.294,212.403 245.879,212.489 246.277 C 212.587 246.728,212.724 246.512,212.854 245.700 C 213.071 244.338,212.930 243.996,212.554 244.977 M259.389 270.600 C 259.389 284.900,259.439 290.692,259.500 283.471 C 259.561 276.250,259.561 264.550,259.500 257.471 C 259.439 250.392,259.389 256.300,259.389 270.600 M142.900 246.276 C 143.285 246.376,143.915 246.376,144.300 246.276 C 144.685 246.175,144.370 246.093,143.600 246.093 C 142.830 246.093,142.515 246.175,142.900 246.276 M73.246 247.667 C 73.221 248.034,73.096 248.664,72.970 249.067 C 72.752 249.762,72.763 249.763,73.197 249.087 C 73.448 248.696,73.573 248.066,73.473 247.687 C 73.311 247.068,73.288 247.066,73.246 247.667 M72.218 253.018 C 72.065 254.039,72.022 254.955,72.122 255.055 C 72.222 255.155,72.429 254.402,72.582 253.382 C 72.735 252.361,72.778 251.445,72.678 251.345 C 72.578 251.245,72.371 251.998,72.218 253.018 M95.367 263.600 C 95.367 267.890,95.426 269.645,95.498 267.500 C 95.570 265.355,95.570 261.845,95.498 259.700 C 95.426 257.555,95.367 259.310,95.367 263.600 M135.274 259.499 C 138.945 259.565,145.065 259.565,148.874 259.499 C 152.683 259.434,149.680 259.380,142.200 259.380 C 134.720 259.379,131.603 259.433,135.274 259.499 M121.978 263.100 L 120.600 264.600 122.100 263.222 C 123.496 261.938,123.784 261.600,123.478 261.600 C 123.412 261.600,122.737 262.275,121.978 263.100 M163.515 264.958 C 164.112 265.925,164.671 266.648,164.759 266.566 C 164.935 266.399,162.893 263.200,162.610 263.200 C 162.511 263.200,162.919 263.991,163.515 264.958 M72.083 280.200 C 72.068 285.260,72.185 289.726,72.342 290.125 C 72.611 290.807,72.512 273.520,72.237 271.800 C 72.166 271.360,72.097 275.140,72.083 280.200 M118.854 272.505 C 118.825 273.333,118.959 274.323,119.153 274.705 C 119.348 275.087,119.753 275.938,120.053 276.595 C 120.757 278.132,123.468 280.843,125.005 281.547 C 125.662 281.847,126.513 282.252,126.895 282.447 C 127.277 282.641,130.857 282.800,134.852 282.800 L 142.114 282.800 141.861 285.221 C 141.698 286.780,141.749 287.555,142.004 287.398 C 142.222 287.263,142.400 286.083,142.400 284.776 L 142.400 282.400 135.395 282.400 C 131.542 282.400,128.077 282.235,127.695 282.033 C 127.313 281.832,126.402 281.444,125.671 281.173 C 123.966 280.539,121.066 277.644,120.420 275.929 C 120.145 275.198,119.765 274.240,119.576 273.800 C 119.388 273.360,119.160 272.550,119.071 272.000 C 118.959 271.312,118.892 271.469,118.854 272.505 M165.144 279.800 C 164.869 289.241,164.277 293.767,162.851 297.326 C 162.322 298.646,162.251 299.538,162.718 298.980 C 163.219 298.382,164.373 294.384,165.194 290.400 C 165.476 289.032,165.601 284.948,165.524 279.600 L 165.400 271.000 165.144 279.800 M189.295 285.400 C 189.231 299.171,189.529 303.662,190.573 304.707 C 190.981 305.114,190.811 303.679,190.316 302.526 C 189.982 301.747,189.760 296.717,189.597 286.200 L 189.361 271.000 189.295 285.400 M236.076 283.200 C 235.954 296.575,235.755 298.063,233.704 300.974 C 232.291 302.977,229.579 305.110,228.024 305.440 C 226.081 305.852,225.240 306.342,226.421 306.373 C 228.684 306.433,232.359 304.001,234.239 301.200 C 236.362 298.037,236.447 297.317,236.312 283.600 L 236.188 271.000 236.076 283.200 M95.252 285.400 C 95.230 286.500,95.387 287.670,95.600 288.000 C 96.093 288.764,96.104 287.328,95.623 285.000 L 95.292 283.400 95.252 285.400 M96.168 289.840 C 97.276 297.155,107.017 305.634,114.963 306.199 C 117.378 306.370,117.384 306.368,115.600 305.966 C 112.419 305.248,108.630 303.926,107.538 303.152 C 106.954 302.738,106.305 302.400,106.094 302.400 C 105.691 302.400,101.021 297.963,99.991 296.600 C 99.441 295.873,97.515 292.098,96.419 289.600 C 95.995 288.634,95.987 288.642,96.168 289.840 M140.996 289.799 C 140.660 291.011,138.431 295.632,138.005 296.000 C 137.877 296.110,137.096 297.038,136.270 298.062 C 134.740 299.956,129.323 304.000,128.315 304.000 C 128.010 304.000,127.589 304.149,127.380 304.330 C 126.932 304.720,124.601 305.405,121.800 305.970 L 119.800 306.373 122.453 306.206 C 127.836 305.867,134.754 301.709,138.075 296.816 C 139.711 294.407,141.675 290.046,141.483 289.248 C 141.383 288.831,141.210 289.027,140.996 289.799 M72.800 292.314 C 72.800 298.807,80.197 311.255,88.420 318.600 C 92.329 322.091,102.626 327.984,101.426 326.043 C 101.276 325.799,100.803 325.600,100.376 325.600 C 99.949 325.600,99.600 325.420,99.600 325.200 C 99.600 324.980,99.240 324.800,98.800 324.800 C 98.360 324.800,98.000 324.620,98.000 324.400 C 98.000 324.180,97.640 324.000,97.200 324.000 C 96.760 324.000,96.400 323.820,96.400 323.600 C 96.400 323.380,96.164 323.200,95.875 323.200 C 95.587 323.200,94.964 322.840,94.492 322.400 C 94.020 321.960,93.422 321.600,93.164 321.600 C 92.905 321.600,92.403 321.283,92.047 320.896 C 91.691 320.508,90.757 319.713,89.971 319.130 C 88.221 317.829,82.400 312.065,82.400 311.632 C 82.400 311.460,81.905 310.785,81.300 310.133 C 80.076 308.814,78.867 306.967,78.529 305.900 C 78.407 305.515,78.148 305.200,77.953 305.200 C 77.759 305.200,77.600 304.840,77.600 304.400 C 77.600 303.960,77.420 303.600,77.200 303.600 C 76.980 303.600,76.800 303.240,76.800 302.800 C 76.800 302.360,76.620 302.000,76.400 302.000 C 76.180 302.000,76.000 301.651,76.000 301.224 C 76.000 300.797,75.820 300.336,75.600 300.200 C 75.380 300.064,75.200 299.549,75.200 299.056 C 75.200 298.563,75.041 297.989,74.847 297.780 C 74.653 297.571,74.209 296.251,73.860 294.847 C 73.260 292.428,72.800 291.329,72.800 292.314 M212.600 297.400 C 213.313 301.792,218.623 306.549,222.600 306.357 C 223.075 306.334,222.831 306.155,222.000 305.918 C 217.530 304.639,213.220 300.611,213.194 297.688 C 213.191 297.310,212.997 296.730,212.764 296.400 C 212.451 295.957,212.408 296.218,212.600 297.400 M258.688 298.933 C 258.530 299.336,258.418 300.326,258.440 301.133 L 258.480 302.600 258.852 301.011 C 259.281 299.181,259.165 297.719,258.688 298.933 M161.100 301.927 C 160.495 303.208,160.000 304.469,160.000 304.728 C 160.000 304.988,159.820 305.200,159.600 305.200 C 159.380 305.200,159.200 305.470,159.200 305.800 C 159.200 306.130,159.020 306.400,158.800 306.400 C 158.580 306.400,158.400 306.670,158.400 307.000 C 158.400 307.330,158.220 307.600,158.000 307.600 C 157.780 307.600,157.600 307.894,157.600 308.253 C 157.600 308.612,157.285 309.197,156.900 309.553 C 156.515 309.909,155.594 310.981,154.854 311.934 C 153.417 313.784,148.631 318.487,147.115 319.538 C 146.612 319.887,145.851 320.493,145.425 320.886 C 144.998 321.279,144.496 321.600,144.308 321.600 C 144.120 321.600,143.580 321.960,143.108 322.400 C 142.636 322.840,142.013 323.200,141.725 323.200 C 141.436 323.200,141.200 323.380,141.200 323.600 C 141.200 323.820,140.840 324.000,140.400 324.000 C 139.960 324.000,139.600 324.180,139.600 324.400 C 139.600 324.620,139.240 324.800,138.800 324.800 C 138.360 324.800,138.000 324.980,138.000 325.200 C 138.000 325.420,137.651 325.600,137.224 325.600 C 136.797 325.600,136.324 325.799,136.174 326.043 C 135.356 327.366,142.665 323.567,146.600 320.624 C 151.189 317.192,155.967 312.029,158.743 307.503 C 160.148 305.213,162.450 300.350,162.317 299.952 C 162.253 299.758,161.705 300.646,161.100 301.927 M257.867 303.067 C 257.720 303.213,257.600 303.756,257.600 304.272 C 257.600 304.788,257.439 305.523,257.242 305.905 C 257.045 306.287,256.281 307.860,255.544 309.400 C 254.807 310.940,254.068 312.260,253.902 312.333 C 253.736 312.407,253.600 312.630,253.600 312.829 C 253.600 314.345,244.116 324.000,242.626 324.000 C 242.319 324.000,242.007 324.142,241.933 324.315 C 241.860 324.488,240.754 325.137,239.475 325.756 C 238.196 326.376,237.233 326.966,237.334 327.067 C 238.521 328.254,248.406 320.862,252.251 315.912 C 255.432 311.817,260.338 300.596,257.867 303.067 M190.806 305.676 C 190.818 306.681,191.587 307.508,191.594 306.524 C 191.597 306.042,191.420 305.536,191.200 305.400 C 190.980 305.264,190.803 305.388,190.806 305.676 M191.606 307.900 C 191.646 310.044,198.016 318.610,201.910 321.754 C 204.802 324.089,210.674 327.460,211.103 327.030 C 211.247 326.886,210.968 326.664,210.483 326.537 C 209.997 326.411,209.600 326.148,209.600 325.953 C 209.600 325.759,209.366 325.600,209.080 325.600 C 208.344 325.600,206.407 324.659,206.403 324.300 C 206.401 324.135,206.130 324.000,205.800 324.000 C 205.470 324.000,205.200 323.820,205.200 323.600 C 205.200 323.380,205.022 323.200,204.805 323.200 C 203.570 323.200,194.800 314.133,194.800 312.857 C 194.800 312.642,194.658 312.407,194.485 312.333 C 194.312 312.260,193.669 311.165,193.056 309.900 C 192.018 307.759,191.592 307.171,191.606 307.900 M102.400 326.800 C 103.176 327.301,103.600 327.301,103.600 326.800 C 103.600 326.580,103.195 326.403,102.700 326.406 C 101.972 326.411,101.915 326.486,102.400 326.800 M134.000 326.800 C 134.000 327.301,134.424 327.301,135.200 326.800 C 135.685 326.486,135.628 326.411,134.900 326.406 C 134.405 326.403,134.000 326.580,134.000 326.800 M104.073 327.406 C 104.435 327.768,108.912 328.830,109.365 328.661 C 109.604 328.572,109.260 328.374,108.600 328.222 C 107.940 328.069,106.987 327.777,106.481 327.572 C 105.511 327.179,103.722 327.056,104.073 327.406 M131.000 327.599 C 130.560 327.788,129.660 328.068,129.000 328.221 C 128.340 328.374,128.009 328.576,128.264 328.671 C 128.745 328.849,133.200 327.676,133.200 327.372 C 133.200 327.090,131.859 327.229,131.000 327.599 M212.000 327.600 C 212.788 328.109,213.715 328.109,213.400 327.600 C 213.264 327.380,212.758 327.203,212.276 327.206 C 211.564 327.211,211.512 327.285,212.000 327.600 M235.047 327.486 C 234.356 328.177,230.635 328.830,226.200 329.038 C 221.886 329.240,220.215 329.107,215.200 328.162 C 212.961 327.740,214.092 328.399,216.660 329.013 C 220.273 329.876,228.705 329.763,232.523 328.801 C 236.011 327.922,237.591 327.233,236.167 327.212 C 235.708 327.205,235.205 327.329,235.047 327.486 M111.276 329.260 C 111.784 329.403,115.170 329.520,118.800 329.520 C 122.430 329.520,125.816 329.403,126.324 329.260 C 126.832 329.117,123.446 329.000,118.800 329.000 C 114.154 329.000,110.768 329.117,111.276 329.260 " stroke="none" fill="#ffffff" fill-rule="evenodd"></path><path id="path4" d="M71.813 280.400 C 71.868 289.305,72.213 293.547,72.941 294.275 C 73.221 294.554,72.928 292.377,72.501 291.000 C 72.365 290.560,72.141 285.790,72.003 280.400 L 71.752 270.600 71.813 280.400 M118.509 272.400 C 118.509 273.390,118.587 273.795,118.682 273.300 C 118.778 272.805,118.778 271.995,118.682 271.500 C 118.587 271.005,118.509 271.410,118.509 272.400 M165.692 279.694 C 165.641 284.696,165.402 289.646,165.159 290.694 C 163.824 296.471,163.277 298.155,161.441 302.148 C 160.848 303.439,160.447 304.581,160.552 304.685 C 160.759 304.893,162.800 300.623,162.800 299.983 C 162.800 299.766,162.980 299.232,163.200 298.795 C 163.420 298.358,163.780 297.642,164.000 297.205 C 164.220 296.768,164.400 296.106,164.400 295.734 C 164.400 295.361,164.569 294.504,164.776 293.828 C 165.832 290.379,166.040 287.738,165.915 279.400 L 165.784 270.600 165.692 279.694 M188.888 285.600 C 188.846 293.850,188.944 300.808,189.106 301.063 C 189.374 301.484,189.353 281.468,189.078 273.800 C 189.014 272.040,188.929 277.350,188.888 285.600 M212.489 282.972 C 212.429 291.367,212.547 295.802,212.856 296.772 C 214.119 300.728,215.900 303.101,218.800 304.696 C 220.286 305.513,223.496 306.324,222.400 305.606 C 222.070 305.389,221.490 305.209,221.112 305.206 C 219.242 305.189,215.677 302.324,214.488 299.881 C 213.087 297.006,213.038 296.528,212.805 283.400 L 212.578 270.600 212.489 282.972 M235.689 283.000 C 235.542 301.672,234.554 303.598,223.800 306.171 C 223.360 306.276,223.630 306.298,224.400 306.219 C 228.432 305.804,231.222 304.250,233.612 301.088 C 235.828 298.155,236.051 296.361,235.910 282.600 L 235.788 270.600 235.689 283.000 M95.362 277.400 C 95.362 280.920,95.424 282.306,95.498 280.481 C 95.572 278.656,95.572 275.776,95.497 274.081 C 95.422 272.386,95.361 273.880,95.362 277.400 M119.016 275.250 C 119.459 276.649,120.949 278.854,122.255 280.043 C 123.326 281.019,124.372 281.645,126.800 282.763 C 127.471 283.072,130.172 283.183,135.000 283.102 L 142.200 282.980 134.724 282.890 C 130.272 282.836,127.147 282.638,127.000 282.400 C 126.864 282.180,126.481 282.000,126.148 282.000 C 124.411 282.000,119.600 277.189,119.600 275.452 C 119.600 275.119,119.401 274.724,119.157 274.574 C 118.852 274.385,118.808 274.596,119.016 275.250 M95.881 286.400 C 96.006 287.610,96.174 288.675,96.254 288.767 C 96.535 289.087,96.317 286.191,95.987 285.200 C 95.771 284.554,95.734 284.980,95.881 286.400 M141.452 285.300 C 141.319 285.795,141.208 286.687,141.205 287.281 C 141.199 288.480,140.852 289.452,139.153 293.024 C 137.574 296.344,137.705 296.822,139.311 293.600 C 140.886 290.441,141.446 288.790,141.788 286.300 C 142.060 284.318,141.868 283.747,141.452 285.300 M96.789 290.363 C 97.287 292.097,97.972 293.218,97.988 292.324 C 97.995 291.952,97.820 291.536,97.600 291.400 C 97.380 291.264,97.200 290.814,97.200 290.400 C 97.200 289.986,97.032 289.543,96.826 289.416 C 96.597 289.275,96.583 289.643,96.789 290.363 M98.190 293.501 C 99.381 295.806,99.594 296.126,99.589 295.600 C 99.585 295.270,99.211 294.550,98.756 294.000 C 98.302 293.450,98.047 293.226,98.190 293.501 M73.200 295.776 C 73.200 296.313,73.347 296.844,73.528 296.955 C 73.708 297.067,73.777 296.627,73.682 295.979 C 73.472 294.549,73.200 294.435,73.200 295.776 M137.200 296.257 C 137.200 296.472,136.075 297.789,134.700 299.185 C 133.095 300.814,132.710 301.346,133.626 300.670 C 135.293 299.440,137.788 296.455,137.440 296.107 C 137.308 295.975,137.200 296.042,137.200 296.257 M100.745 297.480 C 101.657 298.804,105.046 301.767,106.800 302.774 C 109.604 304.382,112.639 305.510,112.184 304.774 C 112.057 304.568,111.685 304.400,111.357 304.400 C 110.803 304.400,109.768 303.936,106.507 302.226 C 105.796 301.853,104.010 300.345,102.539 298.874 C 101.068 297.403,100.261 296.776,100.745 297.480 M259.269 298.000 C 259.225 298.990,259.089 300.250,258.967 300.800 C 258.777 301.655,258.810 301.698,259.193 301.098 C 259.440 300.712,259.576 299.452,259.495 298.298 L 259.348 296.200 259.269 298.000 M74.028 298.276 C 74.013 298.758,74.180 299.264,74.400 299.400 C 74.873 299.692,74.873 299.301,74.400 298.200 C 74.069 297.429,74.055 297.431,74.028 298.276 M129.800 302.817 C 128.700 303.464,128.029 303.995,128.309 303.997 C 128.798 304.000,132.000 302.048,132.000 301.747 C 132.000 301.527,131.957 301.548,129.800 302.817 M189.641 302.573 C 189.594 303.453,191.113 308.006,191.643 308.577 C 191.836 308.784,191.610 307.884,191.141 306.577 C 190.673 305.270,190.153 303.660,189.986 303.000 C 189.801 302.269,189.666 302.102,189.641 302.573 M258.454 302.867 C 258.425 303.234,258.284 303.864,258.141 304.267 C 257.941 304.833,257.995 304.896,258.375 304.546 C 258.646 304.297,258.787 303.667,258.688 303.146 C 258.590 302.626,258.484 302.500,258.454 302.867 M125.800 304.612 C 124.920 304.929,123.660 305.203,123.000 305.222 C 122.340 305.241,121.440 305.420,121.000 305.620 C 120.456 305.868,120.840 305.911,122.200 305.756 C 124.337 305.511,126.758 304.839,127.380 304.318 C 127.886 303.895,127.688 303.932,125.800 304.612 M77.200 305.329 C 77.200 305.694,79.245 308.800,79.486 308.800 C 79.679 308.800,78.092 306.048,77.536 305.420 C 77.351 305.211,77.200 305.170,77.200 305.329 M114.400 305.602 C 115.390 305.805,117.100 306.060,118.200 306.169 L 120.200 306.367 118.400 305.998 C 117.410 305.795,115.700 305.540,114.600 305.431 L 112.600 305.233 114.400 305.602 M159.632 305.939 C 158.979 307.160,159.114 307.500,159.841 306.463 C 160.193 305.960,160.388 305.454,160.273 305.340 C 160.159 305.225,159.870 305.495,159.632 305.939 M157.144 309.900 C 155.852 311.460,155.519 312.000,155.851 311.995 C 156.043 311.992,156.607 311.362,157.104 310.595 C 158.072 309.101,158.092 308.756,157.144 309.900 M82.633 313.200 C 83.960 314.991,86.166 317.242,87.800 318.472 C 89.271 319.580,89.245 319.530,87.482 317.857 C 86.426 316.856,84.737 315.174,83.728 314.118 C 82.718 313.063,82.226 312.650,82.633 313.200 M151.800 316.093 C 149.224 318.726,148.791 319.287,150.280 318.066 C 152.030 316.629,155.975 312.384,155.537 312.407 C 155.462 312.411,153.780 314.070,151.800 316.093 M193.688 312.687 C 193.852 313.400,196.946 317.595,197.309 317.598 C 197.479 317.599,196.939 316.724,196.109 315.653 C 195.279 314.583,194.370 313.368,194.088 312.953 C 193.806 312.539,193.626 312.419,193.688 312.687 M252.746 315.300 C 252.246 316.015,250.664 317.860,249.230 319.400 L 246.622 322.200 249.145 319.800 C 251.384 317.670,254.359 314.000,253.846 314.000 C 253.741 314.000,253.246 314.585,252.746 315.300 M199.863 320.312 C 202.359 322.742,205.914 325.420,206.228 325.106 C 206.322 325.011,205.544 324.379,204.500 323.700 C 203.455 323.021,201.430 321.442,200.000 320.190 L 197.400 317.913 199.863 320.312 M146.400 320.835 L 145.000 322.048 146.495 321.124 C 147.317 320.616,147.992 320.065,147.995 319.900 C 148.002 319.464,147.938 319.502,146.400 320.835 M244.800 323.235 L 243.400 324.448 244.895 323.524 C 245.717 323.016,246.392 322.465,246.395 322.300 C 246.402 321.864,246.338 321.902,244.800 323.235 M94.800 323.567 C 95.763 324.352,96.400 324.608,96.400 324.210 C 96.400 324.106,95.815 323.735,95.100 323.386 L 93.800 322.752 94.800 323.567 M141.776 323.787 C 141.349 324.110,141.180 324.375,141.400 324.375 C 141.620 324.375,142.149 324.110,142.576 323.787 C 143.004 323.464,143.173 323.200,142.953 323.200 C 142.733 323.200,142.204 323.464,141.776 323.787 M100.200 326.400 C 100.336 326.620,100.842 326.787,101.324 326.772 C 102.169 326.745,102.171 326.731,101.400 326.400 C 100.299 325.927,99.908 325.927,100.200 326.400 M136.200 326.400 C 135.429 326.731,135.431 326.745,136.276 326.772 C 136.758 326.787,137.264 326.620,137.400 326.400 C 137.692 325.927,137.301 325.927,136.200 326.400 M132.800 327.600 C 131.157 328.158,130.873 328.354,131.676 328.374 C 132.268 328.388,132.864 328.220,133.000 328.000 C 133.136 327.780,133.687 327.600,134.224 327.600 C 134.761 327.600,135.200 327.420,135.200 327.200 C 135.200 326.980,135.155 326.812,135.100 326.826 C 135.045 326.841,134.010 327.189,132.800 327.600 M236.400 327.637 C 235.410 328.073,235.050 328.318,235.600 328.182 C 236.150 328.047,237.005 327.839,237.500 327.721 C 237.995 327.603,238.400 327.348,238.400 327.153 C 238.400 326.723,238.570 326.682,236.400 327.637 M104.741 328.101 C 104.943 328.303,105.533 328.401,106.054 328.319 C 106.855 328.193,106.798 328.137,105.687 327.952 C 104.893 327.821,104.519 327.879,104.741 328.101 M107.415 328.824 C 107.543 329.031,108.297 329.200,109.090 329.200 C 110.861 329.200,110.700 328.990,108.691 328.680 C 107.791 328.541,107.276 328.599,107.415 328.824 M128.400 328.800 C 127.016 329.091,127.014 329.095,128.200 329.141 C 128.860 329.167,129.670 329.013,130.000 328.800 C 130.666 328.370,130.445 328.370,128.400 328.800 M214.741 328.901 C 214.943 329.103,215.533 329.201,216.054 329.119 C 216.855 328.993,216.798 328.937,215.687 328.752 C 214.893 328.621,214.519 328.679,214.741 328.901 M232.600 328.800 L 231.400 329.105 232.676 329.153 C 233.378 329.179,234.064 329.020,234.200 328.800 C 234.474 328.357,234.340 328.357,232.600 328.800 M111.338 329.694 C 111.592 329.856,114.950 329.988,118.800 329.988 C 122.650 329.988,126.008 329.856,126.262 329.694 C 126.516 329.532,123.158 329.400,118.800 329.400 C 114.442 329.400,111.084 329.532,111.338 329.694 M217.915 329.672 C 218.847 330.042,230.084 330.061,230.662 329.694 C 230.916 329.532,227.998 329.400,224.177 329.400 C 220.356 329.400,217.538 329.522,217.915 329.672 " stroke="none" fill="#ffffff" fill-rule="evenodd"></path></g></svg>