<?xml version="1.0" standalone="no"?>
<!DOCTYPE svg PUBLIC "-//W3C//DTD SVG 20010904//EN"
 "http://www.w3.org/TR/2001/REC-SVG-20010904/DTD/svg10.dtd">
<svg version="1.0" xmlns="http://www.w3.org/2000/svg"
 width="512.000000pt" height="512.000000pt" viewBox="0 0 512.000000 512.000000"
 preserveAspectRatio="xMidYMid meet">

<g transform="translate(0.000000,512.000000) scale(0.100000,-0.100000)"
fill="current" stroke="none">
<path d="M1431 5109 c-169 -33 -328 -180 -388 -359 -17 -52 -18 -132 -21
-1620 -2 -1014 1 -1595 7 -1650 29 -235 216 -422 451 -451 55 -6 636 -9 1650
-7 1488 3 1568 4 1620 21 183 62 327 219 360 396 15 78 14 3202 -1 3273 -39
186 -211 358 -397 397 -65 13 -3212 14 -3281 0z m2669 -1014 l0 -255 -385 0
-384 0 -3 -762 c-4 -848 0 -793 -73 -938 -80 -156 -223 -273 -401 -326 -94
-29 -256 -24 -361 10 -160 52 -299 170 -373 318 -128 255 -77 555 127 750 75
71 129 104 228 140 176 65 387 42 547 -59 21 -12 40 -23 43 -23 3 0 5 315 5
700 l0 700 515 0 515 0 0 -255z"/>
<path d="M0 2280 c0 -1296 3 -1834 11 -1872 39 -186 211 -358 397 -397 38 -8
576 -11 1872 -11 l1820 0 0 255 0 255 -1795 0 -1795 0 0 1795 0 1795 -255 0
-255 0 0 -1820z"/>
</g>
</svg>
