<svg id="logo_jjanhae" xmlns="http://www.w3.org/2000/svg" viewBox="0 0 553.12 456.01"><path id="jjan" d="M519.53,208.71c-27.75,3.26-63,32.49-63,32.53-13.38-70-31.44-137.5-50.41-148.81,0,0-53.18,120.36-147.92,113.83-146.11-10.08-157.62,86.56-157.62,86.56,39.64-36.09,71.92-16.38,148.39-21.64-1.59,9-19,105.51-43.85,133.53,0,0,41.65,29.4,57.17-55.54,0,0,36.75,34.31,72.68,17.15s23.5-73.5,23.5-73.5,44.67,32.75,72.05-5.71c0,0-67.66-22.19-86.93-47,42.47-37.34,56.42-102,60.73-131.8v.08l65.24,312s-45.57,39-102.74,42.27-85.75,31.85-85.75,31.85-56.35-76.76-94.73-67l84.93,120.86s5.72-24.5,69.42-32.66S464.81,479,483.6,420.23c0,0-9.29-81.57-24.18-163.4C518.55,264.94,519.53,208.71,519.53,208.71ZM335,350.81s-41.65-9-69.42-35.94c0,0,2.18-33.23-7.89-44.38h0c9.32-.84,19.27-2.06,29.94-3.8A110,110,0,0,0,324.2,254C324.48,254.5,339.82,283.64,335,350.81Z" transform="translate(-47.62 -92.43)"/><path id="water" d="M92.82,351.22c-14.3-29-3.27-47.31-3.27-47.31S51.17,327.53,47.9,366.32,71.17,410,84.24,402.26,107.11,380.21,92.82,351.22Zm-19.08-2.86s-9.1,14.7-15.63,12.66,18.37-29.4,18.37-29.4C78.12,343.05,73.74,348.36,73.74,348.36Z" transform="translate(-47.62 -92.43)"/><path id="hae" d="M597.22,311.56C591,294.41,583,328,579.59,337.84s-4.48,6.87-8.54,7.1-4,.88,3.22-14.34,6.6-18.55-.93-30.36-10.93,10.7-11.49,15.41-6.85,2.89-10.36,1.79S539.86,316,536,307c-4.1-9.6,5.81-32.86,8.55-36.17s7.76-9-9.5-2.41S524.35,304,524.35,304c-5.64.67-12.12-2-17-5.95s-9.24-17.57-11.92-1.18,21.07,19.88,21.07,19.88c-17.44,4-27.25,31.84-2.56,39.16s32.32-11.17,33.84-20.48,2-6,7.3-6.36-5.76,20.23-18.33,44-2.49,31.38-2.49,31.38,10.32-18.23,17.75-33.41,5.89-11.57,12.62-12.38-3.41,12.61-3.41,12.61L538,406.48s19.48-6.22,42.53-38.92S603.4,328.72,597.22,311.56ZM521.05,341.1s-9-2.51-3.93-8.58,18.2-7.8,17.32,1.45S521.05,341.1,521.05,341.1Z" transform="translate(-47.62 -92.43)"/></svg>