<?xml version="1.0" standalone="no"?>
<!DOCTYPE svg PUBLIC "-//W3C//DTD SVG 20010904//EN"
 "http://www.w3.org/TR/2001/REC-SVG-20010904/DTD/svg10.dtd">
<svg version="1.0" xmlns="http://www.w3.org/2000/svg"
 width="512.000000pt" height="512.000000pt" viewBox="0 0 512.000000 512.000000"
 preserveAspectRatio="xMidYMid meet">

<g transform="translate(0.000000,512.000000) scale(0.100000,-0.100000)"
fill="#000000" stroke="none">
<path d="M2435 5114 c-279 -44 -517 -183 -677 -394 -68 -90 -143 -246 -175
-365 l-27 -100 -4 -880 c-2 -586 0 -915 7 -986 15 -139 41 -233 101 -354 184
-374 591 -600 999 -555 135 15 227 41 346 100 251 123 453 366 525 629 38 142
42 247 38 1166 l-4 880 -27 100 c-99 370 -377 646 -742 736 -79 20 -294 33
-360 23z"/>
<path d="M1021 2632 c-19 -9 -48 -34 -64 -54 -38 -47 -44 -104 -28 -260 43
-415 238 -800 543 -1068 236 -209 527 -347 828 -394 l75 -11 3 -243 2 -242
-347 0 c-317 0 -352 -2 -389 -19 -134 -61 -135 -255 -2 -320 44 -21 48 -21
918 -21 870 0 874 0 918 21 133 65 132 259 -2 320 -37 17 -72 19 -389 19
l-347 0 2 242 3 243 75 11 c729 113 1294 715 1371 1462 16 156 10 213 -28 260
-75 94 -202 98 -280 9 -35 -40 -37 -48 -53 -222 -28 -304 -147 -566 -352 -777
-328 -337 -790 -465 -1248 -348 -421 108 -774 453 -895 874 -29 103 -42 177
-50 301 -4 50 -11 104 -16 121 -11 36 -63 89 -102 103 -42 16 -108 13 -146 -7z"/>
</g>
</svg>
