<?xml version="1.0" standalone="no"?>
<!DOCTYPE svg PUBLIC "-//W3C//DTD SVG 20010904//EN"
 "http://www.w3.org/TR/2001/REC-SVG-20010904/DTD/svg10.dtd">
<svg version="1.0" xmlns="http://www.w3.org/2000/svg"
 width="512.000000pt" height="512.000000pt" viewBox="0 0 512.000000 512.000000"
 preserveAspectRatio="xMidYMid meet">

<g transform="translate(0.000000,512.000000) scale(0.100000,-0.100000)"
fill="#000000" stroke="none">
<path d="M2435 5114 c-279 -44 -517 -183 -677 -394 -68 -90 -143 -246 -175
-365 l-27 -100 -4 -880 c-4 -919 0 -1024 39 -1166 26 -95 94 -237 152 -315
l45 -61 -98 -98 -97 -97 -35 44 c-160 196 -253 447 -273 733 -8 114 -18 144
-58 183 -111 107 -292 41 -305 -113 -6 -72 14 -258 39 -365 59 -254 178 -499
330 -682 l51 -61 -139 -141 c-147 -149 -1031 -1053 -1142 -1168 l-65 -68 69 0
70 0 635 650 c349 358 636 650 638 650 2 0 38 -30 80 -66 233 -199 520 -333
812 -378 l75 -11 3 -243 2 -242 -347 0 c-317 0 -352 -2 -389 -19 -134 -61
-135 -255 -2 -320 44 -21 48 -21 918 -21 870 0 874 0 918 21 133 65 132 259
-2 320 -37 17 -72 19 -389 19 l-347 0 2 242 3 243 75 11 c729 113 1294 715
1371 1462 16 156 10 213 -28 260 -75 94 -202 98 -280 9 -35 -40 -37 -48 -53
-222 -16 -174 -53 -309 -122 -450 -151 -304 -413 -538 -722 -645 -372 -129
-788 -82 -1111 125 -73 47 -205 155 -205 168 0 6 41 53 91 103 l92 92 81 -64
c205 -162 474 -242 725 -214 135 15 227 41 346 100 308 152 516 449 555 795 5
50 10 326 10 615 l1 525 555 565 c738 752 994 1016 994 1029 0 7 -23 11 -58
11 l-58 0 -715 -731 -714 -731 -6 299 c-6 278 -8 305 -32 398 -96 367 -377
646 -742 736 -79 20 -294 33 -360 23z"/>
</g>
</svg>
