<?xml version="1.0" standalone="no"?>
<!DOCTYPE svg PUBLIC "-//W3C//DTD SVG 20010904//EN"
 "http://www.w3.org/TR/2001/REC-SVG-20010904/DTD/svg10.dtd">
<svg version="1.0" xmlns="http://www.w3.org/2000/svg"
 width="512.000000pt" height="512.000000pt" viewBox="0 0 512.000000 512.000000"
 preserveAspectRatio="xMidYMid meet">

<g transform="translate(0.000000,512.000000) scale(0.100000,-0.100000)"
fill="#eee" stroke="none">
<path d="M900 3881 c0 -684 -3 -1241 -7 -1239 -155 78 -290 96 -437 58 -113
-29 -190 -73 -276 -160 -87 -86 -131 -163 -160 -276 -36 -141 -18 -294 52
-427 42 -81 164 -203 245 -245 133 -70 286 -88 427 -52 113 29 190 73 276 160
87 86 131 163 160 276 19 75 20 116 20 1456 0 758 4 1378 8 1378 5 0 46 -10
92 -21 379 -96 667 -384 770 -769 20 -74 23 -117 27 -331 5 -236 4 -247 -16
-287 -24 -47 -80 -82 -132 -82 -46 0 -108 39 -130 82 -16 32 -19 60 -19 203
l0 165 -150 0 -150 0 0 -170 c0 -252 26 -336 135 -445 254 -255 686 -122 755
232 18 90 7 542 -15 643 -39 180 -111 350 -210 500 -66 99 -259 292 -360 358
-151 100 -324 173 -496 207 -41 9 -149 18 -241 22 l-168 6 0 -1242z"/>
<path d="M3920 3606 l-1195 -342 -3 -1211 -2 -1212 -43 15 c-121 44 -271 54
-404 29 -101 -19 -172 -48 -255 -102 -79 -52 -127 -106 -165 -189 -24 -50 -28
-72 -28 -144 0 -72 4 -94 28 -144 15 -33 43 -79 62 -102 40 -49 146 -121 224
-152 181 -73 435 -65 605 19 125 62 193 129 244 236 l27 58 3 1035 2 1036 888
253 c488 140 893 256 900 258 9 4 12 -150 12 -750 l0 -756 -42 15 c-122 44
-272 54 -405 29 -101 -19 -172 -48 -255 -102 -79 -52 -127 -106 -165 -189 -24
-50 -28 -72 -28 -144 0 -72 4 -94 28 -144 15 -33 43 -79 62 -102 40 -49 146
-121 224 -152 181 -73 435 -65 605 19 125 62 193 129 244 236 l27 58 3 1145
c1 630 1 1301 0 1491 l-3 346 -1195 -341z"/>
</g>
</svg>
