<?xml version="1.0" standalone="no"?>
<!DOCTYPE svg PUBLIC "-//W3C//DTD SVG 20010904//EN"
 "http://www.w3.org/TR/2001/REC-SVG-20010904/DTD/svg10.dtd">
<svg version="1.0" xmlns="http://www.w3.org/2000/svg"
 width="512.000000pt" height="512.000000pt" viewBox="0 0 512.000000 512.000000"
 preserveAspectRatio="xMidYMid meet">

<g transform="translate(0.000000,512.000000) scale(0.100000,-0.100000)"
fill="current" stroke="none">
<path d="M1145 4948 c-72 -13 -184 -70 -243 -123 -65 -58 -118 -139 -151 -229
l-26 -71 0 -1960 0 -1960 22 -70 c57 -180 205 -318 388 -360 56 -13 241 -15
1417 -13 l1353 3 60 24 c178 71 304 215 341 390 11 55 14 375 14 1977 0 1320
-3 1929 -11 1970 -36 201 -207 377 -408 420 -55 11 -288 13 -1386 13 -784 -1
-1340 -5 -1370 -11z m2776 -231 c66 -32 132 -99 162 -165 l22 -47 0 -1945 0
-1945 -24 -52 c-29 -66 -111 -143 -176 -169 -48 -18 -91 -19 -1390 -19 l-1340
0 -46 21 c-69 32 -128 91 -161 159 l-28 60 0 1945 0 1945 24 51 c44 95 124
161 220 185 17 4 627 6 1356 6 l1325 -2 56 -28z"/>
<path d="M2033 4450 c-47 -19 -71 -98 -44 -149 27 -50 37 -51 522 -51 l451 0
34 34 c24 24 34 43 34 65 0 43 -23 85 -55 99 -31 14 -907 16 -942 2z"/>
<path d="M2353 3476 c-94 -31 -158 -72 -232 -151 -97 -105 -143 -223 -142
-373 0 -146 53 -274 156 -377 217 -217 554 -217 770 -1 80 81 128 167 150 273
18 86 18 130 0 218 -43 207 -208 379 -405 424 -81 19 -217 13 -297 -13z m315
-220 c215 -110 251 -388 71 -550 -66 -60 -163 -92 -247 -82 -126 14 -240 101
-283 215 -29 78 -24 194 13 266 36 69 103 131 174 161 81 34 194 30 272 -10z"/>
<path d="M2380 2199 c-165 -29 -329 -116 -450 -239 -136 -138 -219 -318 -242
-522 -10 -91 -9 -107 5 -138 33 -69 -16 -65 805 -68 507 -2 756 1 783 8 65 18
82 55 75 165 -14 229 -110 434 -274 586 -105 97 -213 155 -358 194 -72 20
-269 28 -344 14z m310 -225 c225 -66 398 -257 445 -491 l7 -33 -621 0 -621 0
6 28 c43 204 166 369 337 451 47 23 116 48 154 56 82 17 215 12 293 -11z"/>
</g>
</svg>
