<?xml version="1.0" standalone="no"?>
<!DOCTYPE svg PUBLIC "-//W3C//DTD SVG 20010904//EN"
 "http://www.w3.org/TR/2001/REC-SVG-20010904/DTD/svg10.dtd">
<svg version="1.0" xmlns="http://www.w3.org/2000/svg"
 width="512.000000pt" height="512.000000pt" viewBox="0 0 512.000000 512.000000"
 preserveAspectRatio="xMidYMid meet">

<g transform="translate(0.000000,512.000000) scale(0.100000,-0.100000)"
fill="current" stroke="none">
<path d="M243 4676 c-103 -33 -191 -121 -223 -223 -20 -64 -20 -90 -20 -1893
0 -1807 0 -1829 20 -1893 41 -132 162 -226 304 -235 143 -9 89 -46 1006 683
454 360 828 655 832 655 4 0 9 -246 10 -548 l3 -547 28 -53 c61 -117 165 -183
297 -190 55 -2 89 1 127 15 41 14 286 204 1180 914 620 494 1158 928 1194 965
92 96 113 140 114 234 0 96 -23 146 -111 234 -35 36 -573 469 -1194 963 -814
647 -1143 903 -1178 916 -71 26 -190 19 -263 -15 -69 -32 -129 -90 -166 -160
l-28 -53 -3 -547 c-1 -302 -6 -548 -10 -548 -4 0 -378 295 -831 655 -597 474
-837 658 -869 670 -55 18 -161 19 -219 1z"/>
</g>
</svg>
