<?xml version="1.0" standalone="no"?>
<!DOCTYPE svg PUBLIC "-//W3C//DTD SVG 20010904//EN"
 "http://www.w3.org/TR/2001/REC-SVG-20010904/DTD/svg10.dtd">
<svg version="1.0" xmlns="http://www.w3.org/2000/svg"
 width="512.000000pt" height="512.000000pt" viewBox="0 0 512.000000 512.000000"
 preserveAspectRatio="xMidYMid meet">

<g transform="translate(0.000000,512.000000) scale(0.100000,-0.100000)"
fill="red" stroke="none">
<path d="M595 3893 c-290 -62 -519 -294 -579 -585 -24 -116 -24 -1381 0 -1496
50 -241 221 -449 450 -545 141 -60 38 -57 2094 -57 2033 0 1947 -2 2084 51
172 68 333 223 412 398 60 133 58 105 61 866 3 614 2 709 -12 779 -60 297
-291 529 -587 590 -69 14 -276 16 -1965 15 -1637 -1 -1897 -3 -1958 -16z
m3867 -294 c171 -36 310 -175 347 -347 15 -73 15 -1310 0 -1384 -16 -77 -74
-180 -129 -232 -56 -53 -144 -99 -218 -115 -76 -16 -3729 -16 -3804 0 -172 37
-310 175 -347 347 -15 73 -15 1310 0 1384 18 87 58 158 123 223 64 64 127 100
211 121 68 17 3736 20 3817 3z"/>
<path d="M875 3097 c-104 -28 -194 -99 -231 -184 -27 -62 -23 -167 9 -229 45
-89 61 -98 383 -230 143 -58 157 -157 33 -222 -83 -44 -216 -14 -317 71 -70
59 -148 46 -172 -29 -16 -47 0 -83 59 -135 139 -123 363 -162 515 -91 85 40
130 82 167 158 57 116 38 238 -54 332 -58 60 -81 72 -257 142 -85 34 -162 68
-169 76 -8 7 -15 29 -15 49 0 114 204 143 326 45 64 -52 145 -35 168 36 43
129 -242 264 -445 211z"/>
<path d="M1484 3076 c-46 -46 -46 -86 0 -132 34 -34 35 -34 125 -34 l91 0 0
-410 c0 -440 1 -450 51 -476 45 -23 78 -17 115 20 l34 34 0 416 0 416 90 0
c85 0 91 2 122 29 27 24 33 36 33 71 0 35 -6 47 -33 71 l-32 29 -281 0 -281 0
-34 -34z"/>
<path d="M2465 3100 c-11 -4 -29 -18 -41 -31 -30 -34 -364 -917 -364 -963 0
-28 7 -45 30 -68 27 -27 36 -30 72 -25 55 7 72 28 111 128 l33 84 204 0 204 0
33 -85 c39 -100 56 -120 111 -127 36 -5 45 -2 72 25 23 23 30 40 30 68 0 30
-217 626 -336 925 -26 63 -98 95 -159 69z m109 -500 c31 -83 56 -155 56 -160
0 -6 -49 -10 -120 -10 -66 0 -120 3 -120 8 0 15 115 312 121 312 4 0 32 -68
63 -150z"/>
<path d="M3144 3101 c-55 -24 -54 -16 -54 -543 l0 -487 23 -26 c14 -17 36 -28
63 -32 36 -5 46 -1 75 25 l34 30 5 161 5 160 145 -166 c184 -209 192 -217 244
-210 53 7 86 44 86 97 0 42 1 40 -159 222 -51 58 -93 110 -93 114 0 5 17 14
37 21 52 18 119 69 153 116 122 171 58 405 -135 495 -55 25 -67 27 -233 29
-96 2 -185 -1 -196 -6z m339 -205 c88 -36 115 -134 56 -200 -37 -43 -79 -56
-176 -56 l-73 0 0 135 0 135 80 0 c46 0 95 -6 113 -14z"/>
<path d="M3901 3096 c-47 -26 -63 -84 -37 -135 21 -39 56 -51 151 -51 l85 0 0
-416 c0 -266 4 -422 10 -435 13 -24 61 -49 94 -49 14 0 40 13 58 29 l33 29 3
421 3 421 89 0 c85 0 91 2 122 29 27 24 33 36 33 71 0 35 -6 47 -33 71 l-32
29 -278 0 c-211 -1 -283 -4 -301 -14z"/>
</g>
</svg>
