<?xml version="1.0" standalone="no"?>
<!DOCTYPE svg PUBLIC "-//W3C//DTD SVG 20010904//EN"
 "http://www.w3.org/TR/2001/REC-SVG-20010904/DTD/svg10.dtd">
<svg version="1.0" xmlns="http://www.w3.org/2000/svg"
 width="512.000000pt" height="512.000000pt" viewBox="0 0 512.000000 512.000000"
 preserveAspectRatio="xMidYMid meet">

<g transform="translate(0.000000,512.000000) scale(0.100000,-0.100000)"
fill="#eee" stroke="none">
<path d="M2321 5110 c-1340 -130 -2361 -1283 -2318 -2620 13 -389 97 -726 268
-1069 249 -502 647 -900 1150 -1150 815 -406 1779 -350 2539 147 297 194 579
482 771 788 74 116 184 342 234 478 51 138 110 376 131 531 23 157 26 521 6
660 -43 299 -120 554 -246 810 -378 768 -1090 1285 -1941 1411 -122 18 -466
26 -594 14z m564 -990 c642 -137 1107 -607 1246 -1260 30 -140 33 -427 6 -565
-125 -635 -583 -1134 -1181 -1285 -905 -229 -1790 348 -1973 1285 -27 138 -24
426 6 565 147 692 672 1186 1361 1280 115 16 422 4 535 -20z"/>
<path d="M1977 3736 c-261 -134 -493 -372 -612 -628 -42 -91 -44 -122 -11
-143 43 -28 67 -8 119 100 123 253 321 452 577 580 41 21 78 43 82 49 15 22 8
65 -11 76 -32 17 -54 12 -144 -34z"/>
<path d="M2113 3489 c-214 -113 -378 -278 -488 -495 -25 -48 -45 -97 -45 -109
0 -40 53 -69 86 -47 6 4 28 41 49 82 106 213 264 373 470 477 39 20 73 41 77
47 13 19 9 54 -8 70 -24 25 -57 19 -141 -25z"/>
<path d="M2500 3184 c-97 -16 -145 -31 -219 -66 -153 -73 -283 -231 -325 -393
-58 -227 0 -444 163 -605 129 -128 263 -184 441 -184 179 0 313 56 440 183
196 197 241 473 119 721 -75 153 -233 283 -394 324 -65 16 -184 27 -225 20z
m189 -129 c178 -47 330 -201 370 -375 17 -75 13 -201 -9 -272 -48 -158 -181
-290 -339 -338 -79 -25 -215 -27 -292 -4 -268 79 -423 359 -351 635 68 258
359 424 621 354z"/>
<path d="M2456 2820 c-192 -75 -237 -326 -84 -466 62 -57 120 -77 205 -72 79
5 132 27 183 78 59 59 75 103 75 200 0 102 -20 146 -90 208 -81 71 -190 91
-289 52z m161 -101 c38 -14 83 -57 99 -96 61 -141 -97 -284 -235 -213 -95 48
-119 176 -48 257 51 58 118 77 184 52z"/>
<path d="M3448 2273 c-8 -10 -36 -59 -61 -108 -58 -112 -155 -234 -244 -307
-72 -60 -209 -148 -229 -148 -25 0 -64 -42 -64 -69 0 -63 43 -66 153 -11 152
76 285 187 384 318 65 87 153 251 153 286 0 47 -62 73 -92 39z"/>
<path d="M3704 2152 c-6 -4 -31 -48 -56 -98 -124 -251 -316 -449 -546 -564
-108 -55 -122 -66 -122 -100 0 -61 50 -65 153 -14 266 133 492 364 621 634 38
79 42 100 26 131 -11 19 -54 26 -76 11z"/>
</g>
</svg>
