<svg id="svg" version="1.1" xmlns="http://www.w3.org/2000/svg" xmlns:xlink="http://www.w3.org/1999/xlink" width="400" height="400" viewBox="0, 0, 400,400"><g id="svgg"><path id="path0" d="M314.081 114.232 C 302.581 116.750,293.720 125.681,291.490 137.000 C 291.273 138.100,291.021 143.815,290.929 149.700 L 290.763 160.400 265.182 160.400 L 239.600 160.400 239.600 182.200 C 239.600 194.190,239.736 204.000,239.902 204.000 C 240.069 204.000,240.459 204.585,240.771 205.300 C 242.578 209.449,246.111 211.200,252.675 211.200 C 255.692 211.200,257.600 211.355,257.600 211.600 C 257.600 211.831,258.867 212.000,260.600 212.000 C 262.333 212.000,263.600 212.169,263.600 212.400 C 263.600 212.620,264.140 212.800,264.800 212.800 C 265.460 212.800,266.000 212.980,266.000 213.200 C 266.000 213.420,266.540 213.600,267.200 213.600 C 267.860 213.600,268.400 213.780,268.400 214.000 C 268.400 214.220,268.760 214.400,269.200 214.400 C 269.640 214.400,270.000 214.580,270.000 214.800 C 270.000 215.020,270.360 215.200,270.800 215.200 C 271.240 215.200,271.600 215.350,271.600 215.532 C 271.600 215.715,272.089 216.120,272.688 216.432 C 273.982 217.108,275.553 218.437,277.543 220.540 C 280.127 223.270,280.590 223.830,281.168 224.925 C 281.480 225.516,281.885 226.000,282.068 226.000 C 282.250 226.000,282.400 226.360,282.400 226.800 C 282.400 227.240,282.580 227.600,282.800 227.600 C 283.020 227.600,283.200 227.960,283.200 228.400 C 283.200 228.840,283.380 229.200,283.600 229.200 C 283.820 229.200,284.000 229.740,284.000 230.400 C 284.000 231.060,284.180 231.600,284.400 231.600 C 284.620 231.600,284.800 232.140,284.800 232.800 C 284.800 233.460,284.980 234.000,285.200 234.000 C 285.449 234.000,285.600 236.333,285.600 240.200 C 285.600 244.067,285.449 246.400,285.200 246.400 C 284.980 246.400,284.800 246.940,284.800 247.600 C 284.800 248.260,284.620 248.800,284.400 248.800 C 284.180 248.800,284.000 249.340,284.000 250.000 C 284.000 250.660,283.820 251.200,283.600 251.200 C 283.380 251.200,283.200 251.560,283.200 252.000 C 283.200 252.440,283.020 252.800,282.800 252.800 C 282.580 252.800,282.400 253.160,282.400 253.600 C 282.400 254.040,282.249 254.400,282.064 254.400 C 281.880 254.400,281.530 254.836,281.287 255.368 C 280.331 257.466,275.077 262.721,272.688 263.968 C 272.089 264.280,271.600 264.685,271.600 264.868 C 271.600 265.050,271.240 265.200,270.800 265.200 C 270.360 265.200,270.000 265.380,270.000 265.600 C 270.000 265.820,269.655 266.000,269.233 266.000 C 268.812 266.000,268.407 266.178,268.333 266.397 C 268.260 266.615,267.705 266.834,267.100 266.884 C 266.495 266.934,266.000 267.115,266.000 267.287 C 266.000 267.459,265.460 267.600,264.800 267.600 C 264.140 267.600,263.600 267.780,263.600 268.000 C 263.600 268.231,262.333 268.400,260.600 268.400 C 258.867 268.400,257.600 268.569,257.600 268.800 C 257.600 269.047,255.533 269.200,252.200 269.200 C 248.867 269.200,246.800 269.353,246.800 269.600 C 246.800 269.820,246.485 270.005,246.100 270.011 C 245.336 270.024,242.000 272.811,242.000 273.437 C 242.000 273.649,241.640 274.083,241.200 274.400 C 240.760 274.717,240.400 275.297,240.400 275.688 C 240.400 276.080,240.220 276.400,240.000 276.400 C 239.051 276.400,239.503 312.542,240.474 314.362 C 240.955 315.263,241.495 316.000,241.674 316.000 C 241.853 316.000,242.000 316.206,242.000 316.457 C 242.000 317.011,244.231 319.200,244.796 319.200 C 245.018 319.200,245.200 319.336,245.200 319.503 C 245.200 320.732,248.444 320.800,306.794 320.800 C 345.465 320.800,365.200 320.665,365.200 320.400 C 365.200 320.180,365.909 320.000,366.776 320.000 C 367.643 320.000,368.464 319.820,368.600 319.600 C 368.736 319.380,369.366 319.200,370.000 319.200 C 370.634 319.200,371.264 319.020,371.400 318.800 C 371.536 318.580,372.087 318.400,372.624 318.400 C 373.161 318.400,373.600 318.220,373.600 318.000 C 373.600 317.780,373.960 317.600,374.400 317.600 C 374.840 317.600,375.200 317.420,375.200 317.200 C 375.200 316.980,375.560 316.800,376.000 316.800 C 376.440 316.800,376.800 316.620,376.800 316.400 C 376.800 316.180,377.160 316.000,377.600 316.000 C 378.040 316.000,378.400 315.820,378.400 315.600 C 378.400 315.380,378.760 315.200,379.200 315.200 C 379.640 315.200,380.000 315.050,380.000 314.868 C 380.000 314.685,380.495 314.281,381.100 313.970 C 381.705 313.660,382.491 313.089,382.847 312.703 C 383.203 312.316,383.691 312.000,383.932 312.000 C 384.554 312.000,391.600 305.020,391.600 304.404 C 391.600 304.123,391.915 303.602,392.300 303.246 C 393.096 302.509,394.341 300.542,394.671 299.500 C 394.793 299.115,395.052 298.800,395.247 298.800 C 395.441 298.800,395.600 298.440,395.600 298.000 C 395.600 297.560,395.780 297.200,396.000 297.200 C 396.220 297.200,396.400 296.840,396.400 296.400 C 396.400 295.960,396.580 295.600,396.800 295.600 C 397.020 295.600,397.200 295.240,397.200 294.800 C 397.200 294.360,397.380 294.000,397.600 294.000 C 397.820 294.000,398.000 293.460,398.000 292.800 C 398.000 292.140,398.180 291.600,398.400 291.600 C 398.620 291.600,398.800 291.075,398.800 290.433 C 398.800 289.792,399.025 289.192,399.300 289.100 C 399.697 288.968,399.823 275.646,399.909 224.667 L 400.019 160.400 374.609 160.400 L 349.200 160.400 349.193 151.300 C 349.187 142.958,348.827 138.661,347.779 134.400 C 347.305 132.471,345.301 128.112,344.502 127.271 C 344.226 126.981,344.000 126.576,344.000 126.373 C 344.000 125.538,338.399 120.142,335.683 118.359 C 329.302 114.172,321.320 112.647,314.081 114.232 " stroke="none" fill="#2cbceb" fill-rule="evenodd"></path><path id="path1" d="M6.800 240.000 C 6.800 240.220,6.524 240.400,6.186 240.400 C 4.640 240.400,0.488 244.928,0.200 246.928 C -0.312 250.490,0.171 368.331,0.700 368.860 C 0.975 369.135,1.200 369.864,1.200 370.480 C 1.200 371.096,1.380 371.600,1.600 371.600 C 1.820 371.600,2.000 372.050,2.000 372.600 C 2.000 373.150,2.180 373.600,2.400 373.600 C 2.620 373.600,2.800 373.960,2.800 374.400 C 2.800 374.840,2.980 375.200,3.200 375.200 C 3.420 375.200,3.600 375.560,3.600 376.000 C 3.600 376.440,3.780 376.800,4.000 376.800 C 4.220 376.800,4.400 377.160,4.400 377.600 C 4.400 378.040,4.580 378.400,4.800 378.400 C 5.020 378.400,5.200 378.760,5.200 379.200 C 5.200 379.640,5.350 380.000,5.532 380.000 C 5.715 380.000,6.119 380.495,6.430 381.100 C 6.740 381.705,7.267 382.470,7.600 382.800 C 7.933 383.130,8.462 383.899,8.775 384.509 C 9.526 385.971,14.711 391.118,15.770 391.452 C 16.226 391.597,16.891 392.049,17.247 392.457 C 17.603 392.866,18.148 393.200,18.459 393.200 C 18.769 393.200,19.283 393.560,19.600 394.000 C 19.917 394.440,20.497 394.800,20.888 394.800 C 21.280 394.800,21.600 394.980,21.600 395.200 C 21.600 395.420,21.960 395.600,22.400 395.600 C 22.840 395.600,23.200 395.780,23.200 396.000 C 23.200 396.220,23.560 396.400,24.000 396.400 C 24.440 396.400,24.800 396.580,24.800 396.800 C 24.800 397.020,25.160 397.200,25.600 397.200 C 26.040 397.200,26.400 397.380,26.400 397.600 C 26.400 397.820,26.850 398.000,27.400 398.000 C 27.950 398.000,28.400 398.180,28.400 398.400 C 28.400 398.620,28.904 398.800,29.520 398.800 C 30.136 398.800,30.865 399.025,31.140 399.300 C 31.671 399.831,149.516 400.311,153.090 399.797 C 155.171 399.498,159.600 395.445,159.600 393.840 C 159.600 393.514,159.780 393.136,160.000 393.000 C 160.259 392.840,160.400 385.129,160.400 371.176 L 160.400 349.600 172.600 349.600 C 180.467 349.600,184.800 349.458,184.800 349.200 C 184.800 348.980,185.342 348.800,186.005 348.800 C 186.668 348.800,187.568 348.620,188.005 348.400 C 188.442 348.180,189.158 347.820,189.595 347.600 C 190.032 347.380,190.579 347.200,190.811 347.200 C 191.043 347.200,191.620 346.840,192.092 346.400 C 192.564 345.960,193.187 345.600,193.475 345.600 C 193.764 345.600,194.000 345.420,194.000 345.200 C 194.000 344.980,194.275 344.800,194.611 344.800 C 194.946 344.800,196.018 344.035,196.992 343.100 C 197.967 342.165,199.484 340.770,200.363 340.000 C 201.243 339.230,201.971 338.375,201.982 338.100 C 201.992 337.825,202.180 337.600,202.400 337.600 C 202.620 337.600,202.800 337.345,202.800 337.033 C 202.800 336.722,202.945 336.407,203.121 336.333 C 203.427 336.207,205.398 332.272,206.353 329.881 C 206.599 329.266,206.800 328.331,206.800 327.805 C 206.800 327.278,206.980 326.736,207.200 326.600 C 207.440 326.451,207.600 323.737,207.600 319.800 C 207.600 315.863,207.440 313.149,207.200 313.000 C 206.980 312.864,206.800 312.259,206.800 311.656 C 206.800 311.053,206.657 310.389,206.482 310.180 C 206.307 309.971,205.922 309.080,205.627 308.200 C 205.333 307.320,204.756 306.122,204.346 305.538 C 203.936 304.954,203.600 304.279,203.600 304.038 C 203.600 303.797,203.420 303.600,203.200 303.600 C 202.980 303.600,202.800 303.337,202.800 303.015 C 202.800 302.253,195.347 294.800,194.585 294.800 C 194.263 294.800,193.997 294.665,193.993 294.500 C 193.990 294.335,192.865 293.680,191.493 293.044 C 190.122 292.408,188.687 291.733,188.305 291.544 C 187.923 291.355,186.978 291.200,186.205 291.200 C 185.432 291.200,184.800 291.020,184.800 290.800 C 184.800 290.542,180.467 290.400,172.600 290.400 L 160.400 290.400 160.400 268.600 C 160.400 254.333,160.262 246.800,160.000 246.800 C 159.780 246.800,159.600 246.425,159.600 245.966 C 159.600 244.898,155.073 240.400,153.997 240.400 C 153.559 240.400,153.200 240.220,153.200 240.000 C 153.200 239.739,146.808 239.600,134.824 239.600 C 123.004 239.600,116.359 239.743,116.200 240.000 C 116.064 240.220,115.687 240.400,115.362 240.400 C 114.259 240.400,110.754 243.847,109.789 245.881 C 108.955 247.637,108.910 248.045,108.571 256.900 C 108.430 260.585,108.154 263.600,107.957 263.600 C 107.761 263.600,107.600 264.140,107.600 264.800 C 107.600 265.460,107.420 266.000,107.200 266.000 C 106.980 266.000,106.800 266.540,106.800 267.200 C 106.800 267.860,106.620 268.400,106.400 268.400 C 106.180 268.400,106.000 268.760,106.000 269.200 C 106.000 269.640,105.820 270.000,105.600 270.000 C 105.380 270.000,105.200 270.360,105.200 270.800 C 105.200 271.240,105.050 271.600,104.868 271.600 C 104.685 271.600,104.280 272.095,103.968 272.700 C 103.655 273.305,102.905 274.277,102.300 274.860 C 101.695 275.444,101.200 276.037,101.200 276.179 C 101.200 276.564,99.584 278.088,98.000 279.198 C 97.230 279.737,96.251 280.498,95.825 280.889 C 95.398 281.280,94.813 281.600,94.525 281.600 C 94.236 281.600,94.000 281.746,94.000 281.925 C 94.000 282.104,93.370 282.498,92.600 282.800 C 91.830 283.102,91.200 283.496,91.200 283.675 C 91.200 283.854,90.660 284.000,90.000 284.000 C 89.340 284.000,88.800 284.180,88.800 284.400 C 88.800 284.620,88.260 284.800,87.600 284.800 C 86.940 284.800,86.400 284.980,86.400 285.200 C 86.400 285.449,84.075 285.600,80.224 285.600 C 76.537 285.600,73.948 285.439,73.800 285.200 C 73.664 284.980,73.124 284.800,72.600 284.800 C 72.076 284.800,71.536 284.620,71.400 284.400 C 71.264 284.180,70.713 284.000,70.176 284.000 C 69.639 284.000,69.200 283.820,69.200 283.600 C 69.200 283.380,68.840 283.200,68.400 283.200 C 67.960 283.200,67.600 283.020,67.600 282.800 C 67.600 282.580,67.240 282.400,66.800 282.400 C 66.360 282.400,66.000 282.232,66.000 282.027 C 66.000 281.822,65.649 281.543,65.220 281.406 C 64.792 281.270,63.873 280.628,63.178 279.980 C 62.484 279.331,61.799 278.797,61.658 278.794 C 61.292 278.785,58.800 276.549,58.800 276.230 C 58.800 276.085,58.617 275.749,58.393 275.483 C 56.821 273.619,56.396 273.016,56.185 272.352 C 56.054 271.939,55.778 271.600,55.573 271.600 C 55.368 271.600,55.200 271.240,55.200 270.800 C 55.200 270.360,55.020 270.000,54.800 270.000 C 54.580 270.000,54.400 269.640,54.400 269.200 C 54.400 268.760,54.220 268.400,54.000 268.400 C 53.780 268.400,53.600 267.961,53.600 267.424 C 53.600 266.887,53.420 266.336,53.200 266.200 C 52.980 266.064,52.800 265.423,52.800 264.776 C 52.800 264.129,52.634 263.600,52.430 263.600 C 52.040 263.600,51.714 260.113,51.365 252.200 C 51.249 249.560,50.984 247.229,50.777 247.020 C 50.569 246.811,50.399 246.361,50.399 246.020 C 50.397 245.257,47.675 242.000,47.038 242.000 C 46.784 242.000,46.317 241.640,46.000 241.200 C 45.683 240.760,45.103 240.400,44.712 240.400 C 44.320 240.400,44.000 240.220,44.000 240.000 C 44.000 239.739,37.533 239.600,25.400 239.600 C 13.267 239.600,6.800 239.739,6.800 240.000 " stroke="none" fill="#fc647c" fill-rule="evenodd"></path><path id="path2" d="M240.000 25.389 L 240.000 50.800 231.700 50.801 C 223.559 50.802,217.581 51.245,214.800 52.053 C 193.073 58.365,186.020 84.753,201.834 100.566 C 208.676 107.409,213.293 108.850,229.100 109.079 L 240.000 109.236 240.000 134.618 L 240.000 160.000 265.200 160.000 L 290.400 160.000 290.406 149.500 C 290.411 140.527,290.523 138.564,291.171 136.000 C 291.985 132.778,294.331 127.200,294.871 127.200 C 295.052 127.200,295.200 126.968,295.200 126.686 C 295.200 126.403,295.915 125.368,296.789 124.386 C 297.662 123.403,298.382 122.491,298.389 122.357 C 298.449 121.065,307.507 115.471,311.200 114.446 C 312.190 114.171,313.553 113.778,314.228 113.573 C 315.911 113.062,323.734 113.102,325.754 113.632 C 329.748 114.679,330.782 115.055,333.800 116.558 C 338.190 118.745,343.479 124.021,345.873 128.600 C 348.974 134.534,349.287 136.285,349.498 148.900 L 349.683 160.000 374.852 160.000 L 400.021 160.000 399.911 95.820 C 399.823 45.128,399.695 31.535,399.300 31.140 C 399.025 30.865,398.800 30.136,398.800 29.520 C 398.800 28.904,398.620 28.400,398.400 28.400 C 398.180 28.400,398.000 28.051,398.000 27.624 C 398.000 27.197,397.820 26.736,397.600 26.600 C 397.380 26.464,397.200 26.003,397.200 25.576 C 397.200 25.149,397.020 24.800,396.800 24.800 C 396.580 24.800,396.400 24.440,396.400 24.000 C 396.400 23.560,396.220 23.200,396.000 23.200 C 395.780 23.200,395.600 22.840,395.600 22.400 C 395.600 21.960,395.420 21.600,395.200 21.600 C 394.980 21.600,394.800 21.240,394.800 20.800 C 394.800 20.360,394.650 20.000,394.468 20.000 C 394.285 20.000,393.881 19.505,393.570 18.900 C 393.260 18.295,392.716 17.530,392.362 17.200 C 392.008 16.870,391.440 16.060,391.100 15.400 C 390.301 13.850,386.150 9.699,384.600 8.900 C 383.940 8.560,383.130 7.992,382.800 7.638 C 382.470 7.284,381.705 6.740,381.100 6.430 C 380.495 6.119,380.000 5.715,380.000 5.532 C 380.000 5.350,379.640 5.200,379.200 5.200 C 378.760 5.200,378.400 5.020,378.400 4.800 C 378.400 4.580,378.040 4.400,377.600 4.400 C 377.160 4.400,376.800 4.220,376.800 4.000 C 376.800 3.780,376.440 3.600,376.000 3.600 C 375.560 3.600,375.200 3.420,375.200 3.200 C 375.200 2.980,374.840 2.800,374.400 2.800 C 373.960 2.800,373.600 2.620,373.600 2.400 C 373.600 2.180,373.150 2.000,372.600 2.000 C 372.050 2.000,371.600 1.820,371.600 1.600 C 371.600 1.380,370.985 1.200,370.233 1.200 C 369.482 1.200,368.792 0.975,368.700 0.700 C 368.568 0.303,355.246 0.177,304.267 0.089 L 240.000 -0.021 240.000 25.389 " stroke="none" fill="#fbb354" fill-rule="evenodd"></path><path id="path3" d="M112.500 0.293 C 111.565 0.377,110.800 0.616,110.800 0.823 C 110.800 1.030,110.260 1.200,109.600 1.200 C 108.940 1.200,108.400 1.380,108.400 1.600 C 108.400 1.820,107.961 2.000,107.424 2.000 C 106.887 2.000,106.336 2.180,106.200 2.400 C 106.064 2.620,105.603 2.800,105.176 2.800 C 104.749 2.800,104.400 2.980,104.400 3.200 C 104.400 3.420,104.040 3.600,103.600 3.600 C 103.160 3.600,102.800 3.780,102.800 4.000 C 102.800 4.220,102.440 4.400,102.000 4.400 C 101.560 4.400,101.200 4.580,101.200 4.800 C 101.200 5.020,100.880 5.200,100.488 5.200 C 100.097 5.200,99.517 5.560,99.200 6.000 C 98.883 6.440,98.343 6.800,98.000 6.800 C 97.657 6.800,97.117 7.160,96.800 7.600 C 96.483 8.040,95.998 8.400,95.723 8.400 C 95.106 8.400,88.800 14.562,88.800 15.164 C 88.800 15.404,88.620 15.600,88.400 15.600 C 88.180 15.600,88.000 15.830,88.000 16.112 C 88.000 16.393,87.640 16.883,87.200 17.200 C 86.760 17.517,86.400 18.057,86.400 18.400 C 86.400 18.743,86.040 19.283,85.600 19.600 C 85.160 19.917,84.800 20.497,84.800 20.888 C 84.800 21.280,84.620 21.600,84.400 21.600 C 84.180 21.600,84.000 21.960,84.000 22.400 C 84.000 22.840,83.820 23.200,83.600 23.200 C 83.380 23.200,83.200 23.560,83.200 24.000 C 83.200 24.440,83.020 24.800,82.800 24.800 C 82.580 24.800,82.400 25.160,82.400 25.600 C 82.400 26.040,82.220 26.400,82.000 26.400 C 81.780 26.400,81.600 26.839,81.600 27.376 C 81.600 27.913,81.420 28.464,81.200 28.600 C 80.980 28.736,80.800 29.377,80.800 30.024 C 80.800 30.671,80.620 31.200,80.400 31.200 C 80.180 31.200,80.000 31.909,80.000 32.776 C 80.000 33.643,79.820 34.464,79.600 34.600 C 79.047 34.942,79.047 152.658,79.600 153.000 C 79.820 153.136,80.000 153.597,80.000 154.024 C 80.000 154.451,80.180 154.800,80.400 154.800 C 80.620 154.800,80.800 154.998,80.800 155.240 C 80.800 155.960,83.261 158.192,85.314 159.335 L 87.228 160.400 108.614 160.400 L 130.000 160.400 130.000 172.376 C 130.000 179.929,130.148 184.444,130.400 184.600 C 130.620 184.736,130.803 185.242,130.806 185.724 C 130.813 186.681,131.687 189.420,132.126 189.859 C 132.277 190.010,132.400 190.463,132.400 190.867 C 132.400 191.270,132.558 191.600,132.751 191.600 C 132.945 191.600,133.327 192.140,133.600 192.800 C 133.873 193.460,134.255 194.000,134.449 194.000 C 134.642 194.000,134.800 194.277,134.800 194.615 C 134.800 195.586,141.737 202.210,144.291 203.679 C 147.930 205.772,150.403 206.800,151.795 206.800 C 152.322 206.800,152.864 206.980,153.000 207.200 C 153.332 207.737,166.268 207.737,166.600 207.200 C 166.736 206.980,167.229 206.800,167.695 206.800 C 168.860 206.800,171.086 205.999,173.000 204.891 C 173.880 204.382,174.915 203.862,175.300 203.736 C 175.685 203.610,176.000 203.348,176.000 203.153 C 176.000 202.959,176.263 202.800,176.585 202.800 C 177.327 202.800,184.800 195.357,184.800 194.618 C 184.800 194.315,184.957 194.007,185.149 193.933 C 185.982 193.615,188.783 187.306,188.794 185.724 C 188.797 185.242,188.980 184.736,189.200 184.600 C 189.452 184.444,189.600 179.929,189.600 172.376 L 189.600 160.400 214.600 160.400 L 239.600 160.400 239.600 135.000 L 239.600 109.600 229.206 109.600 C 222.731 109.600,218.093 109.426,216.906 109.139 C 213.897 108.412,210.339 107.154,208.807 106.276 C 208.033 105.832,206.860 105.195,206.200 104.860 C 204.644 104.070,198.330 97.756,197.540 96.200 C 197.205 95.540,196.568 94.367,196.124 93.593 C 192.091 86.555,191.733 76.369,195.243 68.504 C 195.659 67.572,196.000 66.707,196.000 66.582 C 196.000 64.998,202.454 57.896,206.073 55.499 C 212.179 51.453,215.325 50.800,228.692 50.800 L 239.600 50.800 239.600 25.400 L 239.600 0.000 176.900 0.070 C 142.415 0.108,113.435 0.209,112.500 0.293 " stroke="none" fill="#04ec8c" fill-rule="evenodd"></path><path id="path4" d="M239.788 25.400 C 239.788 39.480,239.839 45.182,239.900 38.071 C 239.961 30.960,239.961 19.440,239.900 12.471 C 239.838 5.502,239.788 11.320,239.788 25.400 M214.400 51.752 C 208.783 53.454,205.419 55.408,201.580 59.200 C 199.642 61.114,196.000 65.932,196.000 66.582 C 196.000 66.707,195.659 67.572,195.243 68.504 C 193.564 72.268,192.800 75.954,192.800 80.294 C 192.800 84.643,194.196 90.228,196.124 93.593 C 196.568 94.367,197.205 95.540,197.540 96.200 C 198.330 97.756,204.644 104.070,206.200 104.860 C 206.860 105.195,208.033 105.832,208.807 106.276 C 210.339 107.154,213.897 108.412,216.906 109.139 C 218.093 109.426,222.731 109.600,229.206 109.600 L 239.600 109.600 239.600 135.000 L 239.600 160.400 265.182 160.400 L 290.763 160.400 290.929 149.700 C 291.021 143.815,291.273 138.100,291.490 137.000 C 295.438 116.965,318.644 107.177,335.683 118.359 C 338.399 120.142,344.000 125.538,344.000 126.373 C 344.000 126.576,344.226 126.981,344.502 127.271 C 345.301 128.112,347.305 132.471,347.779 134.400 C 348.827 138.661,349.187 142.958,349.193 151.300 L 349.200 160.400 374.700 160.303 L 400.200 160.206 374.941 160.100 L 349.683 159.994 349.498 148.897 C 349.287 136.285,348.974 134.534,345.873 128.600 C 343.479 124.021,338.190 118.745,333.800 116.558 C 330.782 115.055,329.748 114.679,325.754 113.632 C 323.734 113.102,315.911 113.062,314.228 113.573 C 313.553 113.778,312.190 114.171,311.200 114.446 C 307.507 115.471,298.449 121.065,298.389 122.357 C 298.382 122.491,297.662 123.403,296.789 124.386 C 295.915 125.368,295.200 126.403,295.200 126.686 C 295.200 126.968,295.052 127.200,294.871 127.200 C 294.331 127.200,291.985 132.778,291.171 136.000 C 290.523 138.564,290.411 140.527,290.406 149.500 L 290.400 160.000 265.200 160.000 L 240.000 160.000 240.000 134.618 L 240.000 109.236 229.100 109.079 C 213.293 108.850,208.676 107.409,201.834 100.566 C 184.748 83.481,194.497 54.897,218.600 51.406 C 222.139 50.894,222.160 50.885,219.800 50.864 C 218.393 50.852,216.159 51.219,214.400 51.752 " stroke="none" fill="#89c294" fill-rule="evenodd"></path></g></svg>