<svg id="svg" version="1.1" xmlns="http://www.w3.org/2000/svg" xmlns:xlink="http://www.w3.org/1999/xlink" width="400" height="400" viewBox="0, 0, 400,400"><g id="svgg"><path id="path0" d="M196.175 75.547 C 192.823 76.691,190.406 78.788,188.736 82.000 L 187.800 83.800 187.693 118.274 L 187.587 152.748 188.529 154.878 C 192.965 164.907,207.027 164.927,211.457 154.910 L 212.400 152.777 212.400 118.689 L 212.399 84.600 211.262 82.200 C 208.481 76.331,202.110 73.521,196.175 75.547 M269.200 75.379 C 250.859 78.829,237.620 93.875,237.604 111.289 C 237.587 128.567,260.848 130.089,262.427 112.913 C 263.834 97.608,282.480 95.080,287.160 109.560 C 288.916 114.992,285.703 120.911,279.200 124.226 C 271.042 128.385,265.743 134.394,263.704 141.800 C 262.556 145.970,262.400 146.869,262.400 149.331 C 262.400 161.196,276.434 166.953,284.227 158.286 C 286.144 156.154,287.600 152.775,287.600 150.460 C 287.600 148.628,288.518 147.539,290.982 146.449 C 312.114 137.102,319.142 108.497,304.946 89.613 C 296.911 78.924,281.973 72.976,269.200 75.379 M91.195 175.343 C 87.111 176.222,83.555 179.335,82.054 183.347 C 80.739 186.862,80.710 250.659,82.022 254.166 C 85.723 264.059,99.396 265.292,104.581 256.200 C 106.436 252.946,106.439 252.884,106.316 217.800 L 106.200 184.600 105.080 182.319 C 102.478 177.021,96.757 174.147,91.195 175.343 M147.742 175.239 C 143.661 175.989,140.304 178.708,138.543 182.690 L 137.600 184.823 137.600 218.596 C 137.600 256.942,137.421 254.800,140.927 258.459 C 147.173 264.978,157.809 263.157,161.439 254.949 C 162.400 252.777,162.400 252.777,162.400 237.179 L 162.400 221.580 161.320 221.170 C 159.346 220.419,154.323 214.853,152.685 211.600 C 150.082 206.432,150.010 205.848,150.005 189.724 C 150.002 181.762,149.865 175.177,149.700 175.091 C 149.535 175.005,148.654 175.072,147.742 175.239 M196.175 175.547 C 182.433 180.238,186.394 200.877,200.856 199.933 C 209.562 199.364,215.003 190.094,211.262 182.200 C 208.481 176.331,202.110 173.521,196.175 175.547 M271.800 175.336 C 264.964 177.600,260.598 185.087,262.851 190.681 C 266.683 200.199,276.229 203.029,283.352 196.759 C 292.982 188.282,283.849 171.344,271.800 175.336 M187.600 238.785 C 187.600 254.338,187.733 255.126,190.927 258.459 C 197.173 264.978,207.809 263.157,211.439 254.949 C 212.393 252.793,212.400 252.676,212.400 238.989 L 212.400 225.200 200.000 225.200 L 187.600 225.200 187.600 238.785 M91.195 275.343 C 81.526 277.423,78.002 289.254,84.974 296.226 C 91.998 303.250,103.238 300.066,105.979 290.276 C 108.302 281.979,99.883 273.475,91.195 275.343 M147.742 275.212 C 137.966 277.171,134.251 288.935,141.134 296.133 C 148.974 304.332,162.400 298.687,162.400 287.193 C 162.400 279.775,155.029 273.750,147.742 275.212 M197.742 275.212 C 187.966 277.171,184.251 288.935,191.134 296.133 C 198.974 304.332,212.400 298.687,212.400 287.193 C 212.400 279.775,205.029 273.750,197.742 275.212 " stroke="none" fill="#f6d482" fill-rule="evenodd"></path><path id="path1" d="M68.800 150.000 C 68.800 150.220,68.260 150.400,67.600 150.400 C 66.940 150.400,66.400 150.580,66.400 150.800 C 66.400 151.020,65.950 151.200,65.400 151.200 C 64.850 151.200,64.400 151.380,64.400 151.600 C 64.400 151.820,63.950 152.000,63.400 152.000 C 62.850 152.000,62.400 152.147,62.400 152.326 C 62.400 152.506,61.724 153.033,60.897 153.498 C 60.070 153.962,58.964 154.800,58.439 155.359 C 57.913 155.918,57.325 156.278,57.132 156.158 C 56.938 156.038,56.806 156.089,56.837 156.270 C 57.018 157.311,56.788 157.800,56.400 157.200 C 56.061 156.675,56.011 156.680,56.006 157.238 C 56.003 157.589,55.632 158.209,55.181 158.617 C 54.731 159.025,53.978 160.042,53.508 160.879 C 53.037 161.716,52.506 162.400,52.326 162.400 C 52.147 162.400,52.000 162.760,52.000 163.200 C 52.000 163.640,51.820 164.000,51.600 164.000 C 51.380 164.000,51.200 164.540,51.200 165.200 C 51.200 165.860,51.020 166.400,50.800 166.400 C 50.580 166.400,50.400 166.940,50.400 167.600 C 50.400 168.260,50.220 168.800,50.000 168.800 C 49.735 168.800,49.600 198.734,49.600 257.802 L 49.600 346.805 51.424 348.602 L 53.247 350.400 56.250 350.400 L 59.252 350.400 61.426 348.226 C 62.622 347.030,63.600 345.850,63.600 345.602 C 63.600 345.355,63.780 345.264,64.000 345.400 C 64.220 345.536,64.400 345.316,64.400 344.912 C 64.400 344.507,64.760 343.917,65.200 343.600 C 65.640 343.283,66.002 342.748,66.004 342.412 C 66.006 342.075,66.546 341.375,67.204 340.855 C 67.862 340.335,68.400 339.753,68.400 339.562 C 68.400 339.050,72.914 333.200,73.309 333.200 C 73.495 333.200,73.544 333.032,73.417 332.827 C 73.290 332.622,73.523 332.217,73.934 331.927 C 74.345 331.637,74.997 330.787,75.383 330.038 C 75.769 329.288,76.426 328.309,76.843 327.862 C 77.259 327.415,77.600 326.890,77.600 326.696 C 77.600 325.159,75.467 325.200,154.675 325.200 L 230.607 325.200 233.934 324.023 C 235.765 323.376,237.518 322.634,237.831 322.374 C 238.144 322.115,238.400 322.042,238.400 322.212 C 238.400 322.383,238.736 322.135,239.147 321.661 C 239.558 321.188,240.061 320.800,240.266 320.800 C 241.046 320.800,246.251 314.906,247.239 312.904 C 247.808 311.751,248.354 310.887,248.451 310.985 C 248.549 311.082,248.669 310.676,248.718 310.081 C 248.767 309.486,248.985 308.940,249.203 308.867 C 249.422 308.793,249.600 308.219,249.600 307.590 C 249.600 306.962,249.780 306.336,250.000 306.200 C 250.262 306.038,250.400 292.063,250.400 265.576 L 250.400 225.200 231.645 225.200 L 212.890 225.200 212.732 242.100 L 212.575 259.000 211.553 261.205 C 206.909 271.228,193.123 271.225,188.484 261.200 L 187.466 259.000 187.286 242.100 L 187.106 225.200 178.681 225.200 C 169.809 225.200,168.889 225.062,164.400 223.063 L 163.000 222.440 162.789 240.720 L 162.579 259.000 161.555 261.205 C 156.899 271.234,143.231 271.232,138.454 261.200 L 137.407 259.000 137.277 221.823 C 137.188 196.102,137.279 184.361,137.574 183.723 C 137.808 183.215,138.220 182.305,138.489 181.700 C 139.435 179.572,143.932 175.600,145.395 175.600 C 145.728 175.600,146.000 175.420,146.000 175.200 C 146.000 174.980,146.810 174.800,147.800 174.800 L 149.600 174.800 149.600 162.200 L 149.600 149.600 109.200 149.600 C 82.533 149.600,68.800 149.736,68.800 150.000 M97.905 175.153 C 98.287 175.348,99.130 175.753,99.778 176.053 C 101.586 176.893,104.522 179.986,105.511 182.096 L 106.400 183.991 106.400 221.181 C 106.400 263.267,106.596 260.647,103.159 264.552 C 96.950 271.605,86.199 269.705,82.049 260.821 L 81.011 258.600 81.006 221.400 L 81.000 184.200 82.122 181.914 C 83.264 179.590,85.763 177.030,87.848 176.049 C 88.481 175.751,89.270 175.359,89.600 175.177 C 90.412 174.731,97.037 174.711,97.905 175.153 M97.905 275.153 C 98.287 275.348,99.130 275.753,99.778 276.053 C 101.586 276.893,104.522 279.986,105.511 282.096 C 106.534 284.277,106.840 294.882,105.944 297.081 C 104.647 300.261,104.172 301.049,102.611 302.611 C 101.049 304.172,100.261 304.647,97.081 305.944 C 96.466 306.195,94.989 306.400,93.800 306.400 C 91.729 306.400,91.142 306.246,88.010 304.882 C 83.242 302.806,81.249 298.524,81.119 290.078 C 80.998 282.224,82.826 278.411,87.848 276.049 C 88.481 275.751,89.270 275.359,89.600 275.177 C 90.412 274.731,97.037 274.711,97.905 275.153 M154.000 275.200 C 154.000 275.420,154.272 275.600,154.605 275.600 C 155.835 275.600,158.645 277.666,160.400 279.861 C 160.945 280.542,161.225 281.077,162.510 283.880 C 163.176 285.332,162.489 296.527,161.608 298.582 C 157.399 308.402,143.574 308.873,138.822 299.359 C 137.511 296.734,136.606 285.557,137.553 283.695 C 137.748 283.313,138.148 282.460,138.442 281.800 C 139.432 279.583,143.898 275.600,145.395 275.600 C 145.728 275.600,146.000 275.420,146.000 275.200 C 146.000 274.960,147.600 274.800,150.000 274.800 C 152.400 274.800,154.000 274.960,154.000 275.200 M204.000 275.200 C 204.000 275.420,204.272 275.600,204.605 275.600 C 205.835 275.600,208.645 277.666,210.400 279.861 C 210.945 280.542,211.225 281.077,212.510 283.880 C 213.176 285.332,212.489 296.527,211.608 298.582 C 207.399 308.402,193.574 308.873,188.822 299.359 C 187.511 296.734,186.606 285.557,187.553 283.695 C 187.748 283.313,188.148 282.460,188.442 281.800 C 189.432 279.583,193.898 275.600,195.395 275.600 C 195.728 275.600,196.000 275.420,196.000 275.200 C 196.000 274.960,197.600 274.800,200.000 274.800 C 202.400 274.800,204.000 274.960,204.000 275.200 " stroke="none" fill="#04a3cb" fill-rule="evenodd"></path><path id="path2" d="M168.800 50.000 C 168.470 50.213,167.795 50.391,167.300 50.394 C 166.805 50.397,166.400 50.580,166.400 50.800 C 166.400 51.020,165.950 51.200,165.400 51.200 C 164.850 51.200,164.400 51.380,164.400 51.600 C 164.400 51.820,164.133 52.000,163.808 52.000 C 162.929 52.000,159.164 54.521,157.884 55.968 C 157.271 56.661,156.596 57.121,156.384 56.990 C 156.173 56.860,156.000 57.011,156.000 57.327 C 156.000 57.643,155.712 58.141,155.359 58.434 C 154.585 59.077,152.000 63.058,152.000 63.608 C 152.000 63.823,151.820 64.000,151.600 64.000 C 151.380 64.000,151.200 64.540,151.200 65.200 C 151.200 65.860,151.040 66.400,150.845 66.400 C 149.732 66.400,149.340 200.762,150.439 205.800 C 151.294 209.718,153.934 214.352,157.189 217.650 C 160.110 220.609,161.248 221.327,165.957 223.183 C 170.452 224.955,170.107 224.941,210.600 224.980 C 304.749 225.070,321.600 225.179,321.609 225.700 C 321.614 225.975,322.243 226.894,323.007 227.742 C 323.771 228.590,324.279 229.472,324.136 229.704 C 323.984 229.949,324.068 230.005,324.338 229.838 C 324.592 229.681,324.800 229.756,324.800 230.005 C 324.800 230.254,325.025 230.708,325.300 231.015 C 326.460 232.308,326.818 232.800,326.600 232.800 C 326.344 232.800,326.983 233.619,328.177 234.820 C 328.604 235.251,328.994 235.879,329.044 236.218 C 329.093 236.556,329.608 237.206,330.188 237.662 C 330.768 238.118,331.154 238.580,331.046 238.688 C 330.938 238.796,331.247 239.270,331.732 239.742 C 332.218 240.214,333.142 241.320,333.786 242.200 C 334.431 243.080,335.088 243.892,335.247 244.004 C 335.406 244.116,335.595 244.474,335.668 244.800 C 335.741 245.126,336.295 245.871,336.900 246.457 C 337.505 247.042,338.000 247.809,338.000 248.160 C 338.000 248.512,338.225 248.755,338.500 248.700 C 338.775 248.645,338.951 248.838,338.890 249.130 C 338.830 249.421,338.938 249.562,339.131 249.443 C 339.324 249.323,339.824 249.484,340.241 249.800 C 341.618 250.842,349.258 250.231,348.234 249.161 C 348.150 249.072,348.333 248.768,348.640 248.484 C 348.948 248.201,349.201 248.111,349.202 248.284 C 349.204 248.458,349.475 248.083,349.804 247.451 C 350.534 246.051,350.725 68.152,349.997 68.602 C 349.774 68.740,349.600 68.396,349.600 67.818 C 349.600 67.252,349.432 66.477,349.226 66.095 C 349.020 65.713,348.451 64.462,347.962 63.316 C 347.472 62.170,346.921 61.325,346.736 61.440 C 346.551 61.554,346.400 61.367,346.400 61.025 C 346.400 60.682,345.773 59.709,345.007 58.861 C 344.241 58.013,343.746 57.187,343.907 57.026 C 344.068 56.865,344.020 56.793,343.800 56.867 C 343.580 56.940,343.366 56.842,343.325 56.649 C 343.284 56.457,342.905 56.097,342.483 55.849 C 341.705 55.394,338.603 53.154,337.717 52.407 C 337.451 52.183,337.044 52.000,336.811 52.000 C 336.579 52.000,336.077 51.841,335.695 51.647 C 334.755 51.169,333.290 50.603,331.572 50.055 C 329.716 49.464,169.714 49.409,168.800 50.000 M203.278 75.379 C 207.044 76.522,209.610 78.714,211.262 82.200 L 212.399 84.600 212.400 118.689 L 212.400 152.777 211.320 155.089 C 209.812 158.316,209.799 158.372,210.913 156.790 C 211.460 156.014,211.997 155.024,212.107 154.590 C 212.217 154.155,212.326 155.060,212.350 156.600 C 212.402 160.050,211.272 162.754,208.762 165.191 C 200.894 172.826,187.460 167.290,187.646 156.489 C 187.672 155.010,187.783 154.160,187.893 154.600 C 188.133 155.557,189.405 157.421,190.760 158.800 C 191.608 159.664,191.594 159.610,190.654 158.400 C 190.056 157.630,189.121 156.043,188.577 154.874 L 187.587 152.748 187.693 118.274 L 187.800 83.800 188.736 82.000 C 191.628 76.438,197.683 73.681,203.278 75.379 M280.966 75.426 C 297.266 78.277,308.930 89.693,312.003 105.800 C 312.794 109.947,312.283 125.134,311.230 128.800 C 308.273 139.085,301.569 147.230,291.830 152.366 C 288.088 154.340,287.630 154.853,287.613 157.089 C 287.532 167.754,272.850 172.741,265.641 164.552 C 263.117 161.684,261.236 154.855,262.825 154.325 C 263.125 154.225,263.125 153.855,262.825 153.066 C 262.275 151.620,262.279 147.154,262.832 145.046 C 264.315 139.388,265.022 137.683,267.280 134.313 C 270.221 129.923,273.550 127.106,279.200 124.226 C 287.848 119.818,290.173 111.096,284.498 104.352 C 283.266 102.887,280.151 100.796,279.222 100.809 C 278.880 100.814,279.320 101.153,280.200 101.562 C 284.119 103.385,287.200 108.176,287.200 112.447 C 287.200 113.641,287.069 113.925,286.600 113.745 C 286.270 113.618,286.000 113.252,286.000 112.931 C 286.000 111.751,281.859 108.154,279.473 107.262 C 272.698 104.727,265.257 108.350,263.174 115.197 C 262.952 115.926,262.861 115.545,262.839 113.800 C 262.803 110.984,263.622 108.011,265.009 105.914 C 266.206 104.106,266.316 103.490,265.186 104.927 C 263.204 107.447,261.387 115.245,262.458 116.637 C 262.992 117.332,262.177 122.485,261.245 124.313 C 255.350 135.866,237.587 132.023,237.613 119.200 L 237.618 116.600 238.276 117.935 C 238.638 118.670,239.735 120.110,240.713 121.135 L 242.492 123.000 241.002 121.250 C 238.440 118.242,237.599 115.777,237.604 111.289 C 237.624 89.365,259.102 71.602,280.966 75.426 M271.559 100.542 C 269.797 101.102,266.400 103.214,266.400 103.749 C 266.400 103.964,266.807 103.757,267.305 103.289 C 269.151 101.555,271.981 100.611,275.317 100.617 C 277.031 100.620,278.111 100.495,277.717 100.339 C 276.634 99.912,273.184 100.025,271.559 100.542 M261.087 118.187 C 260.725 118.945,259.764 120.338,258.951 121.282 L 257.473 123.000 259.239 121.200 C 261.004 119.402,262.308 117.375,261.939 117.006 C 261.831 116.898,261.448 117.430,261.087 118.187 M311.267 121.772 C 310.974 123.055,310.654 124.397,310.555 124.753 C 310.456 125.109,310.582 124.950,310.836 124.400 C 311.089 123.850,311.469 123.024,311.681 122.565 C 311.892 122.106,312.006 121.214,311.933 120.584 C 311.827 119.672,311.691 119.914,311.267 121.772 M243.600 123.567 C 244.150 124.015,244.855 124.386,245.167 124.391 C 245.894 124.403,245.712 124.252,244.000 123.427 L 242.600 122.752 243.600 123.567 M246.215 124.824 C 246.343 125.031,247.097 125.200,247.890 125.200 C 249.661 125.200,249.500 124.990,247.491 124.680 C 246.591 124.541,246.076 124.599,246.215 124.824 M252.000 124.800 L 250.600 125.095 252.076 125.147 C 252.888 125.176,253.664 125.020,253.800 124.800 C 254.068 124.366,254.061 124.366,252.000 124.800 M307.466 131.222 C 306.854 132.310,306.447 133.200,306.560 133.200 C 306.859 133.200,308.927 129.594,308.737 129.404 C 308.649 129.316,308.077 130.134,307.466 131.222 M304.975 135.068 C 304.359 135.876,304.059 136.411,304.309 136.256 C 304.821 135.940,306.553 133.600,306.275 133.600 C 306.176 133.600,305.591 134.261,304.975 135.068 M301.294 139.118 C 300.136 140.330,299.246 141.380,299.317 141.450 C 299.388 141.521,300.510 140.504,301.810 139.190 C 303.111 137.875,304.001 136.826,303.787 136.858 C 303.574 136.889,302.452 137.907,301.294 139.118 M296.800 143.038 C 295.810 143.770,293.519 145.131,291.710 146.062 C 289.900 146.992,288.475 147.808,288.542 147.875 C 288.888 148.221,296.748 143.810,298.767 142.138 C 299.797 141.284,298.153 142.037,296.800 143.038 M286.698 154.328 C 284.945 159.296,280.607 162.200,274.938 162.200 C 272.924 162.200,271.360 162.335,271.462 162.500 C 271.935 163.266,277.978 162.799,280.091 161.833 C 283.594 160.231,287.951 155.015,287.523 152.937 C 287.455 152.608,287.084 153.234,286.698 154.328 M263.216 155.000 C 263.246 155.942,265.447 158.831,267.010 159.981 C 267.444 160.301,267.143 159.851,266.339 158.981 C 265.536 158.111,264.501 156.770,264.041 156.000 C 263.580 155.230,263.209 154.780,263.216 155.000 M192.000 159.885 C 192.000 160.234,193.599 161.338,193.800 161.128 C 193.867 161.057,193.489 160.677,192.961 160.281 C 192.432 159.886,192.000 159.708,192.000 159.885 M205.200 161.247 C 202.638 162.560,198.828 162.798,196.050 161.818 C 195.143 161.498,194.400 161.364,194.400 161.520 C 194.400 163.523,203.482 163.077,206.793 160.911 C 208.644 159.701,207.919 159.853,205.200 161.247 M268.000 160.709 C 268.000 161.066,270.374 162.160,270.618 161.915 C 270.713 161.821,270.162 161.444,269.395 161.078 C 268.628 160.712,268.000 160.546,268.000 160.709 M203.278 175.379 C 210.260 177.497,214.414 185.483,211.795 191.751 C 211.462 192.548,211.359 193.200,211.567 193.200 C 211.774 193.200,212.022 192.795,212.118 192.300 C 212.213 191.805,212.312 192.660,212.337 194.200 C 212.406 198.427,210.563 201.708,206.638 204.349 C 198.616 209.745,187.595 203.654,187.602 193.829 L 187.603 191.400 188.546 193.257 C 190.144 196.408,195.271 200.481,196.890 199.886 C 197.170 199.783,196.860 199.558,196.200 199.385 C 188.021 197.250,184.828 185.373,190.736 179.063 C 194.121 175.448,198.890 174.047,203.278 175.379 M280.077 176.111 C 286.625 179.168,289.378 186.360,286.393 192.615 C 282.529 200.710,272.426 202.478,266.112 196.164 C 264.950 195.002,264.176 194.382,264.392 194.785 C 268.694 202.824,282.222 201.744,286.738 193.000 L 287.565 191.400 287.582 193.685 C 287.670 205.048,273.826 210.588,265.921 202.352 C 264.557 200.931,264.117 200.174,262.856 197.081 C 262.238 195.564,262.264 192.112,262.895 191.902 C 263.289 191.770,263.289 191.514,262.895 190.649 C 258.914 181.912,270.856 171.807,280.077 176.111 M210.245 194.588 C 209.880 195.144,209.722 195.600,209.895 195.600 C 210.284 195.600,211.319 193.986,211.082 193.749 C 210.986 193.653,210.610 194.031,210.245 194.588 M206.600 198.013 C 205.720 198.645,204.460 199.287,203.800 199.441 C 203.140 199.594,202.812 199.794,203.070 199.883 C 203.688 200.098,206.741 198.694,207.961 197.635 C 209.353 196.426,208.471 196.671,206.600 198.013 M198.700 200.289 C 199.415 200.378,200.585 200.378,201.300 200.289 C 202.015 200.201,201.430 200.128,200.000 200.128 C 198.570 200.128,197.985 200.201,198.700 200.289 " stroke="none" fill="#cb0c53" fill-rule="evenodd"></path><path id="path3" d="M149.778 162.400 C 149.778 169.330,149.833 172.165,149.899 168.700 C 149.966 165.235,149.966 159.565,149.899 156.100 C 149.833 152.635,149.778 155.470,149.778 162.400 M89.794 175.209 C 89.627 175.479,90.131 175.528,91.271 175.354 C 93.556 175.003,93.710 174.800,91.690 174.800 C 90.787 174.800,89.933 174.984,89.794 175.209 M95.837 175.212 C 100.645 176.165,104.376 179.497,105.824 184.130 C 106.166 185.224,106.356 185.488,106.373 184.896 C 106.445 182.480,102.643 177.383,99.778 176.053 C 99.130 175.753,98.287 175.348,97.905 175.153 C 97.523 174.959,96.533 174.820,95.705 174.844 L 94.200 174.888 95.837 175.212 M146.000 175.175 C 146.000 175.382,146.669 175.446,147.500 175.318 C 149.577 174.998,149.641 174.800,147.667 174.800 C 146.750 174.800,146.000 174.969,146.000 175.175 M86.339 176.986 C 83.529 179.048,81.181 182.572,81.209 184.687 C 81.215 185.079,81.656 184.338,82.189 183.040 C 83.277 180.395,84.943 178.449,87.578 176.748 C 88.556 176.117,89.096 175.604,88.778 175.610 C 88.460 175.615,87.363 176.234,86.339 176.986 M143.700 176.144 C 143.205 176.389,142.800 176.732,142.800 176.905 C 142.800 177.167,145.017 176.241,145.567 175.749 C 145.921 175.432,144.554 175.721,143.700 176.144 M140.565 178.900 C 139.704 179.835,138.751 181.140,138.446 181.800 C 138.142 182.460,137.725 183.370,137.520 183.823 C 137.296 184.318,137.199 199.414,137.277 221.823 L 137.407 259.000 138.454 261.200 C 143.231 271.232,156.899 271.234,161.555 261.205 L 162.579 259.000 162.789 240.720 L 163.000 222.440 164.400 223.063 C 168.889 225.062,169.809 225.200,178.681 225.200 L 187.106 225.200 187.286 242.100 L 187.466 259.000 188.484 261.200 C 193.123 271.225,206.909 271.228,211.553 261.205 L 212.575 259.000 212.732 242.104 L 212.890 225.208 231.145 225.098 L 249.400 224.988 231.000 224.994 L 212.600 225.000 212.400 239.200 L 212.200 253.400 211.073 255.696 C 206.596 264.812,192.983 264.512,188.640 255.200 C 187.850 253.507,187.788 252.553,187.600 239.200 L 187.400 225.000 178.400 224.787 C 169.422 224.574,169.392 224.570,166.200 223.288 C 164.440 222.582,162.865 222.003,162.700 222.002 C 162.535 222.001,162.400 228.949,162.400 237.443 L 162.400 252.886 161.187 255.426 C 157.433 263.292,147.047 264.847,140.927 258.459 C 137.421 254.800,137.600 256.942,137.600 218.596 L 137.600 184.823 138.556 182.661 C 139.082 181.473,140.183 179.757,141.002 178.850 C 141.822 177.942,142.411 177.200,142.312 177.200 C 142.212 177.200,141.426 177.965,140.565 178.900 M80.991 219.000 C 80.991 237.040,81.040 244.362,81.100 235.270 C 81.160 226.179,81.160 211.419,81.100 202.470 C 81.040 193.522,80.991 200.960,80.991 219.000 M105.861 253.200 C 103.069 264.723,86.347 265.480,82.041 254.279 L 81.242 252.200 81.221 255.489 C 81.204 258.105,81.393 259.213,82.143 260.910 C 88.043 274.250,106.836 269.689,106.315 255.044 C 106.218 252.295,106.148 252.013,105.861 253.200 M89.794 275.209 C 89.627 275.479,90.131 275.528,91.271 275.354 C 93.556 275.003,93.710 274.800,91.690 274.800 C 90.787 274.800,89.933 274.984,89.794 275.209 M95.837 275.212 C 100.645 276.165,104.376 279.497,105.824 284.130 C 106.166 285.224,106.356 285.488,106.373 284.896 C 106.445 282.480,102.643 277.383,99.778 276.053 C 99.130 275.753,98.287 275.348,97.905 275.153 C 97.523 274.959,96.533 274.820,95.705 274.844 L 94.200 274.888 95.837 275.212 M146.000 275.175 C 146.000 275.382,146.669 275.446,147.500 275.318 C 149.577 274.998,149.641 274.800,147.667 274.800 C 146.750 274.800,146.000 274.969,146.000 275.175 M150.833 274.943 C 151.257 275.307,154.000 275.508,154.000 275.175 C 154.000 274.969,153.250 274.800,152.333 274.800 C 151.417 274.800,150.742 274.865,150.833 274.943 M196.000 275.175 C 196.000 275.382,196.669 275.446,197.500 275.318 C 199.577 274.998,199.641 274.800,197.667 274.800 C 196.750 274.800,196.000 274.969,196.000 275.175 M200.833 274.943 C 201.257 275.307,204.000 275.508,204.000 275.175 C 204.000 274.969,203.250 274.800,202.333 274.800 C 201.417 274.800,200.742 274.865,200.833 274.943 M86.339 276.986 C 83.529 279.048,81.181 282.572,81.209 284.687 C 81.215 285.079,81.656 284.338,82.189 283.040 C 83.277 280.395,84.943 278.449,87.578 276.748 C 88.556 276.117,89.096 275.604,88.778 275.610 C 88.460 275.615,87.363 276.234,86.339 276.986 M143.700 276.144 C 143.205 276.389,142.800 276.732,142.800 276.905 C 142.800 277.167,145.017 276.241,145.567 275.749 C 145.921 275.432,144.554 275.721,143.700 276.144 M156.000 276.635 C 158.447 278.028,159.481 279.046,160.839 281.400 C 161.473 282.500,161.994 283.173,161.996 282.895 C 162.000 282.348,161.355 281.125,160.400 279.873 C 159.873 279.182,159.198 278.529,157.431 277.000 C 156.648 276.322,155.237 275.600,154.705 275.605 C 154.427 275.607,155.010 276.071,156.000 276.635 M193.700 276.144 C 193.205 276.389,192.800 276.732,192.800 276.905 C 192.800 277.167,195.017 276.241,195.567 275.749 C 195.921 275.432,194.554 275.721,193.700 276.144 M206.000 276.635 C 208.447 278.028,209.481 279.046,210.839 281.400 C 211.473 282.500,211.994 283.173,211.996 282.895 C 212.000 282.348,211.355 281.125,210.400 279.873 C 209.873 279.182,209.198 278.529,207.431 277.000 C 206.648 276.322,205.237 275.600,204.705 275.605 C 204.427 275.607,205.010 276.071,206.000 276.635 M140.565 278.900 C 139.704 279.835,138.754 281.140,138.453 281.800 C 138.153 282.460,137.748 283.313,137.553 283.695 C 136.606 285.557,137.511 296.734,138.822 299.359 C 143.579 308.884,157.399 308.401,161.616 298.562 C 162.442 296.635,163.227 284.311,162.550 283.893 C 162.341 283.764,162.251 284.912,162.336 286.604 C 162.931 298.380,149.188 304.556,141.134 296.133 C 136.525 291.312,136.403 284.090,140.847 279.041 C 142.885 276.726,142.667 276.617,140.565 278.900 M190.565 278.900 C 189.704 279.835,188.754 281.140,188.453 281.800 C 188.153 282.460,187.748 283.313,187.553 283.695 C 186.606 285.557,187.511 296.734,188.822 299.359 C 193.579 308.884,207.399 308.401,211.616 298.562 C 212.442 296.635,213.227 284.311,212.550 283.893 C 212.341 283.764,212.251 284.912,212.336 286.604 C 212.931 298.380,199.188 304.556,191.134 296.133 C 186.525 291.312,186.403 284.090,190.847 279.041 C 192.885 276.726,192.667 276.617,190.565 278.900 M80.893 287.600 C 80.893 288.370,80.975 288.685,81.076 288.300 C 81.176 287.915,81.176 287.285,81.076 286.900 C 80.975 286.515,80.893 286.830,80.893 287.600 M105.866 290.711 C 102.939 302.192,86.341 303.082,82.081 291.986 L 81.242 289.800 81.221 292.885 C 81.185 298.244,83.937 303.109,88.010 304.882 C 91.142 306.246,91.729 306.400,93.800 306.400 C 95.856 306.400,96.445 306.247,99.506 304.922 C 103.779 303.072,106.557 297.971,106.325 292.400 C 106.220 289.874,106.147 289.607,105.866 290.711 M61.029 348.629 C 60.605 348.938,60.372 349.305,60.510 349.443 C 60.649 349.582,61.062 349.395,61.429 349.029 C 62.291 348.166,62.025 347.900,61.029 348.629 " stroke="none" fill="#0584ab" fill-rule="evenodd"></path><path id="path4" d="M271.800 100.934 C 265.960 102.873,262.759 107.467,262.839 113.800 C 262.861 115.545,262.952 115.926,263.174 115.197 C 265.257 108.350,272.698 104.727,279.473 107.262 C 281.859 108.154,286.000 111.751,286.000 112.931 C 286.000 113.252,286.270 113.618,286.600 113.745 C 287.898 114.243,287.224 109.889,285.495 106.600 C 283.048 101.947,276.683 99.314,271.800 100.934 M262.000 116.925 C 262.000 118.497,258.085 122.938,255.800 123.958 C 255.140 124.252,254.287 124.652,253.905 124.847 C 253.523 125.041,251.766 125.200,250.000 125.200 C 248.234 125.200,246.477 125.041,246.095 124.847 C 245.713 124.652,244.860 124.247,244.200 123.947 C 242.592 123.214,239.142 119.738,238.298 118.000 L 237.618 116.600 237.609 119.236 C 237.565 132.015,255.365 135.838,261.245 124.313 C 262.236 122.370,263.007 117.247,262.399 116.639 C 262.134 116.374,262.000 116.469,262.000 116.925 M312.000 120.720 C 312.000 121.556,311.857 122.411,311.682 122.620 C 311.507 122.829,311.134 123.720,310.853 124.600 C 307.933 133.751,300.175 142.476,291.106 146.808 C 288.316 148.141,287.600 149.230,287.600 152.142 C 287.600 158.548,276.910 165.303,271.295 162.447 C 270.913 162.252,270.060 161.847,269.400 161.547 C 268.740 161.246,267.930 160.767,267.600 160.483 C 265.486 158.661,263.916 156.825,263.510 155.700 C 262.833 153.830,262.400 154.098,262.400 156.385 C 262.400 165.990,273.439 172.004,281.672 166.885 C 284.857 164.904,287.588 160.402,287.613 157.089 C 287.630 154.853,288.088 154.340,291.830 152.366 C 301.584 147.221,308.389 138.942,311.198 128.800 C 312.024 125.819,312.756 119.200,312.259 119.200 C 312.117 119.200,312.000 119.884,312.000 120.720 M187.646 156.489 C 187.460 167.290,200.894 172.826,208.762 165.191 C 211.272 162.754,212.402 160.050,212.350 156.600 C 212.326 155.060,212.217 154.160,212.107 154.600 C 211.455 157.205,207.311 161.146,204.018 162.294 C 201.407 163.204,194.400 162.628,194.400 161.503 C 194.400 161.336,194.155 161.200,193.856 161.200 C 192.680 161.200,188.344 156.400,187.893 154.600 C 187.783 154.160,187.672 155.010,187.646 156.489 M187.602 193.829 C 187.595 203.654,198.616 209.745,206.638 204.349 C 210.563 201.708,212.406 198.427,212.337 194.200 C 212.312 192.660,212.213 191.805,212.118 192.300 C 212.022 192.795,211.777 193.200,211.572 193.200 C 211.367 193.200,211.200 193.452,211.200 193.759 C 211.200 194.067,210.310 195.228,209.221 196.340 C 202.941 202.753,192.580 201.209,188.546 193.257 L 187.603 191.400 187.602 193.829 M286.811 192.797 C 282.836 202.229,268.156 202.768,263.782 193.642 C 262.751 191.490,262.400 191.576,262.400 193.981 C 262.400 195.866,262.559 196.459,263.878 199.506 C 265.502 203.258,270.583 206.381,275.085 206.394 C 281.851 206.414,287.867 200.241,287.518 193.637 L 287.400 191.400 286.811 192.797 " stroke="none" fill="#a4042c" fill-rule="evenodd"></path></g></svg>