<svg id="svg" version="1.1" xmlns="http://www.w3.org/2000/svg" xmlns:xlink="http://www.w3.org/1999/xlink" width="400" height="400" viewBox="0, 0, 400,400"><g id="svgg"><path id="path0" d="M178.300 0.275 C 176.375 0.361,174.800 0.604,174.800 0.816 C 174.800 1.027,173.551 1.200,172.024 1.200 C 170.497 1.200,169.136 1.380,169.000 1.600 C 168.864 1.820,167.784 2.000,166.600 2.000 C 165.416 2.000,164.336 2.180,164.200 2.400 C 164.064 2.620,163.063 2.800,161.976 2.800 C 160.889 2.800,160.000 2.980,160.000 3.200 C 160.000 3.420,159.201 3.600,158.224 3.600 C 157.247 3.600,156.336 3.780,156.200 4.000 C 156.064 4.220,155.243 4.400,154.376 4.400 C 153.509 4.400,152.800 4.580,152.800 4.800 C 152.800 5.020,152.080 5.200,151.200 5.200 C 150.320 5.200,149.600 5.380,149.600 5.600 C 149.600 5.820,148.880 6.000,148.000 6.000 C 147.120 6.000,146.400 6.180,146.400 6.400 C 146.400 6.620,145.860 6.800,145.200 6.800 C 144.540 6.800,144.000 6.980,144.000 7.200 C 144.000 7.420,143.370 7.600,142.600 7.600 C 141.830 7.600,141.200 7.780,141.200 8.000 C 141.200 8.220,140.762 8.400,140.228 8.400 C 139.241 8.400,133.177 10.177,131.905 10.839 C 131.523 11.037,130.938 11.200,130.605 11.200 C 130.272 11.200,130.000 11.380,130.000 11.600 C 130.000 11.820,129.638 12.000,129.195 12.000 C 128.752 12.000,128.032 12.180,127.595 12.400 C 127.158 12.620,126.442 12.980,126.005 13.200 C 125.568 13.420,124.938 13.600,124.605 13.600 C 124.272 13.600,124.000 13.780,124.000 14.000 C 124.000 14.220,123.561 14.400,123.024 14.400 C 122.487 14.400,121.936 14.580,121.800 14.800 C 121.664 15.020,121.203 15.200,120.776 15.200 C 120.349 15.200,120.000 15.380,120.000 15.600 C 120.000 15.820,119.640 16.000,119.200 16.000 C 118.760 16.000,118.400 16.180,118.400 16.400 C 118.400 16.620,118.040 16.800,117.600 16.800 C 117.160 16.800,116.800 16.980,116.800 17.200 C 116.800 17.420,116.465 17.600,116.056 17.600 C 115.254 17.600,110.287 20.005,110.067 20.500 C 109.993 20.665,109.588 20.800,109.167 20.800 C 108.745 20.800,108.400 20.980,108.400 21.200 C 108.400 21.420,108.040 21.600,107.600 21.600 C 107.160 21.600,106.800 21.780,106.800 22.000 C 106.800 22.220,106.522 22.400,106.183 22.400 C 105.844 22.400,105.180 22.760,104.708 23.200 C 104.236 23.640,103.613 24.000,103.325 24.000 C 103.036 24.000,102.800 24.180,102.800 24.400 C 102.800 24.620,102.509 24.800,102.154 24.800 C 101.438 24.800,97.477 26.826,97.267 27.300 C 97.193 27.465,96.912 27.600,96.642 27.600 C 96.372 27.600,95.802 27.915,95.375 28.300 C 94.949 28.685,94.060 29.269,93.400 29.597 C 92.740 29.926,91.909 30.511,91.553 30.897 C 91.197 31.284,90.652 31.600,90.341 31.600 C 90.031 31.600,89.517 31.960,89.200 32.400 C 88.883 32.840,88.343 33.200,88.000 33.200 C 87.657 33.200,87.117 33.560,86.800 34.000 C 86.483 34.440,85.943 34.800,85.600 34.800 C 85.257 34.800,84.717 35.160,84.400 35.600 C 84.083 36.040,83.620 36.400,83.371 36.400 C 83.122 36.400,82.354 36.940,81.663 37.600 C 80.972 38.260,80.252 38.800,80.063 38.800 C 79.874 38.800,79.154 39.340,78.463 40.000 C 77.772 40.660,77.108 41.200,76.987 41.200 C 76.752 41.200,76.312 41.551,74.349 43.300 C 73.671 43.905,72.966 44.400,72.784 44.400 C 72.602 44.400,71.529 45.300,70.400 46.400 C 69.271 47.500,68.181 48.400,67.978 48.400 C 67.672 48.400,65.844 50.189,58.082 58.087 C 57.927 58.245,55.997 60.135,53.793 62.287 C 51.590 64.439,49.342 66.830,48.799 67.600 C 48.255 68.370,47.043 69.770,46.105 70.711 C 45.167 71.651,44.400 72.577,44.400 72.768 C 44.400 72.959,43.905 73.671,43.300 74.349 C 41.551 76.312,41.200 76.752,41.200 76.987 C 41.200 77.108,40.660 77.772,40.000 78.463 C 39.340 79.154,38.800 79.874,38.800 80.063 C 38.800 80.252,38.260 80.972,37.600 81.663 C 36.940 82.354,36.400 83.122,36.400 83.371 C 36.400 83.620,36.040 84.083,35.600 84.400 C 35.160 84.717,34.800 85.257,34.800 85.600 C 34.800 85.943,34.440 86.483,34.000 86.800 C 33.560 87.117,33.200 87.657,33.200 88.000 C 33.200 88.343,32.840 88.883,32.400 89.200 C 31.960 89.517,31.600 90.057,31.600 90.400 C 31.600 90.743,31.240 91.283,30.800 91.600 C 30.360 91.917,30.000 92.329,30.000 92.516 C 30.000 92.703,29.460 93.641,28.800 94.600 C 28.140 95.559,27.600 96.522,27.600 96.739 C 27.600 96.956,27.465 97.193,27.300 97.267 C 26.826 97.477,24.800 101.438,24.800 102.154 C 24.800 102.509,24.620 102.800,24.400 102.800 C 24.180 102.800,24.000 103.078,24.000 103.417 C 24.000 103.756,23.640 104.420,23.200 104.892 C 22.760 105.364,22.400 105.987,22.400 106.275 C 22.400 106.564,22.220 106.800,22.000 106.800 C 21.780 106.800,21.600 107.160,21.600 107.600 C 21.600 108.040,21.420 108.400,21.200 108.400 C 20.980 108.400,20.800 108.745,20.800 109.167 C 20.800 109.588,20.665 109.993,20.500 110.067 C 20.068 110.259,18.400 113.572,18.400 114.238 C 18.400 114.547,18.220 114.800,18.000 114.800 C 17.780 114.800,17.600 115.149,17.600 115.576 C 17.600 116.003,17.420 116.464,17.200 116.600 C 16.980 116.736,16.800 117.197,16.800 117.624 C 16.800 118.051,16.620 118.400,16.400 118.400 C 16.180 118.400,16.000 118.760,16.000 119.200 C 16.000 119.640,15.853 120.000,15.672 120.000 C 15.492 120.000,15.100 120.900,14.800 122.000 C 14.500 123.100,14.108 124.000,13.928 124.000 C 13.747 124.000,13.600 124.360,13.600 124.800 C 13.600 125.240,13.420 125.600,13.200 125.600 C 12.980 125.600,12.800 126.039,12.800 126.576 C 12.800 127.113,12.620 127.664,12.400 127.800 C 12.180 127.936,12.000 128.487,12.000 129.024 C 12.000 129.561,11.859 130.000,11.687 130.000 C 11.515 130.000,11.125 130.855,10.820 131.900 C 10.515 132.945,10.132 134.070,9.970 134.400 C 9.409 135.538,8.400 139.294,8.400 140.246 C 8.400 140.771,8.220 141.200,8.000 141.200 C 7.780 141.200,7.600 141.830,7.600 142.600 C 7.600 143.370,7.420 144.000,7.200 144.000 C 6.980 144.000,6.800 144.540,6.800 145.200 C 6.800 145.860,6.620 146.400,6.400 146.400 C 6.180 146.400,6.000 147.120,6.000 148.000 C 6.000 148.880,5.820 149.600,5.600 149.600 C 5.380 149.600,5.200 150.320,5.200 151.200 C 5.200 152.080,5.020 152.800,4.800 152.800 C 4.580 152.800,4.400 153.509,4.400 154.376 C 4.400 155.243,4.220 156.064,4.000 156.200 C 3.780 156.336,3.600 157.247,3.600 158.224 C 3.600 159.201,3.420 160.000,3.200 160.000 C 2.980 160.000,2.800 160.889,2.800 161.976 C 2.800 163.063,2.620 164.064,2.400 164.200 C 2.180 164.336,2.000 165.416,2.000 166.600 C 2.000 167.784,1.820 168.864,1.600 169.000 C 1.380 169.136,1.200 170.482,1.200 171.990 C 1.200 173.829,1.035 174.788,0.700 174.900 C -0.032 175.144,-0.032 224.856,0.700 225.100 C 1.035 225.212,1.200 226.171,1.200 228.010 C 1.200 229.518,1.380 230.864,1.600 231.000 C 1.820 231.136,2.000 232.317,2.000 233.624 C 2.000 234.941,2.178 236.000,2.400 236.000 C 2.620 236.000,2.800 236.900,2.800 238.000 C 2.800 239.100,2.980 240.000,3.200 240.000 C 3.420 240.000,3.600 240.799,3.600 241.776 C 3.600 242.753,3.780 243.664,4.000 243.800 C 4.220 243.936,4.400 244.757,4.400 245.624 C 4.400 246.491,4.580 247.200,4.800 247.200 C 5.020 247.200,5.200 247.920,5.200 248.800 C 5.200 249.680,5.380 250.400,5.600 250.400 C 5.820 250.400,6.000 251.019,6.000 251.776 C 6.000 252.533,6.180 253.264,6.400 253.400 C 6.620 253.536,6.800 254.177,6.800 254.824 C 6.800 255.471,6.980 256.000,7.200 256.000 C 7.420 256.000,7.600 256.529,7.600 257.176 C 7.600 257.823,7.760 258.452,7.956 258.573 C 8.151 258.694,8.405 259.379,8.520 260.096 C 8.635 260.813,8.806 261.670,8.902 262.000 C 8.997 262.330,9.207 263.140,9.369 263.800 C 9.530 264.460,9.811 265.360,9.992 265.800 C 10.174 266.240,10.714 267.680,11.193 269.000 C 11.672 270.320,12.230 271.713,12.432 272.095 C 12.634 272.477,12.800 273.152,12.800 273.595 C 12.800 274.038,12.980 274.400,13.200 274.400 C 13.420 274.400,13.600 274.760,13.600 275.200 C 13.600 275.640,13.780 276.000,14.000 276.000 C 14.220 276.000,14.400 276.439,14.400 276.976 C 14.400 277.513,14.580 278.064,14.800 278.200 C 15.020 278.336,15.200 278.797,15.200 279.224 C 15.200 279.651,15.380 280.000,15.600 280.000 C 15.820 280.000,16.000 280.360,16.000 280.800 C 16.000 281.240,16.180 281.600,16.400 281.600 C 16.620 281.600,16.800 281.872,16.800 282.205 C 16.800 282.538,16.961 283.123,17.158 283.505 C 17.355 283.887,18.119 285.460,18.856 287.000 C 19.593 288.540,20.332 289.860,20.498 289.933 C 20.664 290.007,20.800 290.412,20.800 290.833 C 20.800 291.255,20.980 291.600,21.200 291.600 C 21.420 291.600,21.600 291.960,21.600 292.400 C 21.600 292.840,21.780 293.200,22.000 293.200 C 22.220 293.200,22.400 293.560,22.400 294.000 C 22.400 294.440,22.580 294.800,22.800 294.800 C 23.020 294.800,23.200 295.036,23.200 295.325 C 23.200 295.613,23.560 296.236,24.000 296.708 C 24.440 297.180,24.800 297.755,24.800 297.986 C 24.800 298.394,26.798 302.399,27.201 302.800 C 27.600 303.196,30.000 307.260,30.000 307.538 C 30.000 307.695,30.360 308.083,30.800 308.400 C 31.240 308.717,31.600 309.257,31.600 309.600 C 31.600 309.943,31.960 310.483,32.400 310.800 C 32.840 311.117,33.200 311.657,33.200 312.000 C 33.200 312.343,33.560 312.883,34.000 313.200 C 34.440 313.517,34.800 314.009,34.800 314.292 C 34.800 314.575,35.340 315.372,36.000 316.063 C 36.660 316.754,37.200 317.522,37.200 317.771 C 37.200 318.020,37.560 318.483,38.000 318.800 C 38.440 319.117,38.800 319.625,38.800 319.928 C 38.800 320.231,39.296 320.956,39.901 321.540 C 40.507 322.123,41.537 323.320,42.189 324.200 C 42.842 325.080,43.696 326.149,44.088 326.575 C 44.480 327.002,44.800 327.502,44.800 327.686 C 44.800 327.870,45.565 328.810,46.500 329.774 C 48.472 331.808,50.009 333.600,49.781 333.600 C 49.694 333.600,51.410 335.355,53.595 337.500 C 55.781 339.645,57.750 341.580,57.971 341.800 C 58.193 342.020,60.174 344.045,62.373 346.300 C 64.573 348.555,66.519 350.400,66.698 350.400 C 66.877 350.400,68.252 351.570,69.754 353.000 C 71.257 354.430,72.624 355.600,72.793 355.600 C 72.961 355.600,73.787 356.230,74.628 357.000 C 75.469 357.770,76.298 358.400,76.471 358.400 C 76.644 358.400,77.434 359.030,78.227 359.800 C 79.020 360.570,79.883 361.200,80.146 361.200 C 80.409 361.200,80.883 361.560,81.200 362.000 C 81.517 362.440,81.980 362.800,82.229 362.800 C 82.478 362.800,83.246 363.340,83.937 364.000 C 84.628 364.660,85.425 365.200,85.708 365.200 C 85.991 365.200,86.483 365.560,86.800 366.000 C 87.117 366.440,87.657 366.800,88.000 366.800 C 88.343 366.800,88.883 367.160,89.200 367.600 C 89.517 368.040,90.057 368.400,90.400 368.400 C 90.743 368.400,91.283 368.760,91.600 369.200 C 91.917 369.640,92.497 370.000,92.888 370.000 C 93.280 370.000,93.600 370.159,93.600 370.354 C 93.600 370.549,94.222 371.004,94.981 371.364 C 95.741 371.725,96.596 372.241,96.881 372.510 C 97.710 373.294,101.447 375.200,102.154 375.200 C 102.509 375.200,102.800 375.352,102.800 375.537 C 102.800 375.723,103.655 376.308,104.700 376.837 C 105.745 377.367,106.660 377.935,106.733 378.100 C 106.807 378.265,107.197 378.400,107.600 378.400 C 108.003 378.400,108.393 378.535,108.467 378.700 C 108.655 379.124,113.599 381.600,114.256 381.600 C 114.555 381.600,114.800 381.780,114.800 382.000 C 114.800 382.220,115.250 382.400,115.800 382.400 C 116.350 382.400,116.800 382.580,116.800 382.800 C 116.800 383.020,117.160 383.200,117.600 383.200 C 118.040 383.200,118.400 383.380,118.400 383.600 C 118.400 383.820,118.665 384.000,118.988 384.000 C 119.311 384.000,120.217 384.360,121.000 384.800 C 121.783 385.240,122.779 385.600,123.212 385.600 C 123.645 385.600,124.000 385.780,124.000 386.000 C 124.000 386.220,124.349 386.400,124.776 386.400 C 125.203 386.400,125.664 386.580,125.800 386.800 C 125.936 387.020,126.487 387.200,127.024 387.200 C 127.561 387.200,128.000 387.380,128.000 387.600 C 128.000 387.820,128.324 388.000,128.720 388.000 C 129.116 388.000,129.611 388.143,129.820 388.318 C 130.029 388.493,130.920 388.865,131.800 389.145 C 132.680 389.424,133.760 389.801,134.200 389.983 C 135.884 390.678,139.333 391.600,140.246 391.600 C 140.771 391.600,141.200 391.780,141.200 392.000 C 141.200 392.220,141.830 392.400,142.600 392.400 C 143.370 392.400,144.000 392.560,144.000 392.756 C 144.000 393.091,144.919 393.316,148.498 393.857 C 149.322 393.982,149.896 394.245,149.774 394.442 C 149.652 394.639,150.273 394.800,151.153 394.800 C 152.033 394.800,152.864 394.980,153.000 395.200 C 153.136 395.420,153.856 395.600,154.600 395.600 C 155.344 395.600,156.064 395.780,156.200 396.000 C 156.336 396.220,157.247 396.400,158.224 396.400 C 159.201 396.400,160.000 396.580,160.000 396.800 C 160.000 397.020,160.990 397.200,162.200 397.200 C 163.410 397.200,164.400 397.380,164.400 397.600 C 164.400 397.820,165.379 398.000,166.576 398.000 C 167.773 398.000,168.864 398.180,169.000 398.400 C 169.136 398.620,170.482 398.800,171.990 398.800 C 173.829 398.800,174.788 398.965,174.900 399.300 C 175.144 400.032,224.856 400.032,225.100 399.300 C 225.212 398.965,226.171 398.800,228.010 398.800 C 229.518 398.800,230.864 398.620,231.000 398.400 C 231.136 398.180,232.216 398.000,233.400 398.000 C 234.584 398.000,235.664 397.820,235.800 397.600 C 235.936 397.380,236.836 397.200,237.800 397.200 C 238.764 397.200,239.664 397.020,239.800 396.800 C 239.936 396.580,240.746 396.400,241.600 396.400 C 242.454 396.400,243.264 396.220,243.400 396.000 C 243.536 395.780,244.447 395.600,245.424 395.600 C 246.401 395.600,247.200 395.420,247.200 395.200 C 247.200 394.980,247.920 394.800,248.800 394.800 C 249.680 394.800,250.400 394.620,250.400 394.400 C 250.400 394.180,250.929 394.000,251.576 394.000 C 252.223 394.000,252.864 393.820,253.000 393.600 C 253.136 393.380,253.867 393.200,254.624 393.200 C 255.381 393.200,256.000 393.020,256.000 392.800 C 256.000 392.580,256.641 392.400,257.424 392.400 C 258.207 392.400,258.750 392.243,258.631 392.051 C 258.513 391.859,259.487 391.580,260.796 391.432 C 262.105 391.284,263.282 390.991,263.411 390.782 C 263.541 390.572,264.087 390.400,264.624 390.400 C 265.161 390.400,265.600 390.220,265.600 390.000 C 265.600 389.780,266.052 389.600,266.605 389.600 C 267.158 389.600,267.923 389.441,268.305 389.247 C 268.687 389.052,269.495 388.692,270.100 388.447 C 270.705 388.201,271.695 387.799,272.300 387.553 C 272.905 387.308,273.713 386.948,274.095 386.753 C 274.477 386.559,275.062 386.400,275.395 386.400 C 275.728 386.400,276.000 386.220,276.000 386.000 C 276.000 385.780,276.450 385.600,277.000 385.600 C 277.550 385.600,278.000 385.420,278.000 385.200 C 278.000 384.980,278.450 384.800,279.000 384.800 C 279.550 384.800,280.000 384.620,280.000 384.400 C 280.000 384.180,280.360 384.000,280.800 384.000 C 281.240 384.000,281.600 383.820,281.600 383.600 C 281.600 383.380,281.872 383.200,282.205 383.200 C 282.538 383.200,283.123 383.039,283.505 382.842 C 283.887 382.645,285.460 381.881,287.000 381.144 C 288.540 380.407,289.860 379.668,289.933 379.502 C 290.007 379.336,290.397 379.200,290.800 379.200 C 291.203 379.200,291.593 379.064,291.667 378.898 C 291.740 378.732,293.015 377.985,294.500 377.238 C 295.985 376.491,297.200 375.727,297.200 375.540 C 297.200 375.353,297.491 375.200,297.846 375.200 C 298.562 375.200,302.523 373.174,302.733 372.700 C 302.807 372.535,303.039 372.400,303.250 372.400 C 303.640 372.400,305.740 371.007,306.721 370.096 C 307.020 369.819,307.458 369.712,307.694 369.858 C 307.949 370.015,308.007 369.936,307.838 369.662 C 307.669 369.388,307.807 369.200,308.176 369.200 C 308.519 369.200,308.800 369.020,308.800 368.800 C 308.800 368.580,309.120 368.400,309.512 368.400 C 309.903 368.400,310.483 368.040,310.800 367.600 C 311.117 367.160,311.657 366.800,312.000 366.800 C 312.343 366.800,312.883 366.440,313.200 366.000 C 313.517 365.560,313.962 365.200,314.188 365.199 C 314.415 365.199,315.230 364.659,316.000 364.000 C 316.770 363.341,317.585 362.801,317.812 362.801 C 318.038 362.800,318.483 362.440,318.800 362.000 C 319.117 361.560,319.572 361.200,319.810 361.200 C 320.049 361.200,320.931 360.570,321.772 359.800 C 322.613 359.030,323.423 358.400,323.572 358.400 C 323.721 358.400,324.531 357.770,325.372 357.000 C 326.213 356.230,327.046 355.600,327.224 355.600 C 327.401 355.600,328.504 354.697,329.673 353.593 C 333.355 350.120,333.943 349.600,334.190 349.600 C 334.322 349.600,336.049 347.935,338.028 345.900 C 340.006 343.865,341.780 342.046,341.971 341.859 C 342.162 341.671,344.015 339.855,346.089 337.823 C 348.164 335.791,350.388 333.428,351.031 332.571 C 351.674 331.715,352.965 330.241,353.900 329.297 C 354.835 328.352,355.600 327.423,355.600 327.232 C 355.600 327.041,356.095 326.329,356.700 325.651 C 358.449 323.688,358.800 323.248,358.800 323.013 C 358.800 322.892,359.340 322.228,360.000 321.537 C 360.660 320.846,361.200 320.078,361.200 319.829 C 361.200 319.580,361.560 319.117,362.000 318.800 C 362.440 318.483,362.800 318.020,362.800 317.771 C 362.800 317.522,363.340 316.754,364.000 316.063 C 364.660 315.372,365.200 314.575,365.200 314.292 C 365.200 314.009,365.560 313.517,366.000 313.200 C 366.440 312.883,366.800 312.386,366.800 312.095 C 366.800 311.804,367.160 311.180,367.600 310.708 C 368.040 310.236,368.400 309.613,368.400 309.325 C 368.400 309.036,368.580 308.800,368.800 308.800 C 369.020 308.800,369.200 308.519,369.200 308.176 C 369.200 307.833,369.380 307.664,369.600 307.800 C 369.820 307.936,370.000 307.692,370.000 307.257 C 370.000 306.822,370.135 306.407,370.300 306.333 C 370.755 306.131,372.400 303.690,372.400 303.216 C 372.400 302.987,372.580 302.800,372.800 302.800 C 373.020 302.800,373.200 302.440,373.200 302.000 C 373.200 301.560,373.347 301.200,373.526 301.200 C 373.874 301.200,375.200 298.642,375.200 297.970 C 375.200 297.748,375.560 297.180,376.000 296.708 C 376.440 296.236,376.800 295.512,376.800 295.101 C 376.800 294.689,376.980 294.464,377.200 294.600 C 377.420 294.736,377.600 294.477,377.600 294.024 C 377.600 293.571,377.780 293.200,378.000 293.200 C 378.220 293.200,378.400 292.840,378.400 292.400 C 378.400 291.960,378.580 291.600,378.800 291.600 C 379.020 291.600,379.200 291.255,379.200 290.833 C 379.200 290.412,379.336 290.007,379.502 289.933 C 379.668 289.860,380.407 288.540,381.144 287.000 C 381.881 285.460,382.645 283.887,382.842 283.505 C 383.039 283.123,383.200 282.538,383.200 282.205 C 383.200 281.872,383.380 281.600,383.600 281.600 C 383.820 281.600,384.000 281.240,384.000 280.800 C 384.000 280.360,384.180 280.000,384.400 280.000 C 384.620 280.000,384.800 279.550,384.800 279.000 C 384.800 278.450,384.980 278.000,385.200 278.000 C 385.420 278.000,385.600 277.550,385.600 277.000 C 385.600 276.450,385.780 276.000,386.000 276.000 C 386.220 276.000,386.400 275.728,386.400 275.395 C 386.400 275.062,386.559 274.477,386.753 274.095 C 387.080 273.451,387.435 272.615,388.360 270.300 C 388.557 269.805,388.936 268.770,389.200 268.000 C 389.464 267.230,389.823 266.240,389.997 265.800 C 390.777 263.826,391.600 260.606,391.600 259.530 C 391.600 258.847,391.768 258.457,392.000 258.600 C 392.238 258.747,392.400 258.271,392.400 257.424 C 392.400 256.641,392.580 256.000,392.800 256.000 C 393.020 256.000,393.200 255.471,393.200 254.824 C 393.200 254.177,393.380 253.536,393.600 253.400 C 393.820 253.264,394.000 252.544,394.000 251.800 C 394.000 251.056,394.180 250.336,394.400 250.200 C 394.620 250.064,394.800 249.333,394.800 248.576 C 394.800 247.819,394.980 247.200,395.200 247.200 C 395.420 247.200,395.600 246.491,395.600 245.624 C 395.600 244.757,395.780 243.936,396.000 243.800 C 396.220 243.664,396.400 242.753,396.400 241.776 C 396.400 240.799,396.580 240.000,396.800 240.000 C 397.020 240.000,397.200 239.111,397.200 238.024 C 397.200 236.937,397.380 235.936,397.600 235.800 C 397.820 235.664,398.000 234.584,398.000 233.400 C 398.000 232.216,398.180 231.136,398.400 231.000 C 398.620 230.864,398.800 229.518,398.800 228.010 C 398.800 226.171,398.965 225.212,399.300 225.100 C 399.693 224.969,399.800 219.591,399.800 200.000 C 399.800 180.409,399.693 175.031,399.300 174.900 C 398.965 174.788,398.800 173.829,398.800 171.990 C 398.800 170.482,398.620 169.136,398.400 169.000 C 398.180 168.864,398.000 167.784,398.000 166.600 C 398.000 165.416,397.820 164.336,397.600 164.200 C 397.380 164.064,397.200 163.063,397.200 161.976 C 397.200 160.889,397.020 160.000,396.800 160.000 C 396.580 160.000,396.400 159.201,396.400 158.224 C 396.400 157.247,396.220 156.336,396.000 156.200 C 395.780 156.064,395.600 155.243,395.600 154.376 C 395.600 153.509,395.420 152.800,395.200 152.800 C 394.980 152.800,394.800 152.080,394.800 151.200 C 394.800 150.320,394.620 149.600,394.400 149.600 C 394.180 149.600,394.000 148.981,394.000 148.224 C 394.000 147.467,393.820 146.736,393.600 146.600 C 393.380 146.464,393.200 145.823,393.200 145.176 C 393.200 144.529,393.020 144.000,392.800 144.000 C 392.580 144.000,392.400 143.370,392.400 142.600 C 392.400 141.830,392.241 141.200,392.046 141.200 C 391.851 141.200,391.569 140.213,391.418 139.006 C 391.267 137.800,390.977 136.709,390.772 136.583 C 390.567 136.456,390.400 135.924,390.400 135.400 C 390.400 134.876,390.256 134.358,390.079 134.249 C 389.903 134.140,389.510 133.139,389.207 132.025 C 388.904 130.911,388.508 130.000,388.328 130.000 C 388.147 130.000,388.000 129.561,388.000 129.024 C 388.000 128.487,387.820 127.936,387.600 127.800 C 387.380 127.664,387.200 127.113,387.200 126.576 C 387.200 126.039,387.020 125.600,386.800 125.600 C 386.580 125.600,386.400 125.240,386.400 124.800 C 386.400 124.360,386.253 124.000,386.072 124.000 C 385.892 124.000,385.500 123.100,385.200 122.000 C 384.900 120.900,384.508 120.000,384.328 120.000 C 384.147 120.000,384.000 119.640,384.000 119.200 C 384.000 118.760,383.820 118.400,383.600 118.400 C 383.380 118.400,383.200 118.128,383.200 117.795 C 383.200 117.462,383.039 116.877,382.842 116.495 C 382.645 116.113,381.881 114.540,381.144 113.000 C 380.407 111.460,379.668 110.140,379.502 110.067 C 379.336 109.993,379.200 109.588,379.200 109.167 C 379.200 108.745,379.020 108.400,378.800 108.400 C 378.580 108.400,378.400 108.040,378.400 107.600 C 378.400 107.160,378.220 106.800,378.000 106.800 C 377.780 106.800,377.600 106.480,377.600 106.088 C 377.600 105.697,377.240 105.117,376.800 104.800 C 376.360 104.483,376.000 103.903,376.000 103.512 C 376.000 103.120,375.843 102.800,375.650 102.800 C 375.457 102.800,375.189 102.245,375.053 101.566 C 374.918 100.888,374.445 99.825,374.003 99.205 C 373.561 98.584,373.200 97.879,373.200 97.638 C 373.200 97.397,373.020 97.200,372.800 97.200 C 372.580 97.200,372.400 97.007,372.400 96.772 C 372.400 96.537,371.860 95.559,371.200 94.600 C 370.540 93.641,370.000 92.703,370.000 92.516 C 370.000 92.329,369.640 91.917,369.200 91.600 C 368.760 91.283,368.400 90.743,368.400 90.400 C 368.400 90.057,368.040 89.517,367.600 89.200 C 367.160 88.883,366.800 88.343,366.800 88.000 C 366.800 87.657,366.440 87.117,366.000 86.800 C 365.560 86.483,365.200 85.943,365.200 85.600 C 365.200 85.257,364.840 84.717,364.400 84.400 C 363.960 84.083,363.600 83.620,363.600 83.371 C 363.600 83.122,363.060 82.354,362.400 81.663 C 361.740 80.972,361.200 80.252,361.200 80.063 C 361.200 79.874,360.660 79.154,360.000 78.463 C 359.340 77.772,358.800 77.071,358.800 76.903 C 358.800 76.736,358.080 75.812,357.200 74.849 C 356.320 73.887,355.600 72.954,355.600 72.776 C 355.600 72.599,354.700 71.529,353.600 70.400 C 352.500 69.271,351.600 68.194,351.600 68.008 C 351.600 67.732,348.966 65.029,341.983 58.141 C 341.727 57.889,339.464 55.594,336.955 53.041 C 334.445 50.488,332.225 48.400,332.022 48.400 C 331.819 48.400,330.729 47.500,329.600 46.400 C 328.471 45.300,327.398 44.400,327.216 44.400 C 327.034 44.400,326.281 43.859,325.542 43.199 C 323.650 41.505,323.264 41.200,323.013 41.200 C 322.892 41.200,322.228 40.660,321.537 40.000 C 320.846 39.340,320.126 38.800,319.937 38.800 C 319.748 38.800,319.028 38.260,318.337 37.600 C 317.646 36.940,316.878 36.400,316.629 36.400 C 316.380 36.400,315.917 36.040,315.600 35.600 C 315.283 35.160,314.743 34.800,314.400 34.800 C 314.057 34.800,313.517 34.440,313.200 34.000 C 312.883 33.560,312.343 33.200,312.000 33.200 C 311.657 33.200,311.117 32.840,310.800 32.400 C 310.483 31.960,309.943 31.600,309.600 31.600 C 309.257 31.600,308.717 31.240,308.400 30.800 C 308.083 30.360,307.671 30.000,307.484 30.000 C 307.297 30.000,306.359 29.460,305.400 28.800 C 304.441 28.140,303.478 27.600,303.261 27.600 C 303.044 27.600,302.807 27.443,302.733 27.251 C 302.553 26.779,298.581 24.800,297.813 24.800 C 297.476 24.800,297.200 24.620,297.200 24.400 C 297.200 24.180,296.964 24.000,296.675 24.000 C 296.387 24.000,295.764 23.640,295.292 23.200 C 294.820 22.760,294.156 22.400,293.817 22.400 C 293.478 22.400,293.200 22.220,293.200 22.000 C 293.200 21.780,292.840 21.600,292.400 21.600 C 291.960 21.600,291.600 21.420,291.600 21.200 C 291.600 20.980,291.255 20.800,290.833 20.800 C 290.412 20.800,290.007 20.664,289.933 20.498 C 289.860 20.332,288.540 19.593,287.000 18.856 C 285.460 18.119,283.887 17.355,283.505 17.158 C 283.123 16.961,282.538 16.800,282.205 16.800 C 281.872 16.800,281.600 16.620,281.600 16.400 C 281.600 16.180,281.240 16.000,280.800 16.000 C 280.360 16.000,280.000 15.820,280.000 15.600 C 280.000 15.380,279.651 15.200,279.224 15.200 C 278.797 15.200,278.336 15.020,278.200 14.800 C 278.064 14.580,277.513 14.400,276.976 14.400 C 276.439 14.400,276.000 14.220,276.000 14.000 C 276.000 13.780,275.728 13.600,275.395 13.600 C 275.062 13.600,274.387 13.392,273.895 13.138 C 271.969 12.142,271.583 12.000,270.805 12.000 C 270.362 12.000,270.000 11.820,270.000 11.600 C 270.000 11.380,269.728 11.200,269.395 11.200 C 269.062 11.200,268.477 11.037,268.095 10.839 C 266.823 10.177,260.759 8.400,259.772 8.400 C 259.238 8.400,258.800 8.220,258.800 8.000 C 258.800 7.780,258.170 7.600,257.400 7.600 C 256.630 7.600,256.000 7.420,256.000 7.200 C 256.000 6.980,255.471 6.800,254.824 6.800 C 254.177 6.800,253.536 6.620,253.400 6.400 C 253.264 6.180,252.533 6.000,251.776 6.000 C 251.019 6.000,250.400 5.820,250.400 5.600 C 250.400 5.380,249.680 5.200,248.800 5.200 C 247.920 5.200,247.200 5.020,247.200 4.800 C 247.200 4.580,246.491 4.400,245.624 4.400 C 244.757 4.400,243.936 4.220,243.800 4.000 C 243.664 3.780,242.753 3.600,241.776 3.600 C 240.799 3.600,240.000 3.420,240.000 3.200 C 240.000 2.980,239.111 2.800,238.024 2.800 C 236.937 2.800,235.936 2.620,235.800 2.400 C 235.664 2.180,234.584 2.000,233.400 2.000 C 232.216 2.000,231.136 1.820,231.000 1.600 C 230.864 1.380,229.518 1.200,228.010 1.200 C 226.193 1.200,225.211 1.034,225.103 0.708 C 224.941 0.222,187.291 -0.126,178.300 0.275 M210.537 33.202 C 216.772 33.718,222.311 34.330,225.600 34.865 C 232.944 36.059,240.116 37.576,244.400 38.840 C 245.830 39.261,247.720 39.811,248.600 40.060 C 250.540 40.609,254.699 41.962,255.800 42.402 C 256.240 42.578,257.680 43.120,259.000 43.607 C 260.320 44.094,262.163 44.831,263.096 45.246 C 264.028 45.661,264.879 46.000,264.986 46.000 C 265.741 46.000,276.621 51.381,282.600 54.711 C 291.763 59.815,305.757 69.958,312.248 76.200 C 312.934 76.860,314.734 78.577,316.248 80.016 C 319.393 83.007,326.959 91.073,327.925 92.467 C 328.281 92.980,328.913 93.760,329.330 94.200 C 331.642 96.642,343.200 112.997,343.200 113.828 C 343.200 113.965,343.554 114.573,343.986 115.180 C 345.823 117.760,354.000 133.956,354.000 135.014 C 354.000 135.121,354.339 135.972,354.753 136.904 C 355.167 137.837,355.725 139.230,355.993 140.000 C 356.599 141.740,356.973 142.718,357.520 144.000 C 357.755 144.550,358.164 145.720,358.429 146.600 C 358.694 147.480,359.051 148.560,359.222 149.000 C 359.393 149.440,359.650 150.250,359.794 150.800 C 360.046 151.770,360.395 153.006,361.177 155.700 C 361.859 158.046,362.403 160.168,362.845 162.200 C 363.085 163.300,363.442 164.920,363.639 165.800 C 367.176 181.588,368.188 207.125,365.827 221.000 C 365.715 221.660,365.335 224.090,364.983 226.400 C 364.087 232.276,362.611 239.226,361.246 244.000 C 360.303 247.295,359.931 248.659,359.718 249.600 C 359.594 250.150,359.369 250.780,359.218 251.000 C 359.068 251.220,358.711 252.210,358.426 253.200 C 358.142 254.190,357.766 255.360,357.592 255.800 C 357.418 256.240,356.508 258.580,355.570 261.000 C 339.893 301.453,307.572 335.249,267.800 352.779 C 266.260 353.457,264.687 354.190,264.305 354.406 C 263.923 354.623,263.426 354.800,263.201 354.800 C 262.976 354.800,262.028 355.139,261.096 355.553 C 260.163 355.967,258.770 356.525,258.000 356.793 C 257.230 357.061,256.240 357.431,255.800 357.614 C 254.337 358.224,250.231 359.561,247.800 360.219 C 246.480 360.577,244.770 361.044,244.000 361.258 C 218.590 368.307,189.298 369.011,164.000 363.180 C 161.910 362.699,159.570 362.158,158.800 361.979 C 154.699 361.027,143.651 357.552,142.305 356.792 C 141.923 356.577,141.426 356.400,141.201 356.400 C 140.976 356.400,140.028 356.067,139.096 355.660 C 138.163 355.253,135.960 354.325,134.200 353.597 C 131.126 352.326,120.226 347.032,119.400 346.409 C 119.180 346.243,118.190 345.658,117.200 345.110 C 113.181 342.884,112.186 342.274,108.081 339.522 C 100.318 334.319,92.403 328.158,87.365 323.400 C 78.061 314.612,73.584 309.675,66.143 300.000 C 64.161 297.423,56.800 286.585,56.800 286.244 C 56.800 286.146,56.008 284.726,55.040 283.089 C 53.120 279.842,49.376 272.576,47.986 269.400 C 47.504 268.300,46.712 266.500,46.225 265.400 C 45.737 264.300,44.930 262.320,44.430 261.000 C 43.931 259.680,43.366 258.240,43.176 257.800 C 38.651 247.328,34.313 226.273,33.154 209.153 C 32.047 192.805,34.830 167.480,39.171 154.400 C 39.354 153.850,40.086 151.510,40.799 149.200 C 41.512 146.890,42.254 144.595,42.448 144.100 C 42.642 143.605,42.962 142.795,43.160 142.300 C 43.357 141.805,43.736 140.770,44.001 140.000 C 44.266 139.230,44.809 137.880,45.209 137.000 C 45.609 136.120,46.262 134.590,46.661 133.600 C 47.973 130.339,54.369 117.772,56.000 115.248 C 56.880 113.887,57.600 112.683,57.600 112.573 C 57.600 111.970,67.584 97.740,69.397 95.759 C 69.618 95.517,70.520 94.437,71.400 93.360 C 75.015 88.937,85.771 77.859,89.820 74.389 C 94.845 70.083,96.259 68.940,100.061 66.110 C 104.005 63.174,107.898 60.565,114.800 56.231 C 119.180 53.481,132.884 46.782,138.600 44.597 C 142.243 43.204,142.804 42.987,144.000 42.501 C 147.139 41.228,157.102 38.378,163.200 37.008 C 171.529 35.138,177.231 34.281,185.800 33.611 C 188.880 33.370,191.670 33.110,192.000 33.033 C 193.368 32.713,206.027 32.829,210.537 33.202 M196.000 180.058 C 195.010 180.290,193.840 180.521,193.400 180.571 C 192.255 180.702,191.249 181.170,189.200 182.525 C 171.923 193.946,179.482 220.370,200.034 220.396 C 214.707 220.414,224.346 205.857,218.968 191.800 C 217.487 187.929,211.925 182.516,207.679 180.815 C 205.289 179.857,198.679 179.429,196.000 180.058 " stroke="none" fill="#f85970" fill-rule="evenodd"></path><path id="path1" d="M197.097 49.290 C 194.224 50.955,194.000 51.999,194.000 63.739 C 194.000 75.183,194.136 75.948,196.495 77.747 C 199.399 79.962,204.037 78.724,205.442 75.360 C 206.459 72.927,206.230 53.928,205.158 51.713 C 203.667 48.634,200.086 47.557,197.097 49.290 M106.528 111.942 C 101.944 113.526,98.400 118.371,98.400 123.051 C 98.400 128.041,100.716 130.854,114.986 143.200 C 117.074 145.007,134.825 160.808,135.200 161.194 C 135.310 161.307,136.300 162.194,137.400 163.165 C 138.500 164.135,140.300 165.755,141.401 166.765 C 142.501 167.774,144.841 169.860,146.600 171.400 C 150.630 174.929,152.338 176.443,155.398 179.200 C 156.740 180.410,159.357 182.750,161.213 184.400 C 164.638 187.445,168.178 190.642,171.803 193.964 C 172.905 194.974,175.065 196.865,176.603 198.168 L 179.400 200.535 179.636 198.168 C 180.391 190.598,184.236 185.143,191.737 181.000 C 192.807 180.410,192.671 180.246,186.800 175.014 C 183.830 172.367,180.770 169.639,180.000 168.952 C 179.230 168.264,176.800 166.119,174.600 164.186 C 172.400 162.252,169.070 159.283,167.200 157.587 C 165.330 155.891,159.666 150.835,154.614 146.352 C 149.562 141.868,143.913 136.850,142.062 135.200 C 140.210 133.550,137.471 131.120,135.976 129.800 C 134.480 128.480,131.128 125.504,128.528 123.186 C 117.163 113.058,116.555 112.572,114.404 111.877 C 111.733 111.014,109.151 111.036,106.528 111.942 M250.200 138.405 C 246.345 138.992,245.802 139.468,225.608 159.915 C 203.836 181.961,205.490 180.056,207.494 180.776 C 211.669 182.274,217.462 187.839,218.970 191.800 C 219.576 193.391,220.400 196.861,220.400 197.820 C 220.400 199.403,220.720 199.144,228.212 191.500 C 232.147 187.485,241.340 178.158,248.640 170.773 C 263.140 156.105,263.600 155.505,263.922 150.856 C 264.463 143.057,258.023 137.213,250.200 138.405 M51.769 194.808 C 47.407 196.967,47.374 203.057,51.713 205.158 C 53.928 206.230,72.927 206.459,75.360 205.442 C 79.974 203.515,79.974 196.485,75.360 194.558 C 72.985 193.565,53.870 193.768,51.769 194.808 M324.552 194.575 C 320.018 196.548,320.075 203.535,324.640 205.442 C 326.739 206.319,345.785 206.240,348.022 205.345 C 352.658 203.490,352.751 197.038,348.174 194.797 C 346.098 193.780,326.794 193.599,324.552 194.575 M196.452 322.271 C 194.133 324.098,194.000 324.856,194.000 336.261 C 194.000 345.721,194.064 346.678,194.797 348.174 C 197.038 352.751,203.490 352.658,205.345 348.022 C 206.240 345.785,206.319 326.739,205.442 324.640 C 204.033 321.266,199.308 320.021,196.452 322.271 " stroke="none" fill="#425a6a" fill-rule="evenodd"></path><path id="path2" d="M185.600 34.057 C 179.711 34.664,169.781 36.108,166.800 36.792 C 165.810 37.019,164.190 37.375,163.200 37.582 C 160.874 38.070,158.602 38.630,156.600 39.211 C 155.720 39.466,154.413 39.768,153.696 39.881 C 152.979 39.995,152.294 40.249,152.173 40.444 C 152.052 40.640,151.524 40.800,151.000 40.800 C 150.476 40.800,149.936 40.980,149.800 41.200 C 149.664 41.420,149.124 41.600,148.600 41.600 C 148.076 41.600,147.536 41.780,147.400 42.000 C 147.264 42.220,146.827 42.400,146.430 42.400 C 145.798 42.400,143.893 43.062,140.400 44.496 C 139.850 44.722,139.040 45.037,138.600 45.195 C 138.160 45.353,136.990 45.841,136.000 46.278 C 135.010 46.715,133.390 47.413,132.400 47.830 C 127.914 49.716,116.753 55.535,114.338 57.247 C 113.754 57.661,113.164 58.000,113.026 58.000 C 112.604 58.000,103.422 64.249,99.707 67.064 C 88.024 75.919,75.914 88.029,67.064 99.707 C 64.248 103.423,58.000 112.605,58.000 113.026 C 58.000 113.164,57.661 113.754,57.247 114.338 C 53.228 120.007,44.542 138.817,41.979 147.400 C 41.717 148.280,41.344 149.313,41.151 149.695 C 40.958 150.077,40.800 150.741,40.800 151.171 C 40.800 151.601,40.640 152.052,40.444 152.173 C 40.249 152.294,39.995 152.979,39.881 153.696 C 39.768 154.413,39.466 155.720,39.211 156.600 C 38.630 158.602,38.070 160.874,37.582 163.200 C 37.375 164.190,37.022 165.810,36.798 166.800 C 32.359 186.419,32.716 216.396,37.632 236.800 C 37.870 237.790,38.160 239.276,38.275 240.103 C 38.390 240.929,38.645 241.705,38.842 241.826 C 39.039 241.948,39.200 242.478,39.200 243.005 C 39.200 243.531,39.361 244.376,39.558 244.881 C 39.755 245.387,40.133 246.610,40.397 247.600 C 40.662 248.590,41.040 249.713,41.239 250.095 C 41.438 250.477,41.600 251.141,41.600 251.571 C 41.600 252.001,41.780 252.464,42.000 252.600 C 42.220 252.736,42.400 253.251,42.400 253.744 C 42.400 254.237,42.543 254.811,42.718 255.020 C 42.893 255.229,43.269 256.120,43.552 257.000 C 43.835 257.880,44.412 259.363,44.834 260.296 C 45.255 261.228,45.600 262.146,45.600 262.334 C 45.600 262.523,45.850 263.200,46.156 263.839 C 46.462 264.477,47.025 265.720,47.408 266.600 C 49.073 270.434,53.452 279.211,54.862 281.541 C 55.708 282.938,56.400 284.166,56.400 284.269 C 56.400 284.372,56.940 285.241,57.600 286.200 C 58.260 287.159,58.800 288.054,58.800 288.187 C 58.800 288.471,63.607 295.704,63.993 296.000 C 64.136 296.110,64.806 297.010,65.482 298.000 C 66.523 299.525,68.676 302.324,71.483 305.800 C 76.798 312.382,87.323 322.905,94.200 328.511 C 97.186 330.945,100.464 333.470,102.000 334.518 C 102.990 335.194,103.890 335.853,104.000 335.983 C 104.430 336.489,111.557 341.200,111.892 341.200 C 112.089 341.200,112.598 341.515,113.025 341.900 C 113.451 342.285,114.340 342.864,115.000 343.188 C 115.660 343.511,116.920 344.248,117.800 344.824 C 121.952 347.546,138.490 355.035,144.800 357.050 C 145.790 357.366,146.913 357.800,147.295 358.013 C 147.677 358.226,148.341 358.400,148.771 358.400 C 149.201 358.400,149.664 358.580,149.800 358.800 C 149.936 359.020,150.566 359.200,151.200 359.200 C 151.834 359.200,152.464 359.380,152.600 359.600 C 152.736 359.820,153.289 360.000,153.829 360.000 C 154.369 360.000,155.123 360.158,155.505 360.351 C 156.751 360.980,159.034 361.600,160.105 361.600 C 160.681 361.600,161.264 361.780,161.400 362.000 C 161.536 362.220,162.321 362.400,163.144 362.400 C 163.967 362.400,164.811 362.562,165.020 362.759 C 165.229 362.956,166.120 363.218,167.000 363.340 C 167.880 363.462,169.770 363.758,171.200 363.996 C 192.848 367.610,215.801 367.066,236.800 362.440 C 239.303 361.889,241.520 361.334,243.400 360.789 C 244.280 360.534,245.587 360.232,246.304 360.119 C 247.021 360.005,247.706 359.751,247.827 359.556 C 247.948 359.360,248.399 359.200,248.829 359.200 C 249.259 359.200,249.923 359.038,250.305 358.839 C 250.687 358.640,251.810 358.248,252.800 357.967 C 253.790 357.686,254.780 357.346,255.000 357.211 C 255.220 357.077,256.120 356.734,257.000 356.450 C 257.880 356.165,259.363 355.588,260.296 355.166 C 261.228 354.745,262.165 354.400,262.378 354.400 C 263.442 354.400,282.818 344.876,283.600 343.968 C 283.710 343.840,284.385 343.481,285.100 343.170 C 285.815 342.859,286.400 342.469,286.400 342.302 C 286.400 342.136,286.587 342.000,286.815 342.000 C 287.489 342.000,297.132 335.400,302.398 331.335 C 311.380 324.400,324.400 311.380,331.335 302.398 C 335.400 297.132,342.000 287.489,342.000 286.815 C 342.000 286.587,342.136 286.400,342.302 286.400 C 342.469 286.400,342.858 285.815,343.168 285.100 C 343.477 284.385,344.214 283.080,344.806 282.200 C 345.795 280.729,350.979 270.350,352.597 266.600 C 352.977 265.720,353.538 264.477,353.844 263.839 C 354.150 263.200,354.400 262.523,354.400 262.334 C 354.400 262.146,354.745 261.228,355.166 260.296 C 355.588 259.363,356.165 257.880,356.448 257.000 C 356.731 256.120,357.107 255.229,357.282 255.020 C 357.457 254.811,357.600 254.237,357.600 253.744 C 357.600 253.251,357.780 252.736,358.000 252.600 C 358.220 252.464,358.400 251.924,358.400 251.400 C 358.400 250.876,358.580 250.336,358.800 250.200 C 359.020 250.064,359.200 249.524,359.200 249.000 C 359.200 248.476,359.360 247.948,359.556 247.827 C 359.751 247.706,360.005 247.021,360.119 246.304 C 360.232 245.587,360.534 244.280,360.789 243.400 C 362.782 236.525,364.412 227.607,365.686 216.600 C 366.372 210.683,366.367 188.416,365.680 182.600 C 364.935 176.300,363.997 170.245,363.200 166.600 C 362.960 165.500,362.607 163.790,362.415 162.800 C 362.223 161.810,361.886 160.370,361.665 159.600 C 361.444 158.830,360.970 157.030,360.612 155.600 C 360.253 154.170,359.789 152.687,359.580 152.305 C 359.371 151.923,359.200 151.336,359.200 151.000 C 359.200 150.664,359.037 150.077,358.837 149.695 C 358.637 149.313,358.201 148.100,357.868 147.000 C 355.223 138.276,347.384 121.062,343.539 115.538 C 343.133 114.954,342.800 114.365,342.800 114.228 C 342.800 113.317,333.606 100.378,327.857 93.200 C 323.869 88.219,310.194 74.827,304.400 70.227 C 299.549 66.376,286.437 57.200,285.784 57.200 C 285.641 57.200,285.046 56.867,284.462 56.461 C 282.549 55.130,268.843 48.000,268.196 48.000 C 268.099 48.000,266.891 47.492,265.510 46.870 C 264.130 46.249,262.370 45.511,261.600 45.230 C 260.830 44.949,259.750 44.533,259.200 44.306 C 258.650 44.079,257.840 43.745,257.400 43.564 C 256.960 43.384,254.800 42.665,252.600 41.967 C 250.400 41.269,248.240 40.553,247.800 40.376 C 245.761 39.556,234.569 36.941,229.200 36.030 C 215.826 33.762,196.819 32.902,185.600 34.057 M203.868 49.425 C 206.252 51.243,206.400 52.094,206.399 63.949 C 206.397 74.014,206.351 74.675,205.569 75.958 C 202.719 80.633,197.081 80.572,194.421 75.837 C 193.429 74.070,193.146 54.293,194.082 52.119 C 195.748 48.250,200.583 46.919,203.868 49.425 M113.881 111.250 C 116.557 112.326,117.126 112.669,119.400 114.576 C 120.720 115.683,121.994 116.771,122.231 116.994 C 122.469 117.217,124.083 118.660,125.820 120.200 C 127.556 121.740,129.877 123.810,130.978 124.800 C 133.331 126.916,133.028 126.645,137.013 130.200 C 138.739 131.740,141.157 133.900,142.387 135.000 C 143.616 136.100,146.040 138.260,147.773 139.800 C 149.506 141.340,151.122 142.780,151.364 143.000 C 151.606 143.220,153.333 144.750,155.202 146.400 C 157.071 148.050,158.690 149.490,158.800 149.601 C 158.910 149.711,161.430 151.959,164.400 154.595 C 167.370 157.231,169.997 159.571,170.238 159.794 C 171.312 160.789,176.931 165.767,180.400 168.798 C 182.490 170.623,185.820 173.605,187.800 175.424 C 192.355 179.607,193.424 180.443,193.775 180.092 C 194.552 179.315,199.861 178.822,202.622 179.271 L 205.444 179.730 220.454 164.565 C 228.709 156.224,237.609 147.225,240.232 144.566 C 245.939 138.779,247.482 137.904,252.000 137.884 C 263.434 137.836,268.535 150.749,260.426 159.214 C 256.333 163.486,222.985 197.362,222.100 198.147 C 221.545 198.639,221.195 199.415,221.186 200.172 C 221.174 201.225,220.759 203.316,219.720 207.555 C 219.554 208.230,219.724 208.699,220.299 209.155 C 220.746 209.510,222.796 211.219,224.856 212.954 C 226.915 214.689,229.494 216.849,230.586 217.754 C 231.678 218.659,233.208 219.951,233.986 220.626 C 234.764 221.300,238.820 224.707,243.000 228.197 C 247.180 231.687,250.690 234.648,250.800 234.777 C 250.910 234.906,251.990 235.816,253.200 236.800 C 254.410 237.784,255.490 238.686,255.600 238.804 C 255.710 238.922,257.960 240.807,260.600 242.994 C 263.240 245.181,265.490 247.073,265.600 247.198 C 265.710 247.323,269.027 250.120,272.972 253.413 C 289.647 267.334,290.357 267.957,291.027 269.251 C 293.578 274.186,288.021 279.893,283.129 277.363 C 282.125 276.844,276.612 272.392,271.205 267.734 C 270.652 267.257,266.510 263.772,262.000 259.988 C 257.490 256.204,253.259 252.634,252.599 252.054 C 251.938 251.474,250.410 250.190,249.203 249.200 C 247.996 248.210,246.556 247.018,246.004 246.552 C 245.452 246.085,243.110 244.104,240.800 242.149 C 238.490 240.195,235.610 237.789,234.400 236.803 C 233.190 235.817,232.110 234.919,232.000 234.805 C 231.741 234.540,226.291 229.953,218.058 223.072 C 211.583 217.662,211.504 217.611,210.458 218.200 C 199.733 224.234,184.477 219.230,180.850 208.489 C 180.573 207.670,180.202 206.640,180.024 206.200 C 179.847 205.760,179.500 204.326,179.254 203.014 C 178.959 201.441,178.497 200.350,177.898 199.814 C 177.399 199.366,175.466 197.650,173.603 196.000 C 171.739 194.350,169.834 192.640,169.369 192.200 C 168.342 191.229,166.472 189.556,161.995 185.600 C 160.128 183.950,158.510 182.510,158.400 182.400 C 158.290 182.290,156.580 180.761,154.600 179.002 C 152.620 177.243,150.910 175.713,150.800 175.602 C 150.690 175.491,149.070 174.052,147.200 172.406 C 145.330 170.759,143.710 169.317,143.600 169.201 C 143.490 169.086,140.160 166.118,136.200 162.606 C 132.240 159.094,128.280 155.569,127.400 154.774 C 126.520 153.978,123.190 151.010,120.000 148.177 C 116.810 145.344,114.110 142.930,114.000 142.813 C 113.890 142.696,112.990 141.894,112.000 141.031 C 99.076 129.763,98.400 128.878,98.400 123.238 C 98.400 114.884,106.780 108.395,113.881 111.250 M75.837 194.421 C 80.572 197.081,80.633 202.719,75.958 205.569 C 74.167 206.661,54.385 206.854,51.873 205.805 C 46.890 203.723,46.970 196.381,52.000 194.106 C 54.024 193.191,74.120 193.456,75.837 194.421 M348.127 194.195 C 352.963 196.216,353.096 203.397,348.342 205.769 C 346.173 206.851,326.030 206.693,324.048 205.579 C 319.495 203.020,319.657 196.720,324.338 194.246 C 325.942 193.398,346.117 193.356,348.127 194.195 M203.454 321.693 C 206.275 323.626,206.400 324.246,206.400 336.293 C 206.400 348.320,206.329 348.698,203.700 350.703 C 200.625 353.049,195.693 351.713,194.195 348.127 C 193.308 346.004,193.325 326.274,194.215 324.489 C 195.985 320.942,200.406 319.604,203.454 321.693 " stroke="none" fill="#e3ebfb" fill-rule="evenodd"></path><path id="path3" d="M196.629 49.009 C 195.463 49.891,196.034 49.994,197.400 49.147 C 198.060 48.739,198.330 48.409,198.000 48.415 C 197.670 48.421,197.053 48.688,196.629 49.009 M202.859 49.206 C 205.732 50.724,206.000 51.965,206.000 63.739 C 206.000 71.630,205.870 74.336,205.442 75.360 C 203.888 79.080,198.971 80.073,196.017 77.262 C 194.260 75.590,193.860 75.577,195.300 77.237 C 198.180 80.557,203.142 79.939,205.569 75.958 C 206.661 74.167,206.854 54.385,205.805 51.873 C 205.189 50.400,202.950 48.387,201.962 48.418 C 201.653 48.427,202.056 48.782,202.859 49.206 M194.997 50.540 C 193.748 51.966,193.600 53.391,193.600 63.995 C 193.600 69.912,193.735 74.836,193.900 74.939 C 194.065 75.041,194.147 70.260,194.081 64.315 C 193.970 54.147,194.011 53.410,194.770 51.875 C 195.611 50.175,195.682 49.759,194.997 50.540 M107.462 111.100 C 107.360 111.265,108.772 111.400,110.600 111.400 C 112.428 111.400,113.716 111.268,113.462 111.106 C 112.853 110.719,107.701 110.714,107.462 111.100 M104.400 112.442 C 101.912 113.934,98.688 117.622,99.320 118.254 C 99.436 118.370,99.841 117.813,100.220 117.015 C 100.989 115.394,103.545 113.130,105.628 112.227 C 106.382 111.899,106.730 111.625,106.400 111.617 C 106.070 111.609,105.170 111.981,104.400 112.442 M116.885 112.946 C 117.914 113.728,129.219 123.710,133.568 127.677 C 135.665 129.589,137.458 131.075,137.554 130.979 C 137.650 130.883,137.365 130.489,136.921 130.103 C 136.477 129.716,134.802 128.230,133.200 126.800 C 131.598 125.370,129.934 123.893,129.503 123.518 C 128.546 122.685,122.831 117.558,122.231 116.994 C 120.308 115.186,116.868 112.402,116.569 112.413 C 116.366 112.420,116.508 112.660,116.885 112.946 M98.673 119.353 C 98.523 119.745,98.411 120.366,98.425 120.733 C 98.442 121.175,98.581 121.074,98.837 120.434 C 99.049 119.903,99.161 119.282,99.085 119.054 C 99.009 118.827,98.824 118.961,98.673 119.353 M98.413 125.451 C 98.399 126.346,99.541 129.393,99.794 129.139 C 99.876 129.058,99.601 128.003,99.184 126.796 C 98.767 125.588,98.420 124.983,98.413 125.451 M100.754 130.683 C 101.236 131.388,102.113 132.345,102.703 132.809 C 103.293 133.274,105.221 134.960,106.988 136.557 C 108.755 138.154,111.010 140.167,112.000 141.031 C 112.990 141.894,113.890 142.696,114.000 142.813 C 114.110 142.930,116.810 145.344,120.000 148.177 C 123.190 151.010,126.520 153.976,127.400 154.768 C 128.280 155.560,131.520 158.443,134.600 161.174 C 137.680 163.905,140.875 166.775,141.700 167.551 C 142.525 168.327,143.188 168.791,143.173 168.581 C 143.158 168.372,141.763 166.988,140.073 165.507 C 138.383 164.027,136.550 162.406,136.000 161.907 C 133.804 159.913,116.930 144.899,115.223 143.420 C 114.220 142.551,112.404 140.931,111.186 139.820 C 109.969 138.709,108.079 137.006,106.986 136.035 C 105.894 135.065,103.847 133.175,102.439 131.835 C 100.707 130.189,100.161 129.815,100.754 130.683 M138.415 131.768 C 138.737 132.190,140.446 133.810,142.214 135.368 C 148.879 141.240,163.930 154.621,167.200 157.582 C 169.070 159.275,172.310 162.162,174.400 163.998 C 176.490 165.834,178.785 167.881,179.500 168.547 C 180.215 169.212,180.789 169.587,180.774 169.378 C 180.760 169.170,179.905 168.299,178.874 167.442 C 177.376 166.196,172.820 162.160,170.242 159.794 C 169.999 159.571,167.370 157.231,164.400 154.595 C 161.430 151.959,158.910 149.711,158.800 149.601 C 158.690 149.490,157.071 148.050,155.202 146.400 C 153.333 144.750,151.606 143.220,151.364 143.000 C 151.122 142.780,149.501 141.340,147.763 139.800 C 146.025 138.260,143.612 136.106,142.402 135.013 C 138.802 131.764,137.777 130.929,138.415 131.768 M249.800 137.961 C 246.849 138.485,245.026 139.734,240.431 144.380 C 237.917 146.921,230.897 154.019,224.831 160.154 C 218.764 166.289,214.180 171.059,214.644 170.754 C 215.108 170.449,222.128 163.467,230.244 155.238 C 246.887 138.362,246.951 138.313,252.201 138.333 C 262.289 138.373,267.931 150.434,261.260 157.700 C 260.705 158.305,260.398 158.800,260.578 158.800 C 261.195 158.800,262.505 157.001,263.491 154.803 C 267.385 146.115,259.375 136.261,249.800 137.961 M256.073 163.190 C 254.683 164.625,249.103 170.300,243.673 175.801 C 238.243 181.301,231.100 188.605,227.800 192.031 C 224.500 195.457,227.622 192.396,234.739 185.230 C 241.855 178.063,250.217 169.641,253.320 166.514 C 256.423 163.387,258.880 160.772,258.781 160.704 C 258.681 160.635,257.463 161.754,256.073 163.190 M143.629 169.051 C 143.646 169.243,144.591 170.189,145.729 171.153 C 146.868 172.117,148.520 173.557,149.400 174.353 C 150.280 175.149,152.620 177.240,154.600 179.000 C 156.580 180.760,158.290 182.290,158.400 182.400 C 158.510 182.510,160.130 183.950,162.000 185.600 C 163.870 187.250,165.494 188.690,165.608 188.800 C 165.723 188.910,166.451 189.540,167.226 190.200 C 169.683 192.292,164.745 187.520,161.220 184.396 C 159.360 182.748,156.740 180.410,155.398 179.200 C 154.055 177.990,152.246 176.370,151.377 175.600 C 150.509 174.830,148.403 172.963,146.699 171.451 C 144.995 169.939,143.613 168.859,143.629 169.051 M181.236 169.862 C 181.275 170.238,188.290 176.504,188.961 176.764 C 189.463 176.958,189.245 176.749,184.694 172.662 C 182.772 170.937,181.216 169.677,181.236 169.862 M209.400 175.782 C 206.904 178.512,206.488 179.144,208.392 177.314 C 209.585 176.167,210.480 175.156,210.381 175.068 C 210.281 174.979,209.840 175.301,209.400 175.782 M190.401 178.137 C 190.951 178.762,191.760 179.459,192.200 179.686 C 193.042 180.120,193.018 180.093,190.801 178.197 L 189.403 177.000 190.401 178.137 M170.686 193.203 C 171.614 194.170,172.435 194.880,172.512 194.780 C 172.588 194.681,171.829 193.890,170.825 193.022 L 169.000 191.444 170.686 193.203 M52.000 194.120 C 51.450 194.376,50.733 194.843,50.407 195.157 C 50.081 195.471,49.991 195.645,50.207 195.543 C 53.648 193.920,53.263 193.959,64.393 194.082 C 70.295 194.147,75.041 194.065,74.939 193.900 C 74.621 193.388,53.130 193.594,52.000 194.120 M325.061 193.900 C 324.959 194.065,329.734 194.147,335.673 194.081 C 346.549 193.962,349.957 194.403,350.009 195.936 C 350.025 196.421,351.582 198.207,351.591 197.750 C 351.605 197.062,349.139 194.623,347.881 194.082 C 346.628 193.542,325.388 193.373,325.061 193.900 M77.262 196.017 C 80.073 198.971,79.080 203.888,75.360 205.442 C 74.336 205.870,71.630 206.000,63.739 206.000 C 51.965 206.000,50.724 205.732,49.206 202.859 C 48.782 202.056,48.427 201.653,48.418 201.962 C 48.387 202.950,50.400 205.189,51.873 205.805 C 54.385 206.854,74.167 206.661,75.958 205.569 C 79.939 203.142,80.557 198.180,77.237 195.300 C 75.577 193.860,75.590 194.260,77.262 196.017 M322.247 196.001 C 319.575 198.958,320.439 203.551,324.048 205.579 C 326.030 206.693,346.173 206.851,348.342 205.769 C 349.653 205.115,351.883 202.549,351.485 202.152 C 351.361 202.027,350.964 202.497,350.603 203.194 C 349.302 205.710,347.912 205.981,336.287 205.991 C 328.358 205.998,325.666 205.871,324.640 205.442 C 320.920 203.888,319.927 198.971,322.738 196.017 C 323.584 195.128,324.145 194.400,323.985 194.400 C 323.824 194.400,323.042 195.121,322.247 196.001 M48.800 196.999 C 48.037 198.426,48.480 198.584,49.289 197.174 C 49.660 196.528,49.822 196.000,49.649 196.000 C 49.476 196.000,49.094 196.450,48.800 196.999 M351.709 200.000 C 351.709 200.990,351.787 201.395,351.882 200.900 C 351.978 200.405,351.978 199.595,351.882 199.100 C 351.787 198.605,351.709 199.010,351.709 200.000 M218.800 208.792 C 218.800 209.705,215.894 213.616,213.782 215.547 C 212.527 216.694,211.567 217.687,211.650 217.754 C 213.472 219.222,231.689 234.486,232.000 234.805 C 232.110 234.919,233.190 235.817,234.400 236.803 C 235.610 237.789,238.490 240.195,240.800 242.149 C 243.110 244.104,245.452 246.085,246.004 246.552 C 246.556 247.018,247.996 248.210,249.203 249.200 C 250.410 250.190,251.938 251.474,252.599 252.054 C 253.259 252.634,257.490 256.204,262.000 259.988 C 266.510 263.772,270.652 267.257,271.205 267.734 C 276.612 272.392,282.125 276.844,283.129 277.363 C 288.021 279.893,293.578 274.186,291.027 269.251 C 290.357 267.957,289.647 267.334,272.972 253.413 C 269.027 250.120,265.710 247.323,265.600 247.198 C 265.490 247.073,263.240 245.181,260.600 242.994 C 257.960 240.807,255.710 238.922,255.600 238.804 C 255.490 238.686,254.410 237.784,253.200 236.800 C 251.990 235.816,250.910 234.909,250.800 234.783 C 250.611 234.568,246.385 231.011,235.400 221.820 C 232.760 219.611,230.510 217.710,230.400 217.596 C 230.290 217.482,229.210 216.584,228.000 215.601 C 226.790 214.617,224.378 212.595,222.641 211.106 C 219.544 208.453,218.800 208.005,218.800 208.792 M196.001 322.247 C 195.121 323.042,194.400 323.824,194.400 323.985 C 194.400 324.145,195.128 323.584,196.017 322.738 C 198.971 319.927,203.888 320.920,205.442 324.640 C 205.871 325.666,205.998 328.358,205.991 336.287 C 205.981 347.912,205.710 349.302,203.194 350.603 C 202.497 350.964,202.027 351.361,202.152 351.485 C 202.549 351.883,205.115 349.653,205.769 348.342 C 206.851 346.173,206.693 326.030,205.579 324.048 C 203.551 320.439,198.958 319.575,196.001 322.247 M193.867 325.067 C 193.364 325.570,193.563 346.676,194.082 347.881 C 194.623 349.139,197.062 351.605,197.750 351.591 C 198.207 351.582,196.421 350.025,195.936 350.009 C 194.401 349.957,193.962 346.552,194.081 335.635 C 194.147 329.675,194.185 324.799,194.167 324.800 C 194.148 324.800,194.013 324.920,193.867 325.067 M199.100 351.882 C 199.595 351.978,200.405 351.978,200.900 351.882 C 201.395 351.787,200.990 351.709,200.000 351.709 C 199.010 351.709,198.605 351.787,199.100 351.882 " stroke="none" fill="#87d8f6" fill-rule="evenodd"></path><path id="path4" d="M192.000 33.033 C 191.670 33.110,188.880 33.370,185.800 33.611 C 177.231 34.281,171.529 35.138,163.200 37.008 C 157.102 38.378,147.139 41.228,144.000 42.501 C 142.804 42.987,142.243 43.204,138.600 44.597 C 132.884 46.782,119.180 53.481,114.800 56.231 C 107.898 60.565,104.005 63.174,100.061 66.110 C 96.259 68.940,94.845 70.083,89.820 74.389 C 85.771 77.859,75.015 88.937,71.400 93.360 C 70.520 94.437,69.618 95.517,69.397 95.759 C 67.584 97.740,57.600 111.970,57.600 112.573 C 57.600 112.683,56.880 113.887,56.000 115.248 C 54.369 117.772,47.973 130.339,46.661 133.600 C 46.262 134.590,45.609 136.120,45.209 137.000 C 44.809 137.880,44.266 139.230,44.001 140.000 C 43.736 140.770,43.357 141.805,43.160 142.300 C 42.962 142.795,42.642 143.605,42.448 144.100 C 42.254 144.595,41.512 146.890,40.799 149.200 C 40.086 151.510,39.354 153.850,39.171 154.400 C 34.830 167.480,32.047 192.805,33.154 209.153 C 34.313 226.273,38.651 247.328,43.176 257.800 C 43.366 258.240,43.931 259.680,44.430 261.000 C 44.930 262.320,45.737 264.300,46.225 265.400 C 46.712 266.500,47.504 268.300,47.986 269.400 C 49.376 272.576,53.120 279.842,55.040 283.089 C 56.008 284.726,56.800 286.146,56.800 286.244 C 56.800 286.585,64.161 297.423,66.143 300.000 C 73.584 309.675,78.061 314.612,87.365 323.400 C 92.403 328.158,100.318 334.319,108.081 339.522 C 112.186 342.274,113.181 342.884,117.200 345.110 C 118.190 345.658,119.180 346.243,119.400 346.409 C 120.226 347.032,131.126 352.326,134.200 353.597 C 135.960 354.325,138.163 355.253,139.096 355.660 C 140.028 356.067,140.976 356.400,141.201 356.400 C 141.426 356.400,141.923 356.577,142.305 356.792 C 143.651 357.552,154.699 361.027,158.800 361.979 C 159.570 362.158,161.910 362.699,164.000 363.180 C 189.298 369.011,218.590 368.307,244.000 361.258 C 244.770 361.044,246.480 360.577,247.800 360.219 C 250.231 359.561,254.337 358.224,255.800 357.614 C 256.240 357.431,257.230 357.061,258.000 356.793 C 258.770 356.525,260.163 355.967,261.096 355.553 C 262.028 355.139,262.976 354.800,263.201 354.800 C 263.426 354.800,263.923 354.623,264.305 354.406 C 264.687 354.190,266.260 353.457,267.800 352.779 C 307.572 335.249,339.893 301.453,355.570 261.000 C 356.508 258.580,357.418 256.240,357.592 255.800 C 357.766 255.360,358.142 254.190,358.426 253.200 C 358.711 252.210,359.068 251.220,359.218 251.000 C 359.369 250.780,359.594 250.150,359.718 249.600 C 359.931 248.659,360.303 247.295,361.246 244.000 C 362.611 239.226,364.087 232.276,364.983 226.400 C 365.335 224.090,365.715 221.660,365.827 221.000 C 368.188 207.125,367.176 181.588,363.639 165.800 C 363.442 164.920,363.085 163.300,362.845 162.200 C 362.403 160.168,361.859 158.046,361.177 155.700 C 360.395 153.006,360.046 151.770,359.794 150.800 C 359.650 150.250,359.393 149.440,359.222 149.000 C 359.051 148.560,358.694 147.480,358.429 146.600 C 358.164 145.720,357.755 144.550,357.520 144.000 C 356.973 142.718,356.599 141.740,355.993 140.000 C 355.725 139.230,355.167 137.837,354.753 136.904 C 354.339 135.972,354.000 135.121,354.000 135.014 C 354.000 133.956,345.823 117.760,343.986 115.180 C 343.554 114.573,343.200 113.965,343.200 113.828 C 343.200 112.997,331.642 96.642,329.330 94.200 C 328.913 93.760,328.281 92.980,327.925 92.467 C 326.959 91.073,319.393 83.007,316.248 80.016 C 314.734 78.577,312.934 76.860,312.248 76.200 C 305.757 69.958,291.763 59.815,282.600 54.711 C 276.621 51.381,265.741 46.000,264.986 46.000 C 264.879 46.000,264.028 45.661,263.096 45.246 C 262.163 44.831,260.320 44.094,259.000 43.607 C 257.680 43.120,256.240 42.578,255.800 42.402 C 254.699 41.962,250.540 40.609,248.600 40.060 C 247.720 39.811,245.830 39.261,244.400 38.840 C 238.200 37.010,227.154 34.899,219.200 34.023 C 209.420 32.946,194.670 32.409,192.000 33.033 M215.200 34.187 C 226.455 35.322,233.058 36.499,244.400 39.391 C 245.830 39.756,247.360 40.199,247.800 40.376 C 248.240 40.553,250.400 41.269,252.600 41.967 C 254.800 42.665,256.960 43.384,257.400 43.564 C 257.840 43.745,258.650 44.079,259.200 44.306 C 259.750 44.533,260.830 44.949,261.600 45.230 C 262.370 45.511,264.130 46.249,265.510 46.870 C 266.891 47.492,268.099 48.000,268.196 48.000 C 268.843 48.000,282.549 55.130,284.462 56.461 C 285.046 56.867,285.641 57.200,285.784 57.200 C 286.437 57.200,299.549 66.376,304.400 70.227 C 310.194 74.827,323.869 88.219,327.857 93.200 C 333.606 100.378,342.800 113.317,342.800 114.228 C 342.800 114.365,343.133 114.954,343.539 115.538 C 347.384 121.062,355.223 138.276,357.868 147.000 C 358.201 148.100,358.637 149.313,358.837 149.695 C 359.037 150.077,359.200 150.664,359.200 151.000 C 359.200 151.336,359.371 151.923,359.580 152.305 C 359.789 152.687,360.253 154.170,360.612 155.600 C 360.970 157.030,361.444 158.830,361.665 159.600 C 361.886 160.370,362.223 161.810,362.415 162.800 C 362.607 163.790,362.960 165.500,363.200 166.600 C 363.997 170.245,364.935 176.300,365.680 182.600 C 366.367 188.416,366.372 210.683,365.686 216.600 C 364.412 227.607,362.782 236.525,360.789 243.400 C 360.534 244.280,360.232 245.587,360.119 246.304 C 360.005 247.021,359.751 247.706,359.556 247.827 C 359.360 247.948,359.200 248.476,359.200 249.000 C 359.200 249.524,359.020 250.064,358.800 250.200 C 358.580 250.336,358.400 250.876,358.400 251.400 C 358.400 251.924,358.220 252.464,358.000 252.600 C 357.780 252.736,357.600 253.251,357.600 253.744 C 357.600 254.237,357.457 254.811,357.282 255.020 C 357.107 255.229,356.731 256.120,356.448 257.000 C 356.165 257.880,355.588 259.363,355.166 260.296 C 354.745 261.228,354.400 262.146,354.400 262.334 C 354.400 262.523,354.150 263.200,353.844 263.839 C 353.538 264.477,352.977 265.720,352.597 266.600 C 350.979 270.350,345.795 280.729,344.806 282.200 C 344.214 283.080,343.477 284.385,343.168 285.100 C 342.858 285.815,342.469 286.400,342.302 286.400 C 342.136 286.400,342.000 286.587,342.000 286.815 C 342.000 287.489,335.400 297.132,331.335 302.398 C 324.400 311.380,311.380 324.400,302.398 331.335 C 297.132 335.400,287.489 342.000,286.815 342.000 C 286.587 342.000,286.400 342.136,286.400 342.302 C 286.400 342.469,285.815 342.859,285.100 343.170 C 284.385 343.481,283.710 343.840,283.600 343.968 C 282.818 344.876,263.442 354.400,262.378 354.400 C 262.165 354.400,261.228 354.745,260.296 355.166 C 259.363 355.588,257.880 356.165,257.000 356.450 C 256.120 356.734,255.220 357.077,255.000 357.211 C 254.780 357.346,253.790 357.686,252.800 357.967 C 251.810 358.248,250.687 358.640,250.305 358.839 C 249.923 359.038,249.259 359.200,248.829 359.200 C 248.399 359.200,247.948 359.360,247.827 359.556 C 247.706 359.751,247.021 360.005,246.304 360.119 C 245.587 360.232,244.280 360.534,243.400 360.789 C 238.344 362.255,231.044 363.753,223.800 364.812 C 216.270 365.912,211.337 366.200,200.000 366.200 C 187.141 366.200,182.082 365.813,171.200 363.996 C 169.770 363.758,167.880 363.462,167.000 363.340 C 166.120 363.218,165.229 362.956,165.020 362.759 C 164.811 362.562,163.967 362.400,163.144 362.400 C 162.321 362.400,161.536 362.220,161.400 362.000 C 161.264 361.780,160.681 361.600,160.105 361.600 C 159.034 361.600,156.751 360.980,155.505 360.351 C 155.123 360.158,154.369 360.000,153.829 360.000 C 153.289 360.000,152.736 359.820,152.600 359.600 C 152.464 359.380,151.834 359.200,151.200 359.200 C 150.566 359.200,149.936 359.020,149.800 358.800 C 149.664 358.580,149.201 358.400,148.771 358.400 C 148.341 358.400,147.677 358.226,147.295 358.013 C 146.913 357.800,145.790 357.366,144.800 357.050 C 138.490 355.035,121.952 347.546,117.800 344.824 C 116.920 344.248,115.660 343.511,115.000 343.188 C 114.340 342.864,113.451 342.285,113.025 341.900 C 112.598 341.515,112.089 341.200,111.892 341.200 C 111.557 341.200,104.430 336.489,104.000 335.983 C 103.890 335.853,102.990 335.194,102.000 334.518 C 100.464 333.470,97.186 330.945,94.200 328.511 C 87.323 322.905,76.798 312.382,71.483 305.800 C 68.676 302.324,66.523 299.525,65.482 298.000 C 64.806 297.010,64.136 296.110,63.993 296.000 C 63.607 295.704,58.800 288.471,58.800 288.187 C 58.800 288.054,58.260 287.159,57.600 286.200 C 56.940 285.241,56.400 284.372,56.400 284.269 C 56.400 284.166,55.708 282.938,54.862 281.541 C 53.452 279.211,49.073 270.434,47.408 266.600 C 47.025 265.720,46.462 264.477,46.156 263.839 C 45.850 263.200,45.600 262.523,45.600 262.334 C 45.600 262.146,45.255 261.228,44.834 260.296 C 44.412 259.363,43.835 257.880,43.552 257.000 C 43.269 256.120,42.893 255.229,42.718 255.020 C 42.543 254.811,42.400 254.237,42.400 253.744 C 42.400 253.251,42.220 252.736,42.000 252.600 C 41.780 252.464,41.600 252.001,41.600 251.571 C 41.600 251.141,41.438 250.477,41.239 250.095 C 41.040 249.713,40.662 248.590,40.397 247.600 C 40.133 246.610,39.755 245.387,39.558 244.881 C 39.361 244.376,39.200 243.531,39.200 243.005 C 39.200 242.478,39.039 241.948,38.842 241.826 C 38.645 241.705,38.390 240.929,38.275 240.103 C 38.160 239.276,37.870 237.790,37.632 236.800 C 32.716 216.396,32.359 186.419,36.798 166.800 C 37.022 165.810,37.375 164.190,37.582 163.200 C 38.070 160.874,38.630 158.602,39.211 156.600 C 39.466 155.720,39.768 154.413,39.881 153.696 C 39.995 152.979,40.249 152.294,40.444 152.173 C 40.640 152.052,40.800 151.601,40.800 151.171 C 40.800 150.741,40.958 150.077,41.151 149.695 C 41.344 149.313,41.717 148.280,41.979 147.400 C 44.542 138.817,53.228 120.007,57.247 114.338 C 57.661 113.754,58.000 113.164,58.000 113.026 C 58.000 112.605,64.248 103.423,67.064 99.707 C 75.914 88.029,88.024 75.919,99.707 67.064 C 103.422 64.249,112.604 58.000,113.026 58.000 C 113.164 58.000,113.754 57.661,114.338 57.247 C 116.753 55.535,127.914 49.716,132.400 47.830 C 133.390 47.413,135.010 46.715,136.000 46.278 C 136.990 45.841,138.160 45.353,138.600 45.195 C 139.040 45.037,139.850 44.722,140.400 44.496 C 143.893 43.062,145.798 42.400,146.430 42.400 C 146.827 42.400,147.264 42.220,147.400 42.000 C 147.536 41.780,148.076 41.600,148.600 41.600 C 149.124 41.600,149.664 41.420,149.800 41.200 C 149.936 40.980,150.476 40.800,151.000 40.800 C 151.524 40.800,152.052 40.640,152.173 40.444 C 152.294 40.249,152.979 39.995,153.696 39.881 C 154.413 39.768,155.720 39.466,156.600 39.211 C 158.602 38.630,160.874 38.070,163.200 37.582 C 164.190 37.375,165.810 37.019,166.800 36.792 C 169.781 36.108,179.711 34.664,185.600 34.057 C 191.329 33.467,208.825 33.544,215.200 34.187 M196.400 179.414 C 194.970 179.689,193.710 179.954,193.600 180.004 C 193.490 180.054,193.220 180.061,193.000 180.019 C 192.764 179.974,192.778 180.125,193.035 180.386 C 193.343 180.701,193.787 180.709,194.560 180.415 C 196.291 179.757,200.813 179.481,203.060 179.896 C 205.165 180.285,206.405 179.981,206.394 179.080 C 206.390 178.780,206.249 178.820,206.017 179.185 C 205.701 179.686,205.234 179.700,202.816 179.285 C 199.641 178.741,199.936 178.735,196.400 179.414 M220.880 198.880 C 220.616 199.144,220.398 200.269,220.396 201.380 C 220.392 203.161,219.869 205.520,218.995 207.700 C 218.841 208.085,218.893 208.400,219.111 208.400 C 219.328 208.400,219.605 207.995,219.726 207.500 C 219.846 207.005,220.142 205.817,220.384 204.859 C 220.770 203.325,221.556 198.400,221.414 198.400 C 221.384 198.400,221.144 198.616,220.880 198.880 M178.956 201.667 C 179.206 202.607,179.459 203.030,179.535 202.636 C 179.716 201.705,179.271 200.000,178.848 200.000 C 178.663 200.000,178.711 200.750,178.956 201.667 M179.622 204.620 C 179.610 205.291,179.749 206.011,179.930 206.220 C 180.112 206.429,180.494 207.343,180.778 208.251 C 182.360 213.300,191.098 220.559,195.353 220.360 C 195.858 220.337,195.505 220.102,194.480 219.780 C 187.602 217.617,182.572 212.632,180.420 205.846 C 179.805 203.903,179.640 203.651,179.622 204.620 M215.228 213.661 C 211.427 218.008,206.086 220.366,199.862 220.448 C 196.407 220.493,196.299 220.520,197.956 220.917 C 201.379 221.737,207.869 220.043,211.627 217.349 C 213.894 215.724,217.964 211.462,217.100 211.618 C 217.045 211.628,216.203 212.547,215.228 213.661 " stroke="none" fill="#eba7bd" fill-rule="evenodd"></path></g></svg>