<?xml version="1.0" standalone="no"?>
<!DOCTYPE svg PUBLIC "-//W3C//DTD SVG 20010904//EN"
 "http://www.w3.org/TR/2001/REC-SVG-20010904/DTD/svg10.dtd">
<svg version="1.0" xmlns="http://www.w3.org/2000/svg"
 width="512.000000pt" height="512.000000pt" viewBox="0 0 512.000000 512.000000"
 preserveAspectRatio="xMidYMid meet">

<g transform="translate(0.000000,512.000000) scale(0.100000,-0.100000)"
fill="tomato" stroke="none">
<path d="M2065 4784 c-320 -34 -564 -102 -820 -229 -230 -114 -433 -262 -612
-448 -174 -181 -285 -341 -399 -572 -155 -317 -223 -615 -224 -972 0 -362 67
-656 225 -978 112 -231 224 -391 398 -572 342 -355 774 -577 1282 -660 168
-27 496 -24 675 6 365 62 688 199 981 417 155 116 243 205 284 288 167 339
-191 697 -531 531 -29 -14 -81 -51 -116 -82 -208 -186 -446 -308 -707 -360
-64 -13 -134 -18 -276 -17 -169 0 -202 3 -301 26 -664 157 -1123 730 -1124
1403 0 257 83 542 221 755 223 344 534 558 939 646 65 14 128 19 270 19 206 0
280 -11 457 -70 342 -114 645 -370 806 -682 l47 -92 -57 35 c-111 66 -218 81
-334 44 -121 -37 -223 -141 -261 -264 -37 -121 -11 -260 68 -363 43 -57 872
-724 944 -761 78 -39 170 -51 251 -32 69 16 158 63 197 103 17 18 182 219 367
447 390 480 400 495 400 635 0 105 -20 169 -75 242 -156 207 -448 218 -624 22
l-44 -49 -32 92 c-244 700 -826 1238 -1540 1424 -169 44 -323 65 -515 68 -99
2 -198 2 -220 0z"/>
</g>
</svg>
