<svg id="svg" version="1.1" xmlns="http://www.w3.org/2000/svg" xmlns:xlink="http://www.w3.org/1999/xlink" width="400" height="400" viewBox="0, 0, 400,400"><g id="svgg"><path id="path0" d="M155.000 134.195 C 151.387 135.892,149.382 140.089,150.390 143.843 C 150.882 145.679,152.261 147.151,172.757 167.721 C 198.242 193.296,197.306 192.554,202.404 191.208 C 204.726 190.595,247.758 147.979,249.241 144.824 C 250.865 141.368,249.613 137.253,246.227 134.919 L 244.313 133.600 200.256 133.616 C 163.218 133.629,156.009 133.721,155.000 134.195 M197.400 258.992 C 196.520 259.320,195.714 259.591,195.609 259.594 C 195.504 259.597,177.729 277.283,156.109 298.895 L 116.800 338.191 116.800 344.096 L 116.800 350.002 200.100 349.901 L 283.400 349.800 283.507 340.729 C 283.632 330.228,284.362 332.088,277.800 326.193 C 275.600 324.217,273.529 322.330,273.199 322.000 C 272.868 321.670,271.608 320.514,270.399 319.431 C 269.189 318.348,267.210 316.548,266.000 315.431 C 264.789 314.314,261.999 311.781,259.800 309.802 C 257.600 307.824,254.900 305.375,253.800 304.362 C 251.222 301.986,242.893 294.408,237.795 289.800 C 235.604 287.820,232.820 285.290,231.606 284.178 C 222.934 276.231,210.943 265.367,207.991 262.780 C 203.142 258.532,200.841 257.709,197.400 258.992 " stroke="none" fill="#fbc406" fill-rule="evenodd"></path><path id="path1" d="M117.200 83.780 C 117.200 104.747,117.351 117.949,117.607 119.280 C 117.830 120.446,118.205 122.390,118.438 123.600 C 118.980 126.409,120.022 129.780,121.590 133.800 C 124.944 142.400,131.065 150.180,141.594 159.227 C 147.389 164.208,157.602 173.177,158.401 173.989 C 158.731 174.325,160.171 175.584,161.601 176.787 C 168.368 182.480,171.981 186.847,173.192 190.800 C 173.496 191.790,173.871 192.780,174.027 193.000 C 174.302 193.389,174.524 194.722,175.051 199.144 C 176.060 207.616,171.799 214.584,158.791 225.735 C 158.236 226.211,155.356 228.737,152.391 231.349 C 145.819 237.139,145.362 237.540,141.600 240.800 C 134.761 246.727,128.709 253.116,127.203 256.000 C 126.915 256.550,126.548 257.090,126.387 257.200 C 125.801 257.600,122.713 263.402,121.597 266.200 C 120.128 269.884,118.982 273.585,118.438 276.400 C 118.205 277.610,117.830 279.554,117.607 280.720 C 117.137 283.170,117.030 337.200,117.495 337.200 C 117.658 337.200,135.343 319.665,156.795 298.233 C 198.507 256.562,196.487 258.409,200.374 258.402 C 203.037 258.398,204.682 259.524,212.595 266.769 C 214.138 268.182,216.300 270.151,217.400 271.146 C 218.500 272.141,220.486 273.955,221.812 275.178 C 223.139 276.400,225.209 278.290,226.412 279.378 C 227.616 280.467,229.593 282.267,230.806 283.378 C 234.751 286.993,240.554 292.257,242.571 294.049 C 243.655 295.012,244.917 296.160,245.375 296.600 C 245.833 297.040,247.915 298.930,250.002 300.800 C 252.089 302.670,254.877 305.204,256.198 306.431 C 257.519 307.659,259.590 309.549,260.800 310.631 C 262.010 311.714,263.090 312.690,263.200 312.800 C 263.310 312.910,265.290 314.710,267.600 316.800 C 269.910 318.890,271.890 320.690,272.000 320.800 C 272.210 321.010,280.403 328.474,281.795 329.723 L 282.600 330.446 282.724 306.723 C 282.845 283.477,282.732 280.511,281.539 275.800 C 280.291 270.872,280.367 271.118,279.200 268.200 C 278.980 267.650,278.642 266.795,278.449 266.300 C 277.694 264.363,275.387 259.793,275.102 259.667 C 274.936 259.593,274.800 259.353,274.800 259.132 C 274.800 257.315,265.027 246.235,259.200 241.445 C 256.997 239.634,246.883 230.765,242.781 227.048 C 241.781 226.142,239.891 224.504,238.581 223.409 C 231.464 217.459,226.400 210.981,226.400 207.828 C 226.400 207.509,226.243 207.150,226.052 207.032 C 224.820 206.271,224.821 193.728,226.053 192.967 C 226.244 192.849,226.400 192.491,226.400 192.172 C 226.400 189.031,231.343 182.694,238.391 176.800 C 239.575 175.810,240.919 174.640,241.378 174.200 C 241.837 173.760,243.559 172.237,245.206 170.815 C 246.853 169.394,249.107 167.414,250.215 166.415 C 252.267 164.566,252.638 164.247,257.200 160.417 C 264.078 154.643,274.800 142.734,274.800 140.868 C 274.800 140.647,274.944 140.407,275.119 140.333 C 275.474 140.185,278.397 134.186,279.180 132.000 C 279.455 131.230,279.822 130.240,279.995 129.800 C 280.629 128.184,281.716 123.769,282.363 120.176 C 282.656 118.549,282.800 106.674,282.800 84.076 L 282.800 50.400 200.000 50.400 L 117.200 50.400 117.200 83.780 M243.142 133.571 C 248.162 134.541,251.024 139.477,249.509 144.554 C 248.851 146.758,206.530 189.289,203.574 190.718 C 201.260 191.836,198.759 191.845,196.486 190.745 C 194.280 189.677,152.002 147.454,150.978 145.297 C 148.610 140.308,151.420 134.617,156.767 133.572 C 158.827 133.169,241.057 133.169,243.142 133.571 " stroke="none" fill="#ebebf3" fill-rule="evenodd"></path><path id="path2" d="M100.900 0.287 C 100.185 0.377,99.600 0.619,99.600 0.825 C 99.600 1.031,99.060 1.200,98.400 1.200 C 97.740 1.200,97.200 1.380,97.200 1.600 C 97.200 1.820,96.840 2.000,96.400 2.000 C 95.960 2.000,95.600 2.180,95.600 2.400 C 95.600 2.620,95.357 2.800,95.059 2.800 C 94.762 2.800,93.954 3.340,93.263 4.000 C 92.572 4.660,91.911 5.200,91.793 5.200 C 91.449 5.200,88.000 8.747,88.000 9.101 C 88.000 9.278,87.640 9.683,87.200 10.000 C 86.760 10.317,86.400 10.897,86.400 11.288 C 86.400 11.680,86.220 12.000,86.000 12.000 C 85.780 12.000,85.600 12.360,85.600 12.800 C 85.600 13.240,85.420 13.600,85.200 13.600 C 84.980 13.600,84.800 13.960,84.800 14.400 C 84.800 14.840,84.620 15.200,84.400 15.200 C 84.180 15.200,84.000 15.740,84.000 16.400 C 84.000 17.060,83.820 17.600,83.600 17.600 C 83.380 17.600,83.200 18.579,83.200 19.776 C 83.200 20.973,83.020 22.064,82.800 22.200 C 82.580 22.336,82.400 23.596,82.400 25.000 C 82.400 26.404,82.580 27.664,82.800 27.800 C 83.020 27.936,83.200 29.027,83.200 30.224 C 83.200 31.421,83.380 32.400,83.600 32.400 C 83.820 32.400,84.000 32.940,84.000 33.600 C 84.000 34.260,84.180 34.800,84.400 34.800 C 84.620 34.800,84.800 35.160,84.800 35.600 C 84.800 36.040,84.980 36.400,85.200 36.400 C 85.420 36.400,85.600 36.760,85.600 37.200 C 85.600 37.640,85.780 38.000,86.000 38.000 C 86.220 38.000,86.400 38.320,86.400 38.712 C 86.400 39.103,86.760 39.683,87.200 40.000 C 87.640 40.317,88.000 40.722,88.000 40.899 C 88.000 41.253,91.449 44.800,91.793 44.800 C 91.911 44.800,92.572 45.340,93.263 46.000 C 93.954 46.660,94.762 47.200,95.059 47.200 C 95.357 47.200,95.600 47.380,95.600 47.600 C 95.600 47.820,95.960 48.000,96.400 48.000 C 96.840 48.000,97.200 48.180,97.200 48.400 C 97.200 48.620,97.740 48.800,98.400 48.800 L 99.600 48.800 99.600 85.400 C 99.600 109.533,99.736 122.000,100.000 122.000 C 100.222 122.000,100.400 123.067,100.400 124.400 C 100.400 125.733,100.578 126.800,100.800 126.800 C 101.020 126.800,101.200 127.520,101.200 128.400 C 101.200 129.280,101.380 130.000,101.600 130.000 C 101.820 130.000,102.000 130.720,102.000 131.600 C 102.000 132.480,102.180 133.200,102.400 133.200 C 102.620 133.200,102.800 133.729,102.800 134.376 C 102.800 135.023,102.980 135.664,103.200 135.800 C 103.420 135.936,103.600 136.487,103.600 137.024 C 103.600 137.561,103.780 138.000,104.000 138.000 C 104.220 138.000,104.400 138.349,104.400 138.776 C 104.400 139.203,104.580 139.664,104.800 139.800 C 105.020 139.936,105.200 140.397,105.200 140.824 C 105.200 141.251,105.380 141.600,105.600 141.600 C 105.820 141.600,106.000 141.960,106.000 142.400 C 106.000 142.840,106.180 143.200,106.400 143.200 C 106.620 143.200,106.800 143.560,106.800 144.000 C 106.800 144.440,106.980 144.800,107.200 144.800 C 107.420 144.800,107.600 145.160,107.600 145.600 C 107.600 146.040,107.760 146.400,107.955 146.400 C 108.151 146.400,108.426 147.012,108.566 147.760 C 108.706 148.508,109.086 149.340,109.411 149.609 C 109.735 149.878,110.000 150.333,110.000 150.620 C 110.000 150.908,110.225 151.381,110.500 151.671 C 110.775 151.962,111.255 152.695,111.568 153.300 C 111.880 153.905,112.285 154.400,112.468 154.400 C 112.650 154.400,112.803 154.625,112.807 154.900 C 112.816 155.498,114.307 157.385,116.900 160.079 C 117.945 161.165,118.800 162.194,118.800 162.365 C 118.800 162.790,119.820 163.867,122.200 165.954 C 123.300 166.919,125.460 168.901,127.000 170.360 C 128.540 171.818,130.399 173.459,131.132 174.006 C 131.864 174.553,133.464 175.945,134.686 177.100 C 135.908 178.255,137.067 179.200,137.261 179.200 C 137.456 179.200,138.765 180.325,140.170 181.700 C 143.723 185.176,148.009 189.058,149.200 189.881 C 151.794 191.673,156.000 195.815,156.000 196.578 C 156.000 196.920,156.180 197.200,156.400 197.200 C 156.620 197.200,156.800 197.725,156.800 198.367 C 156.800 199.008,157.025 199.638,157.300 199.767 C 157.700 199.953,157.700 200.047,157.300 200.233 C 157.025 200.362,156.800 201.085,156.800 201.841 C 156.800 203.337,153.572 206.980,149.936 209.588 C 148.013 210.967,144.077 214.478,140.170 218.300 C 138.765 219.675,137.450 220.800,137.248 220.800 C 137.046 220.800,136.008 221.655,134.940 222.700 C 133.873 223.745,131.895 225.450,130.545 226.489 C 129.195 227.527,127.657 228.877,127.128 229.489 C 126.599 230.100,124.823 231.766,123.183 233.191 C 119.911 236.033,118.800 237.159,118.800 237.635 C 118.800 237.806,117.945 238.835,116.900 239.921 C 114.307 242.615,112.816 244.502,112.807 245.100 C 112.803 245.375,112.650 245.600,112.468 245.600 C 112.285 245.600,111.880 246.095,111.568 246.700 C 111.255 247.305,110.775 248.038,110.500 248.329 C 110.225 248.619,110.000 249.092,110.000 249.380 C 110.000 249.667,109.735 250.122,109.411 250.391 C 109.086 250.660,108.706 251.492,108.566 252.240 C 108.426 252.988,108.151 253.600,107.955 253.600 C 107.760 253.600,107.600 253.960,107.600 254.400 C 107.600 254.840,107.420 255.200,107.200 255.200 C 106.980 255.200,106.800 255.560,106.800 256.000 C 106.800 256.440,106.620 256.800,106.400 256.800 C 106.180 256.800,106.000 257.160,106.000 257.600 C 106.000 258.040,105.820 258.400,105.600 258.400 C 105.380 258.400,105.200 258.749,105.200 259.176 C 105.200 259.603,105.020 260.064,104.800 260.200 C 104.580 260.336,104.400 260.797,104.400 261.224 C 104.400 261.651,104.220 262.000,104.000 262.000 C 103.780 262.000,103.600 262.439,103.600 262.976 C 103.600 263.513,103.420 264.064,103.200 264.200 C 102.980 264.336,102.800 264.977,102.800 265.624 C 102.800 266.271,102.620 266.800,102.400 266.800 C 102.180 266.800,102.000 267.520,102.000 268.400 C 102.000 269.280,101.820 270.000,101.600 270.000 C 101.380 270.000,101.200 270.720,101.200 271.600 C 101.200 272.480,101.020 273.200,100.800 273.200 C 100.578 273.200,100.400 274.267,100.400 275.600 C 100.400 276.933,100.222 278.000,100.000 278.000 C 99.736 278.000,99.600 290.467,99.600 314.600 L 99.600 351.200 98.400 351.200 C 97.740 351.200,97.200 351.380,97.200 351.600 C 97.200 351.820,96.840 352.000,96.400 352.000 C 95.960 352.000,95.600 352.180,95.600 352.400 C 95.600 352.620,95.357 352.800,95.059 352.800 C 94.762 352.800,93.954 353.340,93.263 354.000 C 92.572 354.660,91.911 355.200,91.793 355.200 C 91.449 355.200,88.000 358.747,88.000 359.101 C 88.000 359.278,87.640 359.683,87.200 360.000 C 86.760 360.317,86.400 360.897,86.400 361.288 C 86.400 361.680,86.220 362.000,86.000 362.000 C 85.780 362.000,85.600 362.360,85.600 362.800 C 85.600 363.240,85.420 363.600,85.200 363.600 C 84.980 363.600,84.800 363.960,84.800 364.400 C 84.800 364.840,84.620 365.200,84.400 365.200 C 84.180 365.200,84.000 365.740,84.000 366.400 C 84.000 367.060,83.820 367.600,83.600 367.600 C 83.380 367.600,83.200 368.579,83.200 369.776 C 83.200 370.973,83.020 372.064,82.800 372.200 C 82.279 372.522,82.279 377.478,82.800 377.800 C 83.020 377.936,83.200 379.027,83.200 380.224 C 83.200 381.421,83.380 382.400,83.600 382.400 C 83.820 382.400,84.000 382.940,84.000 383.600 C 84.000 384.260,84.180 384.800,84.400 384.800 C 84.620 384.800,84.800 385.160,84.800 385.600 C 84.800 386.040,84.980 386.400,85.200 386.400 C 85.420 386.400,85.600 386.760,85.600 387.200 C 85.600 387.640,85.780 388.000,86.000 388.000 C 86.220 388.000,86.400 388.320,86.400 388.712 C 86.400 389.103,86.760 389.683,87.200 390.000 C 87.640 390.317,88.000 390.722,88.000 390.899 C 88.000 391.253,91.449 394.800,91.793 394.800 C 91.911 394.800,92.572 395.340,93.263 396.000 C 93.954 396.660,94.762 397.200,95.059 397.200 C 95.357 397.200,95.600 397.380,95.600 397.600 C 95.600 397.820,95.960 398.000,96.400 398.000 C 96.840 398.000,97.200 398.180,97.200 398.400 C 97.200 398.620,97.725 398.800,98.367 398.800 C 99.008 398.800,99.608 399.025,99.700 399.300 C 99.945 400.036,300.055 400.036,300.300 399.300 C 300.392 399.025,300.992 398.800,301.633 398.800 C 302.275 398.800,302.800 398.620,302.800 398.400 C 302.800 398.180,303.160 398.000,303.600 398.000 C 304.040 398.000,304.400 397.820,304.400 397.600 C 304.400 397.380,304.643 397.200,304.941 397.200 C 305.238 397.200,306.046 396.660,306.737 396.000 C 307.428 395.340,308.089 394.800,308.207 394.800 C 308.551 394.800,312.000 391.253,312.000 390.899 C 312.000 390.722,312.360 390.317,312.800 390.000 C 313.240 389.683,313.600 389.103,313.600 388.712 C 313.600 388.320,313.780 388.000,314.000 388.000 C 314.220 388.000,314.400 387.640,314.400 387.200 C 314.400 386.760,314.580 386.400,314.800 386.400 C 315.020 386.400,315.200 386.040,315.200 385.600 C 315.200 385.160,315.380 384.800,315.600 384.800 C 315.820 384.800,316.000 384.260,316.000 383.600 C 316.000 382.940,316.180 382.400,316.400 382.400 C 316.620 382.400,316.800 381.421,316.800 380.224 C 316.800 379.027,316.980 377.936,317.200 377.800 C 317.420 377.664,317.600 376.404,317.600 375.000 C 317.600 373.596,317.420 372.336,317.200 372.200 C 316.980 372.064,316.800 370.973,316.800 369.776 C 316.800 368.579,316.620 367.600,316.400 367.600 C 316.180 367.600,316.000 367.060,316.000 366.400 C 316.000 365.740,315.820 365.200,315.600 365.200 C 315.380 365.200,315.200 364.840,315.200 364.400 C 315.200 363.960,315.020 363.600,314.800 363.600 C 314.580 363.600,314.400 363.240,314.400 362.800 C 314.400 362.360,314.220 362.000,314.000 362.000 C 313.780 362.000,313.600 361.680,313.600 361.288 C 313.600 360.897,313.240 360.317,312.800 360.000 C 312.360 359.683,312.000 359.278,312.000 359.101 C 312.000 358.747,308.551 355.200,308.207 355.200 C 308.089 355.200,307.428 354.660,306.737 354.000 C 306.046 353.340,305.238 352.800,304.941 352.800 C 304.643 352.800,304.400 352.620,304.400 352.400 C 304.400 352.180,304.040 352.000,303.600 352.000 C 303.160 352.000,302.800 351.820,302.800 351.600 C 302.800 351.380,302.260 351.200,301.600 351.200 L 300.400 351.200 300.400 314.600 C 300.400 290.467,300.264 278.000,300.000 278.000 C 299.778 278.000,299.600 276.933,299.600 275.600 C 299.600 274.267,299.422 273.200,299.200 273.200 C 298.980 273.200,298.800 272.480,298.800 271.600 C 298.800 270.720,298.620 270.000,298.400 270.000 C 298.180 270.000,298.000 269.280,298.000 268.400 C 298.000 267.520,297.820 266.800,297.600 266.800 C 297.380 266.800,297.200 266.271,297.200 265.624 C 297.200 264.977,297.020 264.336,296.800 264.200 C 296.580 264.064,296.400 263.513,296.400 262.976 C 296.400 262.439,296.220 262.000,296.000 262.000 C 295.780 262.000,295.600 261.651,295.600 261.224 C 295.600 260.797,295.420 260.336,295.200 260.200 C 294.980 260.064,294.800 259.603,294.800 259.176 C 294.800 258.749,294.620 258.400,294.400 258.400 C 294.180 258.400,294.000 258.040,294.000 257.600 C 294.000 257.160,293.820 256.800,293.600 256.800 C 293.380 256.800,293.200 256.440,293.200 256.000 C 293.200 255.560,293.020 255.200,292.800 255.200 C 292.580 255.200,292.400 254.840,292.400 254.400 C 292.400 253.960,292.220 253.600,292.000 253.600 C 291.780 253.600,291.600 253.284,291.600 252.897 C 291.600 252.234,289.770 248.432,289.243 248.000 C 289.109 247.890,288.744 247.305,288.432 246.700 C 288.120 246.095,287.715 245.600,287.532 245.600 C 287.350 245.600,287.197 245.375,287.193 245.100 C 287.184 244.503,285.622 242.513,283.342 240.193 C 282.431 239.265,281.460 238.086,281.186 237.573 C 280.911 237.060,279.771 235.821,278.652 234.820 C 277.533 233.819,275.353 231.798,273.809 230.329 C 272.264 228.860,270.111 226.981,269.024 226.153 C 267.937 225.325,266.164 223.782,265.084 222.724 C 264.003 221.666,262.954 220.800,262.752 220.800 C 262.550 220.800,261.235 219.675,259.830 218.300 C 255.920 214.475,251.987 210.966,250.059 209.584 C 247.636 207.846,244.000 204.141,244.000 203.409 C 244.000 203.074,243.820 202.800,243.600 202.800 C 243.380 202.800,243.200 202.275,243.200 201.633 C 243.200 200.992,242.975 200.362,242.700 200.233 C 242.300 200.047,242.300 199.953,242.700 199.767 C 242.975 199.638,243.200 198.910,243.200 198.147 C 243.200 196.606,246.917 192.564,250.800 189.881 C 251.991 189.058,256.277 185.176,259.830 181.700 C 261.235 180.325,262.544 179.200,262.739 179.200 C 262.933 179.200,264.092 178.255,265.314 177.100 C 266.536 175.945,268.133 174.550,268.863 174.000 C 270.376 172.860,273.088 170.454,275.177 168.400 C 275.959 167.629,277.519 166.180,278.643 165.179 C 279.767 164.179,280.911 162.940,281.186 162.427 C 281.460 161.914,282.431 160.735,283.342 159.807 C 285.622 157.487,287.184 155.497,287.193 154.900 C 287.197 154.625,287.350 154.400,287.532 154.400 C 287.715 154.400,288.120 153.905,288.432 153.300 C 288.744 152.695,289.109 152.110,289.243 152.000 C 289.770 151.568,291.600 147.766,291.600 147.103 C 291.600 146.716,291.780 146.400,292.000 146.400 C 292.220 146.400,292.400 146.040,292.400 145.600 C 292.400 145.160,292.580 144.800,292.800 144.800 C 293.020 144.800,293.200 144.440,293.200 144.000 C 293.200 143.560,293.380 143.200,293.600 143.200 C 293.820 143.200,294.000 142.840,294.000 142.400 C 294.000 141.960,294.180 141.600,294.400 141.600 C 294.620 141.600,294.800 141.251,294.800 140.824 C 294.800 140.397,294.980 139.936,295.200 139.800 C 295.420 139.664,295.600 139.203,295.600 138.776 C 295.600 138.349,295.780 138.000,296.000 138.000 C 296.220 138.000,296.400 137.561,296.400 137.024 C 296.400 136.487,296.580 135.936,296.800 135.800 C 297.020 135.664,297.200 135.023,297.200 134.376 C 297.200 133.729,297.380 133.200,297.600 133.200 C 297.820 133.200,298.000 132.480,298.000 131.600 C 298.000 130.720,298.180 130.000,298.400 130.000 C 298.620 130.000,298.800 129.280,298.800 128.400 C 298.800 127.520,298.980 126.800,299.200 126.800 C 299.422 126.800,299.600 125.733,299.600 124.400 C 299.600 123.067,299.778 122.000,300.000 122.000 C 300.264 122.000,300.400 109.533,300.400 85.400 L 300.400 48.800 301.600 48.800 C 302.260 48.800,302.800 48.620,302.800 48.400 C 302.800 48.180,303.160 48.000,303.600 48.000 C 304.040 48.000,304.400 47.820,304.400 47.600 C 304.400 47.380,304.643 47.200,304.941 47.200 C 305.238 47.200,306.046 46.660,306.737 46.000 C 307.428 45.340,308.089 44.800,308.207 44.800 C 308.551 44.800,312.000 41.253,312.000 40.899 C 312.000 40.722,312.360 40.317,312.800 40.000 C 313.240 39.683,313.600 39.103,313.600 38.712 C 313.600 38.320,313.780 38.000,314.000 38.000 C 314.220 38.000,314.400 37.640,314.400 37.200 C 314.400 36.760,314.580 36.400,314.800 36.400 C 315.020 36.400,315.200 36.040,315.200 35.600 C 315.200 35.160,315.380 34.800,315.600 34.800 C 315.820 34.800,316.000 34.260,316.000 33.600 C 316.000 32.940,316.180 32.400,316.400 32.400 C 316.620 32.400,316.800 31.421,316.800 30.224 C 316.800 29.027,316.980 27.936,317.200 27.800 C 317.721 27.478,317.721 22.522,317.200 22.200 C 316.980 22.064,316.800 20.973,316.800 19.776 C 316.800 18.579,316.620 17.600,316.400 17.600 C 316.180 17.600,316.000 17.060,316.000 16.400 C 316.000 15.740,315.820 15.200,315.600 15.200 C 315.380 15.200,315.200 14.840,315.200 14.400 C 315.200 13.960,315.020 13.600,314.800 13.600 C 314.580 13.600,314.400 13.240,314.400 12.800 C 314.400 12.360,314.220 12.000,314.000 12.000 C 313.780 12.000,313.600 11.680,313.600 11.288 C 313.600 10.897,313.240 10.317,312.800 10.000 C 312.360 9.683,312.000 9.278,312.000 9.101 C 312.000 8.747,308.551 5.200,308.207 5.200 C 308.089 5.200,307.428 4.660,306.737 4.000 C 306.046 3.340,305.238 2.800,304.941 2.800 C 304.643 2.800,304.400 2.620,304.400 2.400 C 304.400 2.180,304.040 2.000,303.600 2.000 C 303.160 2.000,302.800 1.820,302.800 1.600 C 302.800 1.380,302.275 1.200,301.633 1.200 C 300.992 1.200,300.392 0.975,300.300 0.700 C 300.141 0.223,104.625 -0.182,100.900 0.287 M283.520 50.080 C 283.885 50.445,284.000 57.905,284.000 81.211 C 284.000 110.419,283.771 118.053,282.766 122.400 C 281.758 126.757,280.937 129.741,280.374 131.100 C 280.168 131.595,279.841 132.405,279.647 132.900 C 278.696 135.327,275.045 142.400,274.743 142.400 C 274.555 142.400,274.400 142.636,274.400 142.925 C 274.400 143.213,274.040 143.836,273.600 144.308 C 273.160 144.780,272.799 145.309,272.799 145.483 C 272.793 146.739,263.074 156.440,255.000 163.249 C 254.120 163.991,252.590 165.340,251.600 166.247 C 250.610 167.153,249.080 168.503,248.200 169.247 C 247.320 169.991,246.371 170.817,246.090 171.081 C 245.810 171.346,244.740 172.246,243.713 173.081 C 241.742 174.684,238.839 177.304,234.272 181.600 C 231.587 184.126,229.135 187.353,228.043 189.800 C 227.748 190.460,227.348 191.313,227.153 191.695 C 226.959 192.077,226.800 192.831,226.800 193.371 C 226.800 193.911,226.620 194.464,226.400 194.600 C 225.845 194.943,225.891 204.200,226.455 205.972 C 228.811 213.360,231.044 216.016,245.190 228.252 C 246.174 229.103,247.524 230.274,248.190 230.854 C 248.855 231.434,251.110 233.395,253.200 235.213 C 264.322 244.883,267.508 247.886,270.447 251.469 C 271.741 253.046,272.800 254.449,272.800 254.585 C 272.800 254.722,273.160 255.220,273.600 255.692 C 274.040 256.164,274.400 256.787,274.400 257.075 C 274.400 257.364,274.555 257.600,274.743 257.600 C 275.045 257.600,278.696 264.673,279.647 267.100 C 279.841 267.595,280.159 268.405,280.354 268.900 C 280.549 269.395,280.930 270.610,281.201 271.600 C 281.471 272.590,281.833 273.850,282.004 274.400 C 283.738 279.982,284.000 285.800,284.000 318.793 C 284.000 344.145,283.905 349.581,283.458 349.952 C 283.059 350.283,260.893 350.375,199.758 350.301 L 116.600 350.200 116.600 315.400 C 116.600 280.456,116.663 278.588,117.990 274.400 C 118.165 273.850,118.529 272.590,118.799 271.600 C 119.070 270.610,119.451 269.395,119.646 268.900 C 119.841 268.405,120.157 267.595,120.348 267.100 C 121.181 264.946,124.998 257.600,125.285 257.600 C 125.458 257.600,125.600 257.330,125.600 257.000 C 125.600 256.670,125.780 256.400,126.000 256.400 C 126.220 256.400,126.400 256.130,126.400 255.800 C 126.400 255.470,126.567 255.200,126.771 255.200 C 126.975 255.200,127.200 254.959,127.271 254.664 C 127.716 252.819,135.881 244.564,144.200 237.550 C 145.080 236.808,145.890 236.109,146.000 235.997 C 146.110 235.885,147.640 234.535,149.400 232.996 C 151.160 231.458,152.690 230.105,152.800 229.990 C 152.910 229.874,154.167 228.794,155.594 227.590 C 157.021 226.385,158.641 224.950,159.194 224.400 C 159.747 223.850,161.550 222.230,163.200 220.800 C 168.072 216.577,170.330 213.845,171.957 210.200 C 172.252 209.540,172.652 208.687,172.847 208.305 C 173.041 207.923,173.200 207.169,173.200 206.629 C 173.200 206.089,173.380 205.536,173.600 205.400 C 174.155 205.057,174.109 195.800,173.545 194.028 C 171.660 188.119,169.291 184.556,164.377 180.239 C 163.400 179.381,161.250 177.466,159.600 175.983 C 157.950 174.500,154.440 171.428,151.800 169.156 C 149.160 166.884,146.730 164.746,146.400 164.404 C 146.070 164.063,145.170 163.270,144.400 162.642 C 137.074 156.665,127.200 146.775,127.200 145.415 C 127.200 145.278,126.840 144.780,126.400 144.308 C 125.960 143.836,125.600 143.213,125.600 142.925 C 125.600 142.636,125.445 142.400,125.257 142.400 C 124.955 142.400,121.304 135.327,120.353 132.900 C 120.159 132.405,119.835 131.595,119.633 131.100 C 119.432 130.605,119.150 129.750,119.006 129.200 C 118.863 128.650,118.569 127.570,118.354 126.800 C 116.611 120.584,116.689 122.341,116.522 85.637 C 116.435 66.407,116.456 50.432,116.569 50.137 C 116.857 49.387,282.771 49.331,283.520 50.080 " stroke="none" fill="#445c64" fill-rule="evenodd"></path><path id="path3" d="M116.662 49.900 C 116.560 50.065,154.034 50.200,199.938 50.200 L 283.400 50.200 283.517 80.000 C 283.660 116.465,283.301 121.885,280.170 130.600 C 279.982 131.122,280.018 131.261,280.272 131.000 C 280.729 130.531,281.503 127.862,282.766 122.400 C 283.771 118.053,284.000 110.419,284.000 81.211 C 284.000 57.905,283.885 50.445,283.520 50.080 C 282.974 49.534,116.999 49.355,116.662 49.900 M116.619 116.200 C 116.772 119.667,117.443 124.035,118.125 126.000 C 118.239 126.330,118.447 127.116,118.586 127.747 C 118.725 128.378,118.910 128.823,118.997 128.736 C 119.084 128.649,118.986 127.863,118.779 126.989 C 117.707 122.468,117.135 119.254,116.807 115.906 L 116.444 112.200 116.619 116.200 M119.220 129.705 C 119.209 130.093,119.359 130.723,119.553 131.105 C 119.748 131.487,120.086 132.250,120.306 132.800 C 121.261 135.192,124.940 142.400,125.205 142.400 C 125.365 142.400,124.754 141.005,123.848 139.300 C 122.942 137.595,121.534 134.580,120.720 132.600 C 119.906 130.620,119.231 129.317,119.220 129.705 M275.045 141.388 C 274.680 141.944,274.522 142.400,274.695 142.400 C 275.084 142.400,276.119 140.786,275.882 140.549 C 275.786 140.453,275.410 140.831,275.045 141.388 M125.622 143.000 C 125.627 143.529,126.742 144.991,126.969 144.765 C 127.066 144.668,126.802 144.141,126.382 143.594 C 125.961 143.047,125.620 142.780,125.622 143.000 M273.445 143.788 C 273.080 144.344,272.922 144.800,273.095 144.800 C 273.484 144.800,274.519 143.186,274.282 142.949 C 274.186 142.853,273.810 143.231,273.445 143.788 M127.200 145.364 C 127.200 146.289,134.099 153.808,137.400 156.481 C 138.500 157.371,137.577 156.322,135.348 154.150 C 133.120 151.977,130.521 149.210,129.574 148.000 C 127.300 145.097,127.200 144.986,127.200 145.364 M271.195 147.100 C 270.458 148.145,267.773 151.067,265.228 153.594 C 262.682 156.120,261.500 157.444,262.600 156.535 C 265.717 153.961,272.795 146.302,272.799 145.500 C 272.801 144.935,272.534 145.202,271.195 147.100 M140.007 158.841 C 141.621 160.393,145.498 163.600,145.759 163.600 C 146.128 163.600,140.496 158.663,139.868 158.436 C 139.619 158.345,139.681 158.528,140.007 158.841 M253.000 164.466 C 244.095 172.340,241.543 174.671,242.963 173.635 C 244.449 172.550,251.871 166.143,253.200 164.798 C 253.310 164.686,254.568 163.606,255.996 162.398 C 259.169 159.711,260.539 158.391,260.118 158.427 C 259.943 158.442,256.740 161.159,253.000 164.466 M146.471 164.502 C 147.408 165.390,156.172 172.928,157.021 173.575 C 157.950 174.283,155.719 172.108,153.597 170.237 C 147.976 165.283,146.459 164.000,146.218 164.000 C 146.067 164.000,146.181 164.226,146.471 164.502 M159.288 175.700 C 159.796 176.195,161.551 177.770,163.186 179.200 C 166.457 182.059,168.539 184.237,169.871 186.193 C 171.285 188.269,172.400 190.384,172.400 190.989 C 172.400 191.299,172.568 191.657,172.774 191.784 C 173.470 192.214,172.481 189.638,171.038 187.263 C 169.447 184.643,166.926 181.928,162.147 177.687 C 159.121 175.001,157.198 173.665,159.288 175.700 M238.400 177.271 C 237.190 178.370,235.246 180.108,234.080 181.134 C 232.063 182.909,228.172 187.905,228.529 188.262 C 228.621 188.355,229.258 187.556,229.944 186.487 C 231.125 184.647,234.617 181.080,238.954 177.286 C 240.029 176.345,240.839 175.508,240.754 175.425 C 240.670 175.342,239.610 176.173,238.400 177.271 M173.234 193.000 C 173.222 193.440,173.387 194.070,173.600 194.400 C 174.114 195.195,174.114 194.196,173.600 193.000 L 173.256 192.200 173.234 193.000 M226.454 192.867 C 226.425 193.234,226.284 193.864,226.141 194.267 C 225.941 194.833,225.995 194.896,226.375 194.546 C 226.646 194.297,226.787 193.667,226.688 193.146 C 226.590 192.626,226.484 192.500,226.454 192.867 M174.000 200.000 C 174.000 202.493,174.092 204.441,174.205 204.328 C 174.489 204.044,174.512 195.978,174.229 195.696 C 174.103 195.570,174.000 197.507,174.000 200.000 M225.531 198.700 C 225.456 200.185,225.510 202.030,225.651 202.800 C 225.810 203.664,225.926 202.629,225.954 200.100 C 226.006 195.477,225.740 194.595,225.531 198.700 M173.467 205.467 C 173.320 205.613,173.215 206.198,173.234 206.767 C 173.268 207.781,173.275 207.779,173.621 206.620 C 173.985 205.403,173.931 205.002,173.467 205.467 M226.012 205.600 C 226.012 205.930,226.187 206.470,226.400 206.800 C 226.745 207.333,226.788 207.333,226.788 206.800 C 226.788 206.470,226.613 205.930,226.400 205.600 C 226.055 205.067,226.012 205.067,226.012 205.600 M172.573 208.643 C 171.265 212.675,168.629 216.095,163.201 220.800 C 159.379 224.113,159.073 224.406,159.255 224.588 C 159.627 224.960,168.143 216.901,169.726 214.679 C 171.598 212.053,173.402 208.469,173.037 208.104 C 172.917 207.984,172.708 208.226,172.573 208.643 M227.600 210.224 C 227.600 210.974,230.629 215.328,232.489 217.251 C 235.103 219.953,240.800 225.000,240.800 224.612 C 240.800 224.455,239.945 223.579,238.900 222.664 C 233.047 217.541,228.400 212.311,228.400 210.846 C 228.400 210.626,228.220 210.336,228.000 210.200 C 227.780 210.064,227.600 210.075,227.600 210.224 M156.600 226.669 C 155.940 227.244,154.796 228.239,154.058 228.881 C 153.320 229.524,152.780 230.112,152.858 230.189 C 152.936 230.266,154.170 229.271,155.600 227.978 C 158.153 225.669,158.953 224.622,156.600 226.669 M244.400 227.921 C 245.830 229.246,247.064 230.266,247.142 230.189 C 247.294 230.040,245.490 228.401,243.200 226.609 C 242.430 226.007,242.970 226.597,244.400 227.921 M149.089 233.240 C 147.378 234.758,146.094 236.000,146.236 236.000 C 146.377 236.000,147.777 234.882,149.346 233.516 C 150.916 232.149,152.275 230.979,152.367 230.916 C 152.458 230.852,152.458 230.728,152.367 230.640 C 152.275 230.553,150.800 231.723,149.089 233.240 M247.619 230.625 C 247.630 230.831,248.575 231.766,249.719 232.702 C 250.864 233.638,252.340 234.899,253.000 235.505 C 256.372 238.601,259.904 241.600,260.175 241.600 C 260.486 241.600,259.862 241.030,253.400 235.403 C 251.420 233.679,249.305 231.815,248.700 231.260 C 248.095 230.705,247.609 230.419,247.619 230.625 M144.183 237.512 C 143.513 238.110,142.181 239.278,141.223 240.107 C 140.264 240.936,139.552 241.682,139.640 241.766 C 139.728 241.850,141.200 240.677,142.911 239.160 C 144.622 237.642,145.882 236.405,145.711 236.412 C 145.540 236.418,144.852 236.913,144.183 237.512 M133.704 247.012 C 131.387 249.329,129.603 251.337,129.740 251.473 C 129.877 251.610,130.385 251.200,130.868 250.561 C 131.352 249.922,133.289 247.920,135.174 246.112 C 137.058 244.303,138.446 242.818,138.258 242.812 C 138.070 242.805,136.021 244.696,133.704 247.012 M265.411 246.625 C 267.618 248.811,270.127 251.541,270.987 252.691 C 271.847 253.841,272.630 254.704,272.726 254.607 C 273.169 254.164,264.966 245.163,262.600 243.495 C 261.940 243.030,263.205 244.439,265.411 246.625 M128.053 253.242 C 127.532 253.901,127.179 254.512,127.268 254.601 C 127.357 254.690,127.926 254.141,128.532 253.381 C 129.138 252.622,129.491 252.010,129.317 252.022 C 129.143 252.034,128.574 252.583,128.053 253.242 M273.445 256.212 C 273.810 256.769,274.186 257.147,274.282 257.051 C 274.519 256.814,273.484 255.200,273.095 255.200 C 272.922 255.200,273.080 255.656,273.445 256.212 M122.833 261.900 C 121.657 264.265,120.563 266.560,120.401 267.000 C 120.240 267.440,119.918 268.250,119.687 268.800 C 119.456 269.350,119.150 270.250,119.006 270.800 C 118.863 271.350,118.570 272.430,118.355 273.200 C 117.301 276.967,116.780 280.155,116.619 283.800 L 116.444 287.800 116.807 284.094 C 117.617 275.824,119.274 270.048,122.999 262.500 C 124.329 259.805,125.316 257.600,125.193 257.600 C 125.070 257.600,124.008 259.535,122.833 261.900 M275.474 259.421 C 276.034 260.422,276.566 261.168,276.656 261.077 C 276.889 260.845,275.114 257.600,274.754 257.600 C 274.590 257.600,274.914 258.419,275.474 259.421 M279.408 267.624 C 280.116 269.856,280.768 271.040,280.784 270.124 C 280.793 269.642,280.620 269.136,280.400 269.000 C 280.180 268.864,280.000 268.414,280.000 268.000 C 280.000 267.586,279.801 267.124,279.557 266.974 C 279.254 266.786,279.207 266.991,279.408 267.624 M281.044 272.200 C 281.167 272.860,281.361 273.670,281.475 274.000 C 283.305 279.272,283.646 286.966,283.517 320.000 L 283.400 349.800 200.111 349.901 L 116.821 350.002 116.694 344.101 L 116.566 338.200 116.583 344.200 L 116.600 350.200 199.758 350.301 C 260.893 350.375,283.059 350.283,283.458 349.952 C 284.726 348.900,284.099 283.363,282.766 277.600 C 281.757 273.237,280.512 269.332,281.044 272.200 " stroke="none" fill="#6e7f88" fill-rule="evenodd"></path><path id="path4" d="M116.668 50.266 C 116.312 50.621,116.424 110.950,116.788 114.800 C 116.943 116.450,117.100 102.635,117.135 84.100 L 117.200 50.400 200.000 50.400 L 282.800 50.400 282.855 84.300 C 282.890 106.158,283.032 116.850,283.252 114.400 C 283.440 112.310,283.551 97.010,283.497 80.400 L 283.400 50.200 200.168 50.099 C 154.390 50.044,116.815 50.119,116.668 50.266 M117.287 119.200 C 117.283 119.970,117.424 121.050,117.600 121.600 C 118.048 122.999,118.048 120.761,117.600 119.000 L 117.295 117.800 117.287 119.200 M282.182 120.582 C 282.029 121.602,282.002 122.535,282.122 122.655 C 282.242 122.775,282.465 122.039,282.618 121.018 C 282.771 119.998,282.798 119.065,282.678 118.945 C 282.558 118.825,282.335 119.561,282.182 120.582 M118.068 123.600 C 118.062 124.150,118.211 124.960,118.400 125.400 L 118.744 126.200 118.732 125.400 C 118.726 124.960,118.576 124.150,118.400 123.600 L 118.080 122.600 118.068 123.600 M281.488 124.133 C 281.010 125.349,281.124 126.373,281.639 125.487 C 281.867 125.096,281.991 124.466,281.915 124.087 C 281.788 123.460,281.751 123.464,281.488 124.133 M118.806 126.877 C 118.798 127.816,120.917 133.449,121.087 132.939 C 121.163 132.711,120.859 131.672,120.413 130.629 C 119.966 129.587,119.597 128.434,119.594 128.067 C 119.585 127.106,118.815 125.943,118.806 126.877 M280.673 127.353 C 280.523 127.745,280.411 128.366,280.425 128.733 C 280.442 129.175,280.581 129.074,280.837 128.434 C 281.049 127.903,281.161 127.282,281.085 127.054 C 281.009 126.827,280.824 126.961,280.673 127.353 M279.772 130.243 C 279.051 132.455,278.533 133.705,277.058 136.800 C 276.167 138.670,275.295 140.260,275.119 140.333 C 274.944 140.407,274.800 140.647,274.800 140.868 C 274.800 141.987,270.006 148.004,265.311 152.778 C 262.403 155.736,260.084 158.217,260.159 158.292 C 260.657 158.790,270.565 148.096,273.029 144.400 C 276.869 138.641,280.912 130.378,280.225 129.692 C 280.112 129.578,279.908 129.826,279.772 130.243 M178.900 133.500 C 190.505 133.559,209.495 133.559,221.100 133.500 C 232.705 133.441,223.210 133.393,200.000 133.393 C 176.790 133.393,167.295 133.441,178.900 133.500 M124.646 140.900 C 128.504 147.478,132.738 152.126,142.600 160.609 C 144.360 162.123,145.890 163.461,146.000 163.581 C 146.110 163.702,147.550 164.970,149.200 166.400 C 150.850 167.830,152.290 169.089,152.400 169.200 C 153.669 170.471,158.800 174.807,158.800 174.607 C 158.800 174.462,158.575 174.129,158.300 173.867 C 157.286 172.901,146.128 163.123,141.594 159.227 C 134.705 153.308,129.581 147.804,126.207 142.700 C 124.895 140.715,123.791 139.442,124.646 140.900 M258.200 159.472 C 257.540 160.048,255.927 161.437,254.615 162.559 C 253.304 163.682,251.324 165.417,250.215 166.415 C 249.107 167.414,246.853 169.394,245.206 170.815 C 243.559 172.237,241.837 173.760,241.378 174.200 C 240.919 174.640,239.575 175.810,238.391 176.800 C 231.411 182.638,226.345 189.106,226.411 192.096 C 226.417 192.373,226.912 191.520,227.511 190.200 C 229.816 185.120,231.338 183.403,240.801 175.200 C 242.450 173.771,243.890 172.507,244.000 172.392 C 244.110 172.277,247.665 169.158,251.900 165.462 C 258.623 159.593,259.958 158.355,259.500 158.413 C 259.445 158.420,258.860 158.896,258.200 159.472 M161.993 177.461 C 167.266 182.287,169.541 184.775,171.187 187.519 C 172.072 188.994,172.797 189.969,172.798 189.687 C 172.806 187.771,166.837 180.984,161.143 176.435 C 159.724 175.301,160.011 175.648,161.993 177.461 M172.812 190.800 C 172.812 191.130,172.987 191.670,173.200 192.000 C 173.545 192.533,173.588 192.533,173.588 192.000 C 173.588 191.670,173.413 191.130,173.200 190.800 C 172.855 190.267,172.812 190.267,172.812 190.800 M173.863 194.080 C 174.200 195.849,174.400 196.001,174.400 194.490 C 174.400 193.807,174.223 193.138,174.006 193.004 C 173.760 192.852,173.706 193.255,173.863 194.080 M225.839 193.243 C 225.090 195.565,224.637 201.539,225.114 202.800 C 225.403 203.565,225.503 202.983,225.540 200.321 C 225.566 198.408,225.776 195.999,226.007 194.968 C 226.391 193.255,226.262 191.931,225.839 193.243 M174.475 200.200 C 174.464 202.764,174.581 203.913,174.801 203.400 C 175.236 202.384,175.248 198.055,174.818 197.000 C 174.617 196.507,174.485 197.736,174.475 200.200 M225.654 205.220 C 225.625 206.001,225.749 206.811,225.930 207.020 C 226.112 207.229,226.504 208.174,226.801 209.120 C 227.098 210.066,227.489 210.932,227.671 211.044 C 227.852 211.156,227.563 210.021,227.030 208.524 C 226.496 207.026,225.981 205.350,225.884 204.800 C 225.751 204.038,225.696 204.138,225.654 205.220 M173.721 206.200 C 173.465 207.300,173.127 208.560,172.969 209.000 C 172.782 209.522,172.818 209.661,173.072 209.400 C 173.661 208.795,174.504 205.835,174.335 204.966 C 174.249 204.522,173.991 205.039,173.721 206.200 M170.000 214.287 C 168.262 216.812,166.338 218.659,156.969 226.794 C 154.566 228.880,152.510 230.681,152.400 230.794 C 152.290 230.908,150.850 232.170,149.200 233.600 C 147.550 235.030,146.110 236.291,146.000 236.403 C 145.890 236.515,144.360 237.865,142.600 239.404 C 131.953 248.708,127.312 253.896,124.356 259.800 L 123.555 261.400 124.368 260.400 C 124.816 259.850,125.186 259.209,125.191 258.975 C 125.196 258.742,125.536 258.191,125.946 257.750 C 126.356 257.310,126.924 256.511,127.208 255.975 C 128.742 253.081,134.801 246.692,141.600 240.800 C 145.362 237.540,145.819 237.139,152.391 231.349 C 155.356 228.737,158.236 226.211,158.791 225.735 C 166.102 219.468,169.501 216.041,171.356 213.065 C 172.746 210.837,171.767 211.719,170.000 214.287 M228.000 211.822 C 228.000 213.196,233.274 218.972,238.581 223.409 C 239.891 224.504,241.781 226.142,242.781 227.048 C 246.883 230.765,256.997 239.634,259.200 241.445 C 265.088 246.285,274.800 257.317,274.800 259.165 C 274.800 259.404,274.991 259.600,275.224 259.600 C 275.707 259.600,275.637 259.465,273.460 256.200 C 269.798 250.707,266.335 247.083,257.400 239.392 C 255.640 237.877,254.110 236.539,254.000 236.419 C 253.890 236.298,252.450 235.030,250.800 233.600 C 249.150 232.170,247.710 230.907,247.600 230.792 C 247.490 230.678,244.520 228.078,241.000 225.016 C 233.600 218.577,230.721 215.691,229.323 213.304 C 228.395 211.721,228.000 211.279,228.000 211.822 M275.670 260.205 C 275.810 260.641,277.835 264.953,278.435 266.095 C 278.636 266.477,278.800 267.051,278.800 267.371 C 278.800 267.691,278.999 268.076,279.243 268.226 C 279.866 268.611,279.393 267.191,277.771 263.800 C 276.560 261.269,275.340 259.183,275.670 260.205 M120.215 268.615 C 119.830 269.624,119.598 270.532,119.700 270.633 C 119.801 270.735,120.200 269.993,120.585 268.985 C 120.970 267.976,121.202 267.068,121.100 266.967 C 120.999 266.865,120.600 267.607,120.215 268.615 M280.434 271.400 C 280.422 271.840,280.587 272.470,280.800 272.800 C 281.314 273.595,281.314 272.596,280.800 271.400 L 280.456 270.600 280.434 271.400 M119.088 271.733 C 118.610 272.949,118.724 273.973,119.239 273.087 C 119.467 272.696,119.591 272.066,119.515 271.687 C 119.388 271.060,119.351 271.064,119.088 271.733 M118.178 275.378 C 118.027 276.181,117.994 276.927,118.104 277.037 C 118.214 277.147,118.427 276.581,118.578 275.778 C 118.728 274.975,118.762 274.228,118.652 274.118 C 118.542 274.008,118.328 274.575,118.178 275.378 M281.212 274.600 C 281.212 275.040,281.387 275.670,281.600 276.000 C 281.921 276.497,281.988 276.462,281.988 275.800 C 281.988 275.360,281.813 274.730,281.600 274.400 C 281.279 273.903,281.212 273.938,281.212 274.600 M282.080 278.200 C 282.080 278.860,282.224 279.850,282.400 280.400 C 282.711 281.372,282.720 281.367,282.720 280.200 C 282.720 279.540,282.576 278.550,282.400 278.000 C 282.089 277.028,282.080 277.033,282.080 278.200 M117.388 279.338 C 117.239 280.335,117.199 281.386,117.300 281.675 C 117.400 281.964,117.618 281.243,117.782 280.074 C 117.947 278.905,117.987 277.854,117.871 277.738 C 117.755 277.622,117.538 278.342,117.388 279.338 M282.871 306.200 C 282.834 321.378,282.959 330.827,283.200 331.200 C 283.652 331.899,283.663 289.577,283.212 284.800 C 283.057 283.150,282.903 292.780,282.871 306.200 M116.677 287.600 C 116.214 295.337,116.492 338.675,117.000 337.962 C 117.262 337.594,117.331 327.883,117.200 309.800 C 117.055 289.729,116.912 283.673,116.677 287.600 " stroke="none" fill="#a4aeb4" fill-rule="evenodd"></path></g></svg>