<svg id="svg" version="1.1" xmlns="http://www.w3.org/2000/svg" xmlns:xlink="http://www.w3.org/1999/xlink" width="400" height="400" viewBox="0, 0, 400,400"><g id="svgg"><path id="path0" d="M382.100 0.271 C 381.385 0.370,380.800 0.619,380.800 0.825 C 380.800 1.031,380.260 1.200,379.600 1.200 C 378.940 1.200,378.400 1.380,378.400 1.600 C 378.400 1.820,377.770 2.000,377.000 2.000 C 376.230 2.000,375.600 2.180,375.600 2.400 C 375.600 2.620,375.060 2.800,374.400 2.800 C 373.740 2.800,373.200 2.980,373.200 3.200 C 373.200 3.420,372.581 3.600,371.824 3.600 C 371.067 3.600,370.336 3.780,370.200 4.000 C 370.064 4.220,369.423 4.400,368.776 4.400 C 368.129 4.400,367.600 4.580,367.600 4.800 C 367.600 5.020,367.060 5.200,366.400 5.200 C 365.740 5.200,365.200 5.380,365.200 5.600 C 365.200 5.820,364.660 6.000,364.000 6.000 C 363.340 6.000,362.800 6.180,362.800 6.400 C 362.800 6.620,362.170 6.800,361.400 6.800 C 360.630 6.800,360.000 6.980,360.000 7.200 C 360.000 7.420,359.460 7.600,358.800 7.600 C 358.140 7.600,357.600 7.755,357.600 7.944 C 357.600 8.134,356.687 8.397,355.571 8.529 C 353.531 8.770,351.196 9.397,349.905 10.049 C 349.523 10.242,348.859 10.400,348.429 10.400 C 347.999 10.400,347.536 10.580,347.400 10.800 C 347.264 11.020,346.533 11.200,345.776 11.200 C 345.019 11.200,344.400 11.380,344.400 11.600 C 344.400 11.820,343.860 12.000,343.200 12.000 C 342.540 12.000,342.000 12.180,342.000 12.400 C 342.000 12.620,341.471 12.800,340.824 12.800 C 340.177 12.800,339.536 12.980,339.400 13.200 C 339.264 13.420,338.634 13.600,338.000 13.600 C 337.366 13.600,336.736 13.780,336.600 14.000 C 336.464 14.220,335.823 14.400,335.176 14.400 C 334.529 14.400,334.000 14.580,334.000 14.800 C 334.000 15.020,333.460 15.200,332.800 15.200 C 332.140 15.200,331.600 15.380,331.600 15.600 C 331.600 15.820,330.981 16.000,330.224 16.000 C 329.467 16.000,328.736 16.180,328.600 16.400 C 328.464 16.620,327.924 16.800,327.400 16.800 C 326.876 16.800,326.336 16.980,326.200 17.200 C 326.064 17.420,325.513 17.600,324.976 17.600 C 324.439 17.600,324.000 17.780,324.000 18.000 C 324.000 18.220,323.280 18.400,322.400 18.400 C 321.520 18.400,320.800 18.580,320.800 18.800 C 320.800 19.020,320.260 19.200,319.600 19.200 C 318.940 19.200,318.400 19.380,318.400 19.600 C 318.400 19.820,317.860 20.000,317.200 20.000 C 316.540 20.000,316.000 20.180,316.000 20.400 C 316.000 20.620,315.381 20.800,314.624 20.800 C 313.867 20.800,313.136 20.980,313.000 21.200 C 312.864 21.420,312.223 21.600,311.576 21.600 C 310.929 21.600,310.400 21.780,310.400 22.000 C 310.400 22.220,309.950 22.400,309.400 22.400 C 308.850 22.400,308.400 22.580,308.400 22.800 C 308.400 23.020,307.680 23.200,306.800 23.200 C 305.920 23.200,305.200 23.380,305.200 23.600 C 305.200 23.820,304.660 24.000,304.000 24.000 C 303.340 24.000,302.800 24.156,302.800 24.346 C 302.800 24.536,301.945 24.808,300.900 24.950 C 298.878 25.226,293.862 26.624,292.705 27.234 C 292.323 27.435,291.569 27.600,291.029 27.600 C 290.489 27.600,289.936 27.780,289.800 28.000 C 289.664 28.220,289.023 28.400,288.376 28.400 C 287.729 28.400,287.200 28.580,287.200 28.800 C 287.200 29.020,286.660 29.200,286.000 29.200 C 285.340 29.200,284.800 29.380,284.800 29.600 C 284.800 29.820,284.181 30.000,283.424 30.000 C 282.667 30.000,281.936 30.180,281.800 30.400 C 281.664 30.620,281.124 30.800,280.600 30.800 C 280.076 30.800,279.536 30.980,279.400 31.200 C 279.264 31.420,278.724 31.600,278.200 31.600 C 277.676 31.600,277.136 31.780,277.000 32.000 C 276.864 32.220,276.133 32.400,275.376 32.400 C 274.619 32.400,274.000 32.580,274.000 32.800 C 274.000 33.020,273.460 33.200,272.800 33.200 C 272.140 33.200,271.600 33.380,271.600 33.600 C 271.600 33.820,271.060 34.000,270.400 34.000 C 269.740 34.000,269.200 34.180,269.200 34.400 C 269.200 34.620,268.480 34.800,267.600 34.800 C 266.720 34.800,266.000 34.980,266.000 35.200 C 266.000 35.420,265.460 35.600,264.800 35.600 C 264.140 35.600,263.600 35.780,263.600 36.000 C 263.600 36.220,263.060 36.400,262.400 36.400 C 261.740 36.400,261.200 36.580,261.200 36.800 C 261.200 37.020,260.570 37.200,259.800 37.200 C 259.030 37.200,258.400 37.380,258.400 37.600 C 258.400 37.820,257.860 38.000,257.200 38.000 C 256.540 38.000,256.000 38.180,256.000 38.400 C 256.000 38.620,255.460 38.800,254.800 38.800 C 254.140 38.800,253.600 38.980,253.600 39.200 C 253.600 39.420,252.880 39.600,252.000 39.600 C 251.120 39.600,250.400 39.780,250.400 40.000 C 250.400 40.220,249.860 40.400,249.200 40.400 C 248.540 40.400,248.000 40.580,248.000 40.800 C 248.000 41.020,247.595 41.210,247.100 41.223 C 245.951 41.252,240.904 42.562,240.541 42.925 C 240.390 43.076,239.757 43.200,239.133 43.200 C 238.510 43.200,238.000 43.380,238.000 43.600 C 238.000 43.820,237.608 44.000,237.128 44.000 C 236.208 44.000,233.872 44.660,232.705 45.249 C 232.323 45.442,231.558 45.600,231.005 45.600 C 230.452 45.600,230.000 45.780,230.000 46.000 C 230.000 46.220,229.370 46.400,228.600 46.400 C 227.830 46.400,227.200 46.580,227.200 46.800 C 227.200 47.020,226.660 47.200,226.000 47.200 C 225.340 47.200,224.800 47.380,224.800 47.600 C 224.800 47.820,224.260 48.000,223.600 48.000 C 222.940 48.000,222.400 48.180,222.400 48.400 C 222.400 48.620,221.680 48.800,220.800 48.800 C 219.920 48.800,219.200 48.980,219.200 49.200 C 219.200 49.420,218.660 49.600,218.000 49.600 C 217.340 49.600,216.800 49.780,216.800 50.000 C 216.800 50.220,216.260 50.400,215.600 50.400 C 214.940 50.400,214.400 50.580,214.400 50.800 C 214.400 51.020,213.781 51.200,213.024 51.200 C 212.267 51.200,211.536 51.380,211.400 51.600 C 211.264 51.820,210.713 52.000,210.176 52.000 C 209.639 52.000,209.200 52.180,209.200 52.400 C 209.200 52.620,208.660 52.800,208.000 52.800 C 207.340 52.800,206.800 52.980,206.800 53.200 C 206.800 53.420,206.080 53.600,205.200 53.600 C 204.320 53.600,203.600 53.780,203.600 54.000 C 203.600 54.220,203.060 54.400,202.400 54.400 C 201.740 54.400,201.200 54.580,201.200 54.800 C 201.200 55.020,200.660 55.200,200.000 55.200 C 199.340 55.200,198.800 55.380,198.800 55.600 C 198.800 55.820,198.181 56.000,197.424 56.000 C 196.667 56.000,195.936 56.180,195.800 56.400 C 195.664 56.620,195.124 56.800,194.600 56.800 C 194.076 56.800,193.536 56.980,193.400 57.200 C 193.264 57.420,192.713 57.600,192.176 57.600 C 191.639 57.600,191.200 57.780,191.200 58.000 C 191.200 58.220,190.591 58.400,189.846 58.400 C 188.496 58.400,184.823 59.348,183.505 60.037 C 183.123 60.237,182.506 60.400,182.134 60.400 C 181.377 60.400,178.971 61.111,177.905 61.649 C 177.523 61.842,176.848 62.000,176.405 62.000 C 175.962 62.000,175.600 62.180,175.600 62.400 C 175.600 62.620,174.981 62.800,174.224 62.800 C 173.467 62.800,172.736 62.980,172.600 63.200 C 172.464 63.420,171.823 63.600,171.176 63.600 C 170.529 63.600,170.000 63.780,170.000 64.000 C 170.000 64.220,169.460 64.400,168.800 64.400 C 168.140 64.400,167.600 64.580,167.600 64.800 C 167.600 65.020,166.981 65.200,166.224 65.200 C 165.467 65.200,164.736 65.380,164.600 65.600 C 164.464 65.820,163.823 66.000,163.176 66.000 C 162.529 66.000,162.000 66.180,162.000 66.400 C 162.000 66.620,161.561 66.800,161.024 66.800 C 160.487 66.800,159.936 66.980,159.800 67.200 C 159.664 67.420,158.933 67.600,158.176 67.600 C 157.419 67.600,156.800 67.780,156.800 68.000 C 156.800 68.220,156.260 68.400,155.600 68.400 C 154.940 68.400,154.400 68.580,154.400 68.800 C 154.400 69.020,153.860 69.200,153.200 69.200 C 152.540 69.200,152.000 69.380,152.000 69.600 C 152.000 69.820,151.280 70.000,150.400 70.000 C 149.520 70.000,148.800 70.180,148.800 70.400 C 148.800 70.620,148.260 70.800,147.600 70.800 C 146.940 70.800,146.400 70.980,146.400 71.200 C 146.400 71.420,145.860 71.600,145.200 71.600 C 144.540 71.600,144.000 71.780,144.000 72.000 C 144.000 72.220,143.370 72.400,142.600 72.400 C 141.830 72.400,141.200 72.580,141.200 72.800 C 141.200 73.020,140.660 73.200,140.000 73.200 C 139.340 73.200,138.800 73.380,138.800 73.600 C 138.800 73.820,138.260 74.000,137.600 74.000 C 136.940 74.000,136.400 74.180,136.400 74.400 C 136.400 74.620,135.831 74.800,135.135 74.800 C 133.853 74.800,129.977 75.791,128.705 76.443 C 128.323 76.640,127.569 76.800,127.029 76.800 C 126.489 76.800,125.936 76.980,125.800 77.200 C 125.664 77.420,125.023 77.600,124.376 77.600 C 123.729 77.600,123.200 77.780,123.200 78.000 C 123.200 78.220,122.660 78.400,122.000 78.400 C 121.340 78.400,120.800 78.580,120.800 78.800 C 120.800 79.020,120.181 79.200,119.424 79.200 C 118.667 79.200,117.936 79.380,117.800 79.600 C 117.664 79.820,117.023 80.000,116.376 80.000 C 115.729 80.000,115.200 80.180,115.200 80.400 C 115.200 80.620,114.660 80.800,114.000 80.800 C 113.340 80.800,112.800 80.980,112.800 81.200 C 112.800 81.420,112.170 81.600,111.400 81.600 C 110.630 81.600,110.000 81.780,110.000 82.000 C 110.000 82.220,109.460 82.400,108.800 82.400 C 108.140 82.400,107.600 82.580,107.600 82.800 C 107.600 83.020,107.060 83.200,106.400 83.200 C 105.740 83.200,105.200 83.380,105.200 83.600 C 105.200 83.820,104.480 84.000,103.600 84.000 C 102.720 84.000,102.000 84.180,102.000 84.400 C 102.000 84.620,101.460 84.800,100.800 84.800 C 100.140 84.800,99.600 84.980,99.600 85.200 C 99.600 85.420,99.060 85.600,98.400 85.600 C 97.740 85.600,97.200 85.780,97.200 86.000 C 97.200 86.220,96.581 86.400,95.824 86.400 C 95.067 86.400,94.336 86.580,94.200 86.800 C 94.064 87.020,93.513 87.200,92.976 87.200 C 92.439 87.200,92.000 87.380,92.000 87.600 C 92.000 87.820,91.460 88.000,90.800 88.000 C 90.140 88.000,89.600 88.180,89.600 88.400 C 89.600 88.620,88.880 88.800,88.000 88.800 C 87.120 88.800,86.400 88.980,86.400 89.200 C 86.400 89.420,85.860 89.600,85.200 89.600 C 84.540 89.600,84.000 89.780,84.000 90.000 C 84.000 90.220,83.460 90.400,82.800 90.400 C 82.140 90.400,81.600 90.561,81.600 90.758 C 81.600 90.955,80.925 91.210,80.100 91.325 C 78.011 91.615,74.526 92.540,74.166 92.900 C 74.002 93.065,73.504 93.200,73.062 93.200 C 72.198 93.200,69.840 93.876,68.705 94.449 C 68.323 94.642,67.558 94.800,67.005 94.800 C 66.452 94.800,66.000 94.980,66.000 95.200 C 66.000 95.420,65.381 95.600,64.624 95.600 C 63.867 95.600,63.136 95.780,63.000 96.000 C 62.864 96.220,62.324 96.400,61.800 96.400 C 61.276 96.400,60.736 96.580,60.600 96.800 C 60.464 97.020,59.913 97.200,59.376 97.200 C 58.839 97.200,58.400 97.380,58.400 97.600 C 58.400 97.820,57.680 98.000,56.800 98.000 C 55.920 98.000,55.200 98.180,55.200 98.400 C 55.200 98.620,54.660 98.800,54.000 98.800 C 53.340 98.800,52.800 98.980,52.800 99.200 C 52.800 99.420,52.260 99.600,51.600 99.600 C 50.940 99.600,50.400 99.780,50.400 100.000 C 50.400 100.220,49.781 100.400,49.024 100.400 C 48.267 100.400,47.536 100.580,47.400 100.800 C 47.264 101.020,46.623 101.200,45.976 101.200 C 45.329 101.200,44.800 101.380,44.800 101.600 C 44.800 101.820,44.361 102.000,43.824 102.000 C 43.287 102.000,42.736 102.180,42.600 102.400 C 42.464 102.620,41.733 102.800,40.976 102.800 C 40.219 102.800,39.600 102.980,39.600 103.200 C 39.600 103.420,39.060 103.600,38.400 103.600 C 37.740 103.600,37.200 103.780,37.200 104.000 C 37.200 104.220,36.660 104.400,36.000 104.400 C 35.340 104.400,34.800 104.580,34.800 104.800 C 34.800 105.020,34.080 105.200,33.200 105.200 C 32.320 105.200,31.600 105.380,31.600 105.600 C 31.600 105.820,31.060 106.000,30.400 106.000 C 29.740 106.000,29.200 106.180,29.200 106.400 C 29.200 106.620,28.660 106.800,28.000 106.800 C 27.340 106.800,26.800 106.980,26.800 107.200 C 26.800 107.420,26.170 107.600,25.400 107.600 C 24.630 107.600,23.998 107.735,23.997 107.900 C 23.995 108.065,22.915 108.536,21.597 108.947 C 20.278 109.358,19.200 109.853,19.200 110.047 C 19.200 110.241,18.840 110.400,18.400 110.400 C 17.960 110.400,17.600 110.580,17.600 110.800 C 17.600 111.020,17.364 111.200,17.075 111.200 C 16.787 111.200,16.164 111.560,15.692 112.000 C 15.220 112.440,14.662 112.800,14.452 112.800 C 13.612 112.800,6.000 120.992,6.000 121.896 C 6.000 122.173,5.850 122.400,5.668 122.400 C 5.485 122.400,5.080 122.895,4.768 123.500 C 4.456 124.105,4.111 124.690,4.001 124.800 C 3.454 125.345,2.000 128.570,2.000 129.238 C 2.000 129.657,1.820 130.000,1.600 130.000 C 1.380 130.000,1.200 130.525,1.200 131.167 C 1.200 131.808,0.975 132.408,0.700 132.500 C -0.026 132.742,-0.026 154.058,0.700 154.300 C 0.975 154.392,1.200 154.992,1.200 155.633 C 1.200 156.275,1.380 156.800,1.600 156.800 C 1.820 156.800,2.000 157.250,2.000 157.800 C 2.000 158.350,2.180 158.800,2.400 158.800 C 2.620 158.800,2.800 159.160,2.800 159.600 C 2.800 160.040,2.980 160.400,3.200 160.400 C 3.420 160.400,3.600 160.760,3.600 161.200 C 3.600 161.640,3.780 162.000,4.000 162.000 C 4.220 162.000,4.400 162.320,4.400 162.712 C 4.400 163.103,4.760 163.683,5.200 164.000 C 5.640 164.317,6.000 164.800,6.000 165.073 C 6.000 165.529,6.969 166.674,10.800 170.743 C 12.696 172.758,15.967 175.200,16.769 175.200 C 17.129 175.200,17.683 175.560,18.000 176.000 C 18.317 176.440,18.897 176.800,19.288 176.800 C 19.680 176.800,20.000 176.980,20.000 177.200 C 20.000 177.420,20.540 177.600,21.200 177.600 C 21.860 177.600,22.400 177.780,22.400 178.000 C 22.400 178.220,22.760 178.400,23.200 178.400 C 23.640 178.400,24.000 178.580,24.000 178.800 C 24.000 179.020,24.540 179.200,25.200 179.200 C 25.860 179.200,26.400 179.380,26.400 179.600 C 26.400 179.820,27.030 180.000,27.800 180.000 C 28.570 180.000,29.200 180.180,29.200 180.400 C 29.200 180.620,29.830 180.800,30.600 180.800 C 31.370 180.800,32.000 180.980,32.000 181.200 C 32.000 181.420,32.630 181.600,33.400 181.600 C 34.170 181.600,34.800 181.780,34.800 182.000 C 34.800 182.220,35.329 182.400,35.976 182.400 C 36.623 182.400,37.264 182.580,37.400 182.800 C 37.536 183.020,38.267 183.200,39.024 183.200 C 39.781 183.200,40.400 183.380,40.400 183.600 C 40.400 183.820,40.929 184.000,41.576 184.000 C 42.223 184.000,42.864 184.180,43.000 184.400 C 43.136 184.620,43.766 184.800,44.400 184.800 C 45.034 184.800,45.664 184.980,45.800 185.200 C 45.936 185.420,46.566 185.600,47.200 185.600 C 47.834 185.600,48.464 185.780,48.600 186.000 C 48.736 186.220,49.377 186.400,50.024 186.400 C 50.671 186.400,51.200 186.560,51.200 186.756 C 51.200 187.093,51.649 187.210,55.300 187.832 C 56.125 187.973,56.800 188.248,56.800 188.444 C 56.800 188.640,57.192 188.800,57.672 188.800 C 58.491 188.800,60.389 189.314,62.200 190.025 C 62.640 190.198,63.540 190.455,64.200 190.595 C 64.860 190.735,66.421 191.064,67.668 191.325 C 68.915 191.586,70.070 191.935,70.235 192.100 C 70.399 192.265,71.133 192.400,71.867 192.400 C 72.600 192.400,73.200 192.580,73.200 192.800 C 73.200 193.020,73.740 193.200,74.400 193.200 C 75.060 193.200,75.600 193.380,75.600 193.600 C 75.600 193.820,76.230 194.000,77.000 194.000 C 77.770 194.000,78.400 194.180,78.400 194.400 C 78.400 194.620,79.030 194.800,79.800 194.800 C 80.570 194.800,81.200 194.980,81.200 195.200 C 81.200 195.420,81.830 195.600,82.600 195.600 C 83.370 195.600,84.000 195.780,84.000 196.000 C 84.000 196.220,84.529 196.400,85.176 196.400 C 85.823 196.400,86.464 196.580,86.600 196.800 C 86.736 197.020,87.467 197.200,88.224 197.200 C 88.981 197.200,89.600 197.380,89.600 197.600 C 89.600 197.820,90.129 198.000,90.776 198.000 C 91.423 198.000,92.064 198.180,92.200 198.400 C 92.336 198.620,92.977 198.800,93.624 198.800 C 94.271 198.800,94.800 198.980,94.800 199.200 C 94.800 199.420,95.419 199.600,96.176 199.600 C 96.933 199.600,97.664 199.780,97.800 200.000 C 97.936 200.220,98.577 200.400,99.224 200.400 C 99.871 200.400,100.400 200.560,100.400 200.756 C 100.400 200.952,101.030 201.222,101.800 201.356 C 102.570 201.490,103.830 201.710,104.600 201.844 C 105.370 201.978,106.000 202.248,106.000 202.444 C 106.000 202.640,106.529 202.800,107.176 202.800 C 107.823 202.800,108.464 202.980,108.600 203.200 C 108.736 203.420,109.366 203.600,110.000 203.600 C 110.634 203.600,111.264 203.780,111.400 204.000 C 111.536 204.220,112.166 204.400,112.800 204.400 C 113.434 204.400,114.064 204.580,114.200 204.800 C 114.336 205.020,114.889 205.200,115.429 205.200 C 115.969 205.200,116.723 205.358,117.105 205.551 C 118.171 206.089,120.577 206.800,121.334 206.800 C 121.706 206.800,122.323 206.958,122.705 207.151 C 123.996 207.803,126.331 208.430,128.371 208.671 C 129.487 208.803,130.400 209.066,130.400 209.256 C 130.400 209.445,131.030 209.600,131.800 209.600 C 132.570 209.600,133.200 209.780,133.200 210.000 C 133.200 210.220,133.729 210.400,134.376 210.400 C 135.023 210.400,135.664 210.580,135.800 210.800 C 135.936 211.020,136.667 211.200,137.424 211.200 C 138.181 211.200,138.800 211.380,138.800 211.600 C 138.800 211.820,139.329 212.000,139.976 212.000 C 140.623 212.000,141.264 212.180,141.400 212.400 C 141.536 212.620,142.177 212.800,142.824 212.800 C 143.471 212.800,144.000 212.980,144.000 213.200 C 144.000 213.420,144.630 213.600,145.400 213.600 C 146.170 213.600,146.800 213.780,146.800 214.000 C 146.800 214.220,147.430 214.400,148.200 214.400 C 148.970 214.400,149.600 214.580,149.600 214.800 C 149.600 215.020,150.129 215.200,150.776 215.200 C 151.423 215.200,152.064 215.380,152.200 215.600 C 152.336 215.820,153.067 216.000,153.824 216.000 C 154.581 216.000,155.200 216.180,155.200 216.400 C 155.200 216.620,155.729 216.800,156.376 216.800 C 157.023 216.800,157.664 216.980,157.800 217.200 C 157.936 217.420,158.566 217.600,159.200 217.600 C 159.834 217.600,160.464 217.780,160.600 218.000 C 160.736 218.220,161.366 218.400,162.000 218.400 C 162.634 218.400,163.264 218.580,163.400 218.800 C 163.536 219.020,164.177 219.200,164.824 219.200 C 165.471 219.200,166.000 219.360,166.000 219.556 C 166.000 219.752,166.675 220.027,167.500 220.168 C 171.125 220.785,171.600 220.905,171.600 221.200 C 171.600 221.372,172.185 221.608,172.900 221.724 C 175.545 222.156,176.931 222.633,177.213 223.209 C 177.759 224.325,178.400 226.657,178.400 227.528 C 178.400 228.008,178.560 228.400,178.756 228.400 C 178.952 228.400,179.222 229.030,179.356 229.800 C 179.490 230.570,179.710 231.830,179.844 232.600 C 179.978 233.370,180.248 234.000,180.444 234.000 C 180.640 234.000,180.800 234.630,180.800 235.400 C 180.800 236.170,180.980 236.800,181.200 236.800 C 181.420 236.800,181.600 237.329,181.600 237.976 C 181.600 238.623,181.780 239.264,182.000 239.400 C 182.220 239.536,182.400 240.166,182.400 240.800 C 182.400 241.434,182.580 242.064,182.800 242.200 C 183.020 242.336,183.200 242.977,183.200 243.624 C 183.200 244.271,183.380 244.800,183.600 244.800 C 183.820 244.800,184.000 245.419,184.000 246.176 C 184.000 246.933,184.180 247.664,184.400 247.800 C 184.620 247.936,184.800 248.577,184.800 249.224 C 184.800 249.871,184.980 250.400,185.200 250.400 C 185.420 250.400,185.600 251.019,185.600 251.776 C 185.600 252.533,185.780 253.264,186.000 253.400 C 186.220 253.536,186.400 254.177,186.400 254.824 C 186.400 255.471,186.580 256.000,186.800 256.000 C 187.020 256.000,187.200 256.630,187.200 257.400 C 187.200 258.170,187.380 258.800,187.600 258.800 C 187.820 258.800,188.000 259.340,188.000 260.000 C 188.000 260.660,188.180 261.200,188.400 261.200 C 188.620 261.200,188.800 261.920,188.800 262.800 C 188.800 263.680,188.980 264.400,189.200 264.400 C 189.420 264.400,189.600 264.940,189.600 265.600 C 189.600 266.260,189.780 266.800,190.000 266.800 C 190.220 266.800,190.400 267.419,190.400 268.176 C 190.400 268.933,190.580 269.664,190.800 269.800 C 191.020 269.936,191.200 270.566,191.200 271.200 C 191.200 271.834,191.359 272.451,191.553 272.571 C 191.748 272.691,192.030 273.779,192.181 274.988 C 192.332 276.198,192.623 277.291,192.828 277.417 C 193.033 277.544,193.200 278.029,193.200 278.495 C 193.200 279.396,193.865 281.739,194.449 282.895 C 194.642 283.277,194.800 284.031,194.800 284.571 C 194.800 285.111,194.980 285.664,195.200 285.800 C 195.420 285.936,195.600 286.566,195.600 287.200 C 195.600 287.834,195.780 288.464,196.000 288.600 C 196.220 288.736,196.400 289.366,196.400 290.000 C 196.400 290.634,196.580 291.264,196.800 291.400 C 197.020 291.536,197.200 292.177,197.200 292.824 C 197.200 293.471,197.380 294.000,197.600 294.000 C 197.820 294.000,198.000 294.619,198.000 295.376 C 198.000 296.133,198.180 296.864,198.400 297.000 C 198.620 297.136,198.800 297.777,198.800 298.424 C 198.800 299.071,198.980 299.600,199.200 299.600 C 199.420 299.600,199.600 300.219,199.600 300.976 C 199.600 301.733,199.780 302.464,200.000 302.600 C 200.220 302.736,200.400 303.377,200.400 304.024 C 200.400 304.671,200.580 305.200,200.800 305.200 C 201.020 305.200,201.200 305.830,201.200 306.600 C 201.200 307.370,201.380 308.000,201.600 308.000 C 201.820 308.000,202.000 308.540,202.000 309.200 C 202.000 309.860,202.180 310.400,202.400 310.400 C 202.620 310.400,202.800 311.120,202.800 312.000 C 202.800 312.880,202.980 313.600,203.200 313.600 C 203.420 313.600,203.600 314.140,203.600 314.800 C 203.600 315.460,203.780 316.000,204.000 316.000 C 204.220 316.000,204.400 316.619,204.400 317.376 C 204.400 318.133,204.580 318.864,204.800 319.000 C 205.020 319.136,205.200 319.777,205.200 320.424 C 205.200 321.071,205.380 321.600,205.600 321.600 C 205.820 321.600,206.000 322.230,206.000 323.000 C 206.000 323.770,206.180 324.400,206.400 324.400 C 206.620 324.400,206.800 324.940,206.800 325.600 C 206.800 326.260,206.980 326.800,207.200 326.800 C 207.420 326.800,207.600 327.520,207.600 328.400 C 207.600 329.280,207.746 330.000,207.924 330.000 C 208.209 330.000,208.721 332.101,209.459 336.304 C 209.585 337.021,209.849 337.706,210.044 337.827 C 210.240 337.948,210.400 338.566,210.400 339.200 C 210.400 339.834,210.580 340.464,210.800 340.600 C 211.020 340.736,211.200 341.377,211.200 342.024 C 211.200 342.671,211.360 343.200,211.556 343.200 C 211.893 343.200,212.010 343.649,212.632 347.300 C 212.773 348.125,213.048 348.800,213.244 348.800 C 213.440 348.800,213.600 349.419,213.600 350.176 C 213.600 350.933,213.780 351.664,214.000 351.800 C 214.220 351.936,214.400 352.577,214.400 353.224 C 214.400 353.871,214.580 354.400,214.800 354.400 C 215.020 354.400,215.200 355.030,215.200 355.800 C 215.200 356.570,215.380 357.200,215.600 357.200 C 215.820 357.200,216.000 357.740,216.000 358.400 C 216.000 359.060,216.180 359.600,216.400 359.600 C 216.620 359.600,216.800 360.320,216.800 361.200 C 216.800 362.080,216.980 362.800,217.200 362.800 C 217.420 362.800,217.600 363.340,217.600 364.000 C 217.600 364.660,217.780 365.200,218.000 365.200 C 218.220 365.200,218.400 365.819,218.400 366.576 C 218.400 367.333,218.580 368.064,218.800 368.200 C 219.020 368.336,219.200 368.977,219.200 369.624 C 219.200 370.271,219.380 370.800,219.600 370.800 C 219.820 370.800,220.000 371.430,220.000 372.200 C 220.000 372.970,220.180 373.600,220.400 373.600 C 220.620 373.600,220.800 374.140,220.800 374.800 C 220.800 375.460,220.980 376.000,221.200 376.000 C 221.420 376.000,221.600 376.360,221.600 376.800 C 221.600 377.240,221.780 377.600,222.000 377.600 C 222.220 377.600,222.400 378.140,222.400 378.800 C 222.400 379.460,222.580 380.000,222.800 380.000 C 223.020 380.000,223.200 380.320,223.200 380.712 C 223.200 381.103,223.560 381.683,224.000 382.000 C 224.440 382.317,224.800 382.819,224.800 383.116 C 224.800 383.914,227.032 387.016,228.982 388.928 C 231.484 391.382,234.545 394.000,234.913 394.000 C 235.089 394.000,235.620 394.360,236.092 394.800 C 236.564 395.240,237.187 395.600,237.475 395.600 C 237.764 395.600,238.000 395.780,238.000 396.000 C 238.000 396.220,238.360 396.400,238.800 396.400 C 239.240 396.400,239.600 396.580,239.600 396.800 C 239.600 397.020,239.960 397.200,240.400 397.200 C 240.840 397.200,241.200 397.380,241.200 397.600 C 241.200 397.820,241.650 398.000,242.200 398.000 C 242.750 398.000,243.200 398.180,243.200 398.400 C 243.200 398.620,243.725 398.800,244.367 398.800 C 245.008 398.800,245.608 399.025,245.700 399.300 C 245.942 400.026,267.258 400.026,267.500 399.300 C 267.592 399.025,268.192 398.800,268.833 398.800 C 269.475 398.800,270.000 398.620,270.000 398.400 C 270.000 398.180,270.343 398.000,270.762 398.000 C 271.430 398.000,274.655 396.546,275.200 395.999 C 275.310 395.889,275.895 395.544,276.500 395.232 C 277.105 394.920,277.600 394.515,277.600 394.332 C 277.600 394.150,277.831 394.000,278.114 394.000 C 279.011 394.000,287.200 386.387,287.200 385.553 C 287.200 385.340,287.560 384.780,288.000 384.308 C 288.440 383.836,288.800 383.213,288.800 382.925 C 288.800 382.636,288.980 382.400,289.200 382.400 C 289.420 382.400,289.600 382.040,289.600 381.600 C 289.600 381.160,289.780 380.800,290.000 380.800 C 290.220 380.800,290.400 380.440,290.400 380.000 C 290.400 379.560,290.564 379.200,290.765 379.200 C 290.966 379.200,291.251 378.481,291.400 377.602 C 291.548 376.723,291.834 375.903,292.035 375.778 C 292.236 375.654,292.400 375.023,292.400 374.376 C 292.400 373.729,292.580 373.200,292.800 373.200 C 293.020 373.200,293.200 372.660,293.200 372.000 C 293.200 371.340,293.380 370.800,293.600 370.800 C 293.820 370.800,294.000 370.260,294.000 369.600 C 294.000 368.940,294.180 368.400,294.400 368.400 C 294.620 368.400,294.800 367.781,294.800 367.024 C 294.800 366.267,294.980 365.536,295.200 365.400 C 295.420 365.264,295.600 364.623,295.600 363.976 C 295.600 363.329,295.780 362.800,296.000 362.800 C 296.220 362.800,296.400 362.260,296.400 361.600 C 296.400 360.940,296.580 360.400,296.800 360.400 C 297.020 360.400,297.200 359.770,297.200 359.000 C 297.200 358.230,297.380 357.600,297.600 357.600 C 297.820 357.600,298.000 357.060,298.000 356.400 C 298.000 355.740,298.180 355.200,298.400 355.200 C 298.620 355.200,298.800 354.671,298.800 354.024 C 298.800 353.377,298.980 352.736,299.200 352.600 C 299.420 352.464,299.600 351.834,299.600 351.200 C 299.600 350.566,299.780 349.936,300.000 349.800 C 300.220 349.664,300.400 349.023,300.400 348.376 C 300.400 347.729,300.580 347.200,300.800 347.200 C 301.020 347.200,301.200 346.660,301.200 346.000 C 301.200 345.340,301.380 344.800,301.600 344.800 C 301.820 344.800,302.000 344.181,302.000 343.424 C 302.000 342.667,302.180 341.936,302.400 341.800 C 302.620 341.664,302.800 341.124,302.800 340.600 C 302.800 340.076,302.980 339.536,303.200 339.400 C 303.420 339.264,303.600 338.724,303.600 338.200 C 303.600 337.676,303.780 337.136,304.000 337.000 C 304.220 336.864,304.400 336.133,304.400 335.376 C 304.400 334.619,304.580 334.000,304.800 334.000 C 305.020 334.000,305.200 333.460,305.200 332.800 C 305.200 332.140,305.360 331.600,305.556 331.600 C 305.893 331.600,306.010 331.151,306.632 327.500 C 306.773 326.675,307.048 326.000,307.244 326.000 C 307.440 326.000,307.600 325.471,307.600 324.824 C 307.600 324.177,307.770 323.542,307.977 323.414 C 308.184 323.286,308.463 322.331,308.597 321.291 C 308.731 320.251,309.012 319.087,309.220 318.705 C 309.429 318.323,309.600 317.558,309.600 317.005 C 309.600 316.452,309.780 316.000,310.000 316.000 C 310.220 316.000,310.400 315.460,310.400 314.800 C 310.400 314.140,310.580 313.600,310.800 313.600 C 311.020 313.600,311.200 312.981,311.200 312.224 C 311.200 311.467,311.380 310.736,311.600 310.600 C 311.820 310.464,312.000 309.924,312.000 309.400 C 312.000 308.876,312.180 308.336,312.400 308.200 C 312.620 308.064,312.800 307.524,312.800 307.000 C 312.800 306.476,312.980 305.936,313.200 305.800 C 313.420 305.664,313.600 304.933,313.600 304.176 C 313.600 303.419,313.780 302.800,314.000 302.800 C 314.220 302.800,314.400 302.260,314.400 301.600 C 314.400 300.940,314.580 300.400,314.800 300.400 C 315.020 300.400,315.200 299.860,315.200 299.200 C 315.200 298.540,315.380 298.000,315.600 298.000 C 315.820 298.000,316.000 297.381,316.000 296.624 C 316.000 295.867,316.180 295.136,316.400 295.000 C 316.620 294.864,316.800 294.223,316.800 293.576 C 316.800 292.929,316.980 292.400,317.200 292.400 C 317.420 292.400,317.600 291.860,317.600 291.200 C 317.600 290.540,317.780 290.000,318.000 290.000 C 318.220 290.000,318.400 289.370,318.400 288.600 C 318.400 287.830,318.580 287.200,318.800 287.200 C 319.020 287.200,319.200 286.660,319.200 286.000 C 319.200 285.340,319.380 284.800,319.600 284.800 C 319.820 284.800,320.000 284.271,320.000 283.624 C 320.000 282.977,320.180 282.336,320.400 282.200 C 320.620 282.064,320.800 281.333,320.800 280.576 C 320.800 279.819,320.980 279.200,321.200 279.200 C 321.420 279.200,321.600 278.660,321.600 278.000 C 321.600 277.340,321.780 276.800,322.000 276.800 C 322.220 276.800,322.400 276.271,322.400 275.624 C 322.400 274.977,322.580 274.336,322.800 274.200 C 323.020 274.064,323.200 273.434,323.200 272.800 C 323.200 272.166,323.380 271.536,323.600 271.400 C 323.820 271.264,324.000 270.724,324.000 270.200 C 324.000 269.676,324.172 269.141,324.382 269.011 C 324.591 268.882,324.885 267.697,325.034 266.379 C 325.183 265.061,325.462 263.886,325.653 263.767 C 325.844 263.649,326.000 263.023,326.000 262.376 C 326.000 261.729,326.180 261.200,326.400 261.200 C 326.620 261.200,326.800 260.660,326.800 260.000 C 326.800 259.340,326.980 258.800,327.200 258.800 C 327.420 258.800,327.600 258.170,327.600 257.400 C 327.600 256.630,327.780 256.000,328.000 256.000 C 328.220 256.000,328.400 255.460,328.400 254.800 C 328.400 254.140,328.580 253.600,328.800 253.600 C 329.020 253.600,329.200 253.060,329.200 252.400 C 329.200 251.740,329.380 251.200,329.600 251.200 C 329.820 251.200,330.000 250.581,330.000 249.824 C 330.000 249.067,330.180 248.336,330.400 248.200 C 330.620 248.064,330.800 247.423,330.800 246.776 C 330.800 246.129,330.980 245.600,331.200 245.600 C 331.420 245.600,331.600 245.060,331.600 244.400 C 331.600 243.740,331.780 243.200,332.000 243.200 C 332.220 243.200,332.400 242.570,332.400 241.800 C 332.400 241.030,332.580 240.400,332.800 240.400 C 333.020 240.400,333.200 239.860,333.200 239.200 C 333.200 238.540,333.380 238.000,333.600 238.000 C 333.820 238.000,334.000 237.471,334.000 236.824 C 334.000 236.177,334.180 235.536,334.400 235.400 C 334.620 235.264,334.800 234.533,334.800 233.776 C 334.800 233.019,334.980 232.400,335.200 232.400 C 335.420 232.400,335.600 231.860,335.600 231.200 C 335.600 230.540,335.780 230.000,336.000 230.000 C 336.220 230.000,336.400 229.460,336.400 228.800 C 336.400 228.140,336.580 227.600,336.800 227.600 C 337.020 227.600,337.200 226.981,337.200 226.224 C 337.200 225.467,337.380 224.736,337.600 224.600 C 337.820 224.464,338.000 224.001,338.000 223.571 C 338.000 223.141,338.158 222.477,338.351 222.095 C 338.940 220.928,339.600 218.592,339.600 217.672 C 339.600 217.192,339.780 216.800,340.000 216.800 C 340.220 216.800,340.400 216.271,340.400 215.624 C 340.400 214.977,340.572 214.341,340.782 214.211 C 340.991 214.082,341.285 212.897,341.434 211.579 C 341.583 210.261,341.862 209.086,342.053 208.967 C 342.244 208.849,342.400 208.313,342.400 207.776 C 342.400 207.239,342.580 206.800,342.800 206.800 C 343.020 206.800,343.200 206.260,343.200 205.600 C 343.200 204.940,343.380 204.400,343.600 204.400 C 343.820 204.400,344.000 203.781,344.000 203.024 C 344.000 202.267,344.180 201.536,344.400 201.400 C 344.620 201.264,344.800 200.623,344.800 199.976 C 344.800 199.329,344.980 198.800,345.200 198.800 C 345.420 198.800,345.600 198.260,345.600 197.600 C 345.600 196.940,345.780 196.400,346.000 196.400 C 346.220 196.400,346.400 195.781,346.400 195.024 C 346.400 194.267,346.580 193.536,346.800 193.400 C 347.020 193.264,347.200 192.724,347.200 192.200 C 347.200 191.676,347.380 191.136,347.600 191.000 C 347.820 190.864,348.000 190.324,348.000 189.800 C 348.000 189.276,348.180 188.736,348.400 188.600 C 348.620 188.464,348.800 187.733,348.800 186.976 C 348.800 186.219,348.980 185.600,349.200 185.600 C 349.420 185.600,349.600 185.060,349.600 184.400 C 349.600 183.740,349.780 183.200,350.000 183.200 C 350.220 183.200,350.400 182.660,350.400 182.000 C 350.400 181.340,350.560 180.800,350.756 180.800 C 350.952 180.800,351.222 180.170,351.356 179.400 C 351.490 178.630,351.710 177.370,351.844 176.600 C 351.978 175.830,352.248 175.200,352.444 175.200 C 352.640 175.200,352.800 174.660,352.800 174.000 C 352.800 173.340,352.980 172.800,353.200 172.800 C 353.420 172.800,353.600 172.271,353.600 171.624 C 353.600 170.977,353.780 170.336,354.000 170.200 C 354.220 170.064,354.400 169.423,354.400 168.776 C 354.400 168.129,354.580 167.600,354.800 167.600 C 355.020 167.600,355.200 167.071,355.200 166.424 C 355.200 165.777,355.380 165.136,355.600 165.000 C 355.820 164.864,356.000 164.133,356.000 163.376 C 356.000 162.619,356.180 162.000,356.400 162.000 C 356.620 162.000,356.800 161.548,356.800 160.995 C 356.800 160.442,356.958 159.677,357.151 159.295 C 357.757 158.096,358.383 155.834,358.651 153.881 C 358.793 152.847,359.064 152.000,359.254 152.000 C 359.444 152.000,359.600 151.460,359.600 150.800 C 359.600 150.140,359.780 149.600,360.000 149.600 C 360.220 149.600,360.400 149.071,360.400 148.424 C 360.400 147.777,360.580 147.136,360.800 147.000 C 361.020 146.864,361.200 146.133,361.200 145.376 C 361.200 144.619,361.380 144.000,361.600 144.000 C 361.820 144.000,362.000 143.460,362.000 142.800 C 362.000 142.140,362.180 141.600,362.400 141.600 C 362.620 141.600,362.800 140.970,362.800 140.200 C 362.800 139.430,362.980 138.800,363.200 138.800 C 363.420 138.800,363.600 138.260,363.600 137.600 C 363.600 136.940,363.780 136.400,364.000 136.400 C 364.220 136.400,364.400 135.860,364.400 135.200 C 364.400 134.540,364.580 134.000,364.800 134.000 C 365.020 134.000,365.200 133.381,365.200 132.624 C 365.200 131.867,365.380 131.136,365.600 131.000 C 365.820 130.864,366.000 130.223,366.000 129.576 C 366.000 128.929,366.180 128.400,366.400 128.400 C 366.620 128.400,366.800 127.860,366.800 127.200 C 366.800 126.540,366.980 126.000,367.200 126.000 C 367.420 126.000,367.600 125.370,367.600 124.600 C 367.600 123.830,367.780 123.200,368.000 123.200 C 368.220 123.200,368.400 122.660,368.400 122.000 C 368.400 121.340,368.580 120.800,368.800 120.800 C 369.020 120.800,369.200 120.271,369.200 119.624 C 369.200 118.977,369.380 118.336,369.600 118.200 C 369.820 118.064,370.000 117.434,370.000 116.800 C 370.000 116.166,370.180 115.536,370.400 115.400 C 370.620 115.264,370.800 114.623,370.800 113.976 C 370.800 113.329,370.980 112.800,371.200 112.800 C 371.420 112.800,371.600 112.271,371.600 111.624 C 371.600 110.977,371.780 110.336,372.000 110.200 C 372.220 110.064,372.400 109.434,372.400 108.800 C 372.400 108.166,372.580 107.536,372.800 107.400 C 373.020 107.264,373.200 106.801,373.200 106.371 C 373.200 105.941,373.358 105.277,373.551 104.895 C 374.168 103.673,374.754 101.460,375.032 99.300 C 375.181 98.145,375.460 97.200,375.652 97.200 C 375.843 97.200,376.000 96.660,376.000 96.000 C 376.000 95.340,376.180 94.800,376.400 94.800 C 376.620 94.800,376.800 94.181,376.800 93.424 C 376.800 92.667,376.980 91.936,377.200 91.800 C 377.420 91.664,377.600 91.113,377.600 90.576 C 377.600 90.039,377.780 89.600,378.000 89.600 C 378.220 89.600,378.400 89.060,378.400 88.400 C 378.400 87.740,378.580 87.200,378.800 87.200 C 379.020 87.200,379.200 86.581,379.200 85.824 C 379.200 85.067,379.380 84.336,379.600 84.200 C 379.820 84.064,380.000 83.423,380.000 82.776 C 380.000 82.129,380.180 81.600,380.400 81.600 C 380.620 81.600,380.800 81.060,380.800 80.400 C 380.800 79.740,380.980 79.200,381.200 79.200 C 381.420 79.200,381.600 78.581,381.600 77.824 C 381.600 77.067,381.780 76.336,382.000 76.200 C 382.220 76.064,382.400 75.524,382.400 75.000 C 382.400 74.476,382.580 73.936,382.800 73.800 C 383.020 73.664,383.200 73.124,383.200 72.600 C 383.200 72.076,383.380 71.536,383.600 71.400 C 383.820 71.264,384.000 70.533,384.000 69.776 C 384.000 69.019,384.180 68.400,384.400 68.400 C 384.620 68.400,384.800 67.860,384.800 67.200 C 384.800 66.540,384.980 66.000,385.200 66.000 C 385.420 66.000,385.600 65.460,385.600 64.800 C 385.600 64.140,385.780 63.600,386.000 63.600 C 386.220 63.600,386.400 62.981,386.400 62.224 C 386.400 61.467,386.580 60.736,386.800 60.600 C 387.020 60.464,387.200 59.924,387.200 59.400 C 387.200 58.876,387.380 58.336,387.600 58.200 C 387.820 58.064,388.000 57.423,388.000 56.776 C 388.000 56.129,388.180 55.600,388.400 55.600 C 388.620 55.600,388.800 54.970,388.800 54.200 C 388.800 53.430,388.980 52.800,389.200 52.800 C 389.420 52.800,389.600 52.348,389.600 51.795 C 389.600 51.242,389.758 50.477,389.951 50.095 C 390.568 48.873,391.154 46.660,391.432 44.500 C 391.581 43.345,391.860 42.400,392.052 42.400 C 392.243 42.400,392.400 41.860,392.400 41.200 C 392.400 40.540,392.580 40.000,392.800 40.000 C 393.020 40.000,393.200 39.471,393.200 38.824 C 393.200 38.177,393.380 37.536,393.600 37.400 C 393.820 37.264,394.000 36.623,394.000 35.976 C 394.000 35.329,394.180 34.800,394.400 34.800 C 394.620 34.800,394.800 34.260,394.800 33.600 C 394.800 32.940,394.980 32.400,395.200 32.400 C 395.420 32.400,395.600 31.781,395.600 31.024 C 395.600 30.267,395.780 29.536,396.000 29.400 C 396.220 29.264,396.400 28.623,396.400 27.976 C 396.400 27.329,396.580 26.800,396.800 26.800 C 397.020 26.800,397.200 26.260,397.200 25.600 C 397.200 24.940,397.380 24.400,397.600 24.400 C 397.820 24.400,398.000 23.770,398.000 23.000 C 398.000 22.230,398.180 21.600,398.400 21.600 C 398.620 21.600,398.800 21.075,398.800 20.433 C 398.800 19.792,399.025 19.192,399.300 19.100 C 400.259 18.781,399.985 5.840,399.000 4.929 C 398.560 4.522,398.008 3.843,397.773 3.421 C 397.539 2.999,397.001 2.461,396.579 2.227 C 396.157 1.992,395.479 1.440,395.072 1.000 C 394.331 0.198,386.018 -0.269,382.100 0.271 " stroke="none" fill="#08d9d6" fill-rule="evenodd"></path><path id="path1" d="" stroke="none" fill="#080404" fill-rule="evenodd"></path><path id="path2" d="" stroke="none" fill="#080404" fill-rule="evenodd"></path><path id="path3" d="" stroke="none" fill="#080404" fill-rule="evenodd"></path><path id="path4" d="" stroke="none" fill="#080404" fill-rule="evenodd"></path></g></svg>