<?xml version="1.0" standalone="no"?>
<!DOCTYPE svg PUBLIC "-//W3C//DTD SVG 20010904//EN"
 "http://www.w3.org/TR/2001/REC-SVG-20010904/DTD/svg10.dtd">
<svg version="1.0" xmlns="http://www.w3.org/2000/svg"
 width="512.000000pt" height="512.000000pt" viewBox="0 0 512.000000 512.000000"
 preserveAspectRatio="xMidYMid meet">

<g transform="translate(0.000000,512.000000) scale(0.100000,-0.100000)"
fill="#eee" stroke="none">
<path d="M2400 5114 c-83 -6 -245 -26 -280 -35 -41 -10 -83 -50 -100 -94 -9
-23 -8 -49 1 -107 27 -167 -37 -323 -173 -424 -141 -104 -326 -112 -481 -21
-25 15 -74 59 -109 98 -35 39 -75 77 -90 85 -43 22 -100 18 -144 -12 -132 -90
-367 -321 -493 -487 -113 -148 -110 -199 18 -301 269 -215 229 -604 -77 -749
-66 -31 -70 -32 -212 -32 -160 -1 -176 -5 -211 -62 -49 -78 -62 -490 -24 -756
17 -119 21 -130 60 -167 26 -25 30 -25 188 -25 161 0 162 0 230 -32 228 -108
321 -377 205 -596 -29 -55 -68 -97 -166 -184 -34 -30 -44 -47 -49 -80 -3 -23
-3 -53 1 -67 19 -76 326 -397 515 -539 92 -69 106 -77 147 -77 63 0 94 19 149
95 103 140 257 207 424 184 140 -20 269 -119 334 -256 31 -67 32 -71 32 -213
0 -157 7 -181 58 -215 90 -59 785 -49 891 13 16 10 39 33 50 51 17 30 18 43
10 135 -12 135 -3 193 40 281 119 240 437 313 652 148 20 -15 61 -58 90 -95
62 -77 105 -97 170 -79 120 33 598 531 620 645 9 51 -12 102 -58 139 -126 100
-167 150 -197 240 -40 116 -34 221 18 332 50 108 144 192 256 228 55 18 166
24 233 13 33 -6 51 -3 86 14 65 31 81 73 97 245 19 222 -6 608 -45 683 -35 68
-86 86 -193 70 -294 -46 -548 201 -503 489 19 124 63 193 202 319 50 45 64 87
48 143 -32 113 -510 577 -631 611 -35 10 -92 -1 -119 -23 -9 -6 -37 -40 -64
-74 -43 -56 -70 -79 -147 -126 -15 -9 -54 -23 -87 -31 -203 -53 -409 38 -501
221 -40 79 -52 150 -46 258 6 89 4 103 -14 132 -11 18 -31 39 -45 48 -46 31
-360 52 -566 39z m330 -1468 c791 -128 1184 -1019 746 -1691 -300 -460 -906
-624 -1403 -379 -672 331 -820 1226 -290 1758 127 128 258 210 430 267 169 57
347 73 517 45z"/>
<path d="M2391 3355 c-162 -36 -300 -114 -418 -238 -87 -92 -142 -183 -185
-307 -31 -91 -32 -102 -33 -245 0 -130 3 -160 23 -225 112 -359 420 -591 785
-590 228 1 421 84 583 252 137 142 213 317 222 514 11 247 -61 436 -233 610
-124 125 -238 189 -410 229 -81 19 -247 18 -334 0z"/>
</g>
</svg>
