<svg id="svg" version="1.1" xmlns="http://www.w3.org/2000/svg" xmlns:xlink="http://www.w3.org/1999/xlink" width="400" height="400" viewBox="0, 0, 400,400"><g id="svgg"><path id="path0" d="M194.500 0.264 C 194.005 0.369,193.600 0.623,193.600 0.828 C 193.600 1.033,193.330 1.200,193.000 1.200 C 192.670 1.200,192.400 1.380,192.400 1.600 C 192.400 1.820,192.207 2.000,191.971 2.000 C 191.369 2.000,190.400 3.038,190.400 3.683 C 190.400 3.980,190.040 4.483,189.600 4.800 C 189.160 5.117,188.800 5.686,188.800 6.065 C 188.800 6.443,188.620 6.864,188.400 7.000 C 188.140 7.161,188.000 16.930,188.000 35.000 C 188.000 53.070,188.140 62.839,188.400 63.000 C 188.620 63.136,188.800 63.647,188.800 64.135 C 188.800 64.624,189.160 65.283,189.600 65.600 C 190.040 65.917,190.400 66.364,190.400 66.593 C 190.400 66.822,190.959 67.457,191.642 68.004 C 192.325 68.552,193.122 69.225,193.413 69.500 C 193.705 69.775,194.215 70.000,194.548 70.000 C 194.881 70.000,195.264 70.180,195.400 70.400 C 195.540 70.627,197.530 70.800,200.000 70.800 C 202.470 70.800,204.460 70.627,204.600 70.400 C 204.736 70.180,205.197 70.000,205.624 70.000 C 206.051 70.000,206.400 69.820,206.400 69.600 C 206.400 69.380,206.670 69.200,207.000 69.200 C 207.330 69.200,207.600 69.020,207.600 68.800 C 207.600 68.580,207.793 68.400,208.029 68.400 C 208.631 68.400,209.600 67.362,209.600 66.717 C 209.600 66.420,209.960 65.917,210.400 65.600 C 210.840 65.283,211.200 64.714,211.200 64.335 C 211.200 63.957,211.380 63.536,211.600 63.400 C 211.861 63.239,212.000 53.329,212.000 34.976 C 212.000 16.459,211.863 6.800,211.600 6.800 C 211.380 6.800,211.200 6.480,211.200 6.088 C 211.200 5.697,210.840 5.117,210.400 4.800 C 209.960 4.483,209.600 3.980,209.600 3.683 C 209.600 3.038,208.631 2.000,208.029 2.000 C 207.793 2.000,207.600 1.820,207.600 1.600 C 207.600 1.380,207.345 1.200,207.033 1.200 C 206.722 1.200,206.392 0.975,206.300 0.700 C 206.131 0.193,196.502 -0.163,194.500 0.264 M63.600 31.200 C 63.600 31.420,63.223 31.600,62.762 31.600 C 61.276 31.600,56.800 35.344,56.800 36.587 C 56.800 36.924,56.620 37.200,56.400 37.200 C 56.180 37.200,56.000 37.740,56.000 38.400 C 56.000 39.060,55.820 39.600,55.600 39.600 C 55.361 39.600,55.200 41.133,55.200 43.400 C 55.200 45.667,55.361 47.200,55.600 47.200 C 55.820 47.200,56.000 47.560,56.000 48.000 C 56.000 48.440,56.180 48.800,56.400 48.800 C 56.620 48.800,56.800 49.120,56.800 49.512 C 56.800 49.903,57.160 50.483,57.600 50.800 C 58.040 51.117,58.398 51.562,58.395 51.788 C 58.387 52.406,93.620 87.200,94.253 87.200 C 94.554 87.200,94.800 87.380,94.800 87.600 C 94.800 87.820,95.149 88.000,95.576 88.000 C 96.003 88.000,96.464 88.180,96.600 88.400 C 96.922 88.922,103.878 88.922,104.200 88.400 C 104.336 88.180,104.887 88.000,105.424 88.000 C 105.961 88.000,106.400 87.820,106.400 87.600 C 106.400 87.380,106.641 87.200,106.936 87.200 C 107.712 87.200,111.200 83.796,111.200 83.040 C 111.200 82.688,111.380 82.400,111.600 82.400 C 111.820 82.400,112.000 81.860,112.000 81.200 C 112.000 80.540,112.180 80.000,112.400 80.000 C 112.639 80.000,112.800 78.467,112.800 76.200 C 112.800 73.933,112.639 72.400,112.400 72.400 C 112.180 72.400,112.000 72.040,112.000 71.600 C 112.000 71.160,111.820 70.800,111.600 70.800 C 111.380 70.800,111.200 70.480,111.200 70.088 C 111.200 69.697,110.840 69.117,110.400 68.800 C 109.960 68.483,109.600 68.048,109.600 67.835 C 109.600 67.621,102.684 60.505,94.231 52.023 C 85.779 43.540,78.326 36.015,77.671 35.300 C 77.015 34.585,76.235 34.000,75.936 34.000 C 75.637 34.000,75.168 33.640,74.893 33.200 C 74.618 32.760,74.125 32.400,73.797 32.400 C 73.468 32.400,73.200 32.220,73.200 32.000 C 73.200 31.780,72.761 31.600,72.224 31.600 C 71.687 31.600,71.136 31.420,71.000 31.200 C 70.864 30.980,69.143 30.800,67.176 30.800 C 65.059 30.800,63.600 30.963,63.600 31.200 M328.600 31.200 C 328.464 31.420,328.003 31.600,327.576 31.600 C 327.149 31.600,326.800 31.780,326.800 32.000 C 326.800 32.220,326.614 32.400,326.386 32.400 C 325.162 32.400,288.800 68.956,288.800 70.186 C 288.800 70.524,288.620 70.800,288.400 70.800 C 288.180 70.800,288.000 71.160,288.000 71.600 C 288.000 72.040,287.820 72.400,287.600 72.400 C 287.361 72.400,287.200 73.933,287.200 76.200 C 287.200 78.467,287.361 80.000,287.600 80.000 C 287.820 80.000,288.000 80.540,288.000 81.200 C 288.000 81.860,288.180 82.400,288.400 82.400 C 288.620 82.400,288.800 82.648,288.800 82.952 C 288.800 83.691,291.708 86.653,292.762 86.988 C 293.223 87.134,293.600 87.422,293.600 87.627 C 293.600 87.832,294.039 88.000,294.576 88.000 C 295.113 88.000,295.664 88.180,295.800 88.400 C 296.685 89.832,304.406 88.455,306.962 86.410 C 310.772 83.361,343.200 50.255,343.200 49.414 C 343.200 49.076,343.380 48.800,343.600 48.800 C 343.820 48.800,344.000 48.451,344.000 48.024 C 344.000 47.597,344.180 47.136,344.400 47.000 C 344.620 46.864,344.800 45.143,344.800 43.176 C 344.800 41.059,344.637 39.600,344.400 39.600 C 344.180 39.600,344.000 39.075,344.000 38.433 C 344.000 37.792,343.834 37.207,343.630 37.133 C 343.426 37.060,343.201 36.731,343.130 36.403 C 342.954 35.595,339.607 32.400,338.936 32.400 C 338.641 32.400,338.400 32.220,338.400 32.000 C 338.400 31.780,337.950 31.600,337.400 31.600 C 336.850 31.600,336.400 31.420,336.400 31.200 C 336.400 30.962,334.875 30.800,332.624 30.800 C 330.537 30.800,328.737 30.979,328.600 31.200 M6.249 164.406 C 5.397 164.831,3.687 166.208,2.449 167.465 L 0.200 169.751 0.058 174.486 C -0.159 181.686,1.678 185.318,6.570 187.361 C 8.398 188.126,62.534 188.354,63.000 187.600 C 63.136 187.380,63.587 187.200,64.001 187.200 C 64.983 187.200,70.000 182.183,70.000 181.201 C 70.000 180.787,70.180 180.336,70.400 180.200 C 70.926 179.875,70.926 171.725,70.400 171.400 C 70.180 171.264,70.000 170.813,70.000 170.399 C 70.000 169.417,64.983 164.400,64.001 164.400 C 63.587 164.400,63.136 164.220,63.000 164.000 C 62.463 163.131,8.023 163.520,6.249 164.406 M337.200 163.950 C 337.200 164.143,336.664 164.407,336.009 164.538 C 334.398 164.860,330.000 169.323,330.000 170.635 C 330.000 171.166,329.820 171.600,329.600 171.600 C 329.359 171.600,329.200 173.267,329.200 175.800 C 329.200 178.333,329.359 180.000,329.600 180.000 C 329.820 180.000,330.000 180.434,330.000 180.965 C 330.000 182.277,334.398 186.740,336.009 187.062 C 336.664 187.193,337.200 187.458,337.200 187.650 C 337.200 187.847,349.295 188.000,364.800 188.000 C 382.933 188.000,392.400 187.863,392.400 187.600 C 392.400 187.380,392.834 187.200,393.364 187.200 C 394.464 187.200,398.287 183.701,399.219 181.839 C 399.632 181.015,399.800 179.268,399.800 175.800 C 399.800 172.332,399.632 170.585,399.219 169.761 C 398.287 167.899,394.464 164.400,393.364 164.400 C 392.834 164.400,392.400 164.220,392.400 164.000 C 392.400 163.737,382.933 163.600,364.800 163.600 C 349.295 163.600,337.200 163.753,337.200 163.950 M194.600 164.405 C 192.702 164.733,191.504 165.053,187.790 166.222 C 179.129 168.950,169.451 178.827,166.842 187.600 C 166.548 188.590,166.153 189.850,165.964 190.400 C 164.501 194.654,164.511 204.618,165.981 208.200 C 166.161 208.640,166.540 209.810,166.823 210.800 C 167.432 212.927,170.073 218.017,171.598 220.000 C 173.693 222.723,173.694 222.745,171.812 225.182 C 168.618 229.321,166.231 235.029,165.208 240.973 C 164.970 242.360,164.800 251.217,164.800 262.273 L 164.800 281.200 199.823 281.200 L 234.846 281.200 234.707 260.300 C 234.573 239.948,234.545 239.327,233.673 236.600 C 232.158 231.868,228.063 224.272,226.700 223.667 C 225.979 223.346,227.186 220.515,228.434 219.600 C 228.584 219.490,229.114 218.680,229.610 217.800 C 230.107 216.920,230.970 215.390,231.529 214.400 C 232.506 212.670,233.031 210.998,234.230 205.800 C 234.946 202.696,234.940 195.666,234.219 192.600 C 232.840 186.738,232.707 186.384,229.936 181.196 C 224.079 170.230,207.230 162.223,194.600 164.405 " stroke="none" fill="#fcc136" fill-rule="evenodd"></path><path id="path1" d="M200.284 329.849 C 200.128 330.006,200.000 345.855,200.000 365.071 L 200.000 400.008 273.366 399.904 L 346.733 399.800 347.513 398.900 C 347.943 398.405,348.511 398.000,348.775 398.000 C 349.422 398.000,350.400 396.987,350.400 396.317 C 350.400 396.020,350.760 395.517,351.200 395.200 C 351.640 394.883,352.000 394.303,352.000 393.912 C 352.000 393.520,352.180 393.200,352.400 393.200 C 352.652 393.200,352.800 390.541,352.800 386.024 C 352.800 381.671,352.643 378.750,352.400 378.600 C 352.180 378.464,352.000 377.553,352.000 376.576 C 352.000 375.599,351.820 374.800,351.600 374.800 C 351.380 374.800,351.200 374.080,351.200 373.200 C 351.200 372.320,351.020 371.600,350.800 371.600 C 350.580 371.600,350.400 371.060,350.400 370.400 C 350.400 369.740,350.220 369.200,350.000 369.200 C 349.780 369.200,349.600 368.660,349.600 368.000 C 349.600 367.340,349.420 366.800,349.200 366.800 C 348.980 366.800,348.800 366.260,348.800 365.600 C 348.800 364.940,348.620 364.400,348.400 364.400 C 348.180 364.400,348.000 364.040,348.000 363.600 C 348.000 363.160,347.820 362.800,347.600 362.800 C 347.380 362.800,347.200 362.440,347.200 362.000 C 347.200 361.560,347.020 361.200,346.800 361.200 C 346.580 361.200,346.400 360.840,346.400 360.400 C 346.400 359.960,346.220 359.600,346.000 359.600 C 345.780 359.600,345.600 359.370,345.600 359.088 C 345.600 358.807,345.240 358.317,344.800 358.000 C 344.360 357.683,344.000 357.103,344.000 356.712 C 344.000 356.320,343.820 356.000,343.600 356.000 C 343.380 356.000,343.200 355.706,343.200 355.347 C 343.200 354.988,342.867 354.403,342.459 354.047 C 342.052 353.691,341.410 352.801,341.033 352.069 C 340.391 350.822,332.000 342.079,332.000 342.657 C 332.000 342.803,331.664 342.535,331.253 342.061 C 330.842 341.588,330.284 341.200,330.014 341.200 C 329.743 341.200,329.017 340.660,328.400 340.000 C 327.783 339.340,326.991 338.800,326.640 338.800 C 326.288 338.800,326.000 338.620,326.000 338.400 C 326.000 338.180,325.730 338.000,325.400 338.000 C 325.070 338.000,324.800 337.820,324.800 337.600 C 324.800 337.380,324.530 337.200,324.200 337.200 C 323.870 337.200,323.600 337.020,323.600 336.800 C 323.600 336.580,323.330 336.400,323.000 336.400 C 322.670 336.400,322.400 336.220,322.400 336.000 C 322.400 335.780,322.040 335.600,321.600 335.600 C 321.160 335.600,320.800 335.420,320.800 335.200 C 320.800 334.980,320.440 334.800,320.000 334.800 C 319.560 334.800,319.200 334.620,319.200 334.400 C 319.200 334.180,318.840 334.000,318.400 334.000 C 317.960 334.000,317.600 333.820,317.600 333.600 C 317.600 333.380,317.060 333.200,316.400 333.200 C 315.740 333.200,315.200 333.020,315.200 332.800 C 315.200 332.580,314.660 332.400,314.000 332.400 C 313.340 332.400,312.800 332.220,312.800 332.000 C 312.800 331.780,312.260 331.600,311.600 331.600 C 310.940 331.600,310.400 331.420,310.400 331.200 C 310.400 330.980,309.806 330.800,309.080 330.800 C 308.354 330.800,307.548 330.588,307.288 330.328 C 306.926 329.966,306.603 329.970,305.898 330.348 C 305.176 330.734,304.467 330.736,302.590 330.359 C 299.926 329.823,200.804 329.330,200.284 329.849 M61.342 349.100 C 60.044 350.265,58.647 352.434,59.375 352.154 C 59.719 352.022,60.000 351.717,60.000 351.476 C 60.000 351.235,60.575 350.445,61.278 349.719 C 62.626 348.329,62.669 347.909,61.342 349.100 M47.492 378.642 C 47.331 378.802,47.205 379.308,47.212 379.767 C 47.223 380.536,47.256 380.545,47.640 379.885 C 48.088 379.116,47.973 378.160,47.492 378.642 M50.202 397.202 C 50.602 397.644,51.011 397.922,51.112 397.821 C 51.328 397.605,50.188 396.400,49.767 396.400 C 49.607 396.400,49.803 396.761,50.202 397.202 " stroke="none" fill="#3c3c44" fill-rule="evenodd"></path><path id="path2" d="M102.000 330.039 C 100.130 330.213,96.890 330.452,94.800 330.571 C 92.710 330.690,90.640 330.945,90.200 331.138 C 89.760 331.331,88.680 331.706,87.800 331.971 C 85.574 332.641,85.539 332.656,78.100 336.117 C 77.605 336.347,77.200 336.685,77.200 336.868 C 77.200 337.050,76.840 337.200,76.400 337.200 C 75.960 337.200,75.600 337.358,75.600 337.551 C 75.600 337.745,75.060 338.127,74.400 338.400 C 73.740 338.673,73.200 339.055,73.200 339.249 C 73.200 339.442,72.930 339.600,72.600 339.600 C 72.270 339.600,72.000 339.780,72.000 340.000 C 72.000 340.220,71.770 340.400,71.488 340.400 C 71.207 340.400,70.717 340.760,70.400 341.200 C 70.083 341.640,69.620 342.000,69.371 342.000 C 69.122 342.000,67.533 343.350,65.839 345.000 C 64.146 346.650,62.579 348.000,62.357 348.000 C 62.134 348.000,62.047 348.152,62.162 348.339 C 62.277 348.525,61.838 349.189,61.186 349.814 C 60.534 350.438,60.000 351.143,60.000 351.379 C 60.000 351.615,59.640 352.032,59.200 352.307 C 58.760 352.582,58.400 353.075,58.400 353.403 C 58.400 353.732,58.220 354.000,58.000 354.000 C 57.780 354.000,57.600 354.188,57.600 354.417 C 57.600 354.646,57.240 355.220,56.800 355.692 C 56.360 356.164,56.000 356.787,56.000 357.075 C 56.000 357.364,55.820 357.600,55.600 357.600 C 55.380 357.600,55.200 357.960,55.200 358.400 C 55.200 358.840,55.050 359.200,54.868 359.200 C 54.685 359.200,54.347 359.605,54.117 360.100 C 51.887 364.892,51.043 366.748,50.704 367.600 C 50.486 368.150,50.148 368.913,49.953 369.295 C 49.759 369.677,49.600 370.431,49.600 370.971 C 49.600 371.511,49.440 372.052,49.244 372.173 C 49.049 372.294,48.773 373.069,48.631 373.896 C 48.489 374.723,48.187 376.480,47.960 377.800 C 46.956 383.625,47.051 390.851,48.163 393.283 C 49.263 395.686,51.956 398.800,52.935 398.800 C 53.264 398.800,53.608 399.025,53.700 399.300 C 53.832 399.697,68.909 399.821,126.929 399.904 L 199.991 400.008 200.096 364.804 L 200.200 329.600 152.800 329.662 C 126.730 329.696,103.870 329.866,102.000 330.039 M296.900 329.887 C 297.505 329.978,298.495 329.978,299.100 329.887 C 299.705 329.795,299.210 329.720,298.000 329.720 C 296.790 329.720,296.295 329.795,296.900 329.887 " stroke="none" fill="#545c64" fill-rule="evenodd"></path><path id="path3" d="M87.400 81.200 C 88.706 82.520,89.865 83.600,89.975 83.600 C 90.085 83.600,89.106 82.520,87.800 81.200 C 86.494 79.880,85.335 78.800,85.225 78.800 C 85.115 78.800,86.094 79.880,87.400 81.200 M312.975 80.500 L 311.800 81.800 313.100 80.625 C 313.815 79.979,314.400 79.394,314.400 79.325 C 314.400 79.016,314.070 79.288,312.975 80.500 M187.200 117.200 C 187.200 117.422,186.141 117.600,184.824 117.600 C 183.517 117.600,182.336 117.780,182.200 118.000 C 182.064 118.220,180.973 118.400,179.776 118.400 C 178.579 118.400,177.600 118.580,177.600 118.800 C 177.600 119.020,176.970 119.200,176.200 119.200 C 175.430 119.200,174.800 119.380,174.800 119.600 C 174.800 119.820,174.080 120.000,173.200 120.000 C 172.320 120.000,171.600 120.180,171.600 120.400 C 171.600 120.620,170.880 120.800,170.000 120.800 C 169.120 120.800,168.400 120.980,168.400 121.200 C 168.400 121.420,167.860 121.600,167.200 121.600 C 166.540 121.600,166.000 121.780,166.000 122.000 C 166.000 122.220,165.561 122.400,165.024 122.400 C 164.487 122.400,163.936 122.580,163.800 122.800 C 163.664 123.020,163.203 123.200,162.776 123.200 C 162.349 123.200,162.000 123.380,162.000 123.600 C 162.000 123.820,161.561 124.000,161.024 124.000 C 160.487 124.000,159.936 124.180,159.800 124.400 C 159.664 124.620,159.220 124.800,158.814 124.800 C 158.408 124.800,157.384 125.145,156.538 125.567 C 152.798 127.432,150.605 128.400,150.121 128.400 C 149.835 128.400,149.600 128.580,149.600 128.800 C 149.600 129.020,149.364 129.200,149.075 129.200 C 148.787 129.200,148.164 129.560,147.692 130.000 C 147.220 130.440,146.556 130.800,146.217 130.800 C 145.878 130.800,145.600 130.980,145.600 131.200 C 145.600 131.420,145.330 131.600,145.000 131.600 C 144.670 131.600,144.400 131.780,144.400 132.000 C 144.400 132.220,144.130 132.400,143.800 132.400 C 143.470 132.400,143.200 132.580,143.200 132.800 C 143.200 133.020,142.930 133.200,142.600 133.200 C 142.270 133.200,142.000 133.380,142.000 133.600 C 142.000 133.820,141.757 134.000,141.459 134.000 C 141.162 134.000,140.354 134.540,139.663 135.200 C 138.972 135.860,138.208 136.400,137.964 136.400 C 137.720 136.400,137.017 136.940,136.400 137.600 C 135.783 138.260,135.063 138.800,134.800 138.800 C 134.537 138.800,133.844 139.296,133.260 139.901 C 132.677 140.507,131.480 141.526,130.600 142.166 C 128.653 143.582,119.200 153.121,119.200 153.670 C 119.200 153.886,118.480 154.754,117.600 155.600 C 116.720 156.446,116.000 157.349,116.000 157.608 C 116.000 157.867,115.460 158.583,114.800 159.200 C 114.140 159.817,113.600 160.453,113.600 160.614 C 113.600 160.774,113.285 161.199,112.900 161.557 C 112.515 161.916,111.975 162.612,111.700 163.104 C 111.425 163.597,110.975 164.405,110.700 164.900 C 110.425 165.395,110.020 165.932,109.800 166.094 C 109.580 166.256,109.548 166.391,109.729 166.394 C 109.909 166.397,109.773 166.685,109.425 167.032 C 109.077 167.380,108.895 167.830,109.020 168.032 C 109.145 168.235,109.057 168.400,108.824 168.400 C 108.591 168.400,108.400 168.720,108.400 169.112 C 108.400 169.503,108.040 170.083,107.600 170.400 C 107.160 170.717,106.800 171.297,106.800 171.688 C 106.800 172.080,106.620 172.400,106.400 172.400 C 106.180 172.400,106.000 172.760,106.000 173.200 C 106.000 173.640,105.820 174.000,105.600 174.000 C 105.380 174.000,105.200 174.360,105.200 174.800 C 105.200 175.240,105.020 175.600,104.800 175.600 C 104.580 175.600,104.400 175.960,104.400 176.400 C 104.400 176.840,104.265 177.201,104.100 177.203 C 103.741 177.207,102.800 179.144,102.800 179.880 C 102.800 180.166,102.620 180.400,102.400 180.400 C 102.180 180.400,102.000 180.850,102.000 181.400 C 102.000 181.950,101.820 182.400,101.600 182.400 C 101.380 182.400,101.200 182.940,101.200 183.600 C 101.200 184.260,101.020 184.800,100.800 184.800 C 100.580 184.800,100.400 185.149,100.400 185.576 C 100.400 186.003,100.220 186.464,100.000 186.600 C 99.780 186.736,99.600 187.287,99.600 187.824 C 99.600 188.361,99.420 188.800,99.200 188.800 C 98.980 188.800,98.800 189.340,98.800 190.000 C 98.800 190.660,98.620 191.200,98.400 191.200 C 98.180 191.200,98.000 191.819,98.000 192.576 C 98.000 193.333,97.820 194.064,97.600 194.200 C 97.380 194.336,97.200 195.067,97.200 195.824 C 97.200 196.581,97.020 197.200,96.800 197.200 C 96.580 197.200,96.400 197.920,96.400 198.800 C 96.400 199.680,96.220 200.400,96.000 200.400 C 95.778 200.400,95.600 201.467,95.600 202.800 C 95.600 204.133,95.422 205.200,95.200 205.200 C 94.979 205.200,94.800 206.240,94.800 207.520 C 94.800 208.796,94.619 210.021,94.399 210.241 C 94.133 210.507,94.032 230.837,94.099 270.421 L 94.200 330.200 96.000 330.060 C 96.990 329.983,120.750 329.803,148.800 329.660 L 199.800 329.400 200.000 305.300 L 200.200 281.200 182.500 281.200 L 164.800 281.200 164.800 262.273 C 164.800 251.217,164.970 242.360,165.208 240.973 C 166.231 235.029,168.618 229.321,171.812 225.182 C 173.694 222.745,173.693 222.723,171.598 220.000 C 170.073 218.017,167.432 212.927,166.823 210.800 C 166.540 209.810,166.161 208.640,165.981 208.200 C 164.511 204.618,164.501 194.654,165.964 190.400 C 166.153 189.850,166.548 188.590,166.842 187.600 C 169.520 178.594,179.491 168.616,188.400 166.030 C 189.390 165.742,190.650 165.352,191.200 165.163 C 203.685 160.864,223.446 169.044,229.936 181.196 C 232.707 186.384,232.840 186.738,234.219 192.600 C 234.940 195.666,234.946 202.696,234.230 205.800 C 233.031 210.998,232.506 212.670,231.529 214.400 C 230.970 215.390,230.107 216.920,229.610 217.800 C 229.114 218.680,228.584 219.490,228.434 219.600 C 227.186 220.515,225.979 223.346,226.700 223.667 C 228.063 224.272,232.158 231.868,233.673 236.600 C 234.545 239.327,234.573 239.948,234.707 260.300 L 234.846 281.200 270.423 281.200 L 306.000 281.200 306.000 245.600 C 306.000 222.133,305.864 210.000,305.600 210.000 C 305.378 210.000,305.200 208.941,305.200 207.624 C 305.200 206.317,305.020 205.136,304.800 205.000 C 304.580 204.864,304.400 203.773,304.400 202.576 C 304.400 201.379,304.220 200.400,304.000 200.400 C 303.780 200.400,303.600 199.680,303.600 198.800 C 303.600 197.920,303.420 197.200,303.200 197.200 C 302.980 197.200,302.800 196.581,302.800 195.824 C 302.800 195.067,302.620 194.336,302.400 194.200 C 302.180 194.064,302.000 193.333,302.000 192.576 C 302.000 191.819,301.820 191.200,301.600 191.200 C 301.380 191.200,301.200 190.660,301.200 190.000 C 301.200 189.340,301.020 188.800,300.800 188.800 C 300.580 188.800,300.400 188.260,300.400 187.600 C 300.400 186.940,300.220 186.400,300.000 186.400 C 299.780 186.400,299.600 186.040,299.600 185.600 C 299.600 185.160,299.420 184.800,299.200 184.800 C 298.980 184.800,298.800 184.260,298.800 183.600 C 298.800 182.940,298.620 182.400,298.400 182.400 C 298.180 182.400,298.000 182.065,298.000 181.656 C 298.000 180.854,295.595 175.887,295.100 175.667 C 294.935 175.593,294.800 175.188,294.800 174.767 C 294.800 174.345,294.620 174.000,294.400 174.000 C 294.180 174.000,294.000 173.640,294.000 173.200 C 294.000 172.760,293.820 172.400,293.600 172.400 C 293.380 172.400,293.200 172.080,293.200 171.688 C 293.200 171.297,292.840 170.717,292.400 170.400 C 291.960 170.083,291.600 169.599,291.600 169.325 C 291.600 168.581,290.301 166.000,289.926 166.000 C 289.747 166.000,289.600 165.640,289.600 165.200 C 289.600 164.760,289.432 164.400,289.227 164.400 C 289.022 164.400,288.738 164.034,288.596 163.587 C 288.454 163.140,287.902 162.338,287.369 161.805 C 286.836 161.272,286.400 160.713,286.400 160.561 C 286.400 160.410,285.860 159.771,285.200 159.140 C 284.540 158.509,284.000 157.800,284.000 157.565 C 284.000 157.330,283.280 156.446,282.400 155.600 C 281.520 154.754,280.800 153.891,280.800 153.680 C 280.800 153.117,270.836 143.052,269.200 141.963 C 268.430 141.450,267.323 140.529,266.740 139.915 C 266.156 139.302,265.463 138.800,265.200 138.800 C 264.937 138.800,264.217 138.260,263.600 137.600 C 262.983 136.940,262.263 136.400,262.000 136.400 C 261.737 136.400,261.044 135.905,260.460 135.300 C 259.877 134.695,258.860 133.930,258.200 133.600 C 257.540 133.270,256.651 132.685,256.225 132.300 C 255.798 131.915,255.213 131.600,254.925 131.600 C 254.636 131.600,254.400 131.420,254.400 131.200 C 254.400 130.980,254.080 130.800,253.688 130.800 C 253.297 130.800,252.717 130.440,252.400 130.000 C 252.083 129.560,251.503 129.200,251.112 129.200 C 250.720 129.200,250.400 129.020,250.400 128.800 C 250.400 128.580,250.040 128.400,249.600 128.400 C 249.160 128.400,248.800 128.220,248.800 128.000 C 248.800 127.780,248.574 127.600,248.299 127.600 C 248.023 127.600,246.499 126.970,244.911 126.200 C 243.324 125.430,241.660 124.800,241.213 124.800 C 240.766 124.800,240.400 124.620,240.400 124.400 C 240.400 124.180,239.860 124.000,239.200 124.000 C 238.540 124.000,238.000 123.820,238.000 123.600 C 238.000 123.380,237.640 123.200,237.200 123.200 C 236.760 123.200,236.400 123.020,236.400 122.800 C 236.400 122.580,235.860 122.400,235.200 122.400 C 234.540 122.400,234.000 122.220,234.000 122.000 C 234.000 121.780,233.460 121.600,232.800 121.600 C 232.140 121.600,231.600 121.420,231.600 121.200 C 231.600 120.980,230.880 120.800,230.000 120.800 C 229.120 120.800,228.400 120.620,228.400 120.400 C 228.400 120.180,227.680 120.000,226.800 120.000 C 225.920 120.000,225.200 119.820,225.200 119.600 C 225.200 119.380,224.570 119.200,223.800 119.200 C 223.030 119.200,222.400 119.020,222.400 118.800 C 222.400 118.580,221.421 118.400,220.224 118.400 C 219.027 118.400,217.936 118.220,217.800 118.000 C 217.664 117.780,216.483 117.600,215.176 117.600 C 213.859 117.600,212.800 117.422,212.800 117.200 C 212.800 116.942,208.267 116.800,200.000 116.800 C 191.733 116.800,187.200 116.942,187.200 117.200 " stroke="none" fill="#f42c19" fill-rule="evenodd"></path><path id="path4" d="M200.189 281.700 C 200.086 281.975,199.957 292.862,199.901 305.894 L 199.800 329.588 250.400 329.755 C 278.230 329.846,302.125 330.045,303.500 330.196 L 306.000 330.471 306.000 305.836 L 306.000 281.200 253.187 281.200 C 211.303 281.200,200.336 281.303,200.189 281.700 M97.800 329.998 C 97.330 330.198,98.650 330.246,101.000 330.114 C 103.200 329.990,105.075 329.824,105.167 329.744 C 105.523 329.436,98.555 329.676,97.800 329.998 M94.352 330.512 C 94.545 330.705,95.219 330.798,95.851 330.719 C 96.909 330.587,96.881 330.559,95.500 330.368 C 94.640 330.249,94.150 330.310,94.352 330.512 " stroke="none" fill="#bb0404" fill-rule="evenodd"></path></g></svg>