<?xml version="1.0" standalone="no"?>
<!DOCTYPE svg PUBLIC "-//W3C//DTD SVG 20010904//EN"
 "http://www.w3.org/TR/2001/REC-SVG-20010904/DTD/svg10.dtd">
<svg version="1.0" xmlns="http://www.w3.org/2000/svg"
 width="512.000000pt" height="512.000000pt" viewBox="0 0 512.000000 512.000000"
 preserveAspectRatio="xMidYMid meet">

<g transform="translate(0.000000,512.000000) scale(0.100000,-0.100000)"
fill="current" stroke="none">
<path d="M1465 4935 c-25 -24 -25 -26 -25 -215 0 -186 1 -191 23 -214 13 -13
29 -25 37 -28 19 -6 -83 -1399 -104 -1410 -8 -5 -41 -30 -73 -57 -101 -84
-191 -214 -234 -337 -50 -143 -49 -128 -49 -1335 l0 -1130 25 -24 24 -25 751
0 751 0 24 25 25 24 0 1129 c0 744 -4 1149 -11 1188 -35 199 -137 376 -284
493 -38 30 -71 56 -72 56 -2 1 -26 316 -54 700 -43 577 -50 700 -39 703 8 3
24 15 37 28 22 23 23 28 23 214 0 189 0 191 -25 215 l-24 25 -351 0 -351 0
-24 -25z m615 -215 l0 -80 -240 0 -240 0 0 80 0 80 240 0 240 0 0 -80z m-51
-552 c12 -172 25 -334 28 -360 l6 -48 -223 0 -222 0 7 63 c9 99 45 589 45 625
l0 32 168 0 168 0 23 -312z m45 -615 c3 -27 13 -156 22 -288 9 -132 21 -250
25 -262 5 -12 40 -45 78 -73 181 -132 280 -322 281 -537 l0 -73 -640 0 -640 0
0 73 c1 215 100 405 281 537 38 28 73 61 78 73 4 12 16 130 25 262 9 132 19
261 22 288 l6 47 228 0 228 0 6 -47z m406 -1953 l0 -560 -640 0 -640 0 0 560
0 560 640 0 640 0 0 -560z m0 -1000 l0 -280 -640 0 -640 0 0 280 0 280 640 0
640 0 0 -280z"/>
<path d="M2985 1415 c-14 -13 -25 -30 -25 -37 -1 -7 36 -274 82 -593 75 -529
84 -582 105 -603 22 -22 22 -22 373 -22 351 0 351 0 373 23 21 20 30 73 105
602 46 319 83 586 82 593 0 7 -11 24 -25 37 l-24 25 -511 0 -511 0 -24 -25z
m921 -152 c-2 -10 -24 -154 -47 -320 l-42 -303 -297 0 -297 0 -42 303 c-23
166 -45 310 -47 320 -5 16 18 17 386 17 368 0 391 -1 386 -17z m-121 -840 c-3
-32 -9 -68 -12 -80 l-5 -23 -248 0 -248 0 -5 23 c-3 12 -9 48 -12 80 l-7 57
272 0 272 0 -7 -57z"/>
</g>
</svg>
