<?xml version="1.0" standalone="no"?>
<!DOCTYPE svg PUBLIC "-//W3C//DTD SVG 20010904//EN"
 "http://www.w3.org/TR/2001/REC-SVG-20010904/DTD/svg10.dtd">
<svg version="1.0" xmlns="http://www.w3.org/2000/svg"
 width="512.000000pt" height="512.000000pt" viewBox="0 0 512.000000 512.000000"
 preserveAspectRatio="xMidYMid meet">

<g transform="translate(0.000000,512.000000) scale(0.100000,-0.100000)"
fill="current" stroke="none">
<path d="M1600 4720 l0 -80 240 0 240 0 0 80 0 80 -240 0 -240 0 0 -80z"/>
<path d="M1670 4448 c0 -36 -36 -526 -45 -625 l-7 -63 222 0 223 0 -6 48 c-3
26 -16 188 -28 360 l-23 312 -168 0 -168 0 0 -32z"/>
<path d="M1606 3553 c-3 -27 -13 -156 -22 -288 -9 -132 -21 -250 -25 -262 -5
-12 -40 -45 -78 -73 -181 -132 -280 -322 -281 -537 l0 -73 640 0 640 0 0 73
c-1 215 -100 405 -281 537 -38 28 -73 61 -78 73 -4 12 -16 130 -25 262 -9 132
-19 261 -22 288 l-6 47 -228 0 -228 0 -6 -47z"/>
<path d="M1200 1600 l0 -560 640 0 640 0 0 560 0 560 -640 0 -640 0 0 -560z"/>
<path d="M3134 1263 c2 -10 24 -154 47 -320 l42 -303 297 0 297 0 42 303 c23
166 45 310 47 320 5 16 -18 17 -386 17 -368 0 -391 -1 -386 -17z"/>
<path d="M1200 600 l0 -280 640 0 640 0 0 280 0 280 -640 0 -640 0 0 -280z"/>
<path d="M3255 423 c3 -32 9 -68 12 -80 l5 -23 248 0 248 0 5 23 c3 12 9 48
12 80 l7 57 -272 0 -272 0 7 -57z"/>
</g>
</svg>
