<svg id="svg" version="1.1" xmlns="http://www.w3.org/2000/svg" xmlns:xlink="http://www.w3.org/1999/xlink" width="400" height="400" viewBox="0, 0, 400,400"><g id="svgg"><path id="path0" d="M212.200 4.800 C 212.064 5.020,210.973 5.200,209.776 5.200 C 208.579 5.200,207.600 5.380,207.600 5.600 C 207.600 5.820,206.880 6.000,206.000 6.000 L 204.400 6.000 204.400 63.800 C 204.400 102.067,204.265 121.600,204.000 121.600 C 203.780 121.600,203.600 122.500,203.600 123.600 C 203.600 124.700,203.420 125.600,203.200 125.600 C 202.980 125.600,202.800 126.230,202.800 127.000 C 202.800 127.770,202.620 128.400,202.400 128.400 C 202.180 128.400,202.000 128.839,202.000 129.376 C 202.000 129.913,201.820 130.464,201.600 130.600 C 201.380 130.736,201.200 131.197,201.200 131.624 C 201.200 132.051,201.020 132.400,200.800 132.400 C 200.580 132.400,200.400 132.760,200.400 133.200 C 200.400 133.640,200.220 134.000,200.000 134.000 C 199.780 134.000,199.600 134.360,199.600 134.800 C 199.600 135.240,199.420 135.600,199.200 135.600 C 198.980 135.600,198.800 135.836,198.800 136.125 C 198.800 136.413,198.440 137.036,198.000 137.508 C 197.560 137.980,197.200 138.560,197.200 138.797 C 197.200 139.033,196.615 139.818,195.900 140.540 C 194.167 142.291,192.000 144.868,192.000 145.178 C 192.000 145.315,191.447 145.754,190.770 146.154 C 190.094 146.553,188.749 147.672,187.781 148.640 C 186.813 149.608,185.786 150.400,185.499 150.400 C 185.212 150.400,184.717 150.760,184.400 151.200 C 184.083 151.640,183.543 152.000,183.200 152.000 C 182.857 152.000,182.317 152.360,182.000 152.800 C 181.683 153.240,181.186 153.600,180.895 153.600 C 180.604 153.600,179.980 153.960,179.508 154.400 C 179.036 154.840,178.413 155.200,178.125 155.200 C 177.836 155.200,177.600 155.380,177.600 155.600 C 177.600 155.820,177.240 156.000,176.800 156.000 C 176.360 156.000,176.000 156.180,176.000 156.400 C 176.000 156.620,175.730 156.800,175.400 156.800 C 175.070 156.800,174.800 156.980,174.800 157.200 C 174.800 157.420,174.440 157.600,174.000 157.600 C 173.560 157.600,173.200 157.780,173.200 158.000 C 173.200 158.220,172.885 158.401,172.500 158.402 C 172.115 158.404,171.284 158.674,170.654 159.002 C 170.024 159.331,169.340 159.600,169.135 159.600 C 168.929 159.600,168.069 159.935,167.222 160.344 C 166.376 160.752,164.855 161.332,163.842 161.631 C 162.829 161.930,162.000 162.315,162.000 162.487 C 162.000 162.659,161.561 162.800,161.024 162.800 C 160.487 162.800,159.936 162.980,159.800 163.200 C 159.664 163.420,159.113 163.600,158.576 163.600 C 158.039 163.600,157.600 163.780,157.600 164.000 C 157.600 164.220,157.071 164.400,156.424 164.400 C 155.777 164.400,155.136 164.580,155.000 164.800 C 154.864 165.020,154.234 165.200,153.600 165.200 C 152.966 165.200,152.336 165.380,152.200 165.600 C 152.064 165.820,151.243 166.000,150.376 166.000 C 149.509 166.000,148.800 166.180,148.800 166.400 C 148.800 166.620,148.080 166.800,147.200 166.800 C 146.320 166.800,145.600 166.980,145.600 167.200 C 145.600 167.420,144.880 167.600,144.000 167.600 C 143.120 167.600,142.400 167.780,142.400 168.000 C 142.400 168.220,141.590 168.400,140.600 168.400 C 139.610 168.400,138.800 168.580,138.800 168.800 C 138.800 169.020,138.001 169.200,137.024 169.200 C 136.047 169.200,135.136 169.380,135.000 169.600 C 134.864 169.820,133.683 170.000,132.376 170.000 C 131.059 170.000,130.000 170.178,130.000 170.400 C 130.000 170.620,129.010 170.800,127.800 170.800 C 126.590 170.800,125.600 170.980,125.600 171.200 C 125.600 171.433,124.267 171.600,122.400 171.600 C 120.533 171.600,119.200 171.767,119.200 172.000 C 119.200 172.237,117.741 172.400,115.624 172.400 C 113.657 172.400,111.936 172.580,111.800 172.800 C 111.657 173.032,109.470 173.200,106.600 173.200 C 103.730 173.200,101.543 173.368,101.400 173.600 C 101.251 173.840,98.529 174.000,94.576 174.000 L 88.000 174.000 88.000 163.800 L 88.000 153.600 44.000 153.600 L 0.000 153.600 0.000 274.600 L 0.000 395.600 44.000 395.600 L 88.000 395.600 88.000 383.200 C 88.000 375.200,88.142 370.800,88.400 370.800 C 88.620 370.800,88.800 370.980,88.800 371.200 C 88.800 371.420,89.160 371.600,89.600 371.600 C 90.040 371.600,90.400 371.780,90.400 372.000 C 90.400 372.220,90.745 372.400,91.167 372.400 C 91.588 372.400,91.993 372.535,92.067 372.700 C 92.254 373.123,96.694 375.200,97.409 375.200 C 97.734 375.200,98.000 375.380,98.000 375.600 C 98.000 375.820,98.360 376.000,98.800 376.000 C 99.240 376.000,99.600 376.180,99.600 376.400 C 99.600 376.620,99.960 376.800,100.400 376.800 C 100.840 376.800,101.200 376.980,101.200 377.200 C 101.200 377.420,101.560 377.600,102.000 377.600 C 102.440 377.600,102.800 377.780,102.800 378.000 C 102.800 378.220,103.160 378.400,103.600 378.400 C 104.040 378.400,104.400 378.580,104.400 378.800 C 104.400 379.020,104.760 379.200,105.200 379.200 C 105.640 379.200,106.000 379.380,106.000 379.600 C 106.000 379.820,106.360 380.000,106.800 380.000 C 107.240 380.000,107.600 380.180,107.600 380.400 C 107.600 380.620,107.960 380.800,108.400 380.800 C 108.840 380.800,109.200 380.946,109.200 381.125 C 109.200 381.304,109.830 381.698,110.600 382.000 C 111.370 382.302,112.000 382.696,112.000 382.875 C 112.000 383.054,112.360 383.200,112.800 383.200 C 113.240 383.200,113.600 383.380,113.600 383.600 C 113.600 383.820,113.960 384.000,114.400 384.000 C 114.840 384.000,115.200 384.180,115.200 384.400 C 115.200 384.620,115.560 384.800,116.000 384.800 C 116.440 384.800,116.800 384.980,116.800 385.200 C 116.800 385.420,117.160 385.600,117.600 385.600 C 118.040 385.600,118.400 385.780,118.400 386.000 C 118.400 386.220,118.760 386.400,119.200 386.400 C 119.640 386.400,120.000 386.580,120.000 386.800 C 120.000 387.020,120.360 387.200,120.800 387.200 C 121.240 387.200,121.600 387.380,121.600 387.600 C 121.600 387.820,121.960 388.000,122.400 388.000 C 122.840 388.000,123.200 388.180,123.200 388.400 C 123.200 388.620,123.560 388.800,124.000 388.800 C 124.440 388.800,124.800 388.980,124.800 389.200 C 124.800 389.420,125.145 389.600,125.567 389.600 C 125.988 389.600,126.393 389.735,126.467 389.900 C 126.649 390.311,129.490 391.600,130.214 391.600 C 130.536 391.600,130.800 391.780,130.800 392.000 C 130.800 392.220,131.160 392.400,131.600 392.400 C 132.040 392.400,132.400 392.580,132.400 392.800 C 132.400 393.020,132.760 393.200,133.200 393.200 C 133.640 393.200,134.000 393.380,134.000 393.600 C 134.000 393.820,134.360 394.000,134.800 394.000 C 135.240 394.000,135.600 394.180,135.600 394.400 C 135.600 394.620,135.960 394.800,136.400 394.800 C 136.840 394.800,137.200 394.980,137.200 395.200 C 137.200 395.466,177.667 395.600,257.800 395.600 C 337.933 395.600,378.400 395.466,378.400 395.200 C 378.400 394.980,378.839 394.800,379.376 394.800 C 379.913 394.800,380.464 394.620,380.600 394.400 C 380.736 394.180,381.197 394.000,381.624 394.000 C 382.051 394.000,382.400 393.820,382.400 393.600 C 382.400 393.380,382.760 393.200,383.200 393.200 C 383.640 393.200,384.000 393.020,384.000 392.800 C 384.000 392.580,384.360 392.400,384.800 392.400 C 385.240 392.400,385.600 392.238,385.600 392.039 C 385.600 391.841,386.095 391.505,386.700 391.293 C 387.731 390.932,389.177 389.586,392.575 385.822 C 393.359 384.954,394.000 384.049,394.000 383.810 C 394.000 383.572,394.360 383.117,394.800 382.800 C 395.240 382.483,395.600 381.903,395.600 381.512 C 395.600 381.120,395.780 380.800,396.000 380.800 C 396.220 380.800,396.400 380.440,396.400 380.000 C 396.400 379.560,396.580 379.200,396.800 379.200 C 397.020 379.200,397.200 378.840,397.200 378.400 C 397.200 377.960,397.380 377.600,397.600 377.600 C 397.820 377.600,398.000 377.251,398.000 376.824 C 398.000 376.397,398.180 375.936,398.400 375.800 C 398.620 375.664,398.800 375.059,398.800 374.456 C 398.800 373.853,399.025 373.135,399.300 372.860 C 399.674 372.486,399.800 369.738,399.800 361.914 C 399.800 353.912,399.683 351.428,399.300 351.300 C 399.025 351.208,398.800 350.529,398.800 349.790 C 398.800 349.052,398.620 348.336,398.400 348.200 C 398.180 348.064,398.000 347.603,398.000 347.176 C 398.000 346.749,397.820 346.400,397.600 346.400 C 397.380 346.400,397.200 346.040,397.200 345.600 C 397.200 345.160,397.020 344.800,396.800 344.800 C 396.580 344.800,396.400 344.440,396.400 344.000 C 396.400 343.560,396.220 343.200,396.000 343.200 C 395.780 343.200,395.600 342.930,395.600 342.600 C 395.600 342.270,395.420 342.000,395.200 342.000 C 394.980 342.000,394.800 341.712,394.800 341.360 C 394.800 341.009,394.260 340.217,393.600 339.600 C 392.940 338.983,392.400 338.191,392.400 337.840 C 392.400 337.488,392.220 337.200,392.000 337.200 C 390.969 337.200,391.683 335.057,393.200 333.600 C 394.080 332.754,394.800 331.779,394.800 331.431 C 394.800 331.084,394.980 330.800,395.200 330.800 C 395.420 330.800,395.600 330.440,395.600 330.000 C 395.600 329.560,395.780 329.200,396.000 329.200 C 396.220 329.200,396.400 328.840,396.400 328.400 C 396.400 327.960,396.580 327.600,396.800 327.600 C 397.020 327.600,397.200 327.240,397.200 326.800 C 397.200 326.360,397.380 326.000,397.600 326.000 C 397.820 326.000,398.000 325.651,398.000 325.224 C 398.000 324.797,398.180 324.336,398.400 324.200 C 398.620 324.064,398.800 323.438,398.800 322.810 C 398.800 322.181,399.025 321.592,399.300 321.500 C 399.683 321.372,399.800 318.831,399.800 310.600 C 399.800 302.369,399.683 299.828,399.300 299.700 C 399.025 299.608,398.800 299.008,398.800 298.367 C 398.800 297.725,398.620 297.200,398.400 297.200 C 398.180 297.200,398.000 296.660,398.000 296.000 C 398.000 295.340,397.854 294.800,397.675 294.800 C 397.496 294.800,397.102 294.170,396.800 293.400 C 396.498 292.630,396.104 292.000,395.925 292.000 C 395.746 292.000,395.600 291.640,395.600 291.200 C 395.600 290.760,395.420 290.400,395.200 290.400 C 394.980 290.400,394.800 290.116,394.800 289.769 C 394.800 289.421,394.115 288.476,393.278 287.669 C 391.216 285.680,391.058 285.089,392.225 283.733 C 392.761 283.110,393.199 282.415,393.200 282.188 C 393.200 281.962,393.560 281.517,394.000 281.200 C 394.440 280.883,394.800 280.318,394.800 279.945 C 394.800 279.572,394.935 279.207,395.100 279.133 C 395.476 278.966,396.775 276.836,397.071 275.900 C 397.193 275.515,397.452 275.200,397.647 275.200 C 397.841 275.200,398.000 274.761,398.000 274.224 C 398.000 273.687,398.180 273.136,398.400 273.000 C 398.620 272.864,398.800 272.259,398.800 271.656 C 398.800 271.053,399.025 270.335,399.300 270.060 C 399.674 269.685,399.800 266.954,399.800 259.200 C 399.800 251.445,399.674 248.714,399.300 248.340 C 399.025 248.065,398.800 247.336,398.800 246.720 C 398.800 246.104,398.620 245.600,398.400 245.600 C 398.180 245.600,398.000 245.150,398.000 244.600 C 398.000 244.050,397.820 243.600,397.600 243.600 C 397.380 243.600,397.200 243.240,397.200 242.800 C 397.200 242.360,397.020 242.000,396.800 242.000 C 396.580 242.000,396.400 241.640,396.400 241.200 C 396.400 240.760,396.220 240.400,396.000 240.400 C 395.780 240.400,395.600 240.157,395.600 239.859 C 395.600 239.562,395.060 238.754,394.400 238.063 C 393.740 237.372,393.200 236.617,393.200 236.385 C 393.200 236.153,392.750 235.514,392.200 234.964 C 390.909 233.672,390.931 233.495,392.600 231.827 C 393.370 231.057,394.000 230.190,394.000 229.902 C 394.000 229.613,394.360 229.117,394.800 228.800 C 395.240 228.483,395.600 227.903,395.600 227.512 C 395.600 227.120,395.780 226.800,396.000 226.800 C 396.220 226.800,396.400 226.440,396.400 226.000 C 396.400 225.560,396.535 225.199,396.700 225.197 C 397.106 225.193,398.000 223.214,398.000 222.320 C 398.000 221.924,398.180 221.600,398.400 221.600 C 398.620 221.600,398.800 221.075,398.800 220.433 C 398.800 219.792,399.025 219.192,399.300 219.100 C 400.026 218.858,400.026 197.542,399.300 197.300 C 399.013 197.205,398.800 196.464,398.800 195.567 C 398.800 194.705,398.654 194.000,398.475 194.000 C 398.296 194.000,397.902 193.370,397.600 192.600 C 397.298 191.830,396.904 191.200,396.725 191.200 C 396.546 191.200,396.400 190.700,396.400 190.088 C 396.400 189.435,396.070 188.739,395.600 188.400 C 395.160 188.083,394.800 187.543,394.800 187.200 C 394.800 186.857,394.440 186.317,394.000 186.000 C 393.560 185.683,393.200 185.216,393.200 184.963 C 393.200 184.348,388.254 179.200,387.664 179.200 C 387.409 179.200,387.200 179.042,387.200 178.849 C 387.200 178.655,386.660 178.273,386.000 178.000 C 385.340 177.727,384.800 177.366,384.800 177.198 C 384.800 177.030,384.485 176.787,384.100 176.657 C 379.538 175.114,378.363 174.811,376.924 174.806 C 376.002 174.803,375.136 174.620,375.000 174.400 C 374.837 174.137,358.129 174.000,326.176 174.000 L 277.600 174.000 277.600 112.600 C 277.600 71.933,277.465 51.200,277.200 51.200 C 276.969 51.200,276.800 49.941,276.800 48.224 C 276.800 46.587,276.620 45.136,276.400 45.000 C 276.180 44.864,276.000 44.133,276.000 43.376 C 276.000 42.619,275.846 42.000,275.657 42.000 C 275.468 42.000,275.197 40.883,275.054 39.518 C 274.912 38.152,274.616 36.856,274.398 36.638 C 274.179 36.419,274.000 35.837,274.000 35.344 C 274.000 34.851,273.820 34.336,273.600 34.200 C 273.380 34.064,273.200 33.603,273.200 33.176 C 273.200 32.749,273.020 32.400,272.800 32.400 C 272.580 32.400,272.400 32.040,272.400 31.600 C 272.400 31.160,272.220 30.800,272.000 30.800 C 271.780 30.800,271.600 30.440,271.600 30.000 C 271.600 29.560,271.420 29.200,271.200 29.200 C 270.980 29.200,270.800 28.840,270.800 28.400 C 270.800 27.960,270.620 27.600,270.400 27.600 C 270.180 27.600,270.000 27.330,270.000 27.000 C 270.000 26.670,269.850 26.400,269.668 26.400 C 269.485 26.400,269.080 25.905,268.768 25.300 C 268.455 24.695,267.705 23.723,267.100 23.140 C 266.495 22.556,266.000 21.869,266.000 21.612 C 266.000 21.100,260.112 15.200,259.601 15.200 C 259.427 15.200,258.754 14.705,258.106 14.100 C 257.457 13.495,256.403 12.730,255.763 12.401 C 255.124 12.071,254.510 11.711,254.400 11.601 C 253.924 11.123,252.361 10.400,251.805 10.400 C 251.472 10.400,251.200 10.220,251.200 10.000 C 251.200 9.780,250.951 9.600,250.646 9.600 C 250.341 9.600,249.576 9.331,248.946 9.002 C 248.316 8.674,247.496 8.404,247.124 8.402 C 246.752 8.401,246.336 8.220,246.200 8.000 C 246.064 7.780,245.513 7.600,244.976 7.600 C 244.439 7.600,244.000 7.420,244.000 7.200 C 244.000 6.980,243.280 6.800,242.400 6.800 C 241.520 6.800,240.800 6.620,240.800 6.400 C 240.800 6.180,240.170 6.000,239.400 6.000 C 238.630 6.000,238.000 5.820,238.000 5.600 C 238.000 5.375,236.875 5.200,235.424 5.200 C 234.007 5.200,232.736 5.020,232.600 4.800 C 232.264 4.257,212.536 4.257,212.200 4.800 M230.200 20.436 C 235.924 21.226,244.462 23.850,245.600 25.169 C 245.710 25.297,246.295 25.656,246.900 25.968 C 247.505 26.280,248.000 26.685,248.000 26.868 C 248.000 27.050,248.230 27.200,248.512 27.200 C 248.793 27.200,250.458 28.686,252.212 30.501 C 257.482 35.958,260.182 42.241,261.278 51.600 C 261.883 56.763,262.152 173.934,261.561 174.647 C 261.191 175.092,259.037 175.200,250.497 175.200 C 240.608 175.200,238.391 175.382,235.800 176.404 C 235.360 176.577,234.370 176.951,233.600 177.235 C 215.861 183.766,210.042 213.906,223.298 230.594 C 225.612 233.507,225.635 233.970,223.583 236.421 C 213.421 248.558,213.433 270.985,223.607 282.386 C 225.433 284.432,225.562 285.248,224.300 286.771 C 213.313 300.034,212.952 320.235,223.465 333.427 C 225.650 336.170,225.724 336.578,224.297 338.069 C 223.423 338.982,221.200 341.904,221.200 342.140 C 221.200 342.264,220.664 343.274,220.009 344.384 C 215.114 352.687,214.445 365.756,218.395 375.912 C 219.056 377.611,219.597 379.225,219.598 379.500 C 219.600 379.897,211.632 380.000,181.086 380.000 L 142.572 380.000 115.023 366.222 C 99.871 358.643,87.325 352.208,87.143 351.922 C 86.670 351.175,86.718 191.150,87.191 190.400 C 87.502 189.908,89.252 189.750,96.885 189.525 C 115.880 188.963,135.403 186.383,150.900 182.387 C 154.599 181.433,155.533 181.204,157.600 180.744 C 158.810 180.474,159.971 180.107,160.180 179.927 C 160.389 179.747,160.963 179.600,161.456 179.600 C 161.949 179.600,162.464 179.420,162.600 179.200 C 162.736 178.980,163.276 178.800,163.800 178.800 C 164.324 178.800,164.864 178.620,165.000 178.400 C 165.136 178.180,165.599 178.000,166.029 178.000 C 166.459 178.000,167.123 177.841,167.505 177.647 C 167.887 177.452,168.740 177.071,169.400 176.800 C 170.060 176.529,170.913 176.148,171.295 175.953 C 171.677 175.759,172.174 175.600,172.399 175.600 C 174.371 175.600,191.476 166.471,193.929 164.109 C 194.219 163.829,194.611 163.600,194.800 163.600 C 194.989 163.600,195.381 163.375,195.671 163.100 C 195.962 162.825,197.758 161.290,199.663 159.688 C 203.017 156.868,204.839 155.018,207.654 151.575 C 208.394 150.669,209.405 149.449,209.900 148.864 C 210.394 148.279,210.799 147.575,210.800 147.300 C 210.800 147.025,210.980 146.800,211.200 146.800 C 211.420 146.800,211.600 146.603,211.600 146.362 C 211.600 146.121,211.979 145.391,212.443 144.740 C 215.031 141.106,217.999 133.172,219.304 126.400 C 220.085 122.349,220.119 120.408,220.267 71.600 C 220.351 43.770,220.500 20.775,220.597 20.500 C 220.824 19.861,225.790 19.828,230.200 20.436 M71.795 170.900 C 71.922 171.615,71.975 218.910,71.913 276.000 L 71.800 379.800 43.800 379.800 L 15.800 379.800 15.698 275.200 C 15.641 217.670,15.681 170.375,15.785 170.100 C 15.934 169.707,21.902 169.600,43.769 169.600 L 71.564 169.600 71.795 170.900 M36.000 197.800 L 36.000 208.017 43.700 207.909 L 51.400 207.800 51.400 197.800 L 51.400 187.800 43.700 187.691 L 36.000 187.583 36.000 197.800 M373.400 190.028 C 387.263 193.696,388.957 219.131,375.760 225.453 C 373.454 226.557,241.905 226.628,239.575 225.526 C 226.817 219.491,228.122 193.910,241.380 190.139 C 243.587 189.512,371.042 189.404,373.400 190.028 M375.081 241.683 C 388.037 247.272,387.835 272.683,374.801 277.089 C 371.909 278.066,241.447 277.622,239.444 276.628 C 233.060 273.460,229.139 263.542,230.971 255.200 C 232.451 248.464,235.206 244.178,239.400 242.085 C 241.372 241.101,372.829 240.711,375.081 241.683 M376.003 293.265 C 386.154 298.075,387.780 317.936,378.688 326.067 C 375.606 328.824,381.883 328.600,307.600 328.600 L 240.600 328.600 238.734 327.503 C 234.704 325.134,232.420 321.397,230.971 314.800 C 228.892 305.334,234.375 293.918,241.600 292.674 C 245.137 292.065,374.672 292.634,376.003 293.265 M375.800 344.585 C 387.578 350.360,387.688 373.508,375.963 379.172 C 374.252 379.999,374.179 380.000,307.721 380.000 L 241.191 380.000 239.420 379.167 C 233.506 376.388,229.394 366.629,230.784 358.673 C 232.093 351.176,235.557 346.049,240.597 344.146 C 243.067 343.213,373.869 343.638,375.800 344.585 " stroke="none" fill="#040404" fill-rule="evenodd"></path><path id="path1" d="M15.867 169.867 C 15.720 170.013,15.600 217.265,15.600 274.869 L 15.600 379.605 43.700 379.503 L 71.800 379.400 71.913 275.800 C 71.975 218.820,71.922 171.615,71.795 170.900 L 71.564 169.600 43.849 169.600 C 28.605 169.600,16.013 169.720,15.867 169.867 M51.400 197.800 L 51.400 207.800 43.700 207.909 L 36.000 208.017 36.000 197.800 L 36.000 187.583 43.700 187.691 L 51.400 187.800 51.400 197.800 " stroke="none" fill="#26a5ea" fill-rule="evenodd"></path><path id="path2" d="M220.671 71.900 C 220.520 116.984,220.420 123.749,219.866 126.200 C 219.518 127.740,219.056 129.810,218.839 130.800 C 218.416 132.734,216.369 138.563,215.625 139.953 C 215.376 140.419,215.314 140.800,215.488 140.800 C 215.662 140.800,216.044 140.215,216.336 139.500 C 216.628 138.785,217.056 137.750,217.287 137.200 C 218.211 135.000,218.584 133.769,219.560 129.700 C 219.757 128.875,220.147 127.390,220.425 126.400 C 220.818 125.004,220.967 112.947,221.088 72.700 L 221.244 20.800 223.755 20.800 C 225.136 20.800,227.242 20.967,228.433 21.171 C 229.625 21.375,231.860 21.753,233.400 22.012 C 234.940 22.270,236.650 22.564,237.200 22.666 C 237.936 22.802,238.042 22.752,237.600 22.477 C 237.270 22.271,235.740 21.892,234.200 21.634 C 232.660 21.377,230.399 20.994,229.176 20.783 C 227.953 20.572,225.578 20.400,223.898 20.400 L 220.844 20.400 220.671 71.900 M246.000 26.295 C 246.000 26.478,246.519 26.934,247.154 27.309 C 249.952 28.962,255.985 35.642,255.996 37.100 C 255.998 37.375,256.186 37.600,256.414 37.600 C 257.290 37.600,253.382 31.803,251.146 29.785 C 249.317 28.134,246.000 25.884,246.000 26.295 M259.206 45.076 C 259.203 45.558,259.380 46.064,259.600 46.200 C 260.109 46.515,260.109 45.588,259.600 44.800 C 259.285 44.312,259.211 44.364,259.206 45.076 M260.262 50.800 C 260.395 52.450,260.571 53.875,260.652 53.967 C 260.972 54.327,260.722 49.351,260.382 48.600 C 260.151 48.089,260.108 48.882,260.262 50.800 M260.899 115.100 L 260.800 174.000 251.224 174.000 C 245.957 174.000,241.564 174.135,241.461 174.300 C 241.300 174.561,260.833 174.490,261.101 174.229 C 261.157 174.175,261.156 147.596,261.100 115.165 L 260.997 56.200 260.899 115.100 M211.636 146.849 C 208.926 151.014,203.945 156.828,201.494 158.688 C 200.688 159.300,200.023 159.947,200.015 160.127 C 199.987 160.753,202.218 158.858,205.200 155.724 C 208.337 152.427,208.790 151.892,210.386 149.600 C 210.923 148.830,211.460 148.110,211.581 148.000 C 211.701 147.890,212.025 147.395,212.300 146.900 C 212.575 146.405,213.025 145.595,213.300 145.100 C 213.575 144.605,213.957 144.086,214.149 143.946 C 214.341 143.807,214.431 143.516,214.349 143.301 C 214.267 143.085,213.046 144.682,211.636 146.849 M198.627 161.170 C 196.914 163.063,188.361 168.611,182.700 171.501 C 181.655 172.035,180.800 172.558,180.800 172.663 C 180.800 173.066,182.596 172.251,185.865 170.362 C 187.734 169.283,189.429 168.400,189.632 168.400 C 189.834 168.400,190.000 168.232,190.000 168.027 C 190.000 167.822,190.359 167.540,190.798 167.401 C 191.236 167.262,191.821 166.924,192.098 166.652 C 192.374 166.379,193.770 165.364,195.200 164.396 C 197.920 162.554,199.810 160.877,199.507 160.573 C 199.409 160.475,199.013 160.744,198.627 161.170 M178.453 173.453 C 177.713 173.776,177.211 174.145,177.339 174.272 C 177.574 174.508,180.400 173.316,180.400 172.981 C 180.400 172.698,179.911 172.817,178.453 173.453 M236.600 175.200 C 236.308 175.673,236.699 175.673,237.800 175.200 C 238.571 174.869,238.569 174.855,237.724 174.828 C 237.242 174.813,236.736 174.980,236.600 175.200 M229.400 178.531 C 226.477 180.374,220.793 186.253,220.826 187.400 C 220.832 187.620,221.318 187.170,221.904 186.400 C 223.830 183.873,228.163 179.783,230.100 178.664 C 231.869 177.642,232.418 177.152,231.700 177.235 C 231.535 177.254,230.500 177.837,229.400 178.531 M167.600 178.000 C 167.115 178.314,167.172 178.389,167.900 178.394 C 168.395 178.397,168.800 178.220,168.800 178.000 C 168.800 177.499,168.376 177.499,167.600 178.000 M165.400 178.800 C 164.691 179.105,164.725 179.147,165.700 179.172 C 166.305 179.187,166.800 179.020,166.800 178.800 C 166.800 178.331,166.493 178.331,165.400 178.800 M163.000 179.600 C 162.229 179.931,162.231 179.945,163.076 179.972 C 163.558 179.987,164.064 179.820,164.200 179.600 C 164.492 179.127,164.101 179.127,163.000 179.600 M160.600 180.400 C 159.829 180.731,159.831 180.745,160.676 180.772 C 161.158 180.787,161.664 180.620,161.800 180.400 C 162.092 179.927,161.701 179.927,160.600 180.400 M157.600 181.200 C 156.645 181.506,156.657 181.522,157.876 181.560 C 158.578 181.582,159.264 181.420,159.400 181.200 C 159.684 180.740,159.036 180.740,157.600 181.200 M154.400 182.000 C 153.445 182.306,153.457 182.322,154.676 182.360 C 155.378 182.382,156.064 182.220,156.200 182.000 C 156.484 181.540,155.836 181.540,154.400 182.000 M151.200 182.800 C 150.245 183.106,150.257 183.122,151.476 183.160 C 152.178 183.182,152.864 183.020,153.000 182.800 C 153.284 182.340,152.636 182.340,151.200 182.800 M146.000 184.044 C 143.013 184.821,140.679 185.296,136.300 186.020 C 135.035 186.229,132.875 186.588,131.500 186.818 C 124.876 187.924,122.942 188.157,110.400 189.366 C 106.630 189.729,105.724 189.900,107.400 189.932 C 108.720 189.958,111.510 189.798,113.600 189.577 C 115.690 189.356,119.020 189.008,121.000 188.803 C 122.980 188.598,125.770 188.233,127.200 187.992 C 128.630 187.751,130.880 187.391,132.200 187.191 C 137.335 186.415,142.704 185.426,145.200 184.796 C 146.190 184.546,147.587 184.245,148.304 184.127 C 149.021 184.008,149.706 183.751,149.827 183.556 C 150.134 183.060,149.449 183.147,146.000 184.044 M219.405 189.500 C 219.028 190.325,218.287 191.890,217.760 192.979 C 217.232 194.067,216.800 195.361,216.800 195.855 C 216.800 196.349,216.620 196.864,216.400 197.000 C 216.180 197.136,216.000 197.766,216.000 198.400 C 216.000 199.034,215.843 199.650,215.652 199.768 C 214.965 200.192,214.584 207.259,214.991 212.000 L 215.249 215.000 213.325 216.285 C 212.266 216.991,210.950 217.925,210.400 218.359 C 209.850 218.793,208.230 220.007,206.800 221.057 C 201.527 224.928,188.340 236.415,183.409 241.430 C 179.182 245.730,174.272 250.966,172.392 253.180 C 171.186 254.598,169.469 256.591,168.576 257.607 C 155.967 271.956,139.231 299.498,132.000 317.800 C 131.305 319.560,130.485 321.540,130.178 322.200 C 129.087 324.550,124.909 336.746,123.567 341.500 C 123.365 342.215,123.010 343.475,122.777 344.300 C 122.545 345.125,122.199 346.340,122.009 347.000 C 121.568 348.530,120.482 352.869,119.956 355.200 C 119.732 356.190,119.399 357.630,119.215 358.400 C 118.228 362.535,118.000 363.703,118.000 364.618 C 118.000 366.253,116.970 366.200,113.283 364.374 C 111.367 363.426,109.665 362.583,109.500 362.501 C 109.335 362.420,109.200 362.445,109.200 362.559 C 109.200 362.672,116.821 366.552,126.136 371.182 L 143.072 379.600 181.163 379.600 L 219.254 379.600 218.978 378.700 C 218.826 378.205,218.567 377.620,218.402 377.400 C 218.236 377.180,217.741 375.920,217.300 374.600 C 213.254 362.469,215.599 347.670,222.973 338.803 C 225.197 336.128,225.198 336.435,222.962 333.690 C 212.987 321.444,212.861 300.350,222.690 288.037 C 225.247 284.835,225.239 285.131,222.842 282.168 C 212.842 269.810,212.915 248.645,222.999 236.265 C 225.121 233.659,225.127 233.768,222.715 230.798 C 214.573 220.772,213.015 203.641,219.123 191.300 C 220.021 189.485,220.607 188.000,220.424 188.000 C 220.241 188.000,219.782 188.675,219.405 189.500 M91.200 190.375 L 87.800 190.600 87.699 271.297 L 87.598 351.994 93.999 355.200 C 97.520 356.962,100.395 358.269,100.388 358.102 C 100.382 357.936,97.597 356.450,94.200 354.800 L 88.023 351.800 88.012 271.300 L 88.000 190.800 93.100 190.757 C 95.905 190.733,99.280 190.579,100.600 190.415 C 103.616 190.041,96.680 190.011,91.200 190.375 M274.700 190.700 C 292.795 190.758,322.405 190.758,340.500 190.700 C 358.595 190.642,343.790 190.595,307.600 190.595 C 271.410 190.595,256.605 190.642,274.700 190.700 M374.400 191.200 C 374.730 191.413,375.270 191.588,375.600 191.588 C 376.133 191.588,376.133 191.545,375.600 191.200 C 375.270 190.987,374.730 190.812,374.400 190.812 C 373.867 190.812,373.867 190.855,374.400 191.200 M236.495 193.620 C 234.193 195.921,231.752 200.400,232.800 200.400 C 233.020 200.400,233.200 200.110,233.200 199.754 C 233.200 198.553,234.960 195.810,237.086 193.700 C 238.249 192.545,239.046 191.600,238.858 191.600 C 238.669 191.600,237.605 192.509,236.495 193.620 M376.400 191.932 C 376.400 192.115,376.862 192.512,377.426 192.814 C 378.635 193.461,380.805 196.340,381.786 198.600 C 383.026 201.453,383.142 201.780,383.414 203.200 C 383.937 205.921,384.073 211.287,383.631 211.729 C 383.394 211.966,383.200 212.676,383.200 213.306 C 383.200 216.171,378.625 223.302,376.243 224.150 C 375.826 224.298,375.598 224.531,375.736 224.669 C 376.113 225.046,378.926 222.965,380.024 221.495 C 386.179 213.259,385.721 200.810,379.002 193.711 C 377.084 191.685,376.400 191.217,376.400 191.932 M231.658 202.800 C 231.356 204.092,231.203 206.568,231.288 208.800 L 231.434 212.600 231.517 208.180 C 231.564 205.668,231.786 203.574,232.031 203.329 C 232.268 203.092,232.397 202.381,232.318 201.749 C 232.197 200.793,232.086 200.970,231.658 202.800 M231.799 214.050 C 232.596 217.836,237.483 224.850,239.274 224.779 C 239.563 224.767,239.355 224.452,238.811 224.079 C 237.634 223.270,235.200 220.754,235.200 220.345 C 235.200 220.187,234.975 219.819,234.700 219.529 C 234.425 219.238,233.954 218.460,233.653 217.800 C 233.353 217.140,232.948 216.287,232.753 215.905 C 232.559 215.523,232.400 214.769,232.400 214.229 C 232.400 213.689,232.201 213.124,231.957 212.974 C 231.647 212.782,231.600 213.105,231.799 214.050 M240.400 225.200 C 241.176 225.701,241.600 225.701,241.600 225.200 C 241.600 224.980,241.195 224.803,240.700 224.806 C 239.972 224.811,239.915 224.886,240.400 225.200 M373.800 225.200 C 373.664 225.420,373.823 225.600,374.153 225.600 C 374.483 225.600,374.864 225.420,375.000 225.200 C 375.136 224.980,374.977 224.800,374.647 224.800 C 374.317 224.800,373.936 224.980,373.800 225.200 M241.000 242.000 C 240.326 242.290,240.400 242.348,241.476 242.372 C 242.178 242.387,242.864 242.220,243.000 242.000 C 243.296 241.520,242.116 241.520,241.000 242.000 M372.600 242.000 C 372.736 242.220,373.332 242.397,373.924 242.394 C 374.766 242.389,374.869 242.303,374.400 242.000 C 373.610 241.489,372.284 241.489,372.600 242.000 M236.409 244.882 C 234.755 246.564,232.880 249.600,233.494 249.600 C 233.665 249.600,234.038 249.073,234.323 248.428 C 234.609 247.783,235.651 246.412,236.640 245.380 C 237.628 244.348,238.361 243.427,238.267 243.334 C 238.174 243.240,237.337 243.937,236.409 244.882 M378.726 245.218 C 380.049 246.623,381.761 249.539,382.825 252.200 C 383.739 254.483,384.321 262.239,383.631 262.929 C 383.394 263.166,383.200 263.956,383.200 264.685 C 383.200 265.414,383.041 266.323,382.847 266.705 C 382.652 267.087,382.253 267.940,381.959 268.600 C 381.312 270.054,379.445 272.898,378.554 273.789 C 378.197 274.146,377.994 274.528,378.104 274.637 C 378.523 275.056,381.548 270.704,382.502 268.309 C 385.231 261.461,385.050 255.393,381.925 248.949 C 381.068 247.180,378.143 243.600,377.556 243.600 C 377.361 243.600,377.887 244.328,378.726 245.218 M232.071 252.643 C 229.837 259.935,231.621 268.727,236.351 273.733 C 237.913 275.385,240.000 276.688,240.000 276.010 C 240.000 275.785,239.741 275.600,239.425 275.600 C 238.535 275.600,235.107 271.837,234.060 269.709 C 233.542 268.659,232.957 267.487,232.760 267.105 C 232.562 266.723,232.400 265.969,232.400 265.429 C 232.400 264.889,232.220 264.336,232.000 264.200 C 231.771 264.059,231.600 262.004,231.600 259.400 C 231.600 256.796,231.771 254.741,232.000 254.600 C 232.220 254.464,232.400 253.859,232.400 253.256 C 232.400 252.653,232.597 251.963,232.838 251.722 C 233.078 251.482,233.200 250.951,233.109 250.542 C 233.011 250.107,232.582 250.977,232.071 252.643 M241.400 276.800 C 242.410 277.234,372.645 277.234,374.000 276.800 C 374.550 276.624,344.760 276.474,307.800 276.468 C 269.986 276.461,240.950 276.607,241.400 276.800 M275.300 293.100 C 293.065 293.158,322.135 293.158,339.900 293.100 C 357.665 293.042,343.130 292.995,307.600 292.995 C 272.070 292.995,257.535 293.042,275.300 293.100 M236.784 295.889 C 234.210 298.201,229.885 307.107,231.957 305.826 C 232.201 305.676,232.400 305.111,232.400 304.571 C 232.400 304.031,232.560 303.277,232.756 302.895 C 232.952 302.513,233.529 301.329,234.037 300.265 C 234.960 298.335,237.251 295.659,238.653 294.874 C 239.060 294.646,239.285 294.352,239.152 294.219 C 239.020 294.086,237.954 294.838,236.784 295.889 M378.115 296.100 C 380.442 298.334,381.933 300.730,382.718 303.500 C 382.983 304.435,383.396 305.880,383.635 306.711 C 384.251 308.852,383.760 315.505,382.817 317.800 C 381.336 321.402,378.646 325.600,377.819 325.600 C 377.360 325.600,376.288 326.821,376.532 327.065 C 376.657 327.190,377.714 326.327,378.881 325.146 C 386.187 317.755,386.176 303.492,378.858 296.097 C 377.717 294.944,376.590 294.000,376.355 294.000 C 376.120 294.000,376.912 294.945,378.115 296.100 M231.285 310.434 C 231.159 316.715,232.781 321.254,236.527 325.100 C 238.542 327.169,239.200 327.587,239.200 326.800 C 239.200 326.580,238.988 326.400,238.728 326.400 C 237.946 326.400,235.016 322.985,234.033 320.927 C 233.527 319.867,232.952 318.687,232.756 318.305 C 232.560 317.923,232.400 317.194,232.400 316.685 C 232.400 316.176,232.227 315.587,232.014 315.374 C 231.802 315.162,231.571 313.011,231.499 310.594 L 231.370 306.200 231.285 310.434 M239.800 327.600 C 239.936 327.820,240.442 327.997,240.924 327.994 C 241.636 327.989,241.688 327.915,241.200 327.600 C 240.412 327.091,239.485 327.091,239.800 327.600 M374.200 327.600 C 373.429 327.931,373.431 327.945,374.276 327.972 C 374.758 327.987,375.264 327.820,375.400 327.600 C 375.692 327.127,375.301 327.127,374.200 327.600 M275.332 328.300 C 293.334 328.358,322.674 328.358,340.532 328.300 C 358.389 328.242,343.660 328.195,307.800 328.195 C 271.940 328.195,257.329 328.242,275.332 328.300 M242.000 344.400 C 241.230 344.562,270.750 344.697,307.600 344.700 C 344.450 344.703,374.060 344.568,373.400 344.400 C 371.859 344.008,243.863 344.008,242.000 344.400 M374.800 344.981 C 374.800 345.081,375.428 345.460,376.195 345.824 C 379.061 347.184,383.200 353.581,383.200 356.649 C 383.200 357.304,383.394 358.034,383.631 358.271 C 384.073 358.713,383.937 364.079,383.414 366.800 C 382.588 371.101,378.128 378.000,376.173 378.000 C 375.858 378.000,375.600 378.180,375.600 378.400 C 375.600 379.246,376.464 378.716,378.696 376.500 C 386.900 368.356,386.040 352.044,377.083 345.900 C 375.583 344.871,374.800 344.556,374.800 344.981 M236.368 347.555 C 233.917 350.098,230.179 358.126,231.957 357.026 C 232.201 356.876,232.400 356.311,232.400 355.771 C 232.400 355.231,232.580 354.432,232.800 353.995 C 233.020 353.558,233.380 352.840,233.600 352.400 C 234.231 351.138,234.982 349.819,235.200 349.589 C 238.176 346.454,238.905 345.600,238.610 345.600 C 238.413 345.600,237.405 346.480,236.368 347.555 M231.285 361.557 C 231.166 367.364,232.453 371.587,235.517 375.452 C 236.623 376.846,239.527 379.006,239.855 378.678 C 239.955 378.578,239.263 378.000,238.318 377.394 C 236.741 376.381,234.000 372.961,234.000 372.004 C 234.000 371.782,233.820 371.600,233.600 371.600 C 233.380 371.600,233.200 371.161,233.200 370.624 C 233.200 370.087,233.020 369.536,232.800 369.400 C 232.580 369.264,232.400 368.659,232.400 368.056 C 232.400 367.453,232.227 366.787,232.014 366.574 C 231.802 366.362,231.571 364.211,231.499 361.794 L 231.370 357.400 231.285 361.557 M106.000 360.990 C 106.000 361.295,108.456 362.477,108.662 362.271 C 108.765 362.168,108.271 361.795,107.563 361.442 C 106.176 360.750,106.000 360.699,106.000 360.990 M240.938 379.294 C 241.519 379.664,373.553 379.642,374.485 379.272 C 374.862 379.122,344.864 379.000,307.823 379.000 C 270.782 379.000,240.684 379.132,240.938 379.294 " stroke="none" fill="#e6b890" fill-rule="evenodd"></path><path id="path3" d="M221.088 72.700 C 220.967 112.947,220.818 125.004,220.425 126.400 C 220.147 127.390,219.757 128.875,219.560 129.700 C 218.584 133.769,218.211 135.000,217.287 137.200 C 217.056 137.750,216.628 138.785,216.336 139.500 C 216.044 140.215,215.669 140.800,215.502 140.800 C 215.336 140.800,215.200 141.160,215.200 141.600 C 215.200 142.040,215.020 142.400,214.800 142.400 C 214.580 142.400,214.400 142.760,214.400 143.200 C 214.400 143.640,214.241 144.000,214.047 144.000 C 213.852 144.000,213.593 144.315,213.471 144.700 C 213.242 145.423,211.968 147.647,211.581 148.000 C 211.460 148.110,210.923 148.830,210.386 149.600 C 208.641 152.106,208.246 152.554,204.570 156.200 C 199.659 161.069,198.098 162.433,195.130 164.443 C 193.739 165.385,192.374 166.379,192.098 166.652 C 191.821 166.924,191.236 167.262,190.798 167.401 C 190.359 167.540,190.000 167.822,190.000 168.027 C 190.000 168.232,189.834 168.400,189.632 168.400 C 189.429 168.400,187.705 169.300,185.800 170.400 C 183.895 171.500,182.216 172.401,182.068 172.402 C 181.921 172.403,180.914 172.853,179.832 173.402 C 178.750 173.951,177.625 174.400,177.332 174.400 C 177.039 174.400,176.800 174.580,176.800 174.800 C 176.800 175.020,176.451 175.200,176.024 175.200 C 175.597 175.200,175.136 175.380,175.000 175.600 C 174.864 175.820,174.313 176.000,173.776 176.000 C 173.239 176.000,172.800 176.180,172.800 176.400 C 172.800 176.620,172.350 176.800,171.800 176.800 C 171.250 176.800,170.800 176.980,170.800 177.200 C 170.800 177.420,170.350 177.600,169.800 177.600 C 169.250 177.600,168.800 177.780,168.800 178.000 C 168.800 178.220,168.350 178.400,167.800 178.400 C 167.250 178.400,166.800 178.580,166.800 178.800 C 166.800 179.020,166.271 179.200,165.624 179.200 C 164.977 179.200,164.336 179.380,164.200 179.600 C 164.064 179.820,163.524 180.000,163.000 180.000 C 162.476 180.000,161.936 180.180,161.800 180.400 C 161.664 180.620,161.124 180.800,160.600 180.800 C 160.076 180.800,159.536 180.980,159.400 181.200 C 159.264 181.420,158.544 181.600,157.800 181.600 C 157.056 181.600,156.336 181.780,156.200 182.000 C 156.064 182.220,155.344 182.400,154.600 182.400 C 153.856 182.400,153.136 182.580,153.000 182.800 C 152.864 183.020,152.144 183.200,151.400 183.200 C 150.656 183.200,149.948 183.360,149.827 183.556 C 149.706 183.751,149.021 184.008,148.304 184.127 C 147.587 184.245,146.190 184.546,145.200 184.796 C 142.704 185.426,137.335 186.415,132.200 187.191 C 130.880 187.391,128.630 187.752,127.200 187.993 C 122.968 188.709,118.187 189.160,101.600 190.407 C 98.630 190.631,94.355 190.810,92.100 190.807 L 88.000 190.800 88.014 271.300 L 88.028 351.800 94.114 354.787 C 97.461 356.430,100.260 357.915,100.333 358.087 C 100.407 358.259,100.812 358.400,101.233 358.400 C 101.655 358.400,102.000 358.580,102.000 358.800 C 102.000 359.020,102.360 359.200,102.800 359.200 C 103.240 359.200,103.600 359.380,103.600 359.600 C 103.600 359.820,103.825 360.000,104.099 360.000 C 104.374 360.000,107.337 361.372,110.684 363.049 C 116.926 366.175,118.000 366.406,118.000 364.618 C 118.000 363.703,118.228 362.535,119.215 358.400 C 119.399 357.630,119.732 356.190,119.956 355.200 C 120.747 351.693,121.791 347.654,122.823 344.100 C 123.030 343.385,123.365 342.215,123.567 341.500 C 124.909 336.746,129.087 324.550,130.178 322.200 C 130.485 321.540,131.305 319.560,132.000 317.800 C 135.114 309.918,141.998 296.345,147.599 287.041 C 152.612 278.713,163.698 263.158,168.576 257.607 C 169.469 256.591,171.186 254.598,172.392 253.180 C 174.272 250.966,179.182 245.730,183.409 241.430 C 188.340 236.415,201.527 224.928,206.800 221.057 C 208.230 220.007,209.850 218.793,210.400 218.359 C 210.950 217.925,212.266 216.991,213.325 216.285 L 215.249 215.000 214.991 212.000 C 214.584 207.259,214.965 200.192,215.652 199.768 C 215.843 199.650,216.000 199.034,216.000 198.400 C 216.000 197.766,216.180 197.136,216.400 197.000 C 216.620 196.864,216.800 196.349,216.800 195.855 C 216.800 195.361,217.232 194.067,217.760 192.979 C 218.287 191.890,219.028 190.325,219.405 189.500 C 219.782 188.675,220.251 188.000,220.446 188.000 C 220.641 188.000,220.803 187.775,220.807 187.500 C 220.835 185.614,229.999 177.200,232.027 177.200 C 232.232 177.200,232.400 177.020,232.400 176.800 C 232.400 176.580,232.850 176.400,233.400 176.400 C 233.950 176.400,234.400 176.220,234.400 176.000 C 234.400 175.780,234.839 175.600,235.376 175.600 C 235.913 175.600,236.464 175.420,236.600 175.200 C 236.736 174.980,237.816 174.800,239.000 174.800 C 240.184 174.800,241.264 174.620,241.400 174.400 C 241.554 174.151,245.271 174.000,251.224 174.000 L 260.800 174.000 260.801 114.900 C 260.801 57.675,260.633 48.299,259.570 46.305 C 259.367 45.923,259.200 45.169,259.200 44.629 C 259.200 44.089,259.020 43.536,258.800 43.400 C 258.580 43.264,258.400 42.724,258.400 42.200 C 258.400 41.676,258.220 41.136,258.000 41.000 C 257.780 40.864,257.600 40.403,257.600 39.976 C 257.600 39.549,257.420 39.200,257.200 39.200 C 256.980 39.200,256.800 38.840,256.800 38.400 C 256.800 37.960,256.620 37.600,256.400 37.600 C 256.180 37.600,255.998 37.375,255.996 37.100 C 255.985 35.642,249.952 28.962,247.154 27.309 C 246.519 26.934,246.000 26.486,246.000 26.314 C 246.000 26.141,245.640 26.000,245.200 26.000 C 244.760 26.000,244.400 25.864,244.400 25.698 C 244.400 25.531,243.815 25.156,243.100 24.864 C 242.385 24.572,241.395 24.168,240.900 23.966 C 240.405 23.765,239.595 23.430,239.100 23.222 C 238.265 22.872,235.313 22.304,228.754 21.232 C 227.299 20.995,225.013 20.800,223.676 20.800 L 221.244 20.800 221.088 72.700 M239.742 191.645 C 237.083 192.935,233.200 197.749,233.200 199.754 C 233.200 200.110,233.020 200.400,232.800 200.400 C 232.580 200.400,232.400 201.019,232.400 201.776 C 232.400 202.533,232.220 203.264,232.000 203.400 C 231.771 203.541,231.600 205.596,231.600 208.200 C 231.600 210.804,231.771 212.859,232.000 213.000 C 232.220 213.136,232.400 213.689,232.400 214.229 C 232.400 214.769,232.559 215.523,232.753 215.905 C 232.948 216.287,233.353 217.140,233.653 217.800 C 233.954 218.460,234.425 219.238,234.700 219.529 C 234.975 219.819,235.203 220.179,235.206 220.329 C 235.232 221.400,239.456 224.800,240.762 224.800 C 241.223 224.800,241.600 224.980,241.600 225.200 C 241.600 225.710,372.903 225.757,373.905 225.247 C 374.287 225.052,375.140 224.655,375.800 224.364 C 378.757 223.058,383.200 216.419,383.200 213.306 C 383.200 212.676,383.394 211.966,383.631 211.729 C 384.321 211.039,383.738 203.277,382.824 201.000 C 380.637 195.547,378.069 192.454,374.771 191.300 C 371.938 190.308,241.812 190.640,239.742 191.645 M243.000 242.000 C 242.864 242.220,242.133 242.400,241.376 242.400 C 240.619 242.400,240.000 242.580,240.000 242.800 C 240.000 243.020,239.705 243.200,239.344 243.200 C 238.533 243.200,235.011 246.874,234.316 248.445 C 234.035 249.080,233.669 249.600,233.502 249.600 C 233.336 249.600,233.200 250.039,233.200 250.576 C 233.200 251.113,233.020 251.664,232.800 251.800 C 232.580 251.936,232.400 252.566,232.400 253.200 C 232.400 253.834,232.220 254.464,232.000 254.600 C 231.771 254.741,231.600 256.796,231.600 259.400 C 231.600 262.004,231.771 264.059,232.000 264.200 C 232.220 264.336,232.400 264.889,232.400 265.429 C 232.400 265.969,232.562 266.723,232.760 267.105 C 232.957 267.487,233.542 268.659,234.060 269.709 C 235.107 271.837,238.535 275.600,239.425 275.600 C 239.741 275.600,240.000 275.780,240.000 276.000 C 240.000 276.265,262.729 276.400,307.388 276.400 L 374.776 276.400 376.280 275.555 C 378.354 274.390,380.611 271.626,381.959 268.600 C 382.253 267.940,382.652 267.087,382.847 266.705 C 383.041 266.323,383.200 265.414,383.200 264.685 C 383.200 263.956,383.394 263.166,383.631 262.929 C 384.321 262.239,383.739 254.483,382.825 252.200 C 381.130 247.962,377.648 243.200,376.243 243.200 C 375.890 243.200,375.600 243.020,375.600 242.800 C 375.600 242.580,374.981 242.400,374.224 242.400 C 373.467 242.400,372.736 242.220,372.600 242.000 C 372.437 241.736,350.404 241.600,307.800 241.600 C 265.196 241.600,243.163 241.736,243.000 242.000 M241.000 293.600 C 240.864 293.820,240.495 294.000,240.181 294.000 C 238.902 294.000,235.252 297.722,234.037 300.265 C 233.529 301.329,232.952 302.513,232.756 302.895 C 232.560 303.277,232.400 304.031,232.400 304.571 C 232.400 305.111,232.220 305.664,232.000 305.800 C 231.771 305.941,231.600 307.996,231.600 310.600 C 231.600 313.204,231.771 315.259,232.000 315.400 C 232.220 315.536,232.400 316.089,232.400 316.629 C 232.400 317.169,232.560 317.923,232.756 318.305 C 232.952 318.687,233.527 319.867,234.033 320.927 C 235.016 322.985,237.946 326.400,238.728 326.400 C 238.988 326.400,239.200 326.536,239.200 326.703 C 239.200 327.940,242.339 328.000,307.647 328.000 C 375.815 328.000,375.324 328.012,376.847 326.319 C 377.203 325.924,377.629 325.600,377.794 325.600 C 378.645 325.600,381.316 321.452,382.817 317.800 C 383.736 315.563,384.254 308.872,383.668 306.811 C 383.447 306.035,383.034 304.590,382.751 303.600 C 381.637 299.705,377.142 294.000,375.187 294.000 C 374.780 294.000,374.336 293.820,374.200 293.600 C 374.037 293.336,351.404 293.200,307.600 293.200 C 263.796 293.200,241.163 293.336,241.000 293.600 M239.583 345.424 C 238.491 346.004,235.281 349.322,234.562 350.613 C 234.129 351.393,233.570 352.465,232.800 353.995 C 232.580 354.432,232.400 355.231,232.400 355.771 C 232.400 356.311,232.220 356.864,232.000 357.000 C 231.771 357.141,231.600 359.196,231.600 361.800 C 231.600 364.404,231.771 366.459,232.000 366.600 C 232.220 366.736,232.400 367.366,232.400 368.000 C 232.400 368.634,232.580 369.264,232.800 369.400 C 233.020 369.536,233.200 370.087,233.200 370.624 C 233.200 371.161,233.380 371.600,233.600 371.600 C 233.820 371.600,234.000 371.782,234.000 372.004 C 234.000 372.991,236.777 376.390,238.600 377.635 L 240.600 379.000 307.967 379.000 C 361.504 379.000,375.368 378.897,375.500 378.500 C 375.592 378.225,375.910 378.000,376.207 378.000 C 377.711 378.000,380.867 373.701,382.814 369.000 C 383.732 366.783,384.327 358.967,383.631 358.271 C 383.394 358.034,383.200 357.304,383.200 356.649 C 383.200 353.487,379.206 347.404,376.012 345.700 L 374.324 344.800 307.462 344.842 C 252.200 344.878,240.424 344.978,239.583 345.424 " stroke="none" fill="#fccc9c" fill-rule="evenodd"></path><path id="path4" d="M220.597 20.500 C 220.500 20.775,220.348 43.770,220.260 71.600 C 220.121 115.544,220.018 122.621,219.471 125.400 C 218.774 128.946,218.680 129.853,219.046 129.488 C 220.377 128.157,220.497 123.900,220.671 71.900 L 220.844 20.400 223.898 20.400 C 225.578 20.400,227.953 20.572,229.176 20.783 C 230.399 20.994,232.636 21.377,234.147 21.636 C 242.341 23.037,250.044 27.557,254.199 33.400 C 257.045 37.402,258.230 40.179,260.428 48.000 C 260.823 49.405,260.968 63.454,261.088 112.045 L 261.241 174.290 250.121 174.503 C 238.502 174.726,237.902 174.811,233.400 176.859 C 215.009 185.229,209.263 214.234,222.715 230.798 C 225.127 233.768,225.121 233.659,222.999 236.265 C 212.915 248.645,212.842 269.810,222.842 282.168 C 225.239 285.131,225.247 284.835,222.690 288.037 C 212.861 300.350,212.987 321.444,222.962 333.690 C 225.198 336.435,225.197 336.128,222.973 338.803 C 215.599 347.670,213.254 362.469,217.300 374.600 C 217.741 375.920,218.236 377.180,218.402 377.400 C 218.567 377.620,218.826 378.205,218.978 378.700 L 219.254 379.600 181.158 379.600 L 143.062 379.600 115.330 365.804 L 87.598 352.008 87.699 271.304 L 87.800 190.600 94.600 190.294 C 101.104 190.002,113.169 189.105,120.400 188.376 C 123.738 188.040,126.528 187.648,131.500 186.818 C 132.875 186.588,135.035 186.229,136.300 186.020 C 170.734 180.331,197.275 167.003,210.266 148.879 C 214.320 143.223,218.855 133.513,218.777 130.655 C 218.764 130.185,218.157 131.600,217.427 133.800 C 216.043 137.976,213.883 142.718,212.443 144.740 C 211.979 145.391,211.600 146.121,211.600 146.362 C 211.600 146.603,211.420 146.800,211.200 146.800 C 210.980 146.800,210.800 147.025,210.800 147.300 C 210.799 147.575,210.394 148.279,209.900 148.864 C 209.405 149.449,208.394 150.669,207.654 151.575 C 204.839 155.018,203.017 156.868,199.663 159.688 C 197.758 161.290,195.962 162.825,195.671 163.100 C 195.381 163.375,194.989 163.600,194.800 163.600 C 194.611 163.600,194.219 163.829,193.929 164.109 C 191.476 166.471,174.371 175.600,172.399 175.600 C 172.174 175.600,171.677 175.759,171.295 175.953 C 170.913 176.148,170.060 176.529,169.400 176.800 C 168.740 177.071,167.887 177.452,167.505 177.647 C 167.123 177.841,166.459 178.000,166.029 178.000 C 165.599 178.000,165.136 178.180,165.000 178.400 C 164.864 178.620,164.324 178.800,163.800 178.800 C 163.276 178.800,162.736 178.980,162.600 179.200 C 162.464 179.420,161.949 179.600,161.456 179.600 C 160.963 179.600,160.389 179.747,160.180 179.927 C 159.971 180.107,158.810 180.474,157.600 180.744 C 155.533 181.204,154.599 181.433,150.900 182.387 C 135.403 186.383,115.880 188.963,96.885 189.525 C 89.252 189.750,87.502 189.908,87.191 190.400 C 86.718 191.150,86.670 351.175,87.143 351.922 C 87.325 352.208,99.871 358.643,115.023 366.222 L 142.572 380.000 181.086 380.000 C 211.632 380.000,219.600 379.897,219.598 379.500 C 219.597 379.225,219.056 377.611,218.395 375.912 C 214.445 365.756,215.114 352.687,220.009 344.384 C 220.664 343.274,221.200 342.264,221.200 342.140 C 221.200 341.904,223.423 338.982,224.297 338.069 C 225.724 336.578,225.650 336.170,223.465 333.427 C 212.952 320.235,213.313 300.034,224.300 286.771 C 225.562 285.248,225.433 284.432,223.607 282.386 C 213.433 270.985,213.421 248.558,223.583 236.421 C 225.635 233.970,225.612 233.507,223.298 230.594 C 210.042 213.906,215.861 183.766,233.600 177.235 C 234.370 176.951,235.360 176.577,235.800 176.404 C 238.391 175.382,240.608 175.200,250.497 175.200 C 259.037 175.200,261.191 175.092,261.561 174.647 C 262.152 173.934,261.883 56.763,261.278 51.600 C 260.182 42.241,257.482 35.958,252.212 30.501 C 250.458 28.686,248.793 27.200,248.512 27.200 C 248.230 27.200,248.000 27.050,248.000 26.868 C 248.000 26.685,247.505 26.280,246.900 25.968 C 246.295 25.656,245.710 25.297,245.600 25.169 C 243.163 22.344,221.386 18.277,220.597 20.500 M241.400 190.099 C 236.922 191.264,231.143 198.378,231.222 202.629 C 231.239 203.568,231.385 203.363,231.959 201.600 C 233.616 196.510,236.312 192.847,239.540 191.300 C 241.555 190.334,373.208 190.201,375.600 191.163 C 378.456 192.311,381.971 196.792,383.161 200.800 C 384.187 204.258,384.336 204.622,384.368 203.763 C 384.568 198.470,379.013 191.513,373.400 190.028 C 371.192 189.443,243.655 189.512,241.400 190.099 M230.700 205.150 C 229.138 212.177,233.753 222.772,239.575 225.526 C 241.905 226.628,373.454 226.557,375.760 225.453 C 381.232 222.832,384.893 215.644,384.734 207.836 L 384.668 204.600 384.389 208.400 C 383.787 216.597,380.769 222.450,375.943 224.782 C 373.661 225.885,242.484 226.096,239.864 225.001 C 234.814 222.891,231.629 216.840,231.232 208.600 C 231.063 205.108,230.918 204.168,230.700 205.150 M239.400 242.085 C 235.600 243.981,231.106 250.654,231.242 254.200 C 231.259 254.640,231.588 254.010,231.972 252.800 C 233.533 247.888,236.271 244.149,239.474 242.558 C 240.951 241.825,243.145 241.797,307.335 241.696 L 373.670 241.593 375.735 242.608 C 379.053 244.238,381.941 247.890,383.161 252.000 C 384.215 255.549,384.335 255.841,384.368 254.918 C 384.521 250.647,379.598 243.631,375.081 241.683 C 372.829 240.711,241.372 241.101,239.400 242.085 M230.650 256.450 C 230.332 258.041,230.405 261.049,230.800 262.600 C 231.002 263.393,231.121 262.343,231.153 259.500 C 231.202 255.050,231.079 254.306,230.650 256.450 M384.278 259.700 C 383.845 267.770,380.773 273.750,375.800 276.209 C 373.505 277.344,244.022 277.670,240.649 276.550 C 237.011 275.341,234.005 271.754,232.150 266.403 C 231.653 264.971,231.236 264.197,231.223 264.681 C 231.133 268.081,235.735 274.794,239.400 276.608 C 241.444 277.620,371.860 278.083,374.801 277.089 C 378.598 275.805,381.821 272.093,383.662 266.881 C 384.417 264.745,385.247 256.000,384.695 256.000 C 384.575 256.000,384.388 257.665,384.278 259.700 M241.600 292.674 C 235.595 293.708,230.252 302.578,230.440 311.200 C 230.526 315.125,231.121 314.961,231.165 311.000 C 231.256 302.831,234.286 296.659,239.637 293.743 C 241.742 292.596,373.306 292.581,375.754 293.728 C 386.815 298.909,387.094 321.597,376.167 327.217 L 374.256 328.200 307.628 328.200 C 232.468 328.200,239.833 328.538,236.343 324.924 C 234.269 322.775,233.480 321.396,232.155 317.600 C 231.655 316.170,231.239 315.360,231.229 315.800 C 231.154 319.223,235.090 325.361,238.734 327.503 L 240.600 328.600 307.600 328.600 C 381.883 328.600,375.606 328.824,378.688 326.067 C 387.780 317.936,386.154 298.075,376.003 293.265 C 374.672 292.634,245.137 292.065,241.600 292.674 M240.597 344.146 C 236.114 345.839,231.092 352.610,231.236 356.769 C 231.261 357.491,231.430 357.224,231.800 355.877 C 233.124 351.062,236.100 346.907,239.449 345.196 L 241.400 344.200 307.600 344.200 L 373.800 344.200 375.637 345.049 C 380.696 347.390,383.698 353.078,384.369 361.600 L 384.668 365.400 384.734 362.164 C 384.892 354.408,381.261 347.262,375.800 344.585 C 373.869 343.638,243.067 343.213,240.597 344.146 M230.650 359.250 C 230.321 360.894,230.398 363.945,230.800 365.200 C 231.009 365.851,231.134 364.770,231.160 362.100 C 231.202 357.838,231.074 357.128,230.650 359.250 M383.849 366.800 C 382.636 372.476,378.632 378.005,374.932 379.113 C 373.684 379.487,358.031 379.600,307.449 379.600 L 241.591 379.600 239.707 378.714 C 236.221 377.076,233.600 373.624,232.025 368.600 C 231.465 366.812,231.264 366.487,231.236 367.326 C 231.130 370.599,235.913 377.519,239.420 379.167 L 241.191 380.000 307.721 380.000 C 383.303 380.000,375.659 380.362,379.414 376.607 C 381.862 374.159,384.726 368.010,384.305 366.105 C 384.208 365.668,384.035 365.933,383.849 366.800 M43.800 379.600 L 15.800 379.808 43.676 379.904 C 61.933 379.967,71.638 379.862,71.800 379.600 C 71.936 379.380,71.992 379.243,71.924 379.296 C 71.856 379.349,59.200 379.486,43.800 379.600 " stroke="none" fill="#745c44" fill-rule="evenodd"></path></g></svg>