<svg id="svg" version="1.1" xmlns="http://www.w3.org/2000/svg" xmlns:xlink="http://www.w3.org/1999/xlink" width="400" height="400" viewBox="0, 0, 400,400"><g id="svgg"><path id="path0" d="M135.031 124.349 C 134.912 124.542,133.327 124.798,131.508 124.919 C 127.244 125.202,126.024 125.412,124.198 126.175 C 123.375 126.519,122.274 126.800,121.751 126.800 C 121.228 126.800,120.800 126.980,120.800 127.200 C 120.800 127.420,120.528 127.600,120.195 127.600 C 119.532 127.600,117.944 128.403,117.555 128.934 C 117.421 129.118,117.190 129.240,117.043 129.206 C 116.595 129.102,114.400 130.175,114.400 130.498 C 114.400 130.664,114.040 130.800,113.600 130.800 C 113.160 130.800,112.800 130.941,112.800 131.114 C 112.800 131.286,112.305 131.725,111.700 132.089 C 109.255 133.559,100.400 141.942,100.400 142.786 C 100.400 143.559,98.517 143.411,97.569 142.564 C 97.221 142.254,96.636 142.000,96.269 142.000 C 95.901 142.000,95.600 141.820,95.600 141.600 C 95.600 141.380,95.240 141.200,94.800 141.200 C 94.360 141.200,94.000 141.020,94.000 140.800 C 94.000 140.580,93.640 140.400,93.200 140.400 C 92.760 140.400,92.400 140.220,92.400 140.000 C 92.400 139.780,91.950 139.600,91.400 139.600 C 90.850 139.600,90.400 139.420,90.400 139.200 C 90.400 138.980,89.871 138.800,89.224 138.800 C 88.577 138.800,87.936 138.620,87.800 138.400 C 87.664 138.180,86.674 138.000,85.600 138.000 C 84.526 138.000,83.549 137.840,83.428 137.645 C 83.307 137.450,81.121 137.261,78.569 137.226 C 75.422 137.183,74.013 137.297,74.188 137.581 C 74.358 137.855,73.618 138.000,72.047 138.000 C 70.727 138.000,69.536 138.180,69.400 138.400 C 69.264 138.620,68.623 138.800,67.976 138.800 C 67.329 138.800,66.800 138.980,66.800 139.200 C 66.800 139.420,66.445 139.600,66.012 139.600 C 65.579 139.600,64.583 139.960,63.800 140.400 C 63.017 140.840,62.111 141.200,61.788 141.200 C 61.465 141.200,61.200 141.380,61.200 141.600 C 61.200 141.820,60.943 142.000,60.629 142.000 C 60.314 142.000,59.794 142.264,59.471 142.586 C 59.149 142.908,58.673 143.223,58.414 143.286 C 58.154 143.349,57.212 144.075,56.321 144.900 C 55.430 145.725,54.443 146.400,54.127 146.400 C 53.811 146.400,53.625 146.535,53.713 146.700 C 53.907 147.063,52.549 148.415,52.270 148.137 C 52.162 148.028,51.957 148.304,51.816 148.749 C 51.675 149.195,51.073 150.090,50.480 150.740 C 48.613 152.781,48.194 153.364,47.641 154.700 C 47.345 155.415,46.945 156.000,46.751 156.000 C 46.558 156.000,46.400 156.360,46.400 156.800 C 46.400 157.240,46.209 157.600,45.976 157.600 C 45.743 157.600,45.655 157.765,45.780 157.968 C 45.905 158.170,45.781 158.575,45.504 158.868 C 45.227 159.160,44.938 159.940,44.862 160.600 C 44.786 161.260,44.561 161.860,44.362 161.933 C 44.163 162.007,44.000 162.556,44.000 163.153 C 44.000 163.751,43.835 164.411,43.632 164.620 C 42.561 165.728,42.573 181.600,43.645 181.600 C 43.840 181.600,44.000 182.140,44.000 182.800 C 44.000 183.460,44.180 184.000,44.400 184.000 C 44.620 184.000,44.800 184.362,44.800 184.805 C 44.800 185.248,44.953 185.923,45.141 186.305 C 45.328 186.687,45.913 187.900,46.441 189.000 C 46.968 190.100,47.535 191.060,47.700 191.133 C 47.865 191.207,48.000 191.522,48.000 191.833 C 48.000 192.145,48.180 192.400,48.400 192.400 C 48.620 192.400,48.800 192.648,48.800 192.952 C 48.800 193.255,49.520 194.245,50.400 195.152 C 51.280 196.059,52.000 197.071,52.000 197.400 C 52.000 197.730,52.135 198.001,52.300 198.002 C 52.465 198.003,53.175 198.543,53.878 199.202 C 54.581 199.861,55.274 200.400,55.418 200.400 C 55.561 200.400,56.183 200.940,56.800 201.600 C 57.417 202.260,58.119 202.800,58.360 202.800 C 58.602 202.800,58.800 202.980,58.800 203.200 C 58.800 203.420,59.055 203.600,59.367 203.600 C 59.678 203.600,60.024 203.825,60.135 204.100 C 60.296 204.500,60.343 204.500,60.368 204.100 C 60.418 203.318,61.848 203.509,63.963 204.581 C 74.185 209.761,89.405 208.373,98.476 201.435 C 100.986 199.515,100.777 199.434,105.372 204.125 C 112.288 211.184,120.321 215.679,128.672 217.162 C 131.340 217.636,137.812 218.227,139.000 218.106 C 140.867 217.915,146.732 217.196,148.303 216.965 C 149.239 216.828,150.105 216.555,150.226 216.358 C 150.348 216.161,150.889 216.000,151.429 216.000 C 151.969 216.000,152.723 215.841,153.105 215.647 C 153.487 215.452,154.340 215.068,155.000 214.793 C 157.124 213.908,158.195 213.406,158.400 213.201 C 160.526 211.068,165.167 210.434,165.207 212.271 C 165.237 213.599,173.443 221.799,175.831 222.887 C 176.364 223.130,176.800 223.480,176.800 223.664 C 176.800 223.849,177.160 224.000,177.600 224.000 C 178.040 224.000,178.400 224.180,178.400 224.400 C 178.400 224.620,178.760 224.800,179.200 224.800 C 179.640 224.800,180.000 224.980,180.000 225.200 C 180.000 225.420,180.450 225.600,181.000 225.600 C 181.550 225.600,182.000 225.780,182.000 226.000 C 182.000 226.220,182.414 226.400,182.920 226.400 C 183.426 226.400,184.011 226.565,184.220 226.767 C 185.297 227.807,209.949 228.545,212.972 227.627 C 213.647 227.422,215.010 227.028,216.000 226.752 C 223.092 224.775,230.140 219.619,234.389 213.300 C 236.309 210.445,236.203 210.485,238.486 211.751 C 245.646 215.721,250.550 217.335,257.400 217.973 C 261.588 218.363,269.852 217.908,270.509 217.251 C 270.757 217.003,271.406 216.800,271.952 216.800 C 272.497 216.800,273.586 216.595,274.372 216.345 C 275.708 215.918,276.195 215.742,278.500 214.853 C 280.649 214.023,286.954 210.688,287.716 209.978 C 288.175 209.550,288.702 209.200,288.887 209.200 C 289.187 209.200,289.959 208.544,292.918 205.774 C 293.403 205.320,294.850 203.745,296.133 202.274 C 298.734 199.292,299.265 199.121,301.017 200.702 C 301.687 201.306,302.677 202.057,303.217 202.370 C 305.818 203.879,308.537 205.200,309.041 205.200 C 309.348 205.200,309.600 205.380,309.600 205.600 C 309.600 205.820,310.039 206.000,310.576 206.000 C 311.113 206.000,311.664 206.180,311.800 206.400 C 311.936 206.620,312.656 206.800,313.400 206.800 C 314.144 206.800,314.864 206.980,315.000 207.200 C 315.147 207.439,317.730 207.600,321.400 207.600 C 325.070 207.600,327.653 207.439,327.800 207.200 C 327.936 206.980,328.566 206.800,329.200 206.800 C 329.834 206.800,330.464 206.620,330.600 206.400 C 330.736 206.180,331.289 206.000,331.829 206.000 C 332.369 206.000,333.123 205.841,333.505 205.647 C 333.887 205.452,334.740 205.048,335.400 204.747 C 336.060 204.447,336.690 204.094,336.800 203.962 C 337.378 203.271,339.178 203.229,339.567 203.898 C 339.793 204.286,339.981 204.376,339.988 204.100 C 339.995 203.825,340.226 203.600,340.502 203.600 C 340.778 203.600,341.769 202.880,342.703 202.000 C 343.637 201.120,344.536 200.400,344.701 200.400 C 345.207 200.399,346.986 198.675,348.003 197.200 C 348.535 196.430,349.471 195.323,350.085 194.740 C 350.698 194.156,351.200 193.391,351.200 193.040 C 351.200 192.688,351.350 192.400,351.534 192.400 C 351.959 192.400,354.995 186.316,355.626 184.200 C 355.888 183.320,356.259 182.187,356.451 181.681 C 356.643 181.176,356.800 179.781,356.800 178.581 C 356.800 177.382,356.936 176.400,357.103 176.400 C 357.481 176.400,357.363 172.406,356.860 168.200 C 356.500 165.197,356.263 164.115,355.261 160.900 C 355.038 160.185,354.978 159.597,355.128 159.594 C 355.278 159.591,355.200 159.456,354.955 159.294 C 354.710 159.132,353.771 157.515,352.868 155.701 C 351.966 153.886,350.587 151.761,349.804 150.978 C 349.022 150.195,348.503 149.357,348.652 149.115 C 348.815 148.852,348.739 148.790,348.462 148.962 C 348.181 149.135,348.000 148.977,348.000 148.557 C 348.000 148.177,347.893 147.974,347.762 148.104 C 347.632 148.235,346.987 147.730,346.330 146.982 C 345.673 146.234,344.992 145.662,344.817 145.711 C 344.641 145.760,343.928 145.209,343.232 144.487 C 342.537 143.764,341.813 143.268,341.626 143.384 C 341.438 143.500,341.171 143.301,341.032 142.940 C 340.894 142.580,340.667 142.400,340.527 142.539 C 340.388 142.679,340.073 142.627,339.828 142.423 C 338.861 141.621,334.677 139.600,333.983 139.600 C 333.578 139.600,333.136 139.420,333.000 139.200 C 332.864 138.980,332.324 138.800,331.800 138.800 C 331.276 138.800,330.736 138.620,330.600 138.400 C 330.464 138.180,329.384 138.000,328.200 138.000 C 327.016 138.000,325.936 137.820,325.800 137.600 C 325.661 137.375,323.737 137.200,321.400 137.200 C 319.063 137.200,317.139 137.375,317.000 137.600 C 316.864 137.820,315.773 138.000,314.576 138.000 C 313.379 138.000,312.400 138.180,312.400 138.400 C 312.400 138.620,311.759 138.800,310.976 138.800 C 310.129 138.800,309.653 138.962,309.800 139.200 C 309.944 139.433,309.537 139.600,308.824 139.600 C 308.151 139.600,307.600 139.780,307.600 140.000 C 307.600 140.220,307.240 140.400,306.800 140.400 C 306.360 140.400,306.000 140.580,306.000 140.800 C 306.000 141.020,305.640 141.200,305.200 141.200 C 304.760 141.200,304.400 141.380,304.400 141.600 C 304.400 141.820,304.040 142.000,303.600 142.000 C 303.160 142.000,302.800 142.191,302.800 142.424 C 302.800 142.657,302.620 142.736,302.400 142.600 C 302.180 142.464,302.000 142.522,302.000 142.730 C 302.000 143.179,300.805 143.539,300.100 143.302 C 299.825 143.209,299.600 142.959,299.600 142.746 C 299.600 142.191,291.233 134.000,290.666 134.000 C 290.406 134.000,289.968 133.640,289.693 133.200 C 289.418 132.760,289.007 132.400,288.780 132.400 C 288.553 132.400,287.980 132.040,287.508 131.600 C 287.036 131.160,286.413 130.800,286.125 130.800 C 285.836 130.800,285.600 130.620,285.600 130.400 C 285.600 130.180,285.347 130.000,285.038 130.000 C 284.370 130.000,281.200 128.357,281.200 128.011 C 281.200 127.879,280.811 127.741,280.336 127.705 C 279.861 127.669,279.366 127.496,279.236 127.320 C 279.106 127.144,278.550 126.936,278.000 126.859 C 277.450 126.781,276.910 126.595,276.800 126.445 C 276.690 126.295,276.240 126.179,275.800 126.186 C 275.360 126.194,274.776 125.988,274.501 125.730 C 274.227 125.471,273.372 125.319,272.601 125.390 C 271.831 125.462,271.200 125.358,271.200 125.160 C 271.200 124.962,269.670 124.800,267.800 124.800 C 265.800 124.800,264.400 124.635,264.400 124.400 C 264.400 124.169,263.133 124.000,261.400 124.000 C 259.750 124.000,258.400 124.167,258.400 124.371 C 258.400 124.574,256.915 124.819,255.100 124.914 C 253.285 125.010,251.350 125.196,250.800 125.328 C 250.250 125.461,249.260 125.681,248.600 125.817 C 247.940 125.953,247.130 126.167,246.800 126.293 C 246.470 126.418,246.020 126.575,245.800 126.640 C 243.934 127.198,242.440 127.907,242.663 128.130 C 242.812 128.278,242.548 128.400,242.077 128.400 C 241.607 128.400,240.452 128.858,239.511 129.418 C 238.570 129.977,237.485 130.538,237.100 130.664 C 236.715 130.790,236.400 131.052,236.400 131.247 C 236.400 131.441,236.080 131.600,235.688 131.600 C 235.297 131.600,234.717 131.960,234.400 132.400 C 234.083 132.840,233.612 133.200,233.355 133.200 C 232.541 133.200,224.000 141.968,224.000 142.803 C 224.000 143.021,223.820 143.200,223.600 143.200 C 223.380 143.200,223.200 143.481,223.200 143.824 C 223.200 144.167,223.020 144.336,222.800 144.200 C 222.580 144.064,222.400 144.233,222.400 144.576 C 222.400 144.919,222.264 145.200,222.098 145.200 C 221.931 145.200,221.541 145.785,221.230 146.500 C 220.919 147.215,220.560 147.890,220.432 148.000 C 219.980 148.390,218.400 151.684,218.400 152.238 C 218.400 152.547,218.220 152.800,218.000 152.800 C 217.780 152.800,217.600 153.149,217.600 153.576 C 217.600 154.003,217.420 154.464,217.200 154.600 C 216.980 154.736,216.800 155.287,216.800 155.824 C 216.800 156.361,216.620 156.800,216.400 156.800 C 216.180 156.800,216.000 157.243,216.000 157.785 C 216.000 158.789,210.857 158.932,210.467 157.939 C 210.274 157.448,201.200 157.508,201.200 158.000 C 201.200 158.220,200.761 158.400,200.224 158.400 C 199.687 158.400,199.136 158.220,199.000 158.000 C 198.861 157.775,196.937 157.600,194.600 157.600 C 192.263 157.600,190.339 157.775,190.200 158.000 C 190.064 158.220,189.075 158.400,188.002 158.400 C 186.930 158.400,185.590 158.576,185.026 158.790 C 184.067 159.155,184.000 159.102,184.000 157.990 C 184.000 157.336,183.820 156.800,183.600 156.800 C 183.380 156.800,183.200 156.260,183.200 155.600 C 183.200 154.940,183.020 154.400,182.800 154.400 C 182.580 154.400,182.400 154.040,182.400 153.600 C 182.400 153.160,182.220 152.800,182.000 152.800 C 181.780 152.800,181.600 152.440,181.600 152.000 C 181.600 151.560,181.420 151.200,181.200 151.200 C 180.980 151.200,180.800 150.840,180.800 150.400 C 180.800 149.960,180.620 149.600,180.400 149.600 C 180.180 149.600,180.000 149.240,180.000 148.800 C 180.000 148.360,179.854 148.000,179.675 148.000 C 179.496 148.000,179.102 147.370,178.800 146.600 C 178.498 145.830,178.104 145.200,177.925 145.200 C 177.746 145.200,177.600 144.919,177.600 144.576 C 177.600 144.233,177.447 144.047,177.260 144.163 C 177.073 144.278,176.668 143.884,176.360 143.286 C 175.336 141.301,167.386 133.200,166.462 133.200 C 166.276 133.200,165.798 132.840,165.400 132.400 C 165.002 131.960,164.434 131.600,164.138 131.600 C 163.842 131.600,163.600 131.420,163.600 131.200 C 163.600 130.980,163.364 130.800,163.075 130.800 C 162.787 130.800,162.164 130.440,161.692 130.000 C 161.220 129.560,160.643 129.200,160.411 129.200 C 160.179 129.200,159.677 129.035,159.295 128.834 C 158.559 128.446,156.576 127.573,154.594 126.765 C 153.937 126.497,152.925 126.254,152.343 126.224 C 151.762 126.194,151.000 125.932,150.649 125.640 C 150.269 125.325,149.603 125.213,149.005 125.363 C 148.424 125.509,148.000 125.443,148.000 125.208 C 148.000 124.965,146.707 124.800,144.800 124.800 C 142.933 124.800,141.600 124.633,141.600 124.400 C 141.600 123.905,135.336 123.857,135.031 124.349 " stroke="none" fill="#fcdcaa" fill-rule="evenodd"></path><path id="path1" d="M295.200 204.803 C 293.110 206.958,290.725 209.141,289.900 209.655 C 289.075 210.169,288.400 210.726,288.400 210.894 C 288.400 211.062,288.130 211.200,287.800 211.200 C 287.470 211.200,287.200 211.380,287.200 211.600 C 287.200 211.820,286.945 212.000,286.633 212.000 C 286.322 212.000,286.007 212.137,285.933 212.304 C 285.725 212.777,279.082 216.007,278.324 216.003 C 277.952 216.001,277.536 216.180,277.400 216.400 C 277.264 216.620,276.724 216.800,276.200 216.800 C 275.676 216.800,275.148 216.960,275.027 217.156 C 274.906 217.351,274.221 217.613,273.504 217.736 C 272.787 217.860,271.120 218.185,269.800 218.458 C 265.631 219.323,251.985 218.946,251.369 217.950 C 251.250 217.757,250.544 217.600,249.800 217.600 C 249.056 217.600,248.336 217.420,248.200 217.200 C 248.064 216.980,247.513 216.800,246.976 216.800 C 246.439 216.800,246.000 216.620,246.000 216.400 C 246.000 216.180,245.658 216.000,245.241 216.000 C 244.537 216.000,242.391 214.972,238.688 212.862 C 236.664 211.708,236.626 211.719,235.169 213.900 C 232.262 218.250,224.012 225.200,221.754 225.200 C 221.449 225.200,221.200 225.380,221.200 225.600 C 221.200 225.820,220.840 226.000,220.400 226.000 C 219.960 226.000,219.600 226.180,219.600 226.400 C 219.600 226.620,219.161 226.800,218.624 226.800 C 218.087 226.800,217.536 226.980,217.400 227.200 C 217.264 227.420,216.659 227.600,216.056 227.600 C 215.453 227.600,214.789 227.764,214.580 227.965 C 213.812 228.702,202.909 229.469,202.271 228.831 C 202.034 228.594,201.012 228.400,200.000 228.400 C 198.988 228.400,197.966 228.594,197.729 228.831 C 197.091 229.469,186.188 228.702,185.420 227.965 C 185.211 227.764,184.547 227.600,183.944 227.600 C 183.341 227.600,182.736 227.420,182.600 227.200 C 182.464 226.980,181.913 226.800,181.376 226.800 C 180.839 226.800,180.400 226.620,180.400 226.400 C 180.400 226.180,180.040 226.000,179.600 226.000 C 179.160 226.000,178.800 225.820,178.800 225.600 C 178.800 225.380,178.440 225.200,178.000 225.200 C 177.560 225.200,177.200 225.020,177.200 224.800 C 177.200 224.580,176.840 224.400,176.400 224.400 C 175.960 224.400,175.600 224.250,175.600 224.068 C 175.600 223.885,175.108 223.480,174.506 223.168 C 171.971 221.853,167.437 217.505,165.400 214.434 C 163.603 211.725,163.426 211.657,161.312 212.862 C 157.609 214.972,155.463 216.000,154.759 216.000 C 154.342 216.000,154.000 216.160,154.000 216.355 C 154.000 216.550,153.505 216.809,152.900 216.930 C 150.144 217.484,149.347 217.683,148.600 218.001 C 145.552 219.299,128.574 219.252,127.765 217.943 C 127.648 217.755,126.933 217.600,126.176 217.600 C 125.419 217.600,124.800 217.420,124.800 217.200 C 124.800 216.980,124.260 216.800,123.600 216.800 C 122.940 216.800,122.400 216.620,122.400 216.400 C 122.400 216.180,122.045 216.000,121.612 216.000 C 121.179 216.000,120.183 215.640,119.400 215.200 C 118.617 214.760,117.711 214.400,117.388 214.400 C 117.065 214.400,116.800 214.254,116.800 214.075 C 116.800 213.896,116.170 213.502,115.400 213.200 C 114.630 212.898,114.000 212.504,114.000 212.325 C 114.000 212.146,113.730 212.000,113.400 212.000 C 113.070 212.000,112.800 211.820,112.800 211.600 C 112.800 211.380,112.530 211.200,112.200 211.200 C 111.870 211.200,111.600 211.059,111.600 210.886 C 111.600 210.714,111.015 210.228,110.300 209.806 C 109.585 209.385,107.237 207.276,105.083 205.120 C 100.555 200.588,101.049 200.755,98.095 202.753 C 87.807 209.713,73.949 210.684,63.196 205.198 C 62.043 204.610,60.840 204.400,58.616 204.400 C 56.872 204.400,55.600 204.231,55.600 204.000 C 55.600 203.780,54.610 203.600,53.400 203.600 C 52.190 203.600,51.200 203.420,51.200 203.200 C 51.200 202.960,49.600 202.800,47.200 202.800 C 44.800 202.800,43.200 202.640,43.200 202.400 C 43.200 202.180,42.930 202.000,42.600 202.000 C 42.270 202.000,42.000 202.180,42.000 202.400 C 42.000 202.631,40.733 202.800,39.000 202.800 C 37.267 202.800,36.000 202.969,36.000 203.200 C 36.000 203.420,35.370 203.600,34.600 203.600 C 33.830 203.600,33.200 203.780,33.200 204.000 C 33.200 204.220,32.660 204.400,32.000 204.400 C 31.340 204.400,30.800 204.580,30.800 204.800 C 30.800 205.020,30.457 205.200,30.038 205.200 C 29.371 205.200,26.147 206.653,25.600 207.200 C 25.490 207.310,24.995 207.625,24.500 207.900 C 22.296 209.125,21.770 209.492,20.069 211.000 C 15.887 214.707,14.309 216.586,12.465 220.054 C 11.837 221.234,10.957 222.843,10.509 223.628 C 9.853 224.778,9.174 227.174,9.024 228.867 C 9.011 229.013,8.865 229.268,8.700 229.433 C 8.535 229.598,8.400 230.323,8.400 231.043 C 8.400 231.763,8.220 232.464,8.000 232.600 C 7.780 232.736,7.600 233.737,7.600 234.824 C 7.600 235.911,7.420 236.800,7.200 236.800 C 6.980 236.800,6.800 237.779,6.800 238.976 C 6.800 240.173,6.620 241.264,6.400 241.400 C 6.180 241.536,6.000 242.627,6.000 243.824 C 6.000 245.021,5.820 246.000,5.600 246.000 C 5.380 246.000,5.200 246.979,5.200 248.176 C 5.200 249.373,5.020 250.464,4.800 250.600 C 4.580 250.736,4.400 251.636,4.400 252.600 C 4.400 253.564,4.220 254.464,4.000 254.600 C 3.780 254.736,3.600 255.827,3.600 257.024 C 3.600 258.221,3.420 259.200,3.200 259.200 C 2.980 259.200,2.800 260.190,2.800 261.400 C 2.800 262.610,2.620 263.600,2.400 263.600 C 2.180 263.600,2.000 264.489,2.000 265.576 C 2.000 266.663,1.820 267.664,1.600 267.800 C 1.380 267.936,1.200 269.012,1.200 270.190 C 1.200 271.549,1.017 272.394,0.700 272.500 C 0.317 272.628,0.200 275.169,0.200 283.400 C 0.200 291.630,0.317 294.172,0.700 294.300 C 0.975 294.392,1.200 294.904,1.200 295.439 C 1.200 295.973,1.365 296.723,1.567 297.105 C 1.768 297.487,2.150 298.385,2.415 299.100 C 2.680 299.815,3.055 300.400,3.249 300.400 C 3.442 300.400,3.600 300.760,3.600 301.200 C 3.600 301.640,3.736 302.000,3.902 302.000 C 4.069 302.000,4.463 302.585,4.780 303.300 C 5.096 304.015,5.975 305.271,6.734 306.091 C 7.492 306.912,8.397 307.992,8.744 308.491 C 9.522 309.610,11.081 311.200,11.399 311.200 C 11.529 311.200,12.122 311.660,12.717 312.223 C 13.313 312.785,14.295 313.544,14.900 313.909 C 15.505 314.274,16.000 314.714,16.000 314.886 C 16.000 315.059,16.360 315.200,16.800 315.200 C 17.240 315.200,17.600 315.380,17.600 315.600 C 17.600 315.820,17.960 316.000,18.400 316.000 C 18.840 316.000,19.200 316.180,19.200 316.400 C 19.200 316.620,19.560 316.800,20.000 316.800 C 20.440 316.800,20.800 316.980,20.800 317.200 C 20.800 317.420,21.149 317.600,21.576 317.600 C 22.003 317.600,22.464 317.780,22.600 318.000 C 22.736 318.220,23.366 318.400,24.000 318.400 C 24.634 318.400,25.264 318.580,25.400 318.800 C 25.536 319.020,26.177 319.200,26.824 319.200 C 27.471 319.200,28.000 319.380,28.000 319.600 C 28.000 319.820,28.889 320.000,29.976 320.000 C 31.063 320.000,32.064 320.180,32.200 320.400 C 32.336 320.620,33.326 320.800,34.400 320.800 C 35.474 320.800,36.464 320.980,36.600 321.200 C 36.736 321.420,37.467 321.600,38.224 321.600 L 39.600 321.600 39.600 323.624 C 39.600 324.871,39.447 325.552,39.200 325.400 C 38.952 325.247,38.800 325.996,38.800 327.376 C 38.800 328.599,38.620 329.600,38.400 329.600 C 38.180 329.600,38.000 330.590,38.000 331.800 C 38.000 333.010,37.837 334.000,37.637 334.000 C 37.437 334.000,37.167 334.990,37.037 336.200 C 36.907 337.410,36.693 339.390,36.563 340.600 C 36.428 341.857,36.128 342.803,35.863 342.806 C 35.603 342.810,35.664 342.983,36.000 343.200 C 36.400 343.458,36.433 343.590,36.100 343.594 C 35.475 343.602,35.379 352.616,36.000 353.000 C 36.220 353.136,36.400 353.766,36.400 354.400 C 36.400 355.034,36.580 355.664,36.800 355.800 C 37.020 355.936,37.200 356.487,37.200 357.024 C 37.200 357.561,37.380 358.000,37.600 358.000 C 37.820 358.000,38.000 358.360,38.000 358.800 C 38.000 359.240,38.180 359.600,38.400 359.600 C 38.620 359.600,38.800 359.920,38.800 360.312 C 38.800 360.703,39.160 361.283,39.600 361.600 C 40.040 361.917,40.400 362.378,40.400 362.625 C 40.400 363.089,43.739 366.800,44.157 366.800 C 44.287 366.800,44.859 367.205,45.428 367.700 C 46.756 368.856,50.266 370.800,51.025 370.800 C 51.347 370.800,51.923 370.958,52.305 371.151 C 53.748 371.880,55.914 372.400,57.505 372.400 C 58.411 372.400,59.248 372.555,59.365 372.743 C 59.482 372.932,60.617 373.201,61.889 373.342 C 63.160 373.482,65.190 373.786,66.400 374.017 C 69.749 374.658,70.370 374.748,73.500 375.044 C 75.095 375.194,76.400 375.471,76.400 375.659 C 76.400 375.846,77.379 376.000,78.576 376.000 C 79.773 376.000,80.864 376.180,81.000 376.400 C 81.136 376.620,82.227 376.800,83.424 376.800 C 84.621 376.800,85.600 376.980,85.600 377.200 C 85.600 377.420,86.489 377.600,87.576 377.600 C 88.663 377.600,89.664 377.780,89.800 378.000 C 89.936 378.220,91.027 378.400,92.224 378.400 C 93.421 378.400,94.400 378.580,94.400 378.800 C 94.400 379.020,95.390 379.200,96.600 379.200 C 97.810 379.200,98.800 379.380,98.800 379.600 C 98.800 379.820,99.700 380.000,100.800 380.000 C 101.900 380.000,102.800 380.180,102.800 380.400 C 102.800 380.622,103.867 380.800,105.200 380.800 C 106.533 380.800,107.600 380.978,107.600 381.200 C 107.600 381.420,108.579 381.600,109.776 381.600 C 110.973 381.600,112.064 381.780,112.200 382.000 C 112.336 382.220,113.337 382.400,114.424 382.400 C 115.511 382.400,116.400 382.580,116.400 382.800 C 116.400 383.020,117.379 383.200,118.576 383.200 C 119.773 383.200,120.864 383.380,121.000 383.600 C 121.136 383.820,122.227 384.000,123.424 384.000 C 124.621 384.000,125.600 384.180,125.600 384.400 C 125.600 384.620,126.489 384.800,127.576 384.800 C 128.663 384.800,129.664 384.980,129.800 385.200 C 129.936 385.420,130.926 385.600,132.000 385.600 C 133.074 385.600,134.064 385.780,134.200 386.000 C 134.336 386.220,135.427 386.400,136.624 386.400 C 137.821 386.400,138.800 386.563,138.800 386.763 C 138.800 386.963,139.745 387.228,140.900 387.354 C 146.646 387.977,147.428 388.100,147.780 388.437 C 148.306 388.940,155.600 388.906,155.600 388.400 C 155.600 388.180,156.185 387.997,156.900 387.994 C 158.698 387.986,164.400 385.790,164.400 385.106 C 164.400 384.938,164.688 384.800,165.040 384.800 C 165.391 384.800,166.183 384.260,166.800 383.600 C 167.417 382.940,168.027 382.400,168.156 382.400 C 168.553 382.400,170.000 381.044,170.000 380.672 C 170.000 380.479,170.540 379.817,171.200 379.200 C 171.860 378.583,172.400 377.827,172.400 377.520 C 172.400 377.212,172.563 376.789,172.762 376.580 C 173.715 375.581,174.794 373.034,175.036 371.216 C 175.183 370.107,175.460 369.200,175.652 369.200 C 175.843 369.200,176.000 368.120,176.000 366.800 C 176.000 365.467,176.178 364.400,176.400 364.400 C 176.620 364.400,176.800 363.511,176.800 362.424 C 176.800 361.337,176.980 360.336,177.200 360.200 C 177.420 360.064,177.600 358.973,177.600 357.776 C 177.600 356.579,177.780 355.600,178.000 355.600 C 178.220 355.600,178.400 354.610,178.400 353.400 C 178.400 352.190,178.563 351.200,178.763 351.200 C 178.963 351.200,179.233 350.210,179.363 349.000 C 179.493 347.790,179.707 345.810,179.837 344.600 C 179.967 343.390,180.237 342.400,180.437 342.400 C 180.637 342.400,180.800 341.421,180.800 340.224 C 180.800 339.027,180.980 337.936,181.200 337.800 C 181.420 337.664,181.600 336.663,181.600 335.576 C 181.600 334.489,181.780 333.600,182.000 333.600 C 182.220 333.600,182.400 332.621,182.400 331.424 C 182.400 330.227,182.580 329.136,182.800 329.000 C 183.020 328.864,183.200 327.773,183.200 326.576 C 183.200 325.379,183.380 324.400,183.600 324.400 C 183.820 324.400,184.000 323.511,184.000 322.424 C 184.000 321.337,184.180 320.336,184.400 320.200 C 184.620 320.064,184.800 319.074,184.800 318.000 C 184.800 316.926,184.980 315.936,185.200 315.800 C 185.420 315.664,185.600 314.573,185.600 313.376 C 185.600 312.179,185.763 311.200,185.963 311.200 C 186.163 311.200,186.427 310.255,186.550 309.100 C 187.043 304.477,187.294 302.983,187.639 302.620 C 187.837 302.411,188.000 301.322,188.000 300.200 C 188.000 299.078,188.163 297.989,188.361 297.780 C 188.560 297.571,188.823 296.590,188.946 295.600 C 189.190 293.644,189.722 290.372,190.411 286.600 C 190.652 285.280,191.051 282.355,191.298 280.100 C 191.544 277.845,191.893 276.000,192.073 276.000 C 192.253 276.000,192.400 275.010,192.400 273.800 C 192.400 272.590,192.580 271.600,192.800 271.600 C 193.022 271.600,193.200 270.533,193.200 269.200 C 193.200 267.867,193.378 266.800,193.600 266.800 C 193.820 266.800,194.000 265.900,194.000 264.800 C 194.000 263.700,194.180 262.800,194.400 262.800 C 194.620 262.800,194.800 261.821,194.800 260.624 C 194.800 259.427,194.980 258.336,195.200 258.200 C 195.420 258.064,195.600 257.074,195.600 256.000 C 195.600 254.926,195.780 253.936,196.000 253.800 C 196.220 253.664,196.400 252.674,196.400 251.600 C 196.400 250.526,196.580 249.536,196.800 249.400 C 197.020 249.264,197.200 248.173,197.200 246.976 C 197.200 245.779,197.380 244.800,197.600 244.800 C 197.820 244.800,198.000 243.911,198.000 242.824 C 198.000 241.737,198.180 240.736,198.400 240.600 C 198.620 240.464,198.800 239.474,198.800 238.400 C 198.800 237.326,198.980 236.336,199.200 236.200 C 199.420 236.064,199.600 234.973,199.600 233.776 C 199.600 232.579,199.780 231.600,200.000 231.600 C 200.220 231.600,200.400 232.590,200.400 233.800 C 200.400 235.010,200.580 236.000,200.800 236.000 C 201.020 236.000,201.200 236.889,201.200 237.976 C 201.200 239.063,201.380 240.064,201.600 240.200 C 201.820 240.336,202.000 241.301,202.000 242.344 C 202.000 243.387,202.163 244.411,202.363 244.620 C 202.563 244.829,202.823 245.900,202.942 247.000 C 203.060 248.100,203.357 250.080,203.602 251.400 C 203.848 252.720,204.144 254.745,204.261 255.900 C 204.378 257.055,204.637 258.000,204.837 258.000 C 205.037 258.000,205.200 258.979,205.200 260.176 C 205.200 261.373,205.380 262.464,205.600 262.600 C 205.820 262.736,206.000 263.726,206.000 264.800 C 206.000 265.874,206.180 266.864,206.400 267.000 C 206.620 267.136,206.800 268.126,206.800 269.200 C 206.800 270.274,206.980 271.264,207.200 271.400 C 207.420 271.536,207.600 272.627,207.600 273.824 C 207.600 275.021,207.780 276.000,208.000 276.000 C 208.220 276.000,208.400 276.990,208.400 278.200 C 208.400 279.482,208.577 280.400,208.824 280.400 C 209.057 280.400,209.152 280.554,209.036 280.741 C 208.920 280.929,209.002 282.180,209.218 283.520 C 209.434 284.861,209.691 286.463,209.789 287.079 C 210.231 289.855,210.808 293.178,211.199 295.200 C 211.432 296.410,211.730 298.438,211.860 299.706 C 211.991 300.975,212.255 302.111,212.449 302.230 C 212.642 302.349,212.800 303.347,212.800 304.447 C 212.800 305.679,212.954 306.352,213.200 306.200 C 213.449 306.046,213.600 306.836,213.600 308.296 C 213.600 309.585,213.790 310.830,214.022 311.062 C 214.255 311.295,214.452 312.411,214.461 313.543 C 214.470 314.674,214.640 315.701,214.838 315.824 C 215.037 315.947,215.200 316.926,215.200 318.000 C 215.200 319.074,215.380 320.064,215.600 320.200 C 215.820 320.336,216.000 321.337,216.000 322.424 C 216.000 323.511,216.180 324.400,216.400 324.400 C 216.620 324.400,216.800 325.379,216.800 326.576 C 216.800 327.773,216.980 328.864,217.200 329.000 C 217.420 329.136,217.600 330.137,217.600 331.224 C 217.600 332.311,217.780 333.200,218.000 333.200 C 218.220 333.200,218.400 334.179,218.400 335.376 C 218.400 336.573,218.580 337.664,218.800 337.800 C 219.020 337.936,219.200 339.027,219.200 340.224 C 219.200 341.421,219.380 342.400,219.600 342.400 C 219.820 342.400,220.000 343.289,220.000 344.376 C 220.000 345.463,220.180 346.464,220.400 346.600 C 220.620 346.736,220.800 347.827,220.800 349.024 C 220.800 350.221,220.980 351.200,221.200 351.200 C 221.420 351.200,221.600 352.089,221.600 353.176 C 221.600 354.263,221.780 355.264,222.000 355.400 C 222.220 355.536,222.400 356.616,222.400 357.800 C 222.400 358.984,222.580 360.064,222.800 360.200 C 223.020 360.336,223.200 361.337,223.200 362.424 C 223.200 363.511,223.380 364.400,223.600 364.400 C 223.820 364.400,224.000 365.379,224.000 366.576 C 224.000 367.773,224.180 368.864,224.400 369.000 C 224.620 369.136,224.800 369.766,224.800 370.400 C 224.800 371.034,224.980 371.664,225.200 371.800 C 225.420 371.936,225.600 372.406,225.600 372.845 C 225.600 373.627,227.700 377.735,228.563 378.643 C 228.803 378.895,229.270 379.512,229.600 380.013 C 229.930 380.514,230.539 381.212,230.953 381.562 C 231.367 381.913,232.306 382.785,233.040 383.500 C 233.773 384.215,234.649 384.800,234.987 384.800 C 235.324 384.800,235.600 384.980,235.600 385.200 C 235.600 385.420,235.960 385.600,236.400 385.600 C 236.840 385.600,237.200 385.780,237.200 386.000 C 237.200 386.220,237.560 386.400,238.000 386.400 C 238.440 386.400,238.800 386.580,238.800 386.800 C 238.800 387.020,239.239 387.200,239.776 387.200 C 240.313 387.200,240.864 387.380,241.000 387.600 C 241.136 387.820,241.921 388.000,242.744 388.000 C 243.567 388.000,244.434 388.194,244.671 388.431 C 245.171 388.931,250.519 388.705,254.200 388.027 C 255.520 387.784,257.635 387.477,258.900 387.345 C 260.165 387.212,261.200 386.962,261.200 386.789 C 261.200 386.616,262.145 386.372,263.300 386.246 C 269.046 385.623,269.828 385.500,270.180 385.163 C 270.389 384.963,271.424 384.800,272.480 384.800 C 273.536 384.800,274.400 384.620,274.400 384.400 C 274.400 384.180,275.354 384.000,276.520 384.000 C 277.686 384.000,278.811 383.837,279.020 383.639 C 279.377 383.300,280.536 383.102,285.400 382.552 C 286.500 382.428,287.571 382.163,287.780 381.963 C 287.989 381.763,289.114 381.600,290.280 381.600 C 291.446 381.600,292.400 381.420,292.400 381.200 C 292.400 380.980,293.379 380.800,294.576 380.800 C 295.773 380.800,296.864 380.620,297.000 380.400 C 297.136 380.180,298.126 380.000,299.200 380.000 C 300.274 380.000,301.264 379.820,301.400 379.600 C 301.536 379.380,302.526 379.200,303.600 379.200 C 304.674 379.200,305.664 379.020,305.800 378.800 C 305.936 378.580,307.027 378.400,308.224 378.400 C 309.421 378.400,310.400 378.220,310.400 378.000 C 310.400 377.780,311.289 377.600,312.376 377.600 C 313.463 377.600,314.464 377.420,314.600 377.200 C 314.736 376.980,315.827 376.800,317.024 376.800 C 318.221 376.800,319.200 376.620,319.200 376.400 C 319.200 376.180,320.190 376.000,321.400 376.000 C 322.610 376.000,323.600 375.848,323.600 375.663 C 323.600 375.478,325.445 375.127,327.700 374.884 C 329.955 374.640,332.880 374.250,334.200 374.017 C 335.520 373.783,337.548 373.481,338.707 373.346 C 339.866 373.211,340.912 372.942,341.031 372.750 C 341.150 372.557,342.126 372.400,343.200 372.400 C 344.274 372.400,345.264 372.220,345.400 372.000 C 345.536 371.780,346.076 371.600,346.600 371.600 C 347.124 371.600,347.664 371.420,347.800 371.200 C 347.936 370.980,348.577 370.800,349.224 370.800 C 349.871 370.800,350.400 370.662,350.400 370.494 C 350.400 370.326,351.075 369.890,351.900 369.525 C 354.396 368.420,358.893 364.394,359.969 362.300 C 360.281 361.695,360.685 361.200,360.868 361.200 C 361.050 361.200,361.200 360.840,361.200 360.400 C 361.200 359.960,361.335 359.599,361.500 359.597 C 361.906 359.593,362.800 357.614,362.800 356.720 C 362.800 356.324,362.980 356.000,363.200 356.000 C 363.420 356.000,363.600 355.471,363.600 354.824 C 363.600 354.177,363.780 353.536,364.000 353.400 C 364.233 353.256,364.400 350.996,364.400 347.976 C 364.400 344.792,364.246 342.800,364.000 342.800 C 363.778 342.800,363.600 341.733,363.600 340.400 C 363.600 339.067,363.422 338.000,363.200 338.000 C 362.980 338.000,362.800 337.111,362.800 336.024 C 362.800 334.937,362.620 333.936,362.400 333.800 C 362.180 333.664,362.000 332.674,362.000 331.600 C 362.000 330.526,361.820 329.536,361.600 329.400 C 361.380 329.264,361.200 328.274,361.200 327.200 C 361.200 326.126,361.020 325.136,360.800 325.000 C 360.580 324.864,360.400 323.973,360.400 323.019 C 360.400 321.909,360.200 321.209,359.845 321.073 C 359.540 320.955,359.190 320.171,359.068 319.330 C 358.678 316.651,358.149 313.623,357.228 308.800 C 356.042 302.597,355.600 298.744,355.839 296.706 C 356.010 295.252,355.946 294.414,355.649 294.230 C 355.402 294.078,355.200 293.099,355.200 292.056 C 355.200 291.013,355.037 289.989,354.837 289.780 C 354.500 289.428,354.377 288.646,353.754 282.900 C 353.628 281.745,353.363 280.800,353.163 280.800 C 352.963 280.800,352.800 279.810,352.800 278.600 C 352.800 277.390,352.620 276.400,352.400 276.400 C 352.180 276.400,352.000 275.421,352.000 274.224 C 352.000 273.027,351.820 271.936,351.600 271.800 C 351.380 271.664,351.200 270.674,351.200 269.600 C 351.200 268.526,351.020 267.536,350.800 267.400 C 350.580 267.264,350.400 266.274,350.400 265.200 C 350.400 264.126,350.220 263.136,350.000 263.000 C 349.780 262.864,349.600 261.773,349.600 260.576 C 349.600 259.379,349.420 258.400,349.200 258.400 C 348.980 258.400,348.800 257.511,348.800 256.424 C 348.800 255.337,348.620 254.336,348.400 254.200 C 348.180 254.064,348.000 253.074,348.000 252.000 C 348.000 250.926,347.820 249.936,347.600 249.800 C 347.380 249.664,347.200 248.573,347.200 247.376 C 347.200 246.179,347.037 245.200,346.837 245.200 C 346.637 245.200,346.367 244.210,346.237 243.000 C 346.107 241.790,345.893 239.810,345.763 238.600 C 345.633 237.390,345.363 236.400,345.163 236.400 C 344.963 236.400,344.800 235.421,344.800 234.224 C 344.800 233.027,344.620 231.936,344.400 231.800 C 344.180 231.664,344.000 231.059,344.000 230.456 C 344.000 229.853,343.788 229.148,343.530 228.890 C 343.271 228.631,342.904 227.470,342.714 226.310 C 342.148 222.853,341.473 219.027,340.400 213.200 C 339.539 208.522,339.205 205.815,339.409 205.171 C 339.793 203.962,338.980 203.971,336.750 205.200 C 335.568 205.852,334.206 206.389,333.724 206.393 C 333.242 206.397,332.736 206.580,332.600 206.800 C 332.464 207.020,331.834 207.200,331.200 207.200 C 330.566 207.200,329.936 207.380,329.800 207.600 C 329.664 207.820,328.789 208.000,327.856 208.000 C 326.923 208.000,325.968 208.192,325.732 208.428 C 324.779 209.381,310.871 207.885,310.171 206.754 C 310.051 206.559,309.648 206.398,309.276 206.395 C 308.451 206.389,302.815 203.546,301.067 202.254 C 300.370 201.739,299.620 201.221,299.400 201.102 C 299.180 200.983,297.290 202.649,295.200 204.803 M44.400 227.200 C 44.400 227.420,45.379 227.600,46.576 227.600 C 47.773 227.600,48.864 227.780,49.000 228.000 C 49.136 228.220,50.216 228.400,51.400 228.400 C 52.584 228.400,53.664 228.580,53.800 228.800 C 53.936 229.020,54.487 229.200,55.024 229.200 C 56.057 229.200,56.524 231.629,55.600 232.200 C 55.380 232.336,55.200 233.337,55.200 234.424 C 55.200 235.511,55.020 236.400,54.800 236.400 C 54.578 236.400,54.400 237.467,54.400 238.800 C 54.400 240.133,54.222 241.200,54.000 241.200 C 53.780 241.200,53.600 242.089,53.600 243.176 C 53.600 244.263,53.420 245.264,53.200 245.400 C 52.980 245.536,52.800 246.526,52.800 247.600 C 52.800 248.674,52.620 249.664,52.400 249.800 C 52.180 249.936,52.000 251.027,52.000 252.224 C 52.000 253.421,51.820 254.400,51.600 254.400 C 51.380 254.400,51.200 255.264,51.200 256.320 C 51.200 257.376,51.037 258.411,50.837 258.620 C 50.637 258.829,50.372 259.900,50.248 261.000 C 50.123 262.100,49.917 263.900,49.790 265.000 C 49.662 266.100,49.398 267.360,49.202 267.800 C 49.006 268.240,48.750 269.320,48.634 270.200 C 48.518 271.080,48.231 272.970,47.997 274.400 C 47.762 275.830,47.470 277.810,47.346 278.800 C 47.223 279.790,46.960 280.771,46.761 280.980 C 46.563 281.189,46.400 282.213,46.400 283.256 C 46.400 284.299,46.220 285.264,46.000 285.400 C 45.780 285.536,45.600 286.591,45.600 287.744 C 45.600 288.897,45.437 290.011,45.237 290.220 C 45.037 290.429,44.791 291.500,44.689 292.600 C 44.333 296.450,43.890 297.650,43.113 296.873 C 42.853 296.613,41.686 296.400,40.520 296.400 C 39.354 296.400,38.400 296.252,38.400 296.071 C 38.400 295.891,37.459 295.700,36.309 295.648 C 35.159 295.595,34.124 295.428,34.009 295.276 C 33.894 295.124,33.352 294.936,32.805 294.859 C 30.481 294.529,26.000 291.518,26.000 290.287 C 26.000 289.946,25.822 289.607,25.604 289.533 C 25.018 289.336,24.306 284.935,24.555 283.043 C 24.673 282.140,24.894 279.825,25.045 277.900 C 25.196 275.975,25.473 274.400,25.660 274.400 C 25.847 274.400,26.000 273.410,26.000 272.200 C 26.000 270.990,26.180 270.000,26.400 270.000 C 26.620 270.000,26.800 269.100,26.800 268.000 C 26.800 266.900,26.980 266.000,27.200 266.000 C 27.420 266.000,27.600 265.046,27.600 263.880 C 27.600 262.714,27.763 261.589,27.963 261.380 C 28.300 261.028,28.423 260.246,29.046 254.500 C 29.172 253.345,29.437 252.400,29.637 252.400 C 29.837 252.400,30.000 251.421,30.000 250.224 C 30.000 249.027,30.180 247.936,30.400 247.800 C 30.620 247.664,30.800 246.674,30.800 245.600 C 30.800 244.526,30.980 243.536,31.200 243.400 C 31.420 243.264,31.600 242.274,31.600 241.200 C 31.600 240.126,31.780 239.136,32.000 239.000 C 32.220 238.864,32.400 237.953,32.400 236.976 C 32.400 235.999,32.580 235.200,32.800 235.200 C 33.020 235.200,33.200 234.940,33.200 234.623 C 33.200 233.415,35.543 230.000,36.371 230.000 C 36.607 230.000,36.800 229.820,36.800 229.600 C 36.800 229.380,37.070 229.200,37.400 229.200 C 37.730 229.200,38.000 229.020,38.000 228.800 C 38.000 228.580,38.270 228.400,38.600 228.400 C 38.930 228.400,39.200 228.220,39.200 228.000 C 39.200 227.780,39.920 227.600,40.800 227.600 C 41.680 227.600,42.400 227.420,42.400 227.200 C 42.400 226.980,42.850 226.800,43.400 226.800 C 43.950 226.800,44.400 226.980,44.400 227.200 " stroke="none" fill="#fca705" fill-rule="evenodd"></path><path id="path2" d="M196.580 11.518 C 196.371 11.693,195.499 12.074,194.643 12.365 C 192.946 12.940,189.600 16.009,189.600 16.989 C 189.600 17.325,189.420 17.600,189.200 17.600 C 188.980 17.600,188.800 17.960,188.800 18.400 C 188.800 18.840,188.620 19.200,188.400 19.200 C 188.140 19.200,188.000 24.933,188.000 35.600 C 188.000 46.267,188.140 52.000,188.400 52.000 C 188.620 52.000,188.800 52.360,188.800 52.800 C 188.800 53.240,188.980 53.600,189.200 53.600 C 189.420 53.600,189.600 53.876,189.600 54.213 C 189.600 55.561,193.686 58.800,195.386 58.800 C 195.944 58.800,196.400 58.980,196.400 59.200 C 196.400 59.437,197.867 59.600,200.000 59.600 C 202.133 59.600,203.600 59.437,203.600 59.200 C 203.600 58.980,204.095 58.799,204.700 58.797 C 206.471 58.793,210.400 55.627,210.400 54.204 C 210.400 53.872,210.580 53.600,210.800 53.600 C 211.020 53.600,211.200 53.240,211.200 52.800 C 211.200 52.360,211.380 52.000,211.600 52.000 C 211.860 52.000,212.000 46.267,212.000 35.600 C 212.000 24.933,211.860 19.200,211.600 19.200 C 211.380 19.200,211.200 18.840,211.200 18.400 C 211.200 17.960,211.020 17.600,210.800 17.600 C 210.580 17.600,210.400 17.321,210.400 16.981 C 210.400 15.671,205.999 12.000,204.429 12.000 C 203.999 12.000,203.536 11.820,203.400 11.600 C 203.108 11.127,197.132 11.056,196.580 11.518 M143.600 38.400 C 143.600 38.620,142.835 38.804,141.900 38.809 C 140.832 38.814,139.829 39.108,139.200 39.600 C 138.650 40.030,138.068 40.386,137.907 40.391 C 137.403 40.406,134.000 43.838,134.000 44.331 C 134.000 44.589,133.820 44.800,133.600 44.800 C 133.380 44.800,133.200 45.340,133.200 46.000 C 133.200 46.660,133.020 47.200,132.800 47.200 C 132.563 47.200,132.400 48.667,132.400 50.800 C 132.400 52.933,132.563 54.400,132.800 54.400 C 133.020 54.400,133.200 54.762,133.200 55.205 C 133.200 56.503,133.950 57.482,138.600 62.252 C 150.445 74.404,153.775 77.600,154.589 77.600 C 154.925 77.600,155.200 77.780,155.200 78.000 C 155.200 78.220,155.560 78.400,156.000 78.400 C 156.440 78.400,156.800 78.580,156.800 78.800 C 156.800 79.020,157.509 79.200,158.376 79.200 C 159.243 79.200,160.064 79.380,160.200 79.600 C 160.336 79.820,160.977 80.000,161.624 80.000 C 162.271 80.000,162.800 79.820,162.800 79.600 C 162.800 79.380,163.610 79.200,164.600 79.200 C 165.590 79.200,166.400 79.064,166.400 78.898 C 166.400 78.731,166.976 78.341,167.679 78.029 C 169.970 77.015,173.200 73.271,173.200 71.629 C 173.200 71.199,173.380 70.736,173.600 70.600 C 174.101 70.290,174.129 64.633,173.633 63.695 C 173.432 63.313,173.044 62.400,172.771 61.668 C 172.169 60.046,152.860 40.400,151.869 40.400 C 151.501 40.400,151.200 40.220,151.200 40.000 C 151.200 39.780,150.840 39.600,150.400 39.600 C 149.960 39.600,149.600 39.420,149.600 39.200 C 149.600 38.980,148.891 38.800,148.024 38.800 C 147.157 38.800,146.336 38.620,146.200 38.400 C 146.064 38.180,145.423 38.000,144.776 38.000 C 144.129 38.000,143.600 38.180,143.600 38.400 M253.800 38.400 C 253.664 38.620,252.843 38.800,251.976 38.800 C 251.109 38.800,250.400 38.980,250.400 39.200 C 250.400 39.420,250.040 39.600,249.600 39.600 C 249.160 39.600,248.800 39.780,248.800 40.000 C 248.800 40.220,248.510 40.400,248.155 40.400 C 247.170 40.400,227.833 60.045,227.234 61.654 C 226.959 62.394,226.596 63.270,226.429 63.600 C 225.941 64.561,225.897 70.289,226.375 70.585 C 226.609 70.729,226.800 71.199,226.800 71.629 C 226.800 73.271,230.030 77.015,232.321 78.029 C 233.024 78.341,233.600 78.731,233.600 78.898 C 233.600 79.064,234.410 79.200,235.400 79.200 C 236.390 79.200,237.200 79.380,237.200 79.600 C 237.200 79.820,237.729 80.000,238.376 80.000 C 239.023 80.000,239.664 79.820,239.800 79.600 C 239.936 79.380,240.757 79.200,241.624 79.200 C 242.491 79.200,243.200 79.020,243.200 78.800 C 243.200 78.580,243.560 78.400,244.000 78.400 C 244.440 78.400,244.800 78.220,244.800 78.000 C 244.800 77.780,245.075 77.600,245.411 77.600 C 246.123 77.600,247.092 76.724,253.707 70.101 C 265.296 58.497,266.800 56.787,266.800 55.205 C 266.800 54.762,266.980 54.400,267.200 54.400 C 267.437 54.400,267.600 52.933,267.600 50.800 C 267.600 48.667,267.437 47.200,267.200 47.200 C 266.980 47.200,266.800 46.660,266.800 46.000 C 266.800 45.340,266.620 44.800,266.400 44.800 C 266.180 44.800,266.000 44.564,266.000 44.276 C 266.000 43.751,262.635 40.408,262.089 40.391 C 261.930 40.386,261.350 40.030,260.800 39.600 C 260.171 39.108,259.168 38.814,258.100 38.809 C 257.165 38.804,256.400 38.620,256.400 38.400 C 256.400 38.180,255.871 38.000,255.224 38.000 C 254.577 38.000,253.936 38.180,253.800 38.400 " stroke="none" fill="#6bcb04" fill-rule="evenodd"></path><path id="path3" d="M98.664 201.877 C 97.599 202.676,95.349 204.016,93.664 204.855 C 91.979 205.693,90.831 206.384,91.113 206.390 C 91.871 206.405,95.472 204.529,98.095 202.754 C 101.030 200.767,100.836 200.729,103.886 203.900 C 106.860 206.991,106.440 206.056,103.329 202.661 C 100.891 199.998,101.117 200.036,98.664 201.877 M61.200 204.374 C 61.750 204.542,62.982 205.079,63.939 205.568 C 64.895 206.056,65.759 206.374,65.859 206.274 C 66.163 205.970,61.902 203.998,61.021 204.034 C 60.324 204.064,60.351 204.115,61.200 204.374 M67.200 206.800 C 67.530 207.013,68.160 207.188,68.600 207.188 C 69.262 207.188,69.297 207.121,68.800 206.800 C 68.470 206.587,67.840 206.412,67.400 206.412 C 66.738 206.412,66.703 206.479,67.200 206.800 M88.800 206.800 C 88.267 207.145,88.267 207.188,88.800 207.188 C 89.130 207.188,89.670 207.013,90.000 206.800 C 90.533 206.455,90.533 206.412,90.000 206.412 C 89.670 206.412,89.130 206.587,88.800 206.800 M70.000 207.600 C 70.330 207.813,70.960 207.988,71.400 207.988 C 72.062 207.988,72.097 207.921,71.600 207.600 C 71.270 207.387,70.640 207.212,70.200 207.212 C 69.538 207.212,69.503 207.279,70.000 207.600 M86.000 207.600 C 85.503 207.921,85.538 207.988,86.200 207.988 C 86.640 207.988,87.270 207.813,87.600 207.600 C 88.097 207.279,88.062 207.212,87.400 207.212 C 86.960 207.212,86.330 207.387,86.000 207.600 M107.600 207.402 C 107.600 207.752,108.357 208.455,109.900 209.540 C 111.781 210.863,111.496 210.339,109.400 208.621 C 108.410 207.810,107.600 207.261,107.600 207.402 M73.823 208.453 C 75.376 208.786,82.348 208.791,83.524 208.460 C 84.032 208.317,81.792 208.200,78.546 208.200 C 75.301 208.200,73.175 208.314,73.823 208.453 M234.800 213.457 C 232.994 216.320,228.650 220.760,225.814 222.643 C 224.590 223.456,223.659 224.192,223.746 224.279 C 224.435 224.968,232.932 217.248,235.169 213.900 C 235.867 212.855,236.620 212.000,236.843 212.000 C 237.065 212.000,237.136 211.820,237.000 211.600 C 236.569 210.902,236.234 211.185,234.800 213.457 M114.000 212.277 C 114.000 212.457,114.585 212.859,115.300 213.170 C 116.015 213.481,116.714 213.907,116.854 214.117 C 116.993 214.326,117.327 214.424,117.595 214.335 C 117.864 214.245,117.164 213.672,116.042 213.061 C 114.919 212.450,114.000 212.097,114.000 212.277 M239.362 213.139 C 239.676 213.646,244.697 216.104,245.094 215.944 C 245.290 215.865,244.036 215.129,242.307 214.309 C 240.578 213.489,239.253 212.962,239.362 213.139 M118.400 214.571 C 118.400 214.875,120.904 216.000,121.561 215.991 C 121.913 215.986,121.415 215.626,120.456 215.191 C 118.627 214.361,118.400 214.293,118.400 214.571 M122.400 216.400 C 122.400 216.620,122.895 216.787,123.500 216.772 C 124.475 216.747,124.509 216.705,123.800 216.400 C 122.707 215.931,122.400 215.931,122.400 216.400 M246.000 216.357 C 246.000 216.601,246.439 216.800,246.976 216.800 C 247.513 216.800,248.064 216.980,248.200 217.200 C 248.336 217.420,249.031 217.600,249.744 217.600 C 250.457 217.600,251.211 217.763,251.420 217.961 C 252.518 219.005,265.309 219.501,268.400 218.619 C 269.610 218.274,269.970 218.088,269.200 218.206 C 262.034 219.304,252.626 218.457,246.691 216.180 C 246.293 216.027,246.000 216.102,246.000 216.357 M124.800 217.192 C 124.800 217.417,125.419 217.600,126.176 217.600 C 126.933 217.600,127.664 217.780,127.800 218.000 C 127.936 218.220,128.712 218.388,129.524 218.374 C 130.980 218.348,130.973 218.340,129.000 217.825 C 125.252 216.846,124.800 216.778,124.800 217.192 M213.400 228.000 C 212.629 228.331,212.631 228.345,213.476 228.372 C 213.958 228.387,214.464 228.220,214.600 228.000 C 214.892 227.527,214.501 227.527,213.400 228.000 M202.262 228.900 C 202.518 229.315,208.874 229.267,209.539 228.846 C 209.856 228.645,208.427 228.524,206.078 228.552 C 203.878 228.578,202.161 228.735,202.262 228.900 " stroke="none" fill="#fcc61c" fill-rule="evenodd"></path><path id="path4" d="M97.902 201.902 C 96.418 202.911,95.284 203.818,95.383 203.917 C 95.482 204.016,96.729 203.265,98.153 202.248 C 101.321 199.988,100.850 199.948,103.329 202.687 C 107.109 206.863,111.406 210.727,111.815 210.318 C 111.916 210.217,111.234 209.575,110.299 208.891 C 108.197 207.352,106.869 206.079,103.807 202.667 C 100.996 199.533,101.322 199.575,97.902 201.902 M297.500 201.300 C 295.025 204.534,291.634 207.602,285.986 211.719 C 284.394 212.879,285.998 211.994,288.600 210.277 C 289.920 209.406,292.817 206.837,295.037 204.568 L 299.073 200.444 301.637 202.162 C 308.554 206.800,318.786 209.679,324.041 208.466 C 325.152 208.210,326.667 208.000,327.407 208.000 C 328.147 208.000,328.864 207.820,329.000 207.600 C 329.136 207.380,329.766 207.200,330.400 207.200 C 331.034 207.200,331.664 207.020,331.800 206.800 C 331.936 206.580,332.436 206.400,332.912 206.400 C 333.932 206.400,337.583 204.744,337.593 204.276 C 337.597 204.098,337.465 204.018,337.300 204.098 C 334.946 205.241,333.074 205.996,331.600 206.395 C 330.610 206.664,329.406 207.036,328.925 207.222 C 325.944 208.374,311.799 207.692,310.973 206.356 C 310.852 206.160,310.438 206.000,310.053 206.000 C 309.081 206.000,304.677 203.734,301.699 201.700 C 298.713 199.661,298.751 199.665,297.500 201.300 M65.800 206.000 C 65.936 206.220,66.442 206.387,66.924 206.372 C 67.769 206.345,67.771 206.331,67.000 206.000 C 65.899 205.527,65.508 205.527,65.800 206.000 M68.800 206.782 C 69.130 207.005,69.745 207.191,70.167 207.194 C 71.190 207.202,70.871 206.973,69.400 206.644 C 68.524 206.448,68.362 206.485,68.800 206.782 M87.600 206.800 C 86.776 207.064,86.741 207.126,87.400 207.154 C 87.840 207.173,88.470 207.013,88.800 206.800 C 89.501 206.347,89.014 206.347,87.600 206.800 M71.621 207.621 C 72.155 207.960,75.142 208.181,74.767 207.855 C 74.675 207.775,73.799 207.608,72.821 207.482 C 71.670 207.335,71.246 207.384,71.621 207.621 M83.800 207.600 L 82.200 207.886 83.800 207.937 C 84.680 207.965,85.670 207.813,86.000 207.600 C 86.715 207.138,86.381 207.138,83.800 207.600 M77.111 208.293 C 78.051 208.378,79.491 208.377,80.311 208.291 C 81.130 208.205,80.360 208.136,78.600 208.137 C 76.840 208.139,76.170 208.209,77.111 208.293 M112.800 211.222 C 113.833 211.926,116.400 213.225,116.400 213.042 C 116.400 212.833,112.805 210.797,112.450 210.806 C 112.312 210.809,112.470 210.996,112.800 211.222 M162.500 211.344 C 161.263 211.956,161.357 212.493,162.602 211.926 C 163.153 211.675,163.663 211.544,163.737 211.635 C 163.810 211.726,164.477 212.696,165.217 213.792 C 169.746 220.487,178.349 226.299,186.200 227.966 C 188.525 228.460,194.325 229.027,195.200 228.847 C 195.530 228.779,199.400 228.663,203.800 228.590 C 209.715 228.492,212.425 228.283,214.200 227.789 C 215.520 227.421,217.008 227.027,217.506 226.912 C 218.004 226.798,218.503 226.558,218.614 226.378 C 218.725 226.198,218.227 226.231,217.508 226.450 C 212.675 227.924,211.610 228.045,202.648 228.137 C 191.218 228.254,186.018 227.887,183.300 226.770 C 182.805 226.566,181.950 226.220,181.400 226.000 C 175.044 223.458,169.074 218.692,165.517 213.321 C 164.599 211.934,163.747 210.822,163.624 210.849 C 163.501 210.876,162.995 211.099,162.500 211.344 M236.611 211.343 C 237.927 212.248,245.731 215.944,246.800 216.168 C 247.350 216.284,247.080 216.076,246.200 215.707 C 245.320 215.338,242.747 214.083,240.483 212.918 C 236.430 210.833,235.060 210.275,236.611 211.343 M234.275 213.700 C 233.474 214.855,232.255 216.396,231.566 217.124 C 230.878 217.852,230.393 218.526,230.489 218.622 C 230.675 218.808,234.212 214.531,235.387 212.700 C 236.626 210.767,235.787 211.522,234.275 213.700 M160.000 212.706 C 160.000 212.874,159.259 213.332,158.353 213.725 C 157.447 214.117,156.801 214.534,156.918 214.651 C 157.035 214.769,158.001 214.381,159.065 213.790 C 161.412 212.487,161.512 212.400,160.667 212.400 C 160.300 212.400,160.000 212.538,160.000 212.706 M282.284 213.507 C 281.230 214.054,280.447 214.580,280.544 214.677 C 280.744 214.877,284.800 212.891,284.800 212.593 C 284.800 212.279,284.308 212.458,282.284 213.507 M116.800 213.405 C 116.800 213.720,121.296 215.637,121.517 215.416 C 121.624 215.310,121.191 215.026,120.555 214.787 C 119.920 214.547,118.877 214.092,118.239 213.775 C 116.963 213.143,116.800 213.101,116.800 213.405 M277.800 215.629 C 276.920 216.052,276.650 216.285,277.200 216.146 C 278.726 215.760,280.000 215.244,280.000 215.010 C 280.000 214.671,279.499 214.812,277.800 215.629 M125.000 216.800 C 125.440 216.989,126.070 217.144,126.400 217.144 C 126.778 217.144,126.704 217.017,126.200 216.800 C 125.760 216.611,125.130 216.456,124.800 216.456 C 124.422 216.456,124.496 216.583,125.000 216.800 M150.200 216.800 L 149.400 217.144 150.200 217.144 C 150.640 217.144,151.360 216.989,151.800 216.800 L 152.600 216.456 151.800 216.456 C 151.360 216.456,150.640 216.611,150.200 216.800 M248.600 216.800 C 249.040 216.989,249.670 217.144,250.000 217.144 C 250.378 217.144,250.304 217.017,249.800 216.800 C 249.360 216.611,248.730 216.456,248.400 216.456 C 248.022 216.456,248.096 216.583,248.600 216.800 M272.200 217.187 C 270.660 217.583,269.700 217.929,270.068 217.954 C 270.754 218.001,275.668 216.837,275.967 216.557 C 276.290 216.252,274.968 216.474,272.200 217.187 M128.200 217.600 C 128.640 217.789,129.450 217.938,130.000 217.932 L 131.000 217.920 130.000 217.600 C 129.450 217.424,128.640 217.274,128.200 217.268 L 127.400 217.256 128.200 217.600 M146.800 217.600 L 145.400 217.895 146.800 217.941 C 147.570 217.967,148.470 217.813,148.800 217.600 C 149.527 217.130,149.033 217.130,146.800 217.600 M251.800 217.600 C 252.240 217.789,252.960 217.944,253.400 217.944 L 254.200 217.944 253.400 217.600 C 252.960 217.411,252.240 217.256,251.800 217.256 L 251.000 217.256 251.800 217.600 M132.315 218.472 C 133.247 218.842,143.685 218.861,144.262 218.494 C 144.516 218.332,141.778 218.200,138.177 218.200 C 134.576 218.200,131.938 218.322,132.315 218.472 M256.203 218.449 C 257.746 218.779,265.844 218.782,267.376 218.453 C 268.023 218.314,265.504 218.198,261.779 218.197 C 258.054 218.195,255.545 218.309,256.203 218.449 M227.339 220.954 C 225.985 222.080,223.555 223.675,221.939 224.500 C 220.323 225.324,219.207 225.999,219.459 226.000 C 220.615 226.001,226.412 222.478,228.965 220.224 C 231.142 218.301,229.812 218.899,227.339 220.954 " stroke="none" fill="#fcba4e" fill-rule="evenodd"></path><path id="path5" d="" stroke="none" fill="#100ac90" fill-rule="evenodd"></path><path id="path6" d="" stroke="none" fill="#1009818" fill-rule="evenodd"></path></g></svg>