<?xml version="1.0" standalone="no"?>
<!DOCTYPE svg PUBLIC "-//W3C//DTD SVG 20010904//EN"
 "http://www.w3.org/TR/2001/REC-SVG-20010904/DTD/svg10.dtd">
<svg version="1.0" xmlns="http://www.w3.org/2000/svg"
 width="512.000000pt" height="512.000000pt" viewBox="0 0 512.000000 512.000000"
 preserveAspectRatio="xMidYMid meet">

<g transform="translate(0.000000,512.000000) scale(0.100000,-0.100000)"
fill="#dcdcdc80" stroke="none">
<path d="M2315 5109 c-884 -91 -1661 -631 -2049 -1423 -93 -188 -137 -308
-186 -500 -61 -240 -74 -355 -74 -626 0 -271 13 -386 74 -626 49 -192 93 -312
185 -500 248 -505 663 -920 1170 -1169 248 -122 496 -199 770 -241 169 -26
541 -26 710 0 562 85 1054 333 1450 731 439 440 689 974 746 1595 14 158 7
413 -16 570 -106 718 -510 1358 -1115 1765 -322 216 -665 349 -1060 410 -126
19 -477 28 -605 14z m420 -509 c316 -30 599 -121 863 -278 528 -314 880 -831
984 -1442 30 -177 30 -463 0 -640 -150 -883 -820 -1552 -1702 -1702 -166 -28
-454 -30 -615 -5 -448 72 -836 269 -1150 582 -657 656 -791 1663 -328 2464
160 276 415 545 670 704 393 247 841 358 1278 317z"/>
<path d="M2805 2920 c-368 -363 -674 -659 -680 -660 -5 0 -118 108 -250 240
l-240 240 -179 -179 -178 -179 423 -436 424 -436 857 857 858 858 -177 177
c-98 98 -180 178 -183 178 -3 -1 -306 -297 -675 -660z"/>
</g>
</svg>
