<?xml version="1.0" standalone="no"?>
<!DOCTYPE svg PUBLIC "-//W3C//DTD SVG 20010904//EN"
 "http://www.w3.org/TR/2001/REC-SVG-20010904/DTD/svg10.dtd">
<svg version="1.0" xmlns="http://www.w3.org/2000/svg"
 width="512.000000pt" height="512.000000pt" viewBox="0 0 512.000000 512.000000"
 preserveAspectRatio="xMidYMid meet">

<g transform="translate(0.000000,512.000000) scale(0.100000,-0.100000)"
fill="#000000" stroke="none">
<path d="M413 4015 c-175 -47 -325 -189 -385 -363 l-23 -67 0 -1025 0 -1025
23 -67 c61 -176 211 -317 388 -362 55 -14 201 -16 1281 -16 1350 0 1271 -4
1404 66 132 70 249 223 278 366 8 37 11 357 9 1068 l-3 1015 -30 72 c-73 175
-204 292 -380 338 -52 13 -213 15 -1285 14 -1020 0 -1234 -3 -1277 -14z"/>
<path d="M4965 3750 c-11 -5 -296 -172 -634 -372 -385 -228 -622 -374 -635
-391 -20 -27 -21 -41 -24 -382 -2 -285 0 -360 11 -387 11 -27 149 -139 648
-526 614 -476 635 -492 677 -492 37 0 50 6 78 34 l34 34 0 1201 c0 1320 4
1243 -60 1276 -32 17 -64 18 -95 5z"/>
</g>
</svg>
