<?xml version="1.0" standalone="no"?>
<!DOCTYPE svg PUBLIC "-//W3C//DTD SVG 20010904//EN"
 "http://www.w3.org/TR/2001/REC-SVG-20010904/DTD/svg10.dtd">
<svg version="1.0" xmlns="http://www.w3.org/2000/svg"
 width="512.000000pt" height="512.000000pt" viewBox="0 0 512.000000 512.000000"
 preserveAspectRatio="xMidYMid meet">

<g transform="translate(0.000000,512.000000) scale(0.100000,-0.100000)"
fill="#000000" stroke="none">
<path d="M4220 4300 l-825 -820 -8 66 c-20 179 -153 364 -313 435 -112 50 -71
49 -1379 49 -1049 0 -1229 -2 -1278 -15 -178 -46 -328 -186 -389 -363 l-23
-67 0 -1025 0 -1025 23 -67 c61 -176 211 -317 388 -362 49 -13 117 -16 320
-16 l259 0 -498 -498 -497 -497 0 -48 c0 -42 2 -47 22 -47 15 0 182 160 569
545 l547 545 889 0 c765 0 897 2 947 15 144 38 283 146 350 274 69 131 66 90
66 1069 l0 883 865 861 c806 802 865 863 865 894 0 33 -1 34 -37 33 -37 0 -69
-31 -863 -819z"/>
<path d="M4965 3750 c-11 -5 -296 -172 -634 -372 -385 -228 -622 -374 -635
-391 -20 -27 -21 -41 -24 -382 -2 -285 0 -360 11 -387 11 -27 149 -139 648
-526 614 -476 635 -492 677 -492 37 0 50 6 78 34 l34 34 0 1201 c0 1320 4
1243 -60 1276 -32 17 -64 18 -95 5z"/>
</g>
</svg>
