<svg id="logo_jjanhae_gradient" xmlns="http://www.w3.org/2000/svg" xmlns:xlink="http://www.w3.org/1999/xlink" viewBox="0 0 553.12 456.01"><defs><style>.cls-1{fill:url(#무제_그라디언트_5);}.cls-2{fill:url(#무제_그라디언트_3);}.cls-3{fill:url(#무제_그라디언트_4);}</style><linearGradient id="무제_그라디언트_5" x1="23.27" y1="145.55" x2="565.92" y2="445.68" gradientUnits="userSpaceOnUse"><stop offset="0.3" stop-color="#08d9d6"/><stop offset="0.75" stop-color="#ff2e63"/></linearGradient><linearGradient id="무제_그라디언트_3" x1="-52.29" y1="282.16" x2="490.37" y2="582.29" gradientUnits="userSpaceOnUse"><stop offset="0.34" stop-color="#08d9d6"/><stop offset="0.77" stop-color="#ff2e63"/></linearGradient><linearGradient id="무제_그라디언트_4" x1="64.39" y1="71.21" x2="599.65" y2="367.25" gradientUnits="userSpaceOnUse"><stop offset="0.33" stop-color="#08d9d6"/><stop offset="0.73" stop-color="#ff2e63"/></linearGradient></defs><path id="jjan" class="cls-1" d="M519.53,208.27c-27.75,3.26-63,32.5-63,32.53-13.38-70-31.44-137.5-50.41-148.81,0,0-53.18,120.36-147.92,113.83-146.11-10.08-157.62,86.57-157.62,86.57C140.21,256.29,172.49,276,249,270.75c-1.59,9-19,105.51-43.85,133.52,0,0,41.65,29.4,57.17-55.53,0,0,36.75,34.3,72.68,17.15s23.5-73.5,23.5-73.5,44.67,32.74,72.05-5.72c0,0-67.66-22.19-86.93-47,42.47-37.33,56.42-102,60.73-131.79V108l65.24,312S424,459,366.81,462.26s-85.75,31.85-85.75,31.85-56.35-76.77-94.73-67L271.26,548s5.72-24.5,69.42-32.67,124.13-36.75,142.92-95.55c0,0-9.29-81.57-24.18-163.4C518.55,264.5,519.53,208.27,519.53,208.27ZM335,350.37s-41.65-9-69.42-35.93c0,0,2.18-33.24-7.89-44.39h0c9.32-.84,19.27-2.06,29.94-3.8a110.22,110.22,0,0,0,36.61-12.71C324.48,254.06,339.82,283.2,335,350.37Z" transform="translate(-47.62 -91.99)"/><path id="water" class="cls-2" d="M92.82,350.78c-14.3-29-3.27-47.31-3.27-47.31S51.17,327.1,47.9,365.89s23.27,43.69,36.34,35.93S107.11,379.77,92.82,350.78Zm-19.08-2.86s-9.1,14.7-15.63,12.66,18.37-29.4,18.37-29.4C78.12,342.61,73.74,347.92,73.74,347.92Z" transform="translate(-47.62 -91.99)"/><path id="hae" class="cls-3" d="M597.22,311.13C591,294,583,327.52,579.59,337.41s-4.48,6.86-8.54,7.1-4,.87,3.22-14.35,6.6-18.55-.93-30.36-10.93,10.71-11.49,15.41S555,318.1,551.49,317s-11.63-1.48-15.46-10.45c-4.1-9.6,5.81-32.86,8.55-36.17s7.76-9-9.5-2.41-10.73,35.61-10.73,35.61c-5.64.68-12.12-2-17-5.94s-9.24-17.57-11.92-1.19,21.07,19.88,21.07,19.88c-17.44,4-27.25,31.84-2.56,39.16s32.32-11.17,33.84-20.48,2-6,7.3-6.36-5.76,20.23-18.33,44S534.24,404,534.24,404s10.32-18.23,17.75-33.41,5.89-11.56,12.62-12.38-3.41,12.61-3.41,12.61L538,406s19.48-6.22,42.53-38.92S603.4,328.28,597.22,311.13Zm-76.17,29.53s-9-2.51-3.93-8.58,18.2-7.79,17.32,1.46S521.05,340.66,521.05,340.66Z" transform="translate(-47.62 -91.99)"/></svg>
