<?xml version="1.0" standalone="no"?>
<!DOCTYPE svg PUBLIC "-//W3C//DTD SVG 20010904//EN"
 "http://www.w3.org/TR/2001/REC-SVG-20010904/DTD/svg10.dtd">
<svg version="1.0" xmlns="http://www.w3.org/2000/svg"
 width="512.000000pt" height="512.000000pt" viewBox="0 0 512.000000 512.000000"
 preserveAspectRatio="xMidYMid meet">

<g transform="translate(0.000000,512.000000) scale(0.100000,-0.100000)"
fill="current" stroke="none">
<path d="M2055 4951 c-114 -25 -214 -80 -294 -160 l-56 -58 -51 23 c-155 68
-350 53 -506 -39 -61 -36 -154 -131 -190 -194 -26 -46 -35 -54 -81 -69 -324
-105 -484 -458 -346 -763 16 -36 48 -87 69 -113 l40 -47 0 -1661 0 -1661 25
-24 24 -25 1471 0 1471 0 24 25 25 24 0 415 0 415 48 6 c435 61 787 389 878
820 112 526 -209 1058 -728 1209 -46 13 -109 27 -141 31 l-57 7 0 213 c0 187
2 214 17 226 31 26 92 130 115 197 30 88 32 249 4 332 -63 186 -192 316 -374
375 -40 13 -56 24 -69 48 -44 87 -145 188 -232 232 -150 76 -331 84 -475 21
l-51 -23 -56 58 c-103 104 -227 158 -374 164 -49 2 -108 0 -130 -4z m1055
-1563 c90 -32 257 -31 344 0 33 12 61 22 63 22 1 0 3 -695 3 -1545 l0 -1545
-1360 0 -1360 0 0 1545 c0 850 2 1545 3 1545 2 0 30 -9 63 -21 63 -23 210 -31
290 -17 l41 8 5 -69 c15 -208 195 -360 415 -349 69 4 93 10 157 41 78 39 141
99 176 167 l18 35 104 0 c99 0 108 2 175 35 l72 36 3 -191 3 -191 33 -66 c37
-76 82 -120 162 -157 76 -36 183 -36 255 -1 64 31 124 91 155 155 25 49 25 54
28 342 l3 291 42 -24 c23 -13 71 -34 107 -46z m700 -453 c339 -80 596 -343
666 -682 25 -120 15 -321 -21 -433 -61 -188 -159 -328 -307 -440 -124 -94
-269 -154 -420 -176 l-48 -6 0 86 c0 81 1 86 21 86 41 0 145 32 215 66 183 90
327 269 380 474 23 87 23 253 0 340 -53 206 -197 384 -381 474 -74 36 -170 66
-212 66 -22 0 -23 3 -23 80 l0 80 33 0 c17 0 61 -7 97 -15z m-25 -330 c222
-78 366 -285 366 -525 0 -192 -86 -355 -246 -466 -50 -34 -172 -83 -207 -84
-17 0 -18 33 -18 550 0 517 1 550 18 550 9 0 48 -11 87 -25z"/>
<path d="M1200 2547 c-49 -16 -133 -102 -148 -153 -17 -59 -17 -1689 0 -1748
16 -55 99 -138 154 -154 96 -28 182 -4 247 68 24 26 49 66 55 88 17 56 17
1688 0 1744 -17 59 -88 133 -145 152 -53 18 -112 19 -163 3z"/>
<path d="M2080 2547 c-49 -16 -133 -102 -148 -153 -17 -59 -17 -1689 0 -1748
16 -55 99 -138 154 -154 96 -28 182 -4 247 68 24 26 49 66 55 88 17 56 17
1688 0 1744 -17 59 -88 133 -145 152 -53 18 -112 19 -163 3z"/>
<path d="M2960 2547 c-49 -16 -133 -102 -148 -153 -9 -31 -12 -249 -12 -874 0
-625 3 -843 12 -874 16 -55 99 -138 154 -154 96 -28 182 -4 247 68 24 26 49
66 55 88 17 56 17 1688 0 1744 -17 59 -88 133 -145 152 -53 18 -112 19 -163 3z"/>
</g>
</svg>
