<?xml version="1.0" standalone="no"?>
<!DOCTYPE svg PUBLIC "-//W3C//DTD SVG 20010904//EN"
 "http://www.w3.org/TR/2001/REC-SVG-20010904/DTD/svg10.dtd">
<svg version="1.0" xmlns="http://www.w3.org/2000/svg"
 width="512.000000pt" height="512.000000pt" viewBox="0 0 512.000000 512.000000"
 preserveAspectRatio="xMidYMid meet">

<g transform="translate(0.000000,512.000000) scale(0.100000,-0.100000)"
fill="#000000" stroke="none">
<path d="M2396 5109 c-483 -67 -895 -405 -1046 -857 -62 -189 -63 -193 -67
-734 l-4 -498 320 0 321 0 0 443 c0 502 3 527 72 666 103 210 332 351 568 351
236 0 465 -141 568 -351 69 -139 72 -164 72 -666 l0 -443 321 0 320 0 -4 498
c-3 425 -6 508 -21 572 -63 273 -181 485 -370 668 -181 174 -393 286 -641 337
-96 20 -314 27 -409 14z"/>
<path d="M1141 2865 c-178 -39 -348 -172 -429 -336 -74 -149 -72 -119 -72
-1089 0 -970 -2 -940 72 -1089 82 -166 251 -297 434 -336 104 -22 2724 -22
2828 0 239 50 441 252 491 491 22 103 22 1765 0 1868 -50 239 -252 441 -491
491 -100 21 -2735 21 -2833 0z m1551 -977 c116 -53 183 -159 183 -288 0 -96
-34 -171 -105 -231 l-49 -41 -3 -293 c-3 -278 -4 -295 -24 -321 -39 -53 -71
-69 -134 -69 -63 0 -95 16 -134 69 -20 26 -21 43 -24 321 l-3 293 -49 41 c-90
76 -129 201 -97 312 57 194 259 289 439 207z"/>
</g>
</svg>
