<?xml version="1.0" standalone="no"?>
<!DOCTYPE svg PUBLIC "-//W3C//DTD SVG 20010904//EN"
 "http://www.w3.org/TR/2001/REC-SVG-20010904/DTD/svg10.dtd">
<svg version="1.0" xmlns="http://www.w3.org/2000/svg"
 width="512.000000pt" height="512.000000pt" viewBox="0 0 512.000000 512.000000"
 preserveAspectRatio="xMidYMid meet">

<g transform="translate(0.000000,512.000000) scale(0.100000,-0.100000)"
fill="current" stroke="none">
<path d="M990 5104 c-74 -20 -126 -52 -184 -113 -59 -64 -95 -142 -107 -229
-11 -87 -11 -4317 0 -4404 16 -123 93 -242 196 -303 100 -58 24 -56 1691 -53
l1529 3 58 23 c127 52 229 187 248 328 11 90 11 4318 0 4408 -19 141 -121 276
-248 328 l-58 23 -1535 2 c-1328 2 -1542 0 -1590 -13z m2096 -417 c31 -37 31
-81 -1 -112 l-24 -25 -522 0 -523 0 -23 22 c-44 41 -24 118 37 141 8 3 244 5
523 4 l509 -2 24 -28z m-404 -1088 c100 -20 216 -85 294 -163 114 -114 174
-259 174 -419 0 -162 -60 -300 -179 -417 -120 -118 -245 -170 -411 -170 -169
0 -292 51 -416 175 -122 121 -174 245 -174 413 0 163 58 302 174 418 77 76
180 136 278 160 67 16 191 17 260 3z m53 -1498 c338 -70 591 -293 702 -616 30
-89 53 -219 53 -302 0 -55 -4 -67 -25 -88 l-24 -25 -881 0 -881 0 -24 25 c-21
21 -25 33 -25 88 0 137 45 314 114 444 189 359 600 555 991 474z"/>
<path d="M2456 3430 c-115 -29 -225 -123 -279 -237 -55 -119 -48 -275 19 -389
36 -60 125 -141 191 -172 52 -24 69 -27 173 -27 104 0 121 3 173 27 66 31 155
112 191 172 67 114 74 270 19 389 -43 91 -109 159 -199 203 -64 32 -84 37
-161 40 -48 2 -105 -1 -127 -6z"/>
<path d="M2431 1939 c-314 -52 -570 -317 -619 -641 l-9 -58 757 0 757 0 -9 58
c-64 423 -457 710 -877 641z"/>
</g>
</svg>
