<?xml version="1.0" standalone="no"?>
<!DOCTYPE svg PUBLIC "-//W3C//DTD SVG 20010904//EN"
 "http://www.w3.org/TR/2001/REC-SVG-20010904/DTD/svg10.dtd">
<svg version="1.0" xmlns="http://www.w3.org/2000/svg"
 width="512.000000pt" height="512.000000pt" viewBox="0 0 512.000000 512.000000"
 preserveAspectRatio="xMidYMid meet">

<g transform="translate(0.000000,512.000000) scale(0.100000,-0.100000)"
fill="current" stroke="none">
<path d="M2410 5010 c-159 -20 -309 -69 -465 -153 -255 -136 -473 -400 -569
-689 -54 -162 -59 -209 -65 -593 l-6 -360 -60 -7 c-122 -13 -255 -84 -340
-181 -54 -60 -118 -189 -134 -265 -8 -36 -11 -385 -11 -1105 0 -909 2 -1061
15 -1112 54 -211 236 -385 450 -430 105 -22 2565 -22 2670 0 215 45 394 216
450 430 23 89 23 2140 0 2230 -36 141 -151 293 -270 359 -66 36 -185 76 -228
76 l-35 0 -5 368 c-5 392 -8 426 -63 592 -62 185 -155 334 -303 481 -185 186
-392 296 -643 344 -104 20 -290 27 -388 15z m361 -429 c291 -74 506 -282 595
-576 28 -89 28 -92 32 -437 l4 -348 -841 0 -841 0 0 308 c0 169 5 336 10 372
58 364 338 643 705 700 85 13 247 4 336 -19z m-27 -2270 c261 -128 325 -461
128 -669 l-44 -47 43 -282 c39 -258 41 -284 28 -319 -9 -24 -26 -43 -49 -55
-31 -17 -60 -19 -295 -19 -240 0 -262 2 -292 20 -54 33 -65 65 -49 151 8 41
28 171 46 289 l32 215 -44 47 c-210 222 -123 582 167 690 39 14 72 18 155 16
97 -3 112 -6 174 -37z"/>
</g>
</svg>
