<svg id="svg" version="1.1" xmlns="http://www.w3.org/2000/svg" xmlns:xlink="http://www.w3.org/1999/xlink" width="400" height="400" viewBox="0, 0, 400,400"><g id="svgg"><path id="path0" d="M178.700 0.275 C 176.555 0.360,174.800 0.602,174.800 0.814 C 174.800 1.027,173.540 1.200,172.000 1.200 C 170.400 1.200,169.200 1.371,169.200 1.600 C 169.200 1.822,168.133 2.000,166.800 2.000 C 165.467 2.000,164.400 2.178,164.400 2.400 C 164.400 2.620,163.410 2.800,162.200 2.800 C 160.990 2.800,160.000 2.980,160.000 3.200 C 160.000 3.420,159.201 3.600,158.224 3.600 C 157.247 3.600,156.336 3.780,156.200 4.000 C 156.064 4.220,155.243 4.400,154.376 4.400 C 153.509 4.400,152.800 4.580,152.800 4.800 C 152.800 5.020,152.080 5.200,151.200 5.200 C 150.320 5.200,149.600 5.380,149.600 5.600 C 149.600 5.820,148.981 6.000,148.224 6.000 C 147.467 6.000,146.736 6.180,146.600 6.400 C 146.464 6.620,145.823 6.800,145.176 6.800 C 144.529 6.800,144.000 6.980,144.000 7.200 C 144.000 7.420,143.370 7.600,142.600 7.600 C 141.830 7.600,141.200 7.780,141.200 8.000 C 141.200 8.220,140.753 8.400,140.206 8.400 C 138.829 8.400,130.426 11.165,127.905 12.447 C 127.523 12.641,126.848 12.800,126.405 12.800 C 125.962 12.800,125.600 12.980,125.600 13.200 C 125.600 13.420,125.240 13.600,124.800 13.600 C 124.360 13.600,124.000 13.780,124.000 14.000 C 124.000 14.220,123.561 14.400,123.024 14.400 C 122.487 14.400,121.936 14.580,121.800 14.800 C 121.664 15.020,121.203 15.200,120.776 15.200 C 120.349 15.200,120.000 15.380,120.000 15.600 C 120.000 15.820,119.640 16.000,119.200 16.000 C 118.760 16.000,118.400 16.180,118.400 16.400 C 118.400 16.620,118.128 16.800,117.795 16.800 C 117.462 16.800,116.877 16.957,116.495 17.150 C 113.501 18.658,112.244 19.200,111.739 19.200 C 111.416 19.200,111.264 19.380,111.400 19.600 C 111.536 19.820,111.402 20.000,111.103 20.000 C 110.349 20.000,108.407 20.935,108.403 21.300 C 108.401 21.465,108.040 21.600,107.600 21.600 C 107.160 21.600,106.800 21.780,106.800 22.000 C 106.800 22.220,106.440 22.400,106.000 22.400 C 105.560 22.400,105.200 22.580,105.200 22.800 C 105.200 23.020,104.964 23.200,104.675 23.200 C 104.387 23.200,103.796 23.531,103.362 23.935 C 102.928 24.339,102.116 24.785,101.557 24.925 C 100.999 25.065,99.880 25.629,99.071 26.178 C 98.262 26.727,97.597 27.046,97.594 26.888 C 97.591 26.730,97.456 26.781,97.294 27.001 C 96.948 27.474,92.877 30.000,92.462 30.000 C 92.305 30.000,91.917 30.360,91.600 30.800 C 91.283 31.240,90.743 31.600,90.400 31.600 C 90.057 31.600,89.517 31.960,89.200 32.400 C 88.883 32.840,88.343 33.200,88.000 33.200 C 87.657 33.200,87.117 33.560,86.800 34.000 C 86.483 34.440,85.943 34.800,85.600 34.800 C 85.257 34.800,84.717 35.160,84.400 35.600 C 84.083 36.040,83.575 36.400,83.272 36.400 C 82.969 36.400,82.217 36.940,81.600 37.600 C 80.983 38.260,80.308 38.800,80.099 38.800 C 79.890 38.800,79.154 39.340,78.463 40.000 C 77.772 40.660,77.108 41.200,76.987 41.200 C 76.747 41.200,76.246 41.608,74.404 43.300 C 73.746 43.905,73.038 44.400,72.830 44.400 C 72.623 44.400,71.529 45.300,70.400 46.400 C 69.271 47.500,68.180 48.400,67.975 48.400 C 67.771 48.400,65.630 50.380,63.218 52.800 C 60.805 55.220,58.951 57.200,59.097 57.200 C 59.243 57.200,58.949 57.515,58.443 57.900 C 56.936 59.048,48.400 67.623,48.400 67.990 C 48.400 68.176,47.410 69.358,46.200 70.618 C 44.990 71.877,44.000 73.071,44.000 73.272 C 44.000 73.472,43.595 74.070,43.100 74.599 C 41.775 76.016,41.200 76.739,41.200 76.987 C 41.200 77.108,40.660 77.772,40.000 78.463 C 39.340 79.154,38.800 79.874,38.800 80.063 C 38.800 80.252,38.260 80.972,37.600 81.663 C 36.940 82.354,36.400 83.162,36.400 83.459 C 36.400 83.757,36.250 84.000,36.068 84.000 C 35.885 84.000,35.481 84.495,35.170 85.100 C 34.860 85.705,34.289 86.491,33.903 86.847 C 33.516 87.203,33.200 87.748,33.200 88.059 C 33.200 88.369,32.840 88.883,32.400 89.200 C 31.960 89.517,31.600 90.057,31.600 90.400 C 31.600 90.743,31.240 91.283,30.800 91.600 C 30.360 91.917,30.000 92.329,30.000 92.516 C 30.000 92.703,29.460 93.641,28.800 94.600 C 28.140 95.559,27.600 96.522,27.600 96.739 C 27.600 96.956,27.465 97.193,27.300 97.267 C 26.826 97.477,24.800 101.438,24.800 102.154 C 24.800 102.509,24.620 102.800,24.400 102.800 C 24.180 102.800,24.000 103.036,24.000 103.325 C 24.000 103.613,23.640 104.236,23.200 104.708 C 22.760 105.180,22.400 105.829,22.400 106.150 C 22.400 106.471,22.175 106.814,21.900 106.913 C 21.367 107.104,21.978 107.739,25.200 110.345 C 26.190 111.145,27.090 111.899,27.200 112.019 C 27.310 112.139,29.290 113.757,31.600 115.614 C 33.910 117.471,36.160 119.295,36.600 119.668 C 37.407 120.352,46.085 127.438,48.946 129.750 C 49.797 130.438,52.407 132.577,54.746 134.505 C 57.086 136.432,60.170 138.962,61.600 140.127 C 63.030 141.292,66.270 143.954,68.800 146.043 C 72.409 149.022,83.309 157.894,87.666 161.399 C 88.466 162.042,88.800 161.787,88.800 160.533 C 88.800 160.020,88.980 159.600,89.200 159.600 C 89.420 159.600,89.600 159.274,89.600 158.875 C 89.600 158.476,89.975 157.374,90.433 156.426 C 90.891 155.477,91.365 154.094,91.485 153.351 C 91.606 152.608,91.861 152.000,92.052 152.000 C 92.244 152.000,92.400 151.640,92.400 151.200 C 92.400 150.760,92.580 150.400,92.800 150.400 C 93.020 150.400,93.200 150.040,93.200 149.600 C 93.200 149.160,93.380 148.800,93.600 148.800 C 93.820 148.800,94.000 148.440,94.000 148.000 C 94.000 147.560,94.180 147.200,94.400 147.200 C 94.620 147.200,94.800 146.840,94.800 146.400 C 94.800 145.960,94.980 145.600,95.200 145.600 C 95.420 145.600,95.600 145.240,95.600 144.800 C 95.600 144.360,95.780 144.000,96.000 144.000 C 96.220 144.000,96.400 143.706,96.400 143.347 C 96.400 142.988,96.729 142.403,97.130 142.047 C 97.532 141.691,98.116 140.815,98.428 140.100 C 98.740 139.385,99.131 138.800,99.298 138.800 C 99.464 138.800,99.600 138.530,99.600 138.200 C 99.600 137.870,99.780 137.600,100.000 137.600 C 100.220 137.600,100.400 137.330,100.400 137.000 C 100.400 136.670,100.580 136.400,100.800 136.400 C 101.020 136.400,101.200 136.164,101.200 135.875 C 101.200 135.587,101.560 134.964,102.000 134.492 C 102.440 134.020,102.800 133.491,102.801 133.317 C 102.801 133.143,103.341 132.370,104.000 131.600 C 104.659 130.830,105.199 130.041,105.199 129.847 C 105.200 129.653,105.524 129.203,105.919 128.847 C 106.314 128.491,107.070 127.570,107.598 126.800 C 108.562 125.395,109.426 124.354,111.100 122.587 C 111.595 122.064,112.000 121.536,112.000 121.414 C 112.000 121.133,121.118 112.000,121.399 112.000 C 121.513 112.000,122.100 111.561,122.703 111.024 C 123.307 110.487,124.520 109.407,125.400 108.624 C 126.280 107.841,127.127 107.200,127.282 107.200 C 127.437 107.200,127.977 106.795,128.482 106.300 C 128.987 105.805,129.895 105.145,130.500 104.832 C 131.105 104.520,131.600 104.115,131.600 103.932 C 131.600 103.750,131.843 103.600,132.141 103.600 C 132.438 103.600,133.246 103.060,133.937 102.400 C 134.628 101.740,135.464 101.200,135.796 101.200 C 136.128 101.200,136.400 101.020,136.400 100.800 C 136.400 100.580,136.670 100.400,137.000 100.400 C 137.330 100.400,137.600 100.220,137.600 100.000 C 137.600 99.780,137.870 99.600,138.200 99.600 C 138.530 99.600,138.800 99.464,138.800 99.298 C 138.800 99.131,139.385 98.740,140.100 98.428 C 140.815 98.116,141.691 97.532,142.047 97.130 C 142.403 96.729,142.988 96.400,143.347 96.400 C 143.706 96.400,144.000 96.220,144.000 96.000 C 144.000 95.780,144.360 95.600,144.800 95.600 C 145.240 95.600,145.600 95.420,145.600 95.200 C 145.600 94.980,145.960 94.800,146.400 94.800 C 146.840 94.800,147.200 94.620,147.200 94.400 C 147.200 94.180,147.560 94.000,148.000 94.000 C 148.440 94.000,148.800 93.820,148.800 93.600 C 148.800 93.380,149.160 93.200,149.600 93.200 C 150.040 93.200,150.400 93.020,150.400 92.800 C 150.400 92.580,150.760 92.400,151.200 92.400 C 151.640 92.400,152.000 92.261,152.000 92.091 C 152.000 91.921,152.765 91.587,153.700 91.350 C 156.014 90.761,159.370 89.467,159.533 89.100 C 159.607 88.935,160.192 88.800,160.833 88.800 C 161.475 88.800,162.000 88.620,162.000 88.400 C 162.000 88.180,162.540 88.000,163.200 88.000 C 163.860 88.000,164.400 87.820,164.400 87.600 C 164.400 87.380,164.940 87.200,165.600 87.200 C 166.260 87.200,166.800 87.020,166.800 86.800 C 166.800 86.580,167.419 86.400,168.176 86.400 C 168.933 86.400,169.664 86.220,169.800 86.000 C 169.936 85.780,170.566 85.600,171.200 85.600 C 171.834 85.600,172.464 85.420,172.600 85.200 C 172.736 84.980,173.557 84.800,174.424 84.800 C 175.291 84.800,176.000 84.620,176.000 84.400 C 176.000 84.180,176.889 84.000,177.976 84.000 C 179.063 84.000,180.064 83.820,180.200 83.600 C 180.336 83.380,181.607 83.200,183.024 83.200 C 184.475 83.200,185.600 83.025,185.600 82.800 C 185.600 82.558,187.325 82.400,189.976 82.400 C 192.463 82.400,194.460 82.227,194.600 82.000 C 194.932 81.463,205.200 81.463,205.200 82.000 C 205.200 82.243,207.000 82.400,209.800 82.400 C 212.600 82.400,214.400 82.557,214.400 82.800 C 214.400 83.025,215.525 83.200,216.976 83.200 C 218.393 83.200,219.664 83.380,219.800 83.600 C 219.936 83.820,220.937 84.000,222.024 84.000 C 223.111 84.000,224.000 84.180,224.000 84.400 C 224.000 84.620,224.720 84.800,225.600 84.800 C 226.480 84.800,227.200 84.980,227.200 85.200 C 227.200 85.420,227.819 85.600,228.576 85.600 C 229.333 85.600,230.064 85.780,230.200 86.000 C 230.336 86.220,231.067 86.400,231.824 86.400 C 232.581 86.400,233.200 86.580,233.200 86.800 C 233.200 87.020,233.740 87.200,234.400 87.200 C 235.060 87.200,235.600 87.380,235.600 87.600 C 235.600 87.820,236.140 88.000,236.800 88.000 C 237.460 88.000,238.000 88.180,238.000 88.400 C 238.000 88.620,238.525 88.800,239.167 88.800 C 239.808 88.800,240.393 88.935,240.467 89.100 C 240.630 89.467,243.986 90.761,246.300 91.350 C 247.235 91.587,248.000 91.921,248.000 92.091 C 248.000 92.261,248.360 92.400,248.800 92.400 C 249.240 92.400,249.600 92.580,249.600 92.800 C 249.600 93.020,249.960 93.200,250.400 93.200 C 250.840 93.200,251.200 93.380,251.200 93.600 C 251.200 93.820,251.560 94.000,252.000 94.000 C 252.440 94.000,252.800 94.180,252.800 94.400 C 252.800 94.620,253.160 94.800,253.600 94.800 C 254.040 94.800,254.400 94.980,254.400 95.200 C 254.400 95.420,254.760 95.600,255.200 95.600 C 255.640 95.600,256.000 95.780,256.000 96.000 C 256.000 96.220,256.294 96.400,256.653 96.400 C 257.012 96.400,257.597 96.729,257.953 97.130 C 258.309 97.532,259.185 98.116,259.900 98.428 C 260.615 98.740,261.200 99.131,261.200 99.298 C 261.200 100.341,264.110 99.492,265.648 98.000 C 266.555 97.120,267.469 96.400,267.680 96.400 C 267.890 96.400,268.754 95.680,269.600 94.800 C 270.446 93.920,271.286 93.200,271.469 93.199 C 271.651 93.199,272.430 92.646,273.200 91.971 C 273.970 91.296,275.230 90.262,276.000 89.673 C 276.770 89.084,277.877 88.107,278.460 87.501 C 279.044 86.896,279.697 86.400,279.912 86.400 C 280.127 86.400,281.000 85.724,281.852 84.898 C 282.703 84.072,284.030 82.954,284.800 82.413 C 285.570 81.873,286.677 80.929,287.260 80.315 C 287.844 79.702,288.519 79.200,288.760 79.200 C 289.002 79.200,289.200 79.050,289.200 78.868 C 289.200 78.685,289.647 78.296,290.193 78.004 C 290.740 77.711,291.278 77.186,291.389 76.836 C 291.500 76.486,292.135 75.959,292.799 75.664 C 293.464 75.370,294.741 74.425,295.637 73.565 C 296.532 72.704,297.425 72.000,297.619 72.000 C 297.814 72.000,298.564 71.412,299.287 70.693 C 300.009 69.975,301.230 68.947,302.000 68.409 C 302.770 67.871,303.877 66.929,304.460 66.315 C 305.044 65.702,305.719 65.200,305.960 65.200 C 306.202 65.200,306.400 65.050,306.400 64.868 C 306.400 64.685,306.847 64.296,307.393 64.004 C 307.940 63.711,308.492 63.141,308.620 62.736 C 308.749 62.331,309.090 62.000,309.379 62.000 C 309.667 62.000,310.635 61.290,311.530 60.421 C 312.425 59.553,313.670 58.577,314.298 58.253 C 314.925 57.928,316.195 56.929,317.120 56.031 C 318.044 55.134,318.959 54.400,319.152 54.400 C 319.345 54.400,320.245 53.680,321.152 52.800 C 322.059 51.920,322.919 51.200,323.062 51.200 C 323.206 51.200,323.973 50.525,324.766 49.700 C 325.559 48.875,326.701 47.945,327.304 47.632 C 328.862 46.826,328.831 45.076,327.247 44.419 C 326.613 44.157,325.725 43.550,325.275 43.071 C 324.257 41.989,323.303 41.200,323.013 41.200 C 322.892 41.200,322.228 40.660,321.537 40.000 C 320.846 39.340,320.126 38.800,319.937 38.800 C 319.748 38.800,319.028 38.260,318.337 37.600 C 317.646 36.940,316.878 36.400,316.629 36.400 C 316.380 36.400,315.917 36.040,315.600 35.600 C 315.283 35.160,314.743 34.800,314.400 34.800 C 314.057 34.800,313.517 34.440,313.200 34.000 C 312.883 33.560,312.343 33.200,312.000 33.200 C 311.657 33.200,311.117 32.840,310.800 32.400 C 310.483 31.960,309.943 31.600,309.600 31.600 C 309.257 31.600,308.717 31.240,308.400 30.800 C 308.083 30.360,307.518 30.000,307.145 30.000 C 306.772 30.000,306.407 29.865,306.333 29.700 C 306.131 29.245,303.690 27.600,303.216 27.600 C 302.987 27.600,302.800 27.390,302.800 27.133 C 302.800 26.877,302.695 26.771,302.567 26.899 C 302.440 27.027,301.675 26.684,300.867 26.136 C 300.060 25.588,298.905 25.041,298.300 24.920 C 297.695 24.799,297.200 24.543,297.200 24.350 C 297.200 24.157,296.964 24.000,296.675 24.000 C 296.387 24.000,295.764 23.640,295.292 23.200 C 294.820 22.760,294.156 22.400,293.817 22.400 C 293.478 22.400,293.200 22.220,293.200 22.000 C 293.200 21.780,292.840 21.600,292.400 21.600 C 291.960 21.600,291.600 21.420,291.600 21.200 C 291.600 20.980,291.240 20.800,290.800 20.800 C 290.360 20.800,290.000 20.620,290.000 20.400 C 290.000 20.180,289.655 20.000,289.233 20.000 C 288.812 20.000,288.407 19.865,288.333 19.700 C 288.112 19.201,284.778 17.600,283.962 17.600 C 283.543 17.600,283.200 17.420,283.200 17.200 C 283.200 16.980,282.840 16.800,282.400 16.800 C 281.960 16.800,281.600 16.620,281.600 16.400 C 281.600 16.180,281.240 16.000,280.800 16.000 C 280.360 16.000,280.000 15.820,280.000 15.600 C 280.000 15.380,279.651 15.200,279.224 15.200 C 278.797 15.200,278.336 15.020,278.200 14.800 C 278.064 14.580,277.513 14.400,276.976 14.400 C 276.439 14.400,276.000 14.220,276.000 14.000 C 276.000 13.780,275.728 13.600,275.395 13.600 C 275.062 13.600,274.477 13.441,274.095 13.247 C 273.713 13.052,272.905 12.692,272.300 12.447 C 271.695 12.201,270.795 11.827,270.300 11.615 C 268.047 10.652,260.688 8.400,259.794 8.400 C 259.247 8.400,258.800 8.220,258.800 8.000 C 258.800 7.780,258.170 7.600,257.400 7.600 C 256.630 7.600,256.000 7.420,256.000 7.200 C 256.000 6.980,255.460 6.800,254.800 6.800 C 254.140 6.800,253.600 6.620,253.600 6.400 C 253.600 6.180,252.880 6.000,252.000 6.000 C 251.120 6.000,250.400 5.820,250.400 5.600 C 250.400 5.380,249.680 5.200,248.800 5.200 C 247.920 5.200,247.200 5.020,247.200 4.800 C 247.200 4.580,246.401 4.400,245.424 4.400 C 244.447 4.400,243.536 4.220,243.400 4.000 C 243.264 3.780,242.454 3.600,241.600 3.600 C 240.746 3.600,239.936 3.420,239.800 3.200 C 239.664 2.980,238.753 2.800,237.776 2.800 C 236.799 2.800,236.000 2.620,236.000 2.400 C 236.000 2.174,234.867 2.000,233.400 2.000 C 231.933 2.000,230.800 1.826,230.800 1.600 C 230.800 1.372,229.611 1.200,228.033 1.200 C 226.204 1.200,225.211 1.034,225.103 0.709 C 224.941 0.224,188.617 -0.116,178.700 0.275 " stroke="none" fill="#f44434" fill-rule="evenodd"></path><path id="path1" d="M88.800 241.905 C 88.470 242.018,87.300 242.863,86.200 243.784 C 85.100 244.705,81.770 247.423,78.800 249.823 C 75.830 252.224,71.773 255.541,69.785 257.194 C 67.796 258.847,63.849 262.090,61.012 264.400 C 58.175 266.710,53.666 270.400,50.991 272.600 C 48.316 274.800,42.814 279.297,38.764 282.594 C 34.714 285.891,30.950 288.978,30.400 289.455 C 27.607 291.875,23.858 294.800,23.549 294.800 C 22.934 294.800,23.175 295.823,24.000 296.708 C 24.440 297.180,24.800 297.760,24.800 297.997 C 24.800 298.629,26.843 302.578,27.251 302.733 C 27.443 302.807,27.600 303.044,27.600 303.261 C 27.600 303.478,28.140 304.441,28.800 305.400 C 29.460 306.359,30.000 307.297,30.000 307.484 C 30.000 307.671,30.360 308.083,30.800 308.400 C 31.240 308.717,31.600 309.257,31.600 309.600 C 31.600 309.943,31.960 310.483,32.400 310.800 C 32.840 311.117,33.200 311.657,33.200 312.000 C 33.200 312.343,33.560 312.883,34.000 313.200 C 34.440 313.517,34.800 314.057,34.800 314.400 C 34.800 314.743,35.160 315.283,35.600 315.600 C 36.040 315.917,36.400 316.380,36.400 316.629 C 36.400 316.878,36.940 317.646,37.600 318.337 C 38.260 319.028,38.800 319.748,38.800 319.937 C 38.800 320.126,39.340 320.846,40.000 321.537 C 40.660 322.228,41.200 322.892,41.200 323.013 C 41.200 323.264,41.505 323.650,43.199 325.542 C 43.859 326.281,44.400 327.029,44.400 327.206 C 44.400 327.383,45.390 328.558,46.600 329.818 C 47.810 331.077,48.800 332.269,48.800 332.466 C 48.800 332.664,50.825 334.806,53.300 337.226 C 55.775 339.647,57.980 341.812,58.200 342.038 C 63.186 347.156,67.744 351.600,68.008 351.600 C 68.194 351.600,69.271 352.500,70.400 353.600 C 71.529 354.700,72.599 355.600,72.776 355.600 C 72.954 355.600,73.887 356.320,74.849 357.200 C 75.812 358.080,76.736 358.800,76.903 358.800 C 77.071 358.800,77.772 359.340,78.463 360.000 C 79.154 360.660,79.874 361.200,80.063 361.200 C 80.252 361.200,80.972 361.740,81.663 362.400 C 82.354 363.060,83.122 363.600,83.371 363.600 C 83.620 363.600,84.083 363.960,84.400 364.400 C 84.717 364.840,85.257 365.200,85.600 365.200 C 85.943 365.200,86.483 365.560,86.800 366.000 C 87.117 366.440,87.657 366.800,88.000 366.800 C 88.343 366.800,88.883 367.160,89.200 367.600 C 89.517 368.040,90.057 368.400,90.400 368.400 C 90.743 368.400,91.283 368.760,91.600 369.200 C 91.917 369.640,92.329 370.000,92.516 370.000 C 92.703 370.000,93.641 370.540,94.600 371.200 C 95.559 371.860,96.522 372.400,96.739 372.400 C 96.956 372.400,97.193 372.535,97.267 372.700 C 97.477 373.174,101.438 375.200,102.154 375.200 C 102.509 375.200,102.800 375.380,102.800 375.600 C 102.800 375.820,103.036 376.000,103.325 376.000 C 103.613 376.000,104.236 376.360,104.708 376.800 C 105.180 377.240,105.844 377.600,106.183 377.600 C 106.522 377.600,106.800 377.780,106.800 378.000 C 106.800 378.220,107.160 378.400,107.600 378.400 C 108.040 378.400,108.400 378.580,108.400 378.800 C 108.400 379.020,108.745 379.200,109.167 379.200 C 109.588 379.200,109.993 379.335,110.067 379.500 C 110.287 379.995,115.254 382.400,116.056 382.400 C 116.465 382.400,116.800 382.580,116.800 382.800 C 116.800 383.020,117.160 383.200,117.600 383.200 C 118.040 383.200,118.400 383.380,118.400 383.600 C 118.400 383.820,118.760 384.000,119.200 384.000 C 119.640 384.000,120.000 384.147,120.000 384.328 C 120.000 384.508,120.900 384.900,122.000 385.200 C 123.100 385.500,124.000 385.892,124.000 386.072 C 124.000 386.253,124.360 386.400,124.800 386.400 C 125.240 386.400,125.600 386.580,125.600 386.800 C 125.600 387.020,125.962 387.200,126.405 387.200 C 126.848 387.200,127.523 387.359,127.905 387.553 C 128.287 387.748,129.050 388.084,129.600 388.300 C 130.150 388.516,131.050 388.877,131.600 389.101 C 133.824 390.009,139.317 391.600,140.228 391.600 C 140.762 391.600,141.200 391.780,141.200 392.000 C 141.200 392.220,141.830 392.400,142.600 392.400 C 143.370 392.400,144.000 392.580,144.000 392.800 C 144.000 393.020,144.529 393.200,145.176 393.200 C 145.823 393.200,146.464 393.380,146.600 393.600 C 146.736 393.820,147.467 394.000,148.224 394.000 C 148.981 394.000,149.600 394.180,149.600 394.400 C 149.600 394.620,150.320 394.800,151.200 394.800 C 152.080 394.800,152.800 394.980,152.800 395.200 C 152.800 395.420,153.599 395.600,154.576 395.600 C 155.553 395.600,156.464 395.780,156.600 396.000 C 156.736 396.220,157.557 396.400,158.424 396.400 C 159.291 396.400,160.000 396.580,160.000 396.800 C 160.000 397.020,160.889 397.200,161.976 397.200 C 163.063 397.200,164.064 397.380,164.200 397.600 C 164.336 397.820,165.517 398.000,166.824 398.000 C 168.141 398.000,169.200 398.178,169.200 398.400 C 169.200 398.628,170.389 398.800,171.967 398.800 C 173.824 398.800,174.788 398.964,174.900 399.300 C 175.031 399.693,180.409 399.800,200.000 399.800 C 219.591 399.800,224.969 399.693,225.100 399.300 C 225.212 398.964,226.176 398.800,228.033 398.800 C 229.611 398.800,230.800 398.628,230.800 398.400 C 230.800 398.178,231.859 398.000,233.176 398.000 C 234.483 398.000,235.664 397.820,235.800 397.600 C 235.936 397.380,236.836 397.200,237.800 397.200 C 238.764 397.200,239.664 397.020,239.800 396.800 C 239.936 396.580,240.836 396.400,241.800 396.400 C 242.764 396.400,243.664 396.220,243.800 396.000 C 243.936 395.780,244.757 395.600,245.624 395.600 C 246.491 395.600,247.200 395.420,247.200 395.200 C 247.200 394.980,247.920 394.800,248.800 394.800 C 249.680 394.800,250.400 394.620,250.400 394.400 C 250.400 394.180,251.019 394.000,251.776 394.000 C 252.533 394.000,253.264 393.820,253.400 393.600 C 253.536 393.380,254.177 393.200,254.824 393.200 C 255.471 393.200,256.000 393.020,256.000 392.800 C 256.000 392.580,256.630 392.400,257.400 392.400 C 258.170 392.400,258.800 392.220,258.800 392.000 C 258.800 391.780,259.238 391.600,259.772 391.600 C 260.759 391.600,266.823 389.823,268.095 389.161 C 268.477 388.963,269.062 388.800,269.395 388.800 C 269.728 388.800,270.000 388.620,270.000 388.400 C 270.000 388.180,270.439 388.000,270.976 388.000 C 271.513 388.000,272.064 387.820,272.200 387.600 C 272.336 387.380,272.887 387.200,273.424 387.200 C 273.961 387.200,274.400 387.020,274.400 386.800 C 274.400 386.580,274.760 386.400,275.200 386.400 C 275.640 386.400,276.000 386.220,276.000 386.000 C 276.000 385.780,276.439 385.600,276.976 385.600 C 277.513 385.600,278.064 385.420,278.200 385.200 C 278.336 384.980,278.797 384.800,279.224 384.800 C 279.651 384.800,280.000 384.620,280.000 384.400 C 280.000 384.180,280.360 384.000,280.800 384.000 C 281.240 384.000,281.600 383.820,281.600 383.600 C 281.600 383.380,282.050 383.200,282.600 383.200 C 283.150 383.200,283.600 383.020,283.600 382.800 C 283.600 382.580,283.825 382.401,284.100 382.403 C 284.733 382.407,291.354 379.112,291.533 378.704 C 291.607 378.537,292.012 378.400,292.433 378.400 C 292.855 378.400,293.200 378.220,293.200 378.000 C 293.200 377.780,293.478 377.600,293.817 377.600 C 294.156 377.600,294.820 377.240,295.292 376.800 C 295.764 376.360,296.387 376.000,296.675 376.000 C 296.964 376.000,297.200 375.843,297.200 375.650 C 297.200 375.457,297.755 375.189,298.434 375.053 C 299.112 374.918,300.175 374.445,300.795 374.003 C 301.416 373.561,302.121 373.200,302.362 373.200 C 302.603 373.200,302.800 373.020,302.800 372.800 C 302.800 372.580,302.993 372.400,303.228 372.400 C 303.463 372.400,304.441 371.860,305.400 371.200 C 306.359 370.540,307.297 370.000,307.484 370.000 C 307.671 370.000,308.083 369.640,308.400 369.200 C 308.717 368.760,309.257 368.400,309.600 368.400 C 309.943 368.400,310.483 368.040,310.800 367.600 C 311.117 367.160,311.657 366.800,312.000 366.800 C 312.343 366.800,312.883 366.440,313.200 366.000 C 313.517 365.560,314.057 365.200,314.400 365.200 C 314.743 365.200,315.283 364.840,315.600 364.400 C 315.917 363.960,316.380 363.600,316.629 363.600 C 316.878 363.600,317.646 363.060,318.337 362.400 C 319.028 361.740,319.748 361.200,319.937 361.200 C 320.126 361.200,320.846 360.660,321.537 360.000 C 322.228 359.340,322.929 358.794,323.096 358.787 C 325.423 358.685,325.535 356.367,323.300 354.562 C 322.255 353.718,321.310 352.921,321.200 352.792 C 321.090 352.662,318.750 350.729,316.000 348.496 C 308.993 342.806,300.895 336.199,299.000 334.626 C 298.120 333.895,295.150 331.463,292.400 329.222 C 289.650 326.980,287.037 324.843,286.594 324.473 C 284.802 322.978,281.366 320.164,280.643 319.600 C 280.221 319.270,279.228 318.449,278.437 317.776 C 277.647 317.102,275.020 314.947,272.600 312.985 C 270.180 311.024,268.110 309.323,268.000 309.204 C 267.890 309.086,266.045 307.574,263.900 305.845 C 261.755 304.116,260.000 302.544,260.000 302.351 C 260.000 301.683,258.574 302.003,258.000 302.800 C 257.683 303.240,257.103 303.600,256.712 303.600 C 256.320 303.600,256.000 303.780,256.000 304.000 C 256.000 304.220,255.640 304.400,255.200 304.400 C 254.760 304.400,254.400 304.580,254.400 304.800 C 254.400 305.020,254.040 305.200,253.600 305.200 C 253.160 305.200,252.800 305.380,252.800 305.600 C 252.800 305.820,252.440 306.000,252.000 306.000 C 251.560 306.000,251.200 306.180,251.200 306.400 C 251.200 306.620,250.840 306.800,250.400 306.800 C 249.960 306.800,249.600 306.980,249.600 307.200 C 249.600 307.420,249.240 307.600,248.800 307.600 C 248.360 307.600,248.000 307.739,248.000 307.909 C 248.000 308.079,247.235 308.413,246.300 308.650 C 243.986 309.239,240.630 310.533,240.467 310.900 C 240.393 311.065,239.808 311.200,239.167 311.200 C 238.525 311.200,238.000 311.380,238.000 311.600 C 238.000 311.820,237.460 312.000,236.800 312.000 C 236.140 312.000,235.600 312.180,235.600 312.400 C 235.600 312.620,235.060 312.800,234.400 312.800 C 233.740 312.800,233.200 312.980,233.200 313.200 C 233.200 313.420,232.581 313.600,231.824 313.600 C 231.067 313.600,230.336 313.780,230.200 314.000 C 230.064 314.220,229.434 314.400,228.800 314.400 C 228.166 314.400,227.536 314.580,227.400 314.800 C 227.264 315.020,226.443 315.200,225.576 315.200 C 224.709 315.200,224.000 315.380,224.000 315.600 C 224.000 315.820,223.111 316.000,222.024 316.000 C 220.937 316.000,219.936 316.180,219.800 316.400 C 219.664 316.620,218.393 316.800,216.976 316.800 C 215.525 316.800,214.400 316.975,214.400 317.200 C 214.400 317.443,212.600 317.600,209.800 317.600 C 207.000 317.600,205.200 317.757,205.200 318.000 C 205.200 318.246,203.200 318.400,200.000 318.400 C 196.800 318.400,194.800 318.246,194.800 318.000 C 194.800 317.757,193.000 317.600,190.200 317.600 C 187.400 317.600,185.600 317.443,185.600 317.200 C 185.600 316.978,184.541 316.800,183.224 316.800 C 181.917 316.800,180.736 316.620,180.600 316.400 C 180.464 316.180,179.373 316.000,178.176 316.000 C 176.979 316.000,176.000 315.820,176.000 315.600 C 176.000 315.380,175.280 315.200,174.400 315.200 C 173.520 315.200,172.800 315.020,172.800 314.800 C 172.800 314.580,172.181 314.400,171.424 314.400 C 170.667 314.400,169.936 314.220,169.800 314.000 C 169.664 313.780,168.933 313.600,168.176 313.600 C 167.419 313.600,166.800 313.420,166.800 313.200 C 166.800 312.980,166.260 312.800,165.600 312.800 C 164.940 312.800,164.400 312.620,164.400 312.400 C 164.400 312.180,163.860 312.000,163.200 312.000 C 162.540 312.000,162.000 311.820,162.000 311.600 C 162.000 311.380,161.475 311.200,160.833 311.200 C 160.192 311.200,159.607 311.065,159.533 310.900 C 159.370 310.533,156.014 309.239,153.700 308.650 C 152.765 308.413,152.000 308.079,152.000 307.909 C 152.000 307.739,151.640 307.600,151.200 307.600 C 150.760 307.600,150.400 307.420,150.400 307.200 C 150.400 306.980,150.040 306.800,149.600 306.800 C 149.160 306.800,148.800 306.620,148.800 306.400 C 148.800 306.180,148.440 306.000,148.000 306.000 C 147.560 306.000,147.200 305.820,147.200 305.600 C 147.200 305.380,146.840 305.200,146.400 305.200 C 145.960 305.200,145.600 305.020,145.600 304.800 C 145.600 304.580,145.240 304.400,144.800 304.400 C 144.360 304.400,144.000 304.220,144.000 304.000 C 144.000 303.780,143.706 303.600,143.347 303.600 C 142.988 303.600,142.403 303.284,142.047 302.897 C 141.691 302.511,140.860 301.926,140.200 301.597 C 139.540 301.269,138.651 300.685,138.225 300.300 C 137.798 299.915,137.213 299.600,136.925 299.600 C 136.636 299.600,136.400 299.420,136.400 299.200 C 136.400 298.980,136.175 298.800,135.900 298.800 C 135.625 298.799,134.877 298.349,134.238 297.800 C 133.599 297.250,132.932 296.800,132.756 296.800 C 132.580 296.800,131.986 296.350,131.436 295.800 C 130.886 295.250,130.249 294.800,130.019 294.800 C 129.790 294.800,128.934 294.170,128.118 293.400 C 127.301 292.630,126.445 292.000,126.214 292.000 C 125.983 292.000,125.248 291.415,124.580 290.700 C 123.913 289.985,122.756 288.950,122.010 288.400 C 120.492 287.280,112.000 278.957,112.000 278.589 C 112.000 278.459,111.293 277.599,110.429 276.677 C 109.566 275.754,108.371 274.280,107.774 273.400 C 107.178 272.520,106.355 271.509,105.945 271.153 C 105.535 270.797,105.200 270.252,105.200 269.941 C 105.200 269.631,104.840 269.117,104.400 268.800 C 103.960 268.483,103.600 268.038,103.599 267.812 C 103.599 267.585,103.059 266.770,102.400 266.000 C 101.741 265.230,101.201 264.375,101.201 264.100 C 101.200 263.825,101.020 263.600,100.800 263.600 C 100.580 263.600,100.400 263.364,100.400 263.075 C 100.400 262.787,100.085 262.202,99.700 261.775 C 99.315 261.349,98.731 260.460,98.403 259.800 C 98.074 259.140,97.489 258.309,97.103 257.953 C 96.716 257.597,96.400 257.012,96.400 256.653 C 96.400 256.294,96.220 256.000,96.000 256.000 C 95.780 256.000,95.600 255.640,95.600 255.200 C 95.600 254.760,95.420 254.400,95.200 254.400 C 94.980 254.400,94.800 254.040,94.800 253.600 C 94.800 253.160,94.620 252.800,94.400 252.800 C 94.180 252.800,94.000 252.440,94.000 252.000 C 94.000 251.560,93.820 251.200,93.600 251.200 C 93.380 251.200,93.200 250.840,93.200 250.400 C 93.200 249.960,93.020 249.600,92.800 249.600 C 92.580 249.600,92.400 249.240,92.400 248.800 C 92.400 248.360,92.220 248.000,92.000 248.000 C 91.780 248.000,91.600 247.647,91.600 247.215 C 91.600 245.128,89.732 241.586,88.800 241.905 " stroke="none" fill="#2cb343" fill-rule="evenodd"></path><path id="path2" d="M21.300 108.198 C 21.025 108.511,20.800 109.044,20.800 109.383 C 20.800 109.722,20.665 110.001,20.500 110.003 C 20.141 110.007,19.200 111.944,19.200 112.680 C 19.200 112.966,19.064 113.200,18.898 113.200 C 18.731 113.200,18.360 113.785,18.071 114.500 C 17.783 115.215,17.379 116.113,17.174 116.495 C 16.968 116.877,16.800 117.462,16.800 117.795 C 16.800 118.128,16.620 118.400,16.400 118.400 C 16.180 118.400,16.000 118.665,16.000 118.988 C 16.000 119.311,15.640 120.217,15.200 121.000 C 14.760 121.783,14.400 122.779,14.400 123.212 C 14.400 123.645,14.220 124.000,14.000 124.000 C 13.780 124.000,13.600 124.279,13.600 124.619 C 13.600 124.960,13.240 125.984,12.800 126.894 C 12.360 127.805,12.000 128.876,12.000 129.275 C 12.000 129.674,11.820 130.000,11.600 130.000 C 11.380 130.000,11.200 130.362,11.200 130.805 C 11.200 131.248,11.041 131.923,10.847 132.305 C 9.779 134.404,8.400 138.866,8.400 140.222 C 8.400 140.734,8.220 141.264,8.000 141.400 C 7.780 141.536,7.600 142.166,7.600 142.800 C 7.600 143.434,7.420 144.064,7.200 144.200 C 6.980 144.336,6.800 144.876,6.800 145.400 C 6.800 145.924,6.620 146.464,6.400 146.600 C 6.180 146.736,6.000 147.456,6.000 148.200 C 6.000 148.944,5.820 149.664,5.600 149.800 C 5.380 149.936,5.200 150.667,5.200 151.424 C 5.200 152.181,5.020 152.800,4.800 152.800 C 4.580 152.800,4.400 153.509,4.400 154.376 C 4.400 155.243,4.220 156.064,4.000 156.200 C 3.780 156.336,3.600 157.247,3.600 158.224 C 3.600 159.201,3.420 160.000,3.200 160.000 C 2.980 160.000,2.800 160.990,2.800 162.200 C 2.800 163.410,2.620 164.400,2.400 164.400 C 2.180 164.400,2.000 165.379,2.000 166.576 C 2.000 167.773,1.820 168.864,1.600 169.000 C 1.380 169.136,1.200 170.482,1.200 171.990 C 1.200 173.829,1.035 174.788,0.700 174.900 C -0.032 175.144,-0.032 224.856,0.700 225.100 C 1.035 225.212,1.200 226.171,1.200 228.010 C 1.200 229.518,1.380 230.864,1.600 231.000 C 1.820 231.136,2.000 232.216,2.000 233.400 C 2.000 234.584,2.180 235.664,2.400 235.800 C 2.620 235.936,2.800 236.811,2.800 237.744 C 2.800 238.677,2.962 239.611,3.159 239.820 C 3.492 240.173,3.648 240.984,4.253 245.500 C 4.378 246.435,4.642 247.200,4.840 247.200 C 5.038 247.200,5.200 247.920,5.200 248.800 C 5.200 249.680,5.380 250.400,5.600 250.400 C 5.820 250.400,6.000 251.030,6.000 251.800 C 6.000 252.570,6.180 253.200,6.400 253.200 C 6.620 253.200,6.800 253.830,6.800 254.600 C 6.800 255.370,6.980 256.000,7.200 256.000 C 7.420 256.000,7.600 256.529,7.600 257.176 C 7.600 257.823,7.780 258.464,8.000 258.600 C 8.220 258.736,8.400 259.278,8.400 259.804 C 8.400 260.967,11.250 269.746,11.688 269.933 C 11.860 270.007,12.000 270.414,12.000 270.839 C 12.000 271.263,12.180 271.968,12.400 272.405 C 12.620 272.842,12.980 273.558,13.200 273.995 C 13.420 274.432,13.600 275.062,13.600 275.395 C 13.600 275.728,13.747 276.000,13.928 276.000 C 14.108 276.000,14.500 276.900,14.800 278.000 C 15.100 279.100,15.492 280.000,15.672 280.000 C 15.853 280.000,16.000 280.360,16.000 280.800 C 16.000 281.240,16.180 281.600,16.400 281.600 C 16.620 281.600,16.800 281.853,16.800 282.162 C 16.800 282.471,17.139 283.416,17.553 284.262 C 17.967 285.108,18.732 286.700,19.253 287.800 C 19.774 288.900,20.335 289.860,20.500 289.933 C 20.665 290.007,20.800 290.412,20.800 290.833 C 20.800 291.255,20.938 291.600,21.106 291.600 C 21.274 291.600,21.723 292.320,22.104 293.200 C 23.100 295.497,23.781 295.190,30.400 289.455 C 30.950 288.978,34.714 285.891,38.764 282.594 C 42.814 279.297,48.316 274.800,50.991 272.600 C 53.666 270.400,58.175 266.710,61.012 264.400 C 63.849 262.090,67.796 258.847,69.785 257.194 C 71.773 255.541,75.830 252.224,78.800 249.823 C 81.770 247.423,85.100 244.709,86.200 243.793 C 87.300 242.877,88.515 242.014,88.900 241.876 C 89.638 241.611,89.884 240.400,89.200 240.400 C 88.980 240.400,88.800 239.961,88.800 239.424 C 88.800 238.887,88.620 238.336,88.400 238.200 C 88.180 238.064,88.000 237.423,88.000 236.776 C 88.000 236.129,87.820 235.600,87.600 235.600 C 87.380 235.600,87.200 235.161,87.200 234.624 C 87.200 234.087,87.040 233.548,86.844 233.427 C 86.649 233.306,86.379 232.576,86.244 231.804 C 86.110 231.032,85.890 229.768,85.756 228.996 C 85.621 228.224,85.351 227.494,85.156 227.373 C 84.960 227.252,84.800 226.443,84.800 225.576 C 84.800 224.709,84.620 224.000,84.400 224.000 C 84.180 224.000,84.000 223.111,84.000 222.024 C 84.000 220.937,83.820 219.936,83.600 219.800 C 83.380 219.664,83.200 218.494,83.200 217.200 C 83.200 215.906,83.020 214.736,82.800 214.600 C 82.575 214.461,82.400 212.537,82.400 210.200 C 82.400 207.863,82.225 205.939,82.000 205.800 C 81.766 205.655,81.600 203.337,81.600 200.200 C 81.600 197.063,81.766 194.745,82.000 194.600 C 82.227 194.460,82.400 192.470,82.400 190.000 C 82.400 187.530,82.573 185.540,82.800 185.400 C 83.020 185.264,83.200 184.094,83.200 182.800 C 83.200 181.506,83.380 180.336,83.600 180.200 C 83.820 180.064,84.000 179.063,84.000 177.976 C 84.000 176.889,84.180 176.000,84.400 176.000 C 84.620 176.000,84.800 175.291,84.800 174.424 C 84.800 173.557,84.980 172.736,85.200 172.600 C 85.420 172.464,85.600 171.834,85.600 171.200 C 85.600 170.566,85.780 169.936,86.000 169.800 C 86.220 169.664,86.400 168.933,86.400 168.176 C 86.400 167.419,86.580 166.800,86.800 166.800 C 87.020 166.800,87.200 166.271,87.200 165.624 C 87.200 164.977,87.380 164.336,87.600 164.200 C 88.193 163.834,88.087 161.319,87.468 161.081 C 86.969 160.890,79.289 154.703,68.800 146.043 C 66.270 143.954,63.030 141.292,61.600 140.127 C 60.170 138.962,57.086 136.432,54.746 134.505 C 52.407 132.577,49.797 130.438,48.946 129.750 C 46.085 127.438,37.407 120.352,36.600 119.668 C 36.160 119.295,33.910 117.471,31.600 115.614 C 29.290 113.757,27.310 112.139,27.200 112.019 C 27.090 111.899,26.010 110.993,24.800 110.008 C 23.590 109.022,22.540 108.077,22.467 107.908 C 22.271 107.455,21.865 107.556,21.300 108.198 " stroke="none" fill="#fbbb04" fill-rule="evenodd"></path><path id="path3" d="M204.100 162.264 C 203.705 162.424,203.600 170.834,203.600 202.433 L 203.600 242.400 257.100 242.406 C 288.233 242.410,310.367 242.560,310.042 242.766 C 309.735 242.960,309.588 243.393,309.716 243.727 C 309.848 244.070,309.688 244.434,309.349 244.564 C 309.019 244.691,308.854 244.963,308.981 245.170 C 309.109 245.376,309.030 245.658,308.807 245.796 C 308.583 245.934,308.400 246.487,308.400 247.024 C 308.400 247.561,308.220 248.000,308.000 248.000 C 307.780 248.000,307.600 248.360,307.600 248.800 C 307.600 249.240,307.420 249.600,307.200 249.600 C 306.980 249.600,306.800 249.871,306.800 250.202 C 306.800 250.895,303.551 257.333,303.100 257.533 C 302.935 257.607,302.800 257.932,302.800 258.257 C 302.800 258.582,302.653 258.756,302.473 258.645 C 302.293 258.534,301.906 259.108,301.613 259.921 C 301.321 260.735,300.748 261.691,300.341 262.047 C 299.933 262.403,299.599 262.943,299.598 263.247 C 299.597 263.551,299.069 264.362,298.425 265.049 C 297.781 265.737,296.916 266.997,296.502 267.849 C 296.089 268.702,295.543 269.357,295.290 269.305 C 295.035 269.252,294.929 269.471,295.053 269.795 C 295.290 270.413,294.354 271.600,293.629 271.600 C 293.236 271.600,293.034 272.151,293.153 272.900 C 293.179 273.065,292.930 273.200,292.600 273.200 C 292.270 273.200,292.000 273.456,292.000 273.768 C 292.000 274.081,291.280 275.064,290.400 275.953 C 289.520 276.842,288.800 277.766,288.800 278.008 C 288.800 278.250,288.620 278.336,288.400 278.200 C 288.180 278.064,288.000 278.150,288.000 278.390 C 288.000 278.631,286.221 280.612,284.046 282.793 C 281.871 284.974,280.191 286.858,280.313 286.979 C 280.434 287.101,280.277 287.200,279.963 287.200 C 279.649 287.200,279.168 287.560,278.893 288.000 C 278.618 288.440,278.162 288.800,277.880 288.800 C 277.598 288.800,276.705 289.520,275.896 290.400 C 275.087 291.280,274.149 292.000,273.812 292.000 C 273.476 292.000,273.200 292.281,273.200 292.624 C 273.200 292.967,273.032 293.144,272.827 293.017 C 272.622 292.890,272.217 293.125,271.927 293.539 C 271.637 293.953,270.730 294.651,269.911 295.090 C 269.091 295.529,268.536 296.003,268.677 296.144 C 268.818 296.285,268.588 296.400,268.167 296.401 C 267.745 296.401,266.770 296.944,266.000 297.606 C 265.230 298.269,264.118 299.026,263.529 299.290 C 262.940 299.554,262.545 299.912,262.652 300.085 C 262.760 300.258,262.567 300.400,262.224 300.400 C 261.881 300.400,261.600 300.560,261.600 300.757 C 261.600 300.953,261.105 301.245,260.500 301.406 C 259.807 301.590,259.609 301.775,259.965 301.904 C 260.450 302.081,261.433 302.863,263.356 304.602 C 263.834 305.034,267.702 308.215,268.946 309.200 C 269.363 309.530,270.462 310.430,271.388 311.200 C 272.313 311.970,273.762 313.140,274.606 313.800 C 275.451 314.460,276.335 315.180,276.571 315.400 C 276.807 315.620,278.890 317.329,281.200 319.199 C 283.510 321.068,285.733 322.868,286.140 323.199 C 286.547 323.529,287.375 324.250,287.981 324.800 C 288.586 325.350,289.677 326.250,290.404 326.800 C 291.132 327.350,291.923 327.983,292.163 328.206 C 292.404 328.429,293.409 329.239,294.399 330.006 C 296.208 331.408,297.725 332.651,298.553 333.409 C 298.799 333.634,300.440 334.977,302.200 336.394 C 303.960 337.811,305.670 339.256,306.000 339.604 C 306.330 339.953,307.230 340.671,308.000 341.200 C 308.770 341.729,309.670 342.443,310.000 342.785 C 310.330 343.128,311.259 343.899,312.065 344.498 C 312.871 345.098,313.771 345.816,314.065 346.094 C 314.359 346.372,316.400 348.030,318.600 349.777 C 320.800 351.524,322.870 353.241,323.200 353.591 C 325.269 355.789,327.591 356.454,327.606 354.853 C 327.611 354.325,327.679 354.306,327.962 354.753 C 328.241 355.193,328.364 355.144,328.563 354.517 C 328.701 354.083,329.260 353.489,329.807 353.196 C 330.353 352.904,330.800 352.515,330.800 352.332 C 330.800 352.150,331.076 352.000,331.413 352.000 C 331.749 352.000,332.128 351.731,332.254 351.402 C 332.381 351.074,332.649 350.907,332.852 351.032 C 333.054 351.157,333.170 351.021,333.110 350.730 C 333.049 350.436,333.268 350.260,333.600 350.333 C 333.930 350.407,334.073 350.339,333.917 350.184 C 333.667 349.934,336.126 347.200,336.600 347.200 C 336.702 347.200,337.823 346.103,339.093 344.762 C 340.362 343.421,341.631 342.116,341.913 341.862 C 343.941 340.035,350.400 333.490,350.400 333.262 C 350.400 333.106,351.456 331.859,352.747 330.489 C 354.038 329.120,354.953 328.000,354.780 328.000 C 354.608 328.000,355.037 327.400,355.733 326.666 C 357.774 324.516,358.800 323.222,358.800 322.797 C 358.800 322.579,358.980 322.400,359.200 322.400 C 359.420 322.400,359.600 322.207,359.600 321.971 C 359.600 321.332,360.658 320.396,361.017 320.719 C 361.188 320.874,361.210 320.794,361.066 320.542 C 360.922 320.290,361.429 319.390,362.193 318.542 C 362.957 317.694,363.586 316.697,363.591 316.327 C 363.596 315.957,363.960 315.540,364.400 315.400 C 364.840 315.260,365.200 314.798,365.200 314.373 C 365.200 313.948,365.350 313.600,365.532 313.600 C 365.715 313.600,366.120 313.105,366.432 312.500 C 366.745 311.895,367.315 311.051,367.700 310.625 C 368.085 310.198,368.400 309.653,368.400 309.413 C 368.400 309.173,368.760 308.717,369.200 308.400 C 369.640 308.083,370.000 307.601,370.000 307.329 C 370.000 306.797,371.556 304.241,372.575 303.100 C 372.919 302.715,373.082 302.400,372.938 302.400 C 372.794 302.400,372.931 302.085,373.242 301.700 C 374.170 300.553,375.200 298.522,375.200 297.838 C 375.200 297.487,375.380 297.200,375.600 297.200 C 375.820 297.200,376.000 296.840,376.000 296.400 C 376.000 295.960,376.165 295.600,376.367 295.600 C 376.569 295.600,377.142 294.700,377.639 293.600 C 378.136 292.500,378.691 291.600,378.871 291.600 C 379.052 291.600,379.200 291.324,379.200 290.986 C 379.200 290.648,379.491 289.928,379.846 289.386 C 380.201 288.844,380.350 288.400,380.176 288.400 C 380.003 288.400,380.254 287.982,380.734 287.470 C 381.214 286.959,381.511 286.445,381.394 286.327 C 381.277 286.210,381.455 285.886,381.790 285.608 C 382.126 285.330,382.400 284.674,382.400 284.151 C 382.400 283.628,382.580 283.200,382.800 283.200 C 383.020 283.200,383.200 282.840,383.200 282.400 C 383.200 281.960,383.391 281.600,383.624 281.600 C 383.857 281.600,383.945 281.435,383.820 281.232 C 383.695 281.030,383.832 280.625,384.123 280.332 C 384.415 280.040,384.906 278.945,385.214 277.900 C 385.523 276.855,385.915 276.000,386.087 276.000 C 386.259 276.000,386.400 275.561,386.400 275.024 C 386.400 274.487,386.580 273.936,386.800 273.800 C 387.020 273.664,387.200 273.113,387.200 272.576 C 387.200 272.039,387.380 271.600,387.600 271.600 C 387.820 271.600,388.000 271.139,388.000 270.576 C 388.000 269.897,388.157 269.650,388.468 269.842 C 388.775 270.032,388.855 269.919,388.699 269.514 C 388.569 269.175,388.642 268.718,388.862 268.498 C 389.243 268.117,389.892 265.981,390.183 264.150 C 390.258 263.682,390.547 262.872,390.827 262.350 C 391.106 261.827,391.309 261.356,391.277 261.302 C 391.087 260.980,391.761 258.800,392.050 258.800 C 392.243 258.800,392.400 258.170,392.400 257.400 C 392.400 256.630,392.580 256.000,392.800 256.000 C 393.020 256.000,393.200 255.280,393.200 254.400 C 393.200 253.520,393.380 252.800,393.600 252.800 C 393.820 252.800,394.000 252.159,394.000 251.376 C 394.000 250.529,394.162 250.053,394.400 250.200 C 394.645 250.351,394.800 249.730,394.800 248.600 C 394.800 247.584,394.947 246.844,395.126 246.955 C 395.306 247.065,395.496 246.311,395.548 245.278 C 395.600 244.245,395.813 243.340,396.021 243.267 C 396.230 243.193,396.400 242.328,396.400 241.343 C 396.400 240.358,396.550 239.645,396.732 239.758 C 396.915 239.871,397.105 238.937,397.155 237.682 C 397.205 236.427,397.416 235.229,397.623 235.020 C 397.830 234.811,398.000 233.787,398.000 232.744 C 398.000 231.701,398.180 230.736,398.400 230.600 C 398.620 230.464,398.800 229.229,398.800 227.856 C 398.800 226.483,399.010 225.150,399.267 224.893 C 400.278 223.882,400.168 174.402,399.156 175.027 C 398.960 175.148,398.800 173.889,398.800 172.224 C 398.800 170.475,398.631 169.200,398.400 169.200 C 398.180 169.200,398.000 168.300,398.000 167.200 C 398.000 166.100,397.831 165.200,397.624 165.200 C 397.417 165.200,397.192 164.525,397.124 163.700 L 397.000 162.200 300.800 162.131 C 247.890 162.093,204.375 162.153,204.100 162.264 " stroke="none" fill="#548cfc" fill-rule="evenodd"></path><path id="path4" d="M295.421 269.177 C 295.034 269.604,294.812 270.189,294.927 270.477 C 295.089 270.880,295.144 270.869,295.168 270.431 C 295.186 270.119,295.498 269.534,295.862 269.131 C 296.226 268.729,296.434 268.400,296.324 268.400 C 296.214 268.400,295.808 268.750,295.421 269.177 M260.000 302.351 C 260.000 302.544,261.755 304.116,263.900 305.845 C 266.045 307.574,267.890 309.086,268.000 309.204 C 268.110 309.323,270.180 311.024,272.600 312.985 C 275.020 314.947,277.647 317.102,278.437 317.776 C 279.228 318.449,280.221 319.270,280.643 319.600 C 281.366 320.164,284.802 322.978,286.594 324.473 C 287.037 324.843,289.650 326.980,292.400 329.222 C 295.150 331.463,298.120 333.895,299.000 334.626 C 300.545 335.908,305.503 339.958,316.000 348.510 C 321.979 353.381,323.023 354.262,324.518 355.700 C 325.835 356.967,326.000 357.022,326.000 356.200 C 326.000 355.870,325.858 355.600,325.683 355.600 C 325.509 355.600,324.738 355.007,323.969 354.281 C 323.200 353.556,320.777 351.531,318.585 349.781 C 316.393 348.032,314.359 346.372,314.065 346.094 C 313.771 345.816,312.871 345.098,312.065 344.498 C 311.259 343.899,310.330 343.128,310.000 342.785 C 309.670 342.443,308.770 341.729,308.000 341.200 C 307.230 340.671,306.330 339.953,306.000 339.604 C 305.670 339.256,303.960 337.808,302.200 336.386 C 298.921 333.739,297.433 332.508,296.647 331.794 C 296.401 331.571,295.390 330.764,294.400 330.000 C 293.410 329.236,292.404 328.429,292.163 328.206 C 291.923 327.983,291.132 327.350,290.404 326.800 C 289.677 326.250,288.586 325.350,287.981 324.800 C 287.375 324.250,286.547 323.529,286.140 323.199 C 285.733 322.868,283.510 321.068,281.200 319.199 C 278.890 317.329,276.807 315.620,276.571 315.400 C 276.335 315.180,275.451 314.460,274.606 313.800 C 273.762 313.140,272.313 311.970,271.388 311.200 C 270.462 310.430,269.363 309.530,268.946 309.200 C 266.379 307.170,261.951 303.448,260.973 302.500 C 260.369 301.914,260.000 301.858,260.000 302.351 " stroke="none" fill="#4995d7" fill-rule="evenodd"></path></g></svg>