<?xml version="1.0" standalone="no"?>
<!DOCTYPE svg PUBLIC "-//W3C//DTD SVG 20010904//EN"
 "http://www.w3.org/TR/2001/REC-SVG-20010904/DTD/svg10.dtd">
<svg version="1.0" xmlns="http://www.w3.org/2000/svg"
 width="512.000000pt" height="512.000000pt" viewBox="0 0 512.000000 512.000000"
 preserveAspectRatio="xMidYMid meet">

<g transform="translate(0.000000,512.000000) scale(0.100000,-0.100000)"
fill="current" stroke="none">
<path d="M776 3977 c-109 -61 -106 -221 5 -277 38 -20 67 -20 1779 -20 1712 0
1741 0 1779 20 113 57 113 223 0 280 -38 20 -67 20 -1781 20 l-1743 0 -39 -23z"/>
<path d="M776 2697 c-109 -61 -106 -221 5 -277 38 -20 67 -20 1779 -20 1712 0
1741 0 1779 20 113 57 113 223 0 280 -38 20 -67 20 -1781 20 l-1743 0 -39 -23z"/>
<path d="M776 1417 c-109 -61 -106 -221 5 -277 38 -20 67 -20 1779 -20 1712 0
1741 0 1779 20 113 57 113 223 0 280 -38 20 -67 20 -1781 20 l-1743 0 -39 -23z"/>
</g>
</svg>
