<?xml version="1.0" standalone="no"?>
<!DOCTYPE svg PUBLIC "-//W3C//DTD SVG 20010904//EN"
 "http://www.w3.org/TR/2001/REC-SVG-20010904/DTD/svg10.dtd">
<svg version="1.0" xmlns="http://www.w3.org/2000/svg"
 width="512.000000pt" height="512.000000pt" viewBox="0 0 512.000000 512.000000"
 preserveAspectRatio="xMidYMid meet">

<g transform="translate(0.000000,512.000000) scale(0.100000,-0.100000)"
fill="#2db400" stroke="none">
<path d="M720 4730 c-141 -18 -257 -77 -366 -185 -88 -87 -121 -140 -162 -255
l-27 -75 -3 -1622 c-3 -1812 -7 -1695 69 -1853 54 -112 169 -229 280 -283 158
-78 -15 -72 2049 -72 2064 0 1890 -6 2050 72 109 52 222 168 279 283 74 152
71 78 71 1485 0 1407 3 1333 -71 1484 -32 64 -60 103 -118 161 -81 82 -147
124 -251 162 l-65 23 -905 5 -905 5 -210 315 c-161 241 -218 320 -245 335 -34
19 -55 20 -725 21 -379 1 -715 -2 -745 -6z m1514 -626 c156 -235 219 -320 245
-337 l36 -22 950 -5 950 -5 54 -30 c60 -33 110 -87 143 -154 l23 -46 0 -1280
0 -1280 -22 -47 c-32 -70 -94 -131 -166 -164 l-62 -29 -1825 0 -1825 0 -56 26
c-76 36 -133 90 -166 157 l-28 57 0 1615 0 1615 28 57 c44 89 134 158 230 178
23 4 321 8 662 9 l620 0 209 -315z"/>
<path d="M2494 3151 c-23 -10 -52 -34 -65 -52 l-24 -34 -3 -619 -2 -620 -218
216 c-234 233 -243 239 -329 223 -49 -9 -109 -69 -118 -118 -17 -90 -24 -82
378 -484 403 -402 393 -395 484 -378 33 5 85 53 410 378 325 325 373 377 378
410 11 60 -3 107 -44 148 -41 41 -88 55 -148 44 -32 -6 -70 -39 -255 -223
l-218 -216 0 609 0 610 -23 40 c-24 43 -92 85 -137 85 -14 0 -43 -9 -66 -19z"/>
</g>
</svg>
